%TF.GenerationSoftware,KiCad,Pcbnew,9.0.0*%
%TF.CreationDate,2025-04-30T10:12:32-04:00*%
%TF.ProjectId,emberone,656d6265-726f-46e6-952e-6b696361645f,rev?*%
%TF.SameCoordinates,Original*%
%TF.FileFunction,Paste,Top*%
%TF.FilePolarity,Positive*%
%FSLAX46Y46*%
G04 Gerber Fmt 4.6, Leading zero omitted, Abs format (unit mm)*
G04 Created by KiCad (PCBNEW 9.0.0) date 2025-04-30 10:12:32*
%MOMM*%
%LPD*%
G01*
G04 APERTURE LIST*
G04 Aperture macros list*
%AMRoundRect*
0 Rectangle with rounded corners*
0 $1 Rounding radius*
0 $2 $3 $4 $5 $6 $7 $8 $9 X,Y pos of 4 corners*
0 Add a 4 corners polygon primitive as box body*
4,1,4,$2,$3,$4,$5,$6,$7,$8,$9,$2,$3,0*
0 Add four circle primitives for the rounded corners*
1,1,$1+$1,$2,$3*
1,1,$1+$1,$4,$5*
1,1,$1+$1,$6,$7*
1,1,$1+$1,$8,$9*
0 Add four rect primitives between the rounded corners*
20,1,$1+$1,$2,$3,$4,$5,0*
20,1,$1+$1,$4,$5,$6,$7,0*
20,1,$1+$1,$6,$7,$8,$9,0*
20,1,$1+$1,$8,$9,$2,$3,0*%
G04 Aperture macros list end*
%ADD10C,0.001000*%
%ADD11C,0.000000*%
%ADD12RoundRect,0.100000X0.400000X0.100000X-0.400000X0.100000X-0.400000X-0.100000X0.400000X-0.100000X0*%
%ADD13R,1.905000X3.352800*%
%ADD14RoundRect,0.100000X0.100000X-0.637500X0.100000X0.637500X-0.100000X0.637500X-0.100000X-0.637500X0*%
%ADD15RoundRect,0.200000X0.275000X-0.200000X0.275000X0.200000X-0.275000X0.200000X-0.275000X-0.200000X0*%
%ADD16RoundRect,0.250000X0.475000X-0.250000X0.475000X0.250000X-0.475000X0.250000X-0.475000X-0.250000X0*%
%ADD17R,1.168400X0.711200*%
%ADD18RoundRect,0.200000X0.200000X0.275000X-0.200000X0.275000X-0.200000X-0.275000X0.200000X-0.275000X0*%
%ADD19RoundRect,0.135000X0.135000X0.185000X-0.135000X0.185000X-0.135000X-0.185000X0.135000X-0.185000X0*%
%ADD20RoundRect,0.200000X-0.200000X-0.275000X0.200000X-0.275000X0.200000X0.275000X-0.200000X0.275000X0*%
%ADD21R,0.509999X0.910001*%
%ADD22RoundRect,0.140000X0.140000X0.170000X-0.140000X0.170000X-0.140000X-0.170000X0.140000X-0.170000X0*%
%ADD23RoundRect,0.100000X-0.400000X-0.100000X0.400000X-0.100000X0.400000X0.100000X-0.400000X0.100000X0*%
%ADD24RoundRect,0.250000X-0.250000X-0.475000X0.250000X-0.475000X0.250000X0.475000X-0.250000X0.475000X0*%
%ADD25RoundRect,0.250000X-0.475000X0.250000X-0.475000X-0.250000X0.475000X-0.250000X0.475000X0.250000X0*%
%ADD26RoundRect,0.249999X-0.395001X-0.395001X0.395001X-0.395001X0.395001X0.395001X-0.395001X0.395001X0*%
%ADD27RoundRect,0.050000X-0.387500X-0.050000X0.387500X-0.050000X0.387500X0.050000X-0.387500X0.050000X0*%
%ADD28RoundRect,0.050000X-0.050000X-0.387500X0.050000X-0.387500X0.050000X0.387500X-0.050000X0.387500X0*%
%ADD29RoundRect,0.140000X0.170000X-0.140000X0.170000X0.140000X-0.170000X0.140000X-0.170000X-0.140000X0*%
%ADD30RoundRect,0.140000X-0.140000X-0.170000X0.140000X-0.170000X0.140000X0.170000X-0.140000X0.170000X0*%
%ADD31RoundRect,0.250000X0.250000X0.475000X-0.250000X0.475000X-0.250000X-0.475000X0.250000X-0.475000X0*%
%ADD32RoundRect,0.135000X0.185000X-0.135000X0.185000X0.135000X-0.185000X0.135000X-0.185000X-0.135000X0*%
%ADD33RoundRect,0.135000X-0.185000X0.135000X-0.185000X-0.135000X0.185000X-0.135000X0.185000X0.135000X0*%
%ADD34R,1.000000X1.200000*%
%ADD35R,0.700000X1.200000*%
%ADD36R,0.450000X1.200000*%
%ADD37RoundRect,0.112500X0.112500X-0.612500X0.112500X0.612500X-0.112500X0.612500X-0.112500X-0.612500X0*%
%ADD38R,3.352800X1.905000*%
%ADD39R,0.711200X1.168400*%
%ADD40R,5.588000X5.334000*%
%ADD41R,5.283200X6.350000*%
%ADD42R,0.950000X2.150000*%
%ADD43R,3.250000X2.150000*%
%ADD44RoundRect,0.200000X-0.275000X0.200000X-0.275000X-0.200000X0.275000X-0.200000X0.275000X0.200000X0*%
%ADD45RoundRect,0.150000X0.150000X0.400000X-0.150000X0.400000X-0.150000X-0.400000X0.150000X-0.400000X0*%
%ADD46RoundRect,0.150000X0.150000X0.425000X-0.150000X0.425000X-0.150000X-0.425000X0.150000X-0.425000X0*%
%ADD47RoundRect,0.075000X0.075000X0.500000X-0.075000X0.500000X-0.075000X-0.500000X0.075000X-0.500000X0*%
%ADD48O,1.000000X2.100000*%
%ADD49O,1.000000X1.800000*%
%ADD50RoundRect,0.140000X-0.170000X0.140000X-0.170000X-0.140000X0.170000X-0.140000X0.170000X0.140000X0*%
%ADD51R,0.812800X0.254000*%
%ADD52R,0.254000X1.651000*%
%ADD53R,1.498600X3.302000*%
%ADD54R,3.454400X5.588000*%
%ADD55RoundRect,0.135000X-0.135000X-0.185000X0.135000X-0.185000X0.135000X0.185000X-0.135000X0.185000X0*%
%ADD56R,1.100000X1.300000*%
%ADD57RoundRect,0.050000X0.150000X-0.500000X0.150000X0.500000X-0.150000X0.500000X-0.150000X-0.500000X0*%
%ADD58RoundRect,0.050000X0.077000X0.254800X-0.077000X0.254800X-0.077000X-0.254800X0.077000X-0.254800X0*%
%ADD59RoundRect,0.050000X0.254800X-0.077000X0.254800X0.077000X-0.254800X0.077000X-0.254800X-0.077000X0*%
%ADD60R,0.910001X0.509999*%
%ADD61RoundRect,0.100000X-0.100000X0.637500X-0.100000X-0.637500X0.100000X-0.637500X0.100000X0.637500X0*%
G04 APERTURE END LIST*
%TO.C,U55*%
D10*
X157300000Y-171500000D02*
X158300000Y-171500000D01*
X158300000Y-172250000D01*
X157300000Y-172250000D01*
X157300000Y-171500000D01*
G36*
X157300000Y-171500000D02*
G01*
X158300000Y-171500000D01*
X158300000Y-172250000D01*
X157300000Y-172250000D01*
X157300000Y-171500000D01*
G37*
X157310000Y-173360000D02*
X158310000Y-173360000D01*
X158310000Y-174110000D01*
X157310000Y-174110000D01*
X157310000Y-173360000D01*
G36*
X157310000Y-173360000D02*
G01*
X158310000Y-173360000D01*
X158310000Y-174110000D01*
X157310000Y-174110000D01*
X157310000Y-173360000D01*
G37*
X157320000Y-175190000D02*
X158320000Y-175190000D01*
X158320000Y-175940000D01*
X157320000Y-175940000D01*
X157320000Y-175190000D01*
G36*
X157320000Y-175190000D02*
G01*
X158320000Y-175190000D01*
X158320000Y-175940000D01*
X157320000Y-175940000D01*
X157320000Y-175190000D01*
G37*
X157320000Y-177590000D02*
X158320000Y-177590000D01*
X158320000Y-178340000D01*
X157320000Y-178340000D01*
X157320000Y-177590000D01*
G36*
X157320000Y-177590000D02*
G01*
X158320000Y-177590000D01*
X158320000Y-178340000D01*
X157320000Y-178340000D01*
X157320000Y-177590000D01*
G37*
X159450000Y-171500000D02*
X160450000Y-171500000D01*
X160450000Y-172250000D01*
X159450000Y-172250000D01*
X159450000Y-171500000D01*
G36*
X159450000Y-171500000D02*
G01*
X160450000Y-171500000D01*
X160450000Y-172250000D01*
X159450000Y-172250000D01*
X159450000Y-171500000D01*
G37*
X159460000Y-173360000D02*
X160460000Y-173360000D01*
X160460000Y-174110000D01*
X159460000Y-174110000D01*
X159460000Y-173360000D01*
G36*
X159460000Y-173360000D02*
G01*
X160460000Y-173360000D01*
X160460000Y-174110000D01*
X159460000Y-174110000D01*
X159460000Y-173360000D01*
G37*
X159470000Y-175190000D02*
X160470000Y-175190000D01*
X160470000Y-175940000D01*
X159470000Y-175940000D01*
X159470000Y-175190000D01*
G36*
X159470000Y-175190000D02*
G01*
X160470000Y-175190000D01*
X160470000Y-175940000D01*
X159470000Y-175940000D01*
X159470000Y-175190000D01*
G37*
X159500000Y-177570000D02*
X160500000Y-177570000D01*
X160500000Y-178320000D01*
X159500000Y-178320000D01*
X159500000Y-177570000D01*
G36*
X159500000Y-177570000D02*
G01*
X160500000Y-177570000D01*
X160500000Y-178320000D01*
X159500000Y-178320000D01*
X159500000Y-177570000D01*
G37*
X161640000Y-177565000D02*
X162640000Y-177565000D01*
X162640000Y-178315000D01*
X161640000Y-178315000D01*
X161640000Y-177565000D01*
G36*
X161640000Y-177565000D02*
G01*
X162640000Y-177565000D01*
X162640000Y-178315000D01*
X161640000Y-178315000D01*
X161640000Y-177565000D01*
G37*
X161660000Y-171510000D02*
X162660000Y-171510000D01*
X162660000Y-172260000D01*
X161660000Y-172260000D01*
X161660000Y-171510000D01*
G36*
X161660000Y-171510000D02*
G01*
X162660000Y-171510000D01*
X162660000Y-172260000D01*
X161660000Y-172260000D01*
X161660000Y-171510000D01*
G37*
X161670000Y-173370000D02*
X162670000Y-173370000D01*
X162670000Y-174120000D01*
X161670000Y-174120000D01*
X161670000Y-173370000D01*
G36*
X161670000Y-173370000D02*
G01*
X162670000Y-173370000D01*
X162670000Y-174120000D01*
X161670000Y-174120000D01*
X161670000Y-173370000D01*
G37*
X161680000Y-175200000D02*
X162680000Y-175200000D01*
X162680000Y-175950000D01*
X161680000Y-175950000D01*
X161680000Y-175200000D01*
G36*
X161680000Y-175200000D02*
G01*
X162680000Y-175200000D01*
X162680000Y-175950000D01*
X161680000Y-175950000D01*
X161680000Y-175200000D01*
G37*
D11*
%TO.C,Q4*%
G36*
X205083454Y-111505964D02*
G01*
X205092834Y-111508809D01*
X205101478Y-111513429D01*
X205109055Y-111519647D01*
X205115273Y-111527224D01*
X205119895Y-111535867D01*
X205122740Y-111545248D01*
X205123700Y-111555004D01*
X205123700Y-113035001D01*
X205122740Y-113044757D01*
X205119895Y-113054137D01*
X205115273Y-113062781D01*
X205109055Y-113070358D01*
X205101478Y-113076576D01*
X205092834Y-113081196D01*
X205083454Y-113084041D01*
X205073700Y-113085001D01*
X203923700Y-113085001D01*
X203913947Y-113084041D01*
X203904566Y-113081196D01*
X203895923Y-113076576D01*
X203888346Y-113070358D01*
X203882128Y-113062781D01*
X203877505Y-113054137D01*
X203874660Y-113044757D01*
X203873700Y-113035001D01*
X203873700Y-111555004D01*
X203874660Y-111545248D01*
X203877505Y-111535867D01*
X203882128Y-111527224D01*
X203888346Y-111519647D01*
X203895923Y-111513429D01*
X203904566Y-111508809D01*
X203913947Y-111505964D01*
X203923700Y-111505001D01*
X205073700Y-111505001D01*
X205083454Y-111505964D01*
G37*
G36*
X205083454Y-113285965D02*
G01*
X205092834Y-113288810D01*
X205101478Y-113293431D01*
X205109055Y-113299648D01*
X205115273Y-113307225D01*
X205119895Y-113315869D01*
X205122740Y-113325249D01*
X205123700Y-113335005D01*
X205123700Y-114815002D01*
X205122740Y-114824758D01*
X205119895Y-114834139D01*
X205115273Y-114842782D01*
X205109055Y-114850359D01*
X205101478Y-114856577D01*
X205092834Y-114861197D01*
X205083454Y-114864042D01*
X205073700Y-114865005D01*
X203923700Y-114865005D01*
X203913947Y-114864042D01*
X203904566Y-114861197D01*
X203895923Y-114856577D01*
X203888346Y-114850359D01*
X203882128Y-114842782D01*
X203877505Y-114834139D01*
X203874660Y-114824758D01*
X203873700Y-114815002D01*
X203873700Y-113335005D01*
X203874660Y-113325249D01*
X203877505Y-113315869D01*
X203882128Y-113307225D01*
X203888346Y-113299648D01*
X203895923Y-113293431D01*
X203904566Y-113288810D01*
X203913947Y-113285965D01*
X203923700Y-113285005D01*
X205073700Y-113285005D01*
X205083454Y-113285965D01*
G37*
G36*
X206533454Y-111505964D02*
G01*
X206542834Y-111508809D01*
X206551478Y-111513429D01*
X206559054Y-111519647D01*
X206565272Y-111527224D01*
X206569895Y-111535867D01*
X206572740Y-111545248D01*
X206573700Y-111555004D01*
X206573700Y-113035001D01*
X206572740Y-113044757D01*
X206569895Y-113054137D01*
X206565272Y-113062781D01*
X206559054Y-113070358D01*
X206551478Y-113076576D01*
X206542834Y-113081196D01*
X206533454Y-113084041D01*
X206523700Y-113085001D01*
X205373700Y-113085001D01*
X205363946Y-113084041D01*
X205354566Y-113081196D01*
X205345922Y-113076576D01*
X205338346Y-113070358D01*
X205332128Y-113062781D01*
X205327505Y-113054137D01*
X205324660Y-113044757D01*
X205323700Y-113035001D01*
X205323700Y-111555004D01*
X205324660Y-111545248D01*
X205327505Y-111535867D01*
X205332128Y-111527224D01*
X205338346Y-111519647D01*
X205345922Y-111513429D01*
X205354566Y-111508809D01*
X205363946Y-111505964D01*
X205373700Y-111505001D01*
X206523700Y-111505001D01*
X206533454Y-111505964D01*
G37*
G36*
X206533454Y-113285965D02*
G01*
X206542834Y-113288810D01*
X206551478Y-113293431D01*
X206559054Y-113299648D01*
X206565272Y-113307225D01*
X206569895Y-113315869D01*
X206572740Y-113325249D01*
X206573700Y-113335005D01*
X206573700Y-114815002D01*
X206572740Y-114824758D01*
X206569895Y-114834139D01*
X206565272Y-114842782D01*
X206559054Y-114850359D01*
X206551478Y-114856577D01*
X206542834Y-114861197D01*
X206533454Y-114864042D01*
X206523700Y-114865005D01*
X205373700Y-114865005D01*
X205363946Y-114864042D01*
X205354566Y-114861197D01*
X205345922Y-114856577D01*
X205338346Y-114850359D01*
X205332128Y-114842782D01*
X205327505Y-114834139D01*
X205324660Y-114824758D01*
X205323700Y-114815002D01*
X205323700Y-113335005D01*
X205324660Y-113325249D01*
X205327505Y-113315869D01*
X205332128Y-113307225D01*
X205338346Y-113299648D01*
X205345922Y-113293431D01*
X205354566Y-113288810D01*
X205363946Y-113285965D01*
X205373700Y-113285005D01*
X206523700Y-113285005D01*
X206533454Y-113285965D01*
G37*
G36*
X207983453Y-111505964D02*
G01*
X207992834Y-111508809D01*
X208001477Y-111513429D01*
X208009054Y-111519647D01*
X208015272Y-111527224D01*
X208019895Y-111535867D01*
X208022740Y-111545248D01*
X208023700Y-111555004D01*
X208023700Y-113035001D01*
X208022740Y-113044757D01*
X208019895Y-113054137D01*
X208015272Y-113062781D01*
X208009054Y-113070358D01*
X208001477Y-113076576D01*
X207992834Y-113081196D01*
X207983453Y-113084041D01*
X207973700Y-113085001D01*
X206823700Y-113085001D01*
X206813946Y-113084041D01*
X206804566Y-113081196D01*
X206795922Y-113076576D01*
X206788345Y-113070358D01*
X206782127Y-113062781D01*
X206777505Y-113054137D01*
X206774660Y-113044757D01*
X206773700Y-113035001D01*
X206773700Y-111555004D01*
X206774660Y-111545248D01*
X206777505Y-111535867D01*
X206782127Y-111527224D01*
X206788345Y-111519647D01*
X206795922Y-111513429D01*
X206804566Y-111508809D01*
X206813946Y-111505964D01*
X206823700Y-111505001D01*
X207973700Y-111505001D01*
X207983453Y-111505964D01*
G37*
G36*
X207983453Y-113285965D02*
G01*
X207992834Y-113288810D01*
X208001477Y-113293431D01*
X208009054Y-113299648D01*
X208015272Y-113307225D01*
X208019895Y-113315869D01*
X208022740Y-113325249D01*
X208023700Y-113335005D01*
X208023700Y-114815002D01*
X208022740Y-114824758D01*
X208019895Y-114834139D01*
X208015272Y-114842782D01*
X208009054Y-114850359D01*
X208001477Y-114856577D01*
X207992834Y-114861197D01*
X207983453Y-114864042D01*
X207973700Y-114865005D01*
X206823700Y-114865005D01*
X206813946Y-114864042D01*
X206804566Y-114861197D01*
X206795922Y-114856577D01*
X206788345Y-114850359D01*
X206782127Y-114842782D01*
X206777505Y-114834139D01*
X206774660Y-114824758D01*
X206773700Y-114815002D01*
X206773700Y-113335005D01*
X206774660Y-113325249D01*
X206777505Y-113315869D01*
X206782127Y-113307225D01*
X206788345Y-113299648D01*
X206795922Y-113293431D01*
X206804566Y-113288810D01*
X206813946Y-113285965D01*
X206823700Y-113285005D01*
X207973700Y-113285005D01*
X207983453Y-113285965D01*
G37*
%TO.C,U65*%
D10*
X179810000Y-188160000D02*
X178810000Y-188160000D01*
X178810000Y-187410000D01*
X179810000Y-187410000D01*
X179810000Y-188160000D01*
G36*
X179810000Y-188160000D02*
G01*
X178810000Y-188160000D01*
X178810000Y-187410000D01*
X179810000Y-187410000D01*
X179810000Y-188160000D01*
G37*
X179820000Y-189990000D02*
X178820000Y-189990000D01*
X178820000Y-189240000D01*
X179820000Y-189240000D01*
X179820000Y-189990000D01*
G36*
X179820000Y-189990000D02*
G01*
X178820000Y-189990000D01*
X178820000Y-189240000D01*
X179820000Y-189240000D01*
X179820000Y-189990000D01*
G37*
X179830000Y-191850000D02*
X178830000Y-191850000D01*
X178830000Y-191100000D01*
X179830000Y-191100000D01*
X179830000Y-191850000D01*
G36*
X179830000Y-191850000D02*
G01*
X178830000Y-191850000D01*
X178830000Y-191100000D01*
X179830000Y-191100000D01*
X179830000Y-191850000D01*
G37*
X179850000Y-185795000D02*
X178850000Y-185795000D01*
X178850000Y-185045000D01*
X179850000Y-185045000D01*
X179850000Y-185795000D01*
G36*
X179850000Y-185795000D02*
G01*
X178850000Y-185795000D01*
X178850000Y-185045000D01*
X179850000Y-185045000D01*
X179850000Y-185795000D01*
G37*
X181990000Y-185790000D02*
X180990000Y-185790000D01*
X180990000Y-185040000D01*
X181990000Y-185040000D01*
X181990000Y-185790000D01*
G36*
X181990000Y-185790000D02*
G01*
X180990000Y-185790000D01*
X180990000Y-185040000D01*
X181990000Y-185040000D01*
X181990000Y-185790000D01*
G37*
X182020000Y-188170000D02*
X181020000Y-188170000D01*
X181020000Y-187420000D01*
X182020000Y-187420000D01*
X182020000Y-188170000D01*
G36*
X182020000Y-188170000D02*
G01*
X181020000Y-188170000D01*
X181020000Y-187420000D01*
X182020000Y-187420000D01*
X182020000Y-188170000D01*
G37*
X182030000Y-190000000D02*
X181030000Y-190000000D01*
X181030000Y-189250000D01*
X182030000Y-189250000D01*
X182030000Y-190000000D01*
G36*
X182030000Y-190000000D02*
G01*
X181030000Y-190000000D01*
X181030000Y-189250000D01*
X182030000Y-189250000D01*
X182030000Y-190000000D01*
G37*
X182040000Y-191860000D02*
X181040000Y-191860000D01*
X181040000Y-191110000D01*
X182040000Y-191110000D01*
X182040000Y-191860000D01*
G36*
X182040000Y-191860000D02*
G01*
X181040000Y-191860000D01*
X181040000Y-191110000D01*
X182040000Y-191110000D01*
X182040000Y-191860000D01*
G37*
X184170000Y-185770000D02*
X183170000Y-185770000D01*
X183170000Y-185020000D01*
X184170000Y-185020000D01*
X184170000Y-185770000D01*
G36*
X184170000Y-185770000D02*
G01*
X183170000Y-185770000D01*
X183170000Y-185020000D01*
X184170000Y-185020000D01*
X184170000Y-185770000D01*
G37*
X184170000Y-188170000D02*
X183170000Y-188170000D01*
X183170000Y-187420000D01*
X184170000Y-187420000D01*
X184170000Y-188170000D01*
G36*
X184170000Y-188170000D02*
G01*
X183170000Y-188170000D01*
X183170000Y-187420000D01*
X184170000Y-187420000D01*
X184170000Y-188170000D01*
G37*
X184180000Y-190000000D02*
X183180000Y-190000000D01*
X183180000Y-189250000D01*
X184180000Y-189250000D01*
X184180000Y-190000000D01*
G36*
X184180000Y-190000000D02*
G01*
X183180000Y-190000000D01*
X183180000Y-189250000D01*
X184180000Y-189250000D01*
X184180000Y-190000000D01*
G37*
X184190000Y-191860000D02*
X183190000Y-191860000D01*
X183190000Y-191110000D01*
X184190000Y-191110000D01*
X184190000Y-191860000D01*
G36*
X184190000Y-191860000D02*
G01*
X183190000Y-191860000D01*
X183190000Y-191110000D01*
X184190000Y-191110000D01*
X184190000Y-191860000D01*
G37*
%TO.C,U47*%
X136770000Y-188130000D02*
X135770000Y-188130000D01*
X135770000Y-187380000D01*
X136770000Y-187380000D01*
X136770000Y-188130000D01*
G36*
X136770000Y-188130000D02*
G01*
X135770000Y-188130000D01*
X135770000Y-187380000D01*
X136770000Y-187380000D01*
X136770000Y-188130000D01*
G37*
X136780000Y-189960000D02*
X135780000Y-189960000D01*
X135780000Y-189210000D01*
X136780000Y-189210000D01*
X136780000Y-189960000D01*
G36*
X136780000Y-189960000D02*
G01*
X135780000Y-189960000D01*
X135780000Y-189210000D01*
X136780000Y-189210000D01*
X136780000Y-189960000D01*
G37*
X136790000Y-191820000D02*
X135790000Y-191820000D01*
X135790000Y-191070000D01*
X136790000Y-191070000D01*
X136790000Y-191820000D01*
G36*
X136790000Y-191820000D02*
G01*
X135790000Y-191820000D01*
X135790000Y-191070000D01*
X136790000Y-191070000D01*
X136790000Y-191820000D01*
G37*
X136810000Y-185765000D02*
X135810000Y-185765000D01*
X135810000Y-185015000D01*
X136810000Y-185015000D01*
X136810000Y-185765000D01*
G36*
X136810000Y-185765000D02*
G01*
X135810000Y-185765000D01*
X135810000Y-185015000D01*
X136810000Y-185015000D01*
X136810000Y-185765000D01*
G37*
X138950000Y-185760000D02*
X137950000Y-185760000D01*
X137950000Y-185010000D01*
X138950000Y-185010000D01*
X138950000Y-185760000D01*
G36*
X138950000Y-185760000D02*
G01*
X137950000Y-185760000D01*
X137950000Y-185010000D01*
X138950000Y-185010000D01*
X138950000Y-185760000D01*
G37*
X138980000Y-188140000D02*
X137980000Y-188140000D01*
X137980000Y-187390000D01*
X138980000Y-187390000D01*
X138980000Y-188140000D01*
G36*
X138980000Y-188140000D02*
G01*
X137980000Y-188140000D01*
X137980000Y-187390000D01*
X138980000Y-187390000D01*
X138980000Y-188140000D01*
G37*
X138990000Y-189970000D02*
X137990000Y-189970000D01*
X137990000Y-189220000D01*
X138990000Y-189220000D01*
X138990000Y-189970000D01*
G36*
X138990000Y-189970000D02*
G01*
X137990000Y-189970000D01*
X137990000Y-189220000D01*
X138990000Y-189220000D01*
X138990000Y-189970000D01*
G37*
X139000000Y-191830000D02*
X138000000Y-191830000D01*
X138000000Y-191080000D01*
X139000000Y-191080000D01*
X139000000Y-191830000D01*
G36*
X139000000Y-191830000D02*
G01*
X138000000Y-191830000D01*
X138000000Y-191080000D01*
X139000000Y-191080000D01*
X139000000Y-191830000D01*
G37*
X141130000Y-185740000D02*
X140130000Y-185740000D01*
X140130000Y-184990000D01*
X141130000Y-184990000D01*
X141130000Y-185740000D01*
G36*
X141130000Y-185740000D02*
G01*
X140130000Y-185740000D01*
X140130000Y-184990000D01*
X141130000Y-184990000D01*
X141130000Y-185740000D01*
G37*
X141130000Y-188140000D02*
X140130000Y-188140000D01*
X140130000Y-187390000D01*
X141130000Y-187390000D01*
X141130000Y-188140000D01*
G36*
X141130000Y-188140000D02*
G01*
X140130000Y-188140000D01*
X140130000Y-187390000D01*
X141130000Y-187390000D01*
X141130000Y-188140000D01*
G37*
X141140000Y-189970000D02*
X140140000Y-189970000D01*
X140140000Y-189220000D01*
X141140000Y-189220000D01*
X141140000Y-189970000D01*
G36*
X141140000Y-189970000D02*
G01*
X140140000Y-189970000D01*
X140140000Y-189220000D01*
X141140000Y-189220000D01*
X141140000Y-189970000D01*
G37*
X141150000Y-191830000D02*
X140150000Y-191830000D01*
X140150000Y-191080000D01*
X141150000Y-191080000D01*
X141150000Y-191830000D01*
G36*
X141150000Y-191830000D02*
G01*
X140150000Y-191830000D01*
X140150000Y-191080000D01*
X141150000Y-191080000D01*
X141150000Y-191830000D01*
G37*
%TO.C,U74*%
X200360000Y-157910000D02*
X201360000Y-157910000D01*
X201360000Y-158660000D01*
X200360000Y-158660000D01*
X200360000Y-157910000D01*
G36*
X200360000Y-157910000D02*
G01*
X201360000Y-157910000D01*
X201360000Y-158660000D01*
X200360000Y-158660000D01*
X200360000Y-157910000D01*
G37*
X200370000Y-159770000D02*
X201370000Y-159770000D01*
X201370000Y-160520000D01*
X200370000Y-160520000D01*
X200370000Y-159770000D01*
G36*
X200370000Y-159770000D02*
G01*
X201370000Y-159770000D01*
X201370000Y-160520000D01*
X200370000Y-160520000D01*
X200370000Y-159770000D01*
G37*
X200380000Y-161600000D02*
X201380000Y-161600000D01*
X201380000Y-162350000D01*
X200380000Y-162350000D01*
X200380000Y-161600000D01*
G36*
X200380000Y-161600000D02*
G01*
X201380000Y-161600000D01*
X201380000Y-162350000D01*
X200380000Y-162350000D01*
X200380000Y-161600000D01*
G37*
X200380000Y-164000000D02*
X201380000Y-164000000D01*
X201380000Y-164750000D01*
X200380000Y-164750000D01*
X200380000Y-164000000D01*
G36*
X200380000Y-164000000D02*
G01*
X201380000Y-164000000D01*
X201380000Y-164750000D01*
X200380000Y-164750000D01*
X200380000Y-164000000D01*
G37*
X202510000Y-157910000D02*
X203510000Y-157910000D01*
X203510000Y-158660000D01*
X202510000Y-158660000D01*
X202510000Y-157910000D01*
G36*
X202510000Y-157910000D02*
G01*
X203510000Y-157910000D01*
X203510000Y-158660000D01*
X202510000Y-158660000D01*
X202510000Y-157910000D01*
G37*
X202520000Y-159770000D02*
X203520000Y-159770000D01*
X203520000Y-160520000D01*
X202520000Y-160520000D01*
X202520000Y-159770000D01*
G36*
X202520000Y-159770000D02*
G01*
X203520000Y-159770000D01*
X203520000Y-160520000D01*
X202520000Y-160520000D01*
X202520000Y-159770000D01*
G37*
X202530000Y-161600000D02*
X203530000Y-161600000D01*
X203530000Y-162350000D01*
X202530000Y-162350000D01*
X202530000Y-161600000D01*
G36*
X202530000Y-161600000D02*
G01*
X203530000Y-161600000D01*
X203530000Y-162350000D01*
X202530000Y-162350000D01*
X202530000Y-161600000D01*
G37*
X202560000Y-163980000D02*
X203560000Y-163980000D01*
X203560000Y-164730000D01*
X202560000Y-164730000D01*
X202560000Y-163980000D01*
G36*
X202560000Y-163980000D02*
G01*
X203560000Y-163980000D01*
X203560000Y-164730000D01*
X202560000Y-164730000D01*
X202560000Y-163980000D01*
G37*
X204700000Y-163975000D02*
X205700000Y-163975000D01*
X205700000Y-164725000D01*
X204700000Y-164725000D01*
X204700000Y-163975000D01*
G36*
X204700000Y-163975000D02*
G01*
X205700000Y-163975000D01*
X205700000Y-164725000D01*
X204700000Y-164725000D01*
X204700000Y-163975000D01*
G37*
X204720000Y-157920000D02*
X205720000Y-157920000D01*
X205720000Y-158670000D01*
X204720000Y-158670000D01*
X204720000Y-157920000D01*
G36*
X204720000Y-157920000D02*
G01*
X205720000Y-157920000D01*
X205720000Y-158670000D01*
X204720000Y-158670000D01*
X204720000Y-157920000D01*
G37*
X204730000Y-159780000D02*
X205730000Y-159780000D01*
X205730000Y-160530000D01*
X204730000Y-160530000D01*
X204730000Y-159780000D01*
G36*
X204730000Y-159780000D02*
G01*
X205730000Y-159780000D01*
X205730000Y-160530000D01*
X204730000Y-160530000D01*
X204730000Y-159780000D01*
G37*
X204740000Y-161610000D02*
X205740000Y-161610000D01*
X205740000Y-162360000D01*
X204740000Y-162360000D01*
X204740000Y-161610000D01*
G36*
X204740000Y-161610000D02*
G01*
X205740000Y-161610000D01*
X205740000Y-162360000D01*
X204740000Y-162360000D01*
X204740000Y-161610000D01*
G37*
%TO.C,U54*%
X157300000Y-185170000D02*
X158300000Y-185170000D01*
X158300000Y-185920000D01*
X157300000Y-185920000D01*
X157300000Y-185170000D01*
G36*
X157300000Y-185170000D02*
G01*
X158300000Y-185170000D01*
X158300000Y-185920000D01*
X157300000Y-185920000D01*
X157300000Y-185170000D01*
G37*
X157310000Y-187030000D02*
X158310000Y-187030000D01*
X158310000Y-187780000D01*
X157310000Y-187780000D01*
X157310000Y-187030000D01*
G36*
X157310000Y-187030000D02*
G01*
X158310000Y-187030000D01*
X158310000Y-187780000D01*
X157310000Y-187780000D01*
X157310000Y-187030000D01*
G37*
X157320000Y-188860000D02*
X158320000Y-188860000D01*
X158320000Y-189610000D01*
X157320000Y-189610000D01*
X157320000Y-188860000D01*
G36*
X157320000Y-188860000D02*
G01*
X158320000Y-188860000D01*
X158320000Y-189610000D01*
X157320000Y-189610000D01*
X157320000Y-188860000D01*
G37*
X157320000Y-191260000D02*
X158320000Y-191260000D01*
X158320000Y-192010000D01*
X157320000Y-192010000D01*
X157320000Y-191260000D01*
G36*
X157320000Y-191260000D02*
G01*
X158320000Y-191260000D01*
X158320000Y-192010000D01*
X157320000Y-192010000D01*
X157320000Y-191260000D01*
G37*
X159450000Y-185170000D02*
X160450000Y-185170000D01*
X160450000Y-185920000D01*
X159450000Y-185920000D01*
X159450000Y-185170000D01*
G36*
X159450000Y-185170000D02*
G01*
X160450000Y-185170000D01*
X160450000Y-185920000D01*
X159450000Y-185920000D01*
X159450000Y-185170000D01*
G37*
X159460000Y-187030000D02*
X160460000Y-187030000D01*
X160460000Y-187780000D01*
X159460000Y-187780000D01*
X159460000Y-187030000D01*
G36*
X159460000Y-187030000D02*
G01*
X160460000Y-187030000D01*
X160460000Y-187780000D01*
X159460000Y-187780000D01*
X159460000Y-187030000D01*
G37*
X159470000Y-188860000D02*
X160470000Y-188860000D01*
X160470000Y-189610000D01*
X159470000Y-189610000D01*
X159470000Y-188860000D01*
G36*
X159470000Y-188860000D02*
G01*
X160470000Y-188860000D01*
X160470000Y-189610000D01*
X159470000Y-189610000D01*
X159470000Y-188860000D01*
G37*
X159500000Y-191240000D02*
X160500000Y-191240000D01*
X160500000Y-191990000D01*
X159500000Y-191990000D01*
X159500000Y-191240000D01*
G36*
X159500000Y-191240000D02*
G01*
X160500000Y-191240000D01*
X160500000Y-191990000D01*
X159500000Y-191990000D01*
X159500000Y-191240000D01*
G37*
X161640000Y-191235000D02*
X162640000Y-191235000D01*
X162640000Y-191985000D01*
X161640000Y-191985000D01*
X161640000Y-191235000D01*
G36*
X161640000Y-191235000D02*
G01*
X162640000Y-191235000D01*
X162640000Y-191985000D01*
X161640000Y-191985000D01*
X161640000Y-191235000D01*
G37*
X161660000Y-185180000D02*
X162660000Y-185180000D01*
X162660000Y-185930000D01*
X161660000Y-185930000D01*
X161660000Y-185180000D01*
G36*
X161660000Y-185180000D02*
G01*
X162660000Y-185180000D01*
X162660000Y-185930000D01*
X161660000Y-185930000D01*
X161660000Y-185180000D01*
G37*
X161670000Y-187040000D02*
X162670000Y-187040000D01*
X162670000Y-187790000D01*
X161670000Y-187790000D01*
X161670000Y-187040000D01*
G36*
X161670000Y-187040000D02*
G01*
X162670000Y-187040000D01*
X162670000Y-187790000D01*
X161670000Y-187790000D01*
X161670000Y-187040000D01*
G37*
X161680000Y-188870000D02*
X162680000Y-188870000D01*
X162680000Y-189620000D01*
X161680000Y-189620000D01*
X161680000Y-188870000D01*
G36*
X161680000Y-188870000D02*
G01*
X162680000Y-188870000D01*
X162680000Y-189620000D01*
X161680000Y-189620000D01*
X161680000Y-188870000D01*
G37*
%TO.C,U46*%
X136770000Y-174450000D02*
X135770000Y-174450000D01*
X135770000Y-173700000D01*
X136770000Y-173700000D01*
X136770000Y-174450000D01*
G36*
X136770000Y-174450000D02*
G01*
X135770000Y-174450000D01*
X135770000Y-173700000D01*
X136770000Y-173700000D01*
X136770000Y-174450000D01*
G37*
X136780000Y-176280000D02*
X135780000Y-176280000D01*
X135780000Y-175530000D01*
X136780000Y-175530000D01*
X136780000Y-176280000D01*
G36*
X136780000Y-176280000D02*
G01*
X135780000Y-176280000D01*
X135780000Y-175530000D01*
X136780000Y-175530000D01*
X136780000Y-176280000D01*
G37*
X136790000Y-178140000D02*
X135790000Y-178140000D01*
X135790000Y-177390000D01*
X136790000Y-177390000D01*
X136790000Y-178140000D01*
G36*
X136790000Y-178140000D02*
G01*
X135790000Y-178140000D01*
X135790000Y-177390000D01*
X136790000Y-177390000D01*
X136790000Y-178140000D01*
G37*
X136810000Y-172085000D02*
X135810000Y-172085000D01*
X135810000Y-171335000D01*
X136810000Y-171335000D01*
X136810000Y-172085000D01*
G36*
X136810000Y-172085000D02*
G01*
X135810000Y-172085000D01*
X135810000Y-171335000D01*
X136810000Y-171335000D01*
X136810000Y-172085000D01*
G37*
X138950000Y-172080000D02*
X137950000Y-172080000D01*
X137950000Y-171330000D01*
X138950000Y-171330000D01*
X138950000Y-172080000D01*
G36*
X138950000Y-172080000D02*
G01*
X137950000Y-172080000D01*
X137950000Y-171330000D01*
X138950000Y-171330000D01*
X138950000Y-172080000D01*
G37*
X138980000Y-174460000D02*
X137980000Y-174460000D01*
X137980000Y-173710000D01*
X138980000Y-173710000D01*
X138980000Y-174460000D01*
G36*
X138980000Y-174460000D02*
G01*
X137980000Y-174460000D01*
X137980000Y-173710000D01*
X138980000Y-173710000D01*
X138980000Y-174460000D01*
G37*
X138990000Y-176290000D02*
X137990000Y-176290000D01*
X137990000Y-175540000D01*
X138990000Y-175540000D01*
X138990000Y-176290000D01*
G36*
X138990000Y-176290000D02*
G01*
X137990000Y-176290000D01*
X137990000Y-175540000D01*
X138990000Y-175540000D01*
X138990000Y-176290000D01*
G37*
X139000000Y-178150000D02*
X138000000Y-178150000D01*
X138000000Y-177400000D01*
X139000000Y-177400000D01*
X139000000Y-178150000D01*
G36*
X139000000Y-178150000D02*
G01*
X138000000Y-178150000D01*
X138000000Y-177400000D01*
X139000000Y-177400000D01*
X139000000Y-178150000D01*
G37*
X141130000Y-172060000D02*
X140130000Y-172060000D01*
X140130000Y-171310000D01*
X141130000Y-171310000D01*
X141130000Y-172060000D01*
G36*
X141130000Y-172060000D02*
G01*
X140130000Y-172060000D01*
X140130000Y-171310000D01*
X141130000Y-171310000D01*
X141130000Y-172060000D01*
G37*
X141130000Y-174460000D02*
X140130000Y-174460000D01*
X140130000Y-173710000D01*
X141130000Y-173710000D01*
X141130000Y-174460000D01*
G36*
X141130000Y-174460000D02*
G01*
X140130000Y-174460000D01*
X140130000Y-173710000D01*
X141130000Y-173710000D01*
X141130000Y-174460000D01*
G37*
X141140000Y-176290000D02*
X140140000Y-176290000D01*
X140140000Y-175540000D01*
X141140000Y-175540000D01*
X141140000Y-176290000D01*
G36*
X141140000Y-176290000D02*
G01*
X140140000Y-176290000D01*
X140140000Y-175540000D01*
X141140000Y-175540000D01*
X141140000Y-176290000D01*
G37*
X141150000Y-178150000D02*
X140150000Y-178150000D01*
X140150000Y-177400000D01*
X141150000Y-177400000D01*
X141150000Y-178150000D01*
G36*
X141150000Y-178150000D02*
G01*
X140150000Y-178150000D01*
X140150000Y-177400000D01*
X141150000Y-177400000D01*
X141150000Y-178150000D01*
G37*
%TO.C,U45*%
X136770000Y-160760000D02*
X135770000Y-160760000D01*
X135770000Y-160010000D01*
X136770000Y-160010000D01*
X136770000Y-160760000D01*
G36*
X136770000Y-160760000D02*
G01*
X135770000Y-160760000D01*
X135770000Y-160010000D01*
X136770000Y-160010000D01*
X136770000Y-160760000D01*
G37*
X136780000Y-162590000D02*
X135780000Y-162590000D01*
X135780000Y-161840000D01*
X136780000Y-161840000D01*
X136780000Y-162590000D01*
G36*
X136780000Y-162590000D02*
G01*
X135780000Y-162590000D01*
X135780000Y-161840000D01*
X136780000Y-161840000D01*
X136780000Y-162590000D01*
G37*
X136790000Y-164450000D02*
X135790000Y-164450000D01*
X135790000Y-163700000D01*
X136790000Y-163700000D01*
X136790000Y-164450000D01*
G36*
X136790000Y-164450000D02*
G01*
X135790000Y-164450000D01*
X135790000Y-163700000D01*
X136790000Y-163700000D01*
X136790000Y-164450000D01*
G37*
X136810000Y-158395000D02*
X135810000Y-158395000D01*
X135810000Y-157645000D01*
X136810000Y-157645000D01*
X136810000Y-158395000D01*
G36*
X136810000Y-158395000D02*
G01*
X135810000Y-158395000D01*
X135810000Y-157645000D01*
X136810000Y-157645000D01*
X136810000Y-158395000D01*
G37*
X138950000Y-158390000D02*
X137950000Y-158390000D01*
X137950000Y-157640000D01*
X138950000Y-157640000D01*
X138950000Y-158390000D01*
G36*
X138950000Y-158390000D02*
G01*
X137950000Y-158390000D01*
X137950000Y-157640000D01*
X138950000Y-157640000D01*
X138950000Y-158390000D01*
G37*
X138980000Y-160770000D02*
X137980000Y-160770000D01*
X137980000Y-160020000D01*
X138980000Y-160020000D01*
X138980000Y-160770000D01*
G36*
X138980000Y-160770000D02*
G01*
X137980000Y-160770000D01*
X137980000Y-160020000D01*
X138980000Y-160020000D01*
X138980000Y-160770000D01*
G37*
X138990000Y-162600000D02*
X137990000Y-162600000D01*
X137990000Y-161850000D01*
X138990000Y-161850000D01*
X138990000Y-162600000D01*
G36*
X138990000Y-162600000D02*
G01*
X137990000Y-162600000D01*
X137990000Y-161850000D01*
X138990000Y-161850000D01*
X138990000Y-162600000D01*
G37*
X139000000Y-164460000D02*
X138000000Y-164460000D01*
X138000000Y-163710000D01*
X139000000Y-163710000D01*
X139000000Y-164460000D01*
G36*
X139000000Y-164460000D02*
G01*
X138000000Y-164460000D01*
X138000000Y-163710000D01*
X139000000Y-163710000D01*
X139000000Y-164460000D01*
G37*
X141130000Y-158370000D02*
X140130000Y-158370000D01*
X140130000Y-157620000D01*
X141130000Y-157620000D01*
X141130000Y-158370000D01*
G36*
X141130000Y-158370000D02*
G01*
X140130000Y-158370000D01*
X140130000Y-157620000D01*
X141130000Y-157620000D01*
X141130000Y-158370000D01*
G37*
X141130000Y-160770000D02*
X140130000Y-160770000D01*
X140130000Y-160020000D01*
X141130000Y-160020000D01*
X141130000Y-160770000D01*
G36*
X141130000Y-160770000D02*
G01*
X140130000Y-160770000D01*
X140130000Y-160020000D01*
X141130000Y-160020000D01*
X141130000Y-160770000D01*
G37*
X141140000Y-162600000D02*
X140140000Y-162600000D01*
X140140000Y-161850000D01*
X141140000Y-161850000D01*
X141140000Y-162600000D01*
G36*
X141140000Y-162600000D02*
G01*
X140140000Y-162600000D01*
X140140000Y-161850000D01*
X141140000Y-161850000D01*
X141140000Y-162600000D01*
G37*
X141150000Y-164460000D02*
X140150000Y-164460000D01*
X140150000Y-163710000D01*
X141150000Y-163710000D01*
X141150000Y-164460000D01*
G36*
X141150000Y-164460000D02*
G01*
X140150000Y-164460000D01*
X140150000Y-163710000D01*
X141150000Y-163710000D01*
X141150000Y-164460000D01*
G37*
%TO.C,U72*%
X200360000Y-185280000D02*
X201360000Y-185280000D01*
X201360000Y-186030000D01*
X200360000Y-186030000D01*
X200360000Y-185280000D01*
G36*
X200360000Y-185280000D02*
G01*
X201360000Y-185280000D01*
X201360000Y-186030000D01*
X200360000Y-186030000D01*
X200360000Y-185280000D01*
G37*
X200370000Y-187140000D02*
X201370000Y-187140000D01*
X201370000Y-187890000D01*
X200370000Y-187890000D01*
X200370000Y-187140000D01*
G36*
X200370000Y-187140000D02*
G01*
X201370000Y-187140000D01*
X201370000Y-187890000D01*
X200370000Y-187890000D01*
X200370000Y-187140000D01*
G37*
X200380000Y-188970000D02*
X201380000Y-188970000D01*
X201380000Y-189720000D01*
X200380000Y-189720000D01*
X200380000Y-188970000D01*
G36*
X200380000Y-188970000D02*
G01*
X201380000Y-188970000D01*
X201380000Y-189720000D01*
X200380000Y-189720000D01*
X200380000Y-188970000D01*
G37*
X200380000Y-191370000D02*
X201380000Y-191370000D01*
X201380000Y-192120000D01*
X200380000Y-192120000D01*
X200380000Y-191370000D01*
G36*
X200380000Y-191370000D02*
G01*
X201380000Y-191370000D01*
X201380000Y-192120000D01*
X200380000Y-192120000D01*
X200380000Y-191370000D01*
G37*
X202510000Y-185280000D02*
X203510000Y-185280000D01*
X203510000Y-186030000D01*
X202510000Y-186030000D01*
X202510000Y-185280000D01*
G36*
X202510000Y-185280000D02*
G01*
X203510000Y-185280000D01*
X203510000Y-186030000D01*
X202510000Y-186030000D01*
X202510000Y-185280000D01*
G37*
X202520000Y-187140000D02*
X203520000Y-187140000D01*
X203520000Y-187890000D01*
X202520000Y-187890000D01*
X202520000Y-187140000D01*
G36*
X202520000Y-187140000D02*
G01*
X203520000Y-187140000D01*
X203520000Y-187890000D01*
X202520000Y-187890000D01*
X202520000Y-187140000D01*
G37*
X202530000Y-188970000D02*
X203530000Y-188970000D01*
X203530000Y-189720000D01*
X202530000Y-189720000D01*
X202530000Y-188970000D01*
G36*
X202530000Y-188970000D02*
G01*
X203530000Y-188970000D01*
X203530000Y-189720000D01*
X202530000Y-189720000D01*
X202530000Y-188970000D01*
G37*
X202560000Y-191350000D02*
X203560000Y-191350000D01*
X203560000Y-192100000D01*
X202560000Y-192100000D01*
X202560000Y-191350000D01*
G36*
X202560000Y-191350000D02*
G01*
X203560000Y-191350000D01*
X203560000Y-192100000D01*
X202560000Y-192100000D01*
X202560000Y-191350000D01*
G37*
X204700000Y-191345000D02*
X205700000Y-191345000D01*
X205700000Y-192095000D01*
X204700000Y-192095000D01*
X204700000Y-191345000D01*
G36*
X204700000Y-191345000D02*
G01*
X205700000Y-191345000D01*
X205700000Y-192095000D01*
X204700000Y-192095000D01*
X204700000Y-191345000D01*
G37*
X204720000Y-185290000D02*
X205720000Y-185290000D01*
X205720000Y-186040000D01*
X204720000Y-186040000D01*
X204720000Y-185290000D01*
G36*
X204720000Y-185290000D02*
G01*
X205720000Y-185290000D01*
X205720000Y-186040000D01*
X204720000Y-186040000D01*
X204720000Y-185290000D01*
G37*
X204730000Y-187150000D02*
X205730000Y-187150000D01*
X205730000Y-187900000D01*
X204730000Y-187900000D01*
X204730000Y-187150000D01*
G36*
X204730000Y-187150000D02*
G01*
X205730000Y-187150000D01*
X205730000Y-187900000D01*
X204730000Y-187900000D01*
X204730000Y-187150000D01*
G37*
X204740000Y-188980000D02*
X205740000Y-188980000D01*
X205740000Y-189730000D01*
X204740000Y-189730000D01*
X204740000Y-188980000D01*
G36*
X204740000Y-188980000D02*
G01*
X205740000Y-188980000D01*
X205740000Y-189730000D01*
X204740000Y-189730000D01*
X204740000Y-188980000D01*
G37*
%TO.C,U63*%
X179810000Y-160790000D02*
X178810000Y-160790000D01*
X178810000Y-160040000D01*
X179810000Y-160040000D01*
X179810000Y-160790000D01*
G36*
X179810000Y-160790000D02*
G01*
X178810000Y-160790000D01*
X178810000Y-160040000D01*
X179810000Y-160040000D01*
X179810000Y-160790000D01*
G37*
X179820000Y-162620000D02*
X178820000Y-162620000D01*
X178820000Y-161870000D01*
X179820000Y-161870000D01*
X179820000Y-162620000D01*
G36*
X179820000Y-162620000D02*
G01*
X178820000Y-162620000D01*
X178820000Y-161870000D01*
X179820000Y-161870000D01*
X179820000Y-162620000D01*
G37*
X179830000Y-164480000D02*
X178830000Y-164480000D01*
X178830000Y-163730000D01*
X179830000Y-163730000D01*
X179830000Y-164480000D01*
G36*
X179830000Y-164480000D02*
G01*
X178830000Y-164480000D01*
X178830000Y-163730000D01*
X179830000Y-163730000D01*
X179830000Y-164480000D01*
G37*
X179850000Y-158425000D02*
X178850000Y-158425000D01*
X178850000Y-157675000D01*
X179850000Y-157675000D01*
X179850000Y-158425000D01*
G36*
X179850000Y-158425000D02*
G01*
X178850000Y-158425000D01*
X178850000Y-157675000D01*
X179850000Y-157675000D01*
X179850000Y-158425000D01*
G37*
X181990000Y-158420000D02*
X180990000Y-158420000D01*
X180990000Y-157670000D01*
X181990000Y-157670000D01*
X181990000Y-158420000D01*
G36*
X181990000Y-158420000D02*
G01*
X180990000Y-158420000D01*
X180990000Y-157670000D01*
X181990000Y-157670000D01*
X181990000Y-158420000D01*
G37*
X182020000Y-160800000D02*
X181020000Y-160800000D01*
X181020000Y-160050000D01*
X182020000Y-160050000D01*
X182020000Y-160800000D01*
G36*
X182020000Y-160800000D02*
G01*
X181020000Y-160800000D01*
X181020000Y-160050000D01*
X182020000Y-160050000D01*
X182020000Y-160800000D01*
G37*
X182030000Y-162630000D02*
X181030000Y-162630000D01*
X181030000Y-161880000D01*
X182030000Y-161880000D01*
X182030000Y-162630000D01*
G36*
X182030000Y-162630000D02*
G01*
X181030000Y-162630000D01*
X181030000Y-161880000D01*
X182030000Y-161880000D01*
X182030000Y-162630000D01*
G37*
X182040000Y-164490000D02*
X181040000Y-164490000D01*
X181040000Y-163740000D01*
X182040000Y-163740000D01*
X182040000Y-164490000D01*
G36*
X182040000Y-164490000D02*
G01*
X181040000Y-164490000D01*
X181040000Y-163740000D01*
X182040000Y-163740000D01*
X182040000Y-164490000D01*
G37*
X184170000Y-158400000D02*
X183170000Y-158400000D01*
X183170000Y-157650000D01*
X184170000Y-157650000D01*
X184170000Y-158400000D01*
G36*
X184170000Y-158400000D02*
G01*
X183170000Y-158400000D01*
X183170000Y-157650000D01*
X184170000Y-157650000D01*
X184170000Y-158400000D01*
G37*
X184170000Y-160800000D02*
X183170000Y-160800000D01*
X183170000Y-160050000D01*
X184170000Y-160050000D01*
X184170000Y-160800000D01*
G36*
X184170000Y-160800000D02*
G01*
X183170000Y-160800000D01*
X183170000Y-160050000D01*
X184170000Y-160050000D01*
X184170000Y-160800000D01*
G37*
X184180000Y-162630000D02*
X183180000Y-162630000D01*
X183180000Y-161880000D01*
X184180000Y-161880000D01*
X184180000Y-162630000D01*
G36*
X184180000Y-162630000D02*
G01*
X183180000Y-162630000D01*
X183180000Y-161880000D01*
X184180000Y-161880000D01*
X184180000Y-162630000D01*
G37*
X184190000Y-164490000D02*
X183190000Y-164490000D01*
X183190000Y-163740000D01*
X184190000Y-163740000D01*
X184190000Y-164490000D01*
G36*
X184190000Y-164490000D02*
G01*
X183190000Y-164490000D01*
X183190000Y-163740000D01*
X184190000Y-163740000D01*
X184190000Y-164490000D01*
G37*
%TO.C,U64*%
X179810000Y-174470000D02*
X178810000Y-174470000D01*
X178810000Y-173720000D01*
X179810000Y-173720000D01*
X179810000Y-174470000D01*
G36*
X179810000Y-174470000D02*
G01*
X178810000Y-174470000D01*
X178810000Y-173720000D01*
X179810000Y-173720000D01*
X179810000Y-174470000D01*
G37*
X179820000Y-176300000D02*
X178820000Y-176300000D01*
X178820000Y-175550000D01*
X179820000Y-175550000D01*
X179820000Y-176300000D01*
G36*
X179820000Y-176300000D02*
G01*
X178820000Y-176300000D01*
X178820000Y-175550000D01*
X179820000Y-175550000D01*
X179820000Y-176300000D01*
G37*
X179830000Y-178160000D02*
X178830000Y-178160000D01*
X178830000Y-177410000D01*
X179830000Y-177410000D01*
X179830000Y-178160000D01*
G36*
X179830000Y-178160000D02*
G01*
X178830000Y-178160000D01*
X178830000Y-177410000D01*
X179830000Y-177410000D01*
X179830000Y-178160000D01*
G37*
X179850000Y-172105000D02*
X178850000Y-172105000D01*
X178850000Y-171355000D01*
X179850000Y-171355000D01*
X179850000Y-172105000D01*
G36*
X179850000Y-172105000D02*
G01*
X178850000Y-172105000D01*
X178850000Y-171355000D01*
X179850000Y-171355000D01*
X179850000Y-172105000D01*
G37*
X181990000Y-172100000D02*
X180990000Y-172100000D01*
X180990000Y-171350000D01*
X181990000Y-171350000D01*
X181990000Y-172100000D01*
G36*
X181990000Y-172100000D02*
G01*
X180990000Y-172100000D01*
X180990000Y-171350000D01*
X181990000Y-171350000D01*
X181990000Y-172100000D01*
G37*
X182020000Y-174480000D02*
X181020000Y-174480000D01*
X181020000Y-173730000D01*
X182020000Y-173730000D01*
X182020000Y-174480000D01*
G36*
X182020000Y-174480000D02*
G01*
X181020000Y-174480000D01*
X181020000Y-173730000D01*
X182020000Y-173730000D01*
X182020000Y-174480000D01*
G37*
X182030000Y-176310000D02*
X181030000Y-176310000D01*
X181030000Y-175560000D01*
X182030000Y-175560000D01*
X182030000Y-176310000D01*
G36*
X182030000Y-176310000D02*
G01*
X181030000Y-176310000D01*
X181030000Y-175560000D01*
X182030000Y-175560000D01*
X182030000Y-176310000D01*
G37*
X182040000Y-178170000D02*
X181040000Y-178170000D01*
X181040000Y-177420000D01*
X182040000Y-177420000D01*
X182040000Y-178170000D01*
G36*
X182040000Y-178170000D02*
G01*
X181040000Y-178170000D01*
X181040000Y-177420000D01*
X182040000Y-177420000D01*
X182040000Y-178170000D01*
G37*
X184170000Y-172080000D02*
X183170000Y-172080000D01*
X183170000Y-171330000D01*
X184170000Y-171330000D01*
X184170000Y-172080000D01*
G36*
X184170000Y-172080000D02*
G01*
X183170000Y-172080000D01*
X183170000Y-171330000D01*
X184170000Y-171330000D01*
X184170000Y-172080000D01*
G37*
X184170000Y-174480000D02*
X183170000Y-174480000D01*
X183170000Y-173730000D01*
X184170000Y-173730000D01*
X184170000Y-174480000D01*
G36*
X184170000Y-174480000D02*
G01*
X183170000Y-174480000D01*
X183170000Y-173730000D01*
X184170000Y-173730000D01*
X184170000Y-174480000D01*
G37*
X184180000Y-176310000D02*
X183180000Y-176310000D01*
X183180000Y-175560000D01*
X184180000Y-175560000D01*
X184180000Y-176310000D01*
G36*
X184180000Y-176310000D02*
G01*
X183180000Y-176310000D01*
X183180000Y-175560000D01*
X184180000Y-175560000D01*
X184180000Y-176310000D01*
G37*
X184190000Y-178170000D02*
X183190000Y-178170000D01*
X183190000Y-177420000D01*
X184190000Y-177420000D01*
X184190000Y-178170000D01*
G36*
X184190000Y-178170000D02*
G01*
X183190000Y-178170000D01*
X183190000Y-177420000D01*
X184190000Y-177420000D01*
X184190000Y-178170000D01*
G37*
%TO.C,U73*%
X200360000Y-171590000D02*
X201360000Y-171590000D01*
X201360000Y-172340000D01*
X200360000Y-172340000D01*
X200360000Y-171590000D01*
G36*
X200360000Y-171590000D02*
G01*
X201360000Y-171590000D01*
X201360000Y-172340000D01*
X200360000Y-172340000D01*
X200360000Y-171590000D01*
G37*
X200370000Y-173450000D02*
X201370000Y-173450000D01*
X201370000Y-174200000D01*
X200370000Y-174200000D01*
X200370000Y-173450000D01*
G36*
X200370000Y-173450000D02*
G01*
X201370000Y-173450000D01*
X201370000Y-174200000D01*
X200370000Y-174200000D01*
X200370000Y-173450000D01*
G37*
X200380000Y-175280000D02*
X201380000Y-175280000D01*
X201380000Y-176030000D01*
X200380000Y-176030000D01*
X200380000Y-175280000D01*
G36*
X200380000Y-175280000D02*
G01*
X201380000Y-175280000D01*
X201380000Y-176030000D01*
X200380000Y-176030000D01*
X200380000Y-175280000D01*
G37*
X200380000Y-177680000D02*
X201380000Y-177680000D01*
X201380000Y-178430000D01*
X200380000Y-178430000D01*
X200380000Y-177680000D01*
G36*
X200380000Y-177680000D02*
G01*
X201380000Y-177680000D01*
X201380000Y-178430000D01*
X200380000Y-178430000D01*
X200380000Y-177680000D01*
G37*
X202510000Y-171590000D02*
X203510000Y-171590000D01*
X203510000Y-172340000D01*
X202510000Y-172340000D01*
X202510000Y-171590000D01*
G36*
X202510000Y-171590000D02*
G01*
X203510000Y-171590000D01*
X203510000Y-172340000D01*
X202510000Y-172340000D01*
X202510000Y-171590000D01*
G37*
X202520000Y-173450000D02*
X203520000Y-173450000D01*
X203520000Y-174200000D01*
X202520000Y-174200000D01*
X202520000Y-173450000D01*
G36*
X202520000Y-173450000D02*
G01*
X203520000Y-173450000D01*
X203520000Y-174200000D01*
X202520000Y-174200000D01*
X202520000Y-173450000D01*
G37*
X202530000Y-175280000D02*
X203530000Y-175280000D01*
X203530000Y-176030000D01*
X202530000Y-176030000D01*
X202530000Y-175280000D01*
G36*
X202530000Y-175280000D02*
G01*
X203530000Y-175280000D01*
X203530000Y-176030000D01*
X202530000Y-176030000D01*
X202530000Y-175280000D01*
G37*
X202560000Y-177660000D02*
X203560000Y-177660000D01*
X203560000Y-178410000D01*
X202560000Y-178410000D01*
X202560000Y-177660000D01*
G36*
X202560000Y-177660000D02*
G01*
X203560000Y-177660000D01*
X203560000Y-178410000D01*
X202560000Y-178410000D01*
X202560000Y-177660000D01*
G37*
X204700000Y-177655000D02*
X205700000Y-177655000D01*
X205700000Y-178405000D01*
X204700000Y-178405000D01*
X204700000Y-177655000D01*
G36*
X204700000Y-177655000D02*
G01*
X205700000Y-177655000D01*
X205700000Y-178405000D01*
X204700000Y-178405000D01*
X204700000Y-177655000D01*
G37*
X204720000Y-171600000D02*
X205720000Y-171600000D01*
X205720000Y-172350000D01*
X204720000Y-172350000D01*
X204720000Y-171600000D01*
G36*
X204720000Y-171600000D02*
G01*
X205720000Y-171600000D01*
X205720000Y-172350000D01*
X204720000Y-172350000D01*
X204720000Y-171600000D01*
G37*
X204730000Y-173460000D02*
X205730000Y-173460000D01*
X205730000Y-174210000D01*
X204730000Y-174210000D01*
X204730000Y-173460000D01*
G36*
X204730000Y-173460000D02*
G01*
X205730000Y-173460000D01*
X205730000Y-174210000D01*
X204730000Y-174210000D01*
X204730000Y-173460000D01*
G37*
X204740000Y-175290000D02*
X205740000Y-175290000D01*
X205740000Y-176040000D01*
X204740000Y-176040000D01*
X204740000Y-175290000D01*
G36*
X204740000Y-175290000D02*
G01*
X205740000Y-175290000D01*
X205740000Y-176040000D01*
X204740000Y-176040000D01*
X204740000Y-175290000D01*
G37*
D11*
%TO.C,Q2*%
G36*
X157029754Y-111490963D02*
G01*
X157039134Y-111493808D01*
X157047778Y-111498428D01*
X157055355Y-111504646D01*
X157061573Y-111512223D01*
X157066195Y-111520866D01*
X157069040Y-111530247D01*
X157070000Y-111540003D01*
X157070000Y-113020000D01*
X157069040Y-113029756D01*
X157066195Y-113039136D01*
X157061573Y-113047780D01*
X157055355Y-113055357D01*
X157047778Y-113061575D01*
X157039134Y-113066195D01*
X157029754Y-113069040D01*
X157020000Y-113070000D01*
X155870000Y-113070000D01*
X155860247Y-113069040D01*
X155850866Y-113066195D01*
X155842223Y-113061575D01*
X155834646Y-113055357D01*
X155828428Y-113047780D01*
X155823805Y-113039136D01*
X155820960Y-113029756D01*
X155820000Y-113020000D01*
X155820000Y-111540003D01*
X155820960Y-111530247D01*
X155823805Y-111520866D01*
X155828428Y-111512223D01*
X155834646Y-111504646D01*
X155842223Y-111498428D01*
X155850866Y-111493808D01*
X155860247Y-111490963D01*
X155870000Y-111490000D01*
X157020000Y-111490000D01*
X157029754Y-111490963D01*
G37*
G36*
X157029754Y-113270964D02*
G01*
X157039134Y-113273809D01*
X157047778Y-113278430D01*
X157055355Y-113284647D01*
X157061573Y-113292224D01*
X157066195Y-113300868D01*
X157069040Y-113310248D01*
X157070000Y-113320004D01*
X157070000Y-114800001D01*
X157069040Y-114809757D01*
X157066195Y-114819138D01*
X157061573Y-114827781D01*
X157055355Y-114835358D01*
X157047778Y-114841576D01*
X157039134Y-114846196D01*
X157029754Y-114849041D01*
X157020000Y-114850004D01*
X155870000Y-114850004D01*
X155860247Y-114849041D01*
X155850866Y-114846196D01*
X155842223Y-114841576D01*
X155834646Y-114835358D01*
X155828428Y-114827781D01*
X155823805Y-114819138D01*
X155820960Y-114809757D01*
X155820000Y-114800001D01*
X155820000Y-113320004D01*
X155820960Y-113310248D01*
X155823805Y-113300868D01*
X155828428Y-113292224D01*
X155834646Y-113284647D01*
X155842223Y-113278430D01*
X155850866Y-113273809D01*
X155860247Y-113270964D01*
X155870000Y-113270004D01*
X157020000Y-113270004D01*
X157029754Y-113270964D01*
G37*
G36*
X158479754Y-111490963D02*
G01*
X158489134Y-111493808D01*
X158497778Y-111498428D01*
X158505354Y-111504646D01*
X158511572Y-111512223D01*
X158516195Y-111520866D01*
X158519040Y-111530247D01*
X158520000Y-111540003D01*
X158520000Y-113020000D01*
X158519040Y-113029756D01*
X158516195Y-113039136D01*
X158511572Y-113047780D01*
X158505354Y-113055357D01*
X158497778Y-113061575D01*
X158489134Y-113066195D01*
X158479754Y-113069040D01*
X158470000Y-113070000D01*
X157320000Y-113070000D01*
X157310246Y-113069040D01*
X157300866Y-113066195D01*
X157292222Y-113061575D01*
X157284646Y-113055357D01*
X157278428Y-113047780D01*
X157273805Y-113039136D01*
X157270960Y-113029756D01*
X157270000Y-113020000D01*
X157270000Y-111540003D01*
X157270960Y-111530247D01*
X157273805Y-111520866D01*
X157278428Y-111512223D01*
X157284646Y-111504646D01*
X157292222Y-111498428D01*
X157300866Y-111493808D01*
X157310246Y-111490963D01*
X157320000Y-111490000D01*
X158470000Y-111490000D01*
X158479754Y-111490963D01*
G37*
G36*
X158479754Y-113270964D02*
G01*
X158489134Y-113273809D01*
X158497778Y-113278430D01*
X158505354Y-113284647D01*
X158511572Y-113292224D01*
X158516195Y-113300868D01*
X158519040Y-113310248D01*
X158520000Y-113320004D01*
X158520000Y-114800001D01*
X158519040Y-114809757D01*
X158516195Y-114819138D01*
X158511572Y-114827781D01*
X158505354Y-114835358D01*
X158497778Y-114841576D01*
X158489134Y-114846196D01*
X158479754Y-114849041D01*
X158470000Y-114850004D01*
X157320000Y-114850004D01*
X157310246Y-114849041D01*
X157300866Y-114846196D01*
X157292222Y-114841576D01*
X157284646Y-114835358D01*
X157278428Y-114827781D01*
X157273805Y-114819138D01*
X157270960Y-114809757D01*
X157270000Y-114800001D01*
X157270000Y-113320004D01*
X157270960Y-113310248D01*
X157273805Y-113300868D01*
X157278428Y-113292224D01*
X157284646Y-113284647D01*
X157292222Y-113278430D01*
X157300866Y-113273809D01*
X157310246Y-113270964D01*
X157320000Y-113270004D01*
X158470000Y-113270004D01*
X158479754Y-113270964D01*
G37*
G36*
X159929753Y-111490963D02*
G01*
X159939134Y-111493808D01*
X159947777Y-111498428D01*
X159955354Y-111504646D01*
X159961572Y-111512223D01*
X159966195Y-111520866D01*
X159969040Y-111530247D01*
X159970000Y-111540003D01*
X159970000Y-113020000D01*
X159969040Y-113029756D01*
X159966195Y-113039136D01*
X159961572Y-113047780D01*
X159955354Y-113055357D01*
X159947777Y-113061575D01*
X159939134Y-113066195D01*
X159929753Y-113069040D01*
X159920000Y-113070000D01*
X158770000Y-113070000D01*
X158760246Y-113069040D01*
X158750866Y-113066195D01*
X158742222Y-113061575D01*
X158734645Y-113055357D01*
X158728427Y-113047780D01*
X158723805Y-113039136D01*
X158720960Y-113029756D01*
X158720000Y-113020000D01*
X158720000Y-111540003D01*
X158720960Y-111530247D01*
X158723805Y-111520866D01*
X158728427Y-111512223D01*
X158734645Y-111504646D01*
X158742222Y-111498428D01*
X158750866Y-111493808D01*
X158760246Y-111490963D01*
X158770000Y-111490000D01*
X159920000Y-111490000D01*
X159929753Y-111490963D01*
G37*
G36*
X159929753Y-113270964D02*
G01*
X159939134Y-113273809D01*
X159947777Y-113278430D01*
X159955354Y-113284647D01*
X159961572Y-113292224D01*
X159966195Y-113300868D01*
X159969040Y-113310248D01*
X159970000Y-113320004D01*
X159970000Y-114800001D01*
X159969040Y-114809757D01*
X159966195Y-114819138D01*
X159961572Y-114827781D01*
X159955354Y-114835358D01*
X159947777Y-114841576D01*
X159939134Y-114846196D01*
X159929753Y-114849041D01*
X159920000Y-114850004D01*
X158770000Y-114850004D01*
X158760246Y-114849041D01*
X158750866Y-114846196D01*
X158742222Y-114841576D01*
X158734645Y-114835358D01*
X158728427Y-114827781D01*
X158723805Y-114819138D01*
X158720960Y-114809757D01*
X158720000Y-114800001D01*
X158720000Y-113320004D01*
X158720960Y-113310248D01*
X158723805Y-113300868D01*
X158728427Y-113292224D01*
X158734645Y-113284647D01*
X158742222Y-113278430D01*
X158750866Y-113273809D01*
X158760246Y-113270964D01*
X158770000Y-113270004D01*
X159920000Y-113270004D01*
X159929753Y-113270964D01*
G37*
%TO.C,U56*%
D10*
X157320000Y-157820000D02*
X158320000Y-157820000D01*
X158320000Y-158570000D01*
X157320000Y-158570000D01*
X157320000Y-157820000D01*
G36*
X157320000Y-157820000D02*
G01*
X158320000Y-157820000D01*
X158320000Y-158570000D01*
X157320000Y-158570000D01*
X157320000Y-157820000D01*
G37*
X157330000Y-159680000D02*
X158330000Y-159680000D01*
X158330000Y-160430000D01*
X157330000Y-160430000D01*
X157330000Y-159680000D01*
G36*
X157330000Y-159680000D02*
G01*
X158330000Y-159680000D01*
X158330000Y-160430000D01*
X157330000Y-160430000D01*
X157330000Y-159680000D01*
G37*
X157340000Y-161510000D02*
X158340000Y-161510000D01*
X158340000Y-162260000D01*
X157340000Y-162260000D01*
X157340000Y-161510000D01*
G36*
X157340000Y-161510000D02*
G01*
X158340000Y-161510000D01*
X158340000Y-162260000D01*
X157340000Y-162260000D01*
X157340000Y-161510000D01*
G37*
X157340000Y-163910000D02*
X158340000Y-163910000D01*
X158340000Y-164660000D01*
X157340000Y-164660000D01*
X157340000Y-163910000D01*
G36*
X157340000Y-163910000D02*
G01*
X158340000Y-163910000D01*
X158340000Y-164660000D01*
X157340000Y-164660000D01*
X157340000Y-163910000D01*
G37*
X159470000Y-157820000D02*
X160470000Y-157820000D01*
X160470000Y-158570000D01*
X159470000Y-158570000D01*
X159470000Y-157820000D01*
G36*
X159470000Y-157820000D02*
G01*
X160470000Y-157820000D01*
X160470000Y-158570000D01*
X159470000Y-158570000D01*
X159470000Y-157820000D01*
G37*
X159480000Y-159680000D02*
X160480000Y-159680000D01*
X160480000Y-160430000D01*
X159480000Y-160430000D01*
X159480000Y-159680000D01*
G36*
X159480000Y-159680000D02*
G01*
X160480000Y-159680000D01*
X160480000Y-160430000D01*
X159480000Y-160430000D01*
X159480000Y-159680000D01*
G37*
X159490000Y-161510000D02*
X160490000Y-161510000D01*
X160490000Y-162260000D01*
X159490000Y-162260000D01*
X159490000Y-161510000D01*
G36*
X159490000Y-161510000D02*
G01*
X160490000Y-161510000D01*
X160490000Y-162260000D01*
X159490000Y-162260000D01*
X159490000Y-161510000D01*
G37*
X159520000Y-163890000D02*
X160520000Y-163890000D01*
X160520000Y-164640000D01*
X159520000Y-164640000D01*
X159520000Y-163890000D01*
G36*
X159520000Y-163890000D02*
G01*
X160520000Y-163890000D01*
X160520000Y-164640000D01*
X159520000Y-164640000D01*
X159520000Y-163890000D01*
G37*
X161660000Y-163885000D02*
X162660000Y-163885000D01*
X162660000Y-164635000D01*
X161660000Y-164635000D01*
X161660000Y-163885000D01*
G36*
X161660000Y-163885000D02*
G01*
X162660000Y-163885000D01*
X162660000Y-164635000D01*
X161660000Y-164635000D01*
X161660000Y-163885000D01*
G37*
X161680000Y-157830000D02*
X162680000Y-157830000D01*
X162680000Y-158580000D01*
X161680000Y-158580000D01*
X161680000Y-157830000D01*
G36*
X161680000Y-157830000D02*
G01*
X162680000Y-157830000D01*
X162680000Y-158580000D01*
X161680000Y-158580000D01*
X161680000Y-157830000D01*
G37*
X161690000Y-159690000D02*
X162690000Y-159690000D01*
X162690000Y-160440000D01*
X161690000Y-160440000D01*
X161690000Y-159690000D01*
G36*
X161690000Y-159690000D02*
G01*
X162690000Y-159690000D01*
X162690000Y-160440000D01*
X161690000Y-160440000D01*
X161690000Y-159690000D01*
G37*
X161700000Y-161520000D02*
X162700000Y-161520000D01*
X162700000Y-162270000D01*
X161700000Y-162270000D01*
X161700000Y-161520000D01*
G36*
X161700000Y-161520000D02*
G01*
X162700000Y-161520000D01*
X162700000Y-162270000D01*
X161700000Y-162270000D01*
X161700000Y-161520000D01*
G37*
D11*
%TO.C,U1*%
G36*
X133914000Y-93181100D02*
G01*
X132618600Y-93181100D01*
X132618600Y-91885700D01*
X133914000Y-91885700D01*
X133914000Y-93181100D01*
G37*
G36*
X133914000Y-94676398D02*
G01*
X132618600Y-94676398D01*
X132618600Y-93380998D01*
X133914000Y-93380998D01*
X133914000Y-94676398D01*
G37*
G36*
X135409298Y-93181100D02*
G01*
X134113898Y-93181100D01*
X134113898Y-91885700D01*
X135409298Y-91885700D01*
X135409298Y-93181100D01*
G37*
G36*
X135409298Y-94676398D02*
G01*
X134113898Y-94676398D01*
X134113898Y-93380998D01*
X135409298Y-93380998D01*
X135409298Y-94676398D01*
G37*
%TO.C,Q3*%
G36*
X206964754Y-104740960D02*
G01*
X206974134Y-104743805D01*
X206982778Y-104748428D01*
X206990355Y-104754646D01*
X206996573Y-104762223D01*
X207001193Y-104770866D01*
X207004038Y-104780247D01*
X207004998Y-104790000D01*
X207004998Y-105940000D01*
X207004038Y-105949754D01*
X207001193Y-105959134D01*
X206996573Y-105967778D01*
X206990355Y-105975355D01*
X206982778Y-105981573D01*
X206974134Y-105986195D01*
X206964754Y-105989040D01*
X206954998Y-105990000D01*
X205475001Y-105990000D01*
X205465245Y-105989040D01*
X205455864Y-105986195D01*
X205447221Y-105981573D01*
X205439644Y-105975355D01*
X205433426Y-105967778D01*
X205428806Y-105959134D01*
X205425961Y-105949754D01*
X205424998Y-105940000D01*
X205424998Y-104790000D01*
X205425961Y-104780247D01*
X205428806Y-104770866D01*
X205433426Y-104762223D01*
X205439644Y-104754646D01*
X205447221Y-104748428D01*
X205455864Y-104743805D01*
X205465245Y-104740960D01*
X205475001Y-104740000D01*
X206954998Y-104740000D01*
X206964754Y-104740960D01*
G37*
G36*
X206964754Y-106190960D02*
G01*
X206974134Y-106193805D01*
X206982778Y-106198428D01*
X206990355Y-106204646D01*
X206996573Y-106212222D01*
X207001193Y-106220866D01*
X207004038Y-106230246D01*
X207004998Y-106240000D01*
X207004998Y-107390000D01*
X207004038Y-107399754D01*
X207001193Y-107409134D01*
X206996573Y-107417778D01*
X206990355Y-107425354D01*
X206982778Y-107431572D01*
X206974134Y-107436195D01*
X206964754Y-107439040D01*
X206954998Y-107440000D01*
X205475001Y-107440000D01*
X205465245Y-107439040D01*
X205455864Y-107436195D01*
X205447221Y-107431572D01*
X205439644Y-107425354D01*
X205433426Y-107417778D01*
X205428806Y-107409134D01*
X205425961Y-107399754D01*
X205424998Y-107390000D01*
X205424998Y-106240000D01*
X205425961Y-106230246D01*
X205428806Y-106220866D01*
X205433426Y-106212222D01*
X205439644Y-106204646D01*
X205447221Y-106198428D01*
X205455864Y-106193805D01*
X205465245Y-106190960D01*
X205475001Y-106190000D01*
X206954998Y-106190000D01*
X206964754Y-106190960D01*
G37*
G36*
X206964754Y-107640960D02*
G01*
X206974134Y-107643805D01*
X206982778Y-107648427D01*
X206990355Y-107654645D01*
X206996573Y-107662222D01*
X207001193Y-107670866D01*
X207004038Y-107680246D01*
X207004998Y-107690000D01*
X207004998Y-108840000D01*
X207004038Y-108849753D01*
X207001193Y-108859134D01*
X206996573Y-108867777D01*
X206990355Y-108875354D01*
X206982778Y-108881572D01*
X206974134Y-108886195D01*
X206964754Y-108889040D01*
X206954998Y-108890000D01*
X205475001Y-108890000D01*
X205465245Y-108889040D01*
X205455864Y-108886195D01*
X205447221Y-108881572D01*
X205439644Y-108875354D01*
X205433426Y-108867777D01*
X205428806Y-108859134D01*
X205425961Y-108849753D01*
X205424998Y-108840000D01*
X205424998Y-107690000D01*
X205425961Y-107680246D01*
X205428806Y-107670866D01*
X205433426Y-107662222D01*
X205439644Y-107654645D01*
X205447221Y-107648427D01*
X205455864Y-107643805D01*
X205465245Y-107640960D01*
X205475001Y-107640000D01*
X206954998Y-107640000D01*
X206964754Y-107640960D01*
G37*
G36*
X208744755Y-104740960D02*
G01*
X208754136Y-104743805D01*
X208762779Y-104748428D01*
X208770356Y-104754646D01*
X208776574Y-104762223D01*
X208781194Y-104770866D01*
X208784039Y-104780247D01*
X208785002Y-104790000D01*
X208785002Y-105940000D01*
X208784039Y-105949754D01*
X208781194Y-105959134D01*
X208776574Y-105967778D01*
X208770356Y-105975355D01*
X208762779Y-105981573D01*
X208754136Y-105986195D01*
X208744755Y-105989040D01*
X208734999Y-105990000D01*
X207255002Y-105990000D01*
X207245246Y-105989040D01*
X207235866Y-105986195D01*
X207227222Y-105981573D01*
X207219645Y-105975355D01*
X207213428Y-105967778D01*
X207208807Y-105959134D01*
X207205962Y-105949754D01*
X207205002Y-105940000D01*
X207205002Y-104790000D01*
X207205962Y-104780247D01*
X207208807Y-104770866D01*
X207213428Y-104762223D01*
X207219645Y-104754646D01*
X207227222Y-104748428D01*
X207235866Y-104743805D01*
X207245246Y-104740960D01*
X207255002Y-104740000D01*
X208734999Y-104740000D01*
X208744755Y-104740960D01*
G37*
G36*
X208744755Y-106190960D02*
G01*
X208754136Y-106193805D01*
X208762779Y-106198428D01*
X208770356Y-106204646D01*
X208776574Y-106212222D01*
X208781194Y-106220866D01*
X208784039Y-106230246D01*
X208785002Y-106240000D01*
X208785002Y-107390000D01*
X208784039Y-107399754D01*
X208781194Y-107409134D01*
X208776574Y-107417778D01*
X208770356Y-107425354D01*
X208762779Y-107431572D01*
X208754136Y-107436195D01*
X208744755Y-107439040D01*
X208734999Y-107440000D01*
X207255002Y-107440000D01*
X207245246Y-107439040D01*
X207235866Y-107436195D01*
X207227222Y-107431572D01*
X207219645Y-107425354D01*
X207213428Y-107417778D01*
X207208807Y-107409134D01*
X207205962Y-107399754D01*
X207205002Y-107390000D01*
X207205002Y-106240000D01*
X207205962Y-106230246D01*
X207208807Y-106220866D01*
X207213428Y-106212222D01*
X207219645Y-106204646D01*
X207227222Y-106198428D01*
X207235866Y-106193805D01*
X207245246Y-106190960D01*
X207255002Y-106190000D01*
X208734999Y-106190000D01*
X208744755Y-106190960D01*
G37*
G36*
X208744755Y-107640960D02*
G01*
X208754136Y-107643805D01*
X208762779Y-107648427D01*
X208770356Y-107654645D01*
X208776574Y-107662222D01*
X208781194Y-107670866D01*
X208784039Y-107680246D01*
X208785002Y-107690000D01*
X208785002Y-108840000D01*
X208784039Y-108849753D01*
X208781194Y-108859134D01*
X208776574Y-108867777D01*
X208770356Y-108875354D01*
X208762779Y-108881572D01*
X208754136Y-108886195D01*
X208744755Y-108889040D01*
X208734999Y-108890000D01*
X207255002Y-108890000D01*
X207245246Y-108889040D01*
X207235866Y-108886195D01*
X207227222Y-108881572D01*
X207219645Y-108875354D01*
X207213428Y-108867777D01*
X207208807Y-108859134D01*
X207205962Y-108849753D01*
X207205002Y-108840000D01*
X207205002Y-107690000D01*
X207205962Y-107680246D01*
X207208807Y-107670866D01*
X207213428Y-107662222D01*
X207219645Y-107654645D01*
X207227222Y-107648427D01*
X207235866Y-107643805D01*
X207245246Y-107640960D01*
X207255002Y-107640000D01*
X208734999Y-107640000D01*
X208744755Y-107640960D01*
G37*
%TO.C,Q1*%
G36*
X158168700Y-104799909D02*
G01*
X158178080Y-104802754D01*
X158186724Y-104807377D01*
X158194301Y-104813595D01*
X158200518Y-104821172D01*
X158205139Y-104829815D01*
X158207984Y-104839196D01*
X158208944Y-104848949D01*
X158208944Y-105998949D01*
X158207984Y-106008703D01*
X158205139Y-106018083D01*
X158200518Y-106026727D01*
X158194301Y-106034304D01*
X158186724Y-106040522D01*
X158178080Y-106045144D01*
X158168700Y-106047989D01*
X158158944Y-106048949D01*
X156678947Y-106048949D01*
X156669191Y-106047989D01*
X156659810Y-106045144D01*
X156651167Y-106040522D01*
X156643590Y-106034304D01*
X156637372Y-106026727D01*
X156632752Y-106018083D01*
X156629907Y-106008703D01*
X156628944Y-105998949D01*
X156628944Y-104848949D01*
X156629907Y-104839196D01*
X156632752Y-104829815D01*
X156637372Y-104821172D01*
X156643590Y-104813595D01*
X156651167Y-104807377D01*
X156659810Y-104802754D01*
X156669191Y-104799909D01*
X156678947Y-104798949D01*
X158158944Y-104798949D01*
X158168700Y-104799909D01*
G37*
G36*
X158168700Y-106249909D02*
G01*
X158178080Y-106252754D01*
X158186724Y-106257377D01*
X158194301Y-106263595D01*
X158200518Y-106271171D01*
X158205139Y-106279815D01*
X158207984Y-106289195D01*
X158208944Y-106298949D01*
X158208944Y-107448949D01*
X158207984Y-107458703D01*
X158205139Y-107468083D01*
X158200518Y-107476727D01*
X158194301Y-107484303D01*
X158186724Y-107490521D01*
X158178080Y-107495144D01*
X158168700Y-107497989D01*
X158158944Y-107498949D01*
X156678947Y-107498949D01*
X156669191Y-107497989D01*
X156659810Y-107495144D01*
X156651167Y-107490521D01*
X156643590Y-107484303D01*
X156637372Y-107476727D01*
X156632752Y-107468083D01*
X156629907Y-107458703D01*
X156628944Y-107448949D01*
X156628944Y-106298949D01*
X156629907Y-106289195D01*
X156632752Y-106279815D01*
X156637372Y-106271171D01*
X156643590Y-106263595D01*
X156651167Y-106257377D01*
X156659810Y-106252754D01*
X156669191Y-106249909D01*
X156678947Y-106248949D01*
X158158944Y-106248949D01*
X158168700Y-106249909D01*
G37*
G36*
X158168700Y-107699909D02*
G01*
X158178080Y-107702754D01*
X158186724Y-107707376D01*
X158194301Y-107713594D01*
X158200518Y-107721171D01*
X158205139Y-107729815D01*
X158207984Y-107739195D01*
X158208944Y-107748949D01*
X158208944Y-108898949D01*
X158207984Y-108908702D01*
X158205139Y-108918083D01*
X158200518Y-108926726D01*
X158194301Y-108934303D01*
X158186724Y-108940521D01*
X158178080Y-108945144D01*
X158168700Y-108947989D01*
X158158944Y-108948949D01*
X156678947Y-108948949D01*
X156669191Y-108947989D01*
X156659810Y-108945144D01*
X156651167Y-108940521D01*
X156643590Y-108934303D01*
X156637372Y-108926726D01*
X156632752Y-108918083D01*
X156629907Y-108908702D01*
X156628944Y-108898949D01*
X156628944Y-107748949D01*
X156629907Y-107739195D01*
X156632752Y-107729815D01*
X156637372Y-107721171D01*
X156643590Y-107713594D01*
X156651167Y-107707376D01*
X156659810Y-107702754D01*
X156669191Y-107699909D01*
X156678947Y-107698949D01*
X158158944Y-107698949D01*
X158168700Y-107699909D01*
G37*
G36*
X159948701Y-104799909D02*
G01*
X159958082Y-104802754D01*
X159966725Y-104807377D01*
X159974302Y-104813595D01*
X159980520Y-104821172D01*
X159985140Y-104829815D01*
X159987985Y-104839196D01*
X159988948Y-104848949D01*
X159988948Y-105998949D01*
X159987985Y-106008703D01*
X159985140Y-106018083D01*
X159980520Y-106026727D01*
X159974302Y-106034304D01*
X159966725Y-106040522D01*
X159958082Y-106045144D01*
X159948701Y-106047989D01*
X159938945Y-106048949D01*
X158458948Y-106048949D01*
X158449192Y-106047989D01*
X158439812Y-106045144D01*
X158431168Y-106040522D01*
X158423591Y-106034304D01*
X158417373Y-106026727D01*
X158412753Y-106018083D01*
X158409908Y-106008703D01*
X158408948Y-105998949D01*
X158408948Y-104848949D01*
X158409908Y-104839196D01*
X158412753Y-104829815D01*
X158417373Y-104821172D01*
X158423591Y-104813595D01*
X158431168Y-104807377D01*
X158439812Y-104802754D01*
X158449192Y-104799909D01*
X158458948Y-104798949D01*
X159938945Y-104798949D01*
X159948701Y-104799909D01*
G37*
G36*
X159948701Y-106249909D02*
G01*
X159958082Y-106252754D01*
X159966725Y-106257377D01*
X159974302Y-106263595D01*
X159980520Y-106271171D01*
X159985140Y-106279815D01*
X159987985Y-106289195D01*
X159988948Y-106298949D01*
X159988948Y-107448949D01*
X159987985Y-107458703D01*
X159985140Y-107468083D01*
X159980520Y-107476727D01*
X159974302Y-107484303D01*
X159966725Y-107490521D01*
X159958082Y-107495144D01*
X159948701Y-107497989D01*
X159938945Y-107498949D01*
X158458948Y-107498949D01*
X158449192Y-107497989D01*
X158439812Y-107495144D01*
X158431168Y-107490521D01*
X158423591Y-107484303D01*
X158417373Y-107476727D01*
X158412753Y-107468083D01*
X158409908Y-107458703D01*
X158408948Y-107448949D01*
X158408948Y-106298949D01*
X158409908Y-106289195D01*
X158412753Y-106279815D01*
X158417373Y-106271171D01*
X158423591Y-106263595D01*
X158431168Y-106257377D01*
X158439812Y-106252754D01*
X158449192Y-106249909D01*
X158458948Y-106248949D01*
X159938945Y-106248949D01*
X159948701Y-106249909D01*
G37*
G36*
X159948701Y-107699909D02*
G01*
X159958082Y-107702754D01*
X159966725Y-107707376D01*
X159974302Y-107713594D01*
X159980520Y-107721171D01*
X159985140Y-107729815D01*
X159987985Y-107739195D01*
X159988948Y-107748949D01*
X159988948Y-108898949D01*
X159987985Y-108908702D01*
X159985140Y-108918083D01*
X159980520Y-108926726D01*
X159974302Y-108934303D01*
X159966725Y-108940521D01*
X159958082Y-108945144D01*
X159948701Y-108947989D01*
X159938945Y-108948949D01*
X158458948Y-108948949D01*
X158449192Y-108947989D01*
X158439812Y-108945144D01*
X158431168Y-108940521D01*
X158423591Y-108934303D01*
X158417373Y-108926726D01*
X158412753Y-108918083D01*
X158409908Y-108908702D01*
X158408948Y-108898949D01*
X158408948Y-107748949D01*
X158409908Y-107739195D01*
X158412753Y-107729815D01*
X158417373Y-107721171D01*
X158423591Y-107713594D01*
X158431168Y-107707376D01*
X158439812Y-107702754D01*
X158449192Y-107699909D01*
X158458948Y-107698949D01*
X159938945Y-107698949D01*
X159948701Y-107699909D01*
G37*
%TD*%
D12*
%TO.C,U55*%
X164090000Y-178355000D03*
X164090000Y-177715000D03*
X164090000Y-177075000D03*
X164090000Y-176435000D03*
X164090000Y-175795000D03*
X164090000Y-175155000D03*
X164090000Y-174515000D03*
X164090000Y-173875000D03*
X164090000Y-173235000D03*
X164090000Y-172595000D03*
X164090000Y-171955000D03*
X164090000Y-171315000D03*
X155950000Y-171315000D03*
X155950000Y-171955000D03*
X155950000Y-172595000D03*
X155950000Y-173235000D03*
X155950000Y-173875000D03*
X155950000Y-174515000D03*
X155950000Y-175155000D03*
X155950000Y-175795000D03*
X155950000Y-176435000D03*
X155950000Y-177075000D03*
X155950000Y-177715000D03*
X155950000Y-178355000D03*
%TD*%
D13*
%TO.C,C16*%
X162250000Y-134854800D03*
X162250000Y-128200000D03*
%TD*%
D14*
%TO.C,U4*%
X231350000Y-154435000D03*
X232000000Y-154435000D03*
X232650000Y-154435000D03*
X233300000Y-154435000D03*
X233950000Y-154435000D03*
X234600000Y-154435000D03*
X235250000Y-154435000D03*
X235900000Y-154435000D03*
X235900000Y-148710000D03*
X235250000Y-148710000D03*
X234600000Y-148710000D03*
X233950000Y-148710000D03*
X233300000Y-148710000D03*
X232650000Y-148710000D03*
X232000000Y-148710000D03*
X231350000Y-148710000D03*
%TD*%
D15*
%TO.C,R6*%
X148280000Y-98045000D03*
X148280000Y-96395000D03*
%TD*%
D16*
%TO.C,C11*%
X144790000Y-90030000D03*
X144790000Y-88130000D03*
%TD*%
D17*
%TO.C,D1*%
X126332400Y-99975000D03*
X128567600Y-99975000D03*
%TD*%
D18*
%TO.C,R5*%
X134585000Y-98490000D03*
X132935000Y-98490000D03*
%TD*%
D19*
%TO.C,R20*%
X214570000Y-100560000D03*
X213550000Y-100560000D03*
%TD*%
D20*
%TO.C,R30*%
X152625000Y-101200000D03*
X154275000Y-101200000D03*
%TD*%
D21*
%TO.C,Q4*%
X204043700Y-116490003D03*
X205313700Y-116490003D03*
X206583700Y-116490003D03*
X207853700Y-116490003D03*
X207853700Y-110900001D03*
X206583700Y-110900001D03*
X205313700Y-110900001D03*
X204043700Y-110900001D03*
%TD*%
D16*
%TO.C,C31*%
X144900000Y-102150000D03*
X144900000Y-100250000D03*
%TD*%
%TO.C,C15*%
X129350000Y-91060000D03*
X129350000Y-89160000D03*
%TD*%
D15*
%TO.C,R27*%
X138900000Y-100275000D03*
X138900000Y-98625000D03*
%TD*%
D22*
%TO.C,C101*%
X226198700Y-91325000D03*
X225238700Y-91325000D03*
%TD*%
D16*
%TO.C,C30*%
X150800000Y-101500000D03*
X150800000Y-99600000D03*
%TD*%
%TO.C,C7*%
X138600000Y-86110000D03*
X138600000Y-84210000D03*
%TD*%
D23*
%TO.C,U65*%
X177400000Y-185005000D03*
X177400000Y-185645000D03*
X177400000Y-186285000D03*
X177400000Y-186925000D03*
X177400000Y-187565000D03*
X177400000Y-188205000D03*
X177400000Y-188845000D03*
X177400000Y-189485000D03*
X177400000Y-190125000D03*
X177400000Y-190765000D03*
X177400000Y-191405000D03*
X177400000Y-192045000D03*
X185540000Y-192045000D03*
X185540000Y-191405000D03*
X185540000Y-190765000D03*
X185540000Y-190125000D03*
X185540000Y-189485000D03*
X185540000Y-188845000D03*
X185540000Y-188205000D03*
X185540000Y-187565000D03*
X185540000Y-186925000D03*
X185540000Y-186285000D03*
X185540000Y-185645000D03*
X185540000Y-185005000D03*
%TD*%
%TO.C,U47*%
X134360000Y-184975000D03*
X134360000Y-185615000D03*
X134360000Y-186255000D03*
X134360000Y-186895000D03*
X134360000Y-187535000D03*
X134360000Y-188175000D03*
X134360000Y-188815000D03*
X134360000Y-189455000D03*
X134360000Y-190095000D03*
X134360000Y-190735000D03*
X134360000Y-191375000D03*
X134360000Y-192015000D03*
X142500000Y-192015000D03*
X142500000Y-191375000D03*
X142500000Y-190735000D03*
X142500000Y-190095000D03*
X142500000Y-189455000D03*
X142500000Y-188815000D03*
X142500000Y-188175000D03*
X142500000Y-187535000D03*
X142500000Y-186895000D03*
X142500000Y-186255000D03*
X142500000Y-185615000D03*
X142500000Y-184975000D03*
%TD*%
D24*
%TO.C,C9*%
X138180000Y-96430000D03*
X140080000Y-96430000D03*
%TD*%
D20*
%TO.C,R28*%
X124700000Y-87100000D03*
X126350000Y-87100000D03*
%TD*%
D25*
%TO.C,C5*%
X130600000Y-98130000D03*
X130600000Y-100030000D03*
%TD*%
D26*
%TO.C,U27*%
X221320807Y-96197500D03*
X221320807Y-97797500D03*
X222920807Y-96197500D03*
X222920807Y-97797500D03*
D27*
X218683307Y-94397500D03*
X218683307Y-94797500D03*
X218683307Y-95197500D03*
X218683307Y-95597500D03*
X218683307Y-95997500D03*
X218683307Y-96397500D03*
X218683307Y-96797500D03*
X218683307Y-97197500D03*
X218683307Y-97597500D03*
X218683307Y-97997500D03*
X218683307Y-98397500D03*
X218683307Y-98797500D03*
X218683307Y-99197500D03*
X218683307Y-99597500D03*
D28*
X219520807Y-100435000D03*
X219920807Y-100435000D03*
X220320807Y-100435000D03*
X220720807Y-100435000D03*
X221120807Y-100435000D03*
X221520807Y-100435000D03*
X221920807Y-100435000D03*
X222320807Y-100435000D03*
X222720807Y-100435000D03*
X223120807Y-100435000D03*
X223520807Y-100435000D03*
X223920807Y-100435000D03*
X224320807Y-100435000D03*
X224720807Y-100435000D03*
D27*
X225558307Y-99597500D03*
X225558307Y-99197500D03*
X225558307Y-98797500D03*
X225558307Y-98397500D03*
X225558307Y-97997500D03*
X225558307Y-97597500D03*
X225558307Y-97197500D03*
X225558307Y-96797500D03*
X225558307Y-96397500D03*
X225558307Y-95997500D03*
X225558307Y-95597500D03*
X225558307Y-95197500D03*
X225558307Y-94797500D03*
X225558307Y-94397500D03*
D28*
X224720807Y-93560000D03*
X224320807Y-93560000D03*
X223920807Y-93560000D03*
X223520807Y-93560000D03*
X223120807Y-93560000D03*
X222720807Y-93560000D03*
X222320807Y-93560000D03*
X221920807Y-93560000D03*
X221520807Y-93560000D03*
X221120807Y-93560000D03*
X220720807Y-93560000D03*
X220320807Y-93560000D03*
X219920807Y-93560000D03*
X219520807Y-93560000D03*
%TD*%
D24*
%TO.C,C27*%
X178200000Y-131870000D03*
X180100000Y-131870000D03*
%TD*%
D15*
%TO.C,R9*%
X134440000Y-86195000D03*
X134440000Y-84545000D03*
%TD*%
D29*
%TO.C,C22*%
X231800000Y-146680000D03*
X231800000Y-145720000D03*
%TD*%
D12*
%TO.C,U74*%
X207150000Y-164765000D03*
X207150000Y-164125000D03*
X207150000Y-163485000D03*
X207150000Y-162845000D03*
X207150000Y-162205000D03*
X207150000Y-161565000D03*
X207150000Y-160925000D03*
X207150000Y-160285000D03*
X207150000Y-159645000D03*
X207150000Y-159005000D03*
X207150000Y-158365000D03*
X207150000Y-157725000D03*
X199010000Y-157725000D03*
X199010000Y-158365000D03*
X199010000Y-159005000D03*
X199010000Y-159645000D03*
X199010000Y-160285000D03*
X199010000Y-160925000D03*
X199010000Y-161565000D03*
X199010000Y-162205000D03*
X199010000Y-162845000D03*
X199010000Y-163485000D03*
X199010000Y-164125000D03*
X199010000Y-164765000D03*
%TD*%
D30*
%TO.C,C107*%
X215340807Y-97560000D03*
X216300807Y-97560000D03*
%TD*%
D12*
%TO.C,U54*%
X164090000Y-192025000D03*
X164090000Y-191385000D03*
X164090000Y-190745000D03*
X164090000Y-190105000D03*
X164090000Y-189465000D03*
X164090000Y-188825000D03*
X164090000Y-188185000D03*
X164090000Y-187545000D03*
X164090000Y-186905000D03*
X164090000Y-186265000D03*
X164090000Y-185625000D03*
X164090000Y-184985000D03*
X155950000Y-184985000D03*
X155950000Y-185625000D03*
X155950000Y-186265000D03*
X155950000Y-186905000D03*
X155950000Y-187545000D03*
X155950000Y-188185000D03*
X155950000Y-188825000D03*
X155950000Y-189465000D03*
X155950000Y-190105000D03*
X155950000Y-190745000D03*
X155950000Y-191385000D03*
X155950000Y-192025000D03*
%TD*%
D20*
%TO.C,R23*%
X141835000Y-96410000D03*
X143485000Y-96410000D03*
%TD*%
D23*
%TO.C,U46*%
X134360000Y-171295000D03*
X134360000Y-171935000D03*
X134360000Y-172575000D03*
X134360000Y-173215000D03*
X134360000Y-173855000D03*
X134360000Y-174495000D03*
X134360000Y-175135000D03*
X134360000Y-175775000D03*
X134360000Y-176415000D03*
X134360000Y-177055000D03*
X134360000Y-177695000D03*
X134360000Y-178335000D03*
X142500000Y-178335000D03*
X142500000Y-177695000D03*
X142500000Y-177055000D03*
X142500000Y-176415000D03*
X142500000Y-175775000D03*
X142500000Y-175135000D03*
X142500000Y-174495000D03*
X142500000Y-173855000D03*
X142500000Y-173215000D03*
X142500000Y-172575000D03*
X142500000Y-171935000D03*
X142500000Y-171295000D03*
%TD*%
D13*
%TO.C,C17*%
X171300000Y-134877400D03*
X171300000Y-128222600D03*
%TD*%
D31*
%TO.C,C20*%
X153760000Y-96730000D03*
X151860000Y-96730000D03*
%TD*%
D32*
%TO.C,R52*%
X215808700Y-83920000D03*
X215808700Y-82900000D03*
%TD*%
D33*
%TO.C,R53*%
X222550807Y-89760000D03*
X222550807Y-90780000D03*
%TD*%
D34*
%TO.C,U9*%
X238118700Y-80720000D03*
D35*
X236768700Y-80720000D03*
D36*
X235743700Y-80720000D03*
D34*
X234518700Y-80720000D03*
%TD*%
D18*
%TO.C,R4*%
X142455000Y-87920000D03*
X140805000Y-87920000D03*
%TD*%
D29*
%TO.C,C106*%
X226440807Y-103020000D03*
X226440807Y-102060000D03*
%TD*%
D30*
%TO.C,C99*%
X216160807Y-89470000D03*
X217120807Y-89470000D03*
%TD*%
D37*
%TO.C,U7*%
X232595000Y-178000000D03*
X233245000Y-178000000D03*
X233895000Y-178000000D03*
X234545000Y-178000000D03*
X234545000Y-173700000D03*
X233895000Y-173700000D03*
X233245000Y-173700000D03*
X232595000Y-173700000D03*
%TD*%
D23*
%TO.C,U45*%
X134360000Y-157605000D03*
X134360000Y-158245000D03*
X134360000Y-158885000D03*
X134360000Y-159525000D03*
X134360000Y-160165000D03*
X134360000Y-160805000D03*
X134360000Y-161445000D03*
X134360000Y-162085000D03*
X134360000Y-162725000D03*
X134360000Y-163365000D03*
X134360000Y-164005000D03*
X134360000Y-164645000D03*
X142500000Y-164645000D03*
X142500000Y-164005000D03*
X142500000Y-163365000D03*
X142500000Y-162725000D03*
X142500000Y-162085000D03*
X142500000Y-161445000D03*
X142500000Y-160805000D03*
X142500000Y-160165000D03*
X142500000Y-159525000D03*
X142500000Y-158885000D03*
X142500000Y-158245000D03*
X142500000Y-157605000D03*
%TD*%
D38*
%TO.C,C18*%
X206071100Y-131575000D03*
X199416300Y-131575000D03*
%TD*%
D19*
%TO.C,R69*%
X235570000Y-157150000D03*
X234550000Y-157150000D03*
%TD*%
D12*
%TO.C,U72*%
X207150000Y-192135000D03*
X207150000Y-191495000D03*
X207150000Y-190855000D03*
X207150000Y-190215000D03*
X207150000Y-189575000D03*
X207150000Y-188935000D03*
X207150000Y-188295000D03*
X207150000Y-187655000D03*
X207150000Y-187015000D03*
X207150000Y-186375000D03*
X207150000Y-185735000D03*
X207150000Y-185095000D03*
X199010000Y-185095000D03*
X199010000Y-185735000D03*
X199010000Y-186375000D03*
X199010000Y-187015000D03*
X199010000Y-187655000D03*
X199010000Y-188295000D03*
X199010000Y-188935000D03*
X199010000Y-189575000D03*
X199010000Y-190215000D03*
X199010000Y-190855000D03*
X199010000Y-191495000D03*
X199010000Y-192135000D03*
%TD*%
D39*
%TO.C,D2*%
X129305000Y-87307600D03*
X129305000Y-85072400D03*
%TD*%
D30*
%TO.C,C24*%
X120100000Y-172040000D03*
X121060000Y-172040000D03*
%TD*%
D40*
%TO.C,L1*%
X150155001Y-127265001D03*
X150155001Y-116835002D03*
D41*
X128080000Y-122050000D03*
%TD*%
D30*
%TO.C,C100*%
X219320807Y-90770000D03*
X220280807Y-90770000D03*
%TD*%
D23*
%TO.C,U63*%
X177400000Y-157635000D03*
X177400000Y-158275000D03*
X177400000Y-158915000D03*
X177400000Y-159555000D03*
X177400000Y-160195000D03*
X177400000Y-160835000D03*
X177400000Y-161475000D03*
X177400000Y-162115000D03*
X177400000Y-162755000D03*
X177400000Y-163395000D03*
X177400000Y-164035000D03*
X177400000Y-164675000D03*
X185540000Y-164675000D03*
X185540000Y-164035000D03*
X185540000Y-163395000D03*
X185540000Y-162755000D03*
X185540000Y-162115000D03*
X185540000Y-161475000D03*
X185540000Y-160835000D03*
X185540000Y-160195000D03*
X185540000Y-159555000D03*
X185540000Y-158915000D03*
X185540000Y-158275000D03*
X185540000Y-157635000D03*
%TD*%
D42*
%TO.C,U10*%
X236198700Y-91180000D03*
X233898700Y-91180000D03*
X231598700Y-91180000D03*
D43*
X233898700Y-96980000D03*
%TD*%
D44*
%TO.C,R7*%
X149990000Y-96395000D03*
X149990000Y-98045000D03*
%TD*%
D23*
%TO.C,U64*%
X177400000Y-171315000D03*
X177400000Y-171955000D03*
X177400000Y-172595000D03*
X177400000Y-173235000D03*
X177400000Y-173875000D03*
X177400000Y-174515000D03*
X177400000Y-175155000D03*
X177400000Y-175795000D03*
X177400000Y-176435000D03*
X177400000Y-177075000D03*
X177400000Y-177715000D03*
X177400000Y-178355000D03*
X185540000Y-178355000D03*
X185540000Y-177715000D03*
X185540000Y-177075000D03*
X185540000Y-176435000D03*
X185540000Y-175795000D03*
X185540000Y-175155000D03*
X185540000Y-174515000D03*
X185540000Y-173875000D03*
X185540000Y-173235000D03*
X185540000Y-172595000D03*
X185540000Y-171955000D03*
X185540000Y-171315000D03*
%TD*%
D20*
%TO.C,R31*%
X146825000Y-101250000D03*
X148475000Y-101250000D03*
%TD*%
D29*
%TO.C,C105*%
X225100807Y-103070000D03*
X225100807Y-102110000D03*
%TD*%
D45*
%TO.C,J6*%
X225148700Y-86095000D03*
D46*
X224348700Y-86070000D03*
D47*
X223198700Y-86070000D03*
X222198700Y-86070000D03*
X221698700Y-86070000D03*
X220698700Y-86070000D03*
D45*
X218748700Y-86095000D03*
D46*
X219548700Y-86070000D03*
D47*
X220198700Y-86070000D03*
X221198700Y-86070000D03*
X222698700Y-86070000D03*
X223698700Y-86070000D03*
D48*
X226268700Y-85495000D03*
D49*
X226268700Y-81315000D03*
D48*
X217628700Y-85495000D03*
D49*
X217628700Y-81315000D03*
%TD*%
D50*
%TO.C,C90*%
X229843700Y-92550000D03*
X229843700Y-93510000D03*
%TD*%
%TO.C,C96*%
X223670807Y-104850000D03*
X223670807Y-105810000D03*
%TD*%
D30*
%TO.C,C25*%
X232250000Y-172010000D03*
X233210000Y-172010000D03*
%TD*%
D12*
%TO.C,U73*%
X207150000Y-178445000D03*
X207150000Y-177805000D03*
X207150000Y-177165000D03*
X207150000Y-176525000D03*
X207150000Y-175885000D03*
X207150000Y-175245000D03*
X207150000Y-174605000D03*
X207150000Y-173965000D03*
X207150000Y-173325000D03*
X207150000Y-172685000D03*
X207150000Y-172045000D03*
X207150000Y-171405000D03*
X199010000Y-171405000D03*
X199010000Y-172045000D03*
X199010000Y-172685000D03*
X199010000Y-173325000D03*
X199010000Y-173965000D03*
X199010000Y-174605000D03*
X199010000Y-175245000D03*
X199010000Y-175885000D03*
X199010000Y-176525000D03*
X199010000Y-177165000D03*
X199010000Y-177805000D03*
X199010000Y-178445000D03*
%TD*%
D51*
%TO.C,U8*%
X214265207Y-90829998D03*
X214265207Y-91329999D03*
X214265207Y-91829999D03*
X214265207Y-92330000D03*
X217160807Y-92330000D03*
X217160807Y-91829999D03*
X217160807Y-91329999D03*
X217160807Y-90829998D03*
D52*
X215713007Y-91579999D03*
%TD*%
D20*
%TO.C,R25*%
X140805000Y-86310000D03*
X142455000Y-86310000D03*
%TD*%
D29*
%TO.C,C21*%
X230200000Y-148780000D03*
X230200000Y-147820000D03*
%TD*%
D22*
%TO.C,C104*%
X228940807Y-94425000D03*
X227980807Y-94425000D03*
%TD*%
D21*
%TO.C,Q2*%
X155990000Y-116475002D03*
X157260000Y-116475002D03*
X158530000Y-116475002D03*
X159800000Y-116475002D03*
X159800000Y-110885000D03*
X158530000Y-110885000D03*
X157260000Y-110885000D03*
X155990000Y-110885000D03*
%TD*%
D22*
%TO.C,C108*%
X227323700Y-92400000D03*
X226363700Y-92400000D03*
%TD*%
D32*
%TO.C,R51*%
X228188700Y-83910000D03*
X228188700Y-82890000D03*
%TD*%
D12*
%TO.C,U56*%
X164110000Y-164675000D03*
X164110000Y-164035000D03*
X164110000Y-163395000D03*
X164110000Y-162755000D03*
X164110000Y-162115000D03*
X164110000Y-161475000D03*
X164110000Y-160835000D03*
X164110000Y-160195000D03*
X164110000Y-159555000D03*
X164110000Y-158915000D03*
X164110000Y-158275000D03*
X164110000Y-157635000D03*
X155970000Y-157635000D03*
X155970000Y-158275000D03*
X155970000Y-158915000D03*
X155970000Y-159555000D03*
X155970000Y-160195000D03*
X155970000Y-160835000D03*
X155970000Y-161475000D03*
X155970000Y-162115000D03*
X155970000Y-162755000D03*
X155970000Y-163395000D03*
X155970000Y-164035000D03*
X155970000Y-164675000D03*
%TD*%
D30*
%TO.C,C109*%
X215330807Y-94405000D03*
X216290807Y-94405000D03*
%TD*%
D53*
%TO.C,C4*%
X198320000Y-107380000D03*
X198320000Y-114288800D03*
%TD*%
D20*
%TO.C,R26*%
X146675000Y-94790000D03*
X148325000Y-94790000D03*
%TD*%
D54*
%TO.C,R10*%
X205066600Y-121280000D03*
X195973400Y-121280000D03*
%TD*%
D55*
%TO.C,R22*%
X229610000Y-96780000D03*
X230630000Y-96780000D03*
%TD*%
D20*
%TO.C,R3*%
X140805000Y-91610000D03*
X142455000Y-91610000D03*
%TD*%
D25*
%TO.C,C28*%
X137030000Y-98500000D03*
X137030000Y-100400000D03*
%TD*%
D31*
%TO.C,C2*%
X125690000Y-95810000D03*
X123790000Y-95810000D03*
%TD*%
D53*
%TO.C,C1*%
X165990000Y-108457900D03*
X165990000Y-115366700D03*
%TD*%
D31*
%TO.C,C10*%
X134920000Y-100450000D03*
X133020000Y-100450000D03*
%TD*%
D56*
%TO.C,Y1*%
X222170807Y-105335000D03*
X222170807Y-103035000D03*
X220370807Y-103035000D03*
X220370807Y-105335000D03*
%TD*%
D18*
%TO.C,R2*%
X125795000Y-92150000D03*
X124145000Y-92150000D03*
%TD*%
D25*
%TO.C,C13*%
X129313949Y-94574843D03*
X129313949Y-96474843D03*
%TD*%
D29*
%TO.C,C102*%
X225100807Y-105800000D03*
X225100807Y-104840000D03*
%TD*%
D57*
%TO.C,U2*%
X150928949Y-93196051D03*
X151578949Y-93196051D03*
X152228949Y-93196051D03*
X152878949Y-93196051D03*
X152878949Y-88896051D03*
X152228949Y-88896051D03*
X151578949Y-88896051D03*
X150928949Y-88896051D03*
%TD*%
D30*
%TO.C,C110*%
X219320807Y-89770000D03*
X220280807Y-89770000D03*
%TD*%
D58*
%TO.C,U1*%
X132263949Y-95681049D03*
X132763949Y-95681049D03*
X133263949Y-95681049D03*
X133763949Y-95681049D03*
X134263949Y-95681049D03*
X134763949Y-95681049D03*
X135263949Y-95681049D03*
X135763949Y-95681049D03*
D59*
X136413949Y-95031049D03*
X136413949Y-94531049D03*
X136413949Y-94031049D03*
X136413949Y-93531049D03*
X136413949Y-93031049D03*
X136413949Y-92531049D03*
X136413949Y-92031049D03*
X136413949Y-91531049D03*
D58*
X135763949Y-90881049D03*
X135263949Y-90881049D03*
X134763949Y-90881049D03*
X134263949Y-90881049D03*
X133763949Y-90881049D03*
X133263949Y-90881049D03*
X132763949Y-90881049D03*
X132263949Y-90881049D03*
D59*
X131613949Y-91531049D03*
X131613949Y-92031049D03*
X131613949Y-92531049D03*
X131613949Y-93031049D03*
X131613949Y-93531049D03*
X131613949Y-94031049D03*
X131613949Y-94531049D03*
X131613949Y-95031049D03*
%TD*%
D31*
%TO.C,C29*%
X126500000Y-85250000D03*
X124600000Y-85250000D03*
%TD*%
D19*
%TO.C,R19*%
X213550000Y-99430000D03*
X212530000Y-99430000D03*
%TD*%
D24*
%TO.C,C8*%
X140900000Y-89770000D03*
X142800000Y-89770000D03*
%TD*%
D31*
%TO.C,C12*%
X142815000Y-93450000D03*
X140915000Y-93450000D03*
%TD*%
D20*
%TO.C,R1*%
X124155000Y-93840000D03*
X125805000Y-93840000D03*
%TD*%
D54*
%TO.C,R8*%
X156763400Y-121280000D03*
X165856600Y-121280000D03*
%TD*%
D25*
%TO.C,C19*%
X147980000Y-90260000D03*
X147980000Y-92160000D03*
%TD*%
D16*
%TO.C,C6*%
X136460000Y-86110000D03*
X136460000Y-84210000D03*
%TD*%
D22*
%TO.C,C103*%
X228870000Y-98595000D03*
X227910000Y-98595000D03*
%TD*%
D33*
%TO.C,R54*%
X223650807Y-89760000D03*
X223650807Y-90780000D03*
%TD*%
D55*
%TO.C,R11*%
X153090000Y-87290000D03*
X154110000Y-87290000D03*
%TD*%
D25*
%TO.C,C14*%
X132440000Y-84190000D03*
X132440000Y-86090000D03*
%TD*%
D60*
%TO.C,Q3*%
X210410000Y-108720000D03*
X210410000Y-107450000D03*
X210410000Y-106180000D03*
X210410000Y-104910000D03*
X204819998Y-104910000D03*
X204819998Y-106180000D03*
X204819998Y-107450000D03*
X204819998Y-108720000D03*
%TD*%
D24*
%TO.C,C26*%
X178200000Y-134250000D03*
X180100000Y-134250000D03*
%TD*%
D55*
%TO.C,R21*%
X227350000Y-96780000D03*
X228370000Y-96780000D03*
%TD*%
D20*
%TO.C,R33*%
X124150000Y-90450000D03*
X125800000Y-90450000D03*
%TD*%
D60*
%TO.C,Q1*%
X155003946Y-104968949D03*
X155003946Y-106238949D03*
X155003946Y-107508949D03*
X155003946Y-108778949D03*
X160593948Y-108778949D03*
X160593948Y-107508949D03*
X160593948Y-106238949D03*
X160593948Y-104968949D03*
%TD*%
D61*
%TO.C,U3*%
X160550549Y-91529849D03*
X159900549Y-91529849D03*
X159250549Y-91529849D03*
X158600549Y-91529849D03*
X157950549Y-91529849D03*
X157300549Y-91529849D03*
X156650549Y-91529849D03*
X156000549Y-91529849D03*
X156000549Y-97254849D03*
X156650549Y-97254849D03*
X157300549Y-97254849D03*
X157950549Y-97254849D03*
X158600549Y-97254849D03*
X159250549Y-97254849D03*
X159900549Y-97254849D03*
X160550549Y-97254849D03*
%TD*%
D29*
%TO.C,C98*%
X238138700Y-93720000D03*
X238138700Y-92760000D03*
%TD*%
D20*
%TO.C,R32*%
X143600000Y-103700000D03*
X145250000Y-103700000D03*
%TD*%
%TO.C,R24*%
X146820000Y-99690000D03*
X148470000Y-99690000D03*
%TD*%
D53*
%TO.C,C3*%
X175100000Y-108440000D03*
X175100000Y-115348800D03*
%TD*%
D40*
%TO.C,L2*%
X212913699Y-116809999D03*
X212913699Y-127239998D03*
D41*
X234988700Y-122025000D03*
%TD*%
D55*
%TO.C,R50*%
X212650807Y-89470000D03*
X213670807Y-89470000D03*
%TD*%
D37*
%TO.C,U6*%
X120455000Y-178030000D03*
X121105000Y-178030000D03*
X121755000Y-178030000D03*
X122405000Y-178030000D03*
X122405000Y-173730000D03*
X121755000Y-173730000D03*
X121105000Y-173730000D03*
X120455000Y-173730000D03*
%TD*%
D29*
%TO.C,C97*%
X218900807Y-104665000D03*
X218900807Y-103705000D03*
%TD*%
D20*
%TO.C,R29*%
X152625000Y-99350000D03*
X154275000Y-99350000D03*
%TD*%
M02*
