%TF.GenerationSoftware,KiCad,Pcbnew,9.0.0*%
%TF.CreationDate,2025-06-11T14:13:21-04:00*%
%TF.ProjectId,emberone,656d6265-726f-46e6-952e-6b696361645f,rev?*%
%TF.SameCoordinates,Original*%
%TF.FileFunction,Legend,Top*%
%TF.FilePolarity,Positive*%
%FSLAX46Y46*%
G04 Gerber Fmt 4.6, Leading zero omitted, Abs format (unit mm)*
G04 Created by KiCad (PCBNEW 9.0.0) date 2025-06-11 14:13:21*
%MOMM*%
%LPD*%
G01*
G04 APERTURE LIST*
G04 Aperture macros list*
%AMRoundRect*
0 Rectangle with rounded corners*
0 $1 Rounding radius*
0 $2 $3 $4 $5 $6 $7 $8 $9 X,Y pos of 4 corners*
0 Add a 4 corners polygon primitive as box body*
4,1,4,$2,$3,$4,$5,$6,$7,$8,$9,$2,$3,0*
0 Add four circle primitives for the rounded corners*
1,1,$1+$1,$2,$3*
1,1,$1+$1,$4,$5*
1,1,$1+$1,$6,$7*
1,1,$1+$1,$8,$9*
0 Add four rect primitives between the rounded corners*
20,1,$1+$1,$2,$3,$4,$5,0*
20,1,$1+$1,$4,$5,$6,$7,0*
20,1,$1+$1,$6,$7,$8,$9,0*
20,1,$1+$1,$8,$9,$2,$3,0*%
%AMFreePoly0*
4,1,20,-0.692000,2.285500,2.032000,2.285500,2.508000,2.285500,2.508000,1.525500,2.033000,1.525500,2.033000,-1.524500,2.508000,-1.524500,2.508000,-2.284500,2.032000,-2.284500,2.032000,-2.285500,-0.692000,-2.285500,-0.692000,-2.779500,-1.607000,-2.779500,-1.607000,-2.285500,-2.032000,-2.285500,-2.032000,2.285500,-1.607000,2.285500,-1.607000,2.780500,-0.692000,2.780500,-0.692000,2.285500,
-0.692000,2.285500,$1*%
G04 Aperture macros list end*
%ADD10C,0.400000*%
%ADD11C,0.350000*%
%ADD12C,0.150000*%
%ADD13C,0.127000*%
%ADD14C,0.200000*%
%ADD15C,0.120000*%
%ADD16C,0.471096*%
%ADD17C,0.152400*%
%ADD18C,0.264009*%
%ADD19C,0.177800*%
%ADD20C,0.100000*%
%ADD21C,0.236966*%
%ADD22C,0.350689*%
%ADD23C,0.000000*%
%ADD24R,1.100000X1.300000*%
%ADD25R,0.950000X2.150000*%
%ADD26R,3.250000X2.150000*%
%ADD27FreePoly0,270.000000*%
%ADD28R,0.750000X1.000000*%
%ADD29RoundRect,0.100000X0.400000X0.100000X-0.400000X0.100000X-0.400000X-0.100000X0.400000X-0.100000X0*%
%ADD30C,0.540000*%
%ADD31R,1.905000X3.352800*%
%ADD32RoundRect,0.100000X0.100000X-0.637500X0.100000X0.637500X-0.100000X0.637500X-0.100000X-0.637500X0*%
%ADD33RoundRect,0.200000X0.275000X-0.200000X0.275000X0.200000X-0.275000X0.200000X-0.275000X-0.200000X0*%
%ADD34RoundRect,0.250000X0.475000X-0.250000X0.475000X0.250000X-0.475000X0.250000X-0.475000X-0.250000X0*%
%ADD35RoundRect,0.140000X0.170000X-0.140000X0.170000X0.140000X-0.170000X0.140000X-0.170000X-0.140000X0*%
%ADD36RoundRect,0.250000X1.000000X0.900000X-1.000000X0.900000X-1.000000X-0.900000X1.000000X-0.900000X0*%
%ADD37R,1.168400X0.711200*%
%ADD38RoundRect,0.200000X0.200000X0.275000X-0.200000X0.275000X-0.200000X-0.275000X0.200000X-0.275000X0*%
%ADD39C,6.400000*%
%ADD40RoundRect,0.135000X0.135000X0.185000X-0.135000X0.185000X-0.135000X-0.185000X0.135000X-0.185000X0*%
%ADD41RoundRect,0.200000X-0.200000X-0.275000X0.200000X-0.275000X0.200000X0.275000X-0.200000X0.275000X0*%
%ADD42R,0.509999X0.910001*%
%ADD43RoundRect,0.250000X-0.362500X-1.425000X0.362500X-1.425000X0.362500X1.425000X-0.362500X1.425000X0*%
%ADD44RoundRect,0.140000X0.140000X0.170000X-0.140000X0.170000X-0.140000X-0.170000X0.140000X-0.170000X0*%
%ADD45RoundRect,0.100000X-0.400000X-0.100000X0.400000X-0.100000X0.400000X0.100000X-0.400000X0.100000X0*%
%ADD46RoundRect,0.250000X-0.250000X-0.475000X0.250000X-0.475000X0.250000X0.475000X-0.250000X0.475000X0*%
%ADD47RoundRect,0.250000X0.362500X1.425000X-0.362500X1.425000X-0.362500X-1.425000X0.362500X-1.425000X0*%
%ADD48RoundRect,0.135000X-0.135000X-0.185000X0.135000X-0.185000X0.135000X0.185000X-0.135000X0.185000X0*%
%ADD49RoundRect,0.250000X-0.475000X0.250000X-0.475000X-0.250000X0.475000X-0.250000X0.475000X0.250000X0*%
%ADD50RoundRect,0.050000X-0.387500X-0.050000X0.387500X-0.050000X0.387500X0.050000X-0.387500X0.050000X0*%
%ADD51RoundRect,0.050000X-0.050000X-0.387500X0.050000X-0.387500X0.050000X0.387500X-0.050000X0.387500X0*%
%ADD52R,3.200000X3.200000*%
%ADD53RoundRect,0.140000X-0.140000X-0.170000X0.140000X-0.170000X0.140000X0.170000X-0.140000X0.170000X0*%
%ADD54R,9.000000X5.000000*%
%ADD55R,14.000000X9.000000*%
%ADD56RoundRect,0.250000X0.250000X0.475000X-0.250000X0.475000X-0.250000X-0.475000X0.250000X-0.475000X0*%
%ADD57RoundRect,0.135000X0.185000X-0.135000X0.185000X0.135000X-0.185000X0.135000X-0.185000X-0.135000X0*%
%ADD58R,1.800000X0.900000*%
%ADD59RoundRect,0.135000X-0.185000X0.135000X-0.185000X-0.135000X0.185000X-0.135000X0.185000X0.135000X0*%
%ADD60R,1.000000X1.200000*%
%ADD61R,0.700000X1.200000*%
%ADD62R,0.450000X1.200000*%
%ADD63R,3.352800X1.905000*%
%ADD64C,3.054000*%
%ADD65RoundRect,0.150000X0.150000X0.200000X-0.150000X0.200000X-0.150000X-0.200000X0.150000X-0.200000X0*%
%ADD66R,0.711200X1.168400*%
%ADD67R,5.588000X5.334000*%
%ADD68R,5.283200X6.350000*%
%ADD69RoundRect,0.200000X-0.275000X0.200000X-0.275000X-0.200000X0.275000X-0.200000X0.275000X0.200000X0*%
%ADD70C,3.500000*%
%ADD71C,0.650000*%
%ADD72RoundRect,0.150000X0.150000X0.400000X-0.150000X0.400000X-0.150000X-0.400000X0.150000X-0.400000X0*%
%ADD73RoundRect,0.150000X0.150000X0.425000X-0.150000X0.425000X-0.150000X-0.425000X0.150000X-0.425000X0*%
%ADD74RoundRect,0.075000X0.075000X0.500000X-0.075000X0.500000X-0.075000X-0.500000X0.075000X-0.500000X0*%
%ADD75O,1.000000X2.100000*%
%ADD76O,1.000000X1.800000*%
%ADD77RoundRect,0.140000X-0.170000X0.140000X-0.170000X-0.140000X0.170000X-0.140000X0.170000X0.140000X0*%
%ADD78C,1.552000*%
%ADD79R,0.812800X0.254000*%
%ADD80R,0.254000X1.651000*%
%ADD81RoundRect,0.150000X-0.150000X-0.200000X0.150000X-0.200000X0.150000X0.200000X-0.150000X0.200000X0*%
%ADD82R,0.800001X0.249999*%
%ADD83R,0.700001X0.249999*%
%ADD84R,1.498600X3.302000*%
%ADD85R,3.454400X5.588000*%
%ADD86RoundRect,0.250000X-1.000000X-0.900000X1.000000X-0.900000X1.000000X0.900000X-1.000000X0.900000X0*%
%ADD87RoundRect,0.050000X0.150000X-0.500000X0.150000X0.500000X-0.150000X0.500000X-0.150000X-0.500000X0*%
%ADD88RoundRect,0.050000X0.077000X0.254800X-0.077000X0.254800X-0.077000X-0.254800X0.077000X-0.254800X0*%
%ADD89RoundRect,0.050000X0.254800X-0.077000X0.254800X0.077000X-0.254800X0.077000X-0.254800X-0.077000X0*%
%ADD90R,3.098800X3.098800*%
%ADD91R,0.910001X0.509999*%
%ADD92RoundRect,0.100000X-0.100000X0.637500X-0.100000X-0.637500X0.100000X-0.637500X0.100000X0.637500X0*%
%ADD93RoundRect,0.112500X0.612500X0.112500X-0.612500X0.112500X-0.612500X-0.112500X0.612500X-0.112500X0*%
%ADD94RoundRect,0.150000X0.512500X0.150000X-0.512500X0.150000X-0.512500X-0.150000X0.512500X-0.150000X0*%
G04 APERTURE END LIST*
D10*
X159800000Y-86050000D02*
G75*
G02*
X156300000Y-86050000I-1750000J0D01*
G01*
X156300000Y-86050000D02*
G75*
G02*
X159800000Y-86050000I1750000J0D01*
G01*
X197200000Y-86075000D02*
G75*
G02*
X193700000Y-86075000I-1750000J0D01*
G01*
X193700000Y-86075000D02*
G75*
G02*
X197200000Y-86075000I1750000J0D01*
G01*
X174248809Y-81794662D02*
X173105952Y-81794662D01*
X173677380Y-81794662D02*
X173677380Y-79794662D01*
X173677380Y-79794662D02*
X173486904Y-80080376D01*
X173486904Y-80080376D02*
X173296428Y-80270852D01*
X173296428Y-80270852D02*
X173105952Y-80366090D01*
X175486904Y-79794662D02*
X175677381Y-79794662D01*
X175677381Y-79794662D02*
X175867857Y-79889900D01*
X175867857Y-79889900D02*
X175963095Y-79985138D01*
X175963095Y-79985138D02*
X176058333Y-80175614D01*
X176058333Y-80175614D02*
X176153571Y-80556566D01*
X176153571Y-80556566D02*
X176153571Y-81032757D01*
X176153571Y-81032757D02*
X176058333Y-81413709D01*
X176058333Y-81413709D02*
X175963095Y-81604185D01*
X175963095Y-81604185D02*
X175867857Y-81699424D01*
X175867857Y-81699424D02*
X175677381Y-81794662D01*
X175677381Y-81794662D02*
X175486904Y-81794662D01*
X175486904Y-81794662D02*
X175296428Y-81699424D01*
X175296428Y-81699424D02*
X175201190Y-81604185D01*
X175201190Y-81604185D02*
X175105952Y-81413709D01*
X175105952Y-81413709D02*
X175010714Y-81032757D01*
X175010714Y-81032757D02*
X175010714Y-80556566D01*
X175010714Y-80556566D02*
X175105952Y-80175614D01*
X175105952Y-80175614D02*
X175201190Y-79985138D01*
X175201190Y-79985138D02*
X175296428Y-79889900D01*
X175296428Y-79889900D02*
X175486904Y-79794662D01*
X177391666Y-79794662D02*
X177582143Y-79794662D01*
X177582143Y-79794662D02*
X177772619Y-79889900D01*
X177772619Y-79889900D02*
X177867857Y-79985138D01*
X177867857Y-79985138D02*
X177963095Y-80175614D01*
X177963095Y-80175614D02*
X178058333Y-80556566D01*
X178058333Y-80556566D02*
X178058333Y-81032757D01*
X178058333Y-81032757D02*
X177963095Y-81413709D01*
X177963095Y-81413709D02*
X177867857Y-81604185D01*
X177867857Y-81604185D02*
X177772619Y-81699424D01*
X177772619Y-81699424D02*
X177582143Y-81794662D01*
X177582143Y-81794662D02*
X177391666Y-81794662D01*
X177391666Y-81794662D02*
X177201190Y-81699424D01*
X177201190Y-81699424D02*
X177105952Y-81604185D01*
X177105952Y-81604185D02*
X177010714Y-81413709D01*
X177010714Y-81413709D02*
X176915476Y-81032757D01*
X176915476Y-81032757D02*
X176915476Y-80556566D01*
X176915476Y-80556566D02*
X177010714Y-80175614D01*
X177010714Y-80175614D02*
X177105952Y-79985138D01*
X177105952Y-79985138D02*
X177201190Y-79889900D01*
X177201190Y-79889900D02*
X177391666Y-79794662D01*
X178725000Y-79794662D02*
X179201190Y-81794662D01*
X179201190Y-81794662D02*
X179582143Y-80366090D01*
X179582143Y-80366090D02*
X179963095Y-81794662D01*
X179963095Y-81794662D02*
X180439286Y-79794662D01*
X173201190Y-85014550D02*
X172058333Y-85014550D01*
X172629761Y-85014550D02*
X172629761Y-83014550D01*
X172629761Y-83014550D02*
X172439285Y-83300264D01*
X172439285Y-83300264D02*
X172248809Y-83490740D01*
X172248809Y-83490740D02*
X172058333Y-83585978D01*
X173963095Y-83205026D02*
X174058333Y-83109788D01*
X174058333Y-83109788D02*
X174248809Y-83014550D01*
X174248809Y-83014550D02*
X174725000Y-83014550D01*
X174725000Y-83014550D02*
X174915476Y-83109788D01*
X174915476Y-83109788D02*
X175010714Y-83205026D01*
X175010714Y-83205026D02*
X175105952Y-83395502D01*
X175105952Y-83395502D02*
X175105952Y-83585978D01*
X175105952Y-83585978D02*
X175010714Y-83871692D01*
X175010714Y-83871692D02*
X173867857Y-85014550D01*
X173867857Y-85014550D02*
X175105952Y-85014550D01*
X175963095Y-84252645D02*
X177486905Y-84252645D01*
X178344047Y-83205026D02*
X178439285Y-83109788D01*
X178439285Y-83109788D02*
X178629761Y-83014550D01*
X178629761Y-83014550D02*
X179105952Y-83014550D01*
X179105952Y-83014550D02*
X179296428Y-83109788D01*
X179296428Y-83109788D02*
X179391666Y-83205026D01*
X179391666Y-83205026D02*
X179486904Y-83395502D01*
X179486904Y-83395502D02*
X179486904Y-83585978D01*
X179486904Y-83585978D02*
X179391666Y-83871692D01*
X179391666Y-83871692D02*
X178248809Y-85014550D01*
X178248809Y-85014550D02*
X179486904Y-85014550D01*
X181201190Y-83681216D02*
X181201190Y-85014550D01*
X180724999Y-82919312D02*
X180248809Y-84347883D01*
X180248809Y-84347883D02*
X181486904Y-84347883D01*
X174058333Y-86234438D02*
X174724999Y-88234438D01*
X174724999Y-88234438D02*
X175391666Y-86234438D01*
X176058333Y-88234438D02*
X176058333Y-86234438D01*
X176058333Y-86234438D02*
X176534523Y-86234438D01*
X176534523Y-86234438D02*
X176820238Y-86329676D01*
X176820238Y-86329676D02*
X177010714Y-86520152D01*
X177010714Y-86520152D02*
X177105952Y-86710628D01*
X177105952Y-86710628D02*
X177201190Y-87091580D01*
X177201190Y-87091580D02*
X177201190Y-87377295D01*
X177201190Y-87377295D02*
X177105952Y-87758247D01*
X177105952Y-87758247D02*
X177010714Y-87948723D01*
X177010714Y-87948723D02*
X176820238Y-88139200D01*
X176820238Y-88139200D02*
X176534523Y-88234438D01*
X176534523Y-88234438D02*
X176058333Y-88234438D01*
X179201190Y-88043961D02*
X179105952Y-88139200D01*
X179105952Y-88139200D02*
X178820238Y-88234438D01*
X178820238Y-88234438D02*
X178629762Y-88234438D01*
X178629762Y-88234438D02*
X178344047Y-88139200D01*
X178344047Y-88139200D02*
X178153571Y-87948723D01*
X178153571Y-87948723D02*
X178058333Y-87758247D01*
X178058333Y-87758247D02*
X177963095Y-87377295D01*
X177963095Y-87377295D02*
X177963095Y-87091580D01*
X177963095Y-87091580D02*
X178058333Y-86710628D01*
X178058333Y-86710628D02*
X178153571Y-86520152D01*
X178153571Y-86520152D02*
X178344047Y-86329676D01*
X178344047Y-86329676D02*
X178629762Y-86234438D01*
X178629762Y-86234438D02*
X178820238Y-86234438D01*
X178820238Y-86234438D02*
X179105952Y-86329676D01*
X179105952Y-86329676D02*
X179201190Y-86424914D01*
D11*
X120938358Y-82091800D02*
X120747882Y-82187038D01*
X120747882Y-82187038D02*
X120366929Y-82187038D01*
X120366929Y-82187038D02*
X120176453Y-82091800D01*
X120176453Y-82091800D02*
X120081215Y-81901323D01*
X120081215Y-81901323D02*
X120081215Y-81139419D01*
X120081215Y-81139419D02*
X120176453Y-80948942D01*
X120176453Y-80948942D02*
X120366929Y-80853704D01*
X120366929Y-80853704D02*
X120747882Y-80853704D01*
X120747882Y-80853704D02*
X120938358Y-80948942D01*
X120938358Y-80948942D02*
X121033596Y-81139419D01*
X121033596Y-81139419D02*
X121033596Y-81329895D01*
X121033596Y-81329895D02*
X120081215Y-81520371D01*
X121890739Y-82187038D02*
X121890739Y-80853704D01*
X121890739Y-81044180D02*
X121985977Y-80948942D01*
X121985977Y-80948942D02*
X122176453Y-80853704D01*
X122176453Y-80853704D02*
X122462168Y-80853704D01*
X122462168Y-80853704D02*
X122652644Y-80948942D01*
X122652644Y-80948942D02*
X122747882Y-81139419D01*
X122747882Y-81139419D02*
X122747882Y-82187038D01*
X122747882Y-81139419D02*
X122843120Y-80948942D01*
X122843120Y-80948942D02*
X123033596Y-80853704D01*
X123033596Y-80853704D02*
X123319310Y-80853704D01*
X123319310Y-80853704D02*
X123509787Y-80948942D01*
X123509787Y-80948942D02*
X123605025Y-81139419D01*
X123605025Y-81139419D02*
X123605025Y-82187038D01*
X124557406Y-82187038D02*
X124557406Y-80187038D01*
X124557406Y-80948942D02*
X124747882Y-80853704D01*
X124747882Y-80853704D02*
X125128835Y-80853704D01*
X125128835Y-80853704D02*
X125319311Y-80948942D01*
X125319311Y-80948942D02*
X125414549Y-81044180D01*
X125414549Y-81044180D02*
X125509787Y-81234657D01*
X125509787Y-81234657D02*
X125509787Y-81806085D01*
X125509787Y-81806085D02*
X125414549Y-81996561D01*
X125414549Y-81996561D02*
X125319311Y-82091800D01*
X125319311Y-82091800D02*
X125128835Y-82187038D01*
X125128835Y-82187038D02*
X124747882Y-82187038D01*
X124747882Y-82187038D02*
X124557406Y-82091800D01*
X127128835Y-82091800D02*
X126938359Y-82187038D01*
X126938359Y-82187038D02*
X126557406Y-82187038D01*
X126557406Y-82187038D02*
X126366930Y-82091800D01*
X126366930Y-82091800D02*
X126271692Y-81901323D01*
X126271692Y-81901323D02*
X126271692Y-81139419D01*
X126271692Y-81139419D02*
X126366930Y-80948942D01*
X126366930Y-80948942D02*
X126557406Y-80853704D01*
X126557406Y-80853704D02*
X126938359Y-80853704D01*
X126938359Y-80853704D02*
X127128835Y-80948942D01*
X127128835Y-80948942D02*
X127224073Y-81139419D01*
X127224073Y-81139419D02*
X127224073Y-81329895D01*
X127224073Y-81329895D02*
X126271692Y-81520371D01*
X128081216Y-82187038D02*
X128081216Y-80853704D01*
X128081216Y-81234657D02*
X128176454Y-81044180D01*
X128176454Y-81044180D02*
X128271692Y-80948942D01*
X128271692Y-80948942D02*
X128462168Y-80853704D01*
X128462168Y-80853704D02*
X128652645Y-80853704D01*
X129700263Y-80187038D02*
X130081216Y-80187038D01*
X130081216Y-80187038D02*
X130271692Y-80282276D01*
X130271692Y-80282276D02*
X130462168Y-80472752D01*
X130462168Y-80472752D02*
X130557406Y-80853704D01*
X130557406Y-80853704D02*
X130557406Y-81520371D01*
X130557406Y-81520371D02*
X130462168Y-81901323D01*
X130462168Y-81901323D02*
X130271692Y-82091800D01*
X130271692Y-82091800D02*
X130081216Y-82187038D01*
X130081216Y-82187038D02*
X129700263Y-82187038D01*
X129700263Y-82187038D02*
X129509787Y-82091800D01*
X129509787Y-82091800D02*
X129319311Y-81901323D01*
X129319311Y-81901323D02*
X129224073Y-81520371D01*
X129224073Y-81520371D02*
X129224073Y-80853704D01*
X129224073Y-80853704D02*
X129319311Y-80472752D01*
X129319311Y-80472752D02*
X129509787Y-80282276D01*
X129509787Y-80282276D02*
X129700263Y-80187038D01*
X131414549Y-80853704D02*
X131414549Y-82187038D01*
X131414549Y-81044180D02*
X131509787Y-80948942D01*
X131509787Y-80948942D02*
X131700263Y-80853704D01*
X131700263Y-80853704D02*
X131985978Y-80853704D01*
X131985978Y-80853704D02*
X132176454Y-80948942D01*
X132176454Y-80948942D02*
X132271692Y-81139419D01*
X132271692Y-81139419D02*
X132271692Y-82187038D01*
X133985978Y-82091800D02*
X133795502Y-82187038D01*
X133795502Y-82187038D02*
X133414549Y-82187038D01*
X133414549Y-82187038D02*
X133224073Y-82091800D01*
X133224073Y-82091800D02*
X133128835Y-81901323D01*
X133128835Y-81901323D02*
X133128835Y-81139419D01*
X133128835Y-81139419D02*
X133224073Y-80948942D01*
X133224073Y-80948942D02*
X133414549Y-80853704D01*
X133414549Y-80853704D02*
X133795502Y-80853704D01*
X133795502Y-80853704D02*
X133985978Y-80948942D01*
X133985978Y-80948942D02*
X134081216Y-81139419D01*
X134081216Y-81139419D02*
X134081216Y-81329895D01*
X134081216Y-81329895D02*
X133128835Y-81520371D01*
X136366930Y-80091800D02*
X134652645Y-82663228D01*
X137414549Y-80187038D02*
X137605026Y-80187038D01*
X137605026Y-80187038D02*
X137795502Y-80282276D01*
X137795502Y-80282276D02*
X137890740Y-80377514D01*
X137890740Y-80377514D02*
X137985978Y-80567990D01*
X137985978Y-80567990D02*
X138081216Y-80948942D01*
X138081216Y-80948942D02*
X138081216Y-81425133D01*
X138081216Y-81425133D02*
X137985978Y-81806085D01*
X137985978Y-81806085D02*
X137890740Y-81996561D01*
X137890740Y-81996561D02*
X137795502Y-82091800D01*
X137795502Y-82091800D02*
X137605026Y-82187038D01*
X137605026Y-82187038D02*
X137414549Y-82187038D01*
X137414549Y-82187038D02*
X137224073Y-82091800D01*
X137224073Y-82091800D02*
X137128835Y-81996561D01*
X137128835Y-81996561D02*
X137033597Y-81806085D01*
X137033597Y-81806085D02*
X136938359Y-81425133D01*
X136938359Y-81425133D02*
X136938359Y-80948942D01*
X136938359Y-80948942D02*
X137033597Y-80567990D01*
X137033597Y-80567990D02*
X137128835Y-80377514D01*
X137128835Y-80377514D02*
X137224073Y-80282276D01*
X137224073Y-80282276D02*
X137414549Y-80187038D01*
X139319311Y-80187038D02*
X139509788Y-80187038D01*
X139509788Y-80187038D02*
X139700264Y-80282276D01*
X139700264Y-80282276D02*
X139795502Y-80377514D01*
X139795502Y-80377514D02*
X139890740Y-80567990D01*
X139890740Y-80567990D02*
X139985978Y-80948942D01*
X139985978Y-80948942D02*
X139985978Y-81425133D01*
X139985978Y-81425133D02*
X139890740Y-81806085D01*
X139890740Y-81806085D02*
X139795502Y-81996561D01*
X139795502Y-81996561D02*
X139700264Y-82091800D01*
X139700264Y-82091800D02*
X139509788Y-82187038D01*
X139509788Y-82187038D02*
X139319311Y-82187038D01*
X139319311Y-82187038D02*
X139128835Y-82091800D01*
X139128835Y-82091800D02*
X139033597Y-81996561D01*
X139033597Y-81996561D02*
X138938359Y-81806085D01*
X138938359Y-81806085D02*
X138843121Y-81425133D01*
X138843121Y-81425133D02*
X138843121Y-80948942D01*
X138843121Y-80948942D02*
X138938359Y-80567990D01*
X138938359Y-80567990D02*
X139033597Y-80377514D01*
X139033597Y-80377514D02*
X139128835Y-80282276D01*
X139128835Y-80282276D02*
X139319311Y-80187038D01*
X142176455Y-80853704D02*
X142652645Y-82187038D01*
X142652645Y-82187038D02*
X143128836Y-80853704D01*
X144747884Y-80853704D02*
X144747884Y-82187038D01*
X144271693Y-80091800D02*
X143795503Y-81520371D01*
X143795503Y-81520371D02*
X145033598Y-81520371D01*
D12*
X235952969Y-84389819D02*
X235476779Y-84389819D01*
X235476779Y-84389819D02*
X235476779Y-83389819D01*
X236619636Y-83866009D02*
X236286303Y-83866009D01*
X236286303Y-84389819D02*
X236286303Y-83389819D01*
X236286303Y-83389819D02*
X236762493Y-83389819D01*
X237667255Y-83437438D02*
X237572017Y-83389819D01*
X237572017Y-83389819D02*
X237429160Y-83389819D01*
X237429160Y-83389819D02*
X237286303Y-83437438D01*
X237286303Y-83437438D02*
X237191065Y-83532676D01*
X237191065Y-83532676D02*
X237143446Y-83627914D01*
X237143446Y-83627914D02*
X237095827Y-83818390D01*
X237095827Y-83818390D02*
X237095827Y-83961247D01*
X237095827Y-83961247D02*
X237143446Y-84151723D01*
X237143446Y-84151723D02*
X237191065Y-84246961D01*
X237191065Y-84246961D02*
X237286303Y-84342200D01*
X237286303Y-84342200D02*
X237429160Y-84389819D01*
X237429160Y-84389819D02*
X237524398Y-84389819D01*
X237524398Y-84389819D02*
X237667255Y-84342200D01*
X237667255Y-84342200D02*
X237714874Y-84294580D01*
X237714874Y-84294580D02*
X237714874Y-83961247D01*
X237714874Y-83961247D02*
X237524398Y-83961247D01*
X204048207Y-82899819D02*
X203714874Y-82423628D01*
X203476779Y-82899819D02*
X203476779Y-81899819D01*
X203476779Y-81899819D02*
X203857731Y-81899819D01*
X203857731Y-81899819D02*
X203952969Y-81947438D01*
X203952969Y-81947438D02*
X204000588Y-81995057D01*
X204000588Y-81995057D02*
X204048207Y-82090295D01*
X204048207Y-82090295D02*
X204048207Y-82233152D01*
X204048207Y-82233152D02*
X204000588Y-82328390D01*
X204000588Y-82328390D02*
X203952969Y-82376009D01*
X203952969Y-82376009D02*
X203857731Y-82423628D01*
X203857731Y-82423628D02*
X203476779Y-82423628D01*
X204476779Y-82376009D02*
X204810112Y-82376009D01*
X204952969Y-82899819D02*
X204476779Y-82899819D01*
X204476779Y-82899819D02*
X204476779Y-81899819D01*
X204476779Y-81899819D02*
X204952969Y-81899819D01*
X205333922Y-82852200D02*
X205476779Y-82899819D01*
X205476779Y-82899819D02*
X205714874Y-82899819D01*
X205714874Y-82899819D02*
X205810112Y-82852200D01*
X205810112Y-82852200D02*
X205857731Y-82804580D01*
X205857731Y-82804580D02*
X205905350Y-82709342D01*
X205905350Y-82709342D02*
X205905350Y-82614104D01*
X205905350Y-82614104D02*
X205857731Y-82518866D01*
X205857731Y-82518866D02*
X205810112Y-82471247D01*
X205810112Y-82471247D02*
X205714874Y-82423628D01*
X205714874Y-82423628D02*
X205524398Y-82376009D01*
X205524398Y-82376009D02*
X205429160Y-82328390D01*
X205429160Y-82328390D02*
X205381541Y-82280771D01*
X205381541Y-82280771D02*
X205333922Y-82185533D01*
X205333922Y-82185533D02*
X205333922Y-82090295D01*
X205333922Y-82090295D02*
X205381541Y-81995057D01*
X205381541Y-81995057D02*
X205429160Y-81947438D01*
X205429160Y-81947438D02*
X205524398Y-81899819D01*
X205524398Y-81899819D02*
X205762493Y-81899819D01*
X205762493Y-81899819D02*
X205905350Y-81947438D01*
X206333922Y-82376009D02*
X206667255Y-82376009D01*
X206810112Y-82899819D02*
X206333922Y-82899819D01*
X206333922Y-82899819D02*
X206333922Y-81899819D01*
X206333922Y-81899819D02*
X206810112Y-81899819D01*
X207095827Y-81899819D02*
X207667255Y-81899819D01*
X207381541Y-82899819D02*
X207381541Y-81899819D01*
D10*
X130996819Y-184023985D02*
X130996819Y-184690652D01*
X132044438Y-184690652D02*
X130044438Y-184690652D01*
X130044438Y-184690652D02*
X130044438Y-183738271D01*
X130044438Y-182595414D02*
X130044438Y-182214461D01*
X130044438Y-182214461D02*
X130139676Y-182023985D01*
X130139676Y-182023985D02*
X130330152Y-181833509D01*
X130330152Y-181833509D02*
X130711104Y-181738271D01*
X130711104Y-181738271D02*
X131377771Y-181738271D01*
X131377771Y-181738271D02*
X131758723Y-181833509D01*
X131758723Y-181833509D02*
X131949200Y-182023985D01*
X131949200Y-182023985D02*
X132044438Y-182214461D01*
X132044438Y-182214461D02*
X132044438Y-182595414D01*
X132044438Y-182595414D02*
X131949200Y-182785890D01*
X131949200Y-182785890D02*
X131758723Y-182976366D01*
X131758723Y-182976366D02*
X131377771Y-183071604D01*
X131377771Y-183071604D02*
X130711104Y-183071604D01*
X130711104Y-183071604D02*
X130330152Y-182976366D01*
X130330152Y-182976366D02*
X130139676Y-182785890D01*
X130139676Y-182785890D02*
X130044438Y-182595414D01*
X131949200Y-180976366D02*
X132044438Y-180690652D01*
X132044438Y-180690652D02*
X132044438Y-180214461D01*
X132044438Y-180214461D02*
X131949200Y-180023985D01*
X131949200Y-180023985D02*
X131853961Y-179928747D01*
X131853961Y-179928747D02*
X131663485Y-179833509D01*
X131663485Y-179833509D02*
X131473009Y-179833509D01*
X131473009Y-179833509D02*
X131282533Y-179928747D01*
X131282533Y-179928747D02*
X131187295Y-180023985D01*
X131187295Y-180023985D02*
X131092057Y-180214461D01*
X131092057Y-180214461D02*
X130996819Y-180595414D01*
X130996819Y-180595414D02*
X130901580Y-180785890D01*
X130901580Y-180785890D02*
X130806342Y-180881128D01*
X130806342Y-180881128D02*
X130615866Y-180976366D01*
X130615866Y-180976366D02*
X130425390Y-180976366D01*
X130425390Y-180976366D02*
X130234914Y-180881128D01*
X130234914Y-180881128D02*
X130139676Y-180785890D01*
X130139676Y-180785890D02*
X130044438Y-180595414D01*
X130044438Y-180595414D02*
X130044438Y-180119223D01*
X130044438Y-180119223D02*
X130139676Y-179833509D01*
X131949200Y-179071604D02*
X132044438Y-178785890D01*
X132044438Y-178785890D02*
X132044438Y-178309699D01*
X132044438Y-178309699D02*
X131949200Y-178119223D01*
X131949200Y-178119223D02*
X131853961Y-178023985D01*
X131853961Y-178023985D02*
X131663485Y-177928747D01*
X131663485Y-177928747D02*
X131473009Y-177928747D01*
X131473009Y-177928747D02*
X131282533Y-178023985D01*
X131282533Y-178023985D02*
X131187295Y-178119223D01*
X131187295Y-178119223D02*
X131092057Y-178309699D01*
X131092057Y-178309699D02*
X130996819Y-178690652D01*
X130996819Y-178690652D02*
X130901580Y-178881128D01*
X130901580Y-178881128D02*
X130806342Y-178976366D01*
X130806342Y-178976366D02*
X130615866Y-179071604D01*
X130615866Y-179071604D02*
X130425390Y-179071604D01*
X130425390Y-179071604D02*
X130234914Y-178976366D01*
X130234914Y-178976366D02*
X130139676Y-178881128D01*
X130139676Y-178881128D02*
X130044438Y-178690652D01*
X130044438Y-178690652D02*
X130044438Y-178214461D01*
X130044438Y-178214461D02*
X130139676Y-177928747D01*
X132711104Y-175071604D02*
X129853961Y-175071604D01*
X132711104Y-173166842D02*
X129853961Y-173166842D01*
X130139676Y-169166841D02*
X130044438Y-169357317D01*
X130044438Y-169357317D02*
X130044438Y-169643031D01*
X130044438Y-169643031D02*
X130139676Y-169928746D01*
X130139676Y-169928746D02*
X130330152Y-170119222D01*
X130330152Y-170119222D02*
X130520628Y-170214460D01*
X130520628Y-170214460D02*
X130901580Y-170309698D01*
X130901580Y-170309698D02*
X131187295Y-170309698D01*
X131187295Y-170309698D02*
X131568247Y-170214460D01*
X131568247Y-170214460D02*
X131758723Y-170119222D01*
X131758723Y-170119222D02*
X131949200Y-169928746D01*
X131949200Y-169928746D02*
X132044438Y-169643031D01*
X132044438Y-169643031D02*
X132044438Y-169452555D01*
X132044438Y-169452555D02*
X131949200Y-169166841D01*
X131949200Y-169166841D02*
X131853961Y-169071603D01*
X131853961Y-169071603D02*
X131187295Y-169071603D01*
X131187295Y-169071603D02*
X131187295Y-169452555D01*
X130044438Y-168500174D02*
X130044438Y-167357317D01*
X132044438Y-167928746D02*
X130044438Y-167928746D01*
X130996819Y-166023983D02*
X130996819Y-166690650D01*
X132044438Y-166690650D02*
X130044438Y-166690650D01*
X130044438Y-166690650D02*
X130044438Y-165738269D01*
X130044438Y-164595412D02*
X130044438Y-164214459D01*
X130044438Y-164214459D02*
X130139676Y-164023983D01*
X130139676Y-164023983D02*
X130330152Y-163833507D01*
X130330152Y-163833507D02*
X130711104Y-163738269D01*
X130711104Y-163738269D02*
X131377771Y-163738269D01*
X131377771Y-163738269D02*
X131758723Y-163833507D01*
X131758723Y-163833507D02*
X131949200Y-164023983D01*
X131949200Y-164023983D02*
X132044438Y-164214459D01*
X132044438Y-164214459D02*
X132044438Y-164595412D01*
X132044438Y-164595412D02*
X131949200Y-164785888D01*
X131949200Y-164785888D02*
X131758723Y-164976364D01*
X131758723Y-164976364D02*
X131377771Y-165071602D01*
X131377771Y-165071602D02*
X130711104Y-165071602D01*
X130711104Y-165071602D02*
X130330152Y-164976364D01*
X130330152Y-164976364D02*
X130139676Y-164785888D01*
X130139676Y-164785888D02*
X130044438Y-164595412D01*
D12*
X211090112Y-82356009D02*
X211232969Y-82403628D01*
X211232969Y-82403628D02*
X211280588Y-82451247D01*
X211280588Y-82451247D02*
X211328207Y-82546485D01*
X211328207Y-82546485D02*
X211328207Y-82689342D01*
X211328207Y-82689342D02*
X211280588Y-82784580D01*
X211280588Y-82784580D02*
X211232969Y-82832200D01*
X211232969Y-82832200D02*
X211137731Y-82879819D01*
X211137731Y-82879819D02*
X210756779Y-82879819D01*
X210756779Y-82879819D02*
X210756779Y-81879819D01*
X210756779Y-81879819D02*
X211090112Y-81879819D01*
X211090112Y-81879819D02*
X211185350Y-81927438D01*
X211185350Y-81927438D02*
X211232969Y-81975057D01*
X211232969Y-81975057D02*
X211280588Y-82070295D01*
X211280588Y-82070295D02*
X211280588Y-82165533D01*
X211280588Y-82165533D02*
X211232969Y-82260771D01*
X211232969Y-82260771D02*
X211185350Y-82308390D01*
X211185350Y-82308390D02*
X211090112Y-82356009D01*
X211090112Y-82356009D02*
X210756779Y-82356009D01*
X211947255Y-81879819D02*
X212137731Y-81879819D01*
X212137731Y-81879819D02*
X212232969Y-81927438D01*
X212232969Y-81927438D02*
X212328207Y-82022676D01*
X212328207Y-82022676D02*
X212375826Y-82213152D01*
X212375826Y-82213152D02*
X212375826Y-82546485D01*
X212375826Y-82546485D02*
X212328207Y-82736961D01*
X212328207Y-82736961D02*
X212232969Y-82832200D01*
X212232969Y-82832200D02*
X212137731Y-82879819D01*
X212137731Y-82879819D02*
X211947255Y-82879819D01*
X211947255Y-82879819D02*
X211852017Y-82832200D01*
X211852017Y-82832200D02*
X211756779Y-82736961D01*
X211756779Y-82736961D02*
X211709160Y-82546485D01*
X211709160Y-82546485D02*
X211709160Y-82213152D01*
X211709160Y-82213152D02*
X211756779Y-82022676D01*
X211756779Y-82022676D02*
X211852017Y-81927438D01*
X211852017Y-81927438D02*
X211947255Y-81879819D01*
X212994874Y-81879819D02*
X213185350Y-81879819D01*
X213185350Y-81879819D02*
X213280588Y-81927438D01*
X213280588Y-81927438D02*
X213375826Y-82022676D01*
X213375826Y-82022676D02*
X213423445Y-82213152D01*
X213423445Y-82213152D02*
X213423445Y-82546485D01*
X213423445Y-82546485D02*
X213375826Y-82736961D01*
X213375826Y-82736961D02*
X213280588Y-82832200D01*
X213280588Y-82832200D02*
X213185350Y-82879819D01*
X213185350Y-82879819D02*
X212994874Y-82879819D01*
X212994874Y-82879819D02*
X212899636Y-82832200D01*
X212899636Y-82832200D02*
X212804398Y-82736961D01*
X212804398Y-82736961D02*
X212756779Y-82546485D01*
X212756779Y-82546485D02*
X212756779Y-82213152D01*
X212756779Y-82213152D02*
X212804398Y-82022676D01*
X212804398Y-82022676D02*
X212899636Y-81927438D01*
X212899636Y-81927438D02*
X212994874Y-81879819D01*
X213709160Y-81879819D02*
X214280588Y-81879819D01*
X213994874Y-82879819D02*
X213994874Y-81879819D01*
D10*
X194718095Y-86087533D02*
X196241905Y-86087533D01*
X157318095Y-86062533D02*
X158841905Y-86062533D01*
X158080000Y-86824438D02*
X158080000Y-85300628D01*
D12*
X160108866Y-137300620D02*
X160108866Y-136538716D01*
X160489819Y-136919668D02*
X159727914Y-136919668D01*
X173264034Y-137091291D02*
X173264034Y-136329387D01*
X173644987Y-136710339D02*
X172883082Y-136710339D01*
X208516920Y-133716133D02*
X207755016Y-133716133D01*
X208135968Y-133335180D02*
X208135968Y-134097085D01*
X200021133Y-99007979D02*
X200021133Y-99769884D01*
X199640180Y-99388931D02*
X200402085Y-99388931D01*
X168221133Y-98997979D02*
X168221133Y-99759884D01*
X167840180Y-99378931D02*
X168602085Y-99378931D01*
X173911133Y-99077979D02*
X173911133Y-99839884D01*
X173530180Y-99458931D02*
X174292085Y-99458931D01*
D13*
%TO.C,Y1*%
X222520807Y-104455000D02*
X222520807Y-103915000D01*
X220020807Y-103915000D02*
X220020807Y-104455000D01*
D14*
X222340807Y-106535000D02*
G75*
G02*
X222140807Y-106535000I-100000J0D01*
G01*
X222140807Y-106535000D02*
G75*
G02*
X222340807Y-106535000I100000J0D01*
G01*
D13*
%TO.C,U10*%
X237148700Y-92330000D02*
X237148700Y-95830000D01*
X230648700Y-92330000D02*
X230648700Y-95830000D01*
X237148700Y-95830000D02*
X235908700Y-95830000D01*
X230648700Y-95830000D02*
X231888700Y-95830000D01*
D14*
X236298700Y-89480000D02*
G75*
G02*
X236098700Y-89480000I-100000J0D01*
G01*
X236098700Y-89480000D02*
G75*
G02*
X236298700Y-89480000I100000J0D01*
G01*
D13*
%TO.C,Q5*%
X169330000Y-92920000D02*
X169330000Y-91195000D01*
X164130000Y-92920000D02*
X164130000Y-91195000D01*
X169330000Y-94465000D02*
X169330000Y-97095000D01*
X164130000Y-94465000D02*
X164130000Y-97095000D01*
X165520000Y-97190000D02*
X167940000Y-97190000D01*
D14*
X168830000Y-90145000D02*
G75*
G02*
X168630000Y-90145000I-100000J0D01*
G01*
X168630000Y-90145000D02*
G75*
G02*
X168830000Y-90145000I100000J0D01*
G01*
%TO.C,U55*%
D15*
X163990000Y-178835000D02*
X155990000Y-178835000D01*
X155990000Y-170835000D01*
X163990000Y-170835000D01*
X163990000Y-178835000D01*
D16*
X165375548Y-178845000D02*
G75*
G02*
X164904452Y-178845000I-235548J0D01*
G01*
X164904452Y-178845000D02*
G75*
G02*
X165375548Y-178845000I235548J0D01*
G01*
D17*
%TO.C,C16*%
X157970100Y-127247500D02*
X157970100Y-135807300D01*
X157970100Y-135807300D02*
X160964760Y-135807300D01*
X160964760Y-127247500D02*
X157970100Y-127247500D01*
X163535240Y-135807300D02*
X166529900Y-135807300D01*
X166529900Y-127247500D02*
X163535240Y-127247500D01*
X166529900Y-135807300D02*
X166529900Y-127247500D01*
D15*
%TO.C,U4*%
X230990000Y-142632500D02*
X230990000Y-140432500D01*
X230990000Y-142632500D02*
X230990000Y-144832500D01*
X236460000Y-142632500D02*
X236460000Y-140432500D01*
X236460000Y-142632500D02*
X236460000Y-144832500D01*
X231690000Y-146822500D02*
X231210000Y-146822500D01*
X231450000Y-146492500D01*
X231690000Y-146822500D01*
G36*
X231690000Y-146822500D02*
G01*
X231210000Y-146822500D01*
X231450000Y-146492500D01*
X231690000Y-146822500D01*
G37*
%TO.C,R6*%
X147757500Y-97457258D02*
X147757500Y-96982742D01*
X148802500Y-97457258D02*
X148802500Y-96982742D01*
%TO.C,C11*%
X144055000Y-89341252D02*
X144055000Y-88818748D01*
X145525000Y-89341252D02*
X145525000Y-88818748D01*
%TO.C,C33*%
X223640000Y-145147836D02*
X223640000Y-144932164D01*
X224360000Y-145147836D02*
X224360000Y-144932164D01*
%TO.C,D6*%
X179760000Y-89050000D02*
X173950000Y-89050000D01*
X179760000Y-93350000D02*
X173950000Y-93350000D01*
X179760000Y-93350000D02*
X179760000Y-89050000D01*
D17*
%TO.C,D1*%
X126026300Y-99305500D02*
X128083700Y-99305500D01*
D15*
X126675000Y-97420000D02*
X126675000Y-99630000D01*
D17*
X128083700Y-97654500D02*
X126026300Y-97654500D01*
D15*
%TO.C,R5*%
X133997258Y-97967500D02*
X133522742Y-97967500D01*
X133997258Y-99012500D02*
X133522742Y-99012500D01*
%TO.C,R20*%
X214213641Y-100180000D02*
X213906359Y-100180000D01*
X214213641Y-100940000D02*
X213906359Y-100940000D01*
%TO.C,R30*%
X153212742Y-100677500D02*
X153687258Y-100677500D01*
X153212742Y-101722500D02*
X153687258Y-101722500D01*
D14*
%TO.C,Q4*%
X203448700Y-116595001D02*
X203448700Y-110795003D01*
X208448700Y-110795003D02*
X203448700Y-110795003D01*
X208448700Y-116595001D02*
X203448700Y-116595001D01*
X208448700Y-116595001D02*
X208448700Y-110795003D01*
D10*
X202898700Y-116620002D02*
G75*
G02*
X202498700Y-116620002I-200000J0D01*
G01*
X202498700Y-116620002D02*
G75*
G02*
X202898700Y-116620002I200000J0D01*
G01*
D15*
%TO.C,C31*%
X144165000Y-101461252D02*
X144165000Y-100938748D01*
X145635000Y-101461252D02*
X145635000Y-100938748D01*
%TO.C,C15*%
X128615000Y-90371252D02*
X128615000Y-89848748D01*
X130085000Y-90371252D02*
X130085000Y-89848748D01*
%TO.C,R27*%
X162930436Y-113430000D02*
X167284564Y-113430000D01*
X162930436Y-116850000D02*
X167284564Y-116850000D01*
%TO.C,C101*%
X225826536Y-90965000D02*
X225610864Y-90965000D01*
X225826536Y-91685000D02*
X225610864Y-91685000D01*
%TO.C,C30*%
X150065000Y-100811252D02*
X150065000Y-100288748D01*
X151535000Y-100811252D02*
X151535000Y-100288748D01*
%TO.C,C7*%
X137865000Y-85421252D02*
X137865000Y-84898748D01*
X139335000Y-85421252D02*
X139335000Y-84898748D01*
%TO.C,U65*%
X177500000Y-184525000D02*
X185500000Y-184525000D01*
X185500000Y-192525000D01*
X177500000Y-192525000D01*
X177500000Y-184525000D01*
D16*
X176585548Y-184515000D02*
G75*
G02*
X176114452Y-184515000I-235548J0D01*
G01*
X176114452Y-184515000D02*
G75*
G02*
X176585548Y-184515000I235548J0D01*
G01*
%TO.C,U47*%
D15*
X134460000Y-184495000D02*
X142460000Y-184495000D01*
X142460000Y-192495000D01*
X134460000Y-192495000D01*
X134460000Y-184495000D01*
D16*
X133545548Y-184485000D02*
G75*
G02*
X133074452Y-184485000I-235548J0D01*
G01*
X133074452Y-184485000D02*
G75*
G02*
X133545548Y-184485000I235548J0D01*
G01*
D15*
%TO.C,C9*%
X138868748Y-95695000D02*
X139391252Y-95695000D01*
X138868748Y-97165000D02*
X139391252Y-97165000D01*
%TO.C,R28*%
X200924564Y-111900000D02*
X196570436Y-111900000D01*
X200924564Y-115320000D02*
X196570436Y-115320000D01*
%TO.C,R35*%
X227056359Y-141690000D02*
X227363641Y-141690000D01*
X227056359Y-142450000D02*
X227363641Y-142450000D01*
%TO.C,C5*%
X129865000Y-98818748D02*
X129865000Y-99341252D01*
X131335000Y-98818748D02*
X131335000Y-99341252D01*
%TO.C,U27*%
X218510807Y-94037500D02*
X218510807Y-93627500D01*
X218510807Y-100607500D02*
X218510807Y-99957500D01*
X219160807Y-93387500D02*
X218810807Y-93387500D01*
X219160807Y-100607500D02*
X218510807Y-100607500D01*
X225080807Y-93387500D02*
X225730807Y-93387500D01*
X225080807Y-100607500D02*
X225730807Y-100607500D01*
X225730807Y-93387500D02*
X225730807Y-94037500D01*
X225730807Y-100607500D02*
X225730807Y-99957500D01*
X218510807Y-93387500D02*
X218270807Y-93057500D01*
X218750807Y-93057500D01*
X218510807Y-93387500D01*
G36*
X218510807Y-93387500D02*
G01*
X218270807Y-93057500D01*
X218750807Y-93057500D01*
X218510807Y-93387500D01*
G37*
%TO.C,C27*%
X178888748Y-131135000D02*
X179411252Y-131135000D01*
X178888748Y-132605000D02*
X179411252Y-132605000D01*
%TO.C,R9*%
X133917500Y-85607258D02*
X133917500Y-85132742D01*
X134962500Y-85607258D02*
X134962500Y-85132742D01*
%TO.C,C22*%
X231687836Y-137310000D02*
X231472164Y-137310000D01*
X231687836Y-138030000D02*
X231472164Y-138030000D01*
%TO.C,U74*%
X207050000Y-165245000D02*
X199050000Y-165245000D01*
X199050000Y-157245000D01*
X207050000Y-157245000D01*
X207050000Y-165245000D01*
D16*
X208435548Y-165255000D02*
G75*
G02*
X207964452Y-165255000I-235548J0D01*
G01*
X207964452Y-165255000D02*
G75*
G02*
X208435548Y-165255000I235548J0D01*
G01*
D15*
%TO.C,C107*%
X215712971Y-97200000D02*
X215928643Y-97200000D01*
X215712971Y-97920000D02*
X215928643Y-97920000D01*
%TO.C,U54*%
X163990000Y-192505000D02*
X155990000Y-192505000D01*
X155990000Y-184505000D01*
X163990000Y-184505000D01*
X163990000Y-192505000D01*
D16*
X165375548Y-192515000D02*
G75*
G02*
X164904452Y-192515000I-235548J0D01*
G01*
X164904452Y-192515000D02*
G75*
G02*
X165375548Y-192515000I235548J0D01*
G01*
D15*
%TO.C,R23*%
X142422742Y-95887500D02*
X142897258Y-95887500D01*
X142422742Y-96932500D02*
X142897258Y-96932500D01*
%TO.C,U46*%
X134460000Y-170815000D02*
X142460000Y-170815000D01*
X142460000Y-178815000D01*
X134460000Y-178815000D01*
X134460000Y-170815000D01*
D16*
X133545548Y-170805000D02*
G75*
G02*
X133074452Y-170805000I-235548J0D01*
G01*
X133074452Y-170805000D02*
G75*
G02*
X133545548Y-170805000I235548J0D01*
G01*
D17*
%TO.C,C17*%
X167020100Y-127270100D02*
X167020100Y-135829900D01*
X167020100Y-135829900D02*
X170014760Y-135829900D01*
X170014760Y-127270100D02*
X167020100Y-127270100D01*
X172585240Y-135829900D02*
X175579900Y-135829900D01*
X175579900Y-127270100D02*
X172585240Y-127270100D01*
X175579900Y-135829900D02*
X175579900Y-127270100D01*
D15*
%TO.C,C20*%
X153071252Y-95995000D02*
X152548748Y-95995000D01*
X153071252Y-97465000D02*
X152548748Y-97465000D01*
%TO.C,R52*%
X215428700Y-83563641D02*
X215428700Y-83256359D01*
X216188700Y-83563641D02*
X216188700Y-83256359D01*
D17*
%TO.C,SW2*%
X203786000Y-84008000D02*
X203786000Y-88072000D01*
X203786000Y-88072000D02*
X204215260Y-88072000D01*
X204215260Y-84008000D02*
X203786000Y-84008000D01*
X206404740Y-88072000D02*
X206834000Y-88072000D01*
X206834000Y-84008000D02*
X206404740Y-84008000D01*
X206834000Y-88072000D02*
X206834000Y-84008000D01*
D15*
%TO.C,R53*%
X222170807Y-90116359D02*
X222170807Y-90423641D01*
X222930807Y-90116359D02*
X222930807Y-90423641D01*
%TO.C,U9*%
D18*
X234626013Y-84880000D02*
G75*
G02*
X234362005Y-84880000I-132004J0D01*
G01*
X234362005Y-84880000D02*
G75*
G02*
X234626013Y-84880000I132004J0D01*
G01*
D15*
%TO.C,R4*%
X141867258Y-87397500D02*
X141392742Y-87397500D01*
X141867258Y-88442500D02*
X141392742Y-88442500D01*
%TO.C,C106*%
X226430000Y-103037836D02*
X226430000Y-102822164D01*
X227150000Y-103037836D02*
X227150000Y-102822164D01*
%TO.C,C99*%
X217462164Y-89190000D02*
X217677836Y-89190000D01*
X217462164Y-89910000D02*
X217677836Y-89910000D01*
%TO.C,U45*%
X134460000Y-157125000D02*
X142460000Y-157125000D01*
X142460000Y-165125000D01*
X134460000Y-165125000D01*
X134460000Y-157125000D01*
D16*
X133545548Y-157115000D02*
G75*
G02*
X133074452Y-157115000I-235548J0D01*
G01*
X133074452Y-157115000D02*
G75*
G02*
X133545548Y-157115000I235548J0D01*
G01*
D17*
%TO.C,C18*%
X198463800Y-127295100D02*
X198463800Y-130289760D01*
X198463800Y-132860240D02*
X198463800Y-135854900D01*
X198463800Y-135854900D02*
X207023600Y-135854900D01*
X207023600Y-127295100D02*
X198463800Y-127295100D01*
X207023600Y-130289760D02*
X207023600Y-127295100D01*
X207023600Y-135854900D02*
X207023600Y-132860240D01*
D13*
%TO.C,J1*%
X168450000Y-89920000D02*
X164450000Y-89920000D01*
D15*
%TO.C,R69*%
X236870000Y-145211359D02*
X236870000Y-145518641D01*
X237630000Y-145211359D02*
X237630000Y-145518641D01*
%TO.C,R55*%
X210890000Y-90233641D02*
X210890000Y-89926359D01*
X211650000Y-90233641D02*
X211650000Y-89926359D01*
%TO.C,U12*%
X222562500Y-87940000D02*
X222562500Y-89140000D01*
X224522500Y-87940000D02*
X222562500Y-87940000D01*
X224522500Y-89140000D02*
X222562500Y-89140000D01*
%TO.C,U72*%
X207050000Y-192615000D02*
X199050000Y-192615000D01*
X199050000Y-184615000D01*
X207050000Y-184615000D01*
X207050000Y-192615000D01*
D16*
X208435548Y-192625000D02*
G75*
G02*
X207964452Y-192625000I-235548J0D01*
G01*
X207964452Y-192625000D02*
G75*
G02*
X208435548Y-192625000I235548J0D01*
G01*
D15*
%TO.C,D2*%
X128245000Y-86570000D02*
X130455000Y-86570000D01*
D17*
X128479500Y-85161300D02*
X128479500Y-87218700D01*
X130130500Y-87218700D02*
X130130500Y-85161300D01*
D15*
%TO.C,C24*%
X174775000Y-143032836D02*
X174775000Y-142817164D01*
X175495000Y-143032836D02*
X175495000Y-142817164D01*
D17*
%TO.C,L1*%
X125767000Y-107953000D02*
X125767000Y-118542260D01*
X125767000Y-125557740D02*
X125767000Y-136147000D01*
X125767000Y-136147000D02*
X145833000Y-136147000D01*
X145833000Y-107953000D02*
X125767000Y-107953000D01*
X145833000Y-136147000D02*
X145833000Y-107953000D01*
D15*
%TO.C,C100*%
X219692971Y-90410000D02*
X219908643Y-90410000D01*
X219692971Y-91130000D02*
X219908643Y-91130000D01*
%TO.C,U63*%
X177500000Y-157155000D02*
X185500000Y-157155000D01*
X185500000Y-165155000D01*
X177500000Y-165155000D01*
X177500000Y-157155000D01*
D16*
X176585548Y-157145000D02*
G75*
G02*
X176114452Y-157145000I-235548J0D01*
G01*
X176114452Y-157145000D02*
G75*
G02*
X176585548Y-157145000I235548J0D01*
G01*
D15*
%TO.C,R7*%
X149467500Y-96982742D02*
X149467500Y-97457258D01*
X150512500Y-96982742D02*
X150512500Y-97457258D01*
%TO.C,U64*%
X177500000Y-170835000D02*
X185500000Y-170835000D01*
X185500000Y-178835000D01*
X177500000Y-178835000D01*
X177500000Y-170835000D01*
D16*
X176585548Y-170825000D02*
G75*
G02*
X176114452Y-170825000I-235548J0D01*
G01*
X176114452Y-170825000D02*
G75*
G02*
X176585548Y-170825000I235548J0D01*
G01*
D15*
%TO.C,R31*%
X147412742Y-100727500D02*
X147887258Y-100727500D01*
X147412742Y-101772500D02*
X147887258Y-101772500D01*
%TO.C,C105*%
X225090000Y-103087836D02*
X225090000Y-102872164D01*
X225810000Y-103087836D02*
X225810000Y-102872164D01*
%TO.C,R34*%
X207000000Y-89916359D02*
X207000000Y-90223641D01*
X207760000Y-89916359D02*
X207760000Y-90223641D01*
D13*
%TO.C,J6*%
X217278700Y-84190000D02*
X217278700Y-82490000D01*
X226618700Y-84190000D02*
X226618700Y-82490000D01*
D15*
%TO.C,C90*%
X229483700Y-92922164D02*
X229483700Y-93137836D01*
X230203700Y-92922164D02*
X230203700Y-93137836D01*
%TO.C,C96*%
X223310807Y-105222164D02*
X223310807Y-105437836D01*
X224030807Y-105222164D02*
X224030807Y-105437836D01*
%TO.C,R70*%
X222126359Y-144130000D02*
X222433641Y-144130000D01*
X222126359Y-144890000D02*
X222433641Y-144890000D01*
D14*
%TO.C,J19*%
X153600000Y-133740000D02*
X153600000Y-133240000D01*
X155100000Y-131740000D02*
X155600000Y-131740000D01*
X155100000Y-135240000D02*
X155600000Y-135240000D01*
X157100000Y-133740000D02*
X157100000Y-133240000D01*
%TO.C,U73*%
D15*
X207050000Y-178925000D02*
X199050000Y-178925000D01*
X199050000Y-170925000D01*
X207050000Y-170925000D01*
X207050000Y-178925000D01*
D16*
X208435548Y-178935000D02*
G75*
G02*
X207964452Y-178935000I-235548J0D01*
G01*
X207964452Y-178935000D02*
G75*
G02*
X208435548Y-178935000I235548J0D01*
G01*
D17*
%TO.C,U8*%
X214806662Y-92761099D02*
X216619352Y-92761099D01*
X216619352Y-90398899D02*
X214806662Y-90398899D01*
D19*
X213396907Y-90829999D02*
G75*
G02*
X213219107Y-90829999I-88900J0D01*
G01*
X213219107Y-90829999D02*
G75*
G02*
X213396907Y-90829999I88900J0D01*
G01*
D15*
%TO.C,U11*%
X220147500Y-87930000D02*
X222107500Y-87930000D01*
X220147500Y-89130000D02*
X222107500Y-89130000D01*
X222107500Y-89130000D02*
X222107500Y-87930000D01*
%TO.C,C34*%
X161540000Y-92636252D02*
X161540000Y-92113748D01*
X163010000Y-92636252D02*
X163010000Y-92113748D01*
%TO.C,R25*%
X141392742Y-85787500D02*
X141867258Y-85787500D01*
X141392742Y-86832500D02*
X141867258Y-86832500D01*
%TO.C,C21*%
X229940000Y-139467836D02*
X229940000Y-139252164D01*
X230660000Y-139467836D02*
X230660000Y-139252164D01*
%TO.C,U13*%
D20*
X226083001Y-143984000D02*
X228182001Y-143984000D01*
X228182001Y-146078000D01*
X226083001Y-146078000D01*
X226083001Y-143984000D01*
D21*
X225343484Y-144198000D02*
G75*
G02*
X225106518Y-144198000I-118483J0D01*
G01*
X225106518Y-144198000D02*
G75*
G02*
X225343484Y-144198000I118483J0D01*
G01*
D15*
%TO.C,C104*%
X227527836Y-93510000D02*
X227312164Y-93510000D01*
X227527836Y-94230000D02*
X227312164Y-94230000D01*
D14*
%TO.C,Q2*%
X155395000Y-116580000D02*
X155395000Y-110780002D01*
X160395000Y-110780002D02*
X155395000Y-110780002D01*
X160395000Y-116580000D02*
X155395000Y-116580000D01*
X160395000Y-116580000D02*
X160395000Y-110780002D01*
D10*
X154845000Y-116605001D02*
G75*
G02*
X154445000Y-116605001I-200000J0D01*
G01*
X154445000Y-116605001D02*
G75*
G02*
X154845000Y-116605001I200000J0D01*
G01*
D15*
%TO.C,C108*%
X226951536Y-92040000D02*
X226735864Y-92040000D01*
X226951536Y-92760000D02*
X226735864Y-92760000D01*
%TO.C,R51*%
X227808700Y-83553641D02*
X227808700Y-83246359D01*
X228568700Y-83553641D02*
X228568700Y-83246359D01*
%TO.C,U56*%
X164010000Y-165155000D02*
X156010000Y-165155000D01*
X156010000Y-157155000D01*
X164010000Y-157155000D01*
X164010000Y-165155000D01*
D16*
X165395548Y-165165000D02*
G75*
G02*
X164924452Y-165165000I-235548J0D01*
G01*
X164924452Y-165165000D02*
G75*
G02*
X165395548Y-165165000I235548J0D01*
G01*
D15*
%TO.C,C109*%
X215702971Y-94045000D02*
X215918643Y-94045000D01*
X215702971Y-94765000D02*
X215918643Y-94765000D01*
D17*
%TO.C,C4*%
X193858500Y-100214100D02*
X193858500Y-108977100D01*
X193858500Y-108977100D02*
X197157960Y-108977100D01*
X197157960Y-100214100D02*
X193858500Y-100214100D01*
X199322040Y-108977100D02*
X202621500Y-108977100D01*
X202621500Y-100214100D02*
X199322040Y-100214100D01*
X202621500Y-108977100D02*
X202621500Y-100214100D01*
D15*
%TO.C,R26*%
X147262742Y-94267500D02*
X147737258Y-94267500D01*
X147262742Y-95312500D02*
X147737258Y-95312500D01*
D17*
%TO.C,R10*%
X194271600Y-117597000D02*
X194271600Y-118153260D01*
X194271600Y-124406740D02*
X194271600Y-124963000D01*
X194271600Y-124963000D02*
X206768400Y-124963000D01*
X206768400Y-117597000D02*
X194271600Y-117597000D01*
X206768400Y-118153260D02*
X206768400Y-117597000D01*
X206768400Y-124963000D02*
X206768400Y-124406740D01*
D15*
%TO.C,D5*%
X230562500Y-85150000D02*
X230562500Y-89450000D01*
X230562500Y-85150000D02*
X236372500Y-85150000D01*
X230562500Y-89450000D02*
X236372500Y-89450000D01*
%TO.C,C35*%
X170365000Y-91888748D02*
X170365000Y-92411252D01*
X171835000Y-91888748D02*
X171835000Y-92411252D01*
%TO.C,R22*%
X229966359Y-96400000D02*
X230273641Y-96400000D01*
X229966359Y-97160000D02*
X230273641Y-97160000D01*
%TO.C,R3*%
X141392742Y-91087500D02*
X141867258Y-91087500D01*
X141392742Y-92132500D02*
X141867258Y-92132500D01*
%TO.C,C28*%
X162328748Y-110685000D02*
X162851252Y-110685000D01*
X162328748Y-112155000D02*
X162851252Y-112155000D01*
%TO.C,C2*%
X125001252Y-95075000D02*
X124478748Y-95075000D01*
X125001252Y-96545000D02*
X124478748Y-96545000D01*
D17*
%TO.C,C1*%
X162168500Y-100272000D02*
X162168500Y-109035000D01*
X162168500Y-109035000D02*
X165467960Y-109035000D01*
X165467960Y-100272000D02*
X162168500Y-100272000D01*
X167632040Y-109035000D02*
X170931500Y-109035000D01*
X170931500Y-100272000D02*
X167632040Y-100272000D01*
X170931500Y-109035000D02*
X170931500Y-100272000D01*
D15*
%TO.C,C10*%
X134231252Y-99715000D02*
X133708748Y-99715000D01*
X134231252Y-101185000D02*
X133708748Y-101185000D01*
%TO.C,R2*%
X125207258Y-91627500D02*
X124732742Y-91627500D01*
X125207258Y-92672500D02*
X124732742Y-92672500D01*
%TO.C,C13*%
X128578949Y-95263591D02*
X128578949Y-95786095D01*
X130048949Y-95263591D02*
X130048949Y-95786095D01*
%TO.C,C102*%
X224740807Y-105427836D02*
X224740807Y-105212164D01*
X225460807Y-105427836D02*
X225460807Y-105212164D01*
D12*
%TO.C,U2*%
X150278949Y-89421051D02*
X150453949Y-89421051D01*
X150278949Y-92671051D02*
X150278949Y-89421051D01*
X150278949Y-92671051D02*
X150453949Y-92671051D01*
X153353949Y-89421051D02*
X153528949Y-89421051D01*
X153353949Y-92671051D02*
X153528949Y-92671051D01*
X153528949Y-92671051D02*
X153528949Y-89421051D01*
D15*
X150453949Y-93146051D02*
X150123949Y-93386051D01*
X150123949Y-92906051D01*
X150453949Y-93146051D01*
G36*
X150453949Y-93146051D02*
G01*
X150123949Y-93386051D01*
X150123949Y-92906051D01*
X150453949Y-93146051D01*
G37*
%TO.C,C110*%
X219692971Y-89410000D02*
X219908643Y-89410000D01*
X219692971Y-90130000D02*
X219908643Y-90130000D01*
D17*
%TO.C,U1*%
X131207249Y-90474349D02*
X131207249Y-91087201D01*
X131207249Y-95474897D02*
X131207249Y-96087749D01*
X131207249Y-96087749D02*
X131820101Y-96087749D01*
X131820101Y-90474349D02*
X131207249Y-90474349D01*
X136207797Y-96087749D02*
X136820649Y-96087749D01*
X136820649Y-90474349D02*
X136207797Y-90474349D01*
X136820649Y-91087201D02*
X136820649Y-90474349D01*
X136820649Y-96087749D02*
X136820649Y-95474897D01*
D22*
X131399293Y-96831049D02*
G75*
G02*
X131048605Y-96831049I-175344J0D01*
G01*
X131048605Y-96831049D02*
G75*
G02*
X131399293Y-96831049I175344J0D01*
G01*
D15*
%TO.C,C29*%
X201671252Y-109835000D02*
X201148748Y-109835000D01*
X201671252Y-111305000D02*
X201148748Y-111305000D01*
%TO.C,R19*%
X213193641Y-99050000D02*
X212886359Y-99050000D01*
X213193641Y-99810000D02*
X212886359Y-99810000D01*
%TO.C,R61*%
X222136359Y-145200000D02*
X222443641Y-145200000D01*
X222136359Y-145960000D02*
X222443641Y-145960000D01*
%TO.C,C8*%
X141588748Y-89035000D02*
X142111252Y-89035000D01*
X141588748Y-90505000D02*
X142111252Y-90505000D01*
%TO.C,C12*%
X142126252Y-92715000D02*
X141603748Y-92715000D01*
X142126252Y-94185000D02*
X141603748Y-94185000D01*
%TO.C,D4*%
X176390000Y-135575000D02*
X176390000Y-139875000D01*
X176390000Y-135575000D02*
X182200000Y-135575000D01*
X176390000Y-139875000D02*
X182200000Y-139875000D01*
%TO.C,R1*%
X124742742Y-93317500D02*
X125217258Y-93317500D01*
X124742742Y-94362500D02*
X125217258Y-94362500D01*
D17*
%TO.C,R8*%
X155061600Y-117597000D02*
X155061600Y-118153260D01*
X155061600Y-124406740D02*
X155061600Y-124963000D01*
X155061600Y-124963000D02*
X167558400Y-124963000D01*
X167558400Y-117597000D02*
X155061600Y-117597000D01*
X167558400Y-118153260D02*
X167558400Y-117597000D01*
X167558400Y-124963000D02*
X167558400Y-124406740D01*
D15*
%TO.C,C19*%
X147245000Y-90948748D02*
X147245000Y-91471252D01*
X148715000Y-90948748D02*
X148715000Y-91471252D01*
%TO.C,C6*%
X135725000Y-85421252D02*
X135725000Y-84898748D01*
X137195000Y-85421252D02*
X137195000Y-84898748D01*
%TO.C,C103*%
X227477836Y-98270000D02*
X227262164Y-98270000D01*
X227477836Y-98990000D02*
X227262164Y-98990000D01*
%TO.C,R54*%
X223270807Y-90116359D02*
X223270807Y-90423641D01*
X224030807Y-90116359D02*
X224030807Y-90423641D01*
%TO.C,C32*%
X227112164Y-142930000D02*
X227327836Y-142930000D01*
X227112164Y-143650000D02*
X227327836Y-143650000D01*
%TO.C,R11*%
X153446359Y-86910000D02*
X153753641Y-86910000D01*
X153446359Y-87670000D02*
X153753641Y-87670000D01*
%TO.C,C14*%
X131705000Y-84878748D02*
X131705000Y-85401252D01*
X133175000Y-84878748D02*
X133175000Y-85401252D01*
D13*
%TO.C,J2*%
X189016378Y-89920000D02*
X185016378Y-89920000D01*
D14*
%TO.C,Q3*%
X204715000Y-104315000D02*
X204715000Y-109315000D01*
X210514998Y-104315000D02*
X204715000Y-104315000D01*
X210514998Y-104315000D02*
X210514998Y-109315000D01*
X210514998Y-109315000D02*
X204715000Y-109315000D01*
D10*
X210739999Y-110065000D02*
G75*
G02*
X210339999Y-110065000I-200000J0D01*
G01*
X210339999Y-110065000D02*
G75*
G02*
X210739999Y-110065000I200000J0D01*
G01*
D15*
%TO.C,C25*%
X176212164Y-94615000D02*
X176427836Y-94615000D01*
X176212164Y-95335000D02*
X176427836Y-95335000D01*
%TO.C,C26*%
X178888748Y-133515000D02*
X179411252Y-133515000D01*
X178888748Y-134985000D02*
X179411252Y-134985000D01*
%TO.C,R21*%
X227706359Y-96400000D02*
X228013641Y-96400000D01*
X227706359Y-97160000D02*
X228013641Y-97160000D01*
%TO.C,R33*%
X124737742Y-89927500D02*
X125212258Y-89927500D01*
X124737742Y-90972500D02*
X125212258Y-90972500D01*
D14*
%TO.C,Q1*%
X154898948Y-104373949D02*
X160698946Y-104373949D01*
X154898948Y-109373949D02*
X154898948Y-104373949D01*
X154898948Y-109373949D02*
X160698946Y-109373949D01*
X160698946Y-109373949D02*
X160698946Y-104373949D01*
D10*
X155073947Y-103623949D02*
G75*
G02*
X154673947Y-103623949I-200000J0D01*
G01*
X154673947Y-103623949D02*
G75*
G02*
X155073947Y-103623949I200000J0D01*
G01*
D15*
%TO.C,U3*%
X155478949Y-96023949D02*
X155478949Y-93823949D01*
X155478949Y-96023949D02*
X155478949Y-98223949D01*
X160948949Y-96023949D02*
X160948949Y-93823949D01*
X160948949Y-96023949D02*
X160948949Y-98223949D01*
X160488949Y-92163949D02*
X160248949Y-91833949D01*
X160728949Y-91833949D01*
X160488949Y-92163949D01*
G36*
X160488949Y-92163949D02*
G01*
X160248949Y-91833949D01*
X160728949Y-91833949D01*
X160488949Y-92163949D01*
G37*
%TO.C,C98*%
X237778700Y-93347836D02*
X237778700Y-93132164D01*
X238498700Y-93347836D02*
X238498700Y-93132164D01*
%TO.C,R32*%
X144187742Y-103177500D02*
X144662258Y-103177500D01*
X144187742Y-104222500D02*
X144662258Y-104222500D01*
%TO.C,R24*%
X147407742Y-99167500D02*
X147882258Y-99167500D01*
X147407742Y-100212500D02*
X147882258Y-100212500D01*
D17*
%TO.C,C3*%
X171278500Y-100254100D02*
X171278500Y-109017100D01*
X171278500Y-109017100D02*
X174577960Y-109017100D01*
X174577960Y-100254100D02*
X171278500Y-100254100D01*
X176742040Y-109017100D02*
X180041500Y-109017100D01*
X180041500Y-100254100D02*
X176742040Y-100254100D01*
X180041500Y-109017100D02*
X180041500Y-100254100D01*
%TO.C,L2*%
X217235700Y-107928000D02*
X217235700Y-136122000D01*
X217235700Y-136122000D02*
X237301700Y-136122000D01*
X237301700Y-107928000D02*
X217235700Y-107928000D01*
X237301700Y-118517260D02*
X237301700Y-107928000D01*
X237301700Y-136122000D02*
X237301700Y-125532740D01*
D15*
%TO.C,R50*%
X212250000Y-89916359D02*
X212250000Y-90223641D01*
X213010000Y-89916359D02*
X213010000Y-90223641D01*
%TO.C,U6*%
X178975000Y-140465000D02*
X177475000Y-140465000D01*
X178975000Y-140465000D02*
X180475000Y-140465000D01*
X178975000Y-143685000D02*
X177475000Y-143685000D01*
X178975000Y-143685000D02*
X180475000Y-143685000D01*
X181402500Y-143890000D02*
X180922500Y-143890000D01*
X181162500Y-143560000D01*
X181402500Y-143890000D01*
G36*
X181402500Y-143890000D02*
G01*
X180922500Y-143890000D01*
X181162500Y-143560000D01*
X181402500Y-143890000D01*
G37*
%TO.C,C97*%
X218540807Y-104292836D02*
X218540807Y-104077164D01*
X219260807Y-104292836D02*
X219260807Y-104077164D01*
%TO.C,R29*%
X153212742Y-98827500D02*
X153687258Y-98827500D01*
X153212742Y-99872500D02*
X153687258Y-99872500D01*
%TO.C,U7*%
X172987500Y-94265000D02*
X172187500Y-94265000D01*
X172987500Y-94265000D02*
X173787500Y-94265000D01*
X172987500Y-97385000D02*
X172187500Y-97385000D01*
X172987500Y-97385000D02*
X173787500Y-97385000D01*
X174527500Y-97665000D02*
X174047500Y-97665000D01*
X174287500Y-97335000D01*
X174527500Y-97665000D01*
G36*
X174527500Y-97665000D02*
G01*
X174047500Y-97665000D01*
X174287500Y-97335000D01*
X174527500Y-97665000D01*
G37*
D17*
%TO.C,SW1*%
X210686000Y-84008000D02*
X210686000Y-88072000D01*
X210686000Y-88072000D02*
X211115260Y-88072000D01*
X211115260Y-84008000D02*
X210686000Y-84008000D01*
X213304740Y-88072000D02*
X213734000Y-88072000D01*
X213734000Y-84008000D02*
X213304740Y-84008000D01*
X213734000Y-88072000D02*
X213734000Y-84008000D01*
%TD*%
%LPC*%
%TO.C,U55*%
D15*
X156830000Y-171045000D02*
X158680000Y-171045000D01*
X158680000Y-172485000D01*
X156830000Y-172485000D01*
X156830000Y-171045000D01*
G36*
X156830000Y-171045000D02*
G01*
X158680000Y-171045000D01*
X158680000Y-172485000D01*
X156830000Y-172485000D01*
X156830000Y-171045000D01*
G37*
X156830000Y-173025000D02*
X158680000Y-173025000D01*
X158680000Y-174465000D01*
X156830000Y-174465000D01*
X156830000Y-173025000D01*
G36*
X156830000Y-173025000D02*
G01*
X158680000Y-173025000D01*
X158680000Y-174465000D01*
X156830000Y-174465000D01*
X156830000Y-173025000D01*
G37*
X156830000Y-174975000D02*
X158680000Y-174975000D01*
X158680000Y-176415000D01*
X156830000Y-176415000D01*
X156830000Y-174975000D01*
G36*
X156830000Y-174975000D02*
G01*
X158680000Y-174975000D01*
X158680000Y-176415000D01*
X156830000Y-176415000D01*
X156830000Y-174975000D01*
G37*
X156840000Y-176990000D02*
X158690000Y-176990000D01*
X158690000Y-178690000D01*
X156840000Y-178690000D01*
X156840000Y-176990000D01*
G36*
X156840000Y-176990000D02*
G01*
X158690000Y-176990000D01*
X158690000Y-178690000D01*
X156840000Y-178690000D01*
X156840000Y-176990000D01*
G37*
X159085000Y-171045000D02*
X160935000Y-171045000D01*
X160935000Y-172485000D01*
X159085000Y-172485000D01*
X159085000Y-171045000D01*
G36*
X159085000Y-171045000D02*
G01*
X160935000Y-171045000D01*
X160935000Y-172485000D01*
X159085000Y-172485000D01*
X159085000Y-171045000D01*
G37*
X159085000Y-174975000D02*
X160935000Y-174975000D01*
X160935000Y-176415000D01*
X159085000Y-176415000D01*
X159085000Y-174975000D01*
G36*
X159085000Y-174975000D02*
G01*
X160935000Y-174975000D01*
X160935000Y-176415000D01*
X159085000Y-176415000D01*
X159085000Y-174975000D01*
G37*
X159120000Y-173025000D02*
X160900000Y-173025000D01*
X160900000Y-174465000D01*
X159120000Y-174465000D01*
X159120000Y-173025000D01*
G36*
X159120000Y-173025000D02*
G01*
X160900000Y-173025000D01*
X160900000Y-174465000D01*
X159120000Y-174465000D01*
X159120000Y-173025000D01*
G37*
X159120000Y-176980000D02*
X160900000Y-176980000D01*
X160900000Y-178690000D01*
X159120000Y-178690000D01*
X159120000Y-176980000D01*
G36*
X159120000Y-176980000D02*
G01*
X160900000Y-176980000D01*
X160900000Y-178690000D01*
X159120000Y-178690000D01*
X159120000Y-176980000D01*
G37*
X161295000Y-171045000D02*
X163145000Y-171045000D01*
X163145000Y-172485000D01*
X161295000Y-172485000D01*
X161295000Y-171045000D01*
G36*
X161295000Y-171045000D02*
G01*
X163145000Y-171045000D01*
X163145000Y-172485000D01*
X161295000Y-172485000D01*
X161295000Y-171045000D01*
G37*
X161295000Y-174975000D02*
X163145000Y-174975000D01*
X163145000Y-176415000D01*
X161295000Y-176415000D01*
X161295000Y-174975000D01*
G36*
X161295000Y-174975000D02*
G01*
X163145000Y-174975000D01*
X163145000Y-176415000D01*
X161295000Y-176415000D01*
X161295000Y-174975000D01*
G37*
X161320000Y-176960000D02*
X163160000Y-176960000D01*
X163160000Y-178700000D01*
X161320000Y-178700000D01*
X161320000Y-176960000D01*
G36*
X161320000Y-176960000D02*
G01*
X163160000Y-176960000D01*
X163160000Y-178700000D01*
X161320000Y-178700000D01*
X161320000Y-176960000D01*
G37*
X161330000Y-173015000D02*
X163150000Y-173015000D01*
X163150000Y-174455000D01*
X161330000Y-174455000D01*
X161330000Y-173015000D01*
G36*
X161330000Y-173015000D02*
G01*
X163150000Y-173015000D01*
X163150000Y-174455000D01*
X161330000Y-174455000D01*
X161330000Y-173015000D01*
G37*
D23*
%TO.C,Q4*%
G36*
X204248698Y-111445001D02*
G01*
X203838699Y-111445001D01*
X203838699Y-111220001D01*
X204248698Y-111220001D01*
X204248698Y-111445001D01*
G37*
G36*
X205518701Y-111445001D02*
G01*
X205108702Y-111445001D01*
X205108702Y-111220001D01*
X205518701Y-111220001D01*
X205518701Y-111445001D01*
G37*
G36*
X206788696Y-111445001D02*
G01*
X206378697Y-111445001D01*
X206378697Y-111220001D01*
X206788696Y-111220001D01*
X206788696Y-111445001D01*
G37*
G36*
X208058698Y-111445001D02*
G01*
X207648699Y-111445001D01*
X207648699Y-111220001D01*
X208058698Y-111220001D01*
X208058698Y-111445001D01*
G37*
G36*
X208141685Y-111406002D02*
G01*
X208151477Y-111408974D01*
X208160502Y-111413798D01*
X208168411Y-111420290D01*
X208174903Y-111428199D01*
X208179727Y-111437224D01*
X208182699Y-111447016D01*
X208183699Y-111457201D01*
X208183699Y-114832800D01*
X208182699Y-114842985D01*
X208179727Y-114852777D01*
X208174903Y-114861802D01*
X208168411Y-114869711D01*
X208160502Y-114876204D01*
X208151477Y-114881027D01*
X208141685Y-114883999D01*
X208131500Y-114885000D01*
X203765900Y-114885000D01*
X203755715Y-114883999D01*
X203745923Y-114881027D01*
X203736898Y-114876204D01*
X203728989Y-114869711D01*
X203722497Y-114861802D01*
X203717673Y-114852777D01*
X203714701Y-114842985D01*
X203713701Y-114832800D01*
X203713701Y-111457201D01*
X203714701Y-111447016D01*
X203717673Y-111437224D01*
X203722497Y-111428199D01*
X203728989Y-111420290D01*
X203736898Y-111413798D01*
X203745923Y-111408974D01*
X203755715Y-111406002D01*
X203765900Y-111404999D01*
X208131500Y-111404999D01*
X208141685Y-111406002D01*
G37*
%TO.C,U65*%
D15*
X180160000Y-190345000D02*
X178340000Y-190345000D01*
X178340000Y-188905000D01*
X180160000Y-188905000D01*
X180160000Y-190345000D01*
G36*
X180160000Y-190345000D02*
G01*
X178340000Y-190345000D01*
X178340000Y-188905000D01*
X180160000Y-188905000D01*
X180160000Y-190345000D01*
G37*
X180170000Y-186400000D02*
X178330000Y-186400000D01*
X178330000Y-184660000D01*
X180170000Y-184660000D01*
X180170000Y-186400000D01*
G36*
X180170000Y-186400000D02*
G01*
X178330000Y-186400000D01*
X178330000Y-184660000D01*
X180170000Y-184660000D01*
X180170000Y-186400000D01*
G37*
X180195000Y-188385000D02*
X178345000Y-188385000D01*
X178345000Y-186945000D01*
X180195000Y-186945000D01*
X180195000Y-188385000D01*
G36*
X180195000Y-188385000D02*
G01*
X178345000Y-188385000D01*
X178345000Y-186945000D01*
X180195000Y-186945000D01*
X180195000Y-188385000D01*
G37*
X180195000Y-192315000D02*
X178345000Y-192315000D01*
X178345000Y-190875000D01*
X180195000Y-190875000D01*
X180195000Y-192315000D01*
G36*
X180195000Y-192315000D02*
G01*
X178345000Y-192315000D01*
X178345000Y-190875000D01*
X180195000Y-190875000D01*
X180195000Y-192315000D01*
G37*
X182370000Y-186380000D02*
X180590000Y-186380000D01*
X180590000Y-184670000D01*
X182370000Y-184670000D01*
X182370000Y-186380000D01*
G36*
X182370000Y-186380000D02*
G01*
X180590000Y-186380000D01*
X180590000Y-184670000D01*
X182370000Y-184670000D01*
X182370000Y-186380000D01*
G37*
X182370000Y-190335000D02*
X180590000Y-190335000D01*
X180590000Y-188895000D01*
X182370000Y-188895000D01*
X182370000Y-190335000D01*
G36*
X182370000Y-190335000D02*
G01*
X180590000Y-190335000D01*
X180590000Y-188895000D01*
X182370000Y-188895000D01*
X182370000Y-190335000D01*
G37*
X182405000Y-188385000D02*
X180555000Y-188385000D01*
X180555000Y-186945000D01*
X182405000Y-186945000D01*
X182405000Y-188385000D01*
G36*
X182405000Y-188385000D02*
G01*
X180555000Y-188385000D01*
X180555000Y-186945000D01*
X182405000Y-186945000D01*
X182405000Y-188385000D01*
G37*
X182405000Y-192315000D02*
X180555000Y-192315000D01*
X180555000Y-190875000D01*
X182405000Y-190875000D01*
X182405000Y-192315000D01*
G36*
X182405000Y-192315000D02*
G01*
X180555000Y-192315000D01*
X180555000Y-190875000D01*
X182405000Y-190875000D01*
X182405000Y-192315000D01*
G37*
X184650000Y-186370000D02*
X182800000Y-186370000D01*
X182800000Y-184670000D01*
X184650000Y-184670000D01*
X184650000Y-186370000D01*
G36*
X184650000Y-186370000D02*
G01*
X182800000Y-186370000D01*
X182800000Y-184670000D01*
X184650000Y-184670000D01*
X184650000Y-186370000D01*
G37*
X184660000Y-188385000D02*
X182810000Y-188385000D01*
X182810000Y-186945000D01*
X184660000Y-186945000D01*
X184660000Y-188385000D01*
G36*
X184660000Y-188385000D02*
G01*
X182810000Y-188385000D01*
X182810000Y-186945000D01*
X184660000Y-186945000D01*
X184660000Y-188385000D01*
G37*
X184660000Y-190335000D02*
X182810000Y-190335000D01*
X182810000Y-188895000D01*
X184660000Y-188895000D01*
X184660000Y-190335000D01*
G36*
X184660000Y-190335000D02*
G01*
X182810000Y-190335000D01*
X182810000Y-188895000D01*
X184660000Y-188895000D01*
X184660000Y-190335000D01*
G37*
X184660000Y-192315000D02*
X182810000Y-192315000D01*
X182810000Y-190875000D01*
X184660000Y-190875000D01*
X184660000Y-192315000D01*
G36*
X184660000Y-192315000D02*
G01*
X182810000Y-192315000D01*
X182810000Y-190875000D01*
X184660000Y-190875000D01*
X184660000Y-192315000D01*
G37*
%TO.C,U47*%
X137120000Y-190315000D02*
X135300000Y-190315000D01*
X135300000Y-188875000D01*
X137120000Y-188875000D01*
X137120000Y-190315000D01*
G36*
X137120000Y-190315000D02*
G01*
X135300000Y-190315000D01*
X135300000Y-188875000D01*
X137120000Y-188875000D01*
X137120000Y-190315000D01*
G37*
X137130000Y-186370000D02*
X135290000Y-186370000D01*
X135290000Y-184630000D01*
X137130000Y-184630000D01*
X137130000Y-186370000D01*
G36*
X137130000Y-186370000D02*
G01*
X135290000Y-186370000D01*
X135290000Y-184630000D01*
X137130000Y-184630000D01*
X137130000Y-186370000D01*
G37*
X137155000Y-188355000D02*
X135305000Y-188355000D01*
X135305000Y-186915000D01*
X137155000Y-186915000D01*
X137155000Y-188355000D01*
G36*
X137155000Y-188355000D02*
G01*
X135305000Y-188355000D01*
X135305000Y-186915000D01*
X137155000Y-186915000D01*
X137155000Y-188355000D01*
G37*
X137155000Y-192285000D02*
X135305000Y-192285000D01*
X135305000Y-190845000D01*
X137155000Y-190845000D01*
X137155000Y-192285000D01*
G36*
X137155000Y-192285000D02*
G01*
X135305000Y-192285000D01*
X135305000Y-190845000D01*
X137155000Y-190845000D01*
X137155000Y-192285000D01*
G37*
X139330000Y-186350000D02*
X137550000Y-186350000D01*
X137550000Y-184640000D01*
X139330000Y-184640000D01*
X139330000Y-186350000D01*
G36*
X139330000Y-186350000D02*
G01*
X137550000Y-186350000D01*
X137550000Y-184640000D01*
X139330000Y-184640000D01*
X139330000Y-186350000D01*
G37*
X139330000Y-190305000D02*
X137550000Y-190305000D01*
X137550000Y-188865000D01*
X139330000Y-188865000D01*
X139330000Y-190305000D01*
G36*
X139330000Y-190305000D02*
G01*
X137550000Y-190305000D01*
X137550000Y-188865000D01*
X139330000Y-188865000D01*
X139330000Y-190305000D01*
G37*
X139365000Y-188355000D02*
X137515000Y-188355000D01*
X137515000Y-186915000D01*
X139365000Y-186915000D01*
X139365000Y-188355000D01*
G36*
X139365000Y-188355000D02*
G01*
X137515000Y-188355000D01*
X137515000Y-186915000D01*
X139365000Y-186915000D01*
X139365000Y-188355000D01*
G37*
X139365000Y-192285000D02*
X137515000Y-192285000D01*
X137515000Y-190845000D01*
X139365000Y-190845000D01*
X139365000Y-192285000D01*
G36*
X139365000Y-192285000D02*
G01*
X137515000Y-192285000D01*
X137515000Y-190845000D01*
X139365000Y-190845000D01*
X139365000Y-192285000D01*
G37*
X141610000Y-186340000D02*
X139760000Y-186340000D01*
X139760000Y-184640000D01*
X141610000Y-184640000D01*
X141610000Y-186340000D01*
G36*
X141610000Y-186340000D02*
G01*
X139760000Y-186340000D01*
X139760000Y-184640000D01*
X141610000Y-184640000D01*
X141610000Y-186340000D01*
G37*
X141620000Y-188355000D02*
X139770000Y-188355000D01*
X139770000Y-186915000D01*
X141620000Y-186915000D01*
X141620000Y-188355000D01*
G36*
X141620000Y-188355000D02*
G01*
X139770000Y-188355000D01*
X139770000Y-186915000D01*
X141620000Y-186915000D01*
X141620000Y-188355000D01*
G37*
X141620000Y-190305000D02*
X139770000Y-190305000D01*
X139770000Y-188865000D01*
X141620000Y-188865000D01*
X141620000Y-190305000D01*
G36*
X141620000Y-190305000D02*
G01*
X139770000Y-190305000D01*
X139770000Y-188865000D01*
X141620000Y-188865000D01*
X141620000Y-190305000D01*
G37*
X141620000Y-192285000D02*
X139770000Y-192285000D01*
X139770000Y-190845000D01*
X141620000Y-190845000D01*
X141620000Y-192285000D01*
G36*
X141620000Y-192285000D02*
G01*
X139770000Y-192285000D01*
X139770000Y-190845000D01*
X141620000Y-190845000D01*
X141620000Y-192285000D01*
G37*
%TO.C,U74*%
X199890000Y-157455000D02*
X201740000Y-157455000D01*
X201740000Y-158895000D01*
X199890000Y-158895000D01*
X199890000Y-157455000D01*
G36*
X199890000Y-157455000D02*
G01*
X201740000Y-157455000D01*
X201740000Y-158895000D01*
X199890000Y-158895000D01*
X199890000Y-157455000D01*
G37*
X199890000Y-159435000D02*
X201740000Y-159435000D01*
X201740000Y-160875000D01*
X199890000Y-160875000D01*
X199890000Y-159435000D01*
G36*
X199890000Y-159435000D02*
G01*
X201740000Y-159435000D01*
X201740000Y-160875000D01*
X199890000Y-160875000D01*
X199890000Y-159435000D01*
G37*
X199890000Y-161385000D02*
X201740000Y-161385000D01*
X201740000Y-162825000D01*
X199890000Y-162825000D01*
X199890000Y-161385000D01*
G36*
X199890000Y-161385000D02*
G01*
X201740000Y-161385000D01*
X201740000Y-162825000D01*
X199890000Y-162825000D01*
X199890000Y-161385000D01*
G37*
X199900000Y-163400000D02*
X201750000Y-163400000D01*
X201750000Y-165100000D01*
X199900000Y-165100000D01*
X199900000Y-163400000D01*
G36*
X199900000Y-163400000D02*
G01*
X201750000Y-163400000D01*
X201750000Y-165100000D01*
X199900000Y-165100000D01*
X199900000Y-163400000D01*
G37*
X202145000Y-157455000D02*
X203995000Y-157455000D01*
X203995000Y-158895000D01*
X202145000Y-158895000D01*
X202145000Y-157455000D01*
G36*
X202145000Y-157455000D02*
G01*
X203995000Y-157455000D01*
X203995000Y-158895000D01*
X202145000Y-158895000D01*
X202145000Y-157455000D01*
G37*
X202145000Y-161385000D02*
X203995000Y-161385000D01*
X203995000Y-162825000D01*
X202145000Y-162825000D01*
X202145000Y-161385000D01*
G36*
X202145000Y-161385000D02*
G01*
X203995000Y-161385000D01*
X203995000Y-162825000D01*
X202145000Y-162825000D01*
X202145000Y-161385000D01*
G37*
X202180000Y-159435000D02*
X203960000Y-159435000D01*
X203960000Y-160875000D01*
X202180000Y-160875000D01*
X202180000Y-159435000D01*
G36*
X202180000Y-159435000D02*
G01*
X203960000Y-159435000D01*
X203960000Y-160875000D01*
X202180000Y-160875000D01*
X202180000Y-159435000D01*
G37*
X202180000Y-163390000D02*
X203960000Y-163390000D01*
X203960000Y-165100000D01*
X202180000Y-165100000D01*
X202180000Y-163390000D01*
G36*
X202180000Y-163390000D02*
G01*
X203960000Y-163390000D01*
X203960000Y-165100000D01*
X202180000Y-165100000D01*
X202180000Y-163390000D01*
G37*
X204355000Y-157455000D02*
X206205000Y-157455000D01*
X206205000Y-158895000D01*
X204355000Y-158895000D01*
X204355000Y-157455000D01*
G36*
X204355000Y-157455000D02*
G01*
X206205000Y-157455000D01*
X206205000Y-158895000D01*
X204355000Y-158895000D01*
X204355000Y-157455000D01*
G37*
X204355000Y-161385000D02*
X206205000Y-161385000D01*
X206205000Y-162825000D01*
X204355000Y-162825000D01*
X204355000Y-161385000D01*
G36*
X204355000Y-161385000D02*
G01*
X206205000Y-161385000D01*
X206205000Y-162825000D01*
X204355000Y-162825000D01*
X204355000Y-161385000D01*
G37*
X204380000Y-163370000D02*
X206220000Y-163370000D01*
X206220000Y-165110000D01*
X204380000Y-165110000D01*
X204380000Y-163370000D01*
G36*
X204380000Y-163370000D02*
G01*
X206220000Y-163370000D01*
X206220000Y-165110000D01*
X204380000Y-165110000D01*
X204380000Y-163370000D01*
G37*
X204390000Y-159425000D02*
X206210000Y-159425000D01*
X206210000Y-160865000D01*
X204390000Y-160865000D01*
X204390000Y-159425000D01*
G36*
X204390000Y-159425000D02*
G01*
X206210000Y-159425000D01*
X206210000Y-160865000D01*
X204390000Y-160865000D01*
X204390000Y-159425000D01*
G37*
%TO.C,U54*%
X156830000Y-184715000D02*
X158680000Y-184715000D01*
X158680000Y-186155000D01*
X156830000Y-186155000D01*
X156830000Y-184715000D01*
G36*
X156830000Y-184715000D02*
G01*
X158680000Y-184715000D01*
X158680000Y-186155000D01*
X156830000Y-186155000D01*
X156830000Y-184715000D01*
G37*
X156830000Y-186695000D02*
X158680000Y-186695000D01*
X158680000Y-188135000D01*
X156830000Y-188135000D01*
X156830000Y-186695000D01*
G36*
X156830000Y-186695000D02*
G01*
X158680000Y-186695000D01*
X158680000Y-188135000D01*
X156830000Y-188135000D01*
X156830000Y-186695000D01*
G37*
X156830000Y-188645000D02*
X158680000Y-188645000D01*
X158680000Y-190085000D01*
X156830000Y-190085000D01*
X156830000Y-188645000D01*
G36*
X156830000Y-188645000D02*
G01*
X158680000Y-188645000D01*
X158680000Y-190085000D01*
X156830000Y-190085000D01*
X156830000Y-188645000D01*
G37*
X156840000Y-190660000D02*
X158690000Y-190660000D01*
X158690000Y-192360000D01*
X156840000Y-192360000D01*
X156840000Y-190660000D01*
G36*
X156840000Y-190660000D02*
G01*
X158690000Y-190660000D01*
X158690000Y-192360000D01*
X156840000Y-192360000D01*
X156840000Y-190660000D01*
G37*
X159085000Y-184715000D02*
X160935000Y-184715000D01*
X160935000Y-186155000D01*
X159085000Y-186155000D01*
X159085000Y-184715000D01*
G36*
X159085000Y-184715000D02*
G01*
X160935000Y-184715000D01*
X160935000Y-186155000D01*
X159085000Y-186155000D01*
X159085000Y-184715000D01*
G37*
X159085000Y-188645000D02*
X160935000Y-188645000D01*
X160935000Y-190085000D01*
X159085000Y-190085000D01*
X159085000Y-188645000D01*
G36*
X159085000Y-188645000D02*
G01*
X160935000Y-188645000D01*
X160935000Y-190085000D01*
X159085000Y-190085000D01*
X159085000Y-188645000D01*
G37*
X159120000Y-186695000D02*
X160900000Y-186695000D01*
X160900000Y-188135000D01*
X159120000Y-188135000D01*
X159120000Y-186695000D01*
G36*
X159120000Y-186695000D02*
G01*
X160900000Y-186695000D01*
X160900000Y-188135000D01*
X159120000Y-188135000D01*
X159120000Y-186695000D01*
G37*
X159120000Y-190650000D02*
X160900000Y-190650000D01*
X160900000Y-192360000D01*
X159120000Y-192360000D01*
X159120000Y-190650000D01*
G36*
X159120000Y-190650000D02*
G01*
X160900000Y-190650000D01*
X160900000Y-192360000D01*
X159120000Y-192360000D01*
X159120000Y-190650000D01*
G37*
X161295000Y-184715000D02*
X163145000Y-184715000D01*
X163145000Y-186155000D01*
X161295000Y-186155000D01*
X161295000Y-184715000D01*
G36*
X161295000Y-184715000D02*
G01*
X163145000Y-184715000D01*
X163145000Y-186155000D01*
X161295000Y-186155000D01*
X161295000Y-184715000D01*
G37*
X161295000Y-188645000D02*
X163145000Y-188645000D01*
X163145000Y-190085000D01*
X161295000Y-190085000D01*
X161295000Y-188645000D01*
G36*
X161295000Y-188645000D02*
G01*
X163145000Y-188645000D01*
X163145000Y-190085000D01*
X161295000Y-190085000D01*
X161295000Y-188645000D01*
G37*
X161320000Y-190630000D02*
X163160000Y-190630000D01*
X163160000Y-192370000D01*
X161320000Y-192370000D01*
X161320000Y-190630000D01*
G36*
X161320000Y-190630000D02*
G01*
X163160000Y-190630000D01*
X163160000Y-192370000D01*
X161320000Y-192370000D01*
X161320000Y-190630000D01*
G37*
X161330000Y-186685000D02*
X163150000Y-186685000D01*
X163150000Y-188125000D01*
X161330000Y-188125000D01*
X161330000Y-186685000D01*
G36*
X161330000Y-186685000D02*
G01*
X163150000Y-186685000D01*
X163150000Y-188125000D01*
X161330000Y-188125000D01*
X161330000Y-186685000D01*
G37*
%TO.C,U46*%
X137120000Y-176635000D02*
X135300000Y-176635000D01*
X135300000Y-175195000D01*
X137120000Y-175195000D01*
X137120000Y-176635000D01*
G36*
X137120000Y-176635000D02*
G01*
X135300000Y-176635000D01*
X135300000Y-175195000D01*
X137120000Y-175195000D01*
X137120000Y-176635000D01*
G37*
X137130000Y-172690000D02*
X135290000Y-172690000D01*
X135290000Y-170950000D01*
X137130000Y-170950000D01*
X137130000Y-172690000D01*
G36*
X137130000Y-172690000D02*
G01*
X135290000Y-172690000D01*
X135290000Y-170950000D01*
X137130000Y-170950000D01*
X137130000Y-172690000D01*
G37*
X137155000Y-174675000D02*
X135305000Y-174675000D01*
X135305000Y-173235000D01*
X137155000Y-173235000D01*
X137155000Y-174675000D01*
G36*
X137155000Y-174675000D02*
G01*
X135305000Y-174675000D01*
X135305000Y-173235000D01*
X137155000Y-173235000D01*
X137155000Y-174675000D01*
G37*
X137155000Y-178605000D02*
X135305000Y-178605000D01*
X135305000Y-177165000D01*
X137155000Y-177165000D01*
X137155000Y-178605000D01*
G36*
X137155000Y-178605000D02*
G01*
X135305000Y-178605000D01*
X135305000Y-177165000D01*
X137155000Y-177165000D01*
X137155000Y-178605000D01*
G37*
X139330000Y-172670000D02*
X137550000Y-172670000D01*
X137550000Y-170960000D01*
X139330000Y-170960000D01*
X139330000Y-172670000D01*
G36*
X139330000Y-172670000D02*
G01*
X137550000Y-172670000D01*
X137550000Y-170960000D01*
X139330000Y-170960000D01*
X139330000Y-172670000D01*
G37*
X139330000Y-176625000D02*
X137550000Y-176625000D01*
X137550000Y-175185000D01*
X139330000Y-175185000D01*
X139330000Y-176625000D01*
G36*
X139330000Y-176625000D02*
G01*
X137550000Y-176625000D01*
X137550000Y-175185000D01*
X139330000Y-175185000D01*
X139330000Y-176625000D01*
G37*
X139365000Y-174675000D02*
X137515000Y-174675000D01*
X137515000Y-173235000D01*
X139365000Y-173235000D01*
X139365000Y-174675000D01*
G36*
X139365000Y-174675000D02*
G01*
X137515000Y-174675000D01*
X137515000Y-173235000D01*
X139365000Y-173235000D01*
X139365000Y-174675000D01*
G37*
X139365000Y-178605000D02*
X137515000Y-178605000D01*
X137515000Y-177165000D01*
X139365000Y-177165000D01*
X139365000Y-178605000D01*
G36*
X139365000Y-178605000D02*
G01*
X137515000Y-178605000D01*
X137515000Y-177165000D01*
X139365000Y-177165000D01*
X139365000Y-178605000D01*
G37*
X141610000Y-172660000D02*
X139760000Y-172660000D01*
X139760000Y-170960000D01*
X141610000Y-170960000D01*
X141610000Y-172660000D01*
G36*
X141610000Y-172660000D02*
G01*
X139760000Y-172660000D01*
X139760000Y-170960000D01*
X141610000Y-170960000D01*
X141610000Y-172660000D01*
G37*
X141620000Y-174675000D02*
X139770000Y-174675000D01*
X139770000Y-173235000D01*
X141620000Y-173235000D01*
X141620000Y-174675000D01*
G36*
X141620000Y-174675000D02*
G01*
X139770000Y-174675000D01*
X139770000Y-173235000D01*
X141620000Y-173235000D01*
X141620000Y-174675000D01*
G37*
X141620000Y-176625000D02*
X139770000Y-176625000D01*
X139770000Y-175185000D01*
X141620000Y-175185000D01*
X141620000Y-176625000D01*
G36*
X141620000Y-176625000D02*
G01*
X139770000Y-176625000D01*
X139770000Y-175185000D01*
X141620000Y-175185000D01*
X141620000Y-176625000D01*
G37*
X141620000Y-178605000D02*
X139770000Y-178605000D01*
X139770000Y-177165000D01*
X141620000Y-177165000D01*
X141620000Y-178605000D01*
G36*
X141620000Y-178605000D02*
G01*
X139770000Y-178605000D01*
X139770000Y-177165000D01*
X141620000Y-177165000D01*
X141620000Y-178605000D01*
G37*
%TO.C,U45*%
X137120000Y-162945000D02*
X135300000Y-162945000D01*
X135300000Y-161505000D01*
X137120000Y-161505000D01*
X137120000Y-162945000D01*
G36*
X137120000Y-162945000D02*
G01*
X135300000Y-162945000D01*
X135300000Y-161505000D01*
X137120000Y-161505000D01*
X137120000Y-162945000D01*
G37*
X137130000Y-159000000D02*
X135290000Y-159000000D01*
X135290000Y-157260000D01*
X137130000Y-157260000D01*
X137130000Y-159000000D01*
G36*
X137130000Y-159000000D02*
G01*
X135290000Y-159000000D01*
X135290000Y-157260000D01*
X137130000Y-157260000D01*
X137130000Y-159000000D01*
G37*
X137155000Y-160985000D02*
X135305000Y-160985000D01*
X135305000Y-159545000D01*
X137155000Y-159545000D01*
X137155000Y-160985000D01*
G36*
X137155000Y-160985000D02*
G01*
X135305000Y-160985000D01*
X135305000Y-159545000D01*
X137155000Y-159545000D01*
X137155000Y-160985000D01*
G37*
X137155000Y-164915000D02*
X135305000Y-164915000D01*
X135305000Y-163475000D01*
X137155000Y-163475000D01*
X137155000Y-164915000D01*
G36*
X137155000Y-164915000D02*
G01*
X135305000Y-164915000D01*
X135305000Y-163475000D01*
X137155000Y-163475000D01*
X137155000Y-164915000D01*
G37*
X139330000Y-158980000D02*
X137550000Y-158980000D01*
X137550000Y-157270000D01*
X139330000Y-157270000D01*
X139330000Y-158980000D01*
G36*
X139330000Y-158980000D02*
G01*
X137550000Y-158980000D01*
X137550000Y-157270000D01*
X139330000Y-157270000D01*
X139330000Y-158980000D01*
G37*
X139330000Y-162935000D02*
X137550000Y-162935000D01*
X137550000Y-161495000D01*
X139330000Y-161495000D01*
X139330000Y-162935000D01*
G36*
X139330000Y-162935000D02*
G01*
X137550000Y-162935000D01*
X137550000Y-161495000D01*
X139330000Y-161495000D01*
X139330000Y-162935000D01*
G37*
X139365000Y-160985000D02*
X137515000Y-160985000D01*
X137515000Y-159545000D01*
X139365000Y-159545000D01*
X139365000Y-160985000D01*
G36*
X139365000Y-160985000D02*
G01*
X137515000Y-160985000D01*
X137515000Y-159545000D01*
X139365000Y-159545000D01*
X139365000Y-160985000D01*
G37*
X139365000Y-164915000D02*
X137515000Y-164915000D01*
X137515000Y-163475000D01*
X139365000Y-163475000D01*
X139365000Y-164915000D01*
G36*
X139365000Y-164915000D02*
G01*
X137515000Y-164915000D01*
X137515000Y-163475000D01*
X139365000Y-163475000D01*
X139365000Y-164915000D01*
G37*
X141610000Y-158970000D02*
X139760000Y-158970000D01*
X139760000Y-157270000D01*
X141610000Y-157270000D01*
X141610000Y-158970000D01*
G36*
X141610000Y-158970000D02*
G01*
X139760000Y-158970000D01*
X139760000Y-157270000D01*
X141610000Y-157270000D01*
X141610000Y-158970000D01*
G37*
X141620000Y-160985000D02*
X139770000Y-160985000D01*
X139770000Y-159545000D01*
X141620000Y-159545000D01*
X141620000Y-160985000D01*
G36*
X141620000Y-160985000D02*
G01*
X139770000Y-160985000D01*
X139770000Y-159545000D01*
X141620000Y-159545000D01*
X141620000Y-160985000D01*
G37*
X141620000Y-162935000D02*
X139770000Y-162935000D01*
X139770000Y-161495000D01*
X141620000Y-161495000D01*
X141620000Y-162935000D01*
G36*
X141620000Y-162935000D02*
G01*
X139770000Y-162935000D01*
X139770000Y-161495000D01*
X141620000Y-161495000D01*
X141620000Y-162935000D01*
G37*
X141620000Y-164915000D02*
X139770000Y-164915000D01*
X139770000Y-163475000D01*
X141620000Y-163475000D01*
X141620000Y-164915000D01*
G36*
X141620000Y-164915000D02*
G01*
X139770000Y-164915000D01*
X139770000Y-163475000D01*
X141620000Y-163475000D01*
X141620000Y-164915000D01*
G37*
%TO.C,U72*%
X199890000Y-184825000D02*
X201740000Y-184825000D01*
X201740000Y-186265000D01*
X199890000Y-186265000D01*
X199890000Y-184825000D01*
G36*
X199890000Y-184825000D02*
G01*
X201740000Y-184825000D01*
X201740000Y-186265000D01*
X199890000Y-186265000D01*
X199890000Y-184825000D01*
G37*
X199890000Y-186805000D02*
X201740000Y-186805000D01*
X201740000Y-188245000D01*
X199890000Y-188245000D01*
X199890000Y-186805000D01*
G36*
X199890000Y-186805000D02*
G01*
X201740000Y-186805000D01*
X201740000Y-188245000D01*
X199890000Y-188245000D01*
X199890000Y-186805000D01*
G37*
X199890000Y-188755000D02*
X201740000Y-188755000D01*
X201740000Y-190195000D01*
X199890000Y-190195000D01*
X199890000Y-188755000D01*
G36*
X199890000Y-188755000D02*
G01*
X201740000Y-188755000D01*
X201740000Y-190195000D01*
X199890000Y-190195000D01*
X199890000Y-188755000D01*
G37*
X199900000Y-190770000D02*
X201750000Y-190770000D01*
X201750000Y-192470000D01*
X199900000Y-192470000D01*
X199900000Y-190770000D01*
G36*
X199900000Y-190770000D02*
G01*
X201750000Y-190770000D01*
X201750000Y-192470000D01*
X199900000Y-192470000D01*
X199900000Y-190770000D01*
G37*
X202145000Y-184825000D02*
X203995000Y-184825000D01*
X203995000Y-186265000D01*
X202145000Y-186265000D01*
X202145000Y-184825000D01*
G36*
X202145000Y-184825000D02*
G01*
X203995000Y-184825000D01*
X203995000Y-186265000D01*
X202145000Y-186265000D01*
X202145000Y-184825000D01*
G37*
X202145000Y-188755000D02*
X203995000Y-188755000D01*
X203995000Y-190195000D01*
X202145000Y-190195000D01*
X202145000Y-188755000D01*
G36*
X202145000Y-188755000D02*
G01*
X203995000Y-188755000D01*
X203995000Y-190195000D01*
X202145000Y-190195000D01*
X202145000Y-188755000D01*
G37*
X202180000Y-186805000D02*
X203960000Y-186805000D01*
X203960000Y-188245000D01*
X202180000Y-188245000D01*
X202180000Y-186805000D01*
G36*
X202180000Y-186805000D02*
G01*
X203960000Y-186805000D01*
X203960000Y-188245000D01*
X202180000Y-188245000D01*
X202180000Y-186805000D01*
G37*
X202180000Y-190760000D02*
X203960000Y-190760000D01*
X203960000Y-192470000D01*
X202180000Y-192470000D01*
X202180000Y-190760000D01*
G36*
X202180000Y-190760000D02*
G01*
X203960000Y-190760000D01*
X203960000Y-192470000D01*
X202180000Y-192470000D01*
X202180000Y-190760000D01*
G37*
X204355000Y-184825000D02*
X206205000Y-184825000D01*
X206205000Y-186265000D01*
X204355000Y-186265000D01*
X204355000Y-184825000D01*
G36*
X204355000Y-184825000D02*
G01*
X206205000Y-184825000D01*
X206205000Y-186265000D01*
X204355000Y-186265000D01*
X204355000Y-184825000D01*
G37*
X204355000Y-188755000D02*
X206205000Y-188755000D01*
X206205000Y-190195000D01*
X204355000Y-190195000D01*
X204355000Y-188755000D01*
G36*
X204355000Y-188755000D02*
G01*
X206205000Y-188755000D01*
X206205000Y-190195000D01*
X204355000Y-190195000D01*
X204355000Y-188755000D01*
G37*
X204380000Y-190740000D02*
X206220000Y-190740000D01*
X206220000Y-192480000D01*
X204380000Y-192480000D01*
X204380000Y-190740000D01*
G36*
X204380000Y-190740000D02*
G01*
X206220000Y-190740000D01*
X206220000Y-192480000D01*
X204380000Y-192480000D01*
X204380000Y-190740000D01*
G37*
X204390000Y-186795000D02*
X206210000Y-186795000D01*
X206210000Y-188235000D01*
X204390000Y-188235000D01*
X204390000Y-186795000D01*
G36*
X204390000Y-186795000D02*
G01*
X206210000Y-186795000D01*
X206210000Y-188235000D01*
X204390000Y-188235000D01*
X204390000Y-186795000D01*
G37*
%TO.C,U63*%
X180160000Y-162975000D02*
X178340000Y-162975000D01*
X178340000Y-161535000D01*
X180160000Y-161535000D01*
X180160000Y-162975000D01*
G36*
X180160000Y-162975000D02*
G01*
X178340000Y-162975000D01*
X178340000Y-161535000D01*
X180160000Y-161535000D01*
X180160000Y-162975000D01*
G37*
X180170000Y-159030000D02*
X178330000Y-159030000D01*
X178330000Y-157290000D01*
X180170000Y-157290000D01*
X180170000Y-159030000D01*
G36*
X180170000Y-159030000D02*
G01*
X178330000Y-159030000D01*
X178330000Y-157290000D01*
X180170000Y-157290000D01*
X180170000Y-159030000D01*
G37*
X180195000Y-161015000D02*
X178345000Y-161015000D01*
X178345000Y-159575000D01*
X180195000Y-159575000D01*
X180195000Y-161015000D01*
G36*
X180195000Y-161015000D02*
G01*
X178345000Y-161015000D01*
X178345000Y-159575000D01*
X180195000Y-159575000D01*
X180195000Y-161015000D01*
G37*
X180195000Y-164945000D02*
X178345000Y-164945000D01*
X178345000Y-163505000D01*
X180195000Y-163505000D01*
X180195000Y-164945000D01*
G36*
X180195000Y-164945000D02*
G01*
X178345000Y-164945000D01*
X178345000Y-163505000D01*
X180195000Y-163505000D01*
X180195000Y-164945000D01*
G37*
X182370000Y-159010000D02*
X180590000Y-159010000D01*
X180590000Y-157300000D01*
X182370000Y-157300000D01*
X182370000Y-159010000D01*
G36*
X182370000Y-159010000D02*
G01*
X180590000Y-159010000D01*
X180590000Y-157300000D01*
X182370000Y-157300000D01*
X182370000Y-159010000D01*
G37*
X182370000Y-162965000D02*
X180590000Y-162965000D01*
X180590000Y-161525000D01*
X182370000Y-161525000D01*
X182370000Y-162965000D01*
G36*
X182370000Y-162965000D02*
G01*
X180590000Y-162965000D01*
X180590000Y-161525000D01*
X182370000Y-161525000D01*
X182370000Y-162965000D01*
G37*
X182405000Y-161015000D02*
X180555000Y-161015000D01*
X180555000Y-159575000D01*
X182405000Y-159575000D01*
X182405000Y-161015000D01*
G36*
X182405000Y-161015000D02*
G01*
X180555000Y-161015000D01*
X180555000Y-159575000D01*
X182405000Y-159575000D01*
X182405000Y-161015000D01*
G37*
X182405000Y-164945000D02*
X180555000Y-164945000D01*
X180555000Y-163505000D01*
X182405000Y-163505000D01*
X182405000Y-164945000D01*
G36*
X182405000Y-164945000D02*
G01*
X180555000Y-164945000D01*
X180555000Y-163505000D01*
X182405000Y-163505000D01*
X182405000Y-164945000D01*
G37*
X184650000Y-159000000D02*
X182800000Y-159000000D01*
X182800000Y-157300000D01*
X184650000Y-157300000D01*
X184650000Y-159000000D01*
G36*
X184650000Y-159000000D02*
G01*
X182800000Y-159000000D01*
X182800000Y-157300000D01*
X184650000Y-157300000D01*
X184650000Y-159000000D01*
G37*
X184660000Y-161015000D02*
X182810000Y-161015000D01*
X182810000Y-159575000D01*
X184660000Y-159575000D01*
X184660000Y-161015000D01*
G36*
X184660000Y-161015000D02*
G01*
X182810000Y-161015000D01*
X182810000Y-159575000D01*
X184660000Y-159575000D01*
X184660000Y-161015000D01*
G37*
X184660000Y-162965000D02*
X182810000Y-162965000D01*
X182810000Y-161525000D01*
X184660000Y-161525000D01*
X184660000Y-162965000D01*
G36*
X184660000Y-162965000D02*
G01*
X182810000Y-162965000D01*
X182810000Y-161525000D01*
X184660000Y-161525000D01*
X184660000Y-162965000D01*
G37*
X184660000Y-164945000D02*
X182810000Y-164945000D01*
X182810000Y-163505000D01*
X184660000Y-163505000D01*
X184660000Y-164945000D01*
G36*
X184660000Y-164945000D02*
G01*
X182810000Y-164945000D01*
X182810000Y-163505000D01*
X184660000Y-163505000D01*
X184660000Y-164945000D01*
G37*
%TO.C,U64*%
X180160000Y-176655000D02*
X178340000Y-176655000D01*
X178340000Y-175215000D01*
X180160000Y-175215000D01*
X180160000Y-176655000D01*
G36*
X180160000Y-176655000D02*
G01*
X178340000Y-176655000D01*
X178340000Y-175215000D01*
X180160000Y-175215000D01*
X180160000Y-176655000D01*
G37*
X180170000Y-172710000D02*
X178330000Y-172710000D01*
X178330000Y-170970000D01*
X180170000Y-170970000D01*
X180170000Y-172710000D01*
G36*
X180170000Y-172710000D02*
G01*
X178330000Y-172710000D01*
X178330000Y-170970000D01*
X180170000Y-170970000D01*
X180170000Y-172710000D01*
G37*
X180195000Y-174695000D02*
X178345000Y-174695000D01*
X178345000Y-173255000D01*
X180195000Y-173255000D01*
X180195000Y-174695000D01*
G36*
X180195000Y-174695000D02*
G01*
X178345000Y-174695000D01*
X178345000Y-173255000D01*
X180195000Y-173255000D01*
X180195000Y-174695000D01*
G37*
X180195000Y-178625000D02*
X178345000Y-178625000D01*
X178345000Y-177185000D01*
X180195000Y-177185000D01*
X180195000Y-178625000D01*
G36*
X180195000Y-178625000D02*
G01*
X178345000Y-178625000D01*
X178345000Y-177185000D01*
X180195000Y-177185000D01*
X180195000Y-178625000D01*
G37*
X182370000Y-172690000D02*
X180590000Y-172690000D01*
X180590000Y-170980000D01*
X182370000Y-170980000D01*
X182370000Y-172690000D01*
G36*
X182370000Y-172690000D02*
G01*
X180590000Y-172690000D01*
X180590000Y-170980000D01*
X182370000Y-170980000D01*
X182370000Y-172690000D01*
G37*
X182370000Y-176645000D02*
X180590000Y-176645000D01*
X180590000Y-175205000D01*
X182370000Y-175205000D01*
X182370000Y-176645000D01*
G36*
X182370000Y-176645000D02*
G01*
X180590000Y-176645000D01*
X180590000Y-175205000D01*
X182370000Y-175205000D01*
X182370000Y-176645000D01*
G37*
X182405000Y-174695000D02*
X180555000Y-174695000D01*
X180555000Y-173255000D01*
X182405000Y-173255000D01*
X182405000Y-174695000D01*
G36*
X182405000Y-174695000D02*
G01*
X180555000Y-174695000D01*
X180555000Y-173255000D01*
X182405000Y-173255000D01*
X182405000Y-174695000D01*
G37*
X182405000Y-178625000D02*
X180555000Y-178625000D01*
X180555000Y-177185000D01*
X182405000Y-177185000D01*
X182405000Y-178625000D01*
G36*
X182405000Y-178625000D02*
G01*
X180555000Y-178625000D01*
X180555000Y-177185000D01*
X182405000Y-177185000D01*
X182405000Y-178625000D01*
G37*
X184650000Y-172680000D02*
X182800000Y-172680000D01*
X182800000Y-170980000D01*
X184650000Y-170980000D01*
X184650000Y-172680000D01*
G36*
X184650000Y-172680000D02*
G01*
X182800000Y-172680000D01*
X182800000Y-170980000D01*
X184650000Y-170980000D01*
X184650000Y-172680000D01*
G37*
X184660000Y-174695000D02*
X182810000Y-174695000D01*
X182810000Y-173255000D01*
X184660000Y-173255000D01*
X184660000Y-174695000D01*
G36*
X184660000Y-174695000D02*
G01*
X182810000Y-174695000D01*
X182810000Y-173255000D01*
X184660000Y-173255000D01*
X184660000Y-174695000D01*
G37*
X184660000Y-176645000D02*
X182810000Y-176645000D01*
X182810000Y-175205000D01*
X184660000Y-175205000D01*
X184660000Y-176645000D01*
G36*
X184660000Y-176645000D02*
G01*
X182810000Y-176645000D01*
X182810000Y-175205000D01*
X184660000Y-175205000D01*
X184660000Y-176645000D01*
G37*
X184660000Y-178625000D02*
X182810000Y-178625000D01*
X182810000Y-177185000D01*
X184660000Y-177185000D01*
X184660000Y-178625000D01*
G36*
X184660000Y-178625000D02*
G01*
X182810000Y-178625000D01*
X182810000Y-177185000D01*
X184660000Y-177185000D01*
X184660000Y-178625000D01*
G37*
%TO.C,U73*%
X199890000Y-171135000D02*
X201740000Y-171135000D01*
X201740000Y-172575000D01*
X199890000Y-172575000D01*
X199890000Y-171135000D01*
G36*
X199890000Y-171135000D02*
G01*
X201740000Y-171135000D01*
X201740000Y-172575000D01*
X199890000Y-172575000D01*
X199890000Y-171135000D01*
G37*
X199890000Y-173115000D02*
X201740000Y-173115000D01*
X201740000Y-174555000D01*
X199890000Y-174555000D01*
X199890000Y-173115000D01*
G36*
X199890000Y-173115000D02*
G01*
X201740000Y-173115000D01*
X201740000Y-174555000D01*
X199890000Y-174555000D01*
X199890000Y-173115000D01*
G37*
X199890000Y-175065000D02*
X201740000Y-175065000D01*
X201740000Y-176505000D01*
X199890000Y-176505000D01*
X199890000Y-175065000D01*
G36*
X199890000Y-175065000D02*
G01*
X201740000Y-175065000D01*
X201740000Y-176505000D01*
X199890000Y-176505000D01*
X199890000Y-175065000D01*
G37*
X199900000Y-177080000D02*
X201750000Y-177080000D01*
X201750000Y-178780000D01*
X199900000Y-178780000D01*
X199900000Y-177080000D01*
G36*
X199900000Y-177080000D02*
G01*
X201750000Y-177080000D01*
X201750000Y-178780000D01*
X199900000Y-178780000D01*
X199900000Y-177080000D01*
G37*
X202145000Y-171135000D02*
X203995000Y-171135000D01*
X203995000Y-172575000D01*
X202145000Y-172575000D01*
X202145000Y-171135000D01*
G36*
X202145000Y-171135000D02*
G01*
X203995000Y-171135000D01*
X203995000Y-172575000D01*
X202145000Y-172575000D01*
X202145000Y-171135000D01*
G37*
X202145000Y-175065000D02*
X203995000Y-175065000D01*
X203995000Y-176505000D01*
X202145000Y-176505000D01*
X202145000Y-175065000D01*
G36*
X202145000Y-175065000D02*
G01*
X203995000Y-175065000D01*
X203995000Y-176505000D01*
X202145000Y-176505000D01*
X202145000Y-175065000D01*
G37*
X202180000Y-173115000D02*
X203960000Y-173115000D01*
X203960000Y-174555000D01*
X202180000Y-174555000D01*
X202180000Y-173115000D01*
G36*
X202180000Y-173115000D02*
G01*
X203960000Y-173115000D01*
X203960000Y-174555000D01*
X202180000Y-174555000D01*
X202180000Y-173115000D01*
G37*
X202180000Y-177070000D02*
X203960000Y-177070000D01*
X203960000Y-178780000D01*
X202180000Y-178780000D01*
X202180000Y-177070000D01*
G36*
X202180000Y-177070000D02*
G01*
X203960000Y-177070000D01*
X203960000Y-178780000D01*
X202180000Y-178780000D01*
X202180000Y-177070000D01*
G37*
X204355000Y-171135000D02*
X206205000Y-171135000D01*
X206205000Y-172575000D01*
X204355000Y-172575000D01*
X204355000Y-171135000D01*
G36*
X204355000Y-171135000D02*
G01*
X206205000Y-171135000D01*
X206205000Y-172575000D01*
X204355000Y-172575000D01*
X204355000Y-171135000D01*
G37*
X204355000Y-175065000D02*
X206205000Y-175065000D01*
X206205000Y-176505000D01*
X204355000Y-176505000D01*
X204355000Y-175065000D01*
G36*
X204355000Y-175065000D02*
G01*
X206205000Y-175065000D01*
X206205000Y-176505000D01*
X204355000Y-176505000D01*
X204355000Y-175065000D01*
G37*
X204380000Y-177050000D02*
X206220000Y-177050000D01*
X206220000Y-178790000D01*
X204380000Y-178790000D01*
X204380000Y-177050000D01*
G36*
X204380000Y-177050000D02*
G01*
X206220000Y-177050000D01*
X206220000Y-178790000D01*
X204380000Y-178790000D01*
X204380000Y-177050000D01*
G37*
X204390000Y-173105000D02*
X206210000Y-173105000D01*
X206210000Y-174545000D01*
X204390000Y-174545000D01*
X204390000Y-173105000D01*
G36*
X204390000Y-173105000D02*
G01*
X206210000Y-173105000D01*
X206210000Y-174545000D01*
X204390000Y-174545000D01*
X204390000Y-173105000D01*
G37*
D23*
%TO.C,Q2*%
G36*
X156194998Y-111430000D02*
G01*
X155784999Y-111430000D01*
X155784999Y-111205000D01*
X156194998Y-111205000D01*
X156194998Y-111430000D01*
G37*
G36*
X157465001Y-111430000D02*
G01*
X157055002Y-111430000D01*
X157055002Y-111205000D01*
X157465001Y-111205000D01*
X157465001Y-111430000D01*
G37*
G36*
X158734996Y-111430000D02*
G01*
X158324997Y-111430000D01*
X158324997Y-111205000D01*
X158734996Y-111205000D01*
X158734996Y-111430000D01*
G37*
G36*
X160004998Y-111430000D02*
G01*
X159594999Y-111430000D01*
X159594999Y-111205000D01*
X160004998Y-111205000D01*
X160004998Y-111430000D01*
G37*
G36*
X160087985Y-111391001D02*
G01*
X160097777Y-111393973D01*
X160106802Y-111398797D01*
X160114711Y-111405289D01*
X160121203Y-111413198D01*
X160126027Y-111422223D01*
X160128999Y-111432015D01*
X160129999Y-111442200D01*
X160129999Y-114817799D01*
X160128999Y-114827984D01*
X160126027Y-114837776D01*
X160121203Y-114846801D01*
X160114711Y-114854710D01*
X160106802Y-114861203D01*
X160097777Y-114866026D01*
X160087985Y-114868998D01*
X160077800Y-114869999D01*
X155712200Y-114869999D01*
X155702015Y-114868998D01*
X155692223Y-114866026D01*
X155683198Y-114861203D01*
X155675289Y-114854710D01*
X155668797Y-114846801D01*
X155663973Y-114837776D01*
X155661001Y-114827984D01*
X155660001Y-114817799D01*
X155660001Y-111442200D01*
X155661001Y-111432015D01*
X155663973Y-111422223D01*
X155668797Y-111413198D01*
X155675289Y-111405289D01*
X155683198Y-111398797D01*
X155692223Y-111393973D01*
X155702015Y-111391001D01*
X155712200Y-111389998D01*
X160077800Y-111389998D01*
X160087985Y-111391001D01*
G37*
%TO.C,U56*%
D15*
X156850000Y-157365000D02*
X158700000Y-157365000D01*
X158700000Y-158805000D01*
X156850000Y-158805000D01*
X156850000Y-157365000D01*
G36*
X156850000Y-157365000D02*
G01*
X158700000Y-157365000D01*
X158700000Y-158805000D01*
X156850000Y-158805000D01*
X156850000Y-157365000D01*
G37*
X156850000Y-159345000D02*
X158700000Y-159345000D01*
X158700000Y-160785000D01*
X156850000Y-160785000D01*
X156850000Y-159345000D01*
G36*
X156850000Y-159345000D02*
G01*
X158700000Y-159345000D01*
X158700000Y-160785000D01*
X156850000Y-160785000D01*
X156850000Y-159345000D01*
G37*
X156850000Y-161295000D02*
X158700000Y-161295000D01*
X158700000Y-162735000D01*
X156850000Y-162735000D01*
X156850000Y-161295000D01*
G36*
X156850000Y-161295000D02*
G01*
X158700000Y-161295000D01*
X158700000Y-162735000D01*
X156850000Y-162735000D01*
X156850000Y-161295000D01*
G37*
X156860000Y-163310000D02*
X158710000Y-163310000D01*
X158710000Y-165010000D01*
X156860000Y-165010000D01*
X156860000Y-163310000D01*
G36*
X156860000Y-163310000D02*
G01*
X158710000Y-163310000D01*
X158710000Y-165010000D01*
X156860000Y-165010000D01*
X156860000Y-163310000D01*
G37*
X159105000Y-157365000D02*
X160955000Y-157365000D01*
X160955000Y-158805000D01*
X159105000Y-158805000D01*
X159105000Y-157365000D01*
G36*
X159105000Y-157365000D02*
G01*
X160955000Y-157365000D01*
X160955000Y-158805000D01*
X159105000Y-158805000D01*
X159105000Y-157365000D01*
G37*
X159105000Y-161295000D02*
X160955000Y-161295000D01*
X160955000Y-162735000D01*
X159105000Y-162735000D01*
X159105000Y-161295000D01*
G36*
X159105000Y-161295000D02*
G01*
X160955000Y-161295000D01*
X160955000Y-162735000D01*
X159105000Y-162735000D01*
X159105000Y-161295000D01*
G37*
X159140000Y-159345000D02*
X160920000Y-159345000D01*
X160920000Y-160785000D01*
X159140000Y-160785000D01*
X159140000Y-159345000D01*
G36*
X159140000Y-159345000D02*
G01*
X160920000Y-159345000D01*
X160920000Y-160785000D01*
X159140000Y-160785000D01*
X159140000Y-159345000D01*
G37*
X159140000Y-163300000D02*
X160920000Y-163300000D01*
X160920000Y-165010000D01*
X159140000Y-165010000D01*
X159140000Y-163300000D01*
G36*
X159140000Y-163300000D02*
G01*
X160920000Y-163300000D01*
X160920000Y-165010000D01*
X159140000Y-165010000D01*
X159140000Y-163300000D01*
G37*
X161315000Y-157365000D02*
X163165000Y-157365000D01*
X163165000Y-158805000D01*
X161315000Y-158805000D01*
X161315000Y-157365000D01*
G36*
X161315000Y-157365000D02*
G01*
X163165000Y-157365000D01*
X163165000Y-158805000D01*
X161315000Y-158805000D01*
X161315000Y-157365000D01*
G37*
X161315000Y-161295000D02*
X163165000Y-161295000D01*
X163165000Y-162735000D01*
X161315000Y-162735000D01*
X161315000Y-161295000D01*
G36*
X161315000Y-161295000D02*
G01*
X163165000Y-161295000D01*
X163165000Y-162735000D01*
X161315000Y-162735000D01*
X161315000Y-161295000D01*
G37*
X161340000Y-163280000D02*
X163180000Y-163280000D01*
X163180000Y-165020000D01*
X161340000Y-165020000D01*
X161340000Y-163280000D01*
G36*
X161340000Y-163280000D02*
G01*
X163180000Y-163280000D01*
X163180000Y-165020000D01*
X161340000Y-165020000D01*
X161340000Y-163280000D01*
G37*
X161350000Y-159335000D02*
X163170000Y-159335000D01*
X163170000Y-160775000D01*
X161350000Y-160775000D01*
X161350000Y-159335000D01*
G36*
X161350000Y-159335000D02*
G01*
X163170000Y-159335000D01*
X163170000Y-160775000D01*
X161350000Y-160775000D01*
X161350000Y-159335000D01*
G37*
D23*
%TO.C,Q3*%
G36*
X205364998Y-105115001D02*
G01*
X205139998Y-105115001D01*
X205139998Y-104705002D01*
X205364998Y-104705002D01*
X205364998Y-105115001D01*
G37*
G36*
X205364998Y-106385003D02*
G01*
X205139998Y-106385003D01*
X205139998Y-105975004D01*
X205364998Y-105975004D01*
X205364998Y-106385003D01*
G37*
G36*
X205364998Y-107654998D02*
G01*
X205139998Y-107654998D01*
X205139998Y-107244999D01*
X205364998Y-107244999D01*
X205364998Y-107654998D01*
G37*
G36*
X205364998Y-108925001D02*
G01*
X205139998Y-108925001D01*
X205139998Y-108515002D01*
X205364998Y-108515002D01*
X205364998Y-108925001D01*
G37*
G36*
X208762982Y-104581001D02*
G01*
X208772774Y-104583973D01*
X208781799Y-104588797D01*
X208789708Y-104595289D01*
X208796201Y-104603198D01*
X208801024Y-104612223D01*
X208803996Y-104622015D01*
X208804997Y-104632200D01*
X208804997Y-108997800D01*
X208803996Y-109007985D01*
X208801024Y-109017777D01*
X208796201Y-109026802D01*
X208789708Y-109034711D01*
X208781799Y-109041203D01*
X208772774Y-109046027D01*
X208762982Y-109048999D01*
X208752797Y-109049999D01*
X205377198Y-109049999D01*
X205367013Y-109048999D01*
X205357221Y-109046027D01*
X205348196Y-109041203D01*
X205340287Y-109034711D01*
X205333795Y-109026802D01*
X205328971Y-109017777D01*
X205325999Y-109007985D01*
X205324996Y-108997800D01*
X205324996Y-104632200D01*
X205325999Y-104622015D01*
X205328971Y-104612223D01*
X205333795Y-104603198D01*
X205340287Y-104595289D01*
X205348196Y-104588797D01*
X205357221Y-104583973D01*
X205367013Y-104581001D01*
X205377198Y-104580001D01*
X208752797Y-104580001D01*
X208762982Y-104581001D01*
G37*
%TO.C,Q1*%
G36*
X160273948Y-105173947D02*
G01*
X160048948Y-105173947D01*
X160048948Y-104763948D01*
X160273948Y-104763948D01*
X160273948Y-105173947D01*
G37*
G36*
X160273948Y-106443950D02*
G01*
X160048948Y-106443950D01*
X160048948Y-106033951D01*
X160273948Y-106033951D01*
X160273948Y-106443950D01*
G37*
G36*
X160273948Y-107713945D02*
G01*
X160048948Y-107713945D01*
X160048948Y-107303946D01*
X160273948Y-107303946D01*
X160273948Y-107713945D01*
G37*
G36*
X160273948Y-108983947D02*
G01*
X160048948Y-108983947D01*
X160048948Y-108573948D01*
X160273948Y-108573948D01*
X160273948Y-108983947D01*
G37*
G36*
X160046933Y-104639950D02*
G01*
X160056725Y-104642922D01*
X160065750Y-104647746D01*
X160073659Y-104654238D01*
X160080151Y-104662147D01*
X160084975Y-104671172D01*
X160087947Y-104680964D01*
X160088950Y-104691149D01*
X160088950Y-109056749D01*
X160087947Y-109066934D01*
X160084975Y-109076726D01*
X160080151Y-109085751D01*
X160073659Y-109093660D01*
X160065750Y-109100152D01*
X160056725Y-109104976D01*
X160046933Y-109107948D01*
X160036748Y-109108948D01*
X156661149Y-109108948D01*
X156650964Y-109107948D01*
X156641172Y-109104976D01*
X156632147Y-109100152D01*
X156624238Y-109093660D01*
X156617745Y-109085751D01*
X156612922Y-109076726D01*
X156609950Y-109066934D01*
X156608949Y-109056749D01*
X156608949Y-104691149D01*
X156609950Y-104680964D01*
X156612922Y-104671172D01*
X156617745Y-104662147D01*
X156624238Y-104654238D01*
X156632147Y-104647746D01*
X156641172Y-104642922D01*
X156650964Y-104639950D01*
X156661149Y-104638950D01*
X160036748Y-104638950D01*
X160046933Y-104639950D01*
G37*
%TD*%
D24*
%TO.C,Y1*%
X222170807Y-105335000D03*
X222170807Y-103035000D03*
X220370807Y-103035000D03*
X220370807Y-105335000D03*
%TD*%
D25*
%TO.C,U10*%
X236198700Y-91180000D03*
X233898700Y-91180000D03*
X231598700Y-91180000D03*
D26*
X233898700Y-96980000D03*
%TD*%
D27*
%TO.C,Q5*%
X166729500Y-94842000D03*
D28*
X164825000Y-91350000D03*
X168635000Y-91350000D03*
X167365000Y-91350000D03*
X166095000Y-91350000D03*
%TD*%
D29*
%TO.C,U55*%
X164090000Y-178355000D03*
X164090000Y-177715000D03*
X164090000Y-177075000D03*
X164090000Y-176435000D03*
X164090000Y-175795000D03*
X164090000Y-175155000D03*
X164090000Y-174515000D03*
X164090000Y-173875000D03*
X164090000Y-173235000D03*
X164090000Y-172595000D03*
X164090000Y-171955000D03*
X164090000Y-171315000D03*
X155950000Y-171315000D03*
X155950000Y-171955000D03*
X155950000Y-172595000D03*
X155950000Y-173235000D03*
X155950000Y-173875000D03*
X155950000Y-174515000D03*
X155950000Y-175155000D03*
X155950000Y-175795000D03*
X155950000Y-176435000D03*
X155950000Y-177075000D03*
X155950000Y-177715000D03*
X155950000Y-178355000D03*
D30*
X162235712Y-174725000D03*
X162230000Y-172755000D03*
X161130000Y-171735000D03*
X161122856Y-174725000D03*
X161117144Y-172755000D03*
X161100000Y-175765000D03*
X161100000Y-173805000D03*
X159945712Y-174725000D03*
X159940000Y-172755000D03*
X158900000Y-172775000D03*
X158890000Y-171745000D03*
X158880000Y-175765000D03*
X158880000Y-173825000D03*
X158878572Y-174725000D03*
X157685712Y-174725000D03*
X157680000Y-172755000D03*
%TD*%
D31*
%TO.C,C16*%
X162250000Y-134854800D03*
X162250000Y-128200000D03*
%TD*%
D32*
%TO.C,U4*%
X231450000Y-145495000D03*
X232100000Y-145495000D03*
X232750000Y-145495000D03*
X233400000Y-145495000D03*
X234050000Y-145495000D03*
X234700000Y-145495000D03*
X235350000Y-145495000D03*
X236000000Y-145495000D03*
X236000000Y-139770000D03*
X235350000Y-139770000D03*
X234700000Y-139770000D03*
X234050000Y-139770000D03*
X233400000Y-139770000D03*
X232750000Y-139770000D03*
X232100000Y-139770000D03*
X231450000Y-139770000D03*
%TD*%
D33*
%TO.C,R6*%
X148280000Y-98045000D03*
X148280000Y-96395000D03*
%TD*%
D34*
%TO.C,C11*%
X144790000Y-90030000D03*
X144790000Y-88130000D03*
%TD*%
D35*
%TO.C,C33*%
X224000000Y-145520000D03*
X224000000Y-144560000D03*
%TD*%
D36*
%TO.C,D6*%
X178250000Y-91200000D03*
X173950000Y-91200000D03*
%TD*%
D37*
%TO.C,D1*%
X125937400Y-98480000D03*
X128172600Y-98480000D03*
%TD*%
D38*
%TO.C,R5*%
X134585000Y-98490000D03*
X132935000Y-98490000D03*
%TD*%
D39*
%TO.C,H6*%
X192930000Y-181770000D03*
%TD*%
D40*
%TO.C,R20*%
X214570000Y-100560000D03*
X213550000Y-100560000D03*
%TD*%
D41*
%TO.C,R30*%
X152625000Y-101200000D03*
X154275000Y-101200000D03*
%TD*%
D42*
%TO.C,Q4*%
X204043700Y-116490003D03*
X205313700Y-116490003D03*
X206583700Y-116490003D03*
X207853700Y-116490003D03*
X207853700Y-110900001D03*
X206583700Y-110900001D03*
X205313700Y-110900001D03*
X204043700Y-110900001D03*
%TD*%
D34*
%TO.C,C31*%
X144900000Y-102150000D03*
X144900000Y-100250000D03*
%TD*%
%TO.C,C15*%
X129350000Y-91060000D03*
X129350000Y-89160000D03*
%TD*%
D43*
%TO.C,R27*%
X162145000Y-115140000D03*
X168070000Y-115140000D03*
%TD*%
D44*
%TO.C,C101*%
X226198700Y-91325000D03*
X225238700Y-91325000D03*
%TD*%
D34*
%TO.C,C30*%
X150800000Y-101500000D03*
X150800000Y-99600000D03*
%TD*%
%TO.C,C7*%
X138600000Y-86110000D03*
X138600000Y-84210000D03*
%TD*%
D45*
%TO.C,U65*%
X177400000Y-185005000D03*
X177400000Y-185645000D03*
X177400000Y-186285000D03*
X177400000Y-186925000D03*
X177400000Y-187565000D03*
X177400000Y-188205000D03*
X177400000Y-188845000D03*
X177400000Y-189485000D03*
X177400000Y-190125000D03*
X177400000Y-190765000D03*
X177400000Y-191405000D03*
X177400000Y-192045000D03*
X185540000Y-192045000D03*
X185540000Y-191405000D03*
X185540000Y-190765000D03*
X185540000Y-190125000D03*
X185540000Y-189485000D03*
X185540000Y-188845000D03*
X185540000Y-188205000D03*
X185540000Y-187565000D03*
X185540000Y-186925000D03*
X185540000Y-186285000D03*
X185540000Y-185645000D03*
X185540000Y-185005000D03*
D30*
X179254288Y-188635000D03*
X179260000Y-190605000D03*
X180360000Y-191625000D03*
X180367144Y-188635000D03*
X180372856Y-190605000D03*
X180390000Y-187595000D03*
X180390000Y-189555000D03*
X181544288Y-188635000D03*
X181550000Y-190605000D03*
X182590000Y-190585000D03*
X182600000Y-191615000D03*
X182610000Y-187595000D03*
X182610000Y-189535000D03*
X182611428Y-188635000D03*
X183804288Y-188635000D03*
X183810000Y-190605000D03*
%TD*%
D45*
%TO.C,U47*%
X134360000Y-184975000D03*
X134360000Y-185615000D03*
X134360000Y-186255000D03*
X134360000Y-186895000D03*
X134360000Y-187535000D03*
X134360000Y-188175000D03*
X134360000Y-188815000D03*
X134360000Y-189455000D03*
X134360000Y-190095000D03*
X134360000Y-190735000D03*
X134360000Y-191375000D03*
X134360000Y-192015000D03*
X142500000Y-192015000D03*
X142500000Y-191375000D03*
X142500000Y-190735000D03*
X142500000Y-190095000D03*
X142500000Y-189455000D03*
X142500000Y-188815000D03*
X142500000Y-188175000D03*
X142500000Y-187535000D03*
X142500000Y-186895000D03*
X142500000Y-186255000D03*
X142500000Y-185615000D03*
X142500000Y-184975000D03*
D30*
X136214288Y-188605000D03*
X136220000Y-190575000D03*
X137320000Y-191595000D03*
X137327144Y-188605000D03*
X137332856Y-190575000D03*
X137350000Y-187565000D03*
X137350000Y-189525000D03*
X138504288Y-188605000D03*
X138510000Y-190575000D03*
X139550000Y-190555000D03*
X139560000Y-191585000D03*
X139570000Y-187565000D03*
X139570000Y-189505000D03*
X139571428Y-188605000D03*
X140764288Y-188605000D03*
X140770000Y-190575000D03*
%TD*%
D46*
%TO.C,C9*%
X138180000Y-96430000D03*
X140080000Y-96430000D03*
%TD*%
D47*
%TO.C,R28*%
X201710000Y-113610000D03*
X195785000Y-113610000D03*
%TD*%
D48*
%TO.C,R35*%
X226700000Y-142070000D03*
X227720000Y-142070000D03*
%TD*%
D49*
%TO.C,C5*%
X130600000Y-98130000D03*
X130600000Y-100030000D03*
%TD*%
D39*
%TO.C,H8*%
X170930000Y-181770000D03*
%TD*%
D50*
%TO.C,U27*%
X218683307Y-94397500D03*
X218683307Y-94797500D03*
X218683307Y-95197500D03*
X218683307Y-95597500D03*
X218683307Y-95997500D03*
X218683307Y-96397500D03*
X218683307Y-96797500D03*
X218683307Y-97197500D03*
X218683307Y-97597500D03*
X218683307Y-97997500D03*
X218683307Y-98397500D03*
X218683307Y-98797500D03*
X218683307Y-99197500D03*
X218683307Y-99597500D03*
D51*
X219520807Y-100435000D03*
X219920807Y-100435000D03*
X220320807Y-100435000D03*
X220720807Y-100435000D03*
X221120807Y-100435000D03*
X221520807Y-100435000D03*
X221920807Y-100435000D03*
X222320807Y-100435000D03*
X222720807Y-100435000D03*
X223120807Y-100435000D03*
X223520807Y-100435000D03*
X223920807Y-100435000D03*
X224320807Y-100435000D03*
X224720807Y-100435000D03*
D50*
X225558307Y-99597500D03*
X225558307Y-99197500D03*
X225558307Y-98797500D03*
X225558307Y-98397500D03*
X225558307Y-97997500D03*
X225558307Y-97597500D03*
X225558307Y-97197500D03*
X225558307Y-96797500D03*
X225558307Y-96397500D03*
X225558307Y-95997500D03*
X225558307Y-95597500D03*
X225558307Y-95197500D03*
X225558307Y-94797500D03*
X225558307Y-94397500D03*
D51*
X224720807Y-93560000D03*
X224320807Y-93560000D03*
X223920807Y-93560000D03*
X223520807Y-93560000D03*
X223120807Y-93560000D03*
X222720807Y-93560000D03*
X222320807Y-93560000D03*
X221920807Y-93560000D03*
X221520807Y-93560000D03*
X221120807Y-93560000D03*
X220720807Y-93560000D03*
X220320807Y-93560000D03*
X219920807Y-93560000D03*
X219520807Y-93560000D03*
D52*
X222120807Y-96997500D03*
%TD*%
D46*
%TO.C,C27*%
X178200000Y-131870000D03*
X180100000Y-131870000D03*
%TD*%
D33*
%TO.C,R9*%
X134440000Y-86195000D03*
X134440000Y-84545000D03*
%TD*%
D44*
%TO.C,C22*%
X232060000Y-137670000D03*
X231100000Y-137670000D03*
%TD*%
D29*
%TO.C,U74*%
X207150000Y-164765000D03*
X207150000Y-164125000D03*
X207150000Y-163485000D03*
X207150000Y-162845000D03*
X207150000Y-162205000D03*
X207150000Y-161565000D03*
X207150000Y-160925000D03*
X207150000Y-160285000D03*
X207150000Y-159645000D03*
X207150000Y-159005000D03*
X207150000Y-158365000D03*
X207150000Y-157725000D03*
X199010000Y-157725000D03*
X199010000Y-158365000D03*
X199010000Y-159005000D03*
X199010000Y-159645000D03*
X199010000Y-160285000D03*
X199010000Y-160925000D03*
X199010000Y-161565000D03*
X199010000Y-162205000D03*
X199010000Y-162845000D03*
X199010000Y-163485000D03*
X199010000Y-164125000D03*
X199010000Y-164765000D03*
D30*
X205295712Y-161135000D03*
X205290000Y-159165000D03*
X204190000Y-158145000D03*
X204182856Y-161135000D03*
X204177144Y-159165000D03*
X204160000Y-162175000D03*
X204160000Y-160215000D03*
X203005712Y-161135000D03*
X203000000Y-159165000D03*
X201960000Y-159185000D03*
X201950000Y-158155000D03*
X201940000Y-162175000D03*
X201940000Y-160235000D03*
X201938572Y-161135000D03*
X200745712Y-161135000D03*
X200740000Y-159165000D03*
%TD*%
D53*
%TO.C,C107*%
X215340807Y-97560000D03*
X216300807Y-97560000D03*
%TD*%
D29*
%TO.C,U54*%
X164090000Y-192025000D03*
X164090000Y-191385000D03*
X164090000Y-190745000D03*
X164090000Y-190105000D03*
X164090000Y-189465000D03*
X164090000Y-188825000D03*
X164090000Y-188185000D03*
X164090000Y-187545000D03*
X164090000Y-186905000D03*
X164090000Y-186265000D03*
X164090000Y-185625000D03*
X164090000Y-184985000D03*
X155950000Y-184985000D03*
X155950000Y-185625000D03*
X155950000Y-186265000D03*
X155950000Y-186905000D03*
X155950000Y-187545000D03*
X155950000Y-188185000D03*
X155950000Y-188825000D03*
X155950000Y-189465000D03*
X155950000Y-190105000D03*
X155950000Y-190745000D03*
X155950000Y-191385000D03*
X155950000Y-192025000D03*
D30*
X162235712Y-188395000D03*
X162230000Y-186425000D03*
X161130000Y-185405000D03*
X161122856Y-188395000D03*
X161117144Y-186425000D03*
X161100000Y-189435000D03*
X161100000Y-187475000D03*
X159945712Y-188395000D03*
X159940000Y-186425000D03*
X158900000Y-186445000D03*
X158890000Y-185415000D03*
X158880000Y-189435000D03*
X158880000Y-187495000D03*
X158878572Y-188395000D03*
X157685712Y-188395000D03*
X157680000Y-186425000D03*
%TD*%
D41*
%TO.C,R23*%
X141835000Y-96410000D03*
X143485000Y-96410000D03*
%TD*%
D45*
%TO.C,U46*%
X134360000Y-171295000D03*
X134360000Y-171935000D03*
X134360000Y-172575000D03*
X134360000Y-173215000D03*
X134360000Y-173855000D03*
X134360000Y-174495000D03*
X134360000Y-175135000D03*
X134360000Y-175775000D03*
X134360000Y-176415000D03*
X134360000Y-177055000D03*
X134360000Y-177695000D03*
X134360000Y-178335000D03*
X142500000Y-178335000D03*
X142500000Y-177695000D03*
X142500000Y-177055000D03*
X142500000Y-176415000D03*
X142500000Y-175775000D03*
X142500000Y-175135000D03*
X142500000Y-174495000D03*
X142500000Y-173855000D03*
X142500000Y-173215000D03*
X142500000Y-172575000D03*
X142500000Y-171935000D03*
X142500000Y-171295000D03*
D30*
X136214288Y-174925000D03*
X136220000Y-176895000D03*
X137320000Y-177915000D03*
X137327144Y-174925000D03*
X137332856Y-176895000D03*
X137350000Y-173885000D03*
X137350000Y-175845000D03*
X138504288Y-174925000D03*
X138510000Y-176895000D03*
X139550000Y-176875000D03*
X139560000Y-177905000D03*
X139570000Y-173885000D03*
X139570000Y-175825000D03*
X139571428Y-174925000D03*
X140764288Y-174925000D03*
X140770000Y-176895000D03*
%TD*%
D54*
%TO.C,J4*%
X138460000Y-181660000D03*
%TD*%
%TO.C,J3*%
X138460000Y-167970000D03*
%TD*%
D31*
%TO.C,C17*%
X171300000Y-134877400D03*
X171300000Y-128222600D03*
%TD*%
D55*
%TO.C,J18*%
X134680000Y-152320000D03*
%TD*%
D56*
%TO.C,C20*%
X153760000Y-96730000D03*
X151860000Y-96730000D03*
%TD*%
D57*
%TO.C,R52*%
X215808700Y-83920000D03*
X215808700Y-82900000D03*
%TD*%
D58*
%TO.C,SW2*%
X205310000Y-88100000D03*
X205310000Y-83990000D03*
%TD*%
D59*
%TO.C,R53*%
X222550807Y-89760000D03*
X222550807Y-90780000D03*
%TD*%
D60*
%TO.C,U9*%
X234480000Y-83880000D03*
D61*
X233130000Y-83880000D03*
D62*
X232105000Y-83880000D03*
D60*
X230880000Y-83880000D03*
%TD*%
D38*
%TO.C,R4*%
X142455000Y-87920000D03*
X140805000Y-87920000D03*
%TD*%
D35*
%TO.C,C106*%
X226790000Y-103410000D03*
X226790000Y-102450000D03*
%TD*%
D53*
%TO.C,C99*%
X217090000Y-89550000D03*
X218050000Y-89550000D03*
%TD*%
D45*
%TO.C,U45*%
X134360000Y-157605000D03*
X134360000Y-158245000D03*
X134360000Y-158885000D03*
X134360000Y-159525000D03*
X134360000Y-160165000D03*
X134360000Y-160805000D03*
X134360000Y-161445000D03*
X134360000Y-162085000D03*
X134360000Y-162725000D03*
X134360000Y-163365000D03*
X134360000Y-164005000D03*
X134360000Y-164645000D03*
X142500000Y-164645000D03*
X142500000Y-164005000D03*
X142500000Y-163365000D03*
X142500000Y-162725000D03*
X142500000Y-162085000D03*
X142500000Y-161445000D03*
X142500000Y-160805000D03*
X142500000Y-160165000D03*
X142500000Y-159525000D03*
X142500000Y-158885000D03*
X142500000Y-158245000D03*
X142500000Y-157605000D03*
D30*
X136214288Y-161235000D03*
X136220000Y-163205000D03*
X137320000Y-164225000D03*
X137327144Y-161235000D03*
X137332856Y-163205000D03*
X137350000Y-160195000D03*
X137350000Y-162155000D03*
X138504288Y-161235000D03*
X138510000Y-163205000D03*
X139550000Y-163185000D03*
X139560000Y-164215000D03*
X139570000Y-160195000D03*
X139570000Y-162135000D03*
X139571428Y-161235000D03*
X140764288Y-161235000D03*
X140770000Y-163205000D03*
%TD*%
D54*
%TO.C,J11*%
X203050000Y-168080000D03*
%TD*%
D63*
%TO.C,C18*%
X206071100Y-131575000D03*
X199416300Y-131575000D03*
%TD*%
D54*
%TO.C,J10*%
X203050000Y-181770000D03*
%TD*%
D64*
%TO.C,J1*%
X170200000Y-83500000D03*
X162700000Y-83500000D03*
X170200000Y-88500000D03*
X162700000Y-88500000D03*
%TD*%
D59*
%TO.C,R69*%
X237250000Y-144855000D03*
X237250000Y-145875000D03*
%TD*%
D57*
%TO.C,R55*%
X211270000Y-90590000D03*
X211270000Y-89570000D03*
%TD*%
D39*
%TO.C,H5*%
X192930000Y-167770000D03*
%TD*%
D54*
%TO.C,J9*%
X181500000Y-181680000D03*
%TD*%
D65*
%TO.C,U12*%
X223122500Y-88540000D03*
X224522500Y-88540000D03*
%TD*%
D29*
%TO.C,U72*%
X207150000Y-192135000D03*
X207150000Y-191495000D03*
X207150000Y-190855000D03*
X207150000Y-190215000D03*
X207150000Y-189575000D03*
X207150000Y-188935000D03*
X207150000Y-188295000D03*
X207150000Y-187655000D03*
X207150000Y-187015000D03*
X207150000Y-186375000D03*
X207150000Y-185735000D03*
X207150000Y-185095000D03*
X199010000Y-185095000D03*
X199010000Y-185735000D03*
X199010000Y-186375000D03*
X199010000Y-187015000D03*
X199010000Y-187655000D03*
X199010000Y-188295000D03*
X199010000Y-188935000D03*
X199010000Y-189575000D03*
X199010000Y-190215000D03*
X199010000Y-190855000D03*
X199010000Y-191495000D03*
X199010000Y-192135000D03*
D30*
X205295712Y-188505000D03*
X205290000Y-186535000D03*
X204190000Y-185515000D03*
X204182856Y-188505000D03*
X204177144Y-186535000D03*
X204160000Y-189545000D03*
X204160000Y-187585000D03*
X203005712Y-188505000D03*
X203000000Y-186535000D03*
X201960000Y-186555000D03*
X201950000Y-185525000D03*
X201940000Y-189545000D03*
X201940000Y-187605000D03*
X201938572Y-188505000D03*
X200745712Y-188505000D03*
X200740000Y-186535000D03*
%TD*%
D66*
%TO.C,D2*%
X129305000Y-87307600D03*
X129305000Y-85072400D03*
%TD*%
D35*
%TO.C,C24*%
X175135000Y-143405000D03*
X175135000Y-142445000D03*
%TD*%
D67*
%TO.C,L1*%
X150155001Y-127265001D03*
X150155001Y-116835002D03*
D68*
X128080000Y-122050000D03*
%TD*%
D54*
%TO.C,J8*%
X181500000Y-167990000D03*
%TD*%
D53*
%TO.C,C100*%
X219320807Y-90770000D03*
X220280807Y-90770000D03*
%TD*%
D45*
%TO.C,U63*%
X177400000Y-157635000D03*
X177400000Y-158275000D03*
X177400000Y-158915000D03*
X177400000Y-159555000D03*
X177400000Y-160195000D03*
X177400000Y-160835000D03*
X177400000Y-161475000D03*
X177400000Y-162115000D03*
X177400000Y-162755000D03*
X177400000Y-163395000D03*
X177400000Y-164035000D03*
X177400000Y-164675000D03*
X185540000Y-164675000D03*
X185540000Y-164035000D03*
X185540000Y-163395000D03*
X185540000Y-162755000D03*
X185540000Y-162115000D03*
X185540000Y-161475000D03*
X185540000Y-160835000D03*
X185540000Y-160195000D03*
X185540000Y-159555000D03*
X185540000Y-158915000D03*
X185540000Y-158275000D03*
X185540000Y-157635000D03*
D30*
X179254288Y-161265000D03*
X179260000Y-163235000D03*
X180360000Y-164255000D03*
X180367144Y-161265000D03*
X180372856Y-163235000D03*
X180390000Y-160225000D03*
X180390000Y-162185000D03*
X181544288Y-161265000D03*
X181550000Y-163235000D03*
X182590000Y-163215000D03*
X182600000Y-164245000D03*
X182610000Y-160225000D03*
X182610000Y-162165000D03*
X182611428Y-161265000D03*
X183804288Y-161265000D03*
X183810000Y-163235000D03*
%TD*%
D69*
%TO.C,R7*%
X149990000Y-96395000D03*
X149990000Y-98045000D03*
%TD*%
D45*
%TO.C,U64*%
X177400000Y-171315000D03*
X177400000Y-171955000D03*
X177400000Y-172595000D03*
X177400000Y-173235000D03*
X177400000Y-173875000D03*
X177400000Y-174515000D03*
X177400000Y-175155000D03*
X177400000Y-175795000D03*
X177400000Y-176435000D03*
X177400000Y-177075000D03*
X177400000Y-177715000D03*
X177400000Y-178355000D03*
X185540000Y-178355000D03*
X185540000Y-177715000D03*
X185540000Y-177075000D03*
X185540000Y-176435000D03*
X185540000Y-175795000D03*
X185540000Y-175155000D03*
X185540000Y-174515000D03*
X185540000Y-173875000D03*
X185540000Y-173235000D03*
X185540000Y-172595000D03*
X185540000Y-171955000D03*
X185540000Y-171315000D03*
D30*
X179254288Y-174945000D03*
X179260000Y-176915000D03*
X180360000Y-177935000D03*
X180367144Y-174945000D03*
X180372856Y-176915000D03*
X180390000Y-173905000D03*
X180390000Y-175865000D03*
X181544288Y-174945000D03*
X181550000Y-176915000D03*
X182590000Y-176895000D03*
X182600000Y-177925000D03*
X182610000Y-173905000D03*
X182610000Y-175845000D03*
X182611428Y-174945000D03*
X183804288Y-174945000D03*
X183810000Y-176915000D03*
%TD*%
D41*
%TO.C,R31*%
X146825000Y-101250000D03*
X148475000Y-101250000D03*
%TD*%
D35*
%TO.C,C105*%
X225450000Y-103460000D03*
X225450000Y-102500000D03*
%TD*%
D59*
%TO.C,R34*%
X207380000Y-89560000D03*
X207380000Y-90580000D03*
%TD*%
D70*
%TO.C,H2*%
X238000000Y-102000000D03*
%TD*%
D71*
%TO.C,J6*%
X224838700Y-84995000D03*
X219058700Y-84995000D03*
D72*
X225148700Y-86095000D03*
D73*
X224348700Y-86070000D03*
D74*
X223198700Y-86070000D03*
X222198700Y-86070000D03*
X221698700Y-86070000D03*
X220698700Y-86070000D03*
D72*
X218748700Y-86095000D03*
D73*
X219548700Y-86070000D03*
D74*
X220198700Y-86070000D03*
X221198700Y-86070000D03*
X222698700Y-86070000D03*
X223698700Y-86070000D03*
D75*
X226268700Y-85495000D03*
D76*
X226268700Y-81315000D03*
D75*
X217628700Y-85495000D03*
D76*
X217628700Y-81315000D03*
%TD*%
D77*
%TO.C,C90*%
X229843700Y-92550000D03*
X229843700Y-93510000D03*
%TD*%
%TO.C,C96*%
X223670807Y-104850000D03*
X223670807Y-105810000D03*
%TD*%
D48*
%TO.C,R70*%
X221770000Y-144510000D03*
X222790000Y-144510000D03*
%TD*%
D78*
%TO.C,J19*%
X155350000Y-133490000D03*
X154080000Y-134760000D03*
X156620000Y-134760000D03*
X154080000Y-132220000D03*
X156620000Y-132220000D03*
%TD*%
D29*
%TO.C,U73*%
X207150000Y-178445000D03*
X207150000Y-177805000D03*
X207150000Y-177165000D03*
X207150000Y-176525000D03*
X207150000Y-175885000D03*
X207150000Y-175245000D03*
X207150000Y-174605000D03*
X207150000Y-173965000D03*
X207150000Y-173325000D03*
X207150000Y-172685000D03*
X207150000Y-172045000D03*
X207150000Y-171405000D03*
X199010000Y-171405000D03*
X199010000Y-172045000D03*
X199010000Y-172685000D03*
X199010000Y-173325000D03*
X199010000Y-173965000D03*
X199010000Y-174605000D03*
X199010000Y-175245000D03*
X199010000Y-175885000D03*
X199010000Y-176525000D03*
X199010000Y-177165000D03*
X199010000Y-177805000D03*
X199010000Y-178445000D03*
D30*
X205295712Y-174815000D03*
X205290000Y-172845000D03*
X204190000Y-171825000D03*
X204182856Y-174815000D03*
X204177144Y-172845000D03*
X204160000Y-175855000D03*
X204160000Y-173895000D03*
X203005712Y-174815000D03*
X203000000Y-172845000D03*
X201960000Y-172865000D03*
X201950000Y-171835000D03*
X201940000Y-175855000D03*
X201940000Y-173915000D03*
X201938572Y-174815000D03*
X200745712Y-174815000D03*
X200740000Y-172845000D03*
%TD*%
D79*
%TO.C,U8*%
X214265207Y-90829998D03*
X214265207Y-91329999D03*
X214265207Y-91829999D03*
X214265207Y-92330000D03*
X217160807Y-92330000D03*
X217160807Y-91829999D03*
X217160807Y-91329999D03*
X217160807Y-90829998D03*
D80*
X215713007Y-91579999D03*
%TD*%
D81*
%TO.C,U11*%
X221547500Y-88530000D03*
X220147500Y-88530000D03*
%TD*%
D34*
%TO.C,C34*%
X162275000Y-93325000D03*
X162275000Y-91425000D03*
%TD*%
D41*
%TO.C,R25*%
X140805000Y-86310000D03*
X142455000Y-86310000D03*
%TD*%
D35*
%TO.C,C21*%
X230300000Y-139840000D03*
X230300000Y-138880000D03*
%TD*%
D82*
%TO.C,U13*%
X226330000Y-144279999D03*
D83*
X226280000Y-144780000D03*
X226280000Y-145280000D03*
X226280000Y-145780001D03*
X227980002Y-145780001D03*
X227980002Y-145280000D03*
X227980002Y-144780000D03*
X227980002Y-144279999D03*
%TD*%
D44*
%TO.C,C104*%
X227900000Y-93870000D03*
X226940000Y-93870000D03*
%TD*%
D42*
%TO.C,Q2*%
X155990000Y-116475002D03*
X157260000Y-116475002D03*
X158530000Y-116475002D03*
X159800000Y-116475002D03*
X159800000Y-110885000D03*
X158530000Y-110885000D03*
X157260000Y-110885000D03*
X155990000Y-110885000D03*
%TD*%
D44*
%TO.C,C108*%
X227323700Y-92400000D03*
X226363700Y-92400000D03*
%TD*%
D55*
%TO.C,J15*%
X163790000Y-152310000D03*
%TD*%
D57*
%TO.C,R51*%
X228188700Y-83910000D03*
X228188700Y-82890000D03*
%TD*%
D29*
%TO.C,U56*%
X164110000Y-164675000D03*
X164110000Y-164035000D03*
X164110000Y-163395000D03*
X164110000Y-162755000D03*
X164110000Y-162115000D03*
X164110000Y-161475000D03*
X164110000Y-160835000D03*
X164110000Y-160195000D03*
X164110000Y-159555000D03*
X164110000Y-158915000D03*
X164110000Y-158275000D03*
X164110000Y-157635000D03*
X155970000Y-157635000D03*
X155970000Y-158275000D03*
X155970000Y-158915000D03*
X155970000Y-159555000D03*
X155970000Y-160195000D03*
X155970000Y-160835000D03*
X155970000Y-161475000D03*
X155970000Y-162115000D03*
X155970000Y-162755000D03*
X155970000Y-163395000D03*
X155970000Y-164035000D03*
X155970000Y-164675000D03*
D30*
X162255712Y-161045000D03*
X162250000Y-159075000D03*
X161150000Y-158055000D03*
X161142856Y-161045000D03*
X161137144Y-159075000D03*
X161120000Y-162085000D03*
X161120000Y-160125000D03*
X159965712Y-161045000D03*
X159960000Y-159075000D03*
X158920000Y-159095000D03*
X158910000Y-158065000D03*
X158900000Y-162085000D03*
X158900000Y-160145000D03*
X158898572Y-161045000D03*
X157705712Y-161045000D03*
X157700000Y-159075000D03*
%TD*%
D53*
%TO.C,C109*%
X215330807Y-94405000D03*
X216290807Y-94405000D03*
%TD*%
D84*
%TO.C,C4*%
X198240000Y-101141200D03*
X198240000Y-108050000D03*
%TD*%
D41*
%TO.C,R26*%
X146675000Y-94790000D03*
X148325000Y-94790000D03*
%TD*%
D85*
%TO.C,R10*%
X205066600Y-121280000D03*
X195973400Y-121280000D03*
%TD*%
D54*
%TO.C,J5*%
X159990000Y-181670000D03*
%TD*%
D86*
%TO.C,D5*%
X232072500Y-87300000D03*
X236372500Y-87300000D03*
%TD*%
D49*
%TO.C,C35*%
X171100000Y-91200000D03*
X171100000Y-93100000D03*
%TD*%
D48*
%TO.C,R22*%
X229610000Y-96780000D03*
X230630000Y-96780000D03*
%TD*%
D41*
%TO.C,R3*%
X140805000Y-91610000D03*
X142455000Y-91610000D03*
%TD*%
D46*
%TO.C,C28*%
X161640000Y-111420000D03*
X163540000Y-111420000D03*
%TD*%
D39*
%TO.C,H10*%
X148930000Y-181770000D03*
%TD*%
D56*
%TO.C,C2*%
X125690000Y-95810000D03*
X123790000Y-95810000D03*
%TD*%
D84*
%TO.C,C1*%
X166550000Y-101199100D03*
X166550000Y-108107900D03*
%TD*%
D54*
%TO.C,J7*%
X160000000Y-167990000D03*
%TD*%
D56*
%TO.C,C10*%
X134920000Y-100450000D03*
X133020000Y-100450000D03*
%TD*%
D38*
%TO.C,R2*%
X125795000Y-92150000D03*
X124145000Y-92150000D03*
%TD*%
D49*
%TO.C,C13*%
X129313949Y-94574843D03*
X129313949Y-96474843D03*
%TD*%
D35*
%TO.C,C102*%
X225100807Y-105800000D03*
X225100807Y-104840000D03*
%TD*%
D39*
%TO.C,H7*%
X170930000Y-167770000D03*
%TD*%
D87*
%TO.C,U2*%
X150928949Y-93196051D03*
X151578949Y-93196051D03*
X152228949Y-93196051D03*
X152878949Y-93196051D03*
X152878949Y-88896051D03*
X152228949Y-88896051D03*
X151578949Y-88896051D03*
X150928949Y-88896051D03*
%TD*%
D53*
%TO.C,C110*%
X219320807Y-89770000D03*
X220280807Y-89770000D03*
%TD*%
D88*
%TO.C,U1*%
X132263949Y-95681049D03*
X132763949Y-95681049D03*
X133263949Y-95681049D03*
X133763949Y-95681049D03*
X134263949Y-95681049D03*
X134763949Y-95681049D03*
X135263949Y-95681049D03*
X135763949Y-95681049D03*
D89*
X136413949Y-95031049D03*
X136413949Y-94531049D03*
X136413949Y-94031049D03*
X136413949Y-93531049D03*
X136413949Y-93031049D03*
X136413949Y-92531049D03*
X136413949Y-92031049D03*
X136413949Y-91531049D03*
D88*
X135763949Y-90881049D03*
X135263949Y-90881049D03*
X134763949Y-90881049D03*
X134263949Y-90881049D03*
X133763949Y-90881049D03*
X133263949Y-90881049D03*
X132763949Y-90881049D03*
X132263949Y-90881049D03*
D89*
X131613949Y-91531049D03*
X131613949Y-92031049D03*
X131613949Y-92531049D03*
X131613949Y-93031049D03*
X131613949Y-93531049D03*
X131613949Y-94031049D03*
X131613949Y-94531049D03*
X131613949Y-95031049D03*
D90*
X134013949Y-93281049D03*
%TD*%
D56*
%TO.C,C29*%
X202360000Y-110570000D03*
X200460000Y-110570000D03*
%TD*%
D40*
%TO.C,R19*%
X213550000Y-99430000D03*
X212530000Y-99430000D03*
%TD*%
D48*
%TO.C,R61*%
X221780000Y-145580000D03*
X222800000Y-145580000D03*
%TD*%
D46*
%TO.C,C8*%
X140900000Y-89770000D03*
X142800000Y-89770000D03*
%TD*%
D56*
%TO.C,C12*%
X142815000Y-93450000D03*
X140915000Y-93450000D03*
%TD*%
D86*
%TO.C,D4*%
X177900000Y-137725000D03*
X182200000Y-137725000D03*
%TD*%
D41*
%TO.C,R1*%
X124155000Y-93840000D03*
X125805000Y-93840000D03*
%TD*%
D85*
%TO.C,R8*%
X156763400Y-121280000D03*
X165856600Y-121280000D03*
%TD*%
D49*
%TO.C,C19*%
X147980000Y-90260000D03*
X147980000Y-92160000D03*
%TD*%
D70*
%TO.C,H1*%
X122000000Y-199000000D03*
%TD*%
%TO.C,H4*%
X122000000Y-102000000D03*
%TD*%
D34*
%TO.C,C6*%
X136460000Y-86110000D03*
X136460000Y-84210000D03*
%TD*%
D44*
%TO.C,C103*%
X227850000Y-98630000D03*
X226890000Y-98630000D03*
%TD*%
D59*
%TO.C,R54*%
X223650807Y-89760000D03*
X223650807Y-90780000D03*
%TD*%
D53*
%TO.C,C32*%
X226740000Y-143290000D03*
X227700000Y-143290000D03*
%TD*%
D48*
%TO.C,R11*%
X153090000Y-87290000D03*
X154110000Y-87290000D03*
%TD*%
D49*
%TO.C,C14*%
X132440000Y-84190000D03*
X132440000Y-86090000D03*
%TD*%
D64*
%TO.C,J2*%
X190766378Y-83500000D03*
X183266378Y-83500000D03*
X190766378Y-88500000D03*
X183266378Y-88500000D03*
%TD*%
D91*
%TO.C,Q3*%
X210410000Y-108720000D03*
X210410000Y-107450000D03*
X210410000Y-106180000D03*
X210410000Y-104910000D03*
X204819998Y-104910000D03*
X204819998Y-106180000D03*
X204819998Y-107450000D03*
X204819998Y-108720000D03*
%TD*%
D53*
%TO.C,C25*%
X175840000Y-94975000D03*
X176800000Y-94975000D03*
%TD*%
D46*
%TO.C,C26*%
X178200000Y-134250000D03*
X180100000Y-134250000D03*
%TD*%
D48*
%TO.C,R21*%
X227350000Y-96780000D03*
X228370000Y-96780000D03*
%TD*%
D41*
%TO.C,R33*%
X124150000Y-90450000D03*
X125800000Y-90450000D03*
%TD*%
D91*
%TO.C,Q1*%
X155003946Y-104968949D03*
X155003946Y-106238949D03*
X155003946Y-107508949D03*
X155003946Y-108778949D03*
X160593948Y-108778949D03*
X160593948Y-107508949D03*
X160593948Y-106238949D03*
X160593948Y-104968949D03*
%TD*%
D92*
%TO.C,U3*%
X160488949Y-93161449D03*
X159838949Y-93161449D03*
X159188949Y-93161449D03*
X158538949Y-93161449D03*
X157888949Y-93161449D03*
X157238949Y-93161449D03*
X156588949Y-93161449D03*
X155938949Y-93161449D03*
X155938949Y-98886449D03*
X156588949Y-98886449D03*
X157238949Y-98886449D03*
X157888949Y-98886449D03*
X158538949Y-98886449D03*
X159188949Y-98886449D03*
X159838949Y-98886449D03*
X160488949Y-98886449D03*
%TD*%
D35*
%TO.C,C98*%
X238138700Y-93720000D03*
X238138700Y-92760000D03*
%TD*%
D41*
%TO.C,R32*%
X143600000Y-103700000D03*
X145250000Y-103700000D03*
%TD*%
%TO.C,R24*%
X146820000Y-99690000D03*
X148470000Y-99690000D03*
%TD*%
D55*
%TO.C,J21*%
X199210000Y-152510000D03*
%TD*%
D84*
%TO.C,C3*%
X175660000Y-101181200D03*
X175660000Y-108090000D03*
%TD*%
D39*
%TO.C,H9*%
X148930000Y-167770000D03*
%TD*%
D70*
%TO.C,H3*%
X238000000Y-199000000D03*
%TD*%
D67*
%TO.C,L2*%
X212913699Y-116809999D03*
X212913699Y-127239998D03*
D68*
X234988700Y-122025000D03*
%TD*%
D59*
%TO.C,R50*%
X212630000Y-89560000D03*
X212630000Y-90580000D03*
%TD*%
D93*
%TO.C,U6*%
X181125000Y-143050000D03*
X181125000Y-142400000D03*
X181125000Y-141750000D03*
X181125000Y-141100000D03*
X176825000Y-141100000D03*
X176825000Y-141750000D03*
X176825000Y-142400000D03*
X176825000Y-143050000D03*
%TD*%
D35*
%TO.C,C97*%
X218900807Y-104665000D03*
X218900807Y-103705000D03*
%TD*%
D41*
%TO.C,R29*%
X152625000Y-99350000D03*
X154275000Y-99350000D03*
%TD*%
D94*
%TO.C,U7*%
X174125000Y-96775000D03*
X174125000Y-95825000D03*
X174125000Y-94875000D03*
X171850000Y-94875000D03*
X171850000Y-95825000D03*
X171850000Y-96775000D03*
%TD*%
D55*
%TO.C,J14*%
X177710000Y-152310000D03*
%TD*%
D58*
%TO.C,SW1*%
X212210000Y-88100000D03*
X212210000Y-83990000D03*
%TD*%
%LPD*%
M02*
