M48
; DRILL file {KiCad 8.0.5} date 2024-12-31T14:43:51-0800
; FORMAT={-:-/ absolute / inch / decimal}
; #@! TF.CreationDate,2024-12-31T14:43:51-08:00
; #@! TF.GenerationSoftware,Kicad,Pcbnew,8.0.5
; #@! TF.FileFunction,Plated,1,4,PTH
FMAT,2
INCH
; #@! TA.AperFunction,Plated,PTH,ViaDrill
T1C0.0118
; #@! TA.AperFunction,Plated,PTH,ComponentDrill
T2C0.0118
; #@! TA.AperFunction,Plated,PTH,ViaDrill
T3C0.0157
; #@! TA.AperFunction,Plated,PTH,ViaDrill
T4C0.0236
; #@! TA.AperFunction,Plated,PTH,ComponentDrill
T5C0.0236
; #@! TA.AperFunction,Plated,PTH,ComponentDrill
T6C0.0728
; #@! TA.AperFunction,Plated,PTH,ComponentDrill
T7C0.1260
%
G90
G05
T1
X4.7283Y-6.6831
X4.8191Y-7.0547
X4.8224Y-4.5854
X4.8254Y-6.7128
X4.8539Y-4.5854
X4.9213Y-6.3583
X4.9831Y-6.1701
X4.9831Y-6.3327
X4.9831Y-6.6882
X4.9831Y-6.8933
X4.9831Y-7.2311
X4.9831Y-7.4165
X5.0185Y-7.1961
X5.0197Y-7.087
X5.0307Y-3.4287
X5.0381Y-3.6823
X5.0587Y-7.087
X5.0602Y-7.1961
X5.0685Y-7.3917
X5.0776Y-6.3319
X5.0787Y-3.8492
X5.0976Y-7.087
X5.0976Y-7.1961
X5.1339Y-3.4591
X5.1374Y-7.087
X5.1394Y-7.1961
X5.1413Y-3.6224
X5.1547Y-3.5102
X5.1772Y-7.0878
X5.178Y-7.1961
X5.1898Y-7.6276
X5.1941Y-7.0303
X5.1945Y-3.8638
X5.1953Y-3.8091
X5.1953Y-6.3169
X5.1988Y-6.2106
X5.2016Y-6.2535
X5.202Y-6.5126
X5.2094Y-3.4744
X5.2205Y-6.1902
X5.2269Y-3.8087
X5.228Y-7.6327
X5.2303Y-6.9437
X5.2327Y-3.6307
X5.2327Y-3.7177
X5.2328Y-3.6729
X5.2343Y-7.0535
X5.237Y-3.4602
X5.2409Y-6.5146
X5.25Y-6.7406
X5.2512Y-7.2654
X5.2528Y-6.1902
X5.276Y-3.6303
X5.276Y-3.7173
X5.2761Y-3.6725
X5.2772Y-3.4606
X5.3035Y-3.8374
X5.3169Y-3.6307
X5.3169Y-3.7177
X5.3171Y-3.6729
X5.4083Y-3.5642
X5.4256Y-3.6232
X5.4421Y-3.5028
X5.5053Y-3.7217
X5.6063Y-6.0248
X5.6472Y-6.7339
X5.6492Y-3.5886
X5.6504Y-7.2476
X5.6516Y-7.2764
X5.6516Y-7.315
X5.6516Y-7.3496
X5.6516Y-7.3909
X5.6516Y-7.4311
X5.6547Y-6.2051
X5.6567Y-6.7701
X5.659Y-6.909
X5.6598Y-6.8402
X5.66Y-6.875
X5.6605Y-6.8013
X5.6961Y-6.2087
X5.6961Y-6.7484
X5.737Y-6.3709
X5.7402Y-6.4941
X5.761Y-7.3531
X5.7614Y-7.2909
X5.7614Y-7.413
X5.7618Y-7.3224
X5.7618Y-7.3846
X5.7665Y-3.9264
X5.7717Y-6.8016
X5.7724Y-6.8409
X5.7732Y-6.8807
X5.7736Y-6.9205
X5.7736Y-6.9602
X5.7996Y-7.5646
X5.8158Y-6.14
X5.8551Y-6.0276
X5.8988Y-7.5646
X5.9181Y-3.7272
X5.9257Y-6.2598
X5.9386Y-6.2094
X5.948Y-3.8906
X5.95Y-3.7264
X5.9563Y-4.1201
X5.9701Y-6.4122
X5.9709Y-6.3728
X5.9717Y-6.2524
X5.9724Y-6.2917
X5.9724Y-6.3323
X5.9992Y-7.2819
X6.013Y-7.3665
X6.0291Y-6.4504
X6.0457Y-6.1496
X6.0551Y-7.3455
X6.0646Y-6.4559
X6.0768Y-6.2528
X6.0853Y-3.9391
X6.0874Y-6.5457
X6.0878Y-6.1488
X6.0906Y-6.4252
X6.0933Y-6.5122
X6.0945Y-7.024
X6.0953Y-6.3709
X6.0976Y-6.8472
X6.1012Y-7.5614
X6.1161Y-3.937
X6.1461Y-4.3217
X6.2677Y-4.6295
X6.2937Y-4.6299
X6.47Y-7.73
X6.4962Y-6.52
X6.502Y-6.7563
X6.5035Y-6.3276
X6.5035Y-6.3681
X6.5035Y-6.4055
X6.5035Y-6.4453
X6.5035Y-6.4846
X6.5043Y-7.0295
X6.5055Y-7.5646
X6.5063Y-7.4091
X6.5063Y-7.439
X6.5063Y-7.4693
X6.5063Y-7.5
X6.5063Y-7.5323
X6.6055Y-6.328
X6.6055Y-6.3669
X6.6055Y-6.4067
X6.6055Y-6.4461
X6.6055Y-6.4858
X6.6217Y-7.3669
X6.6217Y-7.4071
X6.6217Y-7.4492
X6.6217Y-7.4882
X6.6217Y-7.5303
X6.7169Y-6.8579
X6.7201Y-7.5039
X6.7287Y-7.3118
X6.7512Y-7.4535
X6.8425Y-7.3435
X6.8425Y-7.378
X6.8425Y-7.4173
X6.8425Y-7.4537
X6.8425Y-7.4902
X6.8504Y-7.0364
X6.874Y-7.652
X6.8843Y-6.1992
X6.9154Y-7.6524
X6.9213Y-6.7362
X6.924Y-6.4484
X6.9437Y-6.2043
X6.9469Y-7.0142
X6.9472Y-7.2925
X6.9472Y-7.3276
X6.9476Y-7.2634
X6.9496Y-7.3535
X6.9496Y-7.428
X6.9516Y-7.3823
X7.31Y-6.02
X7.3488Y-6.485
X7.3508Y-6.735
X7.3567Y-6.2413
X7.3567Y-6.2756
X7.3567Y-6.3453
X7.3567Y-7.2795
X7.3575Y-6.2075
X7.3575Y-6.3094
X7.3583Y-6.1701
X7.4183Y-6.998
X7.4713Y-7.4598
X7.4724Y-7.3083
X7.4724Y-7.3835
X7.4724Y-7.4213
X7.4732Y-7.3461
X7.476Y-6.2248
X7.476Y-6.2622
X7.476Y-6.3012
X7.4772Y-6.3413
X7.4843Y-6.1846
X7.4937Y-6.9324
X7.5693Y-7.3094
X7.5693Y-7.3469
X7.5701Y-7.3846
X7.5713Y-7.422
X7.5713Y-7.4587
X7.5799Y-6.7738
X7.6067Y-6.4303
X7.6665Y-4.4102
X7.6862Y-6.8752
X7.6862Y-6.9121
X7.6862Y-6.949
X7.6862Y-6.9859
X7.6862Y-7.0228
X7.7191Y-4.5309
X7.7882Y-7.5646
X7.7937Y-7.0657
X7.7961Y-6.8957
X7.7961Y-6.93
X7.7961Y-6.9644
X7.7961Y-6.9987
X7.7961Y-7.0331
X7.8043Y-6.4961
X7.9091Y-4.622
X7.9504Y-4.0902
X7.9992Y-3.8941
X8.0465Y-5.7591
X8.0709Y-3.7509
X8.0811Y-3.703
X8.0965Y-3.7497
X8.1021Y-3.9314
X8.122Y-3.749
X8.1238Y-3.9852
X8.1634Y-3.9559
X8.1638Y-3.8498
X8.17Y-7.76
X8.1913Y-3.8087
X8.1969Y-7.4146
X8.2055Y-3.6551
X8.2063Y-3.924
X8.2063Y-7.0366
X8.2295Y-6.4894
X8.2315Y-7.2854
X8.2449Y-4.0319
X8.2453Y-4.0638
X8.2488Y-6.1807
X8.2504Y-6.7776
X8.2555Y-7.3063
X8.2642Y-6.437
X8.2776Y-3.9555
X8.2787Y-3.9272
X8.2886Y-6.1807
X8.2906Y-4.0547
X8.2906Y-6.7766
X8.2945Y-3.8498
X8.302Y-3.7998
X8.3035Y-7.0961
X8.3035Y-7.2063
X8.322Y-3.7094
X8.3268Y-3.6669
X8.3268Y-7.4803
X8.3307Y-7.5169
X8.3327Y-4.1575
X8.3433Y-7.0961
X8.3437Y-7.2063
X8.3504Y-4.289
X8.3827Y-7.2071
X8.3831Y-7.0961
X8.3867Y-3.8535
X8.4059Y-4.1362
X8.4122Y-3.851
X8.4134Y-3.6594
X8.4181Y-6.9161
X8.422Y-7.0957
X8.4224Y-7.2071
X8.4244Y-4.0528
X8.4437Y-3.985
X8.4441Y-3.9193
X8.4488Y-6.337
X8.4622Y-7.0961
X8.4622Y-7.2071
X8.4642Y-3.8581
X8.4724Y-3.9519
X8.4783Y-4.0459
X8.4799Y-3.7563
X8.4996Y-3.985
X8.5Y-3.9193
X8.5091Y-4.0459
X8.5276Y-4.2217
X8.5311Y-4.1819
X8.5358Y-4.047
X8.5406Y-3.8581
X8.5685Y-3.685
X8.5827Y-3.7738
X8.5831Y-6.3031
X8.5831Y-6.4957
X8.5831Y-6.8488
X8.5831Y-7.0413
X8.5831Y-7.3878
X8.5831Y-7.5831
X8.5906Y-4.3291
X8.5917Y-4.2236
X8.6429Y-4.2217
X8.6488Y-6.3862
X8.6563Y-3.8498
X8.6598Y-3.9915
X8.6835Y-4.1823
X8.6953Y-3.7201
X8.6957Y-3.7614
X8.7406Y-4.0299
X8.7736Y-3.8496
X8.8543Y-4.248
X8.8638Y-3.9224
X8.9012Y-4.235
X8.9031Y-4.2654
X8.9528Y-6.4114
X8.9528Y-6.4657
X8.9539Y-6.361
X8.9787Y-3.3941
X9.0628Y-5.8996
X9.0646Y-5.9343
X9.1339Y-5.7531
X9.1417Y-6.7362
X9.1575Y-6.2717
X9.1591Y-6.1362
X9.1654Y-3.3492
X9.2417Y-7.0646
X9.2618Y-5.6087
X9.274Y-5.713
X9.2744Y-6.0283
X9.2823Y-5.5815
X9.3031Y-5.5571
T2
X5.3362Y-6.3494
X5.3362Y-6.8884
X5.3362Y-7.427
X5.3363Y-6.423
X5.3363Y-6.962
X5.3363Y-7.5006
X5.3591Y-6.3494
X5.3591Y-6.8884
X5.3591Y-7.427
X5.3592Y-6.423
X5.3592Y-6.962
X5.3592Y-7.5006
X5.382Y-6.3494
X5.382Y-6.8884
X5.382Y-7.427
X5.3821Y-6.423
X5.3821Y-6.962
X5.3821Y-7.5006
X5.405Y-6.3494
X5.405Y-6.8884
X5.405Y-7.427
X5.405Y-6.423
X5.405Y-6.962
X5.405Y-7.5006
X5.4071Y-6.301
X5.4071Y-6.3254
X5.4071Y-6.374
X5.4071Y-6.3982
X5.4071Y-6.4468
X5.4071Y-6.4711
X5.4071Y-6.84
X5.4071Y-6.8644
X5.4071Y-6.9129
X5.4071Y-6.9372
X5.4071Y-6.9858
X5.4071Y-7.01
X5.4071Y-7.3785
X5.4071Y-7.403
X5.4071Y-7.4515
X5.4071Y-7.4758
X5.4071Y-7.5243
X5.4071Y-7.5486
X5.4279Y-6.3494
X5.4279Y-6.8884
X5.4279Y-7.427
X5.428Y-6.423
X5.428Y-6.962
X5.428Y-7.5006
X5.4508Y-6.3494
X5.4508Y-6.8884
X5.4508Y-7.427
X5.4509Y-6.423
X5.4509Y-6.962
X5.4509Y-7.5006
X5.4737Y-6.3494
X5.4737Y-6.8884
X5.4737Y-7.427
X5.4738Y-6.423
X5.4738Y-6.962
X5.4738Y-7.5006
X5.4945Y-6.325
X5.4945Y-6.3736
X5.4945Y-6.3978
X5.4945Y-6.4464
X5.4945Y-6.4707
X5.4945Y-6.864
X5.4945Y-6.9125
X5.4945Y-6.9368
X5.4945Y-6.9854
X5.4945Y-7.0096
X5.4945Y-7.4026
X5.4945Y-7.4511
X5.4945Y-7.4754
X5.4945Y-7.524
X5.4945Y-7.5482
X5.4949Y-6.3006
X5.4949Y-6.8396
X5.4949Y-7.3781
X5.4966Y-6.3494
X5.4966Y-6.8884
X5.4966Y-7.427
X5.4967Y-6.423
X5.4967Y-6.962
X5.4967Y-7.5006
X5.5195Y-6.3494
X5.5195Y-6.8884
X5.5195Y-7.427
X5.5196Y-6.423
X5.5196Y-6.962
X5.5196Y-7.5006
X5.5424Y-6.3494
X5.5424Y-6.8884
X5.5424Y-7.427
X5.5425Y-6.423
X5.5425Y-6.962
X5.5425Y-7.5006
X5.5654Y-6.3494
X5.5654Y-6.8884
X5.5654Y-7.427
X5.5654Y-6.423
X5.5654Y-6.962
X5.5654Y-7.5006
X6.1846Y-6.8037
X6.1846Y-7.3419
X6.1846Y-6.8774
X6.1846Y-7.4156
X6.1854Y-6.2652
X6.1854Y-6.3388
X6.2075Y-6.8037
X6.2075Y-7.3419
X6.2076Y-6.8774
X6.2076Y-7.4156
X6.2083Y-6.2652
X6.2083Y-6.3388
X6.2304Y-6.8037
X6.2304Y-7.3419
X6.2305Y-6.8774
X6.2305Y-7.4156
X6.2312Y-6.2652
X6.2313Y-6.3388
X6.2533Y-6.8037
X6.2533Y-7.3419
X6.2534Y-6.8774
X6.2534Y-7.4156
X6.2541Y-6.2652
X6.2542Y-6.3388
X6.2551Y-6.9262
X6.2551Y-7.4644
X6.2555Y-6.7561
X6.2555Y-6.7804
X6.2555Y-6.8289
X6.2555Y-6.8532
X6.2555Y-6.9018
X6.2555Y-7.2943
X6.2555Y-7.3186
X6.2555Y-7.3671
X6.2555Y-7.3914
X6.2555Y-7.44
X6.2559Y-6.3876
X6.2563Y-6.2175
X6.2563Y-6.2418
X6.2563Y-6.2904
X6.2563Y-6.3146
X6.2563Y-6.3632
X6.2762Y-6.8037
X6.2762Y-7.3419
X6.2763Y-6.8774
X6.2763Y-7.4156
X6.277Y-6.2652
X6.2771Y-6.3388
X6.2991Y-6.8037
X6.2991Y-7.3419
X6.2992Y-6.8774
X6.2992Y-7.4156
X6.2999Y-6.2652
X6.3Y-6.3388
X6.322Y-6.8037
X6.322Y-7.3419
X6.3221Y-6.8774
X6.3221Y-7.4156
X6.3228Y-6.2652
X6.3229Y-6.3388
X6.3429Y-6.7557
X6.3429Y-6.78
X6.3429Y-6.8285
X6.3429Y-6.8528
X6.3429Y-6.9014
X6.3429Y-6.9258
X6.3429Y-7.2939
X6.3429Y-7.3182
X6.3429Y-7.3667
X6.3429Y-7.391
X6.3429Y-7.4396
X6.3429Y-7.464
X6.3437Y-6.2171
X6.3437Y-6.2414
X6.3437Y-6.29
X6.3437Y-6.3142
X6.3437Y-6.3628
X6.3437Y-6.3872
X6.345Y-6.8037
X6.345Y-7.3419
X6.345Y-6.8774
X6.345Y-7.4156
X6.3457Y-6.2652
X6.3458Y-6.3388
X6.3679Y-6.8037
X6.3679Y-7.3419
X6.368Y-6.8774
X6.368Y-7.4156
X6.3687Y-6.2652
X6.3687Y-6.3388
X6.3908Y-6.8037
X6.3908Y-7.3419
X6.3909Y-6.8774
X6.3909Y-7.4156
X6.3916Y-6.2652
X6.3917Y-6.3388
X6.4137Y-6.8037
X6.4137Y-7.3419
X6.4138Y-6.8774
X6.4138Y-7.4156
X6.4145Y-6.2652
X6.4146Y-6.3388
X7.0307Y-6.3506
X7.0307Y-6.8892
X7.0307Y-7.4281
X7.0308Y-6.4242
X7.0308Y-6.9628
X7.0308Y-7.5018
X7.0536Y-6.3506
X7.0536Y-6.8892
X7.0536Y-7.4281
X7.0537Y-6.4242
X7.0537Y-6.9628
X7.0537Y-7.5018
X7.0765Y-6.3506
X7.0765Y-6.8892
X7.0765Y-7.4281
X7.0766Y-6.4242
X7.0766Y-6.9628
X7.0766Y-7.5018
X7.0994Y-6.3506
X7.0994Y-6.8892
X7.0994Y-7.4281
X7.0995Y-6.4242
X7.0995Y-6.9628
X7.0995Y-7.5018
X7.1016Y-6.3022
X7.1016Y-6.3266
X7.1016Y-6.3751
X7.1016Y-6.3994
X7.1016Y-6.448
X7.1016Y-6.4722
X7.1016Y-6.8407
X7.1016Y-6.8652
X7.1016Y-6.9137
X7.1016Y-6.938
X7.1016Y-6.9865
X7.1016Y-7.0108
X7.1016Y-7.3797
X7.1016Y-7.4041
X7.1016Y-7.4527
X7.1016Y-7.477
X7.1016Y-7.5255
X7.1016Y-7.5498
X7.1224Y-6.3506
X7.1224Y-6.8892
X7.1224Y-7.4281
X7.1224Y-6.4242
X7.1224Y-6.9628
X7.1224Y-7.5018
X7.1453Y-6.3506
X7.1453Y-6.8892
X7.1453Y-7.4281
X7.1454Y-6.4242
X7.1454Y-6.9628
X7.1454Y-7.5018
X7.1682Y-6.3506
X7.1682Y-6.8892
X7.1682Y-7.4281
X7.1683Y-6.4242
X7.1683Y-6.9628
X7.1683Y-7.5018
X7.189Y-6.3262
X7.189Y-6.3747
X7.189Y-6.399
X7.189Y-6.4476
X7.189Y-6.4719
X7.189Y-6.8648
X7.189Y-6.9133
X7.189Y-6.9376
X7.189Y-6.9862
X7.189Y-7.0104
X7.189Y-7.4037
X7.189Y-7.4523
X7.189Y-7.4766
X7.189Y-7.5251
X7.189Y-7.5494
X7.1894Y-6.3018
X7.1894Y-6.8404
X7.1894Y-7.3793
X7.1911Y-6.3506
X7.1911Y-6.8892
X7.1911Y-7.4281
X7.1912Y-6.4242
X7.1912Y-6.9628
X7.1912Y-7.5018
X7.214Y-6.3506
X7.214Y-6.8892
X7.214Y-7.4281
X7.2141Y-6.4242
X7.2141Y-6.9628
X7.2141Y-7.5018
X7.2369Y-6.3506
X7.2369Y-6.8892
X7.2369Y-7.4281
X7.237Y-6.4242
X7.237Y-6.9628
X7.237Y-7.5018
X7.2598Y-6.3506
X7.2598Y-6.8892
X7.2598Y-7.4281
X7.2599Y-6.4242
X7.2599Y-6.9628
X7.2599Y-7.5018
X7.8798Y-6.2687
X7.8798Y-6.8073
X7.8798Y-7.3463
X7.8799Y-6.3423
X7.8799Y-6.8809
X7.8799Y-7.4199
X7.9028Y-6.2687
X7.9028Y-6.8073
X7.9028Y-7.3463
X7.9028Y-6.3423
X7.9028Y-6.8809
X7.9028Y-7.4199
X7.9257Y-6.2687
X7.9257Y-6.8073
X7.9257Y-7.3463
X7.9257Y-6.3423
X7.9257Y-6.8809
X7.9257Y-7.4199
X7.9486Y-6.2687
X7.9486Y-6.8073
X7.9486Y-7.3463
X7.9487Y-6.3423
X7.9487Y-6.8809
X7.9487Y-7.4199
X7.9504Y-6.3911
X7.9504Y-6.9297
X7.9504Y-7.4687
X7.9508Y-6.2211
X7.9508Y-6.2453
X7.9508Y-6.2939
X7.9508Y-6.3182
X7.9508Y-6.3667
X7.9508Y-6.7596
X7.9508Y-6.7839
X7.9508Y-6.8325
X7.9508Y-6.8568
X7.9508Y-6.9053
X7.9508Y-7.2986
X7.9508Y-7.3229
X7.9508Y-7.3715
X7.9508Y-7.3957
X7.9508Y-7.4443
X7.9715Y-6.2687
X7.9715Y-6.8073
X7.9715Y-7.3463
X7.9716Y-6.3423
X7.9716Y-6.8809
X7.9716Y-7.4199
X7.9944Y-6.2687
X7.9944Y-6.8073
X7.9944Y-7.3463
X7.9945Y-6.3423
X7.9945Y-6.8809
X7.9945Y-7.4199
X8.0173Y-6.2687
X8.0173Y-6.8073
X8.0173Y-7.3463
X8.0174Y-6.3423
X8.0174Y-6.8809
X8.0174Y-7.4199
X8.0382Y-6.2207
X8.0382Y-6.2449
X8.0382Y-6.2935
X8.0382Y-6.3178
X8.0382Y-6.3663
X8.0382Y-6.3907
X8.0382Y-6.7593
X8.0382Y-6.7835
X8.0382Y-6.8321
X8.0382Y-6.8564
X8.0382Y-6.9049
X8.0382Y-6.9293
X8.0382Y-7.2982
X8.0382Y-7.3225
X8.0382Y-7.3711
X8.0382Y-7.3953
X8.0382Y-7.4439
X8.0382Y-7.4683
X8.0402Y-6.2687
X8.0402Y-6.8073
X8.0402Y-7.3463
X8.0403Y-6.3423
X8.0403Y-6.8809
X8.0403Y-7.4199
X8.0631Y-6.2687
X8.0631Y-6.8073
X8.0631Y-7.3463
X8.0632Y-6.3423
X8.0632Y-6.8809
X8.0632Y-7.4199
X8.0861Y-6.2687
X8.0861Y-6.8073
X8.0861Y-7.3463
X8.0861Y-6.3423
X8.0861Y-6.8809
X8.0861Y-7.4199
X8.109Y-6.2687
X8.109Y-6.8073
X8.109Y-7.3463
X8.1091Y-6.3423
X8.1091Y-6.8809
X8.1091Y-7.4199
T3
X4.8161Y-3.7736
X4.8382Y-3.6272
X5.1524Y-3.3236
X5.185Y-3.9843
X5.45Y-3.9638
X5.5197Y-3.315
X5.826Y-3.672
X5.8264Y-3.4965
X5.9409Y-3.4213
X6.0157Y-3.7282
X6.0689Y-3.4748
X6.0783Y-3.7276
X6.1599Y-3.9082
X6.2091Y-3.9082
X6.2186Y-3.535
X8.7661Y-3.7315
T4
X4.9827Y-5.5031
X4.9827Y-5.5579
X4.9831Y-5.2843
X4.9831Y-5.3382
X4.9831Y-5.3917
X4.9831Y-5.4465
X4.9843Y-5.2287
X5.0382Y-5.5043
X5.0382Y-5.5591
X5.0386Y-5.2854
X5.0386Y-5.3394
X5.0386Y-5.3929
X5.0386Y-5.4476
X5.0398Y-5.2299
X5.098Y-5.5035
X5.098Y-5.5583
X5.0984Y-5.2846
X5.0984Y-5.3386
X5.0984Y-5.3921
X5.0984Y-5.4469
X5.0996Y-5.2291
X5.1591Y-5.5039
X5.1591Y-5.5587
X5.1594Y-5.285
X5.1594Y-5.339
X5.1594Y-5.3925
X5.1594Y-5.4472
X5.1606Y-5.2295
X5.2189Y-5.5031
X5.2189Y-5.5579
X5.2193Y-5.2843
X5.2193Y-5.3382
X5.2193Y-5.3917
X5.2193Y-5.4465
X5.2205Y-5.2287
X5.2815Y-5.5031
X5.2815Y-5.5579
X5.2819Y-5.2843
X5.2819Y-5.3382
X5.2819Y-5.3917
X5.2819Y-5.4465
X5.2831Y-5.2287
X5.3413Y-5.5028
X5.3413Y-5.5575
X5.3417Y-5.2839
X5.3417Y-5.3378
X5.3417Y-5.3913
X5.3417Y-5.4461
X5.3429Y-5.2283
X6.0783Y-5.2189
X6.0783Y-5.2736
X6.1409Y-5.2189
X6.1409Y-5.2736
X6.3846Y-4.0276
X6.3846Y-4.0843
X6.3846Y-4.138
X6.3846Y-4.1919
X6.4474Y-4.0276
X6.4474Y-4.0843
X6.4474Y-4.138
X6.4474Y-4.1919
X6.5063Y-4.0839
X6.5067Y-4.0272
X6.5602Y-4.0839
X6.5606Y-4.0272
X6.6138Y-4.0839
X6.6142Y-4.0272
X6.6157Y-5.3496
X6.6157Y-5.4122
X6.6685Y-4.0839
X6.6689Y-4.0272
X6.6705Y-5.3496
X6.6705Y-5.4122
X7.0031Y-3.7228
X7.6157Y-3.9839
X7.6157Y-4.0465
X7.6157Y-4.1059
X7.6157Y-4.1598
X7.6157Y-4.2134
X7.6157Y-4.2681
X7.674Y-3.9839
X7.674Y-4.0465
X7.674Y-4.1059
X7.674Y-4.1598
X7.674Y-4.2134
X7.674Y-4.2681
X7.7276Y-3.9839
X7.7276Y-4.0465
X7.7823Y-3.9839
X7.7823Y-4.0465
X7.8378Y-3.9835
X7.8378Y-4.0461
X7.85Y-5.0413
X7.9098Y-5.0433
X7.9701Y-5.1547
X7.9724Y-5.0433
X7.9724Y-5.098
X8.3685Y-3.6126
X8.5587Y-3.6146
X8.5906Y-5.2197
X8.5906Y-5.2823
X8.5906Y-5.3453
X8.5906Y-5.4051
X8.5906Y-5.4677
X8.5906Y-5.5236
X8.5906Y-5.5913
X8.6472Y-5.2189
X8.6472Y-5.2815
X8.6472Y-5.3445
X8.6472Y-5.4043
X8.6472Y-5.4669
X8.6495Y-5.5228
X8.6495Y-5.5906
X8.7084Y-5.5205
X8.7084Y-5.5882
X8.7674Y-5.5205
X8.7674Y-5.5882
X8.8263Y-5.5205
X8.8263Y-5.5882
X8.8853Y-5.5205
X8.8853Y-5.5882
X8.9343Y-3.6744
X8.9343Y-3.7374
X8.9442Y-5.5205
X8.9442Y-5.5882
X8.9449Y-5.2165
X8.9449Y-5.2791
X8.9449Y-5.3421
X8.9449Y-5.402
X8.9449Y-5.4646
X9.0031Y-5.2165
X9.0031Y-5.2791
X9.0031Y-5.3421
X9.0031Y-5.402
X9.0031Y-5.4646
X9.0031Y-5.5205
X9.0031Y-5.5882
X9.0933Y-3.5878
X9.1486Y-3.588
T6
X6.4683Y-3.3563
X6.4683Y-3.6319
X6.6652Y-3.3563
X6.6652Y-3.6319
X7.3152Y-3.3563
X7.3152Y-3.6319
X7.512Y-3.3563
X7.512Y-3.6319
T7
X5.8634Y-6.6051
X5.8634Y-7.1563
X6.7295Y-6.6051
X6.7295Y-7.1563
X7.5957Y-6.6051
X7.5957Y-7.1563
T5
G00X8.2937Y-3.3762
M15
G01X8.2937Y-3.3447
M16
G05
G00X8.2937Y-3.5467
M15
G01X8.2937Y-3.5033
M16
G05
G00X8.6339Y-3.3762
M15
G01X8.6339Y-3.3447
M16
G05
G00X8.6339Y-3.5467
M15
G01X8.6339Y-3.5033
M16
G05
M30
