%TF.GenerationSoftware,KiCad,Pcbnew,8.0.5*%
%TF.CreationDate,2024-10-21T15:52:07-04:00*%
%TF.ProjectId,emberone,656d6265-726f-46e6-952e-6b696361645f,rev?*%
%TF.SameCoordinates,Original*%
%TF.FileFunction,Paste,Top*%
%TF.FilePolarity,Positive*%
%FSLAX46Y46*%
G04 Gerber Fmt 4.6, Leading zero omitted, Abs format (unit mm)*
G04 Created by KiCad (PCBNEW 8.0.5) date 2024-10-21 15:52:07*
%MOMM*%
%LPD*%
G01*
G04 APERTURE LIST*
G04 Aperture macros list*
%AMRoundRect*
0 Rectangle with rounded corners*
0 $1 Rounding radius*
0 $2 $3 $4 $5 $6 $7 $8 $9 X,Y pos of 4 corners*
0 Add a 4 corners polygon primitive as box body*
4,1,4,$2,$3,$4,$5,$6,$7,$8,$9,$2,$3,0*
0 Add four circle primitives for the rounded corners*
1,1,$1+$1,$2,$3*
1,1,$1+$1,$4,$5*
1,1,$1+$1,$6,$7*
1,1,$1+$1,$8,$9*
0 Add four rect primitives between the rounded corners*
20,1,$1+$1,$2,$3,$4,$5,0*
20,1,$1+$1,$4,$5,$6,$7,0*
20,1,$1+$1,$6,$7,$8,$9,0*
20,1,$1+$1,$8,$9,$2,$3,0*%
G04 Aperture macros list end*
%ADD10C,0.000000*%
%ADD11R,0.509999X0.910001*%
%ADD12R,0.910001X0.509999*%
%ADD13R,3.352800X1.905000*%
%ADD14RoundRect,0.200000X0.275000X-0.200000X0.275000X0.200000X-0.275000X0.200000X-0.275000X-0.200000X0*%
%ADD15RoundRect,0.250000X0.475000X-0.250000X0.475000X0.250000X-0.475000X0.250000X-0.475000X-0.250000X0*%
%ADD16R,1.168400X0.711200*%
%ADD17RoundRect,0.250000X-0.250000X-0.475000X0.250000X-0.475000X0.250000X0.475000X-0.250000X0.475000X0*%
%ADD18RoundRect,0.250000X0.250000X0.475000X-0.250000X0.475000X-0.250000X-0.475000X0.250000X-0.475000X0*%
%ADD19RoundRect,0.200000X0.200000X0.275000X-0.200000X0.275000X-0.200000X-0.275000X0.200000X-0.275000X0*%
%ADD20R,5.334000X5.588000*%
%ADD21R,6.350000X5.283200*%
%ADD22RoundRect,0.200000X-0.275000X0.200000X-0.275000X-0.200000X0.275000X-0.200000X0.275000X0.200000X0*%
%ADD23R,3.302000X1.498600*%
%ADD24R,3.454400X5.588000*%
%ADD25R,1.100000X0.400000*%
%ADD26RoundRect,0.250000X-0.475000X0.250000X-0.475000X-0.250000X0.475000X-0.250000X0.475000X0.250000X0*%
%ADD27RoundRect,0.135000X-0.185000X0.135000X-0.185000X-0.135000X0.185000X-0.135000X0.185000X0.135000X0*%
%ADD28RoundRect,0.100000X-0.100000X0.637500X-0.100000X-0.637500X0.100000X-0.637500X0.100000X0.637500X0*%
G04 APERTURE END LIST*
D10*
%TO.C,Q4*%
G36*
X156524754Y-99595965D02*
G01*
X156534134Y-99598810D01*
X156542778Y-99603431D01*
X156550355Y-99609648D01*
X156556573Y-99617225D01*
X156561195Y-99625869D01*
X156564040Y-99635249D01*
X156565000Y-99645005D01*
X156565000Y-101125002D01*
X156564040Y-101134758D01*
X156561195Y-101144139D01*
X156556573Y-101152782D01*
X156550355Y-101160359D01*
X156542778Y-101166577D01*
X156534134Y-101171197D01*
X156524754Y-101174042D01*
X156515000Y-101175005D01*
X155365000Y-101175005D01*
X155355247Y-101174042D01*
X155345866Y-101171197D01*
X155337223Y-101166577D01*
X155329646Y-101160359D01*
X155323428Y-101152782D01*
X155318805Y-101144139D01*
X155315960Y-101134758D01*
X155315000Y-101125002D01*
X155315000Y-99645005D01*
X155315960Y-99635249D01*
X155318805Y-99625869D01*
X155323428Y-99617225D01*
X155329646Y-99609648D01*
X155337223Y-99603431D01*
X155345866Y-99598810D01*
X155355247Y-99595965D01*
X155365000Y-99595005D01*
X156515000Y-99595005D01*
X156524754Y-99595965D01*
G37*
G36*
X157974754Y-99595965D02*
G01*
X157984134Y-99598810D01*
X157992778Y-99603431D01*
X158000354Y-99609648D01*
X158006572Y-99617225D01*
X158011195Y-99625869D01*
X158014040Y-99635249D01*
X158015000Y-99645005D01*
X158015000Y-101125002D01*
X158014040Y-101134758D01*
X158011195Y-101144139D01*
X158006572Y-101152782D01*
X158000354Y-101160359D01*
X157992778Y-101166577D01*
X157984134Y-101171197D01*
X157974754Y-101174042D01*
X157965000Y-101175005D01*
X156815000Y-101175005D01*
X156805246Y-101174042D01*
X156795866Y-101171197D01*
X156787222Y-101166577D01*
X156779646Y-101160359D01*
X156773428Y-101152782D01*
X156768805Y-101144139D01*
X156765960Y-101134758D01*
X156765000Y-101125002D01*
X156765000Y-99645005D01*
X156765960Y-99635249D01*
X156768805Y-99625869D01*
X156773428Y-99617225D01*
X156779646Y-99609648D01*
X156787222Y-99603431D01*
X156795866Y-99598810D01*
X156805246Y-99595965D01*
X156815000Y-99595005D01*
X157965000Y-99595005D01*
X157974754Y-99595965D01*
G37*
G36*
X159424753Y-99595965D02*
G01*
X159434134Y-99598810D01*
X159442777Y-99603431D01*
X159450354Y-99609648D01*
X159456572Y-99617225D01*
X159461195Y-99625869D01*
X159464040Y-99635249D01*
X159465000Y-99645005D01*
X159465000Y-101125002D01*
X159464040Y-101134758D01*
X159461195Y-101144139D01*
X159456572Y-101152782D01*
X159450354Y-101160359D01*
X159442777Y-101166577D01*
X159434134Y-101171197D01*
X159424753Y-101174042D01*
X159415000Y-101175005D01*
X158265000Y-101175005D01*
X158255246Y-101174042D01*
X158245866Y-101171197D01*
X158237222Y-101166577D01*
X158229645Y-101160359D01*
X158223427Y-101152782D01*
X158218805Y-101144139D01*
X158215960Y-101134758D01*
X158215000Y-101125002D01*
X158215000Y-99645005D01*
X158215960Y-99635249D01*
X158218805Y-99625869D01*
X158223427Y-99617225D01*
X158229645Y-99609648D01*
X158237222Y-99603431D01*
X158245866Y-99598810D01*
X158255246Y-99595965D01*
X158265000Y-99595005D01*
X159415000Y-99595005D01*
X159424753Y-99595965D01*
G37*
G36*
X156524754Y-97815964D02*
G01*
X156534134Y-97818809D01*
X156542778Y-97823429D01*
X156550355Y-97829647D01*
X156556573Y-97837224D01*
X156561195Y-97845867D01*
X156564040Y-97855248D01*
X156565000Y-97865004D01*
X156565000Y-99345001D01*
X156564040Y-99354757D01*
X156561195Y-99364137D01*
X156556573Y-99372781D01*
X156550355Y-99380358D01*
X156542778Y-99386576D01*
X156534134Y-99391196D01*
X156524754Y-99394041D01*
X156515000Y-99395001D01*
X155365000Y-99395001D01*
X155355247Y-99394041D01*
X155345866Y-99391196D01*
X155337223Y-99386576D01*
X155329646Y-99380358D01*
X155323428Y-99372781D01*
X155318805Y-99364137D01*
X155315960Y-99354757D01*
X155315000Y-99345001D01*
X155315000Y-97865004D01*
X155315960Y-97855248D01*
X155318805Y-97845867D01*
X155323428Y-97837224D01*
X155329646Y-97829647D01*
X155337223Y-97823429D01*
X155345866Y-97818809D01*
X155355247Y-97815964D01*
X155365000Y-97815001D01*
X156515000Y-97815001D01*
X156524754Y-97815964D01*
G37*
G36*
X157974754Y-97815964D02*
G01*
X157984134Y-97818809D01*
X157992778Y-97823429D01*
X158000354Y-97829647D01*
X158006572Y-97837224D01*
X158011195Y-97845867D01*
X158014040Y-97855248D01*
X158015000Y-97865004D01*
X158015000Y-99345001D01*
X158014040Y-99354757D01*
X158011195Y-99364137D01*
X158006572Y-99372781D01*
X158000354Y-99380358D01*
X157992778Y-99386576D01*
X157984134Y-99391196D01*
X157974754Y-99394041D01*
X157965000Y-99395001D01*
X156815000Y-99395001D01*
X156805246Y-99394041D01*
X156795866Y-99391196D01*
X156787222Y-99386576D01*
X156779646Y-99380358D01*
X156773428Y-99372781D01*
X156768805Y-99364137D01*
X156765960Y-99354757D01*
X156765000Y-99345001D01*
X156765000Y-97865004D01*
X156765960Y-97855248D01*
X156768805Y-97845867D01*
X156773428Y-97837224D01*
X156779646Y-97829647D01*
X156787222Y-97823429D01*
X156795866Y-97818809D01*
X156805246Y-97815964D01*
X156815000Y-97815001D01*
X157965000Y-97815001D01*
X157974754Y-97815964D01*
G37*
G36*
X159424753Y-97815964D02*
G01*
X159434134Y-97818809D01*
X159442777Y-97823429D01*
X159450354Y-97829647D01*
X159456572Y-97837224D01*
X159461195Y-97845867D01*
X159464040Y-97855248D01*
X159465000Y-97865004D01*
X159465000Y-99345001D01*
X159464040Y-99354757D01*
X159461195Y-99364137D01*
X159456572Y-99372781D01*
X159450354Y-99380358D01*
X159442777Y-99386576D01*
X159434134Y-99391196D01*
X159424753Y-99394041D01*
X159415000Y-99395001D01*
X158265000Y-99395001D01*
X158255246Y-99394041D01*
X158245866Y-99391196D01*
X158237222Y-99386576D01*
X158229645Y-99380358D01*
X158223427Y-99372781D01*
X158218805Y-99364137D01*
X158215960Y-99354757D01*
X158215000Y-99345001D01*
X158215000Y-97865004D01*
X158215960Y-97855248D01*
X158218805Y-97845867D01*
X158223427Y-97837224D01*
X158229645Y-97829647D01*
X158237222Y-97823429D01*
X158245866Y-97818809D01*
X158255246Y-97815964D01*
X158265000Y-97815001D01*
X159415000Y-97815001D01*
X159424753Y-97815964D01*
G37*
%TO.C,Q3*%
G36*
X158688707Y-93969909D02*
G01*
X158698088Y-93972754D01*
X158706731Y-93977376D01*
X158714308Y-93983594D01*
X158720526Y-93991171D01*
X158725146Y-93999815D01*
X158727991Y-94009195D01*
X158728954Y-94018949D01*
X158728954Y-95168949D01*
X158727991Y-95178702D01*
X158725146Y-95188083D01*
X158720526Y-95196726D01*
X158714308Y-95204303D01*
X158706731Y-95210521D01*
X158698088Y-95215144D01*
X158688707Y-95217989D01*
X158678951Y-95218949D01*
X157198954Y-95218949D01*
X157189198Y-95217989D01*
X157179818Y-95215144D01*
X157171174Y-95210521D01*
X157163597Y-95204303D01*
X157157380Y-95196726D01*
X157152759Y-95188083D01*
X157149914Y-95178702D01*
X157148954Y-95168949D01*
X157148954Y-94018949D01*
X157149914Y-94009195D01*
X157152759Y-93999815D01*
X157157380Y-93991171D01*
X157163597Y-93983594D01*
X157171174Y-93977376D01*
X157179818Y-93972754D01*
X157189198Y-93969909D01*
X157198954Y-93968949D01*
X158678951Y-93968949D01*
X158688707Y-93969909D01*
G37*
G36*
X158688707Y-92519909D02*
G01*
X158698088Y-92522754D01*
X158706731Y-92527377D01*
X158714308Y-92533595D01*
X158720526Y-92541171D01*
X158725146Y-92549815D01*
X158727991Y-92559195D01*
X158728954Y-92568949D01*
X158728954Y-93718949D01*
X158727991Y-93728703D01*
X158725146Y-93738083D01*
X158720526Y-93746727D01*
X158714308Y-93754303D01*
X158706731Y-93760521D01*
X158698088Y-93765144D01*
X158688707Y-93767989D01*
X158678951Y-93768949D01*
X157198954Y-93768949D01*
X157189198Y-93767989D01*
X157179818Y-93765144D01*
X157171174Y-93760521D01*
X157163597Y-93754303D01*
X157157380Y-93746727D01*
X157152759Y-93738083D01*
X157149914Y-93728703D01*
X157148954Y-93718949D01*
X157148954Y-92568949D01*
X157149914Y-92559195D01*
X157152759Y-92549815D01*
X157157380Y-92541171D01*
X157163597Y-92533595D01*
X157171174Y-92527377D01*
X157179818Y-92522754D01*
X157189198Y-92519909D01*
X157198954Y-92518949D01*
X158678951Y-92518949D01*
X158688707Y-92519909D01*
G37*
G36*
X158688707Y-91069909D02*
G01*
X158698088Y-91072754D01*
X158706731Y-91077377D01*
X158714308Y-91083595D01*
X158720526Y-91091172D01*
X158725146Y-91099815D01*
X158727991Y-91109196D01*
X158728954Y-91118949D01*
X158728954Y-92268949D01*
X158727991Y-92278703D01*
X158725146Y-92288083D01*
X158720526Y-92296727D01*
X158714308Y-92304304D01*
X158706731Y-92310522D01*
X158698088Y-92315144D01*
X158688707Y-92317989D01*
X158678951Y-92318949D01*
X157198954Y-92318949D01*
X157189198Y-92317989D01*
X157179818Y-92315144D01*
X157171174Y-92310522D01*
X157163597Y-92304304D01*
X157157380Y-92296727D01*
X157152759Y-92288083D01*
X157149914Y-92278703D01*
X157148954Y-92268949D01*
X157148954Y-91118949D01*
X157149914Y-91109196D01*
X157152759Y-91099815D01*
X157157380Y-91091172D01*
X157163597Y-91083595D01*
X157171174Y-91077377D01*
X157179818Y-91072754D01*
X157189198Y-91069909D01*
X157198954Y-91068949D01*
X158678951Y-91068949D01*
X158688707Y-91069909D01*
G37*
G36*
X156908706Y-93969909D02*
G01*
X156918086Y-93972754D01*
X156926730Y-93977376D01*
X156934307Y-93983594D01*
X156940525Y-93991171D01*
X156945145Y-93999815D01*
X156947990Y-94009195D01*
X156948950Y-94018949D01*
X156948950Y-95168949D01*
X156947990Y-95178702D01*
X156945145Y-95188083D01*
X156940525Y-95196726D01*
X156934307Y-95204303D01*
X156926730Y-95210521D01*
X156918086Y-95215144D01*
X156908706Y-95217989D01*
X156898950Y-95218949D01*
X155418953Y-95218949D01*
X155409197Y-95217989D01*
X155399816Y-95215144D01*
X155391173Y-95210521D01*
X155383596Y-95204303D01*
X155377378Y-95196726D01*
X155372758Y-95188083D01*
X155369913Y-95178702D01*
X155368950Y-95168949D01*
X155368950Y-94018949D01*
X155369913Y-94009195D01*
X155372758Y-93999815D01*
X155377378Y-93991171D01*
X155383596Y-93983594D01*
X155391173Y-93977376D01*
X155399816Y-93972754D01*
X155409197Y-93969909D01*
X155418953Y-93968949D01*
X156898950Y-93968949D01*
X156908706Y-93969909D01*
G37*
G36*
X156908706Y-92519909D02*
G01*
X156918086Y-92522754D01*
X156926730Y-92527377D01*
X156934307Y-92533595D01*
X156940525Y-92541171D01*
X156945145Y-92549815D01*
X156947990Y-92559195D01*
X156948950Y-92568949D01*
X156948950Y-93718949D01*
X156947990Y-93728703D01*
X156945145Y-93738083D01*
X156940525Y-93746727D01*
X156934307Y-93754303D01*
X156926730Y-93760521D01*
X156918086Y-93765144D01*
X156908706Y-93767989D01*
X156898950Y-93768949D01*
X155418953Y-93768949D01*
X155409197Y-93767989D01*
X155399816Y-93765144D01*
X155391173Y-93760521D01*
X155383596Y-93754303D01*
X155377378Y-93746727D01*
X155372758Y-93738083D01*
X155369913Y-93728703D01*
X155368950Y-93718949D01*
X155368950Y-92568949D01*
X155369913Y-92559195D01*
X155372758Y-92549815D01*
X155377378Y-92541171D01*
X155383596Y-92533595D01*
X155391173Y-92527377D01*
X155399816Y-92522754D01*
X155409197Y-92519909D01*
X155418953Y-92518949D01*
X156898950Y-92518949D01*
X156908706Y-92519909D01*
G37*
G36*
X156908706Y-91069909D02*
G01*
X156918086Y-91072754D01*
X156926730Y-91077377D01*
X156934307Y-91083595D01*
X156940525Y-91091172D01*
X156945145Y-91099815D01*
X156947990Y-91109196D01*
X156948950Y-91118949D01*
X156948950Y-92268949D01*
X156947990Y-92278703D01*
X156945145Y-92288083D01*
X156940525Y-92296727D01*
X156934307Y-92304304D01*
X156926730Y-92310522D01*
X156918086Y-92315144D01*
X156908706Y-92317989D01*
X156898950Y-92318949D01*
X155418953Y-92318949D01*
X155409197Y-92317989D01*
X155399816Y-92315144D01*
X155391173Y-92310522D01*
X155383596Y-92304304D01*
X155377378Y-92296727D01*
X155372758Y-92288083D01*
X155369913Y-92278703D01*
X155368950Y-92268949D01*
X155368950Y-91118949D01*
X155369913Y-91109196D01*
X155372758Y-91099815D01*
X155377378Y-91091172D01*
X155383596Y-91083595D01*
X155391173Y-91077377D01*
X155399816Y-91072754D01*
X155409197Y-91069909D01*
X155418953Y-91068949D01*
X156898950Y-91068949D01*
X156908706Y-91069909D01*
G37*
%TO.C,Q1*%
G36*
X131198700Y-91069909D02*
G01*
X131208080Y-91072754D01*
X131216724Y-91077377D01*
X131224301Y-91083595D01*
X131230518Y-91091172D01*
X131235139Y-91099815D01*
X131237984Y-91109196D01*
X131238944Y-91118949D01*
X131238944Y-92268949D01*
X131237984Y-92278703D01*
X131235139Y-92288083D01*
X131230518Y-92296727D01*
X131224301Y-92304304D01*
X131216724Y-92310522D01*
X131208080Y-92315144D01*
X131198700Y-92317989D01*
X131188944Y-92318949D01*
X129708947Y-92318949D01*
X129699191Y-92317989D01*
X129689810Y-92315144D01*
X129681167Y-92310522D01*
X129673590Y-92304304D01*
X129667372Y-92296727D01*
X129662752Y-92288083D01*
X129659907Y-92278703D01*
X129658944Y-92268949D01*
X129658944Y-91118949D01*
X129659907Y-91109196D01*
X129662752Y-91099815D01*
X129667372Y-91091172D01*
X129673590Y-91083595D01*
X129681167Y-91077377D01*
X129689810Y-91072754D01*
X129699191Y-91069909D01*
X129708947Y-91068949D01*
X131188944Y-91068949D01*
X131198700Y-91069909D01*
G37*
G36*
X131198700Y-92519909D02*
G01*
X131208080Y-92522754D01*
X131216724Y-92527377D01*
X131224301Y-92533595D01*
X131230518Y-92541171D01*
X131235139Y-92549815D01*
X131237984Y-92559195D01*
X131238944Y-92568949D01*
X131238944Y-93718949D01*
X131237984Y-93728703D01*
X131235139Y-93738083D01*
X131230518Y-93746727D01*
X131224301Y-93754303D01*
X131216724Y-93760521D01*
X131208080Y-93765144D01*
X131198700Y-93767989D01*
X131188944Y-93768949D01*
X129708947Y-93768949D01*
X129699191Y-93767989D01*
X129689810Y-93765144D01*
X129681167Y-93760521D01*
X129673590Y-93754303D01*
X129667372Y-93746727D01*
X129662752Y-93738083D01*
X129659907Y-93728703D01*
X129658944Y-93718949D01*
X129658944Y-92568949D01*
X129659907Y-92559195D01*
X129662752Y-92549815D01*
X129667372Y-92541171D01*
X129673590Y-92533595D01*
X129681167Y-92527377D01*
X129689810Y-92522754D01*
X129699191Y-92519909D01*
X129708947Y-92518949D01*
X131188944Y-92518949D01*
X131198700Y-92519909D01*
G37*
G36*
X131198700Y-93969909D02*
G01*
X131208080Y-93972754D01*
X131216724Y-93977376D01*
X131224301Y-93983594D01*
X131230518Y-93991171D01*
X131235139Y-93999815D01*
X131237984Y-94009195D01*
X131238944Y-94018949D01*
X131238944Y-95168949D01*
X131237984Y-95178702D01*
X131235139Y-95188083D01*
X131230518Y-95196726D01*
X131224301Y-95204303D01*
X131216724Y-95210521D01*
X131208080Y-95215144D01*
X131198700Y-95217989D01*
X131188944Y-95218949D01*
X129708947Y-95218949D01*
X129699191Y-95217989D01*
X129689810Y-95215144D01*
X129681167Y-95210521D01*
X129673590Y-95204303D01*
X129667372Y-95196726D01*
X129662752Y-95188083D01*
X129659907Y-95178702D01*
X129658944Y-95168949D01*
X129658944Y-94018949D01*
X129659907Y-94009195D01*
X129662752Y-93999815D01*
X129667372Y-93991171D01*
X129673590Y-93983594D01*
X129681167Y-93977376D01*
X129689810Y-93972754D01*
X129699191Y-93969909D01*
X129708947Y-93968949D01*
X131188944Y-93968949D01*
X131198700Y-93969909D01*
G37*
G36*
X132978701Y-91069909D02*
G01*
X132988082Y-91072754D01*
X132996725Y-91077377D01*
X133004302Y-91083595D01*
X133010520Y-91091172D01*
X133015140Y-91099815D01*
X133017985Y-91109196D01*
X133018948Y-91118949D01*
X133018948Y-92268949D01*
X133017985Y-92278703D01*
X133015140Y-92288083D01*
X133010520Y-92296727D01*
X133004302Y-92304304D01*
X132996725Y-92310522D01*
X132988082Y-92315144D01*
X132978701Y-92317989D01*
X132968945Y-92318949D01*
X131488948Y-92318949D01*
X131479192Y-92317989D01*
X131469812Y-92315144D01*
X131461168Y-92310522D01*
X131453591Y-92304304D01*
X131447373Y-92296727D01*
X131442753Y-92288083D01*
X131439908Y-92278703D01*
X131438948Y-92268949D01*
X131438948Y-91118949D01*
X131439908Y-91109196D01*
X131442753Y-91099815D01*
X131447373Y-91091172D01*
X131453591Y-91083595D01*
X131461168Y-91077377D01*
X131469812Y-91072754D01*
X131479192Y-91069909D01*
X131488948Y-91068949D01*
X132968945Y-91068949D01*
X132978701Y-91069909D01*
G37*
G36*
X132978701Y-92519909D02*
G01*
X132988082Y-92522754D01*
X132996725Y-92527377D01*
X133004302Y-92533595D01*
X133010520Y-92541171D01*
X133015140Y-92549815D01*
X133017985Y-92559195D01*
X133018948Y-92568949D01*
X133018948Y-93718949D01*
X133017985Y-93728703D01*
X133015140Y-93738083D01*
X133010520Y-93746727D01*
X133004302Y-93754303D01*
X132996725Y-93760521D01*
X132988082Y-93765144D01*
X132978701Y-93767989D01*
X132968945Y-93768949D01*
X131488948Y-93768949D01*
X131479192Y-93767989D01*
X131469812Y-93765144D01*
X131461168Y-93760521D01*
X131453591Y-93754303D01*
X131447373Y-93746727D01*
X131442753Y-93738083D01*
X131439908Y-93728703D01*
X131438948Y-93718949D01*
X131438948Y-92568949D01*
X131439908Y-92559195D01*
X131442753Y-92549815D01*
X131447373Y-92541171D01*
X131453591Y-92533595D01*
X131461168Y-92527377D01*
X131469812Y-92522754D01*
X131479192Y-92519909D01*
X131488948Y-92518949D01*
X132968945Y-92518949D01*
X132978701Y-92519909D01*
G37*
G36*
X132978701Y-93969909D02*
G01*
X132988082Y-93972754D01*
X132996725Y-93977376D01*
X133004302Y-93983594D01*
X133010520Y-93991171D01*
X133015140Y-93999815D01*
X133017985Y-94009195D01*
X133018948Y-94018949D01*
X133018948Y-95168949D01*
X133017985Y-95178702D01*
X133015140Y-95188083D01*
X133010520Y-95196726D01*
X133004302Y-95204303D01*
X132996725Y-95210521D01*
X132988082Y-95215144D01*
X132978701Y-95217989D01*
X132968945Y-95218949D01*
X131488948Y-95218949D01*
X131479192Y-95217989D01*
X131469812Y-95215144D01*
X131461168Y-95210521D01*
X131453591Y-95204303D01*
X131447373Y-95196726D01*
X131442753Y-95188083D01*
X131439908Y-95178702D01*
X131438948Y-95168949D01*
X131438948Y-94018949D01*
X131439908Y-94009195D01*
X131442753Y-93999815D01*
X131447373Y-93991171D01*
X131453591Y-93983594D01*
X131461168Y-93977376D01*
X131469812Y-93972754D01*
X131479192Y-93969909D01*
X131488948Y-93968949D01*
X132968945Y-93968949D01*
X132978701Y-93969909D01*
G37*
%TO.C,Q2*%
G36*
X130059754Y-99540964D02*
G01*
X130069134Y-99543809D01*
X130077778Y-99548430D01*
X130085355Y-99554647D01*
X130091573Y-99562224D01*
X130096195Y-99570868D01*
X130099040Y-99580248D01*
X130100000Y-99590004D01*
X130100000Y-101070001D01*
X130099040Y-101079757D01*
X130096195Y-101089138D01*
X130091573Y-101097781D01*
X130085355Y-101105358D01*
X130077778Y-101111576D01*
X130069134Y-101116196D01*
X130059754Y-101119041D01*
X130050000Y-101120004D01*
X128900000Y-101120004D01*
X128890247Y-101119041D01*
X128880866Y-101116196D01*
X128872223Y-101111576D01*
X128864646Y-101105358D01*
X128858428Y-101097781D01*
X128853805Y-101089138D01*
X128850960Y-101079757D01*
X128850000Y-101070001D01*
X128850000Y-99590004D01*
X128850960Y-99580248D01*
X128853805Y-99570868D01*
X128858428Y-99562224D01*
X128864646Y-99554647D01*
X128872223Y-99548430D01*
X128880866Y-99543809D01*
X128890247Y-99540964D01*
X128900000Y-99540004D01*
X130050000Y-99540004D01*
X130059754Y-99540964D01*
G37*
G36*
X131509754Y-99540964D02*
G01*
X131519134Y-99543809D01*
X131527778Y-99548430D01*
X131535354Y-99554647D01*
X131541572Y-99562224D01*
X131546195Y-99570868D01*
X131549040Y-99580248D01*
X131550000Y-99590004D01*
X131550000Y-101070001D01*
X131549040Y-101079757D01*
X131546195Y-101089138D01*
X131541572Y-101097781D01*
X131535354Y-101105358D01*
X131527778Y-101111576D01*
X131519134Y-101116196D01*
X131509754Y-101119041D01*
X131500000Y-101120004D01*
X130350000Y-101120004D01*
X130340246Y-101119041D01*
X130330866Y-101116196D01*
X130322222Y-101111576D01*
X130314646Y-101105358D01*
X130308428Y-101097781D01*
X130303805Y-101089138D01*
X130300960Y-101079757D01*
X130300000Y-101070001D01*
X130300000Y-99590004D01*
X130300960Y-99580248D01*
X130303805Y-99570868D01*
X130308428Y-99562224D01*
X130314646Y-99554647D01*
X130322222Y-99548430D01*
X130330866Y-99543809D01*
X130340246Y-99540964D01*
X130350000Y-99540004D01*
X131500000Y-99540004D01*
X131509754Y-99540964D01*
G37*
G36*
X132959753Y-99540964D02*
G01*
X132969134Y-99543809D01*
X132977777Y-99548430D01*
X132985354Y-99554647D01*
X132991572Y-99562224D01*
X132996195Y-99570868D01*
X132999040Y-99580248D01*
X133000000Y-99590004D01*
X133000000Y-101070001D01*
X132999040Y-101079757D01*
X132996195Y-101089138D01*
X132991572Y-101097781D01*
X132985354Y-101105358D01*
X132977777Y-101111576D01*
X132969134Y-101116196D01*
X132959753Y-101119041D01*
X132950000Y-101120004D01*
X131800000Y-101120004D01*
X131790246Y-101119041D01*
X131780866Y-101116196D01*
X131772222Y-101111576D01*
X131764645Y-101105358D01*
X131758427Y-101097781D01*
X131753805Y-101089138D01*
X131750960Y-101079757D01*
X131750000Y-101070001D01*
X131750000Y-99590004D01*
X131750960Y-99580248D01*
X131753805Y-99570868D01*
X131758427Y-99562224D01*
X131764645Y-99554647D01*
X131772222Y-99548430D01*
X131780866Y-99543809D01*
X131790246Y-99540964D01*
X131800000Y-99540004D01*
X132950000Y-99540004D01*
X132959753Y-99540964D01*
G37*
G36*
X130059754Y-97760963D02*
G01*
X130069134Y-97763808D01*
X130077778Y-97768428D01*
X130085355Y-97774646D01*
X130091573Y-97782223D01*
X130096195Y-97790866D01*
X130099040Y-97800247D01*
X130100000Y-97810003D01*
X130100000Y-99290000D01*
X130099040Y-99299756D01*
X130096195Y-99309136D01*
X130091573Y-99317780D01*
X130085355Y-99325357D01*
X130077778Y-99331575D01*
X130069134Y-99336195D01*
X130059754Y-99339040D01*
X130050000Y-99340000D01*
X128900000Y-99340000D01*
X128890247Y-99339040D01*
X128880866Y-99336195D01*
X128872223Y-99331575D01*
X128864646Y-99325357D01*
X128858428Y-99317780D01*
X128853805Y-99309136D01*
X128850960Y-99299756D01*
X128850000Y-99290000D01*
X128850000Y-97810003D01*
X128850960Y-97800247D01*
X128853805Y-97790866D01*
X128858428Y-97782223D01*
X128864646Y-97774646D01*
X128872223Y-97768428D01*
X128880866Y-97763808D01*
X128890247Y-97760963D01*
X128900000Y-97760000D01*
X130050000Y-97760000D01*
X130059754Y-97760963D01*
G37*
G36*
X131509754Y-97760963D02*
G01*
X131519134Y-97763808D01*
X131527778Y-97768428D01*
X131535354Y-97774646D01*
X131541572Y-97782223D01*
X131546195Y-97790866D01*
X131549040Y-97800247D01*
X131550000Y-97810003D01*
X131550000Y-99290000D01*
X131549040Y-99299756D01*
X131546195Y-99309136D01*
X131541572Y-99317780D01*
X131535354Y-99325357D01*
X131527778Y-99331575D01*
X131519134Y-99336195D01*
X131509754Y-99339040D01*
X131500000Y-99340000D01*
X130350000Y-99340000D01*
X130340246Y-99339040D01*
X130330866Y-99336195D01*
X130322222Y-99331575D01*
X130314646Y-99325357D01*
X130308428Y-99317780D01*
X130303805Y-99309136D01*
X130300960Y-99299756D01*
X130300000Y-99290000D01*
X130300000Y-97810003D01*
X130300960Y-97800247D01*
X130303805Y-97790866D01*
X130308428Y-97782223D01*
X130314646Y-97774646D01*
X130322222Y-97768428D01*
X130330866Y-97763808D01*
X130340246Y-97760963D01*
X130350000Y-97760000D01*
X131500000Y-97760000D01*
X131509754Y-97760963D01*
G37*
G36*
X132959753Y-97760963D02*
G01*
X132969134Y-97763808D01*
X132977777Y-97768428D01*
X132985354Y-97774646D01*
X132991572Y-97782223D01*
X132996195Y-97790866D01*
X132999040Y-97800247D01*
X133000000Y-97810003D01*
X133000000Y-99290000D01*
X132999040Y-99299756D01*
X132996195Y-99309136D01*
X132991572Y-99317780D01*
X132985354Y-99325357D01*
X132977777Y-99331575D01*
X132969134Y-99336195D01*
X132959753Y-99339040D01*
X132950000Y-99340000D01*
X131800000Y-99340000D01*
X131790246Y-99339040D01*
X131780866Y-99336195D01*
X131772222Y-99331575D01*
X131764645Y-99325357D01*
X131758427Y-99317780D01*
X131753805Y-99309136D01*
X131750960Y-99299756D01*
X131750000Y-99290000D01*
X131750000Y-97810003D01*
X131750960Y-97800247D01*
X131753805Y-97790866D01*
X131758427Y-97782223D01*
X131764645Y-97774646D01*
X131772222Y-97768428D01*
X131780866Y-97763808D01*
X131790246Y-97760963D01*
X131800000Y-97760000D01*
X132950000Y-97760000D01*
X132959753Y-97760963D01*
G37*
%TO.C,U1*%
G36*
X164300251Y-68160950D02*
G01*
X163690651Y-68160950D01*
X163690651Y-67906950D01*
X164300251Y-67906950D01*
X164300251Y-68160950D01*
G37*
G36*
X164300251Y-68660949D02*
G01*
X163690651Y-68660949D01*
X163690651Y-68406949D01*
X164300251Y-68406949D01*
X164300251Y-68660949D01*
G37*
G36*
X164300251Y-69160948D02*
G01*
X163690651Y-69160948D01*
X163690651Y-68906948D01*
X164300251Y-68906948D01*
X164300251Y-69160948D01*
G37*
G36*
X164300251Y-69660949D02*
G01*
X163690651Y-69660949D01*
X163690651Y-69406949D01*
X164300251Y-69406949D01*
X164300251Y-69660949D01*
G37*
G36*
X164300251Y-70160949D02*
G01*
X163690651Y-70160949D01*
X163690651Y-69906949D01*
X164300251Y-69906949D01*
X164300251Y-70160949D01*
G37*
G36*
X164300251Y-70660950D02*
G01*
X163690651Y-70660950D01*
X163690651Y-70406950D01*
X164300251Y-70406950D01*
X164300251Y-70660950D01*
G37*
G36*
X164300251Y-71160949D02*
G01*
X163690651Y-71160949D01*
X163690651Y-70906949D01*
X164300251Y-70906949D01*
X164300251Y-71160949D01*
G37*
G36*
X164300251Y-71660948D02*
G01*
X163690651Y-71660948D01*
X163690651Y-71406948D01*
X164300251Y-71406948D01*
X164300251Y-71660948D01*
G37*
G36*
X164975952Y-67485249D02*
G01*
X164721952Y-67485249D01*
X164721952Y-66875649D01*
X164975952Y-66875649D01*
X164975952Y-67485249D01*
G37*
G36*
X164975952Y-72692249D02*
G01*
X164721952Y-72692249D01*
X164721952Y-72082649D01*
X164975952Y-72082649D01*
X164975952Y-72692249D01*
G37*
G36*
X166499002Y-69684000D02*
G01*
X165203602Y-69684000D01*
X165203602Y-68388600D01*
X166499002Y-68388600D01*
X166499002Y-69684000D01*
G37*
G36*
X166499002Y-71179298D02*
G01*
X165203602Y-71179298D01*
X165203602Y-69883898D01*
X166499002Y-69883898D01*
X166499002Y-71179298D01*
G37*
G36*
X165475951Y-67485249D02*
G01*
X165221951Y-67485249D01*
X165221951Y-66875649D01*
X165475951Y-66875649D01*
X165475951Y-67485249D01*
G37*
G36*
X165475951Y-72692249D02*
G01*
X165221951Y-72692249D01*
X165221951Y-72082649D01*
X165475951Y-72082649D01*
X165475951Y-72692249D01*
G37*
G36*
X165975950Y-67485249D02*
G01*
X165721950Y-67485249D01*
X165721950Y-66875649D01*
X165975950Y-66875649D01*
X165975950Y-67485249D01*
G37*
G36*
X165975950Y-72692249D02*
G01*
X165721950Y-72692249D01*
X165721950Y-72082649D01*
X165975950Y-72082649D01*
X165975950Y-72692249D01*
G37*
G36*
X166475951Y-67485249D02*
G01*
X166221951Y-67485249D01*
X166221951Y-66875649D01*
X166475951Y-66875649D01*
X166475951Y-67485249D01*
G37*
G36*
X166475951Y-72692249D02*
G01*
X166221951Y-72692249D01*
X166221951Y-72082649D01*
X166475951Y-72082649D01*
X166475951Y-72692249D01*
G37*
G36*
X167994300Y-69684000D02*
G01*
X166698900Y-69684000D01*
X166698900Y-68388600D01*
X167994300Y-68388600D01*
X167994300Y-69684000D01*
G37*
G36*
X167994300Y-71179298D02*
G01*
X166698900Y-71179298D01*
X166698900Y-69883898D01*
X167994300Y-69883898D01*
X167994300Y-71179298D01*
G37*
G36*
X166975951Y-67485249D02*
G01*
X166721951Y-67485249D01*
X166721951Y-66875649D01*
X166975951Y-66875649D01*
X166975951Y-67485249D01*
G37*
G36*
X166975951Y-72692249D02*
G01*
X166721951Y-72692249D01*
X166721951Y-72082649D01*
X166975951Y-72082649D01*
X166975951Y-72692249D01*
G37*
G36*
X167475952Y-67485249D02*
G01*
X167221952Y-67485249D01*
X167221952Y-66875649D01*
X167475952Y-66875649D01*
X167475952Y-67485249D01*
G37*
G36*
X167475952Y-72692249D02*
G01*
X167221952Y-72692249D01*
X167221952Y-72082649D01*
X167475952Y-72082649D01*
X167475952Y-72692249D01*
G37*
G36*
X167975951Y-67485249D02*
G01*
X167721951Y-67485249D01*
X167721951Y-66875649D01*
X167975951Y-66875649D01*
X167975951Y-67485249D01*
G37*
G36*
X167975951Y-72692249D02*
G01*
X167721951Y-72692249D01*
X167721951Y-72082649D01*
X167975951Y-72082649D01*
X167975951Y-72692249D01*
G37*
G36*
X168475950Y-67485249D02*
G01*
X168221950Y-67485249D01*
X168221950Y-66875649D01*
X168475950Y-66875649D01*
X168475950Y-67485249D01*
G37*
G36*
X168475950Y-72692249D02*
G01*
X168221950Y-72692249D01*
X168221950Y-72082649D01*
X168475950Y-72082649D01*
X168475950Y-72692249D01*
G37*
G36*
X169507251Y-68160950D02*
G01*
X168897651Y-68160950D01*
X168897651Y-67906950D01*
X169507251Y-67906950D01*
X169507251Y-68160950D01*
G37*
G36*
X169507251Y-68660949D02*
G01*
X168897651Y-68660949D01*
X168897651Y-68406949D01*
X169507251Y-68406949D01*
X169507251Y-68660949D01*
G37*
G36*
X169507251Y-69160948D02*
G01*
X168897651Y-69160948D01*
X168897651Y-68906948D01*
X169507251Y-68906948D01*
X169507251Y-69160948D01*
G37*
G36*
X169507251Y-69660949D02*
G01*
X168897651Y-69660949D01*
X168897651Y-69406949D01*
X169507251Y-69406949D01*
X169507251Y-69660949D01*
G37*
G36*
X169507251Y-70160949D02*
G01*
X168897651Y-70160949D01*
X168897651Y-69906949D01*
X169507251Y-69906949D01*
X169507251Y-70160949D01*
G37*
G36*
X169507251Y-70660950D02*
G01*
X168897651Y-70660950D01*
X168897651Y-70406950D01*
X169507251Y-70406950D01*
X169507251Y-70660950D01*
G37*
G36*
X169507251Y-71160949D02*
G01*
X168897651Y-71160949D01*
X168897651Y-70906949D01*
X169507251Y-70906949D01*
X169507251Y-71160949D01*
G37*
G36*
X169507251Y-71660948D02*
G01*
X168897651Y-71660948D01*
X168897651Y-71406948D01*
X169507251Y-71406948D01*
X169507251Y-71660948D01*
G37*
%TD*%
D11*
%TO.C,Q4*%
X155485000Y-102800003D03*
X156755000Y-102800003D03*
X158025000Y-102800003D03*
X159295000Y-102800003D03*
X159295000Y-97210001D03*
X158025000Y-97210001D03*
X156755000Y-97210001D03*
X155485000Y-97210001D03*
%TD*%
D12*
%TO.C,Q3*%
X160353952Y-95048949D03*
X160353952Y-93778949D03*
X160353952Y-92508949D03*
X160353952Y-91238949D03*
X154763950Y-91238949D03*
X154763950Y-92508949D03*
X154763950Y-93778949D03*
X154763950Y-95048949D03*
%TD*%
%TO.C,Q1*%
X128033946Y-91238949D03*
X128033946Y-92508949D03*
X128033946Y-93778949D03*
X128033946Y-95048949D03*
X133623948Y-95048949D03*
X133623948Y-93778949D03*
X133623948Y-92508949D03*
X133623948Y-91238949D03*
%TD*%
D11*
%TO.C,Q2*%
X129020000Y-102745002D03*
X130290000Y-102745002D03*
X131560000Y-102745002D03*
X132830000Y-102745002D03*
X132830000Y-97155000D03*
X131560000Y-97155000D03*
X130290000Y-97155000D03*
X129020000Y-97155000D03*
%TD*%
D13*
%TO.C,C16*%
X130762600Y-116880000D03*
X137417400Y-116880000D03*
%TD*%
D14*
%TO.C,R6*%
X133480000Y-133620000D03*
X133480000Y-131970000D03*
%TD*%
D15*
%TO.C,C11*%
X172130000Y-81990000D03*
X172130000Y-80090000D03*
%TD*%
D16*
%TO.C,D1*%
X160135200Y-61170000D03*
X157900000Y-61170000D03*
%TD*%
D14*
%TO.C,R5*%
X159443949Y-70398949D03*
X159443949Y-68748949D03*
%TD*%
D17*
%TO.C,C15*%
X168820000Y-65120000D03*
X170720000Y-65120000D03*
%TD*%
%TO.C,C7*%
X173770000Y-74370000D03*
X175670000Y-74370000D03*
%TD*%
D18*
%TO.C,C9*%
X159900000Y-72550000D03*
X158000000Y-72550000D03*
%TD*%
%TO.C,C5*%
X159440000Y-66850000D03*
X157540000Y-66850000D03*
%TD*%
D19*
%TO.C,R9*%
X175545000Y-70430000D03*
X173895000Y-70430000D03*
%TD*%
D13*
%TO.C,C17*%
X157687400Y-126110000D03*
X151032600Y-126110000D03*
%TD*%
D18*
%TO.C,C20*%
X112240000Y-63890000D03*
X110340000Y-63890000D03*
%TD*%
D14*
%TO.C,R4*%
X171780000Y-78485000D03*
X171780000Y-76835000D03*
%TD*%
D13*
%TO.C,C18*%
X157607400Y-116900000D03*
X150952600Y-116900000D03*
%TD*%
D16*
%TO.C,D2*%
X172032400Y-61200000D03*
X174267600Y-61200000D03*
%TD*%
D20*
%TO.C,L1*%
X117928950Y-93368948D03*
X107498951Y-93368948D03*
D21*
X112713949Y-115443949D03*
%TD*%
D22*
%TO.C,R7*%
X135190000Y-131970000D03*
X135190000Y-133620000D03*
%TD*%
D23*
%TO.C,C4*%
X132645149Y-84573949D03*
X139553949Y-84573949D03*
%TD*%
D24*
%TO.C,R10*%
X157226600Y-107950000D03*
X148133400Y-107950000D03*
%TD*%
D22*
%TO.C,R3*%
X168230000Y-76935000D03*
X168230000Y-78585000D03*
%TD*%
D15*
%TO.C,C2*%
X164070000Y-61460000D03*
X164070000Y-59560000D03*
%TD*%
D23*
%TO.C,C1*%
X132513949Y-65803949D03*
X139422749Y-65803949D03*
%TD*%
D15*
%TO.C,C10*%
X157495157Y-70543949D03*
X157495157Y-68643949D03*
%TD*%
D14*
%TO.C,R2*%
X167760000Y-62335000D03*
X167760000Y-60685000D03*
%TD*%
D18*
%TO.C,C13*%
X165305157Y-65083949D03*
X163405157Y-65083949D03*
%TD*%
D25*
%TO.C,U2*%
X174883949Y-79638949D03*
X174883949Y-80288949D03*
X174883949Y-80938949D03*
X174883949Y-81588949D03*
X179183949Y-81588949D03*
X179183949Y-80938949D03*
X179183949Y-80288949D03*
X179183949Y-79638949D03*
%TD*%
D26*
%TO.C,C8*%
X170010000Y-76840000D03*
X170010000Y-78740000D03*
%TD*%
D15*
%TO.C,C12*%
X166430000Y-78585000D03*
X166430000Y-76685000D03*
%TD*%
D22*
%TO.C,R1*%
X166070000Y-60705000D03*
X166070000Y-62355000D03*
%TD*%
D24*
%TO.C,R8*%
X132073400Y-108010000D03*
X141166600Y-108010000D03*
%TD*%
D18*
%TO.C,C19*%
X177920000Y-77350000D03*
X176020000Y-77350000D03*
%TD*%
D17*
%TO.C,C6*%
X173770000Y-72230000D03*
X175670000Y-72230000D03*
%TD*%
D27*
%TO.C,R11*%
X180790000Y-81800000D03*
X180790000Y-82820000D03*
%TD*%
D18*
%TO.C,C14*%
X175660000Y-68210000D03*
X173760000Y-68210000D03*
%TD*%
D28*
%TO.C,U3*%
X118798949Y-57971449D03*
X118148949Y-57971449D03*
X117498949Y-57971449D03*
X116848949Y-57971449D03*
X116198949Y-57971449D03*
X115548949Y-57971449D03*
X114898949Y-57971449D03*
X114248949Y-57971449D03*
X114248949Y-63696449D03*
X114898949Y-63696449D03*
X115548949Y-63696449D03*
X116198949Y-63696449D03*
X116848949Y-63696449D03*
X117498949Y-63696449D03*
X118148949Y-63696449D03*
X118798949Y-63696449D03*
%TD*%
D23*
%TO.C,C3*%
X132569549Y-75213949D03*
X139478349Y-75213949D03*
%TD*%
D20*
%TO.C,L2*%
X171504999Y-122115001D03*
X181934998Y-122115001D03*
D21*
X176720000Y-100040000D03*
%TD*%
M02*
