%TF.GenerationSoftware,KiCad,Pcbnew,8.0.5*%
%TF.CreationDate,2024-10-21T15:52:06-04:00*%
%TF.ProjectId,emberone,656d6265-726f-46e6-952e-6b696361645f,rev?*%
%TF.SameCoordinates,Original*%
%TF.FileFunction,Copper,L2,Inr*%
%TF.FilePolarity,Positive*%
%FSLAX46Y46*%
G04 Gerber Fmt 4.6, Leading zero omitted, Abs format (unit mm)*
G04 Created by KiCad (PCBNEW 8.0.5) date 2024-10-21 15:52:06*
%MOMM*%
%LPD*%
G01*
G04 APERTURE LIST*
%TA.AperFunction,ComponentPad*%
%ADD10C,1.300000*%
%TD*%
%TA.AperFunction,ComponentPad*%
%ADD11C,3.200000*%
%TD*%
%TA.AperFunction,ViaPad*%
%ADD12C,0.800000*%
%TD*%
%TA.AperFunction,ViaPad*%
%ADD13C,0.500000*%
%TD*%
%TA.AperFunction,ViaPad*%
%ADD14C,1.000000*%
%TD*%
G04 APERTURE END LIST*
D10*
%TO.N,GND*%
%TO.C,J3*%
X177530000Y-53040000D03*
X177530000Y-51040000D03*
%TO.N,/ASICs/SDA*%
X175530000Y-53040000D03*
%TO.N,/ASICs/SCL*%
X175530000Y-51040000D03*
%TO.N,/ASICs/PLUG*%
X173530000Y-53040000D03*
%TO.N,/ASICs/A2*%
X173530000Y-51040000D03*
%TO.N,/ASICs/A1*%
X171530000Y-53040000D03*
%TO.N,/ASICs/A0*%
X171530000Y-51040000D03*
%TO.N,GND*%
X169530000Y-53040000D03*
X169530000Y-51040000D03*
%TO.N,/ASICs/TXD*%
X167530000Y-53040000D03*
%TO.N,/ASICs/RXD*%
X167530000Y-51040000D03*
%TO.N,GND*%
X165530000Y-53040000D03*
X165530000Y-51040000D03*
%TO.N,/ASICs/RST*%
X163530000Y-53040000D03*
%TO.N,/ASICs/3V3*%
X163530000Y-51040000D03*
%TO.N,unconnected-(J3-Pin_17-Pad17)*%
X161530000Y-53040000D03*
%TO.N,unconnected-(J3-Pin_18-Pad18)*%
X161530000Y-51040000D03*
%TD*%
D11*
%TO.N,GND*%
%TO.C,J4*%
X146083949Y-136993949D03*
X146083949Y-129993949D03*
X141083949Y-136993949D03*
X141083949Y-129993949D03*
%TD*%
%TO.N,/Power/VIN*%
%TO.C,J1*%
X122543949Y-50963949D03*
X122543949Y-57963949D03*
X127543949Y-50963949D03*
X127543949Y-57963949D03*
%TD*%
%TO.N,/Power/VOUT*%
%TO.C,J5*%
X127520000Y-136900000D03*
X127520000Y-129900000D03*
X122520000Y-136900000D03*
X122520000Y-129900000D03*
%TD*%
%TO.N,GND*%
%TO.C,J2*%
X144053949Y-50963949D03*
X144053949Y-57963949D03*
X149053949Y-50963949D03*
X149053949Y-57963949D03*
%TD*%
D12*
%TO.N,GND*%
X115960000Y-65710000D03*
X116200000Y-56230000D03*
X110340000Y-62340000D03*
X179820000Y-82860000D03*
X173650000Y-81260000D03*
X174960000Y-78170000D03*
X177191600Y-74370000D03*
X177191600Y-72230000D03*
X175460000Y-66640000D03*
X156680000Y-72500000D03*
X155640000Y-68540000D03*
X157550000Y-65190000D03*
X169110000Y-60700000D03*
X164030000Y-58100000D03*
%TO.N,/ASICs/3V3*%
X112250000Y-62330000D03*
X114710000Y-65710000D03*
X179370000Y-77350000D03*
X181040000Y-79340000D03*
D13*
%TO.N,/ASICs/SDA*%
X173430753Y-78123697D03*
%TO.N,/ASICs/SCL*%
X173500000Y-78770000D03*
%TO.N,/ASICs/SDA*%
X111990000Y-65670000D03*
%TO.N,/ASICs/SCL*%
X112980000Y-65670000D03*
D14*
%TO.N,/Power/VOUT*%
X107190000Y-120490000D03*
X107190000Y-121860000D03*
X107190000Y-123220000D03*
X105600000Y-124610000D03*
X107190000Y-124610000D03*
X105600000Y-123220000D03*
X105600000Y-121860000D03*
X105600000Y-120490000D03*
X178310000Y-114950000D03*
X178310000Y-116540000D03*
X185440000Y-114980000D03*
X186830000Y-114980000D03*
X186830000Y-116570000D03*
X185440000Y-116570000D03*
D13*
%TO.N,Net-(D2-A)*%
X175700000Y-61280000D03*
%TO.N,Net-(D1-A)*%
X162493471Y-68033950D03*
X169350000Y-73140000D03*
%TO.N,Net-(Q3-G)*%
X160440000Y-89750000D03*
X167870000Y-66360000D03*
%TO.N,/Power/VIN_M*%
X166348951Y-63738951D03*
%TO.N,/Power/SW2*%
X166210000Y-95110000D03*
X170720000Y-66700000D03*
%TO.N,/Power/SW1*%
X134220000Y-99030000D03*
X161835157Y-67985157D03*
%TO.N,GND*%
X168950000Y-80150000D03*
%TO.N,/Power/OUT0*%
X181640000Y-80970000D03*
X135700000Y-127130000D03*
%TO.N,Net-(Q2-G)*%
X133910000Y-102340000D03*
X163140000Y-68533949D03*
%TO.N,Net-(Q4-G)*%
X160600000Y-102810000D03*
X171990000Y-68790000D03*
%TO.N,GND*%
X165450000Y-68680000D03*
X166588951Y-68683949D03*
X167660000Y-68680000D03*
X165450000Y-70820000D03*
X166588951Y-70823949D03*
X167660000Y-70820000D03*
X165460000Y-69780000D03*
X167670000Y-69780000D03*
X166598951Y-69783949D03*
X145900000Y-104480000D03*
X143350000Y-104600000D03*
X162820000Y-69530000D03*
X172780000Y-69550000D03*
D14*
%TO.N,/Power/VIN_M*%
X127963949Y-86803949D03*
X153440000Y-94770000D03*
X129353949Y-85213949D03*
X125233949Y-85213949D03*
X126603949Y-85213949D03*
X136793949Y-94103949D03*
X129353949Y-86803949D03*
X125233949Y-86803949D03*
X136793949Y-92743949D03*
X135203949Y-91373949D03*
X127963949Y-85213949D03*
X126603949Y-86803949D03*
X151850000Y-90650000D03*
X151850000Y-94770000D03*
X135203949Y-94103949D03*
X136793949Y-91373949D03*
X153440000Y-93380000D03*
X153440000Y-92020000D03*
X151850000Y-93380000D03*
X135200000Y-90010000D03*
X153440000Y-90650000D03*
X135203949Y-92743949D03*
X136790000Y-90010000D03*
X151850000Y-92020000D03*
D13*
%TO.N,Net-(U1-COMP1)*%
X167850000Y-73580000D03*
X165348951Y-75603951D03*
%TO.N,Net-(D2-A)*%
X170540000Y-73700000D03*
X171631208Y-68090000D03*
D14*
%TO.N,/Power/VOUT*%
X162310000Y-122120000D03*
X108710000Y-120480000D03*
X108710000Y-121850000D03*
X162310000Y-120730000D03*
X108710000Y-123210000D03*
X182580000Y-116530000D03*
X127630000Y-121450000D03*
X183970000Y-116530000D03*
X127630000Y-120060000D03*
X126040000Y-121450000D03*
X181220000Y-114940000D03*
X183970000Y-114940000D03*
X181220000Y-116530000D03*
X126040000Y-120060000D03*
X179850000Y-114940000D03*
X104080000Y-124630000D03*
X108710000Y-124600000D03*
X160720000Y-122120000D03*
X104080000Y-123240000D03*
X179850000Y-116530000D03*
X104080000Y-121880000D03*
X160720000Y-120730000D03*
X182580000Y-114940000D03*
X104080000Y-120510000D03*
D13*
%TO.N,Net-(Q1-G)*%
X136010000Y-96760000D03*
X161240000Y-66530000D03*
%TO.N,/Power/LOOP1*%
X162770000Y-70530000D03*
X134540000Y-103610000D03*
%TO.N,/Power/LOOP2*%
X159840000Y-104870000D03*
X171590000Y-70060000D03*
%TD*%
%TA.AperFunction,Conductor*%
%TO.N,GND*%
G36*
X165130000Y-51092661D02*
G01*
X165157259Y-51194394D01*
X165209920Y-51285606D01*
X165284394Y-51360080D01*
X165375606Y-51412741D01*
X165477339Y-51440000D01*
X165483553Y-51440000D01*
X164912991Y-52010560D01*
X164914749Y-52025709D01*
X164914749Y-52054286D01*
X164912991Y-52069439D01*
X165483553Y-52640000D01*
X165477339Y-52640000D01*
X165375606Y-52667259D01*
X165284394Y-52719920D01*
X165209920Y-52794394D01*
X165157259Y-52885606D01*
X165130000Y-52987339D01*
X165130000Y-52993552D01*
X164550670Y-52414222D01*
X164505230Y-52404237D01*
X164465933Y-52370258D01*
X164431046Y-52324061D01*
X164383872Y-52261593D01*
X164241317Y-52131636D01*
X164205036Y-52071926D01*
X164206797Y-52002078D01*
X164241318Y-51948363D01*
X164383870Y-51818409D01*
X164383872Y-51818407D01*
X164465936Y-51709737D01*
X164522043Y-51668103D01*
X164552721Y-51663725D01*
X165130000Y-51086446D01*
X165130000Y-51092661D01*
G37*
%TD.AperFunction*%
%TA.AperFunction,Conductor*%
G36*
X169130000Y-51092661D02*
G01*
X169157259Y-51194394D01*
X169209920Y-51285606D01*
X169284394Y-51360080D01*
X169375606Y-51412741D01*
X169477339Y-51440000D01*
X169483553Y-51440000D01*
X168912991Y-52010560D01*
X168914749Y-52025709D01*
X168914749Y-52054286D01*
X168912991Y-52069439D01*
X169483553Y-52640000D01*
X169477339Y-52640000D01*
X169375606Y-52667259D01*
X169284394Y-52719920D01*
X169209920Y-52794394D01*
X169157259Y-52885606D01*
X169130000Y-52987339D01*
X169130000Y-52993552D01*
X168550670Y-52414222D01*
X168505230Y-52404237D01*
X168465933Y-52370258D01*
X168431046Y-52324061D01*
X168383872Y-52261593D01*
X168241317Y-52131636D01*
X168205036Y-52071926D01*
X168206797Y-52002078D01*
X168241318Y-51948363D01*
X168383870Y-51818409D01*
X168383872Y-51818407D01*
X168465936Y-51709737D01*
X168522043Y-51668103D01*
X168552721Y-51663725D01*
X169130000Y-51086446D01*
X169130000Y-51092661D01*
G37*
%TD.AperFunction*%
%TA.AperFunction,Conductor*%
G36*
X177130000Y-51092661D02*
G01*
X177157259Y-51194394D01*
X177209920Y-51285606D01*
X177284394Y-51360080D01*
X177375606Y-51412741D01*
X177477339Y-51440000D01*
X177483553Y-51440000D01*
X176912991Y-52010560D01*
X176914749Y-52025709D01*
X176914749Y-52054286D01*
X176912991Y-52069439D01*
X177483553Y-52640000D01*
X177477339Y-52640000D01*
X177375606Y-52667259D01*
X177284394Y-52719920D01*
X177209920Y-52794394D01*
X177157259Y-52885606D01*
X177130000Y-52987339D01*
X177130000Y-52993552D01*
X176550670Y-52414222D01*
X176505230Y-52404237D01*
X176465933Y-52370258D01*
X176431046Y-52324061D01*
X176383872Y-52261593D01*
X176241317Y-52131636D01*
X176205036Y-52071926D01*
X176206797Y-52002078D01*
X176241318Y-51948363D01*
X176383870Y-51818409D01*
X176383872Y-51818407D01*
X176465936Y-51709737D01*
X176522043Y-51668103D01*
X176552721Y-51663725D01*
X177130000Y-51086446D01*
X177130000Y-51092661D01*
G37*
%TD.AperFunction*%
%TA.AperFunction,Conductor*%
G36*
X166509326Y-51665773D02*
G01*
X166554771Y-51675761D01*
X166594065Y-51709739D01*
X166676127Y-51818406D01*
X166818682Y-51948363D01*
X166854963Y-52008075D01*
X166853202Y-52077922D01*
X166818682Y-52131637D01*
X166676127Y-52261593D01*
X166594066Y-52370259D01*
X166537956Y-52411895D01*
X166507278Y-52416273D01*
X165930000Y-52993551D01*
X165930000Y-52987339D01*
X165902741Y-52885606D01*
X165850080Y-52794394D01*
X165775606Y-52719920D01*
X165684394Y-52667259D01*
X165582661Y-52640000D01*
X165576448Y-52640000D01*
X166147006Y-52069440D01*
X166145249Y-52054288D01*
X166145249Y-52025707D01*
X166147006Y-52010559D01*
X165576448Y-51440000D01*
X165582661Y-51440000D01*
X165684394Y-51412741D01*
X165775606Y-51360080D01*
X165850080Y-51285606D01*
X165902741Y-51194394D01*
X165930000Y-51092661D01*
X165930000Y-51086447D01*
X166509326Y-51665773D01*
G37*
%TD.AperFunction*%
%TA.AperFunction,Conductor*%
G36*
X170509326Y-51665773D02*
G01*
X170554771Y-51675761D01*
X170594065Y-51709739D01*
X170676127Y-51818406D01*
X170818682Y-51948363D01*
X170854963Y-52008075D01*
X170853202Y-52077922D01*
X170818682Y-52131637D01*
X170676127Y-52261593D01*
X170594066Y-52370259D01*
X170537956Y-52411895D01*
X170507278Y-52416273D01*
X169930000Y-52993551D01*
X169930000Y-52987339D01*
X169902741Y-52885606D01*
X169850080Y-52794394D01*
X169775606Y-52719920D01*
X169684394Y-52667259D01*
X169582661Y-52640000D01*
X169576448Y-52640000D01*
X170147006Y-52069440D01*
X170145249Y-52054288D01*
X170145249Y-52025707D01*
X170147006Y-52010559D01*
X169576448Y-51440000D01*
X169582661Y-51440000D01*
X169684394Y-51412741D01*
X169775606Y-51360080D01*
X169850080Y-51285606D01*
X169902741Y-51194394D01*
X169930000Y-51092661D01*
X169930000Y-51086447D01*
X170509326Y-51665773D01*
G37*
%TD.AperFunction*%
%TA.AperFunction,Conductor*%
G36*
X190460927Y-45000013D02*
G01*
X190606957Y-45002218D01*
X190619998Y-45003105D01*
X190910834Y-45038419D01*
X190925531Y-45041112D01*
X191209072Y-45110999D01*
X191223362Y-45115453D01*
X191496390Y-45218998D01*
X191510045Y-45225144D01*
X191768595Y-45360842D01*
X191781409Y-45368588D01*
X192021731Y-45534470D01*
X192033514Y-45543702D01*
X192252078Y-45737333D01*
X192262666Y-45747921D01*
X192456297Y-45966485D01*
X192465532Y-45978272D01*
X192631411Y-46218590D01*
X192639157Y-46231404D01*
X192774855Y-46489954D01*
X192781001Y-46503609D01*
X192884546Y-46776637D01*
X192889001Y-46790932D01*
X192958883Y-47074450D01*
X192961582Y-47089179D01*
X192996892Y-47379983D01*
X192997782Y-47393058D01*
X192999986Y-47539071D01*
X193000000Y-47540943D01*
X193000000Y-140459056D01*
X192999986Y-140460928D01*
X192997782Y-140606941D01*
X192996892Y-140620016D01*
X192961582Y-140910820D01*
X192958883Y-140925549D01*
X192889001Y-141209067D01*
X192884546Y-141223362D01*
X192781001Y-141496390D01*
X192774855Y-141510045D01*
X192639157Y-141768595D01*
X192631411Y-141781409D01*
X192465532Y-142021727D01*
X192456297Y-142033514D01*
X192262666Y-142252078D01*
X192252078Y-142262666D01*
X192033514Y-142456297D01*
X192021727Y-142465532D01*
X191781409Y-142631411D01*
X191768595Y-142639157D01*
X191510045Y-142774855D01*
X191496390Y-142781001D01*
X191223362Y-142884546D01*
X191209067Y-142889001D01*
X190925549Y-142958883D01*
X190910820Y-142961582D01*
X190620016Y-142996892D01*
X190606941Y-142997782D01*
X190519730Y-142999098D01*
X190460926Y-142999986D01*
X190459057Y-143000000D01*
X97540943Y-143000000D01*
X97539073Y-142999986D01*
X97458597Y-142998771D01*
X97393058Y-142997782D01*
X97379984Y-142996892D01*
X97089178Y-142961581D01*
X97074455Y-142958884D01*
X96935454Y-142924623D01*
X96790932Y-142889001D01*
X96776637Y-142884546D01*
X96503609Y-142781001D01*
X96489954Y-142774855D01*
X96231404Y-142639157D01*
X96218590Y-142631411D01*
X95978272Y-142465532D01*
X95966485Y-142456297D01*
X95747921Y-142262666D01*
X95737333Y-142252078D01*
X95543702Y-142033514D01*
X95534467Y-142021727D01*
X95368588Y-141781409D01*
X95360842Y-141768595D01*
X95225144Y-141510045D01*
X95218998Y-141496390D01*
X95115453Y-141223362D01*
X95110998Y-141209067D01*
X95041112Y-140925531D01*
X95038419Y-140910834D01*
X95003105Y-140619998D01*
X95002218Y-140606957D01*
X95000014Y-140460927D01*
X95000000Y-140459056D01*
X95000000Y-138868872D01*
X96999500Y-138868872D01*
X96999500Y-139131127D01*
X97026123Y-139333339D01*
X97033730Y-139391116D01*
X97101602Y-139644418D01*
X97101605Y-139644428D01*
X97201953Y-139886690D01*
X97201958Y-139886700D01*
X97333075Y-140113803D01*
X97492718Y-140321851D01*
X97492726Y-140321860D01*
X97678140Y-140507274D01*
X97678148Y-140507281D01*
X97886196Y-140666924D01*
X98113299Y-140798041D01*
X98113309Y-140798046D01*
X98355571Y-140898394D01*
X98355581Y-140898398D01*
X98608884Y-140966270D01*
X98868880Y-141000500D01*
X98868887Y-141000500D01*
X99131113Y-141000500D01*
X99131120Y-141000500D01*
X99391116Y-140966270D01*
X99644419Y-140898398D01*
X99886697Y-140798043D01*
X100113803Y-140666924D01*
X100321851Y-140507282D01*
X100321855Y-140507277D01*
X100321860Y-140507274D01*
X100507274Y-140321860D01*
X100507277Y-140321855D01*
X100507282Y-140321851D01*
X100666924Y-140113803D01*
X100798043Y-139886697D01*
X100898398Y-139644419D01*
X100966270Y-139391116D01*
X101000500Y-139131120D01*
X101000500Y-138868880D01*
X100966270Y-138608884D01*
X100898398Y-138355581D01*
X100845842Y-138228700D01*
X100798046Y-138113309D01*
X100798041Y-138113299D01*
X100666924Y-137886196D01*
X100507281Y-137678148D01*
X100507274Y-137678140D01*
X100321860Y-137492726D01*
X100321851Y-137492718D01*
X100113803Y-137333075D01*
X99886700Y-137201958D01*
X99886690Y-137201953D01*
X99644428Y-137101605D01*
X99644421Y-137101603D01*
X99644419Y-137101602D01*
X99391116Y-137033730D01*
X99333339Y-137026123D01*
X99131127Y-136999500D01*
X99131120Y-136999500D01*
X98868880Y-136999500D01*
X98868872Y-136999500D01*
X98637772Y-137029926D01*
X98608884Y-137033730D01*
X98355581Y-137101602D01*
X98355571Y-137101605D01*
X98113309Y-137201953D01*
X98113299Y-137201958D01*
X97886196Y-137333075D01*
X97678148Y-137492718D01*
X97492718Y-137678148D01*
X97333075Y-137886196D01*
X97201958Y-138113299D01*
X97201953Y-138113309D01*
X97101605Y-138355571D01*
X97101602Y-138355581D01*
X97033730Y-138608885D01*
X96999500Y-138868872D01*
X95000000Y-138868872D01*
X95000000Y-136900000D01*
X120414592Y-136900000D01*
X120434201Y-137186680D01*
X120434201Y-137186684D01*
X120434202Y-137186686D01*
X120437376Y-137201958D01*
X120492666Y-137468034D01*
X120492667Y-137468037D01*
X120588894Y-137738793D01*
X120588893Y-137738793D01*
X120721098Y-137993935D01*
X120886812Y-138228700D01*
X120971923Y-138319831D01*
X121082947Y-138438708D01*
X121292122Y-138608884D01*
X121305853Y-138620055D01*
X121551382Y-138769365D01*
X121738237Y-138850526D01*
X121814942Y-138883844D01*
X122091642Y-138961371D01*
X122341920Y-138995771D01*
X122376321Y-139000500D01*
X122376322Y-139000500D01*
X122663679Y-139000500D01*
X122694370Y-138996281D01*
X122948358Y-138961371D01*
X123225058Y-138883844D01*
X123338015Y-138834779D01*
X123488617Y-138769365D01*
X123488620Y-138769363D01*
X123488625Y-138769361D01*
X123734147Y-138620055D01*
X123957053Y-138438708D01*
X124153189Y-138228698D01*
X124318901Y-137993936D01*
X124451104Y-137738797D01*
X124547334Y-137468032D01*
X124605798Y-137186686D01*
X124625408Y-136900000D01*
X125414592Y-136900000D01*
X125434201Y-137186680D01*
X125434201Y-137186684D01*
X125434202Y-137186686D01*
X125437376Y-137201958D01*
X125492666Y-137468034D01*
X125492667Y-137468037D01*
X125588894Y-137738793D01*
X125588893Y-137738793D01*
X125721098Y-137993935D01*
X125886812Y-138228700D01*
X125971923Y-138319831D01*
X126082947Y-138438708D01*
X126292122Y-138608884D01*
X126305853Y-138620055D01*
X126551382Y-138769365D01*
X126738237Y-138850526D01*
X126814942Y-138883844D01*
X127091642Y-138961371D01*
X127341920Y-138995771D01*
X127376321Y-139000500D01*
X127376322Y-139000500D01*
X127663679Y-139000500D01*
X127694370Y-138996281D01*
X127948358Y-138961371D01*
X128225058Y-138883844D01*
X128259526Y-138868872D01*
X186999500Y-138868872D01*
X186999500Y-139131127D01*
X187026123Y-139333339D01*
X187033730Y-139391116D01*
X187101602Y-139644418D01*
X187101605Y-139644428D01*
X187201953Y-139886690D01*
X187201958Y-139886700D01*
X187333075Y-140113803D01*
X187492718Y-140321851D01*
X187492726Y-140321860D01*
X187678140Y-140507274D01*
X187678148Y-140507281D01*
X187886196Y-140666924D01*
X188113299Y-140798041D01*
X188113309Y-140798046D01*
X188355571Y-140898394D01*
X188355581Y-140898398D01*
X188608884Y-140966270D01*
X188868880Y-141000500D01*
X188868887Y-141000500D01*
X189131113Y-141000500D01*
X189131120Y-141000500D01*
X189391116Y-140966270D01*
X189644419Y-140898398D01*
X189886697Y-140798043D01*
X190113803Y-140666924D01*
X190321851Y-140507282D01*
X190321855Y-140507277D01*
X190321860Y-140507274D01*
X190507274Y-140321860D01*
X190507277Y-140321855D01*
X190507282Y-140321851D01*
X190666924Y-140113803D01*
X190798043Y-139886697D01*
X190898398Y-139644419D01*
X190966270Y-139391116D01*
X191000500Y-139131120D01*
X191000500Y-138868880D01*
X190966270Y-138608884D01*
X190898398Y-138355581D01*
X190845842Y-138228700D01*
X190798046Y-138113309D01*
X190798041Y-138113299D01*
X190666924Y-137886196D01*
X190507281Y-137678148D01*
X190507274Y-137678140D01*
X190321860Y-137492726D01*
X190321851Y-137492718D01*
X190113803Y-137333075D01*
X189886700Y-137201958D01*
X189886690Y-137201953D01*
X189644428Y-137101605D01*
X189644421Y-137101603D01*
X189644419Y-137101602D01*
X189391116Y-137033730D01*
X189333339Y-137026123D01*
X189131127Y-136999500D01*
X189131120Y-136999500D01*
X188868880Y-136999500D01*
X188868872Y-136999500D01*
X188637772Y-137029926D01*
X188608884Y-137033730D01*
X188355581Y-137101602D01*
X188355571Y-137101605D01*
X188113309Y-137201953D01*
X188113299Y-137201958D01*
X187886196Y-137333075D01*
X187678148Y-137492718D01*
X187492718Y-137678148D01*
X187333075Y-137886196D01*
X187201958Y-138113299D01*
X187201953Y-138113309D01*
X187101605Y-138355571D01*
X187101602Y-138355581D01*
X187033730Y-138608885D01*
X186999500Y-138868872D01*
X128259526Y-138868872D01*
X128338015Y-138834779D01*
X128488617Y-138769365D01*
X128488620Y-138769363D01*
X128488625Y-138769361D01*
X128734147Y-138620055D01*
X128957053Y-138438708D01*
X129153189Y-138228698D01*
X129318901Y-137993936D01*
X129451104Y-137738797D01*
X129547334Y-137468032D01*
X129605798Y-137186686D01*
X129625408Y-136900000D01*
X129605798Y-136613314D01*
X129547334Y-136331968D01*
X129451105Y-136061206D01*
X129451106Y-136061206D01*
X129318901Y-135806064D01*
X129153187Y-135571299D01*
X129074554Y-135487105D01*
X128957053Y-135361292D01*
X128734147Y-135179945D01*
X128734146Y-135179944D01*
X128488617Y-135030634D01*
X128225063Y-134916158D01*
X128225061Y-134916157D01*
X128225058Y-134916156D01*
X128095578Y-134879877D01*
X127948364Y-134838630D01*
X127948359Y-134838629D01*
X127948358Y-134838629D01*
X127806018Y-134819064D01*
X127663679Y-134799500D01*
X127663678Y-134799500D01*
X127376322Y-134799500D01*
X127376321Y-134799500D01*
X127091642Y-134838629D01*
X127091635Y-134838630D01*
X126883861Y-134896845D01*
X126814942Y-134916156D01*
X126814939Y-134916156D01*
X126814936Y-134916158D01*
X126814935Y-134916158D01*
X126551382Y-135030634D01*
X126305853Y-135179944D01*
X126082950Y-135361289D01*
X125886812Y-135571299D01*
X125721098Y-135806064D01*
X125588894Y-136061206D01*
X125492667Y-136331962D01*
X125492666Y-136331965D01*
X125434201Y-136613319D01*
X125414592Y-136900000D01*
X124625408Y-136900000D01*
X124605798Y-136613314D01*
X124547334Y-136331968D01*
X124451105Y-136061206D01*
X124451106Y-136061206D01*
X124318901Y-135806064D01*
X124153187Y-135571299D01*
X124074554Y-135487105D01*
X123957053Y-135361292D01*
X123734147Y-135179945D01*
X123734146Y-135179944D01*
X123488617Y-135030634D01*
X123225063Y-134916158D01*
X123225061Y-134916157D01*
X123225058Y-134916156D01*
X123095578Y-134879877D01*
X122948364Y-134838630D01*
X122948359Y-134838629D01*
X122948358Y-134838629D01*
X122806018Y-134819064D01*
X122663679Y-134799500D01*
X122663678Y-134799500D01*
X122376322Y-134799500D01*
X122376321Y-134799500D01*
X122091642Y-134838629D01*
X122091635Y-134838630D01*
X121883861Y-134896845D01*
X121814942Y-134916156D01*
X121814939Y-134916156D01*
X121814936Y-134916158D01*
X121814935Y-134916158D01*
X121551382Y-135030634D01*
X121305853Y-135179944D01*
X121082950Y-135361289D01*
X120886812Y-135571299D01*
X120721098Y-135806064D01*
X120588894Y-136061206D01*
X120492667Y-136331962D01*
X120492666Y-136331965D01*
X120434201Y-136613319D01*
X120414592Y-136900000D01*
X95000000Y-136900000D01*
X95000000Y-129900000D01*
X120414592Y-129900000D01*
X120434201Y-130186680D01*
X120492666Y-130468034D01*
X120492667Y-130468037D01*
X120588894Y-130738793D01*
X120588893Y-130738793D01*
X120721098Y-130993935D01*
X120886812Y-131228700D01*
X120971923Y-131319831D01*
X121082947Y-131438708D01*
X121305853Y-131620055D01*
X121551382Y-131769365D01*
X121738237Y-131850526D01*
X121814942Y-131883844D01*
X122091642Y-131961371D01*
X122341920Y-131995771D01*
X122376321Y-132000500D01*
X122376322Y-132000500D01*
X122663679Y-132000500D01*
X122694370Y-131996281D01*
X122948358Y-131961371D01*
X123225058Y-131883844D01*
X123338015Y-131834779D01*
X123488617Y-131769365D01*
X123488620Y-131769363D01*
X123488625Y-131769361D01*
X123734147Y-131620055D01*
X123957053Y-131438708D01*
X124153189Y-131228698D01*
X124318901Y-130993936D01*
X124451104Y-130738797D01*
X124547334Y-130468032D01*
X124605798Y-130186686D01*
X124625408Y-129900000D01*
X125414592Y-129900000D01*
X125434201Y-130186680D01*
X125492666Y-130468034D01*
X125492667Y-130468037D01*
X125588894Y-130738793D01*
X125588893Y-130738793D01*
X125721098Y-130993935D01*
X125886812Y-131228700D01*
X125971923Y-131319831D01*
X126082947Y-131438708D01*
X126305853Y-131620055D01*
X126551382Y-131769365D01*
X126738237Y-131850526D01*
X126814942Y-131883844D01*
X127091642Y-131961371D01*
X127341920Y-131995771D01*
X127376321Y-132000500D01*
X127376322Y-132000500D01*
X127663679Y-132000500D01*
X127694370Y-131996281D01*
X127948358Y-131961371D01*
X128225058Y-131883844D01*
X128338015Y-131834779D01*
X128488617Y-131769365D01*
X128488620Y-131769363D01*
X128488625Y-131769361D01*
X128734147Y-131620055D01*
X128957053Y-131438708D01*
X129153189Y-131228698D01*
X129318901Y-130993936D01*
X129451104Y-130738797D01*
X129547334Y-130468032D01*
X129605798Y-130186686D01*
X129625408Y-129900000D01*
X129605798Y-129613314D01*
X129547334Y-129331968D01*
X129451105Y-129061206D01*
X129451106Y-129061206D01*
X129318901Y-128806064D01*
X129153187Y-128571299D01*
X129074554Y-128487105D01*
X128957053Y-128361292D01*
X128734147Y-128179945D01*
X128734146Y-128179944D01*
X128488617Y-128030634D01*
X128225063Y-127916158D01*
X128225061Y-127916157D01*
X128225058Y-127916156D01*
X128095578Y-127879877D01*
X127948364Y-127838630D01*
X127948359Y-127838629D01*
X127948358Y-127838629D01*
X127743373Y-127810454D01*
X127663679Y-127799500D01*
X127663678Y-127799500D01*
X127376322Y-127799500D01*
X127376321Y-127799500D01*
X127091642Y-127838629D01*
X127091635Y-127838630D01*
X126883861Y-127896845D01*
X126814942Y-127916156D01*
X126814939Y-127916156D01*
X126814936Y-127916158D01*
X126814935Y-127916158D01*
X126551382Y-128030634D01*
X126305853Y-128179944D01*
X126082950Y-128361289D01*
X125886812Y-128571299D01*
X125721098Y-128806064D01*
X125588894Y-129061206D01*
X125492667Y-129331962D01*
X125492666Y-129331965D01*
X125434201Y-129613319D01*
X125414592Y-129900000D01*
X124625408Y-129900000D01*
X124605798Y-129613314D01*
X124547334Y-129331968D01*
X124451105Y-129061206D01*
X124451106Y-129061206D01*
X124318901Y-128806064D01*
X124153187Y-128571299D01*
X124074554Y-128487105D01*
X123957053Y-128361292D01*
X123734147Y-128179945D01*
X123734146Y-128179944D01*
X123488617Y-128030634D01*
X123225063Y-127916158D01*
X123225061Y-127916157D01*
X123225058Y-127916156D01*
X123095578Y-127879877D01*
X122948364Y-127838630D01*
X122948359Y-127838629D01*
X122948358Y-127838629D01*
X122743373Y-127810454D01*
X122663679Y-127799500D01*
X122663678Y-127799500D01*
X122376322Y-127799500D01*
X122376321Y-127799500D01*
X122091642Y-127838629D01*
X122091635Y-127838630D01*
X121883861Y-127896845D01*
X121814942Y-127916156D01*
X121814939Y-127916156D01*
X121814936Y-127916158D01*
X121814935Y-127916158D01*
X121551382Y-128030634D01*
X121305853Y-128179944D01*
X121082950Y-128361289D01*
X120886812Y-128571299D01*
X120721098Y-128806064D01*
X120588894Y-129061206D01*
X120492667Y-129331962D01*
X120492666Y-129331965D01*
X120434201Y-129613319D01*
X120414592Y-129900000D01*
X95000000Y-129900000D01*
X95000000Y-127129997D01*
X134944751Y-127129997D01*
X134944751Y-127130002D01*
X134963685Y-127298056D01*
X135019545Y-127457694D01*
X135019547Y-127457697D01*
X135109518Y-127600884D01*
X135109523Y-127600890D01*
X135229109Y-127720476D01*
X135229115Y-127720481D01*
X135372302Y-127810452D01*
X135372305Y-127810454D01*
X135372309Y-127810455D01*
X135372310Y-127810456D01*
X135444913Y-127835860D01*
X135531943Y-127866314D01*
X135699997Y-127885249D01*
X135700000Y-127885249D01*
X135700003Y-127885249D01*
X135868056Y-127866314D01*
X135868059Y-127866313D01*
X136027690Y-127810456D01*
X136027692Y-127810454D01*
X136027694Y-127810454D01*
X136027697Y-127810452D01*
X136170884Y-127720481D01*
X136170885Y-127720480D01*
X136170890Y-127720477D01*
X136290477Y-127600890D01*
X136380452Y-127457697D01*
X136380454Y-127457694D01*
X136380454Y-127457692D01*
X136380456Y-127457690D01*
X136436313Y-127298059D01*
X136436313Y-127298058D01*
X136436314Y-127298056D01*
X136455249Y-127130002D01*
X136455249Y-127129997D01*
X136436314Y-126961943D01*
X136380454Y-126802305D01*
X136380452Y-126802302D01*
X136290481Y-126659115D01*
X136290476Y-126659109D01*
X136170890Y-126539523D01*
X136170884Y-126539518D01*
X136027697Y-126449547D01*
X136027694Y-126449545D01*
X135868056Y-126393685D01*
X135700003Y-126374751D01*
X135699997Y-126374751D01*
X135531943Y-126393685D01*
X135372305Y-126449545D01*
X135372302Y-126449547D01*
X135229115Y-126539518D01*
X135229109Y-126539523D01*
X135109523Y-126659109D01*
X135109518Y-126659115D01*
X135019547Y-126802302D01*
X135019545Y-126802305D01*
X134963685Y-126961943D01*
X134944751Y-127129997D01*
X95000000Y-127129997D01*
X95000000Y-120510000D01*
X103074659Y-120510000D01*
X103093975Y-120706129D01*
X103093976Y-120706132D01*
X103142087Y-120864733D01*
X103151188Y-120894733D01*
X103244086Y-121068532D01*
X103244090Y-121068538D01*
X103283316Y-121116336D01*
X103310628Y-121180646D01*
X103298837Y-121249513D01*
X103283316Y-121273664D01*
X103244090Y-121321461D01*
X103244086Y-121321467D01*
X103151188Y-121495266D01*
X103093975Y-121683870D01*
X103074659Y-121880000D01*
X103093975Y-122076129D01*
X103093976Y-122076132D01*
X103142087Y-122234733D01*
X103151188Y-122264733D01*
X103244086Y-122438532D01*
X103244091Y-122438539D01*
X103279212Y-122481335D01*
X103306525Y-122545645D01*
X103294734Y-122614513D01*
X103279212Y-122638665D01*
X103244091Y-122681460D01*
X103244086Y-122681467D01*
X103151188Y-122855266D01*
X103093975Y-123043870D01*
X103074659Y-123240000D01*
X103093975Y-123436129D01*
X103093976Y-123436132D01*
X103142086Y-123594730D01*
X103151188Y-123624733D01*
X103244086Y-123798532D01*
X103244090Y-123798538D01*
X103291523Y-123856336D01*
X103318835Y-123920646D01*
X103307044Y-123989513D01*
X103291523Y-124013664D01*
X103244090Y-124071461D01*
X103244086Y-124071467D01*
X103151188Y-124245266D01*
X103093975Y-124433870D01*
X103074659Y-124630000D01*
X103093975Y-124826129D01*
X103093976Y-124826132D01*
X103142087Y-124984733D01*
X103151188Y-125014733D01*
X103244086Y-125188532D01*
X103244090Y-125188539D01*
X103369116Y-125340883D01*
X103521460Y-125465909D01*
X103521467Y-125465913D01*
X103695266Y-125558811D01*
X103695269Y-125558811D01*
X103695273Y-125558814D01*
X103883868Y-125616024D01*
X104080000Y-125635341D01*
X104276132Y-125616024D01*
X104464727Y-125558814D01*
X104502145Y-125538814D01*
X104638532Y-125465913D01*
X104638538Y-125465910D01*
X104773520Y-125355131D01*
X104837828Y-125327819D01*
X104906696Y-125339610D01*
X104930849Y-125355132D01*
X105041460Y-125445909D01*
X105041467Y-125445913D01*
X105215266Y-125538811D01*
X105215269Y-125538811D01*
X105215273Y-125538814D01*
X105403868Y-125596024D01*
X105600000Y-125615341D01*
X105796132Y-125596024D01*
X105984727Y-125538814D01*
X106003442Y-125528811D01*
X106121115Y-125465913D01*
X106158538Y-125445910D01*
X106194781Y-125416165D01*
X106315592Y-125317019D01*
X106317242Y-125319029D01*
X106368642Y-125290963D01*
X106438334Y-125295947D01*
X106473273Y-125318401D01*
X106474408Y-125317019D01*
X106631460Y-125445909D01*
X106631467Y-125445913D01*
X106805266Y-125538811D01*
X106805269Y-125538811D01*
X106805273Y-125538814D01*
X106993868Y-125596024D01*
X107190000Y-125615341D01*
X107386132Y-125596024D01*
X107574727Y-125538814D01*
X107593442Y-125528811D01*
X107711115Y-125465913D01*
X107748538Y-125445910D01*
X107848407Y-125363948D01*
X107877427Y-125340133D01*
X107941737Y-125312820D01*
X108010604Y-125324611D01*
X108034757Y-125340133D01*
X108151460Y-125435909D01*
X108151467Y-125435913D01*
X108325266Y-125528811D01*
X108325269Y-125528811D01*
X108325273Y-125528814D01*
X108513868Y-125586024D01*
X108710000Y-125605341D01*
X108906132Y-125586024D01*
X109094727Y-125528814D01*
X109268538Y-125435910D01*
X109420883Y-125310883D01*
X109545910Y-125158538D01*
X109592362Y-125071632D01*
X109638811Y-124984733D01*
X109638811Y-124984732D01*
X109638814Y-124984727D01*
X109696024Y-124796132D01*
X109715341Y-124600000D01*
X109696024Y-124403868D01*
X109638814Y-124215273D01*
X109545910Y-124041462D01*
X109498475Y-123983663D01*
X109471163Y-123919356D01*
X109482954Y-123850488D01*
X109498473Y-123826338D01*
X109545910Y-123768538D01*
X109638814Y-123594727D01*
X109696024Y-123406132D01*
X109715341Y-123210000D01*
X109696024Y-123013868D01*
X109638814Y-122825273D01*
X109638811Y-122825269D01*
X109638811Y-122825266D01*
X109545913Y-122651467D01*
X109545908Y-122651459D01*
X109510788Y-122608666D01*
X109483474Y-122544356D01*
X109495265Y-122475488D01*
X109510788Y-122451334D01*
X109545908Y-122408540D01*
X109545910Y-122408538D01*
X109595304Y-122316129D01*
X109638811Y-122234733D01*
X109638811Y-122234732D01*
X109638814Y-122234727D01*
X109696024Y-122046132D01*
X109715341Y-121850000D01*
X109696024Y-121653868D01*
X109638814Y-121465273D01*
X109638811Y-121465269D01*
X109638811Y-121465266D01*
X109545913Y-121291467D01*
X109545908Y-121291459D01*
X109523257Y-121263860D01*
X109506683Y-121243665D01*
X109479370Y-121179357D01*
X109491160Y-121110489D01*
X109506684Y-121086334D01*
X109523972Y-121065269D01*
X109545910Y-121038538D01*
X109605994Y-120926129D01*
X109638811Y-120864733D01*
X109638811Y-120864732D01*
X109638814Y-120864727D01*
X109696024Y-120676132D01*
X109715341Y-120480000D01*
X109696024Y-120283868D01*
X109638814Y-120095273D01*
X109638811Y-120095269D01*
X109638811Y-120095266D01*
X109619961Y-120060000D01*
X125034659Y-120060000D01*
X125053975Y-120256129D01*
X125111188Y-120444733D01*
X125204086Y-120618532D01*
X125204090Y-120618538D01*
X125251523Y-120676336D01*
X125278835Y-120740646D01*
X125267044Y-120809513D01*
X125251523Y-120833664D01*
X125204090Y-120891461D01*
X125204086Y-120891467D01*
X125111188Y-121065266D01*
X125053975Y-121253870D01*
X125034659Y-121450000D01*
X125053975Y-121646129D01*
X125111188Y-121834733D01*
X125204086Y-122008532D01*
X125204090Y-122008539D01*
X125329116Y-122160883D01*
X125481460Y-122285909D01*
X125481467Y-122285913D01*
X125655266Y-122378811D01*
X125655269Y-122378811D01*
X125655273Y-122378814D01*
X125843868Y-122436024D01*
X126040000Y-122455341D01*
X126236132Y-122436024D01*
X126424727Y-122378814D01*
X126598538Y-122285910D01*
X126660904Y-122234727D01*
X126755592Y-122157019D01*
X126757242Y-122159029D01*
X126808642Y-122130963D01*
X126878334Y-122135947D01*
X126913273Y-122158401D01*
X126914408Y-122157019D01*
X127071460Y-122285909D01*
X127071467Y-122285913D01*
X127245266Y-122378811D01*
X127245269Y-122378811D01*
X127245273Y-122378814D01*
X127433868Y-122436024D01*
X127630000Y-122455341D01*
X127826132Y-122436024D01*
X128014727Y-122378814D01*
X128188538Y-122285910D01*
X128340883Y-122160883D01*
X128465910Y-122008538D01*
X128534615Y-121880000D01*
X128558811Y-121834733D01*
X128558811Y-121834732D01*
X128558814Y-121834727D01*
X128616024Y-121646132D01*
X128635341Y-121450000D01*
X128616024Y-121253868D01*
X128558814Y-121065273D01*
X128465910Y-120891462D01*
X128418475Y-120833663D01*
X128391163Y-120769356D01*
X128397901Y-120730000D01*
X159714659Y-120730000D01*
X159733975Y-120926129D01*
X159733976Y-120926132D01*
X159789900Y-121110489D01*
X159791188Y-121114733D01*
X159884086Y-121288532D01*
X159884090Y-121288538D01*
X159931523Y-121346336D01*
X159958835Y-121410646D01*
X159947044Y-121479513D01*
X159931523Y-121503664D01*
X159884090Y-121561461D01*
X159884086Y-121561467D01*
X159791188Y-121735266D01*
X159733975Y-121923870D01*
X159714659Y-122120000D01*
X159733975Y-122316129D01*
X159733976Y-122316132D01*
X159782316Y-122475488D01*
X159791188Y-122504733D01*
X159884086Y-122678532D01*
X159884090Y-122678539D01*
X160009116Y-122830883D01*
X160161460Y-122955909D01*
X160161467Y-122955913D01*
X160335266Y-123048811D01*
X160335269Y-123048811D01*
X160335273Y-123048814D01*
X160523868Y-123106024D01*
X160720000Y-123125341D01*
X160916132Y-123106024D01*
X161104727Y-123048814D01*
X161113981Y-123043868D01*
X161278532Y-122955913D01*
X161278538Y-122955910D01*
X161401164Y-122855273D01*
X161435592Y-122827019D01*
X161437242Y-122829029D01*
X161488642Y-122800963D01*
X161558334Y-122805947D01*
X161593273Y-122828401D01*
X161594408Y-122827019D01*
X161751460Y-122955909D01*
X161751467Y-122955913D01*
X161925266Y-123048811D01*
X161925269Y-123048811D01*
X161925273Y-123048814D01*
X162113868Y-123106024D01*
X162310000Y-123125341D01*
X162506132Y-123106024D01*
X162694727Y-123048814D01*
X162703981Y-123043868D01*
X162868532Y-122955913D01*
X162868538Y-122955910D01*
X163020883Y-122830883D01*
X163145910Y-122678538D01*
X163230098Y-122521034D01*
X163238811Y-122504733D01*
X163238811Y-122504732D01*
X163238814Y-122504727D01*
X163296024Y-122316132D01*
X163315341Y-122120000D01*
X163296024Y-121923868D01*
X163238814Y-121735273D01*
X163145910Y-121561462D01*
X163098475Y-121503663D01*
X163071163Y-121439356D01*
X163082954Y-121370488D01*
X163098473Y-121346338D01*
X163145910Y-121288538D01*
X163238814Y-121114727D01*
X163296024Y-120926132D01*
X163315341Y-120730000D01*
X163296024Y-120533868D01*
X163238814Y-120345273D01*
X163238811Y-120345269D01*
X163238811Y-120345266D01*
X163145913Y-120171467D01*
X163145909Y-120171460D01*
X163020883Y-120019116D01*
X162868539Y-119894090D01*
X162868532Y-119894086D01*
X162694733Y-119801188D01*
X162694727Y-119801186D01*
X162506132Y-119743976D01*
X162506129Y-119743975D01*
X162310000Y-119724659D01*
X162113870Y-119743975D01*
X161925266Y-119801188D01*
X161751467Y-119894086D01*
X161751460Y-119894090D01*
X161594408Y-120022981D01*
X161592757Y-120020970D01*
X161541358Y-120049037D01*
X161471666Y-120044053D01*
X161436726Y-120021598D01*
X161435592Y-120022981D01*
X161278539Y-119894090D01*
X161278532Y-119894086D01*
X161104733Y-119801188D01*
X161104727Y-119801186D01*
X160916132Y-119743976D01*
X160916129Y-119743975D01*
X160720000Y-119724659D01*
X160523870Y-119743975D01*
X160335266Y-119801188D01*
X160161467Y-119894086D01*
X160161460Y-119894090D01*
X160009116Y-120019116D01*
X159884090Y-120171460D01*
X159884086Y-120171467D01*
X159791188Y-120345266D01*
X159733975Y-120533870D01*
X159714659Y-120730000D01*
X128397901Y-120730000D01*
X128402954Y-120700488D01*
X128418473Y-120676338D01*
X128465910Y-120618538D01*
X128558814Y-120444727D01*
X128616024Y-120256132D01*
X128635341Y-120060000D01*
X128616024Y-119863868D01*
X128558814Y-119675273D01*
X128558811Y-119675269D01*
X128558811Y-119675266D01*
X128465913Y-119501467D01*
X128465909Y-119501460D01*
X128340883Y-119349116D01*
X128188539Y-119224090D01*
X128188532Y-119224086D01*
X128014733Y-119131188D01*
X128014727Y-119131186D01*
X127826132Y-119073976D01*
X127826129Y-119073975D01*
X127630000Y-119054659D01*
X127433870Y-119073975D01*
X127245266Y-119131188D01*
X127071467Y-119224086D01*
X127071460Y-119224090D01*
X126914408Y-119352981D01*
X126912757Y-119350970D01*
X126861358Y-119379037D01*
X126791666Y-119374053D01*
X126756726Y-119351598D01*
X126755592Y-119352981D01*
X126598539Y-119224090D01*
X126598532Y-119224086D01*
X126424733Y-119131188D01*
X126424727Y-119131186D01*
X126236132Y-119073976D01*
X126236129Y-119073975D01*
X126040000Y-119054659D01*
X125843870Y-119073975D01*
X125655266Y-119131188D01*
X125481467Y-119224086D01*
X125481460Y-119224090D01*
X125329116Y-119349116D01*
X125204090Y-119501460D01*
X125204086Y-119501467D01*
X125111188Y-119675266D01*
X125053975Y-119863870D01*
X125034659Y-120060000D01*
X109619961Y-120060000D01*
X109545913Y-119921467D01*
X109545909Y-119921460D01*
X109420883Y-119769116D01*
X109268539Y-119644090D01*
X109268532Y-119644086D01*
X109094733Y-119551188D01*
X109094727Y-119551186D01*
X108941349Y-119504659D01*
X108906129Y-119493975D01*
X108710000Y-119474659D01*
X108513870Y-119493975D01*
X108325266Y-119551188D01*
X108151467Y-119644086D01*
X108151461Y-119644090D01*
X108022571Y-119749867D01*
X107958261Y-119777179D01*
X107889394Y-119765388D01*
X107865242Y-119749866D01*
X107748539Y-119654090D01*
X107748532Y-119654086D01*
X107574733Y-119561188D01*
X107574727Y-119561186D01*
X107386132Y-119503976D01*
X107386129Y-119503975D01*
X107190000Y-119484659D01*
X106993870Y-119503975D01*
X106805266Y-119561188D01*
X106631467Y-119654086D01*
X106631460Y-119654090D01*
X106474408Y-119782981D01*
X106472757Y-119780970D01*
X106421358Y-119809037D01*
X106351666Y-119804053D01*
X106316726Y-119781598D01*
X106315592Y-119782981D01*
X106158539Y-119654090D01*
X106158532Y-119654086D01*
X105984733Y-119561188D01*
X105984727Y-119561186D01*
X105796132Y-119503976D01*
X105796129Y-119503975D01*
X105600000Y-119484659D01*
X105403870Y-119503975D01*
X105215266Y-119561188D01*
X105041467Y-119654086D01*
X105041460Y-119654091D01*
X104906480Y-119764866D01*
X104842170Y-119792179D01*
X104773302Y-119780388D01*
X104749150Y-119764866D01*
X104638539Y-119674091D01*
X104638532Y-119674086D01*
X104464733Y-119581188D01*
X104464727Y-119581186D01*
X104276132Y-119523976D01*
X104276129Y-119523975D01*
X104080000Y-119504659D01*
X103883870Y-119523975D01*
X103695266Y-119581188D01*
X103521467Y-119674086D01*
X103521460Y-119674090D01*
X103369116Y-119799116D01*
X103244090Y-119951460D01*
X103244086Y-119951467D01*
X103151188Y-120125266D01*
X103093975Y-120313870D01*
X103074659Y-120510000D01*
X95000000Y-120510000D01*
X95000000Y-114950000D01*
X177304659Y-114950000D01*
X177323975Y-115146129D01*
X177381188Y-115334733D01*
X177474086Y-115508532D01*
X177474090Y-115508539D01*
X177602981Y-115665592D01*
X177600970Y-115667242D01*
X177629037Y-115718642D01*
X177624053Y-115788334D01*
X177601598Y-115823273D01*
X177602981Y-115824408D01*
X177474090Y-115981460D01*
X177474086Y-115981467D01*
X177381188Y-116155266D01*
X177323975Y-116343870D01*
X177304659Y-116540000D01*
X177323975Y-116736129D01*
X177381188Y-116924733D01*
X177474086Y-117098532D01*
X177474090Y-117098539D01*
X177599116Y-117250883D01*
X177751460Y-117375909D01*
X177751467Y-117375913D01*
X177925266Y-117468811D01*
X177925269Y-117468811D01*
X177925273Y-117468814D01*
X178113868Y-117526024D01*
X178310000Y-117545341D01*
X178506132Y-117526024D01*
X178694727Y-117468814D01*
X178713440Y-117458812D01*
X178868532Y-117375913D01*
X178868538Y-117375910D01*
X179007427Y-117261925D01*
X179071737Y-117234613D01*
X179140604Y-117246404D01*
X179164757Y-117261926D01*
X179291460Y-117365909D01*
X179291467Y-117365913D01*
X179465266Y-117458811D01*
X179465269Y-117458811D01*
X179465273Y-117458814D01*
X179653868Y-117516024D01*
X179850000Y-117535341D01*
X180046132Y-117516024D01*
X180234727Y-117458814D01*
X180408538Y-117365910D01*
X180456334Y-117326683D01*
X180520643Y-117299370D01*
X180589511Y-117311160D01*
X180613664Y-117326682D01*
X180619123Y-117331163D01*
X180661459Y-117365908D01*
X180661467Y-117365913D01*
X180835266Y-117458811D01*
X180835269Y-117458811D01*
X180835273Y-117458814D01*
X181023868Y-117516024D01*
X181220000Y-117535341D01*
X181416132Y-117516024D01*
X181604727Y-117458814D01*
X181778538Y-117365910D01*
X181821334Y-117330788D01*
X181885644Y-117303474D01*
X181954512Y-117315265D01*
X181978666Y-117330788D01*
X182021459Y-117365908D01*
X182021467Y-117365913D01*
X182195266Y-117458811D01*
X182195269Y-117458811D01*
X182195273Y-117458814D01*
X182383868Y-117516024D01*
X182580000Y-117535341D01*
X182776132Y-117516024D01*
X182964727Y-117458814D01*
X183138538Y-117365910D01*
X183196336Y-117318475D01*
X183260644Y-117291163D01*
X183329512Y-117302954D01*
X183353661Y-117318473D01*
X183411462Y-117365910D01*
X183585273Y-117458814D01*
X183773868Y-117516024D01*
X183970000Y-117535341D01*
X184166132Y-117516024D01*
X184354727Y-117458814D01*
X184528538Y-117365910D01*
X184601966Y-117305648D01*
X184666273Y-117278337D01*
X184735141Y-117290128D01*
X184759294Y-117305650D01*
X184844906Y-117375909D01*
X184881462Y-117405910D01*
X184881465Y-117405911D01*
X184881467Y-117405913D01*
X185055266Y-117498811D01*
X185055269Y-117498811D01*
X185055273Y-117498814D01*
X185243868Y-117556024D01*
X185440000Y-117575341D01*
X185636132Y-117556024D01*
X185824727Y-117498814D01*
X185998538Y-117405910D01*
X186056336Y-117358475D01*
X186120644Y-117331163D01*
X186189512Y-117342954D01*
X186213661Y-117358473D01*
X186271462Y-117405910D01*
X186445273Y-117498814D01*
X186633868Y-117556024D01*
X186830000Y-117575341D01*
X187026132Y-117556024D01*
X187214727Y-117498814D01*
X187388538Y-117405910D01*
X187540883Y-117280883D01*
X187665910Y-117128538D01*
X187758814Y-116954727D01*
X187816024Y-116766132D01*
X187835341Y-116570000D01*
X187816024Y-116373868D01*
X187758814Y-116185273D01*
X187758811Y-116185269D01*
X187758811Y-116185266D01*
X187665913Y-116011467D01*
X187665909Y-116011460D01*
X187537019Y-115854408D01*
X187539029Y-115852757D01*
X187510963Y-115801358D01*
X187515947Y-115731666D01*
X187538401Y-115696726D01*
X187537019Y-115695592D01*
X187665909Y-115538539D01*
X187665913Y-115538532D01*
X187681949Y-115508532D01*
X187758814Y-115364727D01*
X187816024Y-115176132D01*
X187835341Y-114980000D01*
X187816024Y-114783868D01*
X187758814Y-114595273D01*
X187758811Y-114595269D01*
X187758811Y-114595266D01*
X187665913Y-114421467D01*
X187665909Y-114421460D01*
X187540883Y-114269116D01*
X187388539Y-114144090D01*
X187388532Y-114144086D01*
X187214733Y-114051188D01*
X187214727Y-114051186D01*
X187026132Y-113993976D01*
X187026129Y-113993975D01*
X186830000Y-113974659D01*
X186633870Y-113993975D01*
X186445266Y-114051188D01*
X186271467Y-114144086D01*
X186271461Y-114144090D01*
X186213664Y-114191523D01*
X186149354Y-114218835D01*
X186080487Y-114207044D01*
X186056336Y-114191523D01*
X185998538Y-114144090D01*
X185998532Y-114144086D01*
X185824733Y-114051188D01*
X185824727Y-114051186D01*
X185636132Y-113993976D01*
X185636129Y-113993975D01*
X185440000Y-113974659D01*
X185243870Y-113993975D01*
X185055266Y-114051188D01*
X184881467Y-114144086D01*
X184881461Y-114144090D01*
X184808034Y-114204350D01*
X184743724Y-114231662D01*
X184674857Y-114219871D01*
X184650705Y-114204349D01*
X184528539Y-114104091D01*
X184528532Y-114104086D01*
X184354733Y-114011188D01*
X184354727Y-114011186D01*
X184228997Y-113973046D01*
X184166129Y-113953975D01*
X183970000Y-113934659D01*
X183773870Y-113953975D01*
X183585266Y-114011188D01*
X183411467Y-114104086D01*
X183411461Y-114104090D01*
X183353664Y-114151523D01*
X183289354Y-114178835D01*
X183220487Y-114167044D01*
X183196336Y-114151523D01*
X183138538Y-114104090D01*
X183138532Y-114104086D01*
X182964733Y-114011188D01*
X182964727Y-114011186D01*
X182838997Y-113973046D01*
X182776129Y-113953975D01*
X182580000Y-113934659D01*
X182383870Y-113953975D01*
X182195266Y-114011188D01*
X182021467Y-114104086D01*
X182021460Y-114104091D01*
X181978665Y-114139212D01*
X181914355Y-114166525D01*
X181845487Y-114154734D01*
X181821335Y-114139212D01*
X181778539Y-114104091D01*
X181778532Y-114104086D01*
X181604733Y-114011188D01*
X181604727Y-114011186D01*
X181478997Y-113973046D01*
X181416129Y-113953975D01*
X181220000Y-113934659D01*
X181023870Y-113953975D01*
X180835266Y-114011188D01*
X180661467Y-114104086D01*
X180661461Y-114104090D01*
X180613664Y-114143316D01*
X180549354Y-114170628D01*
X180480487Y-114158837D01*
X180456336Y-114143316D01*
X180408538Y-114104090D01*
X180408532Y-114104086D01*
X180234733Y-114011188D01*
X180234727Y-114011186D01*
X180108997Y-113973046D01*
X180046129Y-113953975D01*
X179850000Y-113934659D01*
X179653870Y-113953975D01*
X179465266Y-114011188D01*
X179291467Y-114104086D01*
X179291466Y-114104086D01*
X179152572Y-114218074D01*
X179088261Y-114245386D01*
X179019394Y-114233595D01*
X178995242Y-114218073D01*
X178868539Y-114114090D01*
X178868532Y-114114086D01*
X178694733Y-114021188D01*
X178694727Y-114021186D01*
X178506132Y-113963976D01*
X178506129Y-113963975D01*
X178310000Y-113944659D01*
X178113870Y-113963975D01*
X177925266Y-114021188D01*
X177751467Y-114114086D01*
X177751460Y-114114090D01*
X177599116Y-114239116D01*
X177474090Y-114391460D01*
X177474086Y-114391467D01*
X177381188Y-114565266D01*
X177323975Y-114753870D01*
X177304659Y-114950000D01*
X95000000Y-114950000D01*
X95000000Y-104869997D01*
X159084751Y-104869997D01*
X159084751Y-104870002D01*
X159103685Y-105038056D01*
X159159545Y-105197694D01*
X159159547Y-105197697D01*
X159249518Y-105340884D01*
X159249523Y-105340890D01*
X159369109Y-105460476D01*
X159369115Y-105460481D01*
X159512302Y-105550452D01*
X159512305Y-105550454D01*
X159512309Y-105550455D01*
X159512310Y-105550456D01*
X159584913Y-105575860D01*
X159671943Y-105606314D01*
X159839997Y-105625249D01*
X159840000Y-105625249D01*
X159840003Y-105625249D01*
X160008056Y-105606314D01*
X160008059Y-105606313D01*
X160167690Y-105550456D01*
X160167692Y-105550454D01*
X160167694Y-105550454D01*
X160167697Y-105550452D01*
X160310884Y-105460481D01*
X160310885Y-105460480D01*
X160310890Y-105460477D01*
X160430477Y-105340890D01*
X160520452Y-105197697D01*
X160520454Y-105197694D01*
X160520454Y-105197692D01*
X160520456Y-105197690D01*
X160576313Y-105038059D01*
X160576313Y-105038058D01*
X160576314Y-105038056D01*
X160595249Y-104870002D01*
X160595249Y-104869997D01*
X160576314Y-104701943D01*
X160520454Y-104542305D01*
X160520452Y-104542302D01*
X160430481Y-104399115D01*
X160430476Y-104399109D01*
X160310890Y-104279523D01*
X160310884Y-104279518D01*
X160167697Y-104189547D01*
X160167694Y-104189545D01*
X160008056Y-104133685D01*
X159840003Y-104114751D01*
X159839997Y-104114751D01*
X159671943Y-104133685D01*
X159512305Y-104189545D01*
X159512302Y-104189547D01*
X159369115Y-104279518D01*
X159369109Y-104279523D01*
X159249523Y-104399109D01*
X159249518Y-104399115D01*
X159159547Y-104542302D01*
X159159545Y-104542305D01*
X159103685Y-104701943D01*
X159084751Y-104869997D01*
X95000000Y-104869997D01*
X95000000Y-102339997D01*
X133154751Y-102339997D01*
X133154751Y-102340002D01*
X133173685Y-102508056D01*
X133229545Y-102667694D01*
X133229547Y-102667697D01*
X133319518Y-102810884D01*
X133319523Y-102810890D01*
X133439109Y-102930476D01*
X133439115Y-102930481D01*
X133582302Y-103020452D01*
X133582305Y-103020454D01*
X133582309Y-103020455D01*
X133582310Y-103020456D01*
X133741941Y-103076313D01*
X133741944Y-103076314D01*
X133776541Y-103080212D01*
X133840955Y-103107278D01*
X133880510Y-103164873D01*
X133882648Y-103234710D01*
X133867655Y-103269400D01*
X133859544Y-103282308D01*
X133803685Y-103441943D01*
X133784751Y-103609997D01*
X133784751Y-103610002D01*
X133803685Y-103778056D01*
X133859545Y-103937694D01*
X133859547Y-103937697D01*
X133949518Y-104080884D01*
X133949523Y-104080890D01*
X134069109Y-104200476D01*
X134069115Y-104200481D01*
X134212302Y-104290452D01*
X134212305Y-104290454D01*
X134212309Y-104290455D01*
X134212310Y-104290456D01*
X134284913Y-104315860D01*
X134371943Y-104346314D01*
X134539997Y-104365249D01*
X134540000Y-104365249D01*
X134540003Y-104365249D01*
X134708056Y-104346314D01*
X134708059Y-104346313D01*
X134867690Y-104290456D01*
X134867692Y-104290454D01*
X134867694Y-104290454D01*
X134867697Y-104290452D01*
X135010884Y-104200481D01*
X135010885Y-104200480D01*
X135010890Y-104200477D01*
X135130477Y-104080890D01*
X135220452Y-103937697D01*
X135220454Y-103937694D01*
X135220454Y-103937692D01*
X135220456Y-103937690D01*
X135276313Y-103778059D01*
X135276313Y-103778058D01*
X135276314Y-103778056D01*
X135295249Y-103610002D01*
X135295249Y-103609997D01*
X135276314Y-103441943D01*
X135220454Y-103282305D01*
X135220452Y-103282302D01*
X135130481Y-103139115D01*
X135130476Y-103139109D01*
X135010890Y-103019523D01*
X135010884Y-103019518D01*
X134867697Y-102929547D01*
X134867694Y-102929545D01*
X134708056Y-102873685D01*
X134673456Y-102869787D01*
X134609042Y-102842719D01*
X134586570Y-102809997D01*
X159844751Y-102809997D01*
X159844751Y-102810002D01*
X159863685Y-102978056D01*
X159919545Y-103137694D01*
X159919547Y-103137697D01*
X160009518Y-103280884D01*
X160009523Y-103280890D01*
X160129109Y-103400476D01*
X160129115Y-103400481D01*
X160272302Y-103490452D01*
X160272305Y-103490454D01*
X160272309Y-103490455D01*
X160272310Y-103490456D01*
X160344913Y-103515860D01*
X160431943Y-103546314D01*
X160599997Y-103565249D01*
X160600000Y-103565249D01*
X160600003Y-103565249D01*
X160768056Y-103546314D01*
X160768059Y-103546313D01*
X160927690Y-103490456D01*
X160927692Y-103490454D01*
X160927694Y-103490454D01*
X160927697Y-103490452D01*
X161070884Y-103400481D01*
X161070885Y-103400480D01*
X161070890Y-103400477D01*
X161190477Y-103280890D01*
X161279564Y-103139110D01*
X161280452Y-103137697D01*
X161280454Y-103137694D01*
X161280454Y-103137692D01*
X161280456Y-103137690D01*
X161336313Y-102978059D01*
X161336313Y-102978058D01*
X161336314Y-102978056D01*
X161355249Y-102810002D01*
X161355249Y-102809997D01*
X161336314Y-102641943D01*
X161280454Y-102482305D01*
X161280452Y-102482302D01*
X161190481Y-102339115D01*
X161190476Y-102339109D01*
X161070890Y-102219523D01*
X161070884Y-102219518D01*
X160927697Y-102129547D01*
X160927694Y-102129545D01*
X160768056Y-102073685D01*
X160600003Y-102054751D01*
X160599997Y-102054751D01*
X160431943Y-102073685D01*
X160272305Y-102129545D01*
X160272302Y-102129547D01*
X160129115Y-102219518D01*
X160129109Y-102219523D01*
X160009523Y-102339109D01*
X160009518Y-102339115D01*
X159919547Y-102482302D01*
X159919545Y-102482305D01*
X159863685Y-102641943D01*
X159844751Y-102809997D01*
X134586570Y-102809997D01*
X134569488Y-102785124D01*
X134567351Y-102715287D01*
X134582349Y-102680593D01*
X134590454Y-102667694D01*
X134590454Y-102667692D01*
X134590456Y-102667690D01*
X134646313Y-102508059D01*
X134646313Y-102508058D01*
X134646314Y-102508056D01*
X134665249Y-102340002D01*
X134665249Y-102339997D01*
X134646314Y-102171943D01*
X134590454Y-102012305D01*
X134590452Y-102012302D01*
X134500481Y-101869115D01*
X134500476Y-101869109D01*
X134380890Y-101749523D01*
X134380884Y-101749518D01*
X134237697Y-101659547D01*
X134237694Y-101659545D01*
X134078056Y-101603685D01*
X133910003Y-101584751D01*
X133909997Y-101584751D01*
X133741943Y-101603685D01*
X133582305Y-101659545D01*
X133582302Y-101659547D01*
X133439115Y-101749518D01*
X133439109Y-101749523D01*
X133319523Y-101869109D01*
X133319518Y-101869115D01*
X133229547Y-102012302D01*
X133229545Y-102012305D01*
X133173685Y-102171943D01*
X133154751Y-102339997D01*
X95000000Y-102339997D01*
X95000000Y-99029997D01*
X133464751Y-99029997D01*
X133464751Y-99030002D01*
X133483685Y-99198056D01*
X133539545Y-99357694D01*
X133539547Y-99357697D01*
X133629518Y-99500884D01*
X133629523Y-99500890D01*
X133749109Y-99620476D01*
X133749115Y-99620481D01*
X133892302Y-99710452D01*
X133892305Y-99710454D01*
X133892309Y-99710455D01*
X133892310Y-99710456D01*
X133964913Y-99735860D01*
X134051943Y-99766314D01*
X134219997Y-99785249D01*
X134220000Y-99785249D01*
X134220003Y-99785249D01*
X134388056Y-99766314D01*
X134388059Y-99766313D01*
X134547690Y-99710456D01*
X134547692Y-99710454D01*
X134547694Y-99710454D01*
X134547697Y-99710452D01*
X134690884Y-99620481D01*
X134690885Y-99620480D01*
X134690890Y-99620477D01*
X134810477Y-99500890D01*
X134900452Y-99357697D01*
X134900454Y-99357694D01*
X134900454Y-99357692D01*
X134900456Y-99357690D01*
X134956313Y-99198059D01*
X134956313Y-99198058D01*
X134956314Y-99198056D01*
X134975249Y-99030002D01*
X134975249Y-99029997D01*
X134956314Y-98861943D01*
X134900454Y-98702305D01*
X134900452Y-98702302D01*
X134810481Y-98559115D01*
X134810476Y-98559109D01*
X134690890Y-98439523D01*
X134690884Y-98439518D01*
X134547697Y-98349547D01*
X134547694Y-98349545D01*
X134388056Y-98293685D01*
X134220003Y-98274751D01*
X134219997Y-98274751D01*
X134051943Y-98293685D01*
X133892305Y-98349545D01*
X133892302Y-98349547D01*
X133749115Y-98439518D01*
X133749109Y-98439523D01*
X133629523Y-98559109D01*
X133629518Y-98559115D01*
X133539547Y-98702302D01*
X133539545Y-98702305D01*
X133483685Y-98861943D01*
X133464751Y-99029997D01*
X95000000Y-99029997D01*
X95000000Y-96759997D01*
X135254751Y-96759997D01*
X135254751Y-96760002D01*
X135273685Y-96928056D01*
X135329545Y-97087694D01*
X135329547Y-97087697D01*
X135419518Y-97230884D01*
X135419523Y-97230890D01*
X135539109Y-97350476D01*
X135539115Y-97350481D01*
X135682302Y-97440452D01*
X135682305Y-97440454D01*
X135682309Y-97440455D01*
X135682310Y-97440456D01*
X135754913Y-97465860D01*
X135841943Y-97496314D01*
X136009997Y-97515249D01*
X136010000Y-97515249D01*
X136010003Y-97515249D01*
X136178056Y-97496314D01*
X136178059Y-97496313D01*
X136337690Y-97440456D01*
X136337692Y-97440454D01*
X136337694Y-97440454D01*
X136337697Y-97440452D01*
X136480884Y-97350481D01*
X136480885Y-97350480D01*
X136480890Y-97350477D01*
X136600477Y-97230890D01*
X136690452Y-97087697D01*
X136690454Y-97087694D01*
X136690454Y-97087692D01*
X136690456Y-97087690D01*
X136746313Y-96928059D01*
X136746313Y-96928058D01*
X136746314Y-96928056D01*
X136765249Y-96760002D01*
X136765249Y-96759997D01*
X136746314Y-96591943D01*
X136690454Y-96432305D01*
X136690452Y-96432302D01*
X136600481Y-96289115D01*
X136600476Y-96289109D01*
X136480890Y-96169523D01*
X136480884Y-96169518D01*
X136337697Y-96079547D01*
X136337694Y-96079545D01*
X136178056Y-96023685D01*
X136010003Y-96004751D01*
X136009997Y-96004751D01*
X135841943Y-96023685D01*
X135682305Y-96079545D01*
X135682302Y-96079547D01*
X135539115Y-96169518D01*
X135539109Y-96169523D01*
X135419523Y-96289109D01*
X135419518Y-96289115D01*
X135329547Y-96432302D01*
X135329545Y-96432305D01*
X135273685Y-96591943D01*
X135254751Y-96759997D01*
X95000000Y-96759997D01*
X95000000Y-90010000D01*
X134194659Y-90010000D01*
X134213975Y-90206129D01*
X134271188Y-90394733D01*
X134364086Y-90568532D01*
X134364090Y-90568539D01*
X134402807Y-90615715D01*
X134430120Y-90680025D01*
X134418329Y-90748892D01*
X134402808Y-90773044D01*
X134368039Y-90815410D01*
X134368035Y-90815416D01*
X134275137Y-90989215D01*
X134217924Y-91177819D01*
X134198608Y-91373949D01*
X134217924Y-91570078D01*
X134275137Y-91758682D01*
X134368035Y-91932481D01*
X134368039Y-91932487D01*
X134407265Y-91980285D01*
X134434577Y-92044595D01*
X134422786Y-92113462D01*
X134407265Y-92137613D01*
X134368039Y-92185410D01*
X134368035Y-92185416D01*
X134275137Y-92359215D01*
X134217924Y-92547819D01*
X134198608Y-92743949D01*
X134217924Y-92940078D01*
X134275137Y-93128682D01*
X134368035Y-93302481D01*
X134368040Y-93302488D01*
X134403161Y-93345284D01*
X134430474Y-93409594D01*
X134418683Y-93478462D01*
X134403161Y-93502614D01*
X134368040Y-93545409D01*
X134368035Y-93545416D01*
X134275137Y-93719215D01*
X134217924Y-93907819D01*
X134198608Y-94103949D01*
X134217924Y-94300078D01*
X134275137Y-94488682D01*
X134368035Y-94662481D01*
X134368039Y-94662488D01*
X134493065Y-94814832D01*
X134645409Y-94939858D01*
X134645416Y-94939862D01*
X134819215Y-95032760D01*
X134819218Y-95032760D01*
X134819222Y-95032763D01*
X135007817Y-95089973D01*
X135203949Y-95109290D01*
X135400081Y-95089973D01*
X135588676Y-95032763D01*
X135762487Y-94939859D01*
X135798730Y-94910114D01*
X135919541Y-94810968D01*
X135921191Y-94812978D01*
X135972591Y-94784912D01*
X136042283Y-94789896D01*
X136077222Y-94812350D01*
X136078357Y-94810968D01*
X136235409Y-94939858D01*
X136235416Y-94939862D01*
X136409215Y-95032760D01*
X136409218Y-95032760D01*
X136409222Y-95032763D01*
X136597817Y-95089973D01*
X136793949Y-95109290D01*
X136990081Y-95089973D01*
X137178676Y-95032763D01*
X137352487Y-94939859D01*
X137504832Y-94814832D01*
X137629859Y-94662487D01*
X137722763Y-94488676D01*
X137779973Y-94300081D01*
X137799290Y-94103949D01*
X137779973Y-93907817D01*
X137722763Y-93719222D01*
X137722760Y-93719218D01*
X137722760Y-93719215D01*
X137629862Y-93545416D01*
X137629857Y-93545408D01*
X137594737Y-93502615D01*
X137567423Y-93438305D01*
X137579214Y-93369437D01*
X137594737Y-93345283D01*
X137629857Y-93302489D01*
X137629858Y-93302488D01*
X137629859Y-93302487D01*
X137722763Y-93128676D01*
X137779973Y-92940081D01*
X137799290Y-92743949D01*
X137779973Y-92547817D01*
X137722763Y-92359222D01*
X137722760Y-92359218D01*
X137722760Y-92359215D01*
X137629862Y-92185416D01*
X137629857Y-92185408D01*
X137590633Y-92137615D01*
X137563319Y-92073306D01*
X137575109Y-92004438D01*
X137590633Y-91980283D01*
X137629857Y-91932489D01*
X137629859Y-91932487D01*
X137722763Y-91758676D01*
X137779973Y-91570081D01*
X137799290Y-91373949D01*
X137779973Y-91177817D01*
X137722763Y-90989222D01*
X137722760Y-90989218D01*
X137722760Y-90989215D01*
X137629862Y-90815416D01*
X137629858Y-90815409D01*
X137591141Y-90768233D01*
X137563828Y-90703923D01*
X137573060Y-90650000D01*
X150844659Y-90650000D01*
X150863975Y-90846129D01*
X150921188Y-91034733D01*
X151014086Y-91208532D01*
X151014090Y-91208538D01*
X151053316Y-91256336D01*
X151080628Y-91320646D01*
X151068837Y-91389513D01*
X151053316Y-91413664D01*
X151014090Y-91461461D01*
X151014086Y-91461467D01*
X150921188Y-91635266D01*
X150863975Y-91823870D01*
X150844659Y-92020000D01*
X150863975Y-92216129D01*
X150921188Y-92404733D01*
X151014086Y-92578532D01*
X151014091Y-92578539D01*
X151049212Y-92621335D01*
X151076525Y-92685645D01*
X151064734Y-92754513D01*
X151049212Y-92778665D01*
X151014091Y-92821460D01*
X151014086Y-92821467D01*
X150921188Y-92995266D01*
X150863975Y-93183870D01*
X150844659Y-93380000D01*
X150863975Y-93576129D01*
X150921188Y-93764733D01*
X151014086Y-93938532D01*
X151014090Y-93938538D01*
X151061523Y-93996336D01*
X151088835Y-94060646D01*
X151077044Y-94129513D01*
X151061523Y-94153664D01*
X151014090Y-94211461D01*
X151014086Y-94211467D01*
X150921188Y-94385266D01*
X150863975Y-94573870D01*
X150844659Y-94770000D01*
X150863975Y-94966129D01*
X150863976Y-94966132D01*
X150907402Y-95109289D01*
X150921188Y-95154733D01*
X151014086Y-95328532D01*
X151014090Y-95328539D01*
X151139116Y-95480883D01*
X151291460Y-95605909D01*
X151291467Y-95605913D01*
X151465266Y-95698811D01*
X151465269Y-95698811D01*
X151465273Y-95698814D01*
X151653868Y-95756024D01*
X151850000Y-95775341D01*
X152046132Y-95756024D01*
X152234727Y-95698814D01*
X152408538Y-95605910D01*
X152444781Y-95576165D01*
X152565592Y-95477019D01*
X152567242Y-95479029D01*
X152618642Y-95450963D01*
X152688334Y-95455947D01*
X152723273Y-95478401D01*
X152724408Y-95477019D01*
X152881460Y-95605909D01*
X152881467Y-95605913D01*
X153055266Y-95698811D01*
X153055269Y-95698811D01*
X153055273Y-95698814D01*
X153243868Y-95756024D01*
X153440000Y-95775341D01*
X153636132Y-95756024D01*
X153824727Y-95698814D01*
X153998538Y-95605910D01*
X154150883Y-95480883D01*
X154275910Y-95328538D01*
X154368814Y-95154727D01*
X154382383Y-95109997D01*
X165454751Y-95109997D01*
X165454751Y-95110002D01*
X165473685Y-95278056D01*
X165529545Y-95437694D01*
X165529547Y-95437697D01*
X165619518Y-95580884D01*
X165619523Y-95580890D01*
X165739109Y-95700476D01*
X165739115Y-95700481D01*
X165882302Y-95790452D01*
X165882305Y-95790454D01*
X165882309Y-95790455D01*
X165882310Y-95790456D01*
X165954913Y-95815860D01*
X166041943Y-95846314D01*
X166209997Y-95865249D01*
X166210000Y-95865249D01*
X166210003Y-95865249D01*
X166378056Y-95846314D01*
X166378059Y-95846313D01*
X166537690Y-95790456D01*
X166537692Y-95790454D01*
X166537694Y-95790454D01*
X166537697Y-95790452D01*
X166680884Y-95700481D01*
X166680885Y-95700480D01*
X166680890Y-95700477D01*
X166800477Y-95580890D01*
X166864481Y-95479029D01*
X166890452Y-95437697D01*
X166890454Y-95437694D01*
X166890454Y-95437692D01*
X166890456Y-95437690D01*
X166946313Y-95278059D01*
X166946313Y-95278058D01*
X166946314Y-95278056D01*
X166965249Y-95110002D01*
X166965249Y-95109997D01*
X166946314Y-94941943D01*
X166890454Y-94782305D01*
X166890452Y-94782302D01*
X166800481Y-94639115D01*
X166800476Y-94639109D01*
X166680890Y-94519523D01*
X166680884Y-94519518D01*
X166537697Y-94429547D01*
X166537694Y-94429545D01*
X166378056Y-94373685D01*
X166210003Y-94354751D01*
X166209997Y-94354751D01*
X166041943Y-94373685D01*
X165882305Y-94429545D01*
X165882302Y-94429547D01*
X165739115Y-94519518D01*
X165739109Y-94519523D01*
X165619523Y-94639109D01*
X165619518Y-94639115D01*
X165529547Y-94782302D01*
X165529545Y-94782305D01*
X165473685Y-94941943D01*
X165454751Y-95109997D01*
X154382383Y-95109997D01*
X154426024Y-94966132D01*
X154445341Y-94770000D01*
X154426024Y-94573868D01*
X154368814Y-94385273D01*
X154275910Y-94211462D01*
X154228475Y-94153663D01*
X154201163Y-94089356D01*
X154212954Y-94020488D01*
X154228473Y-93996338D01*
X154275910Y-93938538D01*
X154368814Y-93764727D01*
X154426024Y-93576132D01*
X154445341Y-93380000D01*
X154426024Y-93183868D01*
X154368814Y-92995273D01*
X154368811Y-92995269D01*
X154368811Y-92995266D01*
X154275913Y-92821467D01*
X154275908Y-92821459D01*
X154240788Y-92778666D01*
X154213474Y-92714356D01*
X154225265Y-92645488D01*
X154240788Y-92621334D01*
X154275908Y-92578540D01*
X154275909Y-92578539D01*
X154275910Y-92578538D01*
X154368814Y-92404727D01*
X154426024Y-92216132D01*
X154445341Y-92020000D01*
X154426024Y-91823868D01*
X154368814Y-91635273D01*
X154368811Y-91635269D01*
X154368811Y-91635266D01*
X154275913Y-91461467D01*
X154275908Y-91461459D01*
X154236684Y-91413666D01*
X154209370Y-91349357D01*
X154221160Y-91280489D01*
X154236684Y-91256334D01*
X154275908Y-91208540D01*
X154275910Y-91208538D01*
X154368814Y-91034727D01*
X154426024Y-90846132D01*
X154445341Y-90650000D01*
X154426024Y-90453868D01*
X154368814Y-90265273D01*
X154368811Y-90265269D01*
X154368811Y-90265266D01*
X154275913Y-90091467D01*
X154275909Y-90091460D01*
X154150883Y-89939116D01*
X153998539Y-89814090D01*
X153998532Y-89814086D01*
X153878631Y-89749997D01*
X159684751Y-89749997D01*
X159684751Y-89750002D01*
X159703685Y-89918056D01*
X159759545Y-90077694D01*
X159759547Y-90077697D01*
X159849518Y-90220884D01*
X159849523Y-90220890D01*
X159969109Y-90340476D01*
X159969115Y-90340481D01*
X160112302Y-90430452D01*
X160112305Y-90430454D01*
X160112309Y-90430455D01*
X160112310Y-90430456D01*
X160179218Y-90453868D01*
X160271943Y-90486314D01*
X160439997Y-90505249D01*
X160440000Y-90505249D01*
X160440003Y-90505249D01*
X160608056Y-90486314D01*
X160608059Y-90486313D01*
X160767690Y-90430456D01*
X160767692Y-90430454D01*
X160767694Y-90430454D01*
X160767697Y-90430452D01*
X160910884Y-90340481D01*
X160910885Y-90340480D01*
X160910890Y-90340477D01*
X161030477Y-90220890D01*
X161039752Y-90206129D01*
X161120452Y-90077697D01*
X161120454Y-90077694D01*
X161120454Y-90077692D01*
X161120456Y-90077690D01*
X161176313Y-89918059D01*
X161176313Y-89918058D01*
X161176314Y-89918056D01*
X161195249Y-89750002D01*
X161195249Y-89749997D01*
X161176314Y-89581943D01*
X161120454Y-89422305D01*
X161120452Y-89422302D01*
X161030481Y-89279115D01*
X161030476Y-89279109D01*
X160910890Y-89159523D01*
X160910884Y-89159518D01*
X160767697Y-89069547D01*
X160767694Y-89069545D01*
X160608056Y-89013685D01*
X160440003Y-88994751D01*
X160439997Y-88994751D01*
X160271943Y-89013685D01*
X160112305Y-89069545D01*
X160112302Y-89069547D01*
X159969115Y-89159518D01*
X159969109Y-89159523D01*
X159849523Y-89279109D01*
X159849518Y-89279115D01*
X159759547Y-89422302D01*
X159759545Y-89422305D01*
X159703685Y-89581943D01*
X159684751Y-89749997D01*
X153878631Y-89749997D01*
X153824733Y-89721188D01*
X153824727Y-89721186D01*
X153636132Y-89663976D01*
X153636129Y-89663975D01*
X153440000Y-89644659D01*
X153243870Y-89663975D01*
X153055266Y-89721188D01*
X152881467Y-89814086D01*
X152881460Y-89814090D01*
X152724408Y-89942981D01*
X152722757Y-89940970D01*
X152671358Y-89969037D01*
X152601666Y-89964053D01*
X152566726Y-89941598D01*
X152565592Y-89942981D01*
X152408539Y-89814090D01*
X152408532Y-89814086D01*
X152234733Y-89721188D01*
X152234727Y-89721186D01*
X152046132Y-89663976D01*
X152046129Y-89663975D01*
X151850000Y-89644659D01*
X151653870Y-89663975D01*
X151465266Y-89721188D01*
X151291467Y-89814086D01*
X151291460Y-89814090D01*
X151139116Y-89939116D01*
X151014090Y-90091460D01*
X151014086Y-90091467D01*
X150921188Y-90265266D01*
X150863975Y-90453870D01*
X150844659Y-90650000D01*
X137573060Y-90650000D01*
X137575619Y-90635056D01*
X137591142Y-90610902D01*
X137625910Y-90568538D01*
X137687201Y-90453870D01*
X137718811Y-90394733D01*
X137718811Y-90394732D01*
X137718814Y-90394727D01*
X137776024Y-90206132D01*
X137795341Y-90010000D01*
X137776024Y-89813868D01*
X137718814Y-89625273D01*
X137718811Y-89625269D01*
X137718811Y-89625266D01*
X137625913Y-89451467D01*
X137625909Y-89451460D01*
X137500883Y-89299116D01*
X137348539Y-89174090D01*
X137348532Y-89174086D01*
X137174733Y-89081188D01*
X137174727Y-89081186D01*
X136986132Y-89023976D01*
X136986129Y-89023975D01*
X136790000Y-89004659D01*
X136593870Y-89023975D01*
X136405266Y-89081188D01*
X136231467Y-89174086D01*
X136231460Y-89174090D01*
X136074408Y-89302981D01*
X136072757Y-89300970D01*
X136021358Y-89329037D01*
X135951666Y-89324053D01*
X135916726Y-89301598D01*
X135915592Y-89302981D01*
X135758539Y-89174090D01*
X135758532Y-89174086D01*
X135584733Y-89081188D01*
X135584727Y-89081186D01*
X135396132Y-89023976D01*
X135396129Y-89023975D01*
X135200000Y-89004659D01*
X135003870Y-89023975D01*
X134815266Y-89081188D01*
X134641467Y-89174086D01*
X134641460Y-89174090D01*
X134489116Y-89299116D01*
X134364090Y-89451460D01*
X134364086Y-89451467D01*
X134271188Y-89625266D01*
X134213975Y-89813870D01*
X134194659Y-90010000D01*
X95000000Y-90010000D01*
X95000000Y-85213949D01*
X124228608Y-85213949D01*
X124247924Y-85410078D01*
X124305137Y-85598682D01*
X124398035Y-85772481D01*
X124398039Y-85772488D01*
X124526930Y-85929541D01*
X124524919Y-85931191D01*
X124552986Y-85982591D01*
X124548002Y-86052283D01*
X124525547Y-86087222D01*
X124526930Y-86088357D01*
X124398039Y-86245409D01*
X124398035Y-86245416D01*
X124305137Y-86419215D01*
X124247924Y-86607819D01*
X124228608Y-86803949D01*
X124247924Y-87000078D01*
X124305137Y-87188682D01*
X124398035Y-87362481D01*
X124398039Y-87362488D01*
X124523065Y-87514832D01*
X124675409Y-87639858D01*
X124675416Y-87639862D01*
X124849215Y-87732760D01*
X124849218Y-87732760D01*
X124849222Y-87732763D01*
X125037817Y-87789973D01*
X125233949Y-87809290D01*
X125430081Y-87789973D01*
X125618676Y-87732763D01*
X125792487Y-87639859D01*
X125840283Y-87600632D01*
X125904592Y-87573319D01*
X125973460Y-87585109D01*
X125997613Y-87600631D01*
X126017809Y-87617206D01*
X126045408Y-87639857D01*
X126045416Y-87639862D01*
X126219215Y-87732760D01*
X126219218Y-87732760D01*
X126219222Y-87732763D01*
X126407817Y-87789973D01*
X126603949Y-87809290D01*
X126800081Y-87789973D01*
X126988676Y-87732763D01*
X127162487Y-87639859D01*
X127205283Y-87604737D01*
X127269593Y-87577423D01*
X127338461Y-87589214D01*
X127362615Y-87604737D01*
X127405408Y-87639857D01*
X127405416Y-87639862D01*
X127579215Y-87732760D01*
X127579218Y-87732760D01*
X127579222Y-87732763D01*
X127767817Y-87789973D01*
X127963949Y-87809290D01*
X128160081Y-87789973D01*
X128348676Y-87732763D01*
X128522487Y-87639859D01*
X128580285Y-87592424D01*
X128644593Y-87565112D01*
X128713461Y-87576903D01*
X128737610Y-87592422D01*
X128795411Y-87639859D01*
X128969222Y-87732763D01*
X129157817Y-87789973D01*
X129353949Y-87809290D01*
X129550081Y-87789973D01*
X129738676Y-87732763D01*
X129912487Y-87639859D01*
X130064832Y-87514832D01*
X130189859Y-87362487D01*
X130282763Y-87188676D01*
X130339973Y-87000081D01*
X130359290Y-86803949D01*
X130339973Y-86607817D01*
X130282763Y-86419222D01*
X130282760Y-86419218D01*
X130282760Y-86419215D01*
X130189862Y-86245416D01*
X130189858Y-86245409D01*
X130060968Y-86088357D01*
X130062978Y-86086706D01*
X130034912Y-86035307D01*
X130039896Y-85965615D01*
X130062350Y-85930675D01*
X130060968Y-85929541D01*
X130189858Y-85772488D01*
X130189862Y-85772481D01*
X130282760Y-85598682D01*
X130282760Y-85598681D01*
X130282763Y-85598676D01*
X130339973Y-85410081D01*
X130359290Y-85213949D01*
X130339973Y-85017817D01*
X130282763Y-84829222D01*
X130282760Y-84829218D01*
X130282760Y-84829215D01*
X130189862Y-84655416D01*
X130189858Y-84655409D01*
X130064832Y-84503065D01*
X129912488Y-84378039D01*
X129912481Y-84378035D01*
X129738682Y-84285137D01*
X129738676Y-84285135D01*
X129550081Y-84227925D01*
X129550078Y-84227924D01*
X129353949Y-84208608D01*
X129157819Y-84227924D01*
X128969215Y-84285137D01*
X128795416Y-84378035D01*
X128795410Y-84378039D01*
X128737613Y-84425472D01*
X128673303Y-84452784D01*
X128604436Y-84440993D01*
X128580285Y-84425472D01*
X128522487Y-84378039D01*
X128522481Y-84378035D01*
X128348682Y-84285137D01*
X128348676Y-84285135D01*
X128160081Y-84227925D01*
X128160078Y-84227924D01*
X127963949Y-84208608D01*
X127767819Y-84227924D01*
X127579215Y-84285137D01*
X127405416Y-84378035D01*
X127405409Y-84378040D01*
X127362614Y-84413161D01*
X127298304Y-84440474D01*
X127229436Y-84428683D01*
X127205284Y-84413161D01*
X127162488Y-84378040D01*
X127162481Y-84378035D01*
X126988682Y-84285137D01*
X126988676Y-84285135D01*
X126800081Y-84227925D01*
X126800078Y-84227924D01*
X126603949Y-84208608D01*
X126407819Y-84227924D01*
X126219215Y-84285137D01*
X126045416Y-84378035D01*
X126045410Y-84378039D01*
X125997613Y-84417265D01*
X125933303Y-84444577D01*
X125864436Y-84432786D01*
X125840285Y-84417265D01*
X125792487Y-84378039D01*
X125792481Y-84378035D01*
X125618682Y-84285137D01*
X125618676Y-84285135D01*
X125430081Y-84227925D01*
X125430078Y-84227924D01*
X125233949Y-84208608D01*
X125037819Y-84227924D01*
X124849215Y-84285137D01*
X124675416Y-84378035D01*
X124675409Y-84378039D01*
X124523065Y-84503065D01*
X124398039Y-84655409D01*
X124398035Y-84655416D01*
X124305137Y-84829215D01*
X124247924Y-85017819D01*
X124228608Y-85213949D01*
X95000000Y-85213949D01*
X95000000Y-78123694D01*
X172675504Y-78123694D01*
X172675504Y-78123699D01*
X172694438Y-78291753D01*
X172750297Y-78451387D01*
X172760964Y-78468363D01*
X172779964Y-78535600D01*
X172773013Y-78575287D01*
X172763686Y-78601943D01*
X172744751Y-78769997D01*
X172744751Y-78770002D01*
X172763685Y-78938056D01*
X172819545Y-79097694D01*
X172819547Y-79097697D01*
X172909518Y-79240884D01*
X172909523Y-79240890D01*
X173029109Y-79360476D01*
X173029115Y-79360481D01*
X173172302Y-79450452D01*
X173172305Y-79450454D01*
X173172309Y-79450455D01*
X173172310Y-79450456D01*
X173244913Y-79475860D01*
X173331943Y-79506314D01*
X173499997Y-79525249D01*
X173500000Y-79525249D01*
X173500003Y-79525249D01*
X173668056Y-79506314D01*
X173668059Y-79506313D01*
X173827690Y-79450456D01*
X173827692Y-79450454D01*
X173827694Y-79450454D01*
X173827697Y-79450452D01*
X173970884Y-79360481D01*
X173970885Y-79360480D01*
X173970890Y-79360477D01*
X173991367Y-79340000D01*
X180134540Y-79340000D01*
X180154326Y-79528256D01*
X180154327Y-79528259D01*
X180212818Y-79708277D01*
X180212821Y-79708284D01*
X180307467Y-79872216D01*
X180434129Y-80012888D01*
X180587265Y-80124148D01*
X180587270Y-80124151D01*
X180760192Y-80201142D01*
X180760197Y-80201144D01*
X180945354Y-80240500D01*
X180945355Y-80240500D01*
X181008771Y-80240500D01*
X181075810Y-80260185D01*
X181121565Y-80312989D01*
X181131509Y-80382147D01*
X181102484Y-80445703D01*
X181096452Y-80452181D01*
X181049523Y-80499109D01*
X181049518Y-80499115D01*
X180959547Y-80642302D01*
X180959545Y-80642305D01*
X180903685Y-80801943D01*
X180884751Y-80969997D01*
X180884751Y-80970002D01*
X180903685Y-81138056D01*
X180959545Y-81297694D01*
X180959547Y-81297697D01*
X181049518Y-81440884D01*
X181049523Y-81440890D01*
X181169109Y-81560476D01*
X181169115Y-81560481D01*
X181312302Y-81650452D01*
X181312305Y-81650454D01*
X181312309Y-81650455D01*
X181312310Y-81650456D01*
X181384913Y-81675860D01*
X181471943Y-81706314D01*
X181639997Y-81725249D01*
X181640000Y-81725249D01*
X181640003Y-81725249D01*
X181808056Y-81706314D01*
X181808059Y-81706313D01*
X181967690Y-81650456D01*
X181967692Y-81650454D01*
X181967694Y-81650454D01*
X181967697Y-81650452D01*
X182110884Y-81560481D01*
X182110885Y-81560480D01*
X182110890Y-81560477D01*
X182230477Y-81440890D01*
X182320452Y-81297697D01*
X182320454Y-81297694D01*
X182320454Y-81297692D01*
X182320456Y-81297690D01*
X182376313Y-81138059D01*
X182376313Y-81138058D01*
X182376314Y-81138056D01*
X182395249Y-80970002D01*
X182395249Y-80969997D01*
X182376314Y-80801943D01*
X182320454Y-80642305D01*
X182320452Y-80642302D01*
X182230481Y-80499115D01*
X182230476Y-80499109D01*
X182110890Y-80379523D01*
X182110884Y-80379518D01*
X181967697Y-80289547D01*
X181967694Y-80289545D01*
X181808056Y-80233685D01*
X181719926Y-80223756D01*
X181655512Y-80196689D01*
X181615957Y-80139094D01*
X181613820Y-80069258D01*
X181641660Y-80017563D01*
X181645866Y-80012891D01*
X181645871Y-80012888D01*
X181772533Y-79872216D01*
X181867179Y-79708284D01*
X181925674Y-79528256D01*
X181945460Y-79340000D01*
X181925674Y-79151744D01*
X181867179Y-78971716D01*
X181772533Y-78807784D01*
X181645871Y-78667112D01*
X181645870Y-78667111D01*
X181492734Y-78555851D01*
X181492729Y-78555848D01*
X181319807Y-78478857D01*
X181319802Y-78478855D01*
X181174001Y-78447865D01*
X181134646Y-78439500D01*
X180945354Y-78439500D01*
X180932134Y-78442310D01*
X180760197Y-78478855D01*
X180760192Y-78478857D01*
X180587270Y-78555848D01*
X180587265Y-78555851D01*
X180434129Y-78667111D01*
X180307466Y-78807785D01*
X180212821Y-78971715D01*
X180212818Y-78971722D01*
X180171887Y-79097697D01*
X180154326Y-79151744D01*
X180134540Y-79340000D01*
X173991367Y-79340000D01*
X174090477Y-79240890D01*
X174090481Y-79240884D01*
X174180452Y-79097697D01*
X174180454Y-79097694D01*
X174180454Y-79097692D01*
X174180456Y-79097690D01*
X174236313Y-78938059D01*
X174236313Y-78938058D01*
X174236314Y-78938056D01*
X174255249Y-78770002D01*
X174255249Y-78769997D01*
X174236314Y-78601943D01*
X174193244Y-78478857D01*
X174180456Y-78442310D01*
X174169788Y-78425333D01*
X174150787Y-78358098D01*
X174157739Y-78318408D01*
X174167066Y-78291756D01*
X174184825Y-78134148D01*
X174186002Y-78123699D01*
X174186002Y-78123694D01*
X174167067Y-77955640D01*
X174111207Y-77796002D01*
X174111205Y-77795999D01*
X174021234Y-77652812D01*
X174021229Y-77652806D01*
X173901643Y-77533220D01*
X173901637Y-77533215D01*
X173758450Y-77443244D01*
X173758447Y-77443242D01*
X173598809Y-77387382D01*
X173430756Y-77368448D01*
X173430750Y-77368448D01*
X173262696Y-77387382D01*
X173103058Y-77443242D01*
X173103055Y-77443244D01*
X172959868Y-77533215D01*
X172959862Y-77533220D01*
X172840276Y-77652806D01*
X172840271Y-77652812D01*
X172750300Y-77795999D01*
X172750298Y-77796002D01*
X172694438Y-77955640D01*
X172675504Y-78123694D01*
X95000000Y-78123694D01*
X95000000Y-77350000D01*
X178464540Y-77350000D01*
X178484326Y-77538256D01*
X178484327Y-77538259D01*
X178542818Y-77718277D01*
X178542821Y-77718284D01*
X178637467Y-77882216D01*
X178764129Y-78022888D01*
X178917265Y-78134148D01*
X178917270Y-78134151D01*
X179090192Y-78211142D01*
X179090197Y-78211144D01*
X179275354Y-78250500D01*
X179275355Y-78250500D01*
X179464644Y-78250500D01*
X179464646Y-78250500D01*
X179649803Y-78211144D01*
X179822730Y-78134151D01*
X179975871Y-78022888D01*
X180102533Y-77882216D01*
X180197179Y-77718284D01*
X180255674Y-77538256D01*
X180275460Y-77350000D01*
X180255674Y-77161744D01*
X180197179Y-76981716D01*
X180102533Y-76817784D01*
X179975871Y-76677112D01*
X179975870Y-76677111D01*
X179822734Y-76565851D01*
X179822729Y-76565848D01*
X179649807Y-76488857D01*
X179649802Y-76488855D01*
X179504001Y-76457865D01*
X179464646Y-76449500D01*
X179275354Y-76449500D01*
X179242897Y-76456398D01*
X179090197Y-76488855D01*
X179090192Y-76488857D01*
X178917270Y-76565848D01*
X178917265Y-76565851D01*
X178764129Y-76677111D01*
X178637466Y-76817785D01*
X178542821Y-76981715D01*
X178542818Y-76981722D01*
X178484327Y-77161740D01*
X178484326Y-77161744D01*
X178464540Y-77350000D01*
X95000000Y-77350000D01*
X95000000Y-75603948D01*
X164593702Y-75603948D01*
X164593702Y-75603953D01*
X164612636Y-75772007D01*
X164668496Y-75931645D01*
X164668498Y-75931648D01*
X164758469Y-76074835D01*
X164758474Y-76074841D01*
X164878060Y-76194427D01*
X164878066Y-76194432D01*
X165021253Y-76284403D01*
X165021256Y-76284405D01*
X165021260Y-76284406D01*
X165021261Y-76284407D01*
X165093864Y-76309811D01*
X165180894Y-76340265D01*
X165348948Y-76359200D01*
X165348951Y-76359200D01*
X165348954Y-76359200D01*
X165517007Y-76340265D01*
X165517010Y-76340264D01*
X165676641Y-76284407D01*
X165676643Y-76284405D01*
X165676645Y-76284405D01*
X165676648Y-76284403D01*
X165819835Y-76194432D01*
X165819836Y-76194431D01*
X165819841Y-76194428D01*
X165939428Y-76074841D01*
X166029403Y-75931648D01*
X166029405Y-75931645D01*
X166029405Y-75931643D01*
X166029407Y-75931641D01*
X166085264Y-75772010D01*
X166085264Y-75772009D01*
X166085265Y-75772007D01*
X166104200Y-75603953D01*
X166104200Y-75603948D01*
X166085265Y-75435894D01*
X166029405Y-75276256D01*
X166029403Y-75276253D01*
X165939432Y-75133066D01*
X165939427Y-75133060D01*
X165819841Y-75013474D01*
X165819835Y-75013469D01*
X165676648Y-74923498D01*
X165676645Y-74923496D01*
X165517007Y-74867636D01*
X165348954Y-74848702D01*
X165348948Y-74848702D01*
X165180894Y-74867636D01*
X165021256Y-74923496D01*
X165021253Y-74923498D01*
X164878066Y-75013469D01*
X164878060Y-75013474D01*
X164758474Y-75133060D01*
X164758469Y-75133066D01*
X164668498Y-75276253D01*
X164668496Y-75276256D01*
X164612636Y-75435894D01*
X164593702Y-75603948D01*
X95000000Y-75603948D01*
X95000000Y-73579997D01*
X167094751Y-73579997D01*
X167094751Y-73580002D01*
X167113685Y-73748056D01*
X167169545Y-73907694D01*
X167169547Y-73907697D01*
X167259518Y-74050884D01*
X167259523Y-74050890D01*
X167379109Y-74170476D01*
X167379115Y-74170481D01*
X167522302Y-74260452D01*
X167522305Y-74260454D01*
X167522309Y-74260455D01*
X167522310Y-74260456D01*
X167594913Y-74285860D01*
X167681943Y-74316314D01*
X167849997Y-74335249D01*
X167850000Y-74335249D01*
X167850003Y-74335249D01*
X168018056Y-74316314D01*
X168018059Y-74316313D01*
X168177690Y-74260456D01*
X168177692Y-74260454D01*
X168177694Y-74260454D01*
X168177697Y-74260452D01*
X168320884Y-74170481D01*
X168320885Y-74170480D01*
X168320890Y-74170477D01*
X168440477Y-74050890D01*
X168455052Y-74027694D01*
X168530452Y-73907697D01*
X168530454Y-73907694D01*
X168530454Y-73907692D01*
X168530456Y-73907690D01*
X168586313Y-73748059D01*
X168586313Y-73748057D01*
X168586314Y-73748055D01*
X168588914Y-73724980D01*
X168615980Y-73660566D01*
X168673575Y-73621011D01*
X168743412Y-73618873D01*
X168799815Y-73651182D01*
X168879109Y-73730476D01*
X168879115Y-73730481D01*
X169022302Y-73820452D01*
X169022305Y-73820454D01*
X169022309Y-73820455D01*
X169022310Y-73820456D01*
X169041941Y-73827325D01*
X169181943Y-73876314D01*
X169349997Y-73895249D01*
X169350000Y-73895249D01*
X169350003Y-73895249D01*
X169518059Y-73876313D01*
X169518061Y-73876313D01*
X169658061Y-73827325D01*
X169727840Y-73823763D01*
X169788467Y-73858491D01*
X169816056Y-73903410D01*
X169817556Y-73907694D01*
X169859544Y-74027692D01*
X169859547Y-74027697D01*
X169949518Y-74170884D01*
X169949523Y-74170890D01*
X170069109Y-74290476D01*
X170069115Y-74290481D01*
X170212302Y-74380452D01*
X170212305Y-74380454D01*
X170212309Y-74380455D01*
X170212310Y-74380456D01*
X170284913Y-74405860D01*
X170371943Y-74436314D01*
X170539997Y-74455249D01*
X170540000Y-74455249D01*
X170540003Y-74455249D01*
X170708056Y-74436314D01*
X170708059Y-74436313D01*
X170867690Y-74380456D01*
X170867692Y-74380454D01*
X170867694Y-74380454D01*
X170867697Y-74380452D01*
X171010884Y-74290481D01*
X171010885Y-74290480D01*
X171010890Y-74290477D01*
X171130477Y-74170890D01*
X171130737Y-74170476D01*
X171220452Y-74027697D01*
X171220454Y-74027694D01*
X171220454Y-74027692D01*
X171220456Y-74027690D01*
X171276313Y-73868059D01*
X171276313Y-73868058D01*
X171276314Y-73868056D01*
X171295249Y-73700002D01*
X171295249Y-73699997D01*
X171276314Y-73531943D01*
X171220454Y-73372305D01*
X171220452Y-73372302D01*
X171130481Y-73229115D01*
X171130476Y-73229109D01*
X171010890Y-73109523D01*
X171010884Y-73109518D01*
X170867697Y-73019547D01*
X170867694Y-73019545D01*
X170708056Y-72963685D01*
X170540003Y-72944751D01*
X170539997Y-72944751D01*
X170371942Y-72963686D01*
X170231938Y-73012675D01*
X170162159Y-73016236D01*
X170101532Y-72981507D01*
X170073942Y-72936587D01*
X170060981Y-72899547D01*
X170030456Y-72812310D01*
X170030453Y-72812305D01*
X170030452Y-72812302D01*
X169940481Y-72669115D01*
X169940476Y-72669109D01*
X169820890Y-72549523D01*
X169820884Y-72549518D01*
X169677697Y-72459547D01*
X169677694Y-72459545D01*
X169518056Y-72403685D01*
X169350003Y-72384751D01*
X169349997Y-72384751D01*
X169181943Y-72403685D01*
X169022305Y-72459545D01*
X169022302Y-72459547D01*
X168879115Y-72549518D01*
X168879109Y-72549523D01*
X168759523Y-72669109D01*
X168759518Y-72669115D01*
X168669547Y-72812302D01*
X168669545Y-72812305D01*
X168613686Y-72971943D01*
X168611085Y-72995023D01*
X168584016Y-73059436D01*
X168526420Y-73098990D01*
X168456583Y-73101125D01*
X168400184Y-73068817D01*
X168320890Y-72989523D01*
X168320884Y-72989518D01*
X168177697Y-72899547D01*
X168177694Y-72899545D01*
X168018056Y-72843685D01*
X167850003Y-72824751D01*
X167849997Y-72824751D01*
X167681943Y-72843685D01*
X167522305Y-72899545D01*
X167522302Y-72899547D01*
X167379115Y-72989518D01*
X167379109Y-72989523D01*
X167259523Y-73109109D01*
X167259518Y-73109115D01*
X167169547Y-73252302D01*
X167169545Y-73252305D01*
X167113685Y-73411943D01*
X167094751Y-73579997D01*
X95000000Y-73579997D01*
X95000000Y-70529997D01*
X162014751Y-70529997D01*
X162014751Y-70530002D01*
X162033685Y-70698056D01*
X162089545Y-70857694D01*
X162089547Y-70857697D01*
X162179518Y-71000884D01*
X162179523Y-71000890D01*
X162299109Y-71120476D01*
X162299115Y-71120481D01*
X162442302Y-71210452D01*
X162442305Y-71210454D01*
X162442309Y-71210455D01*
X162442310Y-71210456D01*
X162514913Y-71235860D01*
X162601943Y-71266314D01*
X162769997Y-71285249D01*
X162770000Y-71285249D01*
X162770003Y-71285249D01*
X162938056Y-71266314D01*
X162938059Y-71266313D01*
X163097690Y-71210456D01*
X163097692Y-71210454D01*
X163097694Y-71210454D01*
X163097697Y-71210452D01*
X163240884Y-71120481D01*
X163240885Y-71120480D01*
X163240890Y-71120477D01*
X163360477Y-71000890D01*
X163450452Y-70857697D01*
X163450454Y-70857694D01*
X163450454Y-70857692D01*
X163450456Y-70857690D01*
X163506313Y-70698059D01*
X163506313Y-70698058D01*
X163506314Y-70698056D01*
X163525249Y-70530002D01*
X163525249Y-70529997D01*
X163506314Y-70361943D01*
X163450454Y-70202305D01*
X163450452Y-70202302D01*
X163360481Y-70059115D01*
X163360476Y-70059109D01*
X163240890Y-69939523D01*
X163240884Y-69939518D01*
X163097697Y-69849547D01*
X163097694Y-69849545D01*
X162938056Y-69793685D01*
X162770003Y-69774751D01*
X162769997Y-69774751D01*
X162601943Y-69793685D01*
X162442305Y-69849545D01*
X162442302Y-69849547D01*
X162299115Y-69939518D01*
X162299109Y-69939523D01*
X162179523Y-70059109D01*
X162179518Y-70059115D01*
X162089547Y-70202302D01*
X162089545Y-70202305D01*
X162033685Y-70361943D01*
X162014751Y-70529997D01*
X95000000Y-70529997D01*
X95000000Y-65669997D01*
X111234751Y-65669997D01*
X111234751Y-65670002D01*
X111253685Y-65838056D01*
X111309545Y-65997694D01*
X111309547Y-65997697D01*
X111399518Y-66140884D01*
X111399523Y-66140890D01*
X111519109Y-66260476D01*
X111519115Y-66260481D01*
X111662302Y-66350452D01*
X111662305Y-66350454D01*
X111662309Y-66350455D01*
X111662310Y-66350456D01*
X111734913Y-66375860D01*
X111821943Y-66406314D01*
X111989997Y-66425249D01*
X111990000Y-66425249D01*
X111990003Y-66425249D01*
X112158056Y-66406314D01*
X112158059Y-66406313D01*
X112317690Y-66350456D01*
X112419028Y-66286780D01*
X112486264Y-66267780D01*
X112550971Y-66286780D01*
X112595695Y-66314882D01*
X112652306Y-66350454D01*
X112652307Y-66350454D01*
X112652310Y-66350456D01*
X112744996Y-66382888D01*
X112811943Y-66406314D01*
X112979997Y-66425249D01*
X112980000Y-66425249D01*
X112980003Y-66425249D01*
X113148056Y-66406314D01*
X113148059Y-66406313D01*
X113307690Y-66350456D01*
X113307692Y-66350454D01*
X113307694Y-66350454D01*
X113307697Y-66350452D01*
X113450884Y-66260481D01*
X113450885Y-66260480D01*
X113450890Y-66260477D01*
X113570477Y-66140890D01*
X113648749Y-66016320D01*
X113701083Y-65970031D01*
X113770136Y-65959383D01*
X113833985Y-65987758D01*
X113871673Y-66043975D01*
X113882819Y-66078280D01*
X113882821Y-66078284D01*
X113977467Y-66242216D01*
X114104129Y-66382888D01*
X114257265Y-66494148D01*
X114257270Y-66494151D01*
X114430192Y-66571142D01*
X114430197Y-66571144D01*
X114615354Y-66610500D01*
X114615355Y-66610500D01*
X114804644Y-66610500D01*
X114804646Y-66610500D01*
X114989803Y-66571144D01*
X115082220Y-66529997D01*
X160484751Y-66529997D01*
X160484751Y-66530002D01*
X160503685Y-66698056D01*
X160559545Y-66857694D01*
X160559547Y-66857697D01*
X160649518Y-67000884D01*
X160649523Y-67000890D01*
X160769109Y-67120476D01*
X160769115Y-67120481D01*
X160912302Y-67210452D01*
X160912305Y-67210454D01*
X160912309Y-67210455D01*
X160912310Y-67210456D01*
X161071941Y-67266313D01*
X161071944Y-67266314D01*
X161153581Y-67275511D01*
X161194164Y-67280084D01*
X161258577Y-67307150D01*
X161298132Y-67364745D01*
X161300270Y-67434582D01*
X161267963Y-67490984D01*
X161244675Y-67514272D01*
X161154704Y-67657459D01*
X161154702Y-67657462D01*
X161098842Y-67817100D01*
X161079908Y-67985154D01*
X161079908Y-67985159D01*
X161098842Y-68153213D01*
X161154702Y-68312851D01*
X161154704Y-68312854D01*
X161244675Y-68456041D01*
X161244680Y-68456047D01*
X161364266Y-68575633D01*
X161364272Y-68575638D01*
X161507459Y-68665609D01*
X161507462Y-68665611D01*
X161507466Y-68665612D01*
X161507467Y-68665613D01*
X161549946Y-68680477D01*
X161667100Y-68721471D01*
X161835154Y-68740406D01*
X161835157Y-68740406D01*
X161835160Y-68740406D01*
X162003213Y-68721471D01*
X162031297Y-68711644D01*
X162058489Y-68702128D01*
X162128268Y-68698567D01*
X162159391Y-68711644D01*
X162159515Y-68711388D01*
X162164538Y-68713807D01*
X162165414Y-68714175D01*
X162165781Y-68714406D01*
X162325412Y-68770263D01*
X162354337Y-68773522D01*
X162418750Y-68800586D01*
X162457496Y-68855785D01*
X162459545Y-68861642D01*
X162459548Y-68861648D01*
X162549518Y-69004833D01*
X162549523Y-69004839D01*
X162669109Y-69124425D01*
X162669115Y-69124430D01*
X162812302Y-69214401D01*
X162812305Y-69214403D01*
X162812309Y-69214404D01*
X162812310Y-69214405D01*
X162884913Y-69239809D01*
X162971943Y-69270263D01*
X163139997Y-69289198D01*
X163140000Y-69289198D01*
X163140003Y-69289198D01*
X163308056Y-69270263D01*
X163308059Y-69270262D01*
X163467690Y-69214405D01*
X163467692Y-69214403D01*
X163467694Y-69214403D01*
X163467697Y-69214401D01*
X163610884Y-69124430D01*
X163610885Y-69124429D01*
X163610890Y-69124426D01*
X163730477Y-69004839D01*
X163759873Y-68958056D01*
X163820452Y-68861646D01*
X163820454Y-68861643D01*
X163820454Y-68861641D01*
X163820456Y-68861639D01*
X163876313Y-68702008D01*
X163876313Y-68702007D01*
X163876314Y-68702005D01*
X163895249Y-68533951D01*
X163895249Y-68533946D01*
X163876314Y-68365892D01*
X163845860Y-68278862D01*
X163820456Y-68206259D01*
X163820455Y-68206258D01*
X163820454Y-68206254D01*
X163820452Y-68206251D01*
X163730481Y-68063064D01*
X163730476Y-68063058D01*
X163610890Y-67943472D01*
X163610884Y-67943467D01*
X163467697Y-67853496D01*
X163467692Y-67853493D01*
X163361269Y-67816255D01*
X163308059Y-67797636D01*
X163292569Y-67795890D01*
X163279129Y-67794376D01*
X163214716Y-67767307D01*
X163175974Y-67712111D01*
X163173925Y-67706255D01*
X163173923Y-67706252D01*
X163083952Y-67563065D01*
X163083947Y-67563059D01*
X162964361Y-67443473D01*
X162964355Y-67443468D01*
X162821168Y-67353497D01*
X162821165Y-67353495D01*
X162661527Y-67297635D01*
X162493474Y-67278701D01*
X162493468Y-67278701D01*
X162325412Y-67297636D01*
X162325408Y-67297637D01*
X162270135Y-67316977D01*
X162200356Y-67320538D01*
X162169246Y-67307466D01*
X162169123Y-67307723D01*
X162164088Y-67305298D01*
X162163216Y-67304932D01*
X162162851Y-67304702D01*
X162003213Y-67248842D01*
X161880992Y-67235072D01*
X161816578Y-67208006D01*
X161777023Y-67150411D01*
X161774886Y-67080574D01*
X161807193Y-67024173D01*
X161830477Y-67000890D01*
X161830481Y-67000884D01*
X161920452Y-66857697D01*
X161920454Y-66857694D01*
X161920454Y-66857692D01*
X161920456Y-66857690D01*
X161976313Y-66698059D01*
X161976313Y-66698058D01*
X161976314Y-66698056D01*
X161995249Y-66530002D01*
X161995249Y-66529997D01*
X161976314Y-66361943D01*
X161975633Y-66359997D01*
X167114751Y-66359997D01*
X167114751Y-66360002D01*
X167133685Y-66528056D01*
X167189545Y-66687694D01*
X167189547Y-66687697D01*
X167279518Y-66830884D01*
X167279523Y-66830890D01*
X167399109Y-66950476D01*
X167399115Y-66950481D01*
X167542302Y-67040452D01*
X167542305Y-67040454D01*
X167542309Y-67040455D01*
X167542310Y-67040456D01*
X167614913Y-67065860D01*
X167701943Y-67096314D01*
X167869997Y-67115249D01*
X167870000Y-67115249D01*
X167870003Y-67115249D01*
X168038056Y-67096314D01*
X168038059Y-67096313D01*
X168197690Y-67040456D01*
X168197692Y-67040454D01*
X168197694Y-67040454D01*
X168197697Y-67040452D01*
X168340884Y-66950481D01*
X168340885Y-66950480D01*
X168340890Y-66950477D01*
X168460477Y-66830890D01*
X168542723Y-66699997D01*
X169964751Y-66699997D01*
X169964751Y-66700002D01*
X169983685Y-66868056D01*
X170039545Y-67027694D01*
X170039547Y-67027697D01*
X170129518Y-67170884D01*
X170129523Y-67170890D01*
X170249109Y-67290476D01*
X170249115Y-67290481D01*
X170392302Y-67380452D01*
X170392305Y-67380454D01*
X170392309Y-67380455D01*
X170392310Y-67380456D01*
X170432960Y-67394680D01*
X170551943Y-67436314D01*
X170719997Y-67455249D01*
X170720000Y-67455249D01*
X170720003Y-67455249D01*
X170824558Y-67443468D01*
X170888059Y-67436313D01*
X170896498Y-67433359D01*
X170966276Y-67429796D01*
X171026905Y-67464522D01*
X171059135Y-67526514D01*
X171052732Y-67596090D01*
X171042451Y-67616372D01*
X170950753Y-67762307D01*
X170894893Y-67921943D01*
X170875959Y-68089997D01*
X170875959Y-68090002D01*
X170894893Y-68258056D01*
X170950753Y-68417694D01*
X170950755Y-68417697D01*
X171040726Y-68560884D01*
X171040731Y-68560890D01*
X171160318Y-68680477D01*
X171176722Y-68690784D01*
X171223013Y-68743116D01*
X171231970Y-68783305D01*
X171233971Y-68783080D01*
X171253685Y-68958056D01*
X171309545Y-69117693D01*
X171353182Y-69187139D01*
X171372183Y-69254376D01*
X171351816Y-69321211D01*
X171298548Y-69366425D01*
X171289146Y-69370153D01*
X171262308Y-69379544D01*
X171262302Y-69379547D01*
X171119115Y-69469518D01*
X171119109Y-69469523D01*
X170999523Y-69589109D01*
X170999518Y-69589115D01*
X170909547Y-69732302D01*
X170909545Y-69732305D01*
X170853685Y-69891943D01*
X170834751Y-70059997D01*
X170834751Y-70060002D01*
X170853685Y-70228056D01*
X170909545Y-70387694D01*
X170909547Y-70387697D01*
X170999518Y-70530884D01*
X170999523Y-70530890D01*
X171119109Y-70650476D01*
X171119115Y-70650481D01*
X171262302Y-70740452D01*
X171262305Y-70740454D01*
X171262309Y-70740455D01*
X171262310Y-70740456D01*
X171334913Y-70765860D01*
X171421943Y-70796314D01*
X171589997Y-70815249D01*
X171590000Y-70815249D01*
X171590003Y-70815249D01*
X171758056Y-70796314D01*
X171758059Y-70796313D01*
X171917690Y-70740456D01*
X171917692Y-70740454D01*
X171917694Y-70740454D01*
X171917697Y-70740452D01*
X172060884Y-70650481D01*
X172060885Y-70650480D01*
X172060890Y-70650477D01*
X172180477Y-70530890D01*
X172270452Y-70387697D01*
X172270454Y-70387694D01*
X172270454Y-70387692D01*
X172270456Y-70387690D01*
X172326313Y-70228059D01*
X172326313Y-70228058D01*
X172326314Y-70228056D01*
X172345249Y-70060002D01*
X172345249Y-70059997D01*
X172326314Y-69891943D01*
X172307694Y-69838730D01*
X172270456Y-69732310D01*
X172270454Y-69732307D01*
X172270454Y-69732306D01*
X172226817Y-69662860D01*
X172207816Y-69595624D01*
X172228183Y-69528788D01*
X172281450Y-69483574D01*
X172290852Y-69479846D01*
X172317690Y-69470456D01*
X172317697Y-69470452D01*
X172460884Y-69380481D01*
X172460885Y-69380480D01*
X172460890Y-69380477D01*
X172580477Y-69260890D01*
X172666221Y-69124430D01*
X172670452Y-69117697D01*
X172670454Y-69117694D01*
X172670454Y-69117692D01*
X172670456Y-69117690D01*
X172726313Y-68958059D01*
X172726313Y-68958058D01*
X172726314Y-68958056D01*
X172745249Y-68790002D01*
X172745249Y-68789997D01*
X172726314Y-68621943D01*
X172670454Y-68462305D01*
X172670452Y-68462302D01*
X172580481Y-68319115D01*
X172580476Y-68319109D01*
X172460890Y-68199523D01*
X172460887Y-68199521D01*
X172444484Y-68189214D01*
X172398193Y-68136879D01*
X172389237Y-68096694D01*
X172387237Y-68096920D01*
X172367522Y-67921944D01*
X172322884Y-67794376D01*
X172311664Y-67762310D01*
X172311663Y-67762309D01*
X172311662Y-67762305D01*
X172311660Y-67762302D01*
X172221689Y-67619115D01*
X172221684Y-67619109D01*
X172102098Y-67499523D01*
X172102092Y-67499518D01*
X171958905Y-67409547D01*
X171958902Y-67409545D01*
X171799264Y-67353685D01*
X171631211Y-67334751D01*
X171631205Y-67334751D01*
X171463148Y-67353686D01*
X171463146Y-67353686D01*
X171454700Y-67356642D01*
X171384921Y-67360201D01*
X171324295Y-67325470D01*
X171292070Y-67263475D01*
X171298478Y-67193900D01*
X171308757Y-67173626D01*
X171310474Y-67170892D01*
X171310477Y-67170890D01*
X171400456Y-67027690D01*
X171456313Y-66868059D01*
X171456313Y-66868058D01*
X171456314Y-66868056D01*
X171475249Y-66700002D01*
X171475249Y-66699997D01*
X171456314Y-66531943D01*
X171400454Y-66372305D01*
X171400452Y-66372302D01*
X171310481Y-66229115D01*
X171310476Y-66229109D01*
X171190890Y-66109523D01*
X171190884Y-66109518D01*
X171047697Y-66019547D01*
X171047694Y-66019545D01*
X170888056Y-65963685D01*
X170720003Y-65944751D01*
X170719997Y-65944751D01*
X170551943Y-65963685D01*
X170392305Y-66019545D01*
X170392302Y-66019547D01*
X170249115Y-66109518D01*
X170249109Y-66109523D01*
X170129523Y-66229109D01*
X170129518Y-66229115D01*
X170039547Y-66372302D01*
X170039545Y-66372305D01*
X169983685Y-66531943D01*
X169964751Y-66699997D01*
X168542723Y-66699997D01*
X168550452Y-66687697D01*
X168550454Y-66687694D01*
X168550454Y-66687692D01*
X168550456Y-66687690D01*
X168606313Y-66528059D01*
X168606313Y-66528058D01*
X168606314Y-66528056D01*
X168625249Y-66360002D01*
X168625249Y-66359997D01*
X168606314Y-66191943D01*
X168566543Y-66078284D01*
X168550456Y-66032310D01*
X168550455Y-66032309D01*
X168550454Y-66032305D01*
X168550452Y-66032302D01*
X168460481Y-65889115D01*
X168460476Y-65889109D01*
X168340890Y-65769523D01*
X168340884Y-65769518D01*
X168197697Y-65679547D01*
X168197694Y-65679545D01*
X168038056Y-65623685D01*
X167870003Y-65604751D01*
X167869997Y-65604751D01*
X167701943Y-65623685D01*
X167542305Y-65679545D01*
X167542302Y-65679547D01*
X167399115Y-65769518D01*
X167399109Y-65769523D01*
X167279523Y-65889109D01*
X167279518Y-65889115D01*
X167189547Y-66032302D01*
X167189545Y-66032305D01*
X167133685Y-66191943D01*
X167114751Y-66359997D01*
X161975633Y-66359997D01*
X161920454Y-66202305D01*
X161920452Y-66202302D01*
X161830481Y-66059115D01*
X161830476Y-66059109D01*
X161710890Y-65939523D01*
X161710884Y-65939518D01*
X161567697Y-65849547D01*
X161567694Y-65849545D01*
X161408056Y-65793685D01*
X161240003Y-65774751D01*
X161239997Y-65774751D01*
X161071943Y-65793685D01*
X160912305Y-65849545D01*
X160912302Y-65849547D01*
X160769115Y-65939518D01*
X160769109Y-65939523D01*
X160649523Y-66059109D01*
X160649518Y-66059115D01*
X160559547Y-66202302D01*
X160559545Y-66202305D01*
X160503685Y-66361943D01*
X160484751Y-66529997D01*
X115082220Y-66529997D01*
X115162730Y-66494151D01*
X115315871Y-66382888D01*
X115442533Y-66242216D01*
X115537179Y-66078284D01*
X115595674Y-65898256D01*
X115615460Y-65710000D01*
X115595674Y-65521744D01*
X115537179Y-65341716D01*
X115442533Y-65177784D01*
X115315871Y-65037112D01*
X115315870Y-65037111D01*
X115162734Y-64925851D01*
X115162729Y-64925848D01*
X114989807Y-64848857D01*
X114989802Y-64848855D01*
X114844001Y-64817865D01*
X114804646Y-64809500D01*
X114615354Y-64809500D01*
X114582897Y-64816398D01*
X114430197Y-64848855D01*
X114430192Y-64848857D01*
X114257270Y-64925848D01*
X114257265Y-64925851D01*
X114104129Y-65037111D01*
X113977466Y-65177785D01*
X113879572Y-65347344D01*
X113877390Y-65346084D01*
X113839423Y-65390705D01*
X113772564Y-65410992D01*
X113705350Y-65391911D01*
X113665560Y-65347327D01*
X113664162Y-65348206D01*
X113570481Y-65199115D01*
X113570476Y-65199109D01*
X113450890Y-65079523D01*
X113450884Y-65079518D01*
X113307697Y-64989547D01*
X113307694Y-64989545D01*
X113148056Y-64933685D01*
X112980003Y-64914751D01*
X112979997Y-64914751D01*
X112811943Y-64933685D01*
X112652307Y-64989545D01*
X112550972Y-65053219D01*
X112483736Y-65072219D01*
X112419028Y-65053219D01*
X112317692Y-64989545D01*
X112317691Y-64989544D01*
X112317690Y-64989544D01*
X112279370Y-64976135D01*
X112158056Y-64933685D01*
X111990003Y-64914751D01*
X111989997Y-64914751D01*
X111821943Y-64933685D01*
X111662305Y-64989545D01*
X111662302Y-64989547D01*
X111519115Y-65079518D01*
X111519109Y-65079523D01*
X111399523Y-65199109D01*
X111399518Y-65199115D01*
X111309547Y-65342302D01*
X111309545Y-65342305D01*
X111253685Y-65501943D01*
X111234751Y-65669997D01*
X95000000Y-65669997D01*
X95000000Y-63738948D01*
X165593702Y-63738948D01*
X165593702Y-63738953D01*
X165612636Y-63907007D01*
X165668496Y-64066645D01*
X165668498Y-64066648D01*
X165758469Y-64209835D01*
X165758474Y-64209841D01*
X165878060Y-64329427D01*
X165878066Y-64329432D01*
X166021253Y-64419403D01*
X166021256Y-64419405D01*
X166021260Y-64419406D01*
X166021261Y-64419407D01*
X166093864Y-64444811D01*
X166180894Y-64475265D01*
X166348948Y-64494200D01*
X166348951Y-64494200D01*
X166348954Y-64494200D01*
X166517007Y-64475265D01*
X166517010Y-64475264D01*
X166676641Y-64419407D01*
X166676643Y-64419405D01*
X166676645Y-64419405D01*
X166676648Y-64419403D01*
X166819835Y-64329432D01*
X166819836Y-64329431D01*
X166819841Y-64329428D01*
X166939428Y-64209841D01*
X167029403Y-64066648D01*
X167029405Y-64066645D01*
X167029405Y-64066643D01*
X167029407Y-64066641D01*
X167085264Y-63907010D01*
X167085264Y-63907009D01*
X167085265Y-63907007D01*
X167104200Y-63738953D01*
X167104200Y-63738948D01*
X167085265Y-63570894D01*
X167029405Y-63411256D01*
X167029403Y-63411253D01*
X166939432Y-63268066D01*
X166939427Y-63268060D01*
X166819841Y-63148474D01*
X166819835Y-63148469D01*
X166676648Y-63058498D01*
X166676645Y-63058496D01*
X166517007Y-63002636D01*
X166348954Y-62983702D01*
X166348948Y-62983702D01*
X166180894Y-63002636D01*
X166021256Y-63058496D01*
X166021253Y-63058498D01*
X165878066Y-63148469D01*
X165878060Y-63148474D01*
X165758474Y-63268060D01*
X165758469Y-63268066D01*
X165668498Y-63411253D01*
X165668496Y-63411256D01*
X165612636Y-63570894D01*
X165593702Y-63738948D01*
X95000000Y-63738948D01*
X95000000Y-62330000D01*
X111344540Y-62330000D01*
X111364326Y-62518256D01*
X111364327Y-62518259D01*
X111422818Y-62698277D01*
X111422821Y-62698284D01*
X111517467Y-62862216D01*
X111626854Y-62983702D01*
X111644129Y-63002888D01*
X111797265Y-63114148D01*
X111797270Y-63114151D01*
X111970192Y-63191142D01*
X111970197Y-63191144D01*
X112155354Y-63230500D01*
X112155355Y-63230500D01*
X112344644Y-63230500D01*
X112344646Y-63230500D01*
X112529803Y-63191144D01*
X112702730Y-63114151D01*
X112855871Y-63002888D01*
X112982533Y-62862216D01*
X113077179Y-62698284D01*
X113135674Y-62518256D01*
X113155460Y-62330000D01*
X113135674Y-62141744D01*
X113077179Y-61961716D01*
X112982533Y-61797784D01*
X112855871Y-61657112D01*
X112855870Y-61657111D01*
X112702734Y-61545851D01*
X112702729Y-61545848D01*
X112529807Y-61468857D01*
X112529802Y-61468855D01*
X112384001Y-61437865D01*
X112344646Y-61429500D01*
X112155354Y-61429500D01*
X112122897Y-61436398D01*
X111970197Y-61468855D01*
X111970192Y-61468857D01*
X111797270Y-61545848D01*
X111797265Y-61545851D01*
X111644129Y-61657111D01*
X111517466Y-61797785D01*
X111422821Y-61961715D01*
X111422818Y-61961722D01*
X111364327Y-62141740D01*
X111364326Y-62141744D01*
X111344540Y-62330000D01*
X95000000Y-62330000D01*
X95000000Y-61279997D01*
X174944751Y-61279997D01*
X174944751Y-61280002D01*
X174963685Y-61448056D01*
X175019545Y-61607694D01*
X175019547Y-61607697D01*
X175109518Y-61750884D01*
X175109523Y-61750890D01*
X175229109Y-61870476D01*
X175229115Y-61870481D01*
X175372302Y-61960452D01*
X175372305Y-61960454D01*
X175372309Y-61960455D01*
X175372310Y-61960456D01*
X175444913Y-61985860D01*
X175531943Y-62016314D01*
X175699997Y-62035249D01*
X175700000Y-62035249D01*
X175700003Y-62035249D01*
X175868056Y-62016314D01*
X175868059Y-62016313D01*
X176027690Y-61960456D01*
X176027692Y-61960454D01*
X176027694Y-61960454D01*
X176027697Y-61960452D01*
X176170884Y-61870481D01*
X176170885Y-61870480D01*
X176170890Y-61870477D01*
X176290477Y-61750890D01*
X176380452Y-61607697D01*
X176380454Y-61607694D01*
X176380454Y-61607692D01*
X176380456Y-61607690D01*
X176436313Y-61448059D01*
X176436313Y-61448058D01*
X176436314Y-61448056D01*
X176455249Y-61280002D01*
X176455249Y-61279997D01*
X176436314Y-61111943D01*
X176380454Y-60952305D01*
X176380452Y-60952302D01*
X176290481Y-60809115D01*
X176290476Y-60809109D01*
X176170890Y-60689523D01*
X176170884Y-60689518D01*
X176027697Y-60599547D01*
X176027694Y-60599545D01*
X175868056Y-60543685D01*
X175700003Y-60524751D01*
X175699997Y-60524751D01*
X175531943Y-60543685D01*
X175372305Y-60599545D01*
X175372302Y-60599547D01*
X175229115Y-60689518D01*
X175229109Y-60689523D01*
X175109523Y-60809109D01*
X175109518Y-60809115D01*
X175019547Y-60952302D01*
X175019545Y-60952305D01*
X174963685Y-61111943D01*
X174944751Y-61279997D01*
X95000000Y-61279997D01*
X95000000Y-57963949D01*
X120438541Y-57963949D01*
X120458150Y-58250629D01*
X120516615Y-58531983D01*
X120516616Y-58531986D01*
X120612843Y-58802742D01*
X120612842Y-58802742D01*
X120745047Y-59057884D01*
X120910761Y-59292649D01*
X120995872Y-59383780D01*
X121106896Y-59502657D01*
X121329802Y-59684004D01*
X121575331Y-59833314D01*
X121762186Y-59914475D01*
X121838891Y-59947793D01*
X122115591Y-60025320D01*
X122365869Y-60059720D01*
X122400270Y-60064449D01*
X122400271Y-60064449D01*
X122687628Y-60064449D01*
X122718319Y-60060230D01*
X122972307Y-60025320D01*
X123249007Y-59947793D01*
X123361964Y-59898728D01*
X123512566Y-59833314D01*
X123512569Y-59833312D01*
X123512574Y-59833310D01*
X123758096Y-59684004D01*
X123981002Y-59502657D01*
X124177138Y-59292647D01*
X124342850Y-59057885D01*
X124475053Y-58802746D01*
X124571283Y-58531981D01*
X124629747Y-58250635D01*
X124649357Y-57963949D01*
X125438541Y-57963949D01*
X125458150Y-58250629D01*
X125516615Y-58531983D01*
X125516616Y-58531986D01*
X125612843Y-58802742D01*
X125612842Y-58802742D01*
X125745047Y-59057884D01*
X125910761Y-59292649D01*
X125995872Y-59383780D01*
X126106896Y-59502657D01*
X126329802Y-59684004D01*
X126575331Y-59833314D01*
X126762186Y-59914475D01*
X126838891Y-59947793D01*
X127115591Y-60025320D01*
X127365869Y-60059720D01*
X127400270Y-60064449D01*
X127400271Y-60064449D01*
X127687628Y-60064449D01*
X127718319Y-60060230D01*
X127972307Y-60025320D01*
X128249007Y-59947793D01*
X128361964Y-59898728D01*
X128512566Y-59833314D01*
X128512569Y-59833312D01*
X128512574Y-59833310D01*
X128758096Y-59684004D01*
X128981002Y-59502657D01*
X129177138Y-59292647D01*
X129342850Y-59057885D01*
X129475053Y-58802746D01*
X129571283Y-58531981D01*
X129629747Y-58250635D01*
X129649357Y-57963949D01*
X129629747Y-57677263D01*
X129571283Y-57395917D01*
X129475054Y-57125155D01*
X129475055Y-57125155D01*
X129342850Y-56870013D01*
X129177136Y-56635248D01*
X129098503Y-56551054D01*
X128981002Y-56425241D01*
X128758096Y-56243894D01*
X128758095Y-56243893D01*
X128512566Y-56094583D01*
X128249012Y-55980107D01*
X128249010Y-55980106D01*
X128249007Y-55980105D01*
X128119527Y-55943826D01*
X127972313Y-55902579D01*
X127972308Y-55902578D01*
X127972307Y-55902578D01*
X127829967Y-55883013D01*
X127687628Y-55863449D01*
X127687627Y-55863449D01*
X127400271Y-55863449D01*
X127400270Y-55863449D01*
X127115591Y-55902578D01*
X127115584Y-55902579D01*
X126907810Y-55960794D01*
X126838891Y-55980105D01*
X126838888Y-55980105D01*
X126838885Y-55980107D01*
X126838884Y-55980107D01*
X126575331Y-56094583D01*
X126329802Y-56243893D01*
X126106899Y-56425238D01*
X125910761Y-56635248D01*
X125745047Y-56870013D01*
X125612843Y-57125155D01*
X125516616Y-57395911D01*
X125516615Y-57395914D01*
X125458150Y-57677268D01*
X125438541Y-57963949D01*
X124649357Y-57963949D01*
X124629747Y-57677263D01*
X124571283Y-57395917D01*
X124475054Y-57125155D01*
X124475055Y-57125155D01*
X124342850Y-56870013D01*
X124177136Y-56635248D01*
X124098503Y-56551054D01*
X123981002Y-56425241D01*
X123758096Y-56243894D01*
X123758095Y-56243893D01*
X123512566Y-56094583D01*
X123249012Y-55980107D01*
X123249010Y-55980106D01*
X123249007Y-55980105D01*
X123119527Y-55943826D01*
X122972313Y-55902579D01*
X122972308Y-55902578D01*
X122972307Y-55902578D01*
X122829967Y-55883013D01*
X122687628Y-55863449D01*
X122687627Y-55863449D01*
X122400271Y-55863449D01*
X122400270Y-55863449D01*
X122115591Y-55902578D01*
X122115584Y-55902579D01*
X121907810Y-55960794D01*
X121838891Y-55980105D01*
X121838888Y-55980105D01*
X121838885Y-55980107D01*
X121838884Y-55980107D01*
X121575331Y-56094583D01*
X121329802Y-56243893D01*
X121106899Y-56425238D01*
X120910761Y-56635248D01*
X120745047Y-56870013D01*
X120612843Y-57125155D01*
X120516616Y-57395911D01*
X120516615Y-57395914D01*
X120458150Y-57677268D01*
X120438541Y-57963949D01*
X95000000Y-57963949D01*
X95000000Y-48868872D01*
X96999500Y-48868872D01*
X96999500Y-49131127D01*
X97014347Y-49243893D01*
X97033730Y-49391116D01*
X97101602Y-49644418D01*
X97101605Y-49644428D01*
X97201953Y-49886690D01*
X97201958Y-49886700D01*
X97333075Y-50113803D01*
X97492718Y-50321851D01*
X97492726Y-50321860D01*
X97678140Y-50507274D01*
X97678148Y-50507281D01*
X97886196Y-50666924D01*
X98113299Y-50798041D01*
X98113309Y-50798046D01*
X98324698Y-50885606D01*
X98355581Y-50898398D01*
X98608884Y-50966270D01*
X98868880Y-51000500D01*
X98868887Y-51000500D01*
X99131113Y-51000500D01*
X99131120Y-51000500D01*
X99391116Y-50966270D01*
X99399778Y-50963949D01*
X120438541Y-50963949D01*
X120458150Y-51250629D01*
X120516615Y-51531983D01*
X120516616Y-51531986D01*
X120612843Y-51802742D01*
X120612842Y-51802742D01*
X120745047Y-52057884D01*
X120910761Y-52292649D01*
X120951850Y-52336644D01*
X121106896Y-52502657D01*
X121329802Y-52684004D01*
X121566235Y-52827783D01*
X121575331Y-52833314D01*
X121762186Y-52914475D01*
X121838891Y-52947793D01*
X122115591Y-53025320D01*
X122365869Y-53059720D01*
X122400270Y-53064449D01*
X122400271Y-53064449D01*
X122687628Y-53064449D01*
X122718319Y-53060230D01*
X122972307Y-53025320D01*
X123249007Y-52947793D01*
X123392176Y-52885606D01*
X123512566Y-52833314D01*
X123512569Y-52833312D01*
X123512574Y-52833310D01*
X123758096Y-52684004D01*
X123981002Y-52502657D01*
X124177138Y-52292647D01*
X124342850Y-52057885D01*
X124475053Y-51802746D01*
X124571283Y-51531981D01*
X124629747Y-51250635D01*
X124649357Y-50963949D01*
X125438541Y-50963949D01*
X125458150Y-51250629D01*
X125516615Y-51531983D01*
X125516616Y-51531986D01*
X125612843Y-51802742D01*
X125612842Y-51802742D01*
X125745047Y-52057884D01*
X125910761Y-52292649D01*
X125951850Y-52336644D01*
X126106896Y-52502657D01*
X126329802Y-52684004D01*
X126566235Y-52827783D01*
X126575331Y-52833314D01*
X126762186Y-52914475D01*
X126838891Y-52947793D01*
X127115591Y-53025320D01*
X127365869Y-53059720D01*
X127400270Y-53064449D01*
X127400271Y-53064449D01*
X127687628Y-53064449D01*
X127718319Y-53060230D01*
X127972307Y-53025320D01*
X128249007Y-52947793D01*
X128392176Y-52885606D01*
X128512566Y-52833314D01*
X128512569Y-52833312D01*
X128512574Y-52833310D01*
X128758096Y-52684004D01*
X128981002Y-52502657D01*
X129177138Y-52292647D01*
X129342850Y-52057885D01*
X129475053Y-51802746D01*
X129571283Y-51531981D01*
X129629747Y-51250635D01*
X129644155Y-51039999D01*
X160374571Y-51039999D01*
X160374571Y-51040000D01*
X160394244Y-51252310D01*
X160452596Y-51457392D01*
X160452596Y-51457394D01*
X160547632Y-51648253D01*
X160676127Y-51818406D01*
X160818682Y-51948363D01*
X160854963Y-52008075D01*
X160853202Y-52077922D01*
X160818682Y-52131637D01*
X160676127Y-52261593D01*
X160547632Y-52431746D01*
X160452596Y-52622605D01*
X160452596Y-52622607D01*
X160394244Y-52827689D01*
X160374571Y-53039999D01*
X160374571Y-53040000D01*
X160394244Y-53252310D01*
X160452596Y-53457392D01*
X160452596Y-53457394D01*
X160547632Y-53648253D01*
X160619450Y-53743354D01*
X160676128Y-53818407D01*
X160833698Y-53962052D01*
X161014981Y-54074298D01*
X161213802Y-54151321D01*
X161423390Y-54190500D01*
X161423392Y-54190500D01*
X161636608Y-54190500D01*
X161636610Y-54190500D01*
X161846198Y-54151321D01*
X162045019Y-54074298D01*
X162226302Y-53962052D01*
X162383872Y-53818407D01*
X162431046Y-53755938D01*
X162487155Y-53714303D01*
X162556867Y-53709612D01*
X162618049Y-53743354D01*
X162628953Y-53755938D01*
X162676128Y-53818407D01*
X162833698Y-53962052D01*
X163014981Y-54074298D01*
X163213802Y-54151321D01*
X163423390Y-54190500D01*
X163423392Y-54190500D01*
X163636608Y-54190500D01*
X163636610Y-54190500D01*
X163846198Y-54151321D01*
X164045019Y-54074298D01*
X164226302Y-53962052D01*
X164383872Y-53818407D01*
X164465936Y-53709737D01*
X164522043Y-53668103D01*
X164552721Y-53663725D01*
X165130000Y-53086446D01*
X165130000Y-53092661D01*
X165157259Y-53194394D01*
X165209920Y-53285606D01*
X165284394Y-53360080D01*
X165375606Y-53412741D01*
X165477339Y-53440000D01*
X165483553Y-53440000D01*
X164912991Y-54010559D01*
X165015204Y-54073847D01*
X165015208Y-54073849D01*
X165213936Y-54150836D01*
X165213941Y-54150837D01*
X165423439Y-54190000D01*
X165636561Y-54190000D01*
X165846058Y-54150837D01*
X165846063Y-54150836D01*
X166044791Y-54073849D01*
X166044798Y-54073846D01*
X166147006Y-54010560D01*
X166147006Y-54010559D01*
X165576448Y-53440000D01*
X165582661Y-53440000D01*
X165684394Y-53412741D01*
X165775606Y-53360080D01*
X165850080Y-53285606D01*
X165902741Y-53194394D01*
X165930000Y-53092661D01*
X165930000Y-53086447D01*
X166509326Y-53665773D01*
X166554771Y-53675761D01*
X166594064Y-53709738D01*
X166676128Y-53818407D01*
X166833698Y-53962052D01*
X167014981Y-54074298D01*
X167213802Y-54151321D01*
X167423390Y-54190500D01*
X167423392Y-54190500D01*
X167636608Y-54190500D01*
X167636610Y-54190500D01*
X167846198Y-54151321D01*
X168045019Y-54074298D01*
X168226302Y-53962052D01*
X168383872Y-53818407D01*
X168465936Y-53709737D01*
X168522043Y-53668103D01*
X168552721Y-53663725D01*
X169130000Y-53086446D01*
X169130000Y-53092661D01*
X169157259Y-53194394D01*
X169209920Y-53285606D01*
X169284394Y-53360080D01*
X169375606Y-53412741D01*
X169477339Y-53440000D01*
X169483553Y-53440000D01*
X168912991Y-54010559D01*
X169015204Y-54073847D01*
X169015208Y-54073849D01*
X169213936Y-54150836D01*
X169213941Y-54150837D01*
X169423439Y-54190000D01*
X169636561Y-54190000D01*
X169846058Y-54150837D01*
X169846063Y-54150836D01*
X170044791Y-54073849D01*
X170044798Y-54073846D01*
X170147006Y-54010560D01*
X170147006Y-54010559D01*
X169576448Y-53440000D01*
X169582661Y-53440000D01*
X169684394Y-53412741D01*
X169775606Y-53360080D01*
X169850080Y-53285606D01*
X169902741Y-53194394D01*
X169930000Y-53092661D01*
X169930000Y-53086447D01*
X170509326Y-53665773D01*
X170554771Y-53675761D01*
X170594064Y-53709738D01*
X170676128Y-53818407D01*
X170833698Y-53962052D01*
X171014981Y-54074298D01*
X171213802Y-54151321D01*
X171423390Y-54190500D01*
X171423392Y-54190500D01*
X171636608Y-54190500D01*
X171636610Y-54190500D01*
X171846198Y-54151321D01*
X172045019Y-54074298D01*
X172226302Y-53962052D01*
X172383872Y-53818407D01*
X172431046Y-53755938D01*
X172487155Y-53714303D01*
X172556867Y-53709612D01*
X172618049Y-53743354D01*
X172628953Y-53755938D01*
X172676128Y-53818407D01*
X172833698Y-53962052D01*
X173014981Y-54074298D01*
X173213802Y-54151321D01*
X173423390Y-54190500D01*
X173423392Y-54190500D01*
X173636608Y-54190500D01*
X173636610Y-54190500D01*
X173846198Y-54151321D01*
X174045019Y-54074298D01*
X174226302Y-53962052D01*
X174383872Y-53818407D01*
X174431046Y-53755938D01*
X174487155Y-53714303D01*
X174556867Y-53709612D01*
X174618049Y-53743354D01*
X174628953Y-53755938D01*
X174676128Y-53818407D01*
X174833698Y-53962052D01*
X175014981Y-54074298D01*
X175213802Y-54151321D01*
X175423390Y-54190500D01*
X175423392Y-54190500D01*
X175636608Y-54190500D01*
X175636610Y-54190500D01*
X175846198Y-54151321D01*
X176045019Y-54074298D01*
X176226302Y-53962052D01*
X176383872Y-53818407D01*
X176465936Y-53709737D01*
X176522043Y-53668103D01*
X176552721Y-53663725D01*
X177130000Y-53086446D01*
X177130000Y-53092661D01*
X177157259Y-53194394D01*
X177209920Y-53285606D01*
X177284394Y-53360080D01*
X177375606Y-53412741D01*
X177477339Y-53440000D01*
X177483553Y-53440000D01*
X176912991Y-54010559D01*
X177015204Y-54073847D01*
X177015208Y-54073849D01*
X177213936Y-54150836D01*
X177213941Y-54150837D01*
X177423439Y-54190000D01*
X177636561Y-54190000D01*
X177846058Y-54150837D01*
X177846063Y-54150836D01*
X178044791Y-54073849D01*
X178044798Y-54073846D01*
X178147006Y-54010560D01*
X178147006Y-54010559D01*
X177576448Y-53440000D01*
X177582661Y-53440000D01*
X177684394Y-53412741D01*
X177775606Y-53360080D01*
X177850080Y-53285606D01*
X177902741Y-53194394D01*
X177930000Y-53092661D01*
X177930000Y-53086447D01*
X178503162Y-53659609D01*
X178503163Y-53659609D01*
X178511940Y-53647988D01*
X178511942Y-53647985D01*
X178606933Y-53457216D01*
X178606941Y-53457196D01*
X178665261Y-53252219D01*
X178665262Y-53252216D01*
X178684927Y-53040000D01*
X178684927Y-53039999D01*
X178665262Y-52827783D01*
X178665261Y-52827780D01*
X178606941Y-52622803D01*
X178606933Y-52622783D01*
X178511942Y-52432014D01*
X178511937Y-52432006D01*
X178503163Y-52420389D01*
X177930000Y-52993552D01*
X177930000Y-52987339D01*
X177902741Y-52885606D01*
X177850080Y-52794394D01*
X177775606Y-52719920D01*
X177684394Y-52667259D01*
X177582661Y-52640000D01*
X177576448Y-52640000D01*
X178147006Y-52069440D01*
X178145249Y-52054288D01*
X178145249Y-52025707D01*
X178147006Y-52010559D01*
X177576448Y-51440000D01*
X177582661Y-51440000D01*
X177684394Y-51412741D01*
X177775606Y-51360080D01*
X177850080Y-51285606D01*
X177902741Y-51194394D01*
X177930000Y-51092661D01*
X177930000Y-51086447D01*
X178503162Y-51659609D01*
X178503163Y-51659609D01*
X178511940Y-51647988D01*
X178511942Y-51647985D01*
X178606933Y-51457216D01*
X178606941Y-51457196D01*
X178665261Y-51252219D01*
X178665262Y-51252216D01*
X178684927Y-51040000D01*
X178684927Y-51039999D01*
X178665262Y-50827783D01*
X178665261Y-50827780D01*
X178606941Y-50622803D01*
X178606933Y-50622783D01*
X178511942Y-50432014D01*
X178511937Y-50432006D01*
X178503163Y-50420389D01*
X178503162Y-50420389D01*
X177930000Y-50993551D01*
X177930000Y-50987339D01*
X177902741Y-50885606D01*
X177850080Y-50794394D01*
X177775606Y-50719920D01*
X177684394Y-50667259D01*
X177582661Y-50640000D01*
X177576448Y-50640000D01*
X178147007Y-50069439D01*
X178044793Y-50006151D01*
X178044789Y-50006149D01*
X177846063Y-49929163D01*
X177846058Y-49929162D01*
X177636561Y-49890000D01*
X177423439Y-49890000D01*
X177213941Y-49929162D01*
X177213936Y-49929163D01*
X177015210Y-50006149D01*
X177015201Y-50006154D01*
X176912992Y-50069438D01*
X176912991Y-50069439D01*
X177483553Y-50640000D01*
X177477339Y-50640000D01*
X177375606Y-50667259D01*
X177284394Y-50719920D01*
X177209920Y-50794394D01*
X177157259Y-50885606D01*
X177130000Y-50987339D01*
X177130000Y-50993552D01*
X176550670Y-50414222D01*
X176505230Y-50404237D01*
X176465933Y-50370258D01*
X176383872Y-50261593D01*
X176226302Y-50117948D01*
X176045019Y-50005702D01*
X176045017Y-50005701D01*
X175847447Y-49929163D01*
X175846198Y-49928679D01*
X175636610Y-49889500D01*
X175423390Y-49889500D01*
X175213802Y-49928679D01*
X175213799Y-49928679D01*
X175213799Y-49928680D01*
X175014982Y-50005701D01*
X175014980Y-50005702D01*
X174833699Y-50117947D01*
X174676126Y-50261594D01*
X174628953Y-50324061D01*
X174572844Y-50365696D01*
X174503132Y-50370387D01*
X174441950Y-50336644D01*
X174431047Y-50324061D01*
X174383873Y-50261594D01*
X174383872Y-50261593D01*
X174226302Y-50117948D01*
X174045019Y-50005702D01*
X174045017Y-50005701D01*
X173847447Y-49929163D01*
X173846198Y-49928679D01*
X173636610Y-49889500D01*
X173423390Y-49889500D01*
X173213802Y-49928679D01*
X173213799Y-49928679D01*
X173213799Y-49928680D01*
X173014982Y-50005701D01*
X173014980Y-50005702D01*
X172833699Y-50117947D01*
X172676126Y-50261594D01*
X172628953Y-50324061D01*
X172572844Y-50365696D01*
X172503132Y-50370387D01*
X172441950Y-50336644D01*
X172431047Y-50324061D01*
X172383873Y-50261594D01*
X172383872Y-50261593D01*
X172226302Y-50117948D01*
X172045019Y-50005702D01*
X172045017Y-50005701D01*
X171847447Y-49929163D01*
X171846198Y-49928679D01*
X171636610Y-49889500D01*
X171423390Y-49889500D01*
X171213802Y-49928679D01*
X171213799Y-49928679D01*
X171213799Y-49928680D01*
X171014982Y-50005701D01*
X171014980Y-50005702D01*
X170833699Y-50117947D01*
X170676127Y-50261593D01*
X170594066Y-50370259D01*
X170537956Y-50411895D01*
X170507278Y-50416273D01*
X169930000Y-50993551D01*
X169930000Y-50987339D01*
X169902741Y-50885606D01*
X169850080Y-50794394D01*
X169775606Y-50719920D01*
X169684394Y-50667259D01*
X169582661Y-50640000D01*
X169576448Y-50640000D01*
X170147007Y-50069439D01*
X170044793Y-50006151D01*
X170044789Y-50006149D01*
X169846063Y-49929163D01*
X169846058Y-49929162D01*
X169636561Y-49890000D01*
X169423439Y-49890000D01*
X169213941Y-49929162D01*
X169213936Y-49929163D01*
X169015210Y-50006149D01*
X169015201Y-50006154D01*
X168912992Y-50069438D01*
X168912991Y-50069439D01*
X169483553Y-50640000D01*
X169477339Y-50640000D01*
X169375606Y-50667259D01*
X169284394Y-50719920D01*
X169209920Y-50794394D01*
X169157259Y-50885606D01*
X169130000Y-50987339D01*
X169130000Y-50993552D01*
X168550670Y-50414222D01*
X168505230Y-50404237D01*
X168465933Y-50370258D01*
X168383872Y-50261593D01*
X168226302Y-50117948D01*
X168045019Y-50005702D01*
X168045017Y-50005701D01*
X167847447Y-49929163D01*
X167846198Y-49928679D01*
X167636610Y-49889500D01*
X167423390Y-49889500D01*
X167213802Y-49928679D01*
X167213799Y-49928679D01*
X167213799Y-49928680D01*
X167014982Y-50005701D01*
X167014980Y-50005702D01*
X166833699Y-50117947D01*
X166676127Y-50261593D01*
X166594066Y-50370259D01*
X166537956Y-50411895D01*
X166507278Y-50416273D01*
X165930000Y-50993551D01*
X165930000Y-50987339D01*
X165902741Y-50885606D01*
X165850080Y-50794394D01*
X165775606Y-50719920D01*
X165684394Y-50667259D01*
X165582661Y-50640000D01*
X165576448Y-50640000D01*
X166147007Y-50069439D01*
X166044793Y-50006151D01*
X166044789Y-50006149D01*
X165846063Y-49929163D01*
X165846058Y-49929162D01*
X165636561Y-49890000D01*
X165423439Y-49890000D01*
X165213941Y-49929162D01*
X165213936Y-49929163D01*
X165015210Y-50006149D01*
X165015201Y-50006154D01*
X164912992Y-50069438D01*
X164912991Y-50069439D01*
X165483553Y-50640000D01*
X165477339Y-50640000D01*
X165375606Y-50667259D01*
X165284394Y-50719920D01*
X165209920Y-50794394D01*
X165157259Y-50885606D01*
X165130000Y-50987339D01*
X165130000Y-50993552D01*
X164550670Y-50414222D01*
X164505230Y-50404237D01*
X164465933Y-50370258D01*
X164383872Y-50261593D01*
X164226302Y-50117948D01*
X164045019Y-50005702D01*
X164045017Y-50005701D01*
X163847447Y-49929163D01*
X163846198Y-49928679D01*
X163636610Y-49889500D01*
X163423390Y-49889500D01*
X163213802Y-49928679D01*
X163213799Y-49928679D01*
X163213799Y-49928680D01*
X163014982Y-50005701D01*
X163014980Y-50005702D01*
X162833699Y-50117947D01*
X162676126Y-50261594D01*
X162628953Y-50324061D01*
X162572844Y-50365696D01*
X162503132Y-50370387D01*
X162441950Y-50336644D01*
X162431047Y-50324061D01*
X162383873Y-50261594D01*
X162383872Y-50261593D01*
X162226302Y-50117948D01*
X162045019Y-50005702D01*
X162045017Y-50005701D01*
X161847447Y-49929163D01*
X161846198Y-49928679D01*
X161636610Y-49889500D01*
X161423390Y-49889500D01*
X161213802Y-49928679D01*
X161213799Y-49928679D01*
X161213799Y-49928680D01*
X161014982Y-50005701D01*
X161014980Y-50005702D01*
X160833699Y-50117947D01*
X160676127Y-50261593D01*
X160547632Y-50431746D01*
X160452596Y-50622605D01*
X160452596Y-50622607D01*
X160394244Y-50827689D01*
X160374571Y-51039999D01*
X129644155Y-51039999D01*
X129649357Y-50963949D01*
X129629747Y-50677263D01*
X129571283Y-50395917D01*
X129560542Y-50365696D01*
X129475054Y-50125155D01*
X129475055Y-50125155D01*
X129342850Y-49870013D01*
X129177136Y-49635248D01*
X129098503Y-49551054D01*
X128981002Y-49425241D01*
X128758096Y-49243894D01*
X128758095Y-49243893D01*
X128512566Y-49094583D01*
X128249012Y-48980107D01*
X128249010Y-48980106D01*
X128249007Y-48980105D01*
X128119527Y-48943826D01*
X127972313Y-48902579D01*
X127972308Y-48902578D01*
X127972307Y-48902578D01*
X127829967Y-48883013D01*
X127727083Y-48868872D01*
X186999500Y-48868872D01*
X186999500Y-49131127D01*
X187014347Y-49243893D01*
X187033730Y-49391116D01*
X187101602Y-49644418D01*
X187101605Y-49644428D01*
X187201953Y-49886690D01*
X187201958Y-49886700D01*
X187333075Y-50113803D01*
X187492718Y-50321851D01*
X187492726Y-50321860D01*
X187678140Y-50507274D01*
X187678148Y-50507281D01*
X187886196Y-50666924D01*
X188113299Y-50798041D01*
X188113309Y-50798046D01*
X188324698Y-50885606D01*
X188355581Y-50898398D01*
X188608884Y-50966270D01*
X188868880Y-51000500D01*
X188868887Y-51000500D01*
X189131113Y-51000500D01*
X189131120Y-51000500D01*
X189391116Y-50966270D01*
X189644419Y-50898398D01*
X189886697Y-50798043D01*
X190113803Y-50666924D01*
X190321851Y-50507282D01*
X190321855Y-50507277D01*
X190321860Y-50507274D01*
X190507274Y-50321860D01*
X190507277Y-50321855D01*
X190507282Y-50321851D01*
X190666924Y-50113803D01*
X190798043Y-49886697D01*
X190898398Y-49644419D01*
X190966270Y-49391116D01*
X191000500Y-49131120D01*
X191000500Y-48868880D01*
X190966270Y-48608884D01*
X190898398Y-48355581D01*
X190898394Y-48355571D01*
X190798046Y-48113309D01*
X190798041Y-48113299D01*
X190666924Y-47886196D01*
X190507281Y-47678148D01*
X190507274Y-47678140D01*
X190321860Y-47492726D01*
X190321851Y-47492718D01*
X190113803Y-47333075D01*
X189886700Y-47201958D01*
X189886690Y-47201953D01*
X189644428Y-47101605D01*
X189644421Y-47101603D01*
X189644419Y-47101602D01*
X189391116Y-47033730D01*
X189333339Y-47026123D01*
X189131127Y-46999500D01*
X189131120Y-46999500D01*
X188868880Y-46999500D01*
X188868872Y-46999500D01*
X188637772Y-47029926D01*
X188608884Y-47033730D01*
X188355581Y-47101602D01*
X188355571Y-47101605D01*
X188113309Y-47201953D01*
X188113299Y-47201958D01*
X187886196Y-47333075D01*
X187678148Y-47492718D01*
X187492718Y-47678148D01*
X187333075Y-47886196D01*
X187201958Y-48113299D01*
X187201953Y-48113309D01*
X187101605Y-48355571D01*
X187101602Y-48355581D01*
X187033730Y-48608885D01*
X186999500Y-48868872D01*
X127727083Y-48868872D01*
X127687628Y-48863449D01*
X127687627Y-48863449D01*
X127400271Y-48863449D01*
X127400270Y-48863449D01*
X127115591Y-48902578D01*
X127115584Y-48902579D01*
X126907810Y-48960794D01*
X126838891Y-48980105D01*
X126838888Y-48980105D01*
X126838885Y-48980107D01*
X126838884Y-48980107D01*
X126575331Y-49094583D01*
X126329802Y-49243893D01*
X126106899Y-49425238D01*
X125910761Y-49635248D01*
X125745047Y-49870013D01*
X125612843Y-50125155D01*
X125516616Y-50395911D01*
X125516615Y-50395914D01*
X125458150Y-50677268D01*
X125438541Y-50963949D01*
X124649357Y-50963949D01*
X124629747Y-50677263D01*
X124571283Y-50395917D01*
X124560542Y-50365696D01*
X124475054Y-50125155D01*
X124475055Y-50125155D01*
X124342850Y-49870013D01*
X124177136Y-49635248D01*
X124098503Y-49551054D01*
X123981002Y-49425241D01*
X123758096Y-49243894D01*
X123758095Y-49243893D01*
X123512566Y-49094583D01*
X123249012Y-48980107D01*
X123249010Y-48980106D01*
X123249007Y-48980105D01*
X123119527Y-48943826D01*
X122972313Y-48902579D01*
X122972308Y-48902578D01*
X122972307Y-48902578D01*
X122829967Y-48883013D01*
X122687628Y-48863449D01*
X122687627Y-48863449D01*
X122400271Y-48863449D01*
X122400270Y-48863449D01*
X122115591Y-48902578D01*
X122115584Y-48902579D01*
X121907810Y-48960794D01*
X121838891Y-48980105D01*
X121838888Y-48980105D01*
X121838885Y-48980107D01*
X121838884Y-48980107D01*
X121575331Y-49094583D01*
X121329802Y-49243893D01*
X121106899Y-49425238D01*
X120910761Y-49635248D01*
X120745047Y-49870013D01*
X120612843Y-50125155D01*
X120516616Y-50395911D01*
X120516615Y-50395914D01*
X120458150Y-50677268D01*
X120438541Y-50963949D01*
X99399778Y-50963949D01*
X99644419Y-50898398D01*
X99886697Y-50798043D01*
X100113803Y-50666924D01*
X100321851Y-50507282D01*
X100321855Y-50507277D01*
X100321860Y-50507274D01*
X100507274Y-50321860D01*
X100507277Y-50321855D01*
X100507282Y-50321851D01*
X100666924Y-50113803D01*
X100798043Y-49886697D01*
X100898398Y-49644419D01*
X100966270Y-49391116D01*
X101000500Y-49131120D01*
X101000500Y-48868880D01*
X100966270Y-48608884D01*
X100898398Y-48355581D01*
X100898394Y-48355571D01*
X100798046Y-48113309D01*
X100798041Y-48113299D01*
X100666924Y-47886196D01*
X100507281Y-47678148D01*
X100507274Y-47678140D01*
X100321860Y-47492726D01*
X100321851Y-47492718D01*
X100113803Y-47333075D01*
X99886700Y-47201958D01*
X99886690Y-47201953D01*
X99644428Y-47101605D01*
X99644421Y-47101603D01*
X99644419Y-47101602D01*
X99391116Y-47033730D01*
X99333339Y-47026123D01*
X99131127Y-46999500D01*
X99131120Y-46999500D01*
X98868880Y-46999500D01*
X98868872Y-46999500D01*
X98637772Y-47029926D01*
X98608884Y-47033730D01*
X98355581Y-47101602D01*
X98355571Y-47101605D01*
X98113309Y-47201953D01*
X98113299Y-47201958D01*
X97886196Y-47333075D01*
X97678148Y-47492718D01*
X97492718Y-47678148D01*
X97333075Y-47886196D01*
X97201958Y-48113299D01*
X97201953Y-48113309D01*
X97101605Y-48355571D01*
X97101602Y-48355581D01*
X97033730Y-48608885D01*
X96999500Y-48868872D01*
X95000000Y-48868872D01*
X95000000Y-47540943D01*
X95000014Y-47539072D01*
X95000014Y-47539071D01*
X95002218Y-47393040D01*
X95003105Y-47380002D01*
X95038420Y-47089162D01*
X95041112Y-47074471D01*
X95111001Y-46790922D01*
X95115453Y-46776637D01*
X95218998Y-46503609D01*
X95225140Y-46489961D01*
X95360845Y-46231398D01*
X95368584Y-46218596D01*
X95534476Y-45978259D01*
X95543692Y-45966496D01*
X95737336Y-45747917D01*
X95747917Y-45737336D01*
X95966496Y-45543692D01*
X95978259Y-45534476D01*
X96218596Y-45368584D01*
X96231398Y-45360845D01*
X96489961Y-45225140D01*
X96503602Y-45219001D01*
X96776643Y-45115451D01*
X96790922Y-45111001D01*
X97074471Y-45041112D01*
X97089162Y-45038420D01*
X97380002Y-45003105D01*
X97393040Y-45002218D01*
X97539072Y-45000013D01*
X97540943Y-45000000D01*
X190459057Y-45000000D01*
X190460927Y-45000013D01*
G37*
%TD.AperFunction*%
%TD*%
M02*
