M48
; DRILL file {KiCad 9.0.0} date 2025-03-15T22:01:38-0400
; FORMAT={-:-/ absolute / metric / decimal}
; #@! TF.CreationDate,2025-03-15T22:01:38-04:00
; #@! TF.GenerationSoftware,Kicad,Pcbnew,9.0.0
; #@! TF.FileFunction,Plated,1,6,PTH
FMAT,2
METRIC
; #@! TA.AperFunction,Plated,PTH,ViaDrill
T1C0.300
; #@! TA.AperFunction,Plated,PTH,ComponentDrill
T2C0.300
; #@! TA.AperFunction,Plated,PTH,ViaDrill
T3C0.400
; #@! TA.AperFunction,Plated,PTH,ViaDrill
T4C0.600
; #@! TA.AperFunction,Plated,PTH,ComponentDrill
T5C0.600
; #@! TA.AperFunction,Plated,PTH,ComponentDrill
T6C0.840
; #@! TA.AperFunction,Plated,PTH,ComponentDrill
T7C1.850
; #@! TA.AperFunction,Plated,PTH,ComponentDrill
T8C3.200
%
G90
G05
T1
X118.8Y-118.42
X118.8Y-134.2
X118.8Y-145.4
X118.82Y-124.94
X118.91Y-110.82
X119.21Y-153.6
X120.1Y-169.75
X120.4Y-118.41
X120.42Y-124.95
X120.44Y-111.56
X120.5Y-145.39
X120.5Y-152.4
X121.06Y-171.34
X121.7Y-156.0
X122.405Y-179.19
X122.49Y-104.83
X122.62Y-105.6
X122.75Y-154.75
X123.0Y-106.67
X124.1Y-107.9
X124.6Y-156.6
X124.6Y-158.5
X124.64Y-161.558
X125.52Y-161.25
X126.57Y-161.22
X126.57Y-169.88
X126.57Y-175.09
X126.57Y-183.67
X126.57Y-188.38
X126.7Y-102.9
X126.7Y-155.76
X127.6Y-104.4
X127.63Y-180.18
X127.67Y-182.61
X127.78Y-87.09
X127.969Y-93.95
X128.49Y-180.2
X128.53Y-182.61
X128.74Y-187.75
X128.97Y-160.83
X128.98Y-97.51
X129.48Y-180.2
X129.48Y-182.5
X130.4Y-87.86
X130.49Y-180.2
X130.54Y-182.58
X130.56Y-91.82
X130.93Y-89.16
X131.52Y-182.59
X131.58Y-178.39
X131.62Y-180.33
X131.82Y-193.74
X131.92Y-159.47
X131.94Y-98.14
X131.96Y-96.75
X131.96Y-160.45
X131.99Y-157.94
X132.13Y-165.42
X132.32Y-88.249
X132.57Y-157.45
X132.764Y-96.74
X132.77Y-188.17
X132.79Y-193.87
X132.85Y-176.37
X132.89Y-171.26
X132.91Y-92.22
X132.91Y-94.43
X132.914Y-93.291
X132.95Y-179.16
X132.99Y-87.097
X133.12Y-165.47
X133.25Y-102.7
X133.25Y-104.35
X133.36Y-157.38
X133.38Y-184.54
X133.65Y-89.95
X134.01Y-92.21
X134.01Y-94.42
X134.014Y-93.281
X134.25Y-97.46
X134.3Y-182.98
X134.313Y-182.17
X134.4Y-87.14
X134.46Y-169.27
X134.473Y-168.47
X134.94Y-155.63
X134.95Y-154.81
X135.05Y-92.22
X135.05Y-94.43
X135.054Y-93.291
X135.059Y-97.491
X135.34Y-182.98
X135.353Y-182.17
X135.383Y-169.27
X135.397Y-168.47
X135.73Y-98.951
X135.885Y-155.62
X135.895Y-154.81
X136.307Y-169.27
X136.32Y-168.47
X136.38Y-182.98
X136.393Y-182.17
X136.83Y-155.62
X136.84Y-154.81
X136.88Y-88.31
X137.23Y-169.27
X137.243Y-168.47
X137.37Y-90.53
X137.42Y-182.98
X137.433Y-182.17
X137.775Y-155.62
X137.785Y-154.81
X138.13Y-88.18
X138.153Y-169.27
X138.167Y-168.47
X138.2Y-102.6
X138.24Y-91.66
X138.28Y-93.63
X138.3Y-104.35
X138.46Y-182.98
X138.473Y-182.17
X138.72Y-155.62
X138.73Y-154.81
X139.077Y-169.27
X139.09Y-168.47
X139.5Y-182.98
X139.513Y-182.17
X139.54Y-98.625
X139.665Y-155.62
X139.675Y-154.81
X140.0Y-169.27
X140.013Y-168.47
X140.2Y-100.6
X140.54Y-182.98
X140.553Y-182.17
X140.61Y-155.62
X140.62Y-154.81
X140.726Y-96.3
X140.914Y-98.486
X141.45Y-101.75
X141.46Y-95.77
X142.4Y-153.03
X142.721Y-98.046
X143.44Y-171.04
X143.49Y-89.77
X143.526Y-175.414
X143.53Y-184.98
X143.549Y-173.531
X143.55Y-172.71
X143.55Y-174.32
X143.55Y-185.8
X143.55Y-186.68
X143.55Y-187.73
X143.57Y-189.02
X143.61Y-171.89
X143.62Y-183.93
X143.63Y-157.61
X143.65Y-102.5
X144.102Y-96.254
X144.55Y-98.95
X144.585Y-171.505
X144.6Y-93.95
X144.68Y-157.7
X145.783Y-93.968
X145.97Y-99.551
X146.2Y-102.7
X146.21Y-93.29
X146.31Y-187.33
X146.31Y-189.36
X146.32Y-188.41
X146.35Y-186.39
X146.362Y-161.82
X146.41Y-173.03
X146.43Y-103.7
X146.463Y-185.587
X146.62Y-173.76
X146.64Y-174.77
X146.65Y-175.78
X146.65Y-176.79
X147.239Y-98.761
X147.31Y-192.14
X147.722Y-155.955
X148.57Y-100.29
X148.72Y-153.1
X149.2Y-101.95
X149.83Y-192.14
X149.93Y-187.66
X150.32Y-94.67
X150.68Y-97.66
X150.691Y-159.021
X150.84Y-157.72
X151.13Y-94.65
X151.66Y-161.87
X151.68Y-158.81
X151.7Y-159.81
X151.7Y-160.84
X151.94Y-162.856
X152.4Y-184.15
X152.55Y-98.6
X152.65Y-101.95
X152.93Y-186.57
X153.37Y-163.61
X153.56Y-156.2
X153.8Y-186.9
X154.04Y-163.98
X154.225Y-184.125
X154.25Y-98.6
X154.3Y-101.95
X154.35Y-158.82
X154.63Y-156.18
X154.7Y-163.2
X154.77Y-165.41
X154.8Y-178.41
X154.854Y-161.636
X154.88Y-173.92
X155.07Y-192.06
X155.094Y-92.162
X155.094Y-92.94
X155.15Y-117.11
X155.96Y-167.62
X155.96Y-181.19
X155.973Y-166.76
X155.973Y-180.33
X156.713Y-194.1
X156.72Y-194.96
X156.925Y-167.61
X156.935Y-181.18
X156.938Y-166.75
X156.948Y-180.32
X157.04Y-109.91
X157.655Y-194.1
X157.662Y-194.96
X157.89Y-167.61
X157.903Y-166.75
X157.91Y-181.18
X157.923Y-180.32
X158.597Y-194.1
X158.603Y-194.96
X158.855Y-167.61
X158.868Y-166.75
X158.885Y-181.18
X158.898Y-180.32
X159.48Y-90.19
X159.48Y-95.99
X159.5Y-89.28
X159.538Y-194.1
X159.545Y-194.96
X159.8Y-117.39
X159.82Y-167.61
X159.833Y-166.75
X159.86Y-181.18
X159.873Y-180.32
X160.27Y-95.99
X160.363Y-90.2
X160.383Y-89.29
X160.48Y-194.1
X160.487Y-194.96
X160.785Y-167.61
X160.798Y-166.75
X160.835Y-181.18
X160.848Y-180.32
X161.06Y-95.99
X161.247Y-90.22
X161.267Y-89.31
X161.27Y-91.16
X161.28Y-92.07
X161.422Y-194.1
X161.428Y-194.96
X161.75Y-167.61
X161.763Y-166.75
X161.81Y-181.18
X161.823Y-180.32
X162.09Y-91.17
X162.1Y-92.08
X162.13Y-90.21
X162.15Y-89.3
X162.363Y-194.09
X162.37Y-194.95
X162.91Y-91.16
X162.92Y-92.07
X163.73Y-91.17
X163.74Y-92.08
X164.338Y-196.342
X164.9Y-118.62
X164.93Y-178.41
X165.002Y-165.607
X165.15Y-171.61
X165.19Y-160.72
X165.19Y-161.75
X165.19Y-162.7
X165.19Y-163.71
X165.19Y-164.71
X165.26Y-188.19
X165.26Y-188.95
X165.26Y-189.72
X165.26Y-190.5
X165.26Y-191.32
X165.54Y-192.03
X166.225Y-158.4
X167.275Y-177.375
X167.775Y-164.75
X167.78Y-160.73
X167.78Y-161.72
X167.78Y-162.73
X167.78Y-163.73
X167.8Y-159.45
X168.19Y-187.12
X168.19Y-188.14
X168.19Y-189.21
X168.19Y-190.2
X168.19Y-191.27
X170.61Y-174.19
X170.69Y-190.6
X170.91Y-185.72
X171.48Y-189.32
X173.714Y-186.86
X173.76Y-187.65
X173.8Y-188.4
X173.8Y-189.325
X173.8Y-190.25
X174.6Y-194.36
X174.86Y-157.46
X175.65Y-194.37
X175.81Y-163.79
X176.0Y-157.68
X176.02Y-171.34
X176.197Y-189.792
X176.28Y-184.7
X176.3Y-178.05
X176.37Y-187.94
X176.39Y-187.13
X176.4Y-185.47
X176.43Y-186.24
X177.29Y-183.04
X177.3Y-182.1
X177.31Y-155.62
X177.323Y-154.76
X177.4Y-168.47
X177.4Y-169.31
X178.307Y-183.03
X178.317Y-182.09
X178.397Y-155.62
X178.452Y-154.76
X178.47Y-168.47
X178.47Y-169.31
X179.323Y-183.03
X179.333Y-182.09
X179.483Y-155.62
X179.54Y-168.47
X179.54Y-169.31
X179.58Y-154.76
X180.34Y-183.03
X180.35Y-182.09
X180.57Y-155.62
X180.61Y-168.47
X180.61Y-169.31
X180.708Y-154.76
X181.357Y-183.03
X181.367Y-182.09
X181.657Y-155.62
X181.68Y-168.47
X181.68Y-169.31
X181.837Y-154.76
X182.373Y-183.03
X182.383Y-182.09
X182.743Y-155.62
X182.75Y-168.47
X182.75Y-169.31
X182.965Y-154.76
X183.39Y-183.03
X183.4Y-182.09
X183.82Y-168.47
X183.82Y-169.31
X183.83Y-155.62
X185.674Y-152.908
X186.625Y-171.91
X186.66Y-164.72
X186.71Y-171.07
X186.86Y-158.53
X186.86Y-184.9
X186.88Y-160.26
X186.9Y-156.72
X187.37Y-161.17
X187.4Y-157.55
X187.4Y-159.3
X188.425Y-177.75
X189.77Y-189.48
X189.8Y-185.63
X189.8Y-187.54
X189.8Y-188.5
X189.82Y-186.59
X189.89Y-158.11
X189.89Y-159.06
X189.89Y-160.05
X189.92Y-161.07
X190.1Y-157.09
X190.339Y-176.084
X191.67Y-163.36
X192.26Y-185.66
X192.26Y-186.61
X192.28Y-187.57
X192.31Y-188.52
X192.31Y-189.45
X192.529Y-172.054
X195.23Y-175.567
X195.23Y-176.505
X195.23Y-177.442
X195.23Y-178.38
X195.25Y-174.63
X196.22Y-117.99
X196.725Y-185.325
X197.241Y-164.317
X197.679Y-177.249
X197.69Y-175.85
X197.764Y-178.983
X197.82Y-192.14
X197.98Y-175.13
X197.98Y-176.55
X197.991Y-177.971
X198.14Y-164.65
X198.9Y-181.34
X198.923Y-180.46
X198.98Y-167.68
X198.993Y-166.8
X199.02Y-195.11
X199.073Y-194.2
X199.915Y-181.32
X199.938Y-180.44
X199.977Y-167.66
X199.99Y-166.78
X200.087Y-195.1
X200.14Y-194.19
X200.93Y-181.32
X200.953Y-180.44
X200.973Y-167.66
X200.987Y-166.78
X201.153Y-195.1
X201.207Y-194.19
X201.699Y-113.1
X201.945Y-181.32
X201.968Y-180.44
X201.97Y-167.66
X201.983Y-166.78
X202.22Y-195.1
X202.273Y-194.19
X202.96Y-181.32
X202.967Y-167.66
X202.98Y-166.78
X202.983Y-180.44
X203.029Y-115.973
X203.287Y-195.1
X203.34Y-194.19
X203.963Y-167.66
X203.975Y-181.32
X203.977Y-166.78
X203.998Y-180.44
X204.353Y-195.1
X204.407Y-194.19
X204.96Y-167.66
X204.973Y-166.78
X204.99Y-181.32
X205.013Y-180.44
X205.42Y-195.1
X205.473Y-194.19
X207.518Y-197.104
X207.859Y-117.45
X208.2Y-188.33
X208.73Y-178.56
X209.03Y-164.83
X209.08Y-185.05
X209.52Y-157.46
X209.56Y-172.15
X209.69Y-185.58
X209.91Y-163.5
X210.53Y-157.46
X210.58Y-172.125
X210.91Y-180.24
X210.91Y-183.04
X211.0Y-96.9
X211.14Y-103.93
X211.431Y-91.88
X211.45Y-175.45
X211.6Y-190.93
X211.92Y-180.24
X211.93Y-183.04
X212.2Y-89.51
X212.27Y-91.864
X212.545Y-98.79
X212.92Y-183.06
X212.93Y-180.24
X213.1Y-100.56
X213.221Y-91.845
X213.82Y-175.67
X213.92Y-180.23
X213.93Y-183.06
X214.681Y-94.405
X214.87Y-97.56
X214.94Y-180.24
X214.94Y-183.06
X215.027Y-160.913
X215.17Y-100.51
X215.571Y-93.37
X215.7Y-89.47
X215.771Y-99.01
X215.781Y-99.84
X215.95Y-165.8
X217.021Y-97.56
X217.031Y-99.43
X217.201Y-96.017
X217.351Y-94.39
X217.534Y-93.314
X217.571Y-102.8
X218.01Y-160.1
X218.01Y-173.96
X218.01Y-178.85
X218.01Y-187.65
X218.01Y-192.61
X218.031Y-90.795
X218.121Y-102.21
X218.87Y-89.77
X219.021Y-105.56
X219.68Y-162.21
X219.851Y-94.59
X220.691Y-94.59
X220.915Y-99.5
X221.391Y-97.84
X221.401Y-96.17
X221.619Y-89.675
X221.911Y-94.615
X222.121Y-96.998
X222.271Y-99.385
X222.561Y-91.58
X222.811Y-97.84
X222.821Y-96.17
X223.171Y-99.33
X223.641Y-103.33
X223.671Y-104.1
X223.851Y-94.615
X223.931Y-99.415
X224.518Y-90.756
X224.75Y-161.75
X224.75Y-163.1
X224.75Y-164.4
X224.921Y-92.475
X225.101Y-103.53
X225.101Y-106.26
X226.451Y-103.48
X226.64Y-91.325
X226.791Y-94.405
X226.8Y-164.4
X226.85Y-161.75
X226.85Y-163.1
X226.881Y-98.005
X227.651Y-103.35
X227.78Y-92.4
X228.89Y-99.05
X230.195Y-149.85
X230.2Y-146.9
X230.64Y-97.24
X230.68Y-104.49
X231.26Y-105.15
X231.8Y-145.15
X231.941Y-155.816
X232.0Y-147.4
X232.2Y-171.1
X232.6Y-159.3
X232.64Y-155.33
X234.22Y-172.3
X234.519Y-82.28
X234.564Y-179.264
X234.6Y-155.5
X235.32Y-141.9
X235.55Y-147.55
X235.6Y-155.51
X235.91Y-141.35
X236.46Y-140.71
X238.443Y-84.809
T2
X136.214Y-161.235
X136.214Y-174.925
X136.214Y-188.605
X136.22Y-163.205
X136.22Y-176.895
X136.22Y-190.575
X137.32Y-164.225
X137.32Y-177.915
X137.32Y-191.595
X137.327Y-161.235
X137.327Y-174.925
X137.327Y-188.605
X137.333Y-163.205
X137.333Y-176.895
X137.333Y-190.575
X137.35Y-160.195
X137.35Y-162.155
X137.35Y-173.885
X137.35Y-175.845
X137.35Y-187.565
X137.35Y-189.525
X138.504Y-161.235
X138.504Y-174.925
X138.504Y-188.605
X138.51Y-163.205
X138.51Y-176.895
X138.51Y-190.575
X139.55Y-163.185
X139.55Y-176.875
X139.55Y-190.555
X139.56Y-164.215
X139.56Y-177.905
X139.56Y-191.585
X139.57Y-160.195
X139.57Y-162.135
X139.57Y-173.885
X139.57Y-175.825
X139.57Y-187.565
X139.57Y-189.505
X139.571Y-161.235
X139.571Y-174.925
X139.571Y-188.605
X140.764Y-161.235
X140.764Y-174.925
X140.764Y-188.605
X140.77Y-163.205
X140.77Y-176.895
X140.77Y-190.575
X157.68Y-172.755
X157.68Y-186.425
X157.686Y-174.725
X157.686Y-188.395
X157.7Y-159.075
X157.706Y-161.045
X158.879Y-174.725
X158.879Y-188.395
X158.88Y-173.825
X158.88Y-175.765
X158.88Y-187.495
X158.88Y-189.435
X158.89Y-171.745
X158.89Y-185.415
X158.899Y-161.045
X158.9Y-160.145
X158.9Y-162.085
X158.9Y-172.775
X158.9Y-186.445
X158.91Y-158.065
X158.92Y-159.095
X159.94Y-172.755
X159.94Y-186.425
X159.946Y-174.725
X159.946Y-188.395
X159.96Y-159.075
X159.966Y-161.045
X161.1Y-173.805
X161.1Y-175.765
X161.1Y-187.475
X161.1Y-189.435
X161.117Y-172.755
X161.117Y-186.425
X161.12Y-160.125
X161.12Y-162.085
X161.123Y-174.725
X161.123Y-188.395
X161.13Y-171.735
X161.13Y-185.405
X161.137Y-159.075
X161.143Y-161.045
X161.15Y-158.055
X162.23Y-172.755
X162.23Y-186.425
X162.236Y-174.725
X162.236Y-188.395
X162.25Y-159.075
X162.256Y-161.045
X179.254Y-161.265
X179.254Y-174.945
X179.254Y-188.635
X179.26Y-163.235
X179.26Y-176.915
X179.26Y-190.605
X180.36Y-164.255
X180.36Y-177.935
X180.36Y-191.625
X180.367Y-161.265
X180.367Y-174.945
X180.367Y-188.635
X180.373Y-163.235
X180.373Y-176.915
X180.373Y-190.605
X180.39Y-160.225
X180.39Y-162.185
X180.39Y-173.905
X180.39Y-175.865
X180.39Y-187.595
X180.39Y-189.555
X181.544Y-161.265
X181.544Y-174.945
X181.544Y-188.635
X181.55Y-163.235
X181.55Y-176.915
X181.55Y-190.605
X182.59Y-163.215
X182.59Y-176.895
X182.59Y-190.585
X182.6Y-164.245
X182.6Y-177.925
X182.6Y-191.615
X182.61Y-160.225
X182.61Y-162.165
X182.61Y-173.905
X182.61Y-175.845
X182.61Y-187.595
X182.61Y-189.535
X182.611Y-161.265
X182.611Y-174.945
X182.611Y-188.635
X183.804Y-161.265
X183.804Y-174.945
X183.804Y-188.635
X183.81Y-163.235
X183.81Y-176.915
X183.81Y-190.605
X200.74Y-159.165
X200.74Y-172.845
X200.74Y-186.535
X200.746Y-161.135
X200.746Y-174.815
X200.746Y-188.505
X201.939Y-161.135
X201.939Y-174.815
X201.939Y-188.505
X201.94Y-160.235
X201.94Y-162.175
X201.94Y-173.915
X201.94Y-175.855
X201.94Y-187.605
X201.94Y-189.545
X201.95Y-158.155
X201.95Y-171.835
X201.95Y-185.525
X201.96Y-159.185
X201.96Y-172.865
X201.96Y-186.555
X203.0Y-159.165
X203.0Y-172.845
X203.0Y-186.535
X203.006Y-161.135
X203.006Y-174.815
X203.006Y-188.505
X204.16Y-160.215
X204.16Y-162.175
X204.16Y-173.895
X204.16Y-175.855
X204.16Y-187.585
X204.16Y-189.545
X204.177Y-159.165
X204.177Y-172.845
X204.177Y-186.535
X204.183Y-161.135
X204.183Y-174.815
X204.183Y-188.505
X204.19Y-158.145
X204.19Y-171.825
X204.19Y-185.515
X205.29Y-159.165
X205.29Y-172.845
X205.29Y-186.535
X205.296Y-161.135
X205.296Y-174.815
X205.296Y-188.505
T3
X123.01Y-95.81
X123.45Y-92.13
X125.8Y-88.15
X131.225Y-100.725
X131.4Y-84.19
X132.98Y-101.44
X139.58Y-84.21
X147.775Y-112.38
X147.78Y-113.45
X147.98Y-89.45
X147.98Y-92.93
X148.963Y-112.38
X148.968Y-113.45
X150.15Y-112.38
X150.155Y-113.45
X150.929Y-87.93
X151.338Y-112.38
X151.343Y-113.45
X151.86Y-97.71
X152.525Y-112.38
X152.53Y-113.45
X152.55Y-105.08
X152.55Y-106.267
X152.55Y-107.455
X152.55Y-108.642
X152.55Y-109.83
X153.62Y-105.075
X153.62Y-106.262
X153.62Y-107.45
X153.62Y-108.637
X153.62Y-109.825
X153.68Y-110.932
X153.68Y-112.12
X153.68Y-113.307
X153.68Y-114.495
X153.73Y-97.7
X154.15Y-88.26
X154.26Y-118.72
X154.26Y-119.897
X154.26Y-121.075
X154.26Y-122.252
X154.26Y-123.43
X154.75Y-110.927
X154.75Y-112.115
X154.75Y-113.302
X154.75Y-114.49
X156.462Y-99.268
X157.712Y-99.268
X157.952Y-89.788
X159.12Y-118.75
X159.12Y-119.927
X159.12Y-121.105
X159.12Y-122.282
X159.12Y-123.46
X160.05Y-118.74
X160.05Y-119.917
X160.05Y-121.095
X160.05Y-122.272
X160.05Y-123.45
X162.3Y-118.805
X162.3Y-119.982
X162.3Y-121.16
X162.3Y-122.337
X162.3Y-123.515
X163.42Y-118.805
X163.42Y-119.982
X163.42Y-121.16
X163.42Y-122.337
X163.42Y-123.515
X163.87Y-126.93
X163.87Y-128.107
X163.87Y-129.285
X164.56Y-114.285
X164.56Y-115.462
X164.56Y-116.64
X167.46Y-114.245
X167.46Y-115.422
X167.46Y-116.6
X168.46Y-118.94
X168.46Y-120.117
X168.46Y-121.295
X168.46Y-122.472
X168.46Y-123.65
X169.65Y-126.93
X169.65Y-128.107
X169.65Y-129.285
X172.95Y-126.93
X172.95Y-128.107
X172.95Y-129.285
X173.63Y-114.205
X173.63Y-115.382
X173.63Y-116.56
X176.51Y-114.095
X176.51Y-115.272
X176.51Y-116.45
X176.69Y-132.015
X176.69Y-133.605
X176.69Y-135.18
X192.22Y-118.875
X192.22Y-120.052
X192.22Y-121.23
X192.22Y-122.407
X192.22Y-123.585
X193.42Y-118.935
X193.42Y-120.112
X193.42Y-121.29
X193.42Y-122.468
X193.42Y-123.645
X197.02Y-114.302
X197.02Y-115.48
X198.33Y-116.58
X198.6Y-118.875
X198.6Y-120.052
X198.6Y-121.23
X198.6Y-122.407
X198.6Y-123.585
X201.71Y-118.81
X201.71Y-119.953
X201.71Y-121.095
X201.71Y-122.237
X201.71Y-123.38
X202.77Y-118.82
X202.77Y-119.962
X202.77Y-121.105
X202.77Y-122.247
X202.77Y-123.39
X207.81Y-118.79
X207.81Y-119.932
X207.81Y-121.075
X207.81Y-122.218
X207.81Y-123.36
X209.0Y-110.902
X209.0Y-112.09
X209.0Y-113.277
X209.0Y-114.465
X210.655Y-112.4
X210.66Y-113.47
X211.65Y-106.248
X211.65Y-107.435
X211.65Y-108.622
X211.65Y-109.81
X211.843Y-112.4
X211.847Y-113.47
X212.87Y-105.05
X212.87Y-106.237
X212.87Y-107.425
X212.87Y-108.612
X212.87Y-109.8
X213.03Y-112.4
X213.035Y-113.47
X214.218Y-112.4
X214.222Y-113.47
X215.405Y-112.4
X215.41Y-113.47
X229.824Y-94.62
T4
X128.155Y-145.475
X128.155Y-146.865
X128.165Y-139.915
X128.165Y-141.285
X128.165Y-142.645
X128.165Y-144.035
X128.195Y-138.505
X129.705Y-145.485
X129.705Y-146.875
X129.715Y-139.925
X129.715Y-141.295
X129.715Y-142.655
X129.715Y-144.045
X129.745Y-138.515
X131.225Y-145.465
X131.225Y-146.855
X131.235Y-139.905
X131.235Y-141.275
X131.235Y-142.635
X131.235Y-144.025
X131.265Y-138.495
X132.815Y-145.465
X132.815Y-146.855
X132.825Y-139.905
X132.825Y-141.275
X132.825Y-142.635
X132.825Y-144.025
X132.855Y-138.495
X134.335Y-145.455
X134.335Y-146.845
X134.345Y-139.895
X134.345Y-141.265
X134.345Y-142.625
X134.345Y-144.015
X134.375Y-138.485
X135.89Y-145.45
X135.89Y-146.84
X135.9Y-139.89
X135.9Y-141.26
X135.9Y-142.62
X135.9Y-144.01
X135.93Y-138.48
X137.3Y-145.48
X137.3Y-146.87
X137.31Y-139.92
X137.31Y-141.29
X137.31Y-142.65
X137.31Y-144.04
X137.34Y-138.51
X138.72Y-145.45
X138.72Y-146.84
X138.73Y-139.89
X138.73Y-141.26
X138.73Y-142.62
X138.73Y-144.01
X138.76Y-138.48
X140.13Y-145.48
X140.13Y-146.87
X140.14Y-139.92
X140.14Y-141.29
X140.14Y-142.65
X140.14Y-144.04
X140.17Y-138.51
X141.54Y-145.46
X141.54Y-146.85
X141.55Y-139.9
X141.55Y-141.27
X141.55Y-142.63
X141.55Y-144.02
X141.58Y-138.49
X147.89Y-132.18
X147.89Y-133.55
X147.89Y-134.91
X147.92Y-130.77
X149.44Y-132.19
X149.44Y-133.56
X149.44Y-134.92
X149.47Y-130.78
X150.96Y-132.17
X150.96Y-133.54
X150.96Y-134.9
X150.99Y-130.76
X152.55Y-132.17
X152.55Y-133.54
X152.55Y-134.9
X152.58Y-130.76
X159.2Y-100.8
X159.22Y-102.29
X160.66Y-99.32
X160.67Y-100.81
X160.69Y-102.3
X160.75Y-103.75
X162.086Y-96.55
X162.096Y-97.92
X162.14Y-99.28
X162.15Y-100.8
X162.17Y-102.3
X162.17Y-103.74
X162.17Y-105.104
X163.657Y-96.55
X163.661Y-97.92
X163.702Y-99.28
X163.702Y-100.8
X163.716Y-105.104
X163.72Y-103.74
X163.722Y-102.3
X163.764Y-106.474
X164.535Y-133.31
X164.535Y-134.9
X164.535Y-136.5
X165.226Y-97.92
X165.228Y-96.55
X165.254Y-100.8
X165.262Y-105.13
X165.264Y-99.28
X165.27Y-103.73
X165.274Y-102.29
X165.925Y-133.31
X165.925Y-134.9
X165.925Y-136.5
X166.79Y-97.92
X166.798Y-96.55
X166.806Y-100.8
X166.808Y-105.13
X166.82Y-103.73
X166.826Y-99.28
X166.826Y-102.29
X167.41Y-133.31
X167.41Y-134.9
X167.41Y-136.5
X168.354Y-105.13
X168.355Y-97.92
X168.358Y-100.8
X168.369Y-96.55
X168.37Y-103.73
X168.378Y-102.29
X168.388Y-99.28
X168.8Y-133.31
X168.8Y-134.9
X168.8Y-136.5
X169.9Y-105.13
X169.91Y-100.8
X169.92Y-97.92
X169.92Y-103.73
X169.93Y-102.29
X169.94Y-96.55
X169.95Y-99.28
X192.535Y-145.985
X192.535Y-147.375
X192.545Y-144.545
X194.085Y-145.995
X194.085Y-147.385
X194.095Y-144.555
X195.605Y-145.975
X195.605Y-147.365
X195.615Y-144.535
X197.195Y-145.975
X197.195Y-147.365
X197.205Y-144.535
X198.02Y-98.31
X198.02Y-99.68
X198.05Y-100.95
X198.06Y-102.25
X198.06Y-103.55
X198.06Y-104.92
X198.715Y-145.965
X198.715Y-147.355
X198.725Y-144.525
X199.45Y-98.32
X199.45Y-99.69
X199.48Y-100.96
X199.49Y-102.26
X199.49Y-103.56
X199.49Y-104.93
X200.27Y-145.96
X200.27Y-147.35
X200.28Y-144.52
X200.91Y-98.34
X200.91Y-99.71
X200.94Y-100.98
X200.95Y-102.28
X200.95Y-103.58
X200.95Y-104.95
X201.68Y-145.99
X201.68Y-147.38
X201.69Y-144.55
X202.38Y-98.32
X202.38Y-99.69
X202.41Y-100.96
X202.42Y-102.26
X202.42Y-103.56
X202.42Y-104.93
X203.1Y-145.96
X203.1Y-147.35
X203.11Y-144.52
X203.79Y-98.31
X203.79Y-99.68
X203.82Y-100.95
X203.83Y-102.25
X203.83Y-103.55
X204.51Y-145.99
X204.51Y-147.38
X204.52Y-144.55
X205.01Y-93.76
X205.31Y-98.29
X205.31Y-99.66
X205.34Y-100.93
X205.35Y-102.23
X205.35Y-103.53
X205.92Y-145.97
X205.92Y-147.36
X205.93Y-144.53
X206.77Y-98.33
X206.77Y-99.7
X206.8Y-100.97
X206.81Y-102.27
X206.81Y-103.57
X208.18Y-98.32
X208.18Y-99.69
X208.21Y-100.96
X208.22Y-102.26
X208.22Y-103.56
X209.32Y-131.0
X209.32Y-132.59
X209.32Y-134.19
X209.32Y-135.71
X209.32Y-137.3
X210.776Y-138.88
X210.78Y-131.0
X210.78Y-132.59
X210.78Y-134.19
X210.78Y-135.71
X210.78Y-137.3
X212.256Y-138.88
X212.256Y-140.5
X212.26Y-131.0
X212.26Y-132.59
X212.26Y-134.19
X212.26Y-135.71
X212.26Y-137.3
X213.8Y-142.14
X213.81Y-138.89
X213.81Y-140.51
X213.814Y-131.01
X213.814Y-132.6
X213.814Y-134.2
X213.814Y-135.72
X213.814Y-137.31
X215.28Y-142.14
X215.29Y-138.89
X215.29Y-140.51
X215.294Y-131.01
X215.294Y-132.6
X215.294Y-134.2
X215.294Y-135.72
X215.294Y-137.31
X216.833Y-142.0
X216.843Y-138.75
X216.843Y-140.37
X216.847Y-130.92
X216.847Y-132.44
X216.847Y-134.03
X216.847Y-135.45
X216.847Y-137.17
X218.287Y-130.9
X218.287Y-132.42
X218.287Y-134.01
X218.33Y-141.98
X218.34Y-138.73
X218.34Y-140.35
X218.344Y-135.43
X218.344Y-137.15
X219.549Y-87.52
X225.17Y-87.77
X233.899Y-93.38
X233.899Y-94.98
X237.939Y-91.18
X239.344Y-91.185
T6
X121.35Y-132.97
X121.35Y-135.51
X122.62Y-134.24
X123.89Y-132.97
X123.89Y-135.51
T7
X164.296Y-81.25
X164.296Y-88.25
X169.296Y-81.25
X169.296Y-88.25
X192.774Y-81.3
X192.774Y-88.3
X197.774Y-81.3
X197.774Y-88.3
T8
X148.93Y-167.77
X148.93Y-181.77
X170.93Y-167.77
X170.93Y-181.77
X192.93Y-167.77
X192.93Y-181.77
T5
G00X217.629Y-81.715
M15
G01X217.629Y-80.915
M16
G05
G00X217.629Y-86.045
M15
G01X217.629Y-84.945
M16
G05
G00X226.269Y-81.715
M15
G01X226.269Y-80.915
M16
G05
G00X226.269Y-86.045
M15
G01X226.269Y-84.945
M16
G05
M30
