%TF.GenerationSoftware,KiCad,Pcbnew,9.0.0*%
%TF.CreationDate,2025-06-11T14:13:21-04:00*%
%TF.ProjectId,emberone,656d6265-726f-46e6-952e-6b696361645f,rev?*%
%TF.SameCoordinates,Original*%
%TF.FileFunction,Soldermask,Top*%
%TF.FilePolarity,Negative*%
%FSLAX46Y46*%
G04 Gerber Fmt 4.6, Leading zero omitted, Abs format (unit mm)*
G04 Created by KiCad (PCBNEW 9.0.0) date 2025-06-11 14:13:21*
%MOMM*%
%LPD*%
G01*
G04 APERTURE LIST*
G04 Aperture macros list*
%AMRoundRect*
0 Rectangle with rounded corners*
0 $1 Rounding radius*
0 $2 $3 $4 $5 $6 $7 $8 $9 X,Y pos of 4 corners*
0 Add a 4 corners polygon primitive as box body*
4,1,4,$2,$3,$4,$5,$6,$7,$8,$9,$2,$3,0*
0 Add four circle primitives for the rounded corners*
1,1,$1+$1,$2,$3*
1,1,$1+$1,$4,$5*
1,1,$1+$1,$6,$7*
1,1,$1+$1,$8,$9*
0 Add four rect primitives between the rounded corners*
20,1,$1+$1,$2,$3,$4,$5,0*
20,1,$1+$1,$4,$5,$6,$7,0*
20,1,$1+$1,$6,$7,$8,$9,0*
20,1,$1+$1,$8,$9,$2,$3,0*%
%AMFreePoly0*
4,1,20,-0.692000,2.285500,2.032000,2.285500,2.508000,2.285500,2.508000,1.525500,2.033000,1.525500,2.033000,-1.524500,2.508000,-1.524500,2.508000,-2.284500,2.032000,-2.284500,2.032000,-2.285500,-0.692000,-2.285500,-0.692000,-2.779500,-1.607000,-2.779500,-1.607000,-2.285500,-2.032000,-2.285500,-2.032000,2.285500,-1.607000,2.285500,-1.607000,2.780500,-0.692000,2.780500,-0.692000,2.285500,
-0.692000,2.285500,$1*%
G04 Aperture macros list end*
%ADD10C,0.120000*%
%ADD11C,0.000000*%
%ADD12R,1.100000X1.300000*%
%ADD13R,0.950000X2.150000*%
%ADD14R,3.250000X2.150000*%
%ADD15FreePoly0,270.000000*%
%ADD16R,0.750000X1.000000*%
%ADD17RoundRect,0.100000X0.400000X0.100000X-0.400000X0.100000X-0.400000X-0.100000X0.400000X-0.100000X0*%
%ADD18C,0.540000*%
%ADD19R,1.905000X3.352800*%
%ADD20RoundRect,0.100000X0.100000X-0.637500X0.100000X0.637500X-0.100000X0.637500X-0.100000X-0.637500X0*%
%ADD21RoundRect,0.200000X0.275000X-0.200000X0.275000X0.200000X-0.275000X0.200000X-0.275000X-0.200000X0*%
%ADD22RoundRect,0.250000X0.475000X-0.250000X0.475000X0.250000X-0.475000X0.250000X-0.475000X-0.250000X0*%
%ADD23RoundRect,0.140000X0.170000X-0.140000X0.170000X0.140000X-0.170000X0.140000X-0.170000X-0.140000X0*%
%ADD24RoundRect,0.250000X1.000000X0.900000X-1.000000X0.900000X-1.000000X-0.900000X1.000000X-0.900000X0*%
%ADD25R,1.168400X0.711200*%
%ADD26RoundRect,0.200000X0.200000X0.275000X-0.200000X0.275000X-0.200000X-0.275000X0.200000X-0.275000X0*%
%ADD27C,6.400000*%
%ADD28RoundRect,0.135000X0.135000X0.185000X-0.135000X0.185000X-0.135000X-0.185000X0.135000X-0.185000X0*%
%ADD29RoundRect,0.200000X-0.200000X-0.275000X0.200000X-0.275000X0.200000X0.275000X-0.200000X0.275000X0*%
%ADD30R,0.509999X0.910001*%
%ADD31RoundRect,0.250000X-0.362500X-1.425000X0.362500X-1.425000X0.362500X1.425000X-0.362500X1.425000X0*%
%ADD32RoundRect,0.140000X0.140000X0.170000X-0.140000X0.170000X-0.140000X-0.170000X0.140000X-0.170000X0*%
%ADD33RoundRect,0.100000X-0.400000X-0.100000X0.400000X-0.100000X0.400000X0.100000X-0.400000X0.100000X0*%
%ADD34RoundRect,0.250000X-0.250000X-0.475000X0.250000X-0.475000X0.250000X0.475000X-0.250000X0.475000X0*%
%ADD35RoundRect,0.250000X0.362500X1.425000X-0.362500X1.425000X-0.362500X-1.425000X0.362500X-1.425000X0*%
%ADD36RoundRect,0.135000X-0.135000X-0.185000X0.135000X-0.185000X0.135000X0.185000X-0.135000X0.185000X0*%
%ADD37RoundRect,0.250000X-0.475000X0.250000X-0.475000X-0.250000X0.475000X-0.250000X0.475000X0.250000X0*%
%ADD38RoundRect,0.050000X-0.387500X-0.050000X0.387500X-0.050000X0.387500X0.050000X-0.387500X0.050000X0*%
%ADD39RoundRect,0.050000X-0.050000X-0.387500X0.050000X-0.387500X0.050000X0.387500X-0.050000X0.387500X0*%
%ADD40R,3.200000X3.200000*%
%ADD41RoundRect,0.140000X-0.140000X-0.170000X0.140000X-0.170000X0.140000X0.170000X-0.140000X0.170000X0*%
%ADD42R,9.000000X5.000000*%
%ADD43R,14.000000X9.000000*%
%ADD44RoundRect,0.250000X0.250000X0.475000X-0.250000X0.475000X-0.250000X-0.475000X0.250000X-0.475000X0*%
%ADD45RoundRect,0.135000X0.185000X-0.135000X0.185000X0.135000X-0.185000X0.135000X-0.185000X-0.135000X0*%
%ADD46R,1.800000X0.900000*%
%ADD47RoundRect,0.135000X-0.185000X0.135000X-0.185000X-0.135000X0.185000X-0.135000X0.185000X0.135000X0*%
%ADD48R,1.000000X1.200000*%
%ADD49R,0.700000X1.200000*%
%ADD50R,0.450000X1.200000*%
%ADD51R,3.352800X1.905000*%
%ADD52C,3.054000*%
%ADD53RoundRect,0.150000X0.150000X0.200000X-0.150000X0.200000X-0.150000X-0.200000X0.150000X-0.200000X0*%
%ADD54R,0.711200X1.168400*%
%ADD55R,5.588000X5.334000*%
%ADD56R,5.283200X6.350000*%
%ADD57RoundRect,0.200000X-0.275000X0.200000X-0.275000X-0.200000X0.275000X-0.200000X0.275000X0.200000X0*%
%ADD58C,3.500000*%
%ADD59C,0.650000*%
%ADD60RoundRect,0.150000X0.150000X0.400000X-0.150000X0.400000X-0.150000X-0.400000X0.150000X-0.400000X0*%
%ADD61RoundRect,0.150000X0.150000X0.425000X-0.150000X0.425000X-0.150000X-0.425000X0.150000X-0.425000X0*%
%ADD62RoundRect,0.075000X0.075000X0.500000X-0.075000X0.500000X-0.075000X-0.500000X0.075000X-0.500000X0*%
%ADD63O,1.000000X2.100000*%
%ADD64O,1.000000X1.800000*%
%ADD65RoundRect,0.140000X-0.170000X0.140000X-0.170000X-0.140000X0.170000X-0.140000X0.170000X0.140000X0*%
%ADD66C,1.552000*%
%ADD67R,0.812800X0.254000*%
%ADD68R,0.254000X1.651000*%
%ADD69RoundRect,0.150000X-0.150000X-0.200000X0.150000X-0.200000X0.150000X0.200000X-0.150000X0.200000X0*%
%ADD70R,0.800001X0.249999*%
%ADD71R,0.700001X0.249999*%
%ADD72R,1.498600X3.302000*%
%ADD73R,3.454400X5.588000*%
%ADD74RoundRect,0.250000X-1.000000X-0.900000X1.000000X-0.900000X1.000000X0.900000X-1.000000X0.900000X0*%
%ADD75RoundRect,0.050000X0.150000X-0.500000X0.150000X0.500000X-0.150000X0.500000X-0.150000X-0.500000X0*%
%ADD76RoundRect,0.050000X0.077000X0.254800X-0.077000X0.254800X-0.077000X-0.254800X0.077000X-0.254800X0*%
%ADD77RoundRect,0.050000X0.254800X-0.077000X0.254800X0.077000X-0.254800X0.077000X-0.254800X-0.077000X0*%
%ADD78R,3.098800X3.098800*%
%ADD79R,0.910001X0.509999*%
%ADD80RoundRect,0.100000X-0.100000X0.637500X-0.100000X-0.637500X0.100000X-0.637500X0.100000X0.637500X0*%
%ADD81RoundRect,0.112500X0.612500X0.112500X-0.612500X0.112500X-0.612500X-0.112500X0.612500X-0.112500X0*%
%ADD82RoundRect,0.150000X0.512500X0.150000X-0.512500X0.150000X-0.512500X-0.150000X0.512500X-0.150000X0*%
G04 APERTURE END LIST*
%TO.C,U55*%
D10*
X156830000Y-171045000D02*
X158680000Y-171045000D01*
X158680000Y-172485000D01*
X156830000Y-172485000D01*
X156830000Y-171045000D01*
G36*
X156830000Y-171045000D02*
G01*
X158680000Y-171045000D01*
X158680000Y-172485000D01*
X156830000Y-172485000D01*
X156830000Y-171045000D01*
G37*
X156830000Y-173025000D02*
X158680000Y-173025000D01*
X158680000Y-174465000D01*
X156830000Y-174465000D01*
X156830000Y-173025000D01*
G36*
X156830000Y-173025000D02*
G01*
X158680000Y-173025000D01*
X158680000Y-174465000D01*
X156830000Y-174465000D01*
X156830000Y-173025000D01*
G37*
X156830000Y-174975000D02*
X158680000Y-174975000D01*
X158680000Y-176415000D01*
X156830000Y-176415000D01*
X156830000Y-174975000D01*
G36*
X156830000Y-174975000D02*
G01*
X158680000Y-174975000D01*
X158680000Y-176415000D01*
X156830000Y-176415000D01*
X156830000Y-174975000D01*
G37*
X156840000Y-176990000D02*
X158690000Y-176990000D01*
X158690000Y-178690000D01*
X156840000Y-178690000D01*
X156840000Y-176990000D01*
G36*
X156840000Y-176990000D02*
G01*
X158690000Y-176990000D01*
X158690000Y-178690000D01*
X156840000Y-178690000D01*
X156840000Y-176990000D01*
G37*
X159085000Y-171045000D02*
X160935000Y-171045000D01*
X160935000Y-172485000D01*
X159085000Y-172485000D01*
X159085000Y-171045000D01*
G36*
X159085000Y-171045000D02*
G01*
X160935000Y-171045000D01*
X160935000Y-172485000D01*
X159085000Y-172485000D01*
X159085000Y-171045000D01*
G37*
X159085000Y-174975000D02*
X160935000Y-174975000D01*
X160935000Y-176415000D01*
X159085000Y-176415000D01*
X159085000Y-174975000D01*
G36*
X159085000Y-174975000D02*
G01*
X160935000Y-174975000D01*
X160935000Y-176415000D01*
X159085000Y-176415000D01*
X159085000Y-174975000D01*
G37*
X159120000Y-173025000D02*
X160900000Y-173025000D01*
X160900000Y-174465000D01*
X159120000Y-174465000D01*
X159120000Y-173025000D01*
G36*
X159120000Y-173025000D02*
G01*
X160900000Y-173025000D01*
X160900000Y-174465000D01*
X159120000Y-174465000D01*
X159120000Y-173025000D01*
G37*
X159120000Y-176980000D02*
X160900000Y-176980000D01*
X160900000Y-178690000D01*
X159120000Y-178690000D01*
X159120000Y-176980000D01*
G36*
X159120000Y-176980000D02*
G01*
X160900000Y-176980000D01*
X160900000Y-178690000D01*
X159120000Y-178690000D01*
X159120000Y-176980000D01*
G37*
X161295000Y-171045000D02*
X163145000Y-171045000D01*
X163145000Y-172485000D01*
X161295000Y-172485000D01*
X161295000Y-171045000D01*
G36*
X161295000Y-171045000D02*
G01*
X163145000Y-171045000D01*
X163145000Y-172485000D01*
X161295000Y-172485000D01*
X161295000Y-171045000D01*
G37*
X161295000Y-174975000D02*
X163145000Y-174975000D01*
X163145000Y-176415000D01*
X161295000Y-176415000D01*
X161295000Y-174975000D01*
G36*
X161295000Y-174975000D02*
G01*
X163145000Y-174975000D01*
X163145000Y-176415000D01*
X161295000Y-176415000D01*
X161295000Y-174975000D01*
G37*
X161320000Y-176960000D02*
X163160000Y-176960000D01*
X163160000Y-178700000D01*
X161320000Y-178700000D01*
X161320000Y-176960000D01*
G36*
X161320000Y-176960000D02*
G01*
X163160000Y-176960000D01*
X163160000Y-178700000D01*
X161320000Y-178700000D01*
X161320000Y-176960000D01*
G37*
X161330000Y-173015000D02*
X163150000Y-173015000D01*
X163150000Y-174455000D01*
X161330000Y-174455000D01*
X161330000Y-173015000D01*
G36*
X161330000Y-173015000D02*
G01*
X163150000Y-173015000D01*
X163150000Y-174455000D01*
X161330000Y-174455000D01*
X161330000Y-173015000D01*
G37*
D11*
%TO.C,Q4*%
G36*
X204248698Y-111445001D02*
G01*
X203838699Y-111445001D01*
X203838699Y-111220001D01*
X204248698Y-111220001D01*
X204248698Y-111445001D01*
G37*
G36*
X205518701Y-111445001D02*
G01*
X205108702Y-111445001D01*
X205108702Y-111220001D01*
X205518701Y-111220001D01*
X205518701Y-111445001D01*
G37*
G36*
X206788696Y-111445001D02*
G01*
X206378697Y-111445001D01*
X206378697Y-111220001D01*
X206788696Y-111220001D01*
X206788696Y-111445001D01*
G37*
G36*
X208058698Y-111445001D02*
G01*
X207648699Y-111445001D01*
X207648699Y-111220001D01*
X208058698Y-111220001D01*
X208058698Y-111445001D01*
G37*
G36*
X208141685Y-111406002D02*
G01*
X208151477Y-111408974D01*
X208160502Y-111413798D01*
X208168411Y-111420290D01*
X208174903Y-111428199D01*
X208179727Y-111437224D01*
X208182699Y-111447016D01*
X208183699Y-111457201D01*
X208183699Y-114832800D01*
X208182699Y-114842985D01*
X208179727Y-114852777D01*
X208174903Y-114861802D01*
X208168411Y-114869711D01*
X208160502Y-114876204D01*
X208151477Y-114881027D01*
X208141685Y-114883999D01*
X208131500Y-114885000D01*
X203765900Y-114885000D01*
X203755715Y-114883999D01*
X203745923Y-114881027D01*
X203736898Y-114876204D01*
X203728989Y-114869711D01*
X203722497Y-114861802D01*
X203717673Y-114852777D01*
X203714701Y-114842985D01*
X203713701Y-114832800D01*
X203713701Y-111457201D01*
X203714701Y-111447016D01*
X203717673Y-111437224D01*
X203722497Y-111428199D01*
X203728989Y-111420290D01*
X203736898Y-111413798D01*
X203745923Y-111408974D01*
X203755715Y-111406002D01*
X203765900Y-111404999D01*
X208131500Y-111404999D01*
X208141685Y-111406002D01*
G37*
%TO.C,U65*%
D10*
X180160000Y-190345000D02*
X178340000Y-190345000D01*
X178340000Y-188905000D01*
X180160000Y-188905000D01*
X180160000Y-190345000D01*
G36*
X180160000Y-190345000D02*
G01*
X178340000Y-190345000D01*
X178340000Y-188905000D01*
X180160000Y-188905000D01*
X180160000Y-190345000D01*
G37*
X180170000Y-186400000D02*
X178330000Y-186400000D01*
X178330000Y-184660000D01*
X180170000Y-184660000D01*
X180170000Y-186400000D01*
G36*
X180170000Y-186400000D02*
G01*
X178330000Y-186400000D01*
X178330000Y-184660000D01*
X180170000Y-184660000D01*
X180170000Y-186400000D01*
G37*
X180195000Y-188385000D02*
X178345000Y-188385000D01*
X178345000Y-186945000D01*
X180195000Y-186945000D01*
X180195000Y-188385000D01*
G36*
X180195000Y-188385000D02*
G01*
X178345000Y-188385000D01*
X178345000Y-186945000D01*
X180195000Y-186945000D01*
X180195000Y-188385000D01*
G37*
X180195000Y-192315000D02*
X178345000Y-192315000D01*
X178345000Y-190875000D01*
X180195000Y-190875000D01*
X180195000Y-192315000D01*
G36*
X180195000Y-192315000D02*
G01*
X178345000Y-192315000D01*
X178345000Y-190875000D01*
X180195000Y-190875000D01*
X180195000Y-192315000D01*
G37*
X182370000Y-186380000D02*
X180590000Y-186380000D01*
X180590000Y-184670000D01*
X182370000Y-184670000D01*
X182370000Y-186380000D01*
G36*
X182370000Y-186380000D02*
G01*
X180590000Y-186380000D01*
X180590000Y-184670000D01*
X182370000Y-184670000D01*
X182370000Y-186380000D01*
G37*
X182370000Y-190335000D02*
X180590000Y-190335000D01*
X180590000Y-188895000D01*
X182370000Y-188895000D01*
X182370000Y-190335000D01*
G36*
X182370000Y-190335000D02*
G01*
X180590000Y-190335000D01*
X180590000Y-188895000D01*
X182370000Y-188895000D01*
X182370000Y-190335000D01*
G37*
X182405000Y-188385000D02*
X180555000Y-188385000D01*
X180555000Y-186945000D01*
X182405000Y-186945000D01*
X182405000Y-188385000D01*
G36*
X182405000Y-188385000D02*
G01*
X180555000Y-188385000D01*
X180555000Y-186945000D01*
X182405000Y-186945000D01*
X182405000Y-188385000D01*
G37*
X182405000Y-192315000D02*
X180555000Y-192315000D01*
X180555000Y-190875000D01*
X182405000Y-190875000D01*
X182405000Y-192315000D01*
G36*
X182405000Y-192315000D02*
G01*
X180555000Y-192315000D01*
X180555000Y-190875000D01*
X182405000Y-190875000D01*
X182405000Y-192315000D01*
G37*
X184650000Y-186370000D02*
X182800000Y-186370000D01*
X182800000Y-184670000D01*
X184650000Y-184670000D01*
X184650000Y-186370000D01*
G36*
X184650000Y-186370000D02*
G01*
X182800000Y-186370000D01*
X182800000Y-184670000D01*
X184650000Y-184670000D01*
X184650000Y-186370000D01*
G37*
X184660000Y-188385000D02*
X182810000Y-188385000D01*
X182810000Y-186945000D01*
X184660000Y-186945000D01*
X184660000Y-188385000D01*
G36*
X184660000Y-188385000D02*
G01*
X182810000Y-188385000D01*
X182810000Y-186945000D01*
X184660000Y-186945000D01*
X184660000Y-188385000D01*
G37*
X184660000Y-190335000D02*
X182810000Y-190335000D01*
X182810000Y-188895000D01*
X184660000Y-188895000D01*
X184660000Y-190335000D01*
G36*
X184660000Y-190335000D02*
G01*
X182810000Y-190335000D01*
X182810000Y-188895000D01*
X184660000Y-188895000D01*
X184660000Y-190335000D01*
G37*
X184660000Y-192315000D02*
X182810000Y-192315000D01*
X182810000Y-190875000D01*
X184660000Y-190875000D01*
X184660000Y-192315000D01*
G36*
X184660000Y-192315000D02*
G01*
X182810000Y-192315000D01*
X182810000Y-190875000D01*
X184660000Y-190875000D01*
X184660000Y-192315000D01*
G37*
%TO.C,U47*%
X137120000Y-190315000D02*
X135300000Y-190315000D01*
X135300000Y-188875000D01*
X137120000Y-188875000D01*
X137120000Y-190315000D01*
G36*
X137120000Y-190315000D02*
G01*
X135300000Y-190315000D01*
X135300000Y-188875000D01*
X137120000Y-188875000D01*
X137120000Y-190315000D01*
G37*
X137130000Y-186370000D02*
X135290000Y-186370000D01*
X135290000Y-184630000D01*
X137130000Y-184630000D01*
X137130000Y-186370000D01*
G36*
X137130000Y-186370000D02*
G01*
X135290000Y-186370000D01*
X135290000Y-184630000D01*
X137130000Y-184630000D01*
X137130000Y-186370000D01*
G37*
X137155000Y-188355000D02*
X135305000Y-188355000D01*
X135305000Y-186915000D01*
X137155000Y-186915000D01*
X137155000Y-188355000D01*
G36*
X137155000Y-188355000D02*
G01*
X135305000Y-188355000D01*
X135305000Y-186915000D01*
X137155000Y-186915000D01*
X137155000Y-188355000D01*
G37*
X137155000Y-192285000D02*
X135305000Y-192285000D01*
X135305000Y-190845000D01*
X137155000Y-190845000D01*
X137155000Y-192285000D01*
G36*
X137155000Y-192285000D02*
G01*
X135305000Y-192285000D01*
X135305000Y-190845000D01*
X137155000Y-190845000D01*
X137155000Y-192285000D01*
G37*
X139330000Y-186350000D02*
X137550000Y-186350000D01*
X137550000Y-184640000D01*
X139330000Y-184640000D01*
X139330000Y-186350000D01*
G36*
X139330000Y-186350000D02*
G01*
X137550000Y-186350000D01*
X137550000Y-184640000D01*
X139330000Y-184640000D01*
X139330000Y-186350000D01*
G37*
X139330000Y-190305000D02*
X137550000Y-190305000D01*
X137550000Y-188865000D01*
X139330000Y-188865000D01*
X139330000Y-190305000D01*
G36*
X139330000Y-190305000D02*
G01*
X137550000Y-190305000D01*
X137550000Y-188865000D01*
X139330000Y-188865000D01*
X139330000Y-190305000D01*
G37*
X139365000Y-188355000D02*
X137515000Y-188355000D01*
X137515000Y-186915000D01*
X139365000Y-186915000D01*
X139365000Y-188355000D01*
G36*
X139365000Y-188355000D02*
G01*
X137515000Y-188355000D01*
X137515000Y-186915000D01*
X139365000Y-186915000D01*
X139365000Y-188355000D01*
G37*
X139365000Y-192285000D02*
X137515000Y-192285000D01*
X137515000Y-190845000D01*
X139365000Y-190845000D01*
X139365000Y-192285000D01*
G36*
X139365000Y-192285000D02*
G01*
X137515000Y-192285000D01*
X137515000Y-190845000D01*
X139365000Y-190845000D01*
X139365000Y-192285000D01*
G37*
X141610000Y-186340000D02*
X139760000Y-186340000D01*
X139760000Y-184640000D01*
X141610000Y-184640000D01*
X141610000Y-186340000D01*
G36*
X141610000Y-186340000D02*
G01*
X139760000Y-186340000D01*
X139760000Y-184640000D01*
X141610000Y-184640000D01*
X141610000Y-186340000D01*
G37*
X141620000Y-188355000D02*
X139770000Y-188355000D01*
X139770000Y-186915000D01*
X141620000Y-186915000D01*
X141620000Y-188355000D01*
G36*
X141620000Y-188355000D02*
G01*
X139770000Y-188355000D01*
X139770000Y-186915000D01*
X141620000Y-186915000D01*
X141620000Y-188355000D01*
G37*
X141620000Y-190305000D02*
X139770000Y-190305000D01*
X139770000Y-188865000D01*
X141620000Y-188865000D01*
X141620000Y-190305000D01*
G36*
X141620000Y-190305000D02*
G01*
X139770000Y-190305000D01*
X139770000Y-188865000D01*
X141620000Y-188865000D01*
X141620000Y-190305000D01*
G37*
X141620000Y-192285000D02*
X139770000Y-192285000D01*
X139770000Y-190845000D01*
X141620000Y-190845000D01*
X141620000Y-192285000D01*
G36*
X141620000Y-192285000D02*
G01*
X139770000Y-192285000D01*
X139770000Y-190845000D01*
X141620000Y-190845000D01*
X141620000Y-192285000D01*
G37*
%TO.C,U74*%
X199890000Y-157455000D02*
X201740000Y-157455000D01*
X201740000Y-158895000D01*
X199890000Y-158895000D01*
X199890000Y-157455000D01*
G36*
X199890000Y-157455000D02*
G01*
X201740000Y-157455000D01*
X201740000Y-158895000D01*
X199890000Y-158895000D01*
X199890000Y-157455000D01*
G37*
X199890000Y-159435000D02*
X201740000Y-159435000D01*
X201740000Y-160875000D01*
X199890000Y-160875000D01*
X199890000Y-159435000D01*
G36*
X199890000Y-159435000D02*
G01*
X201740000Y-159435000D01*
X201740000Y-160875000D01*
X199890000Y-160875000D01*
X199890000Y-159435000D01*
G37*
X199890000Y-161385000D02*
X201740000Y-161385000D01*
X201740000Y-162825000D01*
X199890000Y-162825000D01*
X199890000Y-161385000D01*
G36*
X199890000Y-161385000D02*
G01*
X201740000Y-161385000D01*
X201740000Y-162825000D01*
X199890000Y-162825000D01*
X199890000Y-161385000D01*
G37*
X199900000Y-163400000D02*
X201750000Y-163400000D01*
X201750000Y-165100000D01*
X199900000Y-165100000D01*
X199900000Y-163400000D01*
G36*
X199900000Y-163400000D02*
G01*
X201750000Y-163400000D01*
X201750000Y-165100000D01*
X199900000Y-165100000D01*
X199900000Y-163400000D01*
G37*
X202145000Y-157455000D02*
X203995000Y-157455000D01*
X203995000Y-158895000D01*
X202145000Y-158895000D01*
X202145000Y-157455000D01*
G36*
X202145000Y-157455000D02*
G01*
X203995000Y-157455000D01*
X203995000Y-158895000D01*
X202145000Y-158895000D01*
X202145000Y-157455000D01*
G37*
X202145000Y-161385000D02*
X203995000Y-161385000D01*
X203995000Y-162825000D01*
X202145000Y-162825000D01*
X202145000Y-161385000D01*
G36*
X202145000Y-161385000D02*
G01*
X203995000Y-161385000D01*
X203995000Y-162825000D01*
X202145000Y-162825000D01*
X202145000Y-161385000D01*
G37*
X202180000Y-159435000D02*
X203960000Y-159435000D01*
X203960000Y-160875000D01*
X202180000Y-160875000D01*
X202180000Y-159435000D01*
G36*
X202180000Y-159435000D02*
G01*
X203960000Y-159435000D01*
X203960000Y-160875000D01*
X202180000Y-160875000D01*
X202180000Y-159435000D01*
G37*
X202180000Y-163390000D02*
X203960000Y-163390000D01*
X203960000Y-165100000D01*
X202180000Y-165100000D01*
X202180000Y-163390000D01*
G36*
X202180000Y-163390000D02*
G01*
X203960000Y-163390000D01*
X203960000Y-165100000D01*
X202180000Y-165100000D01*
X202180000Y-163390000D01*
G37*
X204355000Y-157455000D02*
X206205000Y-157455000D01*
X206205000Y-158895000D01*
X204355000Y-158895000D01*
X204355000Y-157455000D01*
G36*
X204355000Y-157455000D02*
G01*
X206205000Y-157455000D01*
X206205000Y-158895000D01*
X204355000Y-158895000D01*
X204355000Y-157455000D01*
G37*
X204355000Y-161385000D02*
X206205000Y-161385000D01*
X206205000Y-162825000D01*
X204355000Y-162825000D01*
X204355000Y-161385000D01*
G36*
X204355000Y-161385000D02*
G01*
X206205000Y-161385000D01*
X206205000Y-162825000D01*
X204355000Y-162825000D01*
X204355000Y-161385000D01*
G37*
X204380000Y-163370000D02*
X206220000Y-163370000D01*
X206220000Y-165110000D01*
X204380000Y-165110000D01*
X204380000Y-163370000D01*
G36*
X204380000Y-163370000D02*
G01*
X206220000Y-163370000D01*
X206220000Y-165110000D01*
X204380000Y-165110000D01*
X204380000Y-163370000D01*
G37*
X204390000Y-159425000D02*
X206210000Y-159425000D01*
X206210000Y-160865000D01*
X204390000Y-160865000D01*
X204390000Y-159425000D01*
G36*
X204390000Y-159425000D02*
G01*
X206210000Y-159425000D01*
X206210000Y-160865000D01*
X204390000Y-160865000D01*
X204390000Y-159425000D01*
G37*
%TO.C,U54*%
X156830000Y-184715000D02*
X158680000Y-184715000D01*
X158680000Y-186155000D01*
X156830000Y-186155000D01*
X156830000Y-184715000D01*
G36*
X156830000Y-184715000D02*
G01*
X158680000Y-184715000D01*
X158680000Y-186155000D01*
X156830000Y-186155000D01*
X156830000Y-184715000D01*
G37*
X156830000Y-186695000D02*
X158680000Y-186695000D01*
X158680000Y-188135000D01*
X156830000Y-188135000D01*
X156830000Y-186695000D01*
G36*
X156830000Y-186695000D02*
G01*
X158680000Y-186695000D01*
X158680000Y-188135000D01*
X156830000Y-188135000D01*
X156830000Y-186695000D01*
G37*
X156830000Y-188645000D02*
X158680000Y-188645000D01*
X158680000Y-190085000D01*
X156830000Y-190085000D01*
X156830000Y-188645000D01*
G36*
X156830000Y-188645000D02*
G01*
X158680000Y-188645000D01*
X158680000Y-190085000D01*
X156830000Y-190085000D01*
X156830000Y-188645000D01*
G37*
X156840000Y-190660000D02*
X158690000Y-190660000D01*
X158690000Y-192360000D01*
X156840000Y-192360000D01*
X156840000Y-190660000D01*
G36*
X156840000Y-190660000D02*
G01*
X158690000Y-190660000D01*
X158690000Y-192360000D01*
X156840000Y-192360000D01*
X156840000Y-190660000D01*
G37*
X159085000Y-184715000D02*
X160935000Y-184715000D01*
X160935000Y-186155000D01*
X159085000Y-186155000D01*
X159085000Y-184715000D01*
G36*
X159085000Y-184715000D02*
G01*
X160935000Y-184715000D01*
X160935000Y-186155000D01*
X159085000Y-186155000D01*
X159085000Y-184715000D01*
G37*
X159085000Y-188645000D02*
X160935000Y-188645000D01*
X160935000Y-190085000D01*
X159085000Y-190085000D01*
X159085000Y-188645000D01*
G36*
X159085000Y-188645000D02*
G01*
X160935000Y-188645000D01*
X160935000Y-190085000D01*
X159085000Y-190085000D01*
X159085000Y-188645000D01*
G37*
X159120000Y-186695000D02*
X160900000Y-186695000D01*
X160900000Y-188135000D01*
X159120000Y-188135000D01*
X159120000Y-186695000D01*
G36*
X159120000Y-186695000D02*
G01*
X160900000Y-186695000D01*
X160900000Y-188135000D01*
X159120000Y-188135000D01*
X159120000Y-186695000D01*
G37*
X159120000Y-190650000D02*
X160900000Y-190650000D01*
X160900000Y-192360000D01*
X159120000Y-192360000D01*
X159120000Y-190650000D01*
G36*
X159120000Y-190650000D02*
G01*
X160900000Y-190650000D01*
X160900000Y-192360000D01*
X159120000Y-192360000D01*
X159120000Y-190650000D01*
G37*
X161295000Y-184715000D02*
X163145000Y-184715000D01*
X163145000Y-186155000D01*
X161295000Y-186155000D01*
X161295000Y-184715000D01*
G36*
X161295000Y-184715000D02*
G01*
X163145000Y-184715000D01*
X163145000Y-186155000D01*
X161295000Y-186155000D01*
X161295000Y-184715000D01*
G37*
X161295000Y-188645000D02*
X163145000Y-188645000D01*
X163145000Y-190085000D01*
X161295000Y-190085000D01*
X161295000Y-188645000D01*
G36*
X161295000Y-188645000D02*
G01*
X163145000Y-188645000D01*
X163145000Y-190085000D01*
X161295000Y-190085000D01*
X161295000Y-188645000D01*
G37*
X161320000Y-190630000D02*
X163160000Y-190630000D01*
X163160000Y-192370000D01*
X161320000Y-192370000D01*
X161320000Y-190630000D01*
G36*
X161320000Y-190630000D02*
G01*
X163160000Y-190630000D01*
X163160000Y-192370000D01*
X161320000Y-192370000D01*
X161320000Y-190630000D01*
G37*
X161330000Y-186685000D02*
X163150000Y-186685000D01*
X163150000Y-188125000D01*
X161330000Y-188125000D01*
X161330000Y-186685000D01*
G36*
X161330000Y-186685000D02*
G01*
X163150000Y-186685000D01*
X163150000Y-188125000D01*
X161330000Y-188125000D01*
X161330000Y-186685000D01*
G37*
%TO.C,U46*%
X137120000Y-176635000D02*
X135300000Y-176635000D01*
X135300000Y-175195000D01*
X137120000Y-175195000D01*
X137120000Y-176635000D01*
G36*
X137120000Y-176635000D02*
G01*
X135300000Y-176635000D01*
X135300000Y-175195000D01*
X137120000Y-175195000D01*
X137120000Y-176635000D01*
G37*
X137130000Y-172690000D02*
X135290000Y-172690000D01*
X135290000Y-170950000D01*
X137130000Y-170950000D01*
X137130000Y-172690000D01*
G36*
X137130000Y-172690000D02*
G01*
X135290000Y-172690000D01*
X135290000Y-170950000D01*
X137130000Y-170950000D01*
X137130000Y-172690000D01*
G37*
X137155000Y-174675000D02*
X135305000Y-174675000D01*
X135305000Y-173235000D01*
X137155000Y-173235000D01*
X137155000Y-174675000D01*
G36*
X137155000Y-174675000D02*
G01*
X135305000Y-174675000D01*
X135305000Y-173235000D01*
X137155000Y-173235000D01*
X137155000Y-174675000D01*
G37*
X137155000Y-178605000D02*
X135305000Y-178605000D01*
X135305000Y-177165000D01*
X137155000Y-177165000D01*
X137155000Y-178605000D01*
G36*
X137155000Y-178605000D02*
G01*
X135305000Y-178605000D01*
X135305000Y-177165000D01*
X137155000Y-177165000D01*
X137155000Y-178605000D01*
G37*
X139330000Y-172670000D02*
X137550000Y-172670000D01*
X137550000Y-170960000D01*
X139330000Y-170960000D01*
X139330000Y-172670000D01*
G36*
X139330000Y-172670000D02*
G01*
X137550000Y-172670000D01*
X137550000Y-170960000D01*
X139330000Y-170960000D01*
X139330000Y-172670000D01*
G37*
X139330000Y-176625000D02*
X137550000Y-176625000D01*
X137550000Y-175185000D01*
X139330000Y-175185000D01*
X139330000Y-176625000D01*
G36*
X139330000Y-176625000D02*
G01*
X137550000Y-176625000D01*
X137550000Y-175185000D01*
X139330000Y-175185000D01*
X139330000Y-176625000D01*
G37*
X139365000Y-174675000D02*
X137515000Y-174675000D01*
X137515000Y-173235000D01*
X139365000Y-173235000D01*
X139365000Y-174675000D01*
G36*
X139365000Y-174675000D02*
G01*
X137515000Y-174675000D01*
X137515000Y-173235000D01*
X139365000Y-173235000D01*
X139365000Y-174675000D01*
G37*
X139365000Y-178605000D02*
X137515000Y-178605000D01*
X137515000Y-177165000D01*
X139365000Y-177165000D01*
X139365000Y-178605000D01*
G36*
X139365000Y-178605000D02*
G01*
X137515000Y-178605000D01*
X137515000Y-177165000D01*
X139365000Y-177165000D01*
X139365000Y-178605000D01*
G37*
X141610000Y-172660000D02*
X139760000Y-172660000D01*
X139760000Y-170960000D01*
X141610000Y-170960000D01*
X141610000Y-172660000D01*
G36*
X141610000Y-172660000D02*
G01*
X139760000Y-172660000D01*
X139760000Y-170960000D01*
X141610000Y-170960000D01*
X141610000Y-172660000D01*
G37*
X141620000Y-174675000D02*
X139770000Y-174675000D01*
X139770000Y-173235000D01*
X141620000Y-173235000D01*
X141620000Y-174675000D01*
G36*
X141620000Y-174675000D02*
G01*
X139770000Y-174675000D01*
X139770000Y-173235000D01*
X141620000Y-173235000D01*
X141620000Y-174675000D01*
G37*
X141620000Y-176625000D02*
X139770000Y-176625000D01*
X139770000Y-175185000D01*
X141620000Y-175185000D01*
X141620000Y-176625000D01*
G36*
X141620000Y-176625000D02*
G01*
X139770000Y-176625000D01*
X139770000Y-175185000D01*
X141620000Y-175185000D01*
X141620000Y-176625000D01*
G37*
X141620000Y-178605000D02*
X139770000Y-178605000D01*
X139770000Y-177165000D01*
X141620000Y-177165000D01*
X141620000Y-178605000D01*
G36*
X141620000Y-178605000D02*
G01*
X139770000Y-178605000D01*
X139770000Y-177165000D01*
X141620000Y-177165000D01*
X141620000Y-178605000D01*
G37*
%TO.C,U45*%
X137120000Y-162945000D02*
X135300000Y-162945000D01*
X135300000Y-161505000D01*
X137120000Y-161505000D01*
X137120000Y-162945000D01*
G36*
X137120000Y-162945000D02*
G01*
X135300000Y-162945000D01*
X135300000Y-161505000D01*
X137120000Y-161505000D01*
X137120000Y-162945000D01*
G37*
X137130000Y-159000000D02*
X135290000Y-159000000D01*
X135290000Y-157260000D01*
X137130000Y-157260000D01*
X137130000Y-159000000D01*
G36*
X137130000Y-159000000D02*
G01*
X135290000Y-159000000D01*
X135290000Y-157260000D01*
X137130000Y-157260000D01*
X137130000Y-159000000D01*
G37*
X137155000Y-160985000D02*
X135305000Y-160985000D01*
X135305000Y-159545000D01*
X137155000Y-159545000D01*
X137155000Y-160985000D01*
G36*
X137155000Y-160985000D02*
G01*
X135305000Y-160985000D01*
X135305000Y-159545000D01*
X137155000Y-159545000D01*
X137155000Y-160985000D01*
G37*
X137155000Y-164915000D02*
X135305000Y-164915000D01*
X135305000Y-163475000D01*
X137155000Y-163475000D01*
X137155000Y-164915000D01*
G36*
X137155000Y-164915000D02*
G01*
X135305000Y-164915000D01*
X135305000Y-163475000D01*
X137155000Y-163475000D01*
X137155000Y-164915000D01*
G37*
X139330000Y-158980000D02*
X137550000Y-158980000D01*
X137550000Y-157270000D01*
X139330000Y-157270000D01*
X139330000Y-158980000D01*
G36*
X139330000Y-158980000D02*
G01*
X137550000Y-158980000D01*
X137550000Y-157270000D01*
X139330000Y-157270000D01*
X139330000Y-158980000D01*
G37*
X139330000Y-162935000D02*
X137550000Y-162935000D01*
X137550000Y-161495000D01*
X139330000Y-161495000D01*
X139330000Y-162935000D01*
G36*
X139330000Y-162935000D02*
G01*
X137550000Y-162935000D01*
X137550000Y-161495000D01*
X139330000Y-161495000D01*
X139330000Y-162935000D01*
G37*
X139365000Y-160985000D02*
X137515000Y-160985000D01*
X137515000Y-159545000D01*
X139365000Y-159545000D01*
X139365000Y-160985000D01*
G36*
X139365000Y-160985000D02*
G01*
X137515000Y-160985000D01*
X137515000Y-159545000D01*
X139365000Y-159545000D01*
X139365000Y-160985000D01*
G37*
X139365000Y-164915000D02*
X137515000Y-164915000D01*
X137515000Y-163475000D01*
X139365000Y-163475000D01*
X139365000Y-164915000D01*
G36*
X139365000Y-164915000D02*
G01*
X137515000Y-164915000D01*
X137515000Y-163475000D01*
X139365000Y-163475000D01*
X139365000Y-164915000D01*
G37*
X141610000Y-158970000D02*
X139760000Y-158970000D01*
X139760000Y-157270000D01*
X141610000Y-157270000D01*
X141610000Y-158970000D01*
G36*
X141610000Y-158970000D02*
G01*
X139760000Y-158970000D01*
X139760000Y-157270000D01*
X141610000Y-157270000D01*
X141610000Y-158970000D01*
G37*
X141620000Y-160985000D02*
X139770000Y-160985000D01*
X139770000Y-159545000D01*
X141620000Y-159545000D01*
X141620000Y-160985000D01*
G36*
X141620000Y-160985000D02*
G01*
X139770000Y-160985000D01*
X139770000Y-159545000D01*
X141620000Y-159545000D01*
X141620000Y-160985000D01*
G37*
X141620000Y-162935000D02*
X139770000Y-162935000D01*
X139770000Y-161495000D01*
X141620000Y-161495000D01*
X141620000Y-162935000D01*
G36*
X141620000Y-162935000D02*
G01*
X139770000Y-162935000D01*
X139770000Y-161495000D01*
X141620000Y-161495000D01*
X141620000Y-162935000D01*
G37*
X141620000Y-164915000D02*
X139770000Y-164915000D01*
X139770000Y-163475000D01*
X141620000Y-163475000D01*
X141620000Y-164915000D01*
G36*
X141620000Y-164915000D02*
G01*
X139770000Y-164915000D01*
X139770000Y-163475000D01*
X141620000Y-163475000D01*
X141620000Y-164915000D01*
G37*
%TO.C,U72*%
X199890000Y-184825000D02*
X201740000Y-184825000D01*
X201740000Y-186265000D01*
X199890000Y-186265000D01*
X199890000Y-184825000D01*
G36*
X199890000Y-184825000D02*
G01*
X201740000Y-184825000D01*
X201740000Y-186265000D01*
X199890000Y-186265000D01*
X199890000Y-184825000D01*
G37*
X199890000Y-186805000D02*
X201740000Y-186805000D01*
X201740000Y-188245000D01*
X199890000Y-188245000D01*
X199890000Y-186805000D01*
G36*
X199890000Y-186805000D02*
G01*
X201740000Y-186805000D01*
X201740000Y-188245000D01*
X199890000Y-188245000D01*
X199890000Y-186805000D01*
G37*
X199890000Y-188755000D02*
X201740000Y-188755000D01*
X201740000Y-190195000D01*
X199890000Y-190195000D01*
X199890000Y-188755000D01*
G36*
X199890000Y-188755000D02*
G01*
X201740000Y-188755000D01*
X201740000Y-190195000D01*
X199890000Y-190195000D01*
X199890000Y-188755000D01*
G37*
X199900000Y-190770000D02*
X201750000Y-190770000D01*
X201750000Y-192470000D01*
X199900000Y-192470000D01*
X199900000Y-190770000D01*
G36*
X199900000Y-190770000D02*
G01*
X201750000Y-190770000D01*
X201750000Y-192470000D01*
X199900000Y-192470000D01*
X199900000Y-190770000D01*
G37*
X202145000Y-184825000D02*
X203995000Y-184825000D01*
X203995000Y-186265000D01*
X202145000Y-186265000D01*
X202145000Y-184825000D01*
G36*
X202145000Y-184825000D02*
G01*
X203995000Y-184825000D01*
X203995000Y-186265000D01*
X202145000Y-186265000D01*
X202145000Y-184825000D01*
G37*
X202145000Y-188755000D02*
X203995000Y-188755000D01*
X203995000Y-190195000D01*
X202145000Y-190195000D01*
X202145000Y-188755000D01*
G36*
X202145000Y-188755000D02*
G01*
X203995000Y-188755000D01*
X203995000Y-190195000D01*
X202145000Y-190195000D01*
X202145000Y-188755000D01*
G37*
X202180000Y-186805000D02*
X203960000Y-186805000D01*
X203960000Y-188245000D01*
X202180000Y-188245000D01*
X202180000Y-186805000D01*
G36*
X202180000Y-186805000D02*
G01*
X203960000Y-186805000D01*
X203960000Y-188245000D01*
X202180000Y-188245000D01*
X202180000Y-186805000D01*
G37*
X202180000Y-190760000D02*
X203960000Y-190760000D01*
X203960000Y-192470000D01*
X202180000Y-192470000D01*
X202180000Y-190760000D01*
G36*
X202180000Y-190760000D02*
G01*
X203960000Y-190760000D01*
X203960000Y-192470000D01*
X202180000Y-192470000D01*
X202180000Y-190760000D01*
G37*
X204355000Y-184825000D02*
X206205000Y-184825000D01*
X206205000Y-186265000D01*
X204355000Y-186265000D01*
X204355000Y-184825000D01*
G36*
X204355000Y-184825000D02*
G01*
X206205000Y-184825000D01*
X206205000Y-186265000D01*
X204355000Y-186265000D01*
X204355000Y-184825000D01*
G37*
X204355000Y-188755000D02*
X206205000Y-188755000D01*
X206205000Y-190195000D01*
X204355000Y-190195000D01*
X204355000Y-188755000D01*
G36*
X204355000Y-188755000D02*
G01*
X206205000Y-188755000D01*
X206205000Y-190195000D01*
X204355000Y-190195000D01*
X204355000Y-188755000D01*
G37*
X204380000Y-190740000D02*
X206220000Y-190740000D01*
X206220000Y-192480000D01*
X204380000Y-192480000D01*
X204380000Y-190740000D01*
G36*
X204380000Y-190740000D02*
G01*
X206220000Y-190740000D01*
X206220000Y-192480000D01*
X204380000Y-192480000D01*
X204380000Y-190740000D01*
G37*
X204390000Y-186795000D02*
X206210000Y-186795000D01*
X206210000Y-188235000D01*
X204390000Y-188235000D01*
X204390000Y-186795000D01*
G36*
X204390000Y-186795000D02*
G01*
X206210000Y-186795000D01*
X206210000Y-188235000D01*
X204390000Y-188235000D01*
X204390000Y-186795000D01*
G37*
%TO.C,U63*%
X180160000Y-162975000D02*
X178340000Y-162975000D01*
X178340000Y-161535000D01*
X180160000Y-161535000D01*
X180160000Y-162975000D01*
G36*
X180160000Y-162975000D02*
G01*
X178340000Y-162975000D01*
X178340000Y-161535000D01*
X180160000Y-161535000D01*
X180160000Y-162975000D01*
G37*
X180170000Y-159030000D02*
X178330000Y-159030000D01*
X178330000Y-157290000D01*
X180170000Y-157290000D01*
X180170000Y-159030000D01*
G36*
X180170000Y-159030000D02*
G01*
X178330000Y-159030000D01*
X178330000Y-157290000D01*
X180170000Y-157290000D01*
X180170000Y-159030000D01*
G37*
X180195000Y-161015000D02*
X178345000Y-161015000D01*
X178345000Y-159575000D01*
X180195000Y-159575000D01*
X180195000Y-161015000D01*
G36*
X180195000Y-161015000D02*
G01*
X178345000Y-161015000D01*
X178345000Y-159575000D01*
X180195000Y-159575000D01*
X180195000Y-161015000D01*
G37*
X180195000Y-164945000D02*
X178345000Y-164945000D01*
X178345000Y-163505000D01*
X180195000Y-163505000D01*
X180195000Y-164945000D01*
G36*
X180195000Y-164945000D02*
G01*
X178345000Y-164945000D01*
X178345000Y-163505000D01*
X180195000Y-163505000D01*
X180195000Y-164945000D01*
G37*
X182370000Y-159010000D02*
X180590000Y-159010000D01*
X180590000Y-157300000D01*
X182370000Y-157300000D01*
X182370000Y-159010000D01*
G36*
X182370000Y-159010000D02*
G01*
X180590000Y-159010000D01*
X180590000Y-157300000D01*
X182370000Y-157300000D01*
X182370000Y-159010000D01*
G37*
X182370000Y-162965000D02*
X180590000Y-162965000D01*
X180590000Y-161525000D01*
X182370000Y-161525000D01*
X182370000Y-162965000D01*
G36*
X182370000Y-162965000D02*
G01*
X180590000Y-162965000D01*
X180590000Y-161525000D01*
X182370000Y-161525000D01*
X182370000Y-162965000D01*
G37*
X182405000Y-161015000D02*
X180555000Y-161015000D01*
X180555000Y-159575000D01*
X182405000Y-159575000D01*
X182405000Y-161015000D01*
G36*
X182405000Y-161015000D02*
G01*
X180555000Y-161015000D01*
X180555000Y-159575000D01*
X182405000Y-159575000D01*
X182405000Y-161015000D01*
G37*
X182405000Y-164945000D02*
X180555000Y-164945000D01*
X180555000Y-163505000D01*
X182405000Y-163505000D01*
X182405000Y-164945000D01*
G36*
X182405000Y-164945000D02*
G01*
X180555000Y-164945000D01*
X180555000Y-163505000D01*
X182405000Y-163505000D01*
X182405000Y-164945000D01*
G37*
X184650000Y-159000000D02*
X182800000Y-159000000D01*
X182800000Y-157300000D01*
X184650000Y-157300000D01*
X184650000Y-159000000D01*
G36*
X184650000Y-159000000D02*
G01*
X182800000Y-159000000D01*
X182800000Y-157300000D01*
X184650000Y-157300000D01*
X184650000Y-159000000D01*
G37*
X184660000Y-161015000D02*
X182810000Y-161015000D01*
X182810000Y-159575000D01*
X184660000Y-159575000D01*
X184660000Y-161015000D01*
G36*
X184660000Y-161015000D02*
G01*
X182810000Y-161015000D01*
X182810000Y-159575000D01*
X184660000Y-159575000D01*
X184660000Y-161015000D01*
G37*
X184660000Y-162965000D02*
X182810000Y-162965000D01*
X182810000Y-161525000D01*
X184660000Y-161525000D01*
X184660000Y-162965000D01*
G36*
X184660000Y-162965000D02*
G01*
X182810000Y-162965000D01*
X182810000Y-161525000D01*
X184660000Y-161525000D01*
X184660000Y-162965000D01*
G37*
X184660000Y-164945000D02*
X182810000Y-164945000D01*
X182810000Y-163505000D01*
X184660000Y-163505000D01*
X184660000Y-164945000D01*
G36*
X184660000Y-164945000D02*
G01*
X182810000Y-164945000D01*
X182810000Y-163505000D01*
X184660000Y-163505000D01*
X184660000Y-164945000D01*
G37*
%TO.C,U64*%
X180160000Y-176655000D02*
X178340000Y-176655000D01*
X178340000Y-175215000D01*
X180160000Y-175215000D01*
X180160000Y-176655000D01*
G36*
X180160000Y-176655000D02*
G01*
X178340000Y-176655000D01*
X178340000Y-175215000D01*
X180160000Y-175215000D01*
X180160000Y-176655000D01*
G37*
X180170000Y-172710000D02*
X178330000Y-172710000D01*
X178330000Y-170970000D01*
X180170000Y-170970000D01*
X180170000Y-172710000D01*
G36*
X180170000Y-172710000D02*
G01*
X178330000Y-172710000D01*
X178330000Y-170970000D01*
X180170000Y-170970000D01*
X180170000Y-172710000D01*
G37*
X180195000Y-174695000D02*
X178345000Y-174695000D01*
X178345000Y-173255000D01*
X180195000Y-173255000D01*
X180195000Y-174695000D01*
G36*
X180195000Y-174695000D02*
G01*
X178345000Y-174695000D01*
X178345000Y-173255000D01*
X180195000Y-173255000D01*
X180195000Y-174695000D01*
G37*
X180195000Y-178625000D02*
X178345000Y-178625000D01*
X178345000Y-177185000D01*
X180195000Y-177185000D01*
X180195000Y-178625000D01*
G36*
X180195000Y-178625000D02*
G01*
X178345000Y-178625000D01*
X178345000Y-177185000D01*
X180195000Y-177185000D01*
X180195000Y-178625000D01*
G37*
X182370000Y-172690000D02*
X180590000Y-172690000D01*
X180590000Y-170980000D01*
X182370000Y-170980000D01*
X182370000Y-172690000D01*
G36*
X182370000Y-172690000D02*
G01*
X180590000Y-172690000D01*
X180590000Y-170980000D01*
X182370000Y-170980000D01*
X182370000Y-172690000D01*
G37*
X182370000Y-176645000D02*
X180590000Y-176645000D01*
X180590000Y-175205000D01*
X182370000Y-175205000D01*
X182370000Y-176645000D01*
G36*
X182370000Y-176645000D02*
G01*
X180590000Y-176645000D01*
X180590000Y-175205000D01*
X182370000Y-175205000D01*
X182370000Y-176645000D01*
G37*
X182405000Y-174695000D02*
X180555000Y-174695000D01*
X180555000Y-173255000D01*
X182405000Y-173255000D01*
X182405000Y-174695000D01*
G36*
X182405000Y-174695000D02*
G01*
X180555000Y-174695000D01*
X180555000Y-173255000D01*
X182405000Y-173255000D01*
X182405000Y-174695000D01*
G37*
X182405000Y-178625000D02*
X180555000Y-178625000D01*
X180555000Y-177185000D01*
X182405000Y-177185000D01*
X182405000Y-178625000D01*
G36*
X182405000Y-178625000D02*
G01*
X180555000Y-178625000D01*
X180555000Y-177185000D01*
X182405000Y-177185000D01*
X182405000Y-178625000D01*
G37*
X184650000Y-172680000D02*
X182800000Y-172680000D01*
X182800000Y-170980000D01*
X184650000Y-170980000D01*
X184650000Y-172680000D01*
G36*
X184650000Y-172680000D02*
G01*
X182800000Y-172680000D01*
X182800000Y-170980000D01*
X184650000Y-170980000D01*
X184650000Y-172680000D01*
G37*
X184660000Y-174695000D02*
X182810000Y-174695000D01*
X182810000Y-173255000D01*
X184660000Y-173255000D01*
X184660000Y-174695000D01*
G36*
X184660000Y-174695000D02*
G01*
X182810000Y-174695000D01*
X182810000Y-173255000D01*
X184660000Y-173255000D01*
X184660000Y-174695000D01*
G37*
X184660000Y-176645000D02*
X182810000Y-176645000D01*
X182810000Y-175205000D01*
X184660000Y-175205000D01*
X184660000Y-176645000D01*
G36*
X184660000Y-176645000D02*
G01*
X182810000Y-176645000D01*
X182810000Y-175205000D01*
X184660000Y-175205000D01*
X184660000Y-176645000D01*
G37*
X184660000Y-178625000D02*
X182810000Y-178625000D01*
X182810000Y-177185000D01*
X184660000Y-177185000D01*
X184660000Y-178625000D01*
G36*
X184660000Y-178625000D02*
G01*
X182810000Y-178625000D01*
X182810000Y-177185000D01*
X184660000Y-177185000D01*
X184660000Y-178625000D01*
G37*
%TO.C,U73*%
X199890000Y-171135000D02*
X201740000Y-171135000D01*
X201740000Y-172575000D01*
X199890000Y-172575000D01*
X199890000Y-171135000D01*
G36*
X199890000Y-171135000D02*
G01*
X201740000Y-171135000D01*
X201740000Y-172575000D01*
X199890000Y-172575000D01*
X199890000Y-171135000D01*
G37*
X199890000Y-173115000D02*
X201740000Y-173115000D01*
X201740000Y-174555000D01*
X199890000Y-174555000D01*
X199890000Y-173115000D01*
G36*
X199890000Y-173115000D02*
G01*
X201740000Y-173115000D01*
X201740000Y-174555000D01*
X199890000Y-174555000D01*
X199890000Y-173115000D01*
G37*
X199890000Y-175065000D02*
X201740000Y-175065000D01*
X201740000Y-176505000D01*
X199890000Y-176505000D01*
X199890000Y-175065000D01*
G36*
X199890000Y-175065000D02*
G01*
X201740000Y-175065000D01*
X201740000Y-176505000D01*
X199890000Y-176505000D01*
X199890000Y-175065000D01*
G37*
X199900000Y-177080000D02*
X201750000Y-177080000D01*
X201750000Y-178780000D01*
X199900000Y-178780000D01*
X199900000Y-177080000D01*
G36*
X199900000Y-177080000D02*
G01*
X201750000Y-177080000D01*
X201750000Y-178780000D01*
X199900000Y-178780000D01*
X199900000Y-177080000D01*
G37*
X202145000Y-171135000D02*
X203995000Y-171135000D01*
X203995000Y-172575000D01*
X202145000Y-172575000D01*
X202145000Y-171135000D01*
G36*
X202145000Y-171135000D02*
G01*
X203995000Y-171135000D01*
X203995000Y-172575000D01*
X202145000Y-172575000D01*
X202145000Y-171135000D01*
G37*
X202145000Y-175065000D02*
X203995000Y-175065000D01*
X203995000Y-176505000D01*
X202145000Y-176505000D01*
X202145000Y-175065000D01*
G36*
X202145000Y-175065000D02*
G01*
X203995000Y-175065000D01*
X203995000Y-176505000D01*
X202145000Y-176505000D01*
X202145000Y-175065000D01*
G37*
X202180000Y-173115000D02*
X203960000Y-173115000D01*
X203960000Y-174555000D01*
X202180000Y-174555000D01*
X202180000Y-173115000D01*
G36*
X202180000Y-173115000D02*
G01*
X203960000Y-173115000D01*
X203960000Y-174555000D01*
X202180000Y-174555000D01*
X202180000Y-173115000D01*
G37*
X202180000Y-177070000D02*
X203960000Y-177070000D01*
X203960000Y-178780000D01*
X202180000Y-178780000D01*
X202180000Y-177070000D01*
G36*
X202180000Y-177070000D02*
G01*
X203960000Y-177070000D01*
X203960000Y-178780000D01*
X202180000Y-178780000D01*
X202180000Y-177070000D01*
G37*
X204355000Y-171135000D02*
X206205000Y-171135000D01*
X206205000Y-172575000D01*
X204355000Y-172575000D01*
X204355000Y-171135000D01*
G36*
X204355000Y-171135000D02*
G01*
X206205000Y-171135000D01*
X206205000Y-172575000D01*
X204355000Y-172575000D01*
X204355000Y-171135000D01*
G37*
X204355000Y-175065000D02*
X206205000Y-175065000D01*
X206205000Y-176505000D01*
X204355000Y-176505000D01*
X204355000Y-175065000D01*
G36*
X204355000Y-175065000D02*
G01*
X206205000Y-175065000D01*
X206205000Y-176505000D01*
X204355000Y-176505000D01*
X204355000Y-175065000D01*
G37*
X204380000Y-177050000D02*
X206220000Y-177050000D01*
X206220000Y-178790000D01*
X204380000Y-178790000D01*
X204380000Y-177050000D01*
G36*
X204380000Y-177050000D02*
G01*
X206220000Y-177050000D01*
X206220000Y-178790000D01*
X204380000Y-178790000D01*
X204380000Y-177050000D01*
G37*
X204390000Y-173105000D02*
X206210000Y-173105000D01*
X206210000Y-174545000D01*
X204390000Y-174545000D01*
X204390000Y-173105000D01*
G36*
X204390000Y-173105000D02*
G01*
X206210000Y-173105000D01*
X206210000Y-174545000D01*
X204390000Y-174545000D01*
X204390000Y-173105000D01*
G37*
D11*
%TO.C,Q2*%
G36*
X156194998Y-111430000D02*
G01*
X155784999Y-111430000D01*
X155784999Y-111205000D01*
X156194998Y-111205000D01*
X156194998Y-111430000D01*
G37*
G36*
X157465001Y-111430000D02*
G01*
X157055002Y-111430000D01*
X157055002Y-111205000D01*
X157465001Y-111205000D01*
X157465001Y-111430000D01*
G37*
G36*
X158734996Y-111430000D02*
G01*
X158324997Y-111430000D01*
X158324997Y-111205000D01*
X158734996Y-111205000D01*
X158734996Y-111430000D01*
G37*
G36*
X160004998Y-111430000D02*
G01*
X159594999Y-111430000D01*
X159594999Y-111205000D01*
X160004998Y-111205000D01*
X160004998Y-111430000D01*
G37*
G36*
X160087985Y-111391001D02*
G01*
X160097777Y-111393973D01*
X160106802Y-111398797D01*
X160114711Y-111405289D01*
X160121203Y-111413198D01*
X160126027Y-111422223D01*
X160128999Y-111432015D01*
X160129999Y-111442200D01*
X160129999Y-114817799D01*
X160128999Y-114827984D01*
X160126027Y-114837776D01*
X160121203Y-114846801D01*
X160114711Y-114854710D01*
X160106802Y-114861203D01*
X160097777Y-114866026D01*
X160087985Y-114868998D01*
X160077800Y-114869999D01*
X155712200Y-114869999D01*
X155702015Y-114868998D01*
X155692223Y-114866026D01*
X155683198Y-114861203D01*
X155675289Y-114854710D01*
X155668797Y-114846801D01*
X155663973Y-114837776D01*
X155661001Y-114827984D01*
X155660001Y-114817799D01*
X155660001Y-111442200D01*
X155661001Y-111432015D01*
X155663973Y-111422223D01*
X155668797Y-111413198D01*
X155675289Y-111405289D01*
X155683198Y-111398797D01*
X155692223Y-111393973D01*
X155702015Y-111391001D01*
X155712200Y-111389998D01*
X160077800Y-111389998D01*
X160087985Y-111391001D01*
G37*
%TO.C,U56*%
D10*
X156850000Y-157365000D02*
X158700000Y-157365000D01*
X158700000Y-158805000D01*
X156850000Y-158805000D01*
X156850000Y-157365000D01*
G36*
X156850000Y-157365000D02*
G01*
X158700000Y-157365000D01*
X158700000Y-158805000D01*
X156850000Y-158805000D01*
X156850000Y-157365000D01*
G37*
X156850000Y-159345000D02*
X158700000Y-159345000D01*
X158700000Y-160785000D01*
X156850000Y-160785000D01*
X156850000Y-159345000D01*
G36*
X156850000Y-159345000D02*
G01*
X158700000Y-159345000D01*
X158700000Y-160785000D01*
X156850000Y-160785000D01*
X156850000Y-159345000D01*
G37*
X156850000Y-161295000D02*
X158700000Y-161295000D01*
X158700000Y-162735000D01*
X156850000Y-162735000D01*
X156850000Y-161295000D01*
G36*
X156850000Y-161295000D02*
G01*
X158700000Y-161295000D01*
X158700000Y-162735000D01*
X156850000Y-162735000D01*
X156850000Y-161295000D01*
G37*
X156860000Y-163310000D02*
X158710000Y-163310000D01*
X158710000Y-165010000D01*
X156860000Y-165010000D01*
X156860000Y-163310000D01*
G36*
X156860000Y-163310000D02*
G01*
X158710000Y-163310000D01*
X158710000Y-165010000D01*
X156860000Y-165010000D01*
X156860000Y-163310000D01*
G37*
X159105000Y-157365000D02*
X160955000Y-157365000D01*
X160955000Y-158805000D01*
X159105000Y-158805000D01*
X159105000Y-157365000D01*
G36*
X159105000Y-157365000D02*
G01*
X160955000Y-157365000D01*
X160955000Y-158805000D01*
X159105000Y-158805000D01*
X159105000Y-157365000D01*
G37*
X159105000Y-161295000D02*
X160955000Y-161295000D01*
X160955000Y-162735000D01*
X159105000Y-162735000D01*
X159105000Y-161295000D01*
G36*
X159105000Y-161295000D02*
G01*
X160955000Y-161295000D01*
X160955000Y-162735000D01*
X159105000Y-162735000D01*
X159105000Y-161295000D01*
G37*
X159140000Y-159345000D02*
X160920000Y-159345000D01*
X160920000Y-160785000D01*
X159140000Y-160785000D01*
X159140000Y-159345000D01*
G36*
X159140000Y-159345000D02*
G01*
X160920000Y-159345000D01*
X160920000Y-160785000D01*
X159140000Y-160785000D01*
X159140000Y-159345000D01*
G37*
X159140000Y-163300000D02*
X160920000Y-163300000D01*
X160920000Y-165010000D01*
X159140000Y-165010000D01*
X159140000Y-163300000D01*
G36*
X159140000Y-163300000D02*
G01*
X160920000Y-163300000D01*
X160920000Y-165010000D01*
X159140000Y-165010000D01*
X159140000Y-163300000D01*
G37*
X161315000Y-157365000D02*
X163165000Y-157365000D01*
X163165000Y-158805000D01*
X161315000Y-158805000D01*
X161315000Y-157365000D01*
G36*
X161315000Y-157365000D02*
G01*
X163165000Y-157365000D01*
X163165000Y-158805000D01*
X161315000Y-158805000D01*
X161315000Y-157365000D01*
G37*
X161315000Y-161295000D02*
X163165000Y-161295000D01*
X163165000Y-162735000D01*
X161315000Y-162735000D01*
X161315000Y-161295000D01*
G36*
X161315000Y-161295000D02*
G01*
X163165000Y-161295000D01*
X163165000Y-162735000D01*
X161315000Y-162735000D01*
X161315000Y-161295000D01*
G37*
X161340000Y-163280000D02*
X163180000Y-163280000D01*
X163180000Y-165020000D01*
X161340000Y-165020000D01*
X161340000Y-163280000D01*
G36*
X161340000Y-163280000D02*
G01*
X163180000Y-163280000D01*
X163180000Y-165020000D01*
X161340000Y-165020000D01*
X161340000Y-163280000D01*
G37*
X161350000Y-159335000D02*
X163170000Y-159335000D01*
X163170000Y-160775000D01*
X161350000Y-160775000D01*
X161350000Y-159335000D01*
G36*
X161350000Y-159335000D02*
G01*
X163170000Y-159335000D01*
X163170000Y-160775000D01*
X161350000Y-160775000D01*
X161350000Y-159335000D01*
G37*
D11*
%TO.C,Q3*%
G36*
X205364998Y-105115001D02*
G01*
X205139998Y-105115001D01*
X205139998Y-104705002D01*
X205364998Y-104705002D01*
X205364998Y-105115001D01*
G37*
G36*
X205364998Y-106385003D02*
G01*
X205139998Y-106385003D01*
X205139998Y-105975004D01*
X205364998Y-105975004D01*
X205364998Y-106385003D01*
G37*
G36*
X205364998Y-107654998D02*
G01*
X205139998Y-107654998D01*
X205139998Y-107244999D01*
X205364998Y-107244999D01*
X205364998Y-107654998D01*
G37*
G36*
X205364998Y-108925001D02*
G01*
X205139998Y-108925001D01*
X205139998Y-108515002D01*
X205364998Y-108515002D01*
X205364998Y-108925001D01*
G37*
G36*
X208762982Y-104581001D02*
G01*
X208772774Y-104583973D01*
X208781799Y-104588797D01*
X208789708Y-104595289D01*
X208796201Y-104603198D01*
X208801024Y-104612223D01*
X208803996Y-104622015D01*
X208804997Y-104632200D01*
X208804997Y-108997800D01*
X208803996Y-109007985D01*
X208801024Y-109017777D01*
X208796201Y-109026802D01*
X208789708Y-109034711D01*
X208781799Y-109041203D01*
X208772774Y-109046027D01*
X208762982Y-109048999D01*
X208752797Y-109049999D01*
X205377198Y-109049999D01*
X205367013Y-109048999D01*
X205357221Y-109046027D01*
X205348196Y-109041203D01*
X205340287Y-109034711D01*
X205333795Y-109026802D01*
X205328971Y-109017777D01*
X205325999Y-109007985D01*
X205324996Y-108997800D01*
X205324996Y-104632200D01*
X205325999Y-104622015D01*
X205328971Y-104612223D01*
X205333795Y-104603198D01*
X205340287Y-104595289D01*
X205348196Y-104588797D01*
X205357221Y-104583973D01*
X205367013Y-104581001D01*
X205377198Y-104580001D01*
X208752797Y-104580001D01*
X208762982Y-104581001D01*
G37*
%TO.C,Q1*%
G36*
X160273948Y-105173947D02*
G01*
X160048948Y-105173947D01*
X160048948Y-104763948D01*
X160273948Y-104763948D01*
X160273948Y-105173947D01*
G37*
G36*
X160273948Y-106443950D02*
G01*
X160048948Y-106443950D01*
X160048948Y-106033951D01*
X160273948Y-106033951D01*
X160273948Y-106443950D01*
G37*
G36*
X160273948Y-107713945D02*
G01*
X160048948Y-107713945D01*
X160048948Y-107303946D01*
X160273948Y-107303946D01*
X160273948Y-107713945D01*
G37*
G36*
X160273948Y-108983947D02*
G01*
X160048948Y-108983947D01*
X160048948Y-108573948D01*
X160273948Y-108573948D01*
X160273948Y-108983947D01*
G37*
G36*
X160046933Y-104639950D02*
G01*
X160056725Y-104642922D01*
X160065750Y-104647746D01*
X160073659Y-104654238D01*
X160080151Y-104662147D01*
X160084975Y-104671172D01*
X160087947Y-104680964D01*
X160088950Y-104691149D01*
X160088950Y-109056749D01*
X160087947Y-109066934D01*
X160084975Y-109076726D01*
X160080151Y-109085751D01*
X160073659Y-109093660D01*
X160065750Y-109100152D01*
X160056725Y-109104976D01*
X160046933Y-109107948D01*
X160036748Y-109108948D01*
X156661149Y-109108948D01*
X156650964Y-109107948D01*
X156641172Y-109104976D01*
X156632147Y-109100152D01*
X156624238Y-109093660D01*
X156617745Y-109085751D01*
X156612922Y-109076726D01*
X156609950Y-109066934D01*
X156608949Y-109056749D01*
X156608949Y-104691149D01*
X156609950Y-104680964D01*
X156612922Y-104671172D01*
X156617745Y-104662147D01*
X156624238Y-104654238D01*
X156632147Y-104647746D01*
X156641172Y-104642922D01*
X156650964Y-104639950D01*
X156661149Y-104638950D01*
X160036748Y-104638950D01*
X160046933Y-104639950D01*
G37*
%TD*%
D12*
%TO.C,Y1*%
X222170807Y-105335000D03*
X222170807Y-103035000D03*
X220370807Y-103035000D03*
X220370807Y-105335000D03*
%TD*%
D13*
%TO.C,U10*%
X236198700Y-91180000D03*
X233898700Y-91180000D03*
X231598700Y-91180000D03*
D14*
X233898700Y-96980000D03*
%TD*%
D15*
%TO.C,Q5*%
X166729500Y-94842000D03*
D16*
X164825000Y-91350000D03*
X168635000Y-91350000D03*
X167365000Y-91350000D03*
X166095000Y-91350000D03*
%TD*%
D17*
%TO.C,U55*%
X164090000Y-178355000D03*
X164090000Y-177715000D03*
X164090000Y-177075000D03*
X164090000Y-176435000D03*
X164090000Y-175795000D03*
X164090000Y-175155000D03*
X164090000Y-174515000D03*
X164090000Y-173875000D03*
X164090000Y-173235000D03*
X164090000Y-172595000D03*
X164090000Y-171955000D03*
X164090000Y-171315000D03*
X155950000Y-171315000D03*
X155950000Y-171955000D03*
X155950000Y-172595000D03*
X155950000Y-173235000D03*
X155950000Y-173875000D03*
X155950000Y-174515000D03*
X155950000Y-175155000D03*
X155950000Y-175795000D03*
X155950000Y-176435000D03*
X155950000Y-177075000D03*
X155950000Y-177715000D03*
X155950000Y-178355000D03*
D18*
X162235712Y-174725000D03*
X162230000Y-172755000D03*
X161130000Y-171735000D03*
X161122856Y-174725000D03*
X161117144Y-172755000D03*
X161100000Y-175765000D03*
X161100000Y-173805000D03*
X159945712Y-174725000D03*
X159940000Y-172755000D03*
X158900000Y-172775000D03*
X158890000Y-171745000D03*
X158880000Y-175765000D03*
X158880000Y-173825000D03*
X158878572Y-174725000D03*
X157685712Y-174725000D03*
X157680000Y-172755000D03*
%TD*%
D19*
%TO.C,C16*%
X162250000Y-134854800D03*
X162250000Y-128200000D03*
%TD*%
D20*
%TO.C,U4*%
X231450000Y-145495000D03*
X232100000Y-145495000D03*
X232750000Y-145495000D03*
X233400000Y-145495000D03*
X234050000Y-145495000D03*
X234700000Y-145495000D03*
X235350000Y-145495000D03*
X236000000Y-145495000D03*
X236000000Y-139770000D03*
X235350000Y-139770000D03*
X234700000Y-139770000D03*
X234050000Y-139770000D03*
X233400000Y-139770000D03*
X232750000Y-139770000D03*
X232100000Y-139770000D03*
X231450000Y-139770000D03*
%TD*%
D21*
%TO.C,R6*%
X148280000Y-98045000D03*
X148280000Y-96395000D03*
%TD*%
D22*
%TO.C,C11*%
X144790000Y-90030000D03*
X144790000Y-88130000D03*
%TD*%
D23*
%TO.C,C33*%
X224000000Y-145520000D03*
X224000000Y-144560000D03*
%TD*%
D24*
%TO.C,D6*%
X178250000Y-91200000D03*
X173950000Y-91200000D03*
%TD*%
D25*
%TO.C,D1*%
X125937400Y-98480000D03*
X128172600Y-98480000D03*
%TD*%
D26*
%TO.C,R5*%
X134585000Y-98490000D03*
X132935000Y-98490000D03*
%TD*%
D27*
%TO.C,H6*%
X192930000Y-181770000D03*
%TD*%
D28*
%TO.C,R20*%
X214570000Y-100560000D03*
X213550000Y-100560000D03*
%TD*%
D29*
%TO.C,R30*%
X152625000Y-101200000D03*
X154275000Y-101200000D03*
%TD*%
D30*
%TO.C,Q4*%
X204043700Y-116490003D03*
X205313700Y-116490003D03*
X206583700Y-116490003D03*
X207853700Y-116490003D03*
X207853700Y-110900001D03*
X206583700Y-110900001D03*
X205313700Y-110900001D03*
X204043700Y-110900001D03*
%TD*%
D22*
%TO.C,C31*%
X144900000Y-102150000D03*
X144900000Y-100250000D03*
%TD*%
%TO.C,C15*%
X129350000Y-91060000D03*
X129350000Y-89160000D03*
%TD*%
D31*
%TO.C,R27*%
X162145000Y-115140000D03*
X168070000Y-115140000D03*
%TD*%
D32*
%TO.C,C101*%
X226198700Y-91325000D03*
X225238700Y-91325000D03*
%TD*%
D22*
%TO.C,C30*%
X150800000Y-101500000D03*
X150800000Y-99600000D03*
%TD*%
%TO.C,C7*%
X138600000Y-86110000D03*
X138600000Y-84210000D03*
%TD*%
D33*
%TO.C,U65*%
X177400000Y-185005000D03*
X177400000Y-185645000D03*
X177400000Y-186285000D03*
X177400000Y-186925000D03*
X177400000Y-187565000D03*
X177400000Y-188205000D03*
X177400000Y-188845000D03*
X177400000Y-189485000D03*
X177400000Y-190125000D03*
X177400000Y-190765000D03*
X177400000Y-191405000D03*
X177400000Y-192045000D03*
X185540000Y-192045000D03*
X185540000Y-191405000D03*
X185540000Y-190765000D03*
X185540000Y-190125000D03*
X185540000Y-189485000D03*
X185540000Y-188845000D03*
X185540000Y-188205000D03*
X185540000Y-187565000D03*
X185540000Y-186925000D03*
X185540000Y-186285000D03*
X185540000Y-185645000D03*
X185540000Y-185005000D03*
D18*
X179254288Y-188635000D03*
X179260000Y-190605000D03*
X180360000Y-191625000D03*
X180367144Y-188635000D03*
X180372856Y-190605000D03*
X180390000Y-187595000D03*
X180390000Y-189555000D03*
X181544288Y-188635000D03*
X181550000Y-190605000D03*
X182590000Y-190585000D03*
X182600000Y-191615000D03*
X182610000Y-187595000D03*
X182610000Y-189535000D03*
X182611428Y-188635000D03*
X183804288Y-188635000D03*
X183810000Y-190605000D03*
%TD*%
D33*
%TO.C,U47*%
X134360000Y-184975000D03*
X134360000Y-185615000D03*
X134360000Y-186255000D03*
X134360000Y-186895000D03*
X134360000Y-187535000D03*
X134360000Y-188175000D03*
X134360000Y-188815000D03*
X134360000Y-189455000D03*
X134360000Y-190095000D03*
X134360000Y-190735000D03*
X134360000Y-191375000D03*
X134360000Y-192015000D03*
X142500000Y-192015000D03*
X142500000Y-191375000D03*
X142500000Y-190735000D03*
X142500000Y-190095000D03*
X142500000Y-189455000D03*
X142500000Y-188815000D03*
X142500000Y-188175000D03*
X142500000Y-187535000D03*
X142500000Y-186895000D03*
X142500000Y-186255000D03*
X142500000Y-185615000D03*
X142500000Y-184975000D03*
D18*
X136214288Y-188605000D03*
X136220000Y-190575000D03*
X137320000Y-191595000D03*
X137327144Y-188605000D03*
X137332856Y-190575000D03*
X137350000Y-187565000D03*
X137350000Y-189525000D03*
X138504288Y-188605000D03*
X138510000Y-190575000D03*
X139550000Y-190555000D03*
X139560000Y-191585000D03*
X139570000Y-187565000D03*
X139570000Y-189505000D03*
X139571428Y-188605000D03*
X140764288Y-188605000D03*
X140770000Y-190575000D03*
%TD*%
D34*
%TO.C,C9*%
X138180000Y-96430000D03*
X140080000Y-96430000D03*
%TD*%
D35*
%TO.C,R28*%
X201710000Y-113610000D03*
X195785000Y-113610000D03*
%TD*%
D36*
%TO.C,R35*%
X226700000Y-142070000D03*
X227720000Y-142070000D03*
%TD*%
D37*
%TO.C,C5*%
X130600000Y-98130000D03*
X130600000Y-100030000D03*
%TD*%
D27*
%TO.C,H8*%
X170930000Y-181770000D03*
%TD*%
D38*
%TO.C,U27*%
X218683307Y-94397500D03*
X218683307Y-94797500D03*
X218683307Y-95197500D03*
X218683307Y-95597500D03*
X218683307Y-95997500D03*
X218683307Y-96397500D03*
X218683307Y-96797500D03*
X218683307Y-97197500D03*
X218683307Y-97597500D03*
X218683307Y-97997500D03*
X218683307Y-98397500D03*
X218683307Y-98797500D03*
X218683307Y-99197500D03*
X218683307Y-99597500D03*
D39*
X219520807Y-100435000D03*
X219920807Y-100435000D03*
X220320807Y-100435000D03*
X220720807Y-100435000D03*
X221120807Y-100435000D03*
X221520807Y-100435000D03*
X221920807Y-100435000D03*
X222320807Y-100435000D03*
X222720807Y-100435000D03*
X223120807Y-100435000D03*
X223520807Y-100435000D03*
X223920807Y-100435000D03*
X224320807Y-100435000D03*
X224720807Y-100435000D03*
D38*
X225558307Y-99597500D03*
X225558307Y-99197500D03*
X225558307Y-98797500D03*
X225558307Y-98397500D03*
X225558307Y-97997500D03*
X225558307Y-97597500D03*
X225558307Y-97197500D03*
X225558307Y-96797500D03*
X225558307Y-96397500D03*
X225558307Y-95997500D03*
X225558307Y-95597500D03*
X225558307Y-95197500D03*
X225558307Y-94797500D03*
X225558307Y-94397500D03*
D39*
X224720807Y-93560000D03*
X224320807Y-93560000D03*
X223920807Y-93560000D03*
X223520807Y-93560000D03*
X223120807Y-93560000D03*
X222720807Y-93560000D03*
X222320807Y-93560000D03*
X221920807Y-93560000D03*
X221520807Y-93560000D03*
X221120807Y-93560000D03*
X220720807Y-93560000D03*
X220320807Y-93560000D03*
X219920807Y-93560000D03*
X219520807Y-93560000D03*
D40*
X222120807Y-96997500D03*
%TD*%
D34*
%TO.C,C27*%
X178200000Y-131870000D03*
X180100000Y-131870000D03*
%TD*%
D21*
%TO.C,R9*%
X134440000Y-86195000D03*
X134440000Y-84545000D03*
%TD*%
D32*
%TO.C,C22*%
X232060000Y-137670000D03*
X231100000Y-137670000D03*
%TD*%
D17*
%TO.C,U74*%
X207150000Y-164765000D03*
X207150000Y-164125000D03*
X207150000Y-163485000D03*
X207150000Y-162845000D03*
X207150000Y-162205000D03*
X207150000Y-161565000D03*
X207150000Y-160925000D03*
X207150000Y-160285000D03*
X207150000Y-159645000D03*
X207150000Y-159005000D03*
X207150000Y-158365000D03*
X207150000Y-157725000D03*
X199010000Y-157725000D03*
X199010000Y-158365000D03*
X199010000Y-159005000D03*
X199010000Y-159645000D03*
X199010000Y-160285000D03*
X199010000Y-160925000D03*
X199010000Y-161565000D03*
X199010000Y-162205000D03*
X199010000Y-162845000D03*
X199010000Y-163485000D03*
X199010000Y-164125000D03*
X199010000Y-164765000D03*
D18*
X205295712Y-161135000D03*
X205290000Y-159165000D03*
X204190000Y-158145000D03*
X204182856Y-161135000D03*
X204177144Y-159165000D03*
X204160000Y-162175000D03*
X204160000Y-160215000D03*
X203005712Y-161135000D03*
X203000000Y-159165000D03*
X201960000Y-159185000D03*
X201950000Y-158155000D03*
X201940000Y-162175000D03*
X201940000Y-160235000D03*
X201938572Y-161135000D03*
X200745712Y-161135000D03*
X200740000Y-159165000D03*
%TD*%
D41*
%TO.C,C107*%
X215340807Y-97560000D03*
X216300807Y-97560000D03*
%TD*%
D17*
%TO.C,U54*%
X164090000Y-192025000D03*
X164090000Y-191385000D03*
X164090000Y-190745000D03*
X164090000Y-190105000D03*
X164090000Y-189465000D03*
X164090000Y-188825000D03*
X164090000Y-188185000D03*
X164090000Y-187545000D03*
X164090000Y-186905000D03*
X164090000Y-186265000D03*
X164090000Y-185625000D03*
X164090000Y-184985000D03*
X155950000Y-184985000D03*
X155950000Y-185625000D03*
X155950000Y-186265000D03*
X155950000Y-186905000D03*
X155950000Y-187545000D03*
X155950000Y-188185000D03*
X155950000Y-188825000D03*
X155950000Y-189465000D03*
X155950000Y-190105000D03*
X155950000Y-190745000D03*
X155950000Y-191385000D03*
X155950000Y-192025000D03*
D18*
X162235712Y-188395000D03*
X162230000Y-186425000D03*
X161130000Y-185405000D03*
X161122856Y-188395000D03*
X161117144Y-186425000D03*
X161100000Y-189435000D03*
X161100000Y-187475000D03*
X159945712Y-188395000D03*
X159940000Y-186425000D03*
X158900000Y-186445000D03*
X158890000Y-185415000D03*
X158880000Y-189435000D03*
X158880000Y-187495000D03*
X158878572Y-188395000D03*
X157685712Y-188395000D03*
X157680000Y-186425000D03*
%TD*%
D29*
%TO.C,R23*%
X141835000Y-96410000D03*
X143485000Y-96410000D03*
%TD*%
D33*
%TO.C,U46*%
X134360000Y-171295000D03*
X134360000Y-171935000D03*
X134360000Y-172575000D03*
X134360000Y-173215000D03*
X134360000Y-173855000D03*
X134360000Y-174495000D03*
X134360000Y-175135000D03*
X134360000Y-175775000D03*
X134360000Y-176415000D03*
X134360000Y-177055000D03*
X134360000Y-177695000D03*
X134360000Y-178335000D03*
X142500000Y-178335000D03*
X142500000Y-177695000D03*
X142500000Y-177055000D03*
X142500000Y-176415000D03*
X142500000Y-175775000D03*
X142500000Y-175135000D03*
X142500000Y-174495000D03*
X142500000Y-173855000D03*
X142500000Y-173215000D03*
X142500000Y-172575000D03*
X142500000Y-171935000D03*
X142500000Y-171295000D03*
D18*
X136214288Y-174925000D03*
X136220000Y-176895000D03*
X137320000Y-177915000D03*
X137327144Y-174925000D03*
X137332856Y-176895000D03*
X137350000Y-173885000D03*
X137350000Y-175845000D03*
X138504288Y-174925000D03*
X138510000Y-176895000D03*
X139550000Y-176875000D03*
X139560000Y-177905000D03*
X139570000Y-173885000D03*
X139570000Y-175825000D03*
X139571428Y-174925000D03*
X140764288Y-174925000D03*
X140770000Y-176895000D03*
%TD*%
D42*
%TO.C,J4*%
X138460000Y-181660000D03*
%TD*%
%TO.C,J3*%
X138460000Y-167970000D03*
%TD*%
D19*
%TO.C,C17*%
X171300000Y-134877400D03*
X171300000Y-128222600D03*
%TD*%
D43*
%TO.C,J18*%
X134680000Y-152320000D03*
%TD*%
D44*
%TO.C,C20*%
X153760000Y-96730000D03*
X151860000Y-96730000D03*
%TD*%
D45*
%TO.C,R52*%
X215808700Y-83920000D03*
X215808700Y-82900000D03*
%TD*%
D46*
%TO.C,SW2*%
X205310000Y-88100000D03*
X205310000Y-83990000D03*
%TD*%
D47*
%TO.C,R53*%
X222550807Y-89760000D03*
X222550807Y-90780000D03*
%TD*%
D48*
%TO.C,U9*%
X234480000Y-83880000D03*
D49*
X233130000Y-83880000D03*
D50*
X232105000Y-83880000D03*
D48*
X230880000Y-83880000D03*
%TD*%
D26*
%TO.C,R4*%
X142455000Y-87920000D03*
X140805000Y-87920000D03*
%TD*%
D23*
%TO.C,C106*%
X226790000Y-103410000D03*
X226790000Y-102450000D03*
%TD*%
D41*
%TO.C,C99*%
X217090000Y-89550000D03*
X218050000Y-89550000D03*
%TD*%
D33*
%TO.C,U45*%
X134360000Y-157605000D03*
X134360000Y-158245000D03*
X134360000Y-158885000D03*
X134360000Y-159525000D03*
X134360000Y-160165000D03*
X134360000Y-160805000D03*
X134360000Y-161445000D03*
X134360000Y-162085000D03*
X134360000Y-162725000D03*
X134360000Y-163365000D03*
X134360000Y-164005000D03*
X134360000Y-164645000D03*
X142500000Y-164645000D03*
X142500000Y-164005000D03*
X142500000Y-163365000D03*
X142500000Y-162725000D03*
X142500000Y-162085000D03*
X142500000Y-161445000D03*
X142500000Y-160805000D03*
X142500000Y-160165000D03*
X142500000Y-159525000D03*
X142500000Y-158885000D03*
X142500000Y-158245000D03*
X142500000Y-157605000D03*
D18*
X136214288Y-161235000D03*
X136220000Y-163205000D03*
X137320000Y-164225000D03*
X137327144Y-161235000D03*
X137332856Y-163205000D03*
X137350000Y-160195000D03*
X137350000Y-162155000D03*
X138504288Y-161235000D03*
X138510000Y-163205000D03*
X139550000Y-163185000D03*
X139560000Y-164215000D03*
X139570000Y-160195000D03*
X139570000Y-162135000D03*
X139571428Y-161235000D03*
X140764288Y-161235000D03*
X140770000Y-163205000D03*
%TD*%
D42*
%TO.C,J11*%
X203050000Y-168080000D03*
%TD*%
D51*
%TO.C,C18*%
X206071100Y-131575000D03*
X199416300Y-131575000D03*
%TD*%
D42*
%TO.C,J10*%
X203050000Y-181770000D03*
%TD*%
D52*
%TO.C,J1*%
X170200000Y-83500000D03*
X162700000Y-83500000D03*
X170200000Y-88500000D03*
X162700000Y-88500000D03*
%TD*%
D47*
%TO.C,R69*%
X237250000Y-144855000D03*
X237250000Y-145875000D03*
%TD*%
D45*
%TO.C,R55*%
X211270000Y-90590000D03*
X211270000Y-89570000D03*
%TD*%
D27*
%TO.C,H5*%
X192930000Y-167770000D03*
%TD*%
D42*
%TO.C,J9*%
X181500000Y-181680000D03*
%TD*%
D53*
%TO.C,U12*%
X223122500Y-88540000D03*
X224522500Y-88540000D03*
%TD*%
D17*
%TO.C,U72*%
X207150000Y-192135000D03*
X207150000Y-191495000D03*
X207150000Y-190855000D03*
X207150000Y-190215000D03*
X207150000Y-189575000D03*
X207150000Y-188935000D03*
X207150000Y-188295000D03*
X207150000Y-187655000D03*
X207150000Y-187015000D03*
X207150000Y-186375000D03*
X207150000Y-185735000D03*
X207150000Y-185095000D03*
X199010000Y-185095000D03*
X199010000Y-185735000D03*
X199010000Y-186375000D03*
X199010000Y-187015000D03*
X199010000Y-187655000D03*
X199010000Y-188295000D03*
X199010000Y-188935000D03*
X199010000Y-189575000D03*
X199010000Y-190215000D03*
X199010000Y-190855000D03*
X199010000Y-191495000D03*
X199010000Y-192135000D03*
D18*
X205295712Y-188505000D03*
X205290000Y-186535000D03*
X204190000Y-185515000D03*
X204182856Y-188505000D03*
X204177144Y-186535000D03*
X204160000Y-189545000D03*
X204160000Y-187585000D03*
X203005712Y-188505000D03*
X203000000Y-186535000D03*
X201960000Y-186555000D03*
X201950000Y-185525000D03*
X201940000Y-189545000D03*
X201940000Y-187605000D03*
X201938572Y-188505000D03*
X200745712Y-188505000D03*
X200740000Y-186535000D03*
%TD*%
D54*
%TO.C,D2*%
X129305000Y-87307600D03*
X129305000Y-85072400D03*
%TD*%
D23*
%TO.C,C24*%
X175135000Y-143405000D03*
X175135000Y-142445000D03*
%TD*%
D55*
%TO.C,L1*%
X150155001Y-127265001D03*
X150155001Y-116835002D03*
D56*
X128080000Y-122050000D03*
%TD*%
D42*
%TO.C,J8*%
X181500000Y-167990000D03*
%TD*%
D41*
%TO.C,C100*%
X219320807Y-90770000D03*
X220280807Y-90770000D03*
%TD*%
D33*
%TO.C,U63*%
X177400000Y-157635000D03*
X177400000Y-158275000D03*
X177400000Y-158915000D03*
X177400000Y-159555000D03*
X177400000Y-160195000D03*
X177400000Y-160835000D03*
X177400000Y-161475000D03*
X177400000Y-162115000D03*
X177400000Y-162755000D03*
X177400000Y-163395000D03*
X177400000Y-164035000D03*
X177400000Y-164675000D03*
X185540000Y-164675000D03*
X185540000Y-164035000D03*
X185540000Y-163395000D03*
X185540000Y-162755000D03*
X185540000Y-162115000D03*
X185540000Y-161475000D03*
X185540000Y-160835000D03*
X185540000Y-160195000D03*
X185540000Y-159555000D03*
X185540000Y-158915000D03*
X185540000Y-158275000D03*
X185540000Y-157635000D03*
D18*
X179254288Y-161265000D03*
X179260000Y-163235000D03*
X180360000Y-164255000D03*
X180367144Y-161265000D03*
X180372856Y-163235000D03*
X180390000Y-160225000D03*
X180390000Y-162185000D03*
X181544288Y-161265000D03*
X181550000Y-163235000D03*
X182590000Y-163215000D03*
X182600000Y-164245000D03*
X182610000Y-160225000D03*
X182610000Y-162165000D03*
X182611428Y-161265000D03*
X183804288Y-161265000D03*
X183810000Y-163235000D03*
%TD*%
D57*
%TO.C,R7*%
X149990000Y-96395000D03*
X149990000Y-98045000D03*
%TD*%
D33*
%TO.C,U64*%
X177400000Y-171315000D03*
X177400000Y-171955000D03*
X177400000Y-172595000D03*
X177400000Y-173235000D03*
X177400000Y-173875000D03*
X177400000Y-174515000D03*
X177400000Y-175155000D03*
X177400000Y-175795000D03*
X177400000Y-176435000D03*
X177400000Y-177075000D03*
X177400000Y-177715000D03*
X177400000Y-178355000D03*
X185540000Y-178355000D03*
X185540000Y-177715000D03*
X185540000Y-177075000D03*
X185540000Y-176435000D03*
X185540000Y-175795000D03*
X185540000Y-175155000D03*
X185540000Y-174515000D03*
X185540000Y-173875000D03*
X185540000Y-173235000D03*
X185540000Y-172595000D03*
X185540000Y-171955000D03*
X185540000Y-171315000D03*
D18*
X179254288Y-174945000D03*
X179260000Y-176915000D03*
X180360000Y-177935000D03*
X180367144Y-174945000D03*
X180372856Y-176915000D03*
X180390000Y-173905000D03*
X180390000Y-175865000D03*
X181544288Y-174945000D03*
X181550000Y-176915000D03*
X182590000Y-176895000D03*
X182600000Y-177925000D03*
X182610000Y-173905000D03*
X182610000Y-175845000D03*
X182611428Y-174945000D03*
X183804288Y-174945000D03*
X183810000Y-176915000D03*
%TD*%
D29*
%TO.C,R31*%
X146825000Y-101250000D03*
X148475000Y-101250000D03*
%TD*%
D23*
%TO.C,C105*%
X225450000Y-103460000D03*
X225450000Y-102500000D03*
%TD*%
D47*
%TO.C,R34*%
X207380000Y-89560000D03*
X207380000Y-90580000D03*
%TD*%
D58*
%TO.C,H2*%
X238000000Y-102000000D03*
%TD*%
D59*
%TO.C,J6*%
X224838700Y-84995000D03*
X219058700Y-84995000D03*
D60*
X225148700Y-86095000D03*
D61*
X224348700Y-86070000D03*
D62*
X223198700Y-86070000D03*
X222198700Y-86070000D03*
X221698700Y-86070000D03*
X220698700Y-86070000D03*
D60*
X218748700Y-86095000D03*
D61*
X219548700Y-86070000D03*
D62*
X220198700Y-86070000D03*
X221198700Y-86070000D03*
X222698700Y-86070000D03*
X223698700Y-86070000D03*
D63*
X226268700Y-85495000D03*
D64*
X226268700Y-81315000D03*
D63*
X217628700Y-85495000D03*
D64*
X217628700Y-81315000D03*
%TD*%
D65*
%TO.C,C90*%
X229843700Y-92550000D03*
X229843700Y-93510000D03*
%TD*%
%TO.C,C96*%
X223670807Y-104850000D03*
X223670807Y-105810000D03*
%TD*%
D36*
%TO.C,R70*%
X221770000Y-144510000D03*
X222790000Y-144510000D03*
%TD*%
D66*
%TO.C,J19*%
X155350000Y-133490000D03*
X154080000Y-134760000D03*
X156620000Y-134760000D03*
X154080000Y-132220000D03*
X156620000Y-132220000D03*
%TD*%
D17*
%TO.C,U73*%
X207150000Y-178445000D03*
X207150000Y-177805000D03*
X207150000Y-177165000D03*
X207150000Y-176525000D03*
X207150000Y-175885000D03*
X207150000Y-175245000D03*
X207150000Y-174605000D03*
X207150000Y-173965000D03*
X207150000Y-173325000D03*
X207150000Y-172685000D03*
X207150000Y-172045000D03*
X207150000Y-171405000D03*
X199010000Y-171405000D03*
X199010000Y-172045000D03*
X199010000Y-172685000D03*
X199010000Y-173325000D03*
X199010000Y-173965000D03*
X199010000Y-174605000D03*
X199010000Y-175245000D03*
X199010000Y-175885000D03*
X199010000Y-176525000D03*
X199010000Y-177165000D03*
X199010000Y-177805000D03*
X199010000Y-178445000D03*
D18*
X205295712Y-174815000D03*
X205290000Y-172845000D03*
X204190000Y-171825000D03*
X204182856Y-174815000D03*
X204177144Y-172845000D03*
X204160000Y-175855000D03*
X204160000Y-173895000D03*
X203005712Y-174815000D03*
X203000000Y-172845000D03*
X201960000Y-172865000D03*
X201950000Y-171835000D03*
X201940000Y-175855000D03*
X201940000Y-173915000D03*
X201938572Y-174815000D03*
X200745712Y-174815000D03*
X200740000Y-172845000D03*
%TD*%
D67*
%TO.C,U8*%
X214265207Y-90829998D03*
X214265207Y-91329999D03*
X214265207Y-91829999D03*
X214265207Y-92330000D03*
X217160807Y-92330000D03*
X217160807Y-91829999D03*
X217160807Y-91329999D03*
X217160807Y-90829998D03*
D68*
X215713007Y-91579999D03*
%TD*%
D69*
%TO.C,U11*%
X221547500Y-88530000D03*
X220147500Y-88530000D03*
%TD*%
D22*
%TO.C,C34*%
X162275000Y-93325000D03*
X162275000Y-91425000D03*
%TD*%
D29*
%TO.C,R25*%
X140805000Y-86310000D03*
X142455000Y-86310000D03*
%TD*%
D23*
%TO.C,C21*%
X230300000Y-139840000D03*
X230300000Y-138880000D03*
%TD*%
D70*
%TO.C,U13*%
X226330000Y-144279999D03*
D71*
X226280000Y-144780000D03*
X226280000Y-145280000D03*
X226280000Y-145780001D03*
X227980002Y-145780001D03*
X227980002Y-145280000D03*
X227980002Y-144780000D03*
X227980002Y-144279999D03*
%TD*%
D32*
%TO.C,C104*%
X227900000Y-93870000D03*
X226940000Y-93870000D03*
%TD*%
D30*
%TO.C,Q2*%
X155990000Y-116475002D03*
X157260000Y-116475002D03*
X158530000Y-116475002D03*
X159800000Y-116475002D03*
X159800000Y-110885000D03*
X158530000Y-110885000D03*
X157260000Y-110885000D03*
X155990000Y-110885000D03*
%TD*%
D32*
%TO.C,C108*%
X227323700Y-92400000D03*
X226363700Y-92400000D03*
%TD*%
D43*
%TO.C,J15*%
X163790000Y-152310000D03*
%TD*%
D45*
%TO.C,R51*%
X228188700Y-83910000D03*
X228188700Y-82890000D03*
%TD*%
D17*
%TO.C,U56*%
X164110000Y-164675000D03*
X164110000Y-164035000D03*
X164110000Y-163395000D03*
X164110000Y-162755000D03*
X164110000Y-162115000D03*
X164110000Y-161475000D03*
X164110000Y-160835000D03*
X164110000Y-160195000D03*
X164110000Y-159555000D03*
X164110000Y-158915000D03*
X164110000Y-158275000D03*
X164110000Y-157635000D03*
X155970000Y-157635000D03*
X155970000Y-158275000D03*
X155970000Y-158915000D03*
X155970000Y-159555000D03*
X155970000Y-160195000D03*
X155970000Y-160835000D03*
X155970000Y-161475000D03*
X155970000Y-162115000D03*
X155970000Y-162755000D03*
X155970000Y-163395000D03*
X155970000Y-164035000D03*
X155970000Y-164675000D03*
D18*
X162255712Y-161045000D03*
X162250000Y-159075000D03*
X161150000Y-158055000D03*
X161142856Y-161045000D03*
X161137144Y-159075000D03*
X161120000Y-162085000D03*
X161120000Y-160125000D03*
X159965712Y-161045000D03*
X159960000Y-159075000D03*
X158920000Y-159095000D03*
X158910000Y-158065000D03*
X158900000Y-162085000D03*
X158900000Y-160145000D03*
X158898572Y-161045000D03*
X157705712Y-161045000D03*
X157700000Y-159075000D03*
%TD*%
D41*
%TO.C,C109*%
X215330807Y-94405000D03*
X216290807Y-94405000D03*
%TD*%
D72*
%TO.C,C4*%
X198240000Y-101141200D03*
X198240000Y-108050000D03*
%TD*%
D29*
%TO.C,R26*%
X146675000Y-94790000D03*
X148325000Y-94790000D03*
%TD*%
D73*
%TO.C,R10*%
X205066600Y-121280000D03*
X195973400Y-121280000D03*
%TD*%
D42*
%TO.C,J5*%
X159990000Y-181670000D03*
%TD*%
D74*
%TO.C,D5*%
X232072500Y-87300000D03*
X236372500Y-87300000D03*
%TD*%
D37*
%TO.C,C35*%
X171100000Y-91200000D03*
X171100000Y-93100000D03*
%TD*%
D36*
%TO.C,R22*%
X229610000Y-96780000D03*
X230630000Y-96780000D03*
%TD*%
D29*
%TO.C,R3*%
X140805000Y-91610000D03*
X142455000Y-91610000D03*
%TD*%
D34*
%TO.C,C28*%
X161640000Y-111420000D03*
X163540000Y-111420000D03*
%TD*%
D27*
%TO.C,H10*%
X148930000Y-181770000D03*
%TD*%
D44*
%TO.C,C2*%
X125690000Y-95810000D03*
X123790000Y-95810000D03*
%TD*%
D72*
%TO.C,C1*%
X166550000Y-101199100D03*
X166550000Y-108107900D03*
%TD*%
D42*
%TO.C,J7*%
X160000000Y-167990000D03*
%TD*%
D44*
%TO.C,C10*%
X134920000Y-100450000D03*
X133020000Y-100450000D03*
%TD*%
D26*
%TO.C,R2*%
X125795000Y-92150000D03*
X124145000Y-92150000D03*
%TD*%
D37*
%TO.C,C13*%
X129313949Y-94574843D03*
X129313949Y-96474843D03*
%TD*%
D23*
%TO.C,C102*%
X225100807Y-105800000D03*
X225100807Y-104840000D03*
%TD*%
D27*
%TO.C,H7*%
X170930000Y-167770000D03*
%TD*%
D75*
%TO.C,U2*%
X150928949Y-93196051D03*
X151578949Y-93196051D03*
X152228949Y-93196051D03*
X152878949Y-93196051D03*
X152878949Y-88896051D03*
X152228949Y-88896051D03*
X151578949Y-88896051D03*
X150928949Y-88896051D03*
%TD*%
D41*
%TO.C,C110*%
X219320807Y-89770000D03*
X220280807Y-89770000D03*
%TD*%
D76*
%TO.C,U1*%
X132263949Y-95681049D03*
X132763949Y-95681049D03*
X133263949Y-95681049D03*
X133763949Y-95681049D03*
X134263949Y-95681049D03*
X134763949Y-95681049D03*
X135263949Y-95681049D03*
X135763949Y-95681049D03*
D77*
X136413949Y-95031049D03*
X136413949Y-94531049D03*
X136413949Y-94031049D03*
X136413949Y-93531049D03*
X136413949Y-93031049D03*
X136413949Y-92531049D03*
X136413949Y-92031049D03*
X136413949Y-91531049D03*
D76*
X135763949Y-90881049D03*
X135263949Y-90881049D03*
X134763949Y-90881049D03*
X134263949Y-90881049D03*
X133763949Y-90881049D03*
X133263949Y-90881049D03*
X132763949Y-90881049D03*
X132263949Y-90881049D03*
D77*
X131613949Y-91531049D03*
X131613949Y-92031049D03*
X131613949Y-92531049D03*
X131613949Y-93031049D03*
X131613949Y-93531049D03*
X131613949Y-94031049D03*
X131613949Y-94531049D03*
X131613949Y-95031049D03*
D78*
X134013949Y-93281049D03*
%TD*%
D44*
%TO.C,C29*%
X202360000Y-110570000D03*
X200460000Y-110570000D03*
%TD*%
D28*
%TO.C,R19*%
X213550000Y-99430000D03*
X212530000Y-99430000D03*
%TD*%
D36*
%TO.C,R61*%
X221780000Y-145580000D03*
X222800000Y-145580000D03*
%TD*%
D34*
%TO.C,C8*%
X140900000Y-89770000D03*
X142800000Y-89770000D03*
%TD*%
D44*
%TO.C,C12*%
X142815000Y-93450000D03*
X140915000Y-93450000D03*
%TD*%
D74*
%TO.C,D4*%
X177900000Y-137725000D03*
X182200000Y-137725000D03*
%TD*%
D29*
%TO.C,R1*%
X124155000Y-93840000D03*
X125805000Y-93840000D03*
%TD*%
D73*
%TO.C,R8*%
X156763400Y-121280000D03*
X165856600Y-121280000D03*
%TD*%
D37*
%TO.C,C19*%
X147980000Y-90260000D03*
X147980000Y-92160000D03*
%TD*%
D58*
%TO.C,H1*%
X122000000Y-199000000D03*
%TD*%
%TO.C,H4*%
X122000000Y-102000000D03*
%TD*%
D22*
%TO.C,C6*%
X136460000Y-86110000D03*
X136460000Y-84210000D03*
%TD*%
D32*
%TO.C,C103*%
X227850000Y-98630000D03*
X226890000Y-98630000D03*
%TD*%
D47*
%TO.C,R54*%
X223650807Y-89760000D03*
X223650807Y-90780000D03*
%TD*%
D41*
%TO.C,C32*%
X226740000Y-143290000D03*
X227700000Y-143290000D03*
%TD*%
D36*
%TO.C,R11*%
X153090000Y-87290000D03*
X154110000Y-87290000D03*
%TD*%
D37*
%TO.C,C14*%
X132440000Y-84190000D03*
X132440000Y-86090000D03*
%TD*%
D52*
%TO.C,J2*%
X190766378Y-83500000D03*
X183266378Y-83500000D03*
X190766378Y-88500000D03*
X183266378Y-88500000D03*
%TD*%
D79*
%TO.C,Q3*%
X210410000Y-108720000D03*
X210410000Y-107450000D03*
X210410000Y-106180000D03*
X210410000Y-104910000D03*
X204819998Y-104910000D03*
X204819998Y-106180000D03*
X204819998Y-107450000D03*
X204819998Y-108720000D03*
%TD*%
D41*
%TO.C,C25*%
X175840000Y-94975000D03*
X176800000Y-94975000D03*
%TD*%
D34*
%TO.C,C26*%
X178200000Y-134250000D03*
X180100000Y-134250000D03*
%TD*%
D36*
%TO.C,R21*%
X227350000Y-96780000D03*
X228370000Y-96780000D03*
%TD*%
D29*
%TO.C,R33*%
X124150000Y-90450000D03*
X125800000Y-90450000D03*
%TD*%
D79*
%TO.C,Q1*%
X155003946Y-104968949D03*
X155003946Y-106238949D03*
X155003946Y-107508949D03*
X155003946Y-108778949D03*
X160593948Y-108778949D03*
X160593948Y-107508949D03*
X160593948Y-106238949D03*
X160593948Y-104968949D03*
%TD*%
D80*
%TO.C,U3*%
X160488949Y-93161449D03*
X159838949Y-93161449D03*
X159188949Y-93161449D03*
X158538949Y-93161449D03*
X157888949Y-93161449D03*
X157238949Y-93161449D03*
X156588949Y-93161449D03*
X155938949Y-93161449D03*
X155938949Y-98886449D03*
X156588949Y-98886449D03*
X157238949Y-98886449D03*
X157888949Y-98886449D03*
X158538949Y-98886449D03*
X159188949Y-98886449D03*
X159838949Y-98886449D03*
X160488949Y-98886449D03*
%TD*%
D23*
%TO.C,C98*%
X238138700Y-93720000D03*
X238138700Y-92760000D03*
%TD*%
D29*
%TO.C,R32*%
X143600000Y-103700000D03*
X145250000Y-103700000D03*
%TD*%
%TO.C,R24*%
X146820000Y-99690000D03*
X148470000Y-99690000D03*
%TD*%
D43*
%TO.C,J21*%
X199210000Y-152510000D03*
%TD*%
D72*
%TO.C,C3*%
X175660000Y-101181200D03*
X175660000Y-108090000D03*
%TD*%
D27*
%TO.C,H9*%
X148930000Y-167770000D03*
%TD*%
D58*
%TO.C,H3*%
X238000000Y-199000000D03*
%TD*%
D55*
%TO.C,L2*%
X212913699Y-116809999D03*
X212913699Y-127239998D03*
D56*
X234988700Y-122025000D03*
%TD*%
D47*
%TO.C,R50*%
X212630000Y-89560000D03*
X212630000Y-90580000D03*
%TD*%
D81*
%TO.C,U6*%
X181125000Y-143050000D03*
X181125000Y-142400000D03*
X181125000Y-141750000D03*
X181125000Y-141100000D03*
X176825000Y-141100000D03*
X176825000Y-141750000D03*
X176825000Y-142400000D03*
X176825000Y-143050000D03*
%TD*%
D23*
%TO.C,C97*%
X218900807Y-104665000D03*
X218900807Y-103705000D03*
%TD*%
D29*
%TO.C,R29*%
X152625000Y-99350000D03*
X154275000Y-99350000D03*
%TD*%
D82*
%TO.C,U7*%
X174125000Y-96775000D03*
X174125000Y-95825000D03*
X174125000Y-94875000D03*
X171850000Y-94875000D03*
X171850000Y-95825000D03*
X171850000Y-96775000D03*
%TD*%
D43*
%TO.C,J14*%
X177710000Y-152310000D03*
%TD*%
D46*
%TO.C,SW1*%
X212210000Y-88100000D03*
X212210000Y-83990000D03*
%TD*%
M02*
