%TF.GenerationSoftware,KiCad,Pcbnew,8.0.5*%
%TF.CreationDate,2024-12-31T15:17:49-08:00*%
%TF.ProjectId,emberone,656d6265-726f-46e6-952e-6b696361645f,rev?*%
%TF.SameCoordinates,Original*%
%TF.FileFunction,Copper,L2,Inr*%
%TF.FilePolarity,Positive*%
%FSLAX46Y46*%
G04 Gerber Fmt 4.6, Leading zero omitted, Abs format (unit mm)*
G04 Created by KiCad (PCBNEW 8.0.5) date 2024-12-31 15:17:49*
%MOMM*%
%LPD*%
G01*
G04 APERTURE LIST*
%TA.AperFunction,ComponentPad*%
%ADD10C,0.540000*%
%TD*%
%TA.AperFunction,ComponentPad*%
%ADD11C,6.400000*%
%TD*%
%TA.AperFunction,ComponentPad*%
%ADD12C,3.200000*%
%TD*%
%TA.AperFunction,ComponentPad*%
%ADD13O,1.000000X2.100000*%
%TD*%
%TA.AperFunction,ComponentPad*%
%ADD14O,1.000000X1.800000*%
%TD*%
%TA.AperFunction,ViaPad*%
%ADD15C,0.500000*%
%TD*%
%TA.AperFunction,ViaPad*%
%ADD16C,0.800000*%
%TD*%
%TA.AperFunction,ViaPad*%
%ADD17C,1.000000*%
%TD*%
G04 APERTURE END LIST*
D10*
%TO.N,/stack5/GND1*%
%TO.C,U55*%
X162910000Y-174685000D03*
X162908000Y-172815000D03*
X162328000Y-174685000D03*
X162326000Y-172815000D03*
X161746000Y-174685000D03*
X161744000Y-172815000D03*
X161164000Y-174685000D03*
X161162000Y-172815000D03*
X161110000Y-175915000D03*
X161110000Y-175295000D03*
X161110000Y-174061668D03*
X161110000Y-173445002D03*
X161110000Y-172211670D03*
X161110000Y-171595000D03*
X160582000Y-174685000D03*
X160580000Y-172815000D03*
X160000000Y-174685000D03*
X159998000Y-172815000D03*
X159418000Y-174685000D03*
X159416000Y-172815000D03*
X158890000Y-175305000D03*
X158890000Y-174071668D03*
X158890000Y-173455002D03*
X158890000Y-172221670D03*
X158890000Y-171605000D03*
X158880000Y-175925000D03*
X158836000Y-174685000D03*
X158834000Y-172815000D03*
X158254000Y-174685000D03*
X158252000Y-172815000D03*
X157672000Y-174685000D03*
X157670000Y-172815000D03*
X157090000Y-174685000D03*
X157088000Y-172815000D03*
%TD*%
%TO.N,/stack6/GND2*%
%TO.C,U65*%
X178580000Y-188675000D03*
X178582000Y-190545000D03*
X179162000Y-188675000D03*
X179164000Y-190545000D03*
X179744000Y-188675000D03*
X179746000Y-190545000D03*
X180326000Y-188675000D03*
X180328000Y-190545000D03*
X180380000Y-187445000D03*
X180380000Y-188065000D03*
X180380000Y-189298332D03*
X180380000Y-189914998D03*
X180380000Y-191148330D03*
X180380000Y-191765000D03*
X180908000Y-188675000D03*
X180910000Y-190545000D03*
X181490000Y-188675000D03*
X181492000Y-190545000D03*
X182072000Y-188675000D03*
X182074000Y-190545000D03*
X182600000Y-188055000D03*
X182600000Y-189288332D03*
X182600000Y-189904998D03*
X182600000Y-191138330D03*
X182600000Y-191755000D03*
X182610000Y-187435000D03*
X182654000Y-188675000D03*
X182656000Y-190545000D03*
X183236000Y-188675000D03*
X183238000Y-190545000D03*
X183818000Y-188675000D03*
X183820000Y-190545000D03*
X184400000Y-188675000D03*
X184402000Y-190545000D03*
%TD*%
%TO.N,/stack4/GND2*%
%TO.C,U47*%
X135540000Y-188645000D03*
X135542000Y-190515000D03*
X136122000Y-188645000D03*
X136124000Y-190515000D03*
X136704000Y-188645000D03*
X136706000Y-190515000D03*
X137286000Y-188645000D03*
X137288000Y-190515000D03*
X137340000Y-187415000D03*
X137340000Y-188035000D03*
X137340000Y-189268332D03*
X137340000Y-189884998D03*
X137340000Y-191118330D03*
X137340000Y-191735000D03*
X137868000Y-188645000D03*
X137870000Y-190515000D03*
X138450000Y-188645000D03*
X138452000Y-190515000D03*
X139032000Y-188645000D03*
X139034000Y-190515000D03*
X139560000Y-188025000D03*
X139560000Y-189258332D03*
X139560000Y-189874998D03*
X139560000Y-191108330D03*
X139560000Y-191725000D03*
X139570000Y-187405000D03*
X139614000Y-188645000D03*
X139616000Y-190515000D03*
X140196000Y-188645000D03*
X140198000Y-190515000D03*
X140778000Y-188645000D03*
X140780000Y-190515000D03*
X141360000Y-188645000D03*
X141362000Y-190515000D03*
%TD*%
%TO.N,GND*%
%TO.C,U74*%
X205970000Y-161095000D03*
X205968000Y-159225000D03*
X205388000Y-161095000D03*
X205386000Y-159225000D03*
X204806000Y-161095000D03*
X204804000Y-159225000D03*
X204224000Y-161095000D03*
X204222000Y-159225000D03*
X204170000Y-162325000D03*
X204170000Y-161705000D03*
X204170000Y-160471668D03*
X204170000Y-159855002D03*
X204170000Y-158621670D03*
X204170000Y-158005000D03*
X203642000Y-161095000D03*
X203640000Y-159225000D03*
X203060000Y-161095000D03*
X203058000Y-159225000D03*
X202478000Y-161095000D03*
X202476000Y-159225000D03*
X201950000Y-161715000D03*
X201950000Y-160481668D03*
X201950000Y-159865002D03*
X201950000Y-158631670D03*
X201950000Y-158015000D03*
X201940000Y-162335000D03*
X201896000Y-161095000D03*
X201894000Y-159225000D03*
X201314000Y-161095000D03*
X201312000Y-159225000D03*
X200732000Y-161095000D03*
X200730000Y-159225000D03*
X200150000Y-161095000D03*
X200148000Y-159225000D03*
%TD*%
%TO.N,/stack5/GND0*%
%TO.C,U54*%
X162910000Y-188355000D03*
X162908000Y-186485000D03*
X162328000Y-188355000D03*
X162326000Y-186485000D03*
X161746000Y-188355000D03*
X161744000Y-186485000D03*
X161164000Y-188355000D03*
X161162000Y-186485000D03*
X161110000Y-189585000D03*
X161110000Y-188965000D03*
X161110000Y-187731668D03*
X161110000Y-187115002D03*
X161110000Y-185881670D03*
X161110000Y-185265000D03*
X160582000Y-188355000D03*
X160580000Y-186485000D03*
X160000000Y-188355000D03*
X159998000Y-186485000D03*
X159418000Y-188355000D03*
X159416000Y-186485000D03*
X158890000Y-188975000D03*
X158890000Y-187741668D03*
X158890000Y-187125002D03*
X158890000Y-185891670D03*
X158890000Y-185275000D03*
X158880000Y-189595000D03*
X158836000Y-188355000D03*
X158834000Y-186485000D03*
X158254000Y-188355000D03*
X158252000Y-186485000D03*
X157672000Y-188355000D03*
X157670000Y-186485000D03*
X157090000Y-188355000D03*
X157088000Y-186485000D03*
%TD*%
%TO.N,/stack4/GND1*%
%TO.C,U46*%
X135540000Y-174965000D03*
X135542000Y-176835000D03*
X136122000Y-174965000D03*
X136124000Y-176835000D03*
X136704000Y-174965000D03*
X136706000Y-176835000D03*
X137286000Y-174965000D03*
X137288000Y-176835000D03*
X137340000Y-173735000D03*
X137340000Y-174355000D03*
X137340000Y-175588332D03*
X137340000Y-176204998D03*
X137340000Y-177438330D03*
X137340000Y-178055000D03*
X137868000Y-174965000D03*
X137870000Y-176835000D03*
X138450000Y-174965000D03*
X138452000Y-176835000D03*
X139032000Y-174965000D03*
X139034000Y-176835000D03*
X139560000Y-174345000D03*
X139560000Y-175578332D03*
X139560000Y-176194998D03*
X139560000Y-177428330D03*
X139560000Y-178045000D03*
X139570000Y-173725000D03*
X139614000Y-174965000D03*
X139616000Y-176835000D03*
X140196000Y-174965000D03*
X140198000Y-176835000D03*
X140778000Y-174965000D03*
X140780000Y-176835000D03*
X141360000Y-174965000D03*
X141362000Y-176835000D03*
%TD*%
%TO.N,/stack4/GND0*%
%TO.C,U45*%
X135540000Y-161275000D03*
X135542000Y-163145000D03*
X136122000Y-161275000D03*
X136124000Y-163145000D03*
X136704000Y-161275000D03*
X136706000Y-163145000D03*
X137286000Y-161275000D03*
X137288000Y-163145000D03*
X137340000Y-160045000D03*
X137340000Y-160665000D03*
X137340000Y-161898332D03*
X137340000Y-162514998D03*
X137340000Y-163748330D03*
X137340000Y-164365000D03*
X137868000Y-161275000D03*
X137870000Y-163145000D03*
X138450000Y-161275000D03*
X138452000Y-163145000D03*
X139032000Y-161275000D03*
X139034000Y-163145000D03*
X139560000Y-160655000D03*
X139560000Y-161888332D03*
X139560000Y-162504998D03*
X139560000Y-163738330D03*
X139560000Y-164355000D03*
X139570000Y-160035000D03*
X139614000Y-161275000D03*
X139616000Y-163145000D03*
X140196000Y-161275000D03*
X140198000Y-163145000D03*
X140778000Y-161275000D03*
X140780000Y-163145000D03*
X141360000Y-161275000D03*
X141362000Y-163145000D03*
%TD*%
%TO.N,/stack7/GND0*%
%TO.C,U72*%
X205970000Y-188465000D03*
X205968000Y-186595000D03*
X205388000Y-188465000D03*
X205386000Y-186595000D03*
X204806000Y-188465000D03*
X204804000Y-186595000D03*
X204224000Y-188465000D03*
X204222000Y-186595000D03*
X204170000Y-189695000D03*
X204170000Y-189075000D03*
X204170000Y-187841668D03*
X204170000Y-187225002D03*
X204170000Y-185991670D03*
X204170000Y-185375000D03*
X203642000Y-188465000D03*
X203640000Y-186595000D03*
X203060000Y-188465000D03*
X203058000Y-186595000D03*
X202478000Y-188465000D03*
X202476000Y-186595000D03*
X201950000Y-189085000D03*
X201950000Y-187851668D03*
X201950000Y-187235002D03*
X201950000Y-186001670D03*
X201950000Y-185385000D03*
X201940000Y-189705000D03*
X201896000Y-188465000D03*
X201894000Y-186595000D03*
X201314000Y-188465000D03*
X201312000Y-186595000D03*
X200732000Y-188465000D03*
X200730000Y-186595000D03*
X200150000Y-188465000D03*
X200148000Y-186595000D03*
%TD*%
%TO.N,/stack6/GND0*%
%TO.C,U63*%
X178580000Y-161305000D03*
X178582000Y-163175000D03*
X179162000Y-161305000D03*
X179164000Y-163175000D03*
X179744000Y-161305000D03*
X179746000Y-163175000D03*
X180326000Y-161305000D03*
X180328000Y-163175000D03*
X180380000Y-160075000D03*
X180380000Y-160695000D03*
X180380000Y-161928332D03*
X180380000Y-162544998D03*
X180380000Y-163778330D03*
X180380000Y-164395000D03*
X180908000Y-161305000D03*
X180910000Y-163175000D03*
X181490000Y-161305000D03*
X181492000Y-163175000D03*
X182072000Y-161305000D03*
X182074000Y-163175000D03*
X182600000Y-160685000D03*
X182600000Y-161918332D03*
X182600000Y-162534998D03*
X182600000Y-163768330D03*
X182600000Y-164385000D03*
X182610000Y-160065000D03*
X182654000Y-161305000D03*
X182656000Y-163175000D03*
X183236000Y-161305000D03*
X183238000Y-163175000D03*
X183818000Y-161305000D03*
X183820000Y-163175000D03*
X184400000Y-161305000D03*
X184402000Y-163175000D03*
%TD*%
%TO.N,/stack6/GND1*%
%TO.C,U64*%
X178580000Y-174985000D03*
X178582000Y-176855000D03*
X179162000Y-174985000D03*
X179164000Y-176855000D03*
X179744000Y-174985000D03*
X179746000Y-176855000D03*
X180326000Y-174985000D03*
X180328000Y-176855000D03*
X180380000Y-173755000D03*
X180380000Y-174375000D03*
X180380000Y-175608332D03*
X180380000Y-176224998D03*
X180380000Y-177458330D03*
X180380000Y-178075000D03*
X180908000Y-174985000D03*
X180910000Y-176855000D03*
X181490000Y-174985000D03*
X181492000Y-176855000D03*
X182072000Y-174985000D03*
X182074000Y-176855000D03*
X182600000Y-174365000D03*
X182600000Y-175598332D03*
X182600000Y-176214998D03*
X182600000Y-177448330D03*
X182600000Y-178065000D03*
X182610000Y-173745000D03*
X182654000Y-174985000D03*
X182656000Y-176855000D03*
X183236000Y-174985000D03*
X183238000Y-176855000D03*
X183818000Y-174985000D03*
X183820000Y-176855000D03*
X184400000Y-174985000D03*
X184402000Y-176855000D03*
%TD*%
%TO.N,/stack7/GND1*%
%TO.C,U73*%
X205970000Y-174775000D03*
X205968000Y-172905000D03*
X205388000Y-174775000D03*
X205386000Y-172905000D03*
X204806000Y-174775000D03*
X204804000Y-172905000D03*
X204224000Y-174775000D03*
X204222000Y-172905000D03*
X204170000Y-176005000D03*
X204170000Y-175385000D03*
X204170000Y-174151668D03*
X204170000Y-173535002D03*
X204170000Y-172301670D03*
X204170000Y-171685000D03*
X203642000Y-174775000D03*
X203640000Y-172905000D03*
X203060000Y-174775000D03*
X203058000Y-172905000D03*
X202478000Y-174775000D03*
X202476000Y-172905000D03*
X201950000Y-175395000D03*
X201950000Y-174161668D03*
X201950000Y-173545002D03*
X201950000Y-172311670D03*
X201950000Y-171695000D03*
X201940000Y-176015000D03*
X201896000Y-174775000D03*
X201894000Y-172905000D03*
X201314000Y-174775000D03*
X201312000Y-172905000D03*
X200732000Y-174775000D03*
X200730000Y-172905000D03*
X200150000Y-174775000D03*
X200148000Y-172905000D03*
%TD*%
%TO.N,/stack5/GND2*%
%TO.C,U56*%
X162930000Y-161005000D03*
X162928000Y-159135000D03*
X162348000Y-161005000D03*
X162346000Y-159135000D03*
X161766000Y-161005000D03*
X161764000Y-159135000D03*
X161184000Y-161005000D03*
X161182000Y-159135000D03*
X161130000Y-162235000D03*
X161130000Y-161615000D03*
X161130000Y-160381668D03*
X161130000Y-159765002D03*
X161130000Y-158531670D03*
X161130000Y-157915000D03*
X160602000Y-161005000D03*
X160600000Y-159135000D03*
X160020000Y-161005000D03*
X160018000Y-159135000D03*
X159438000Y-161005000D03*
X159436000Y-159135000D03*
X158910000Y-161625000D03*
X158910000Y-160391668D03*
X158910000Y-159775002D03*
X158910000Y-158541670D03*
X158910000Y-157925000D03*
X158900000Y-162245000D03*
X158856000Y-161005000D03*
X158854000Y-159135000D03*
X158274000Y-161005000D03*
X158272000Y-159135000D03*
X157692000Y-161005000D03*
X157690000Y-159135000D03*
X157110000Y-161005000D03*
X157108000Y-159135000D03*
%TD*%
D11*
%TO.N,unconnected-(H6-Pad1)*%
%TO.C,H6*%
X192930000Y-181770000D03*
%TD*%
%TO.N,unconnected-(H8-Pad1)*%
%TO.C,H8*%
X170930000Y-181770000D03*
%TD*%
D12*
%TO.N,/Power/VIN*%
%TO.C,J1*%
X164295549Y-85250000D03*
X164295549Y-92250000D03*
X169295549Y-85250000D03*
X169295549Y-92250000D03*
%TD*%
D11*
%TO.N,unconnected-(H5-Pad1)*%
%TO.C,H5*%
X192930000Y-167770000D03*
%TD*%
D13*
%TO.N,GND*%
%TO.C,J6*%
X219300000Y-89535000D03*
D14*
X219300000Y-85355000D03*
D13*
X210660000Y-89535000D03*
D14*
X210660000Y-85355000D03*
%TD*%
D11*
%TO.N,unconnected-(H10-Pad1)*%
%TO.C,H10*%
X148930000Y-181770000D03*
%TD*%
%TO.N,unconnected-(H7-Pad1)*%
%TO.C,H7*%
X170930000Y-167770000D03*
%TD*%
D12*
%TO.N,GND*%
%TO.C,J2*%
X185805549Y-85250000D03*
X185805549Y-92250000D03*
X190805549Y-85250000D03*
X190805549Y-92250000D03*
%TD*%
D11*
%TO.N,unconnected-(H9-Pad1)*%
%TO.C,H9*%
X148930000Y-167770000D03*
%TD*%
D15*
%TO.N,Net-(U72-NRSTI)*%
X211500000Y-190000000D03*
%TO.N,Net-(U45-CI)*%
X145800000Y-164950000D03*
%TO.N,Net-(U64-NRSTI)*%
X174000000Y-178725000D03*
%TO.N,/stack4/GND2*%
X164338000Y-196342000D03*
%TO.N,/stack6/GND2*%
X207518000Y-197104000D03*
%TO.N,/stack5/GND2*%
X185674000Y-152908000D03*
%TO.N,/stack5/0V8-2*%
X150512500Y-159000000D03*
%TO.N,Net-(U55-CI)*%
X151680000Y-158810000D03*
%TO.N,Net-(U55-CLKI)*%
X151700000Y-159810000D03*
%TO.N,Net-(U55-RO)*%
X151700000Y-160840000D03*
%TO.N,Net-(U55-BI)*%
X151660000Y-161870000D03*
%TO.N,Net-(U55-NRSTI)*%
X151640000Y-162870000D03*
%TO.N,Net-(U56-CO)*%
X154350000Y-158820000D03*
%TO.N,Net-(U56-CLKO)*%
X154820000Y-161820000D03*
%TO.N,Net-(U56-RI)*%
X154700000Y-163200000D03*
%TO.N,Net-(U56-BO)*%
X154040000Y-163980000D03*
%TO.N,Net-(U56-NRSTO)*%
X153140000Y-163840000D03*
%TO.N,Net-(U55-NRSTI)*%
X154620000Y-166260000D03*
%TO.N,Net-(U27-GPIO1)*%
X232800000Y-85070000D03*
D16*
%TO.N,GND*%
X222660000Y-94780000D03*
D17*
X230970000Y-91130000D03*
X232375000Y-91135000D03*
%TO.N,/3V3*%
X226930000Y-93330000D03*
X226930000Y-94930000D03*
D15*
%TO.N,GND*%
X225140000Y-99630000D03*
X132913949Y-93291049D03*
X135050000Y-92220000D03*
X214480000Y-99550000D03*
D16*
X154150000Y-88260000D03*
D15*
X208060000Y-96740000D03*
D16*
X157951600Y-89788400D03*
D15*
X215900000Y-99550000D03*
X132910000Y-94430000D03*
X198230000Y-165000000D03*
X132910000Y-92220000D03*
X122405000Y-179190000D03*
D16*
X157711600Y-99268400D03*
D15*
X135053949Y-93291049D03*
D16*
X131700000Y-101200000D03*
D15*
X207360000Y-97785000D03*
D16*
X138430000Y-100680000D03*
D15*
X143490000Y-91150000D03*
X220860000Y-94490000D03*
X216600000Y-107230000D03*
X213980000Y-102940000D03*
D16*
X122890000Y-92130000D03*
D15*
X219530000Y-107230000D03*
D16*
X122330000Y-95850000D03*
D15*
X215200000Y-100377500D03*
X218200000Y-109960000D03*
X214470000Y-101220000D03*
D16*
X152800000Y-94695200D03*
D15*
X134010000Y-92210000D03*
X212100000Y-108940000D03*
X135050000Y-94430000D03*
X134013949Y-93281049D03*
X211500000Y-93140000D03*
X228060000Y-86210000D03*
X215890000Y-101220000D03*
X222010000Y-102360000D03*
X230240000Y-150730000D03*
X204380000Y-146280000D03*
X220870000Y-95540000D03*
X234740000Y-179440000D03*
D16*
X147980000Y-93270000D03*
D15*
X122565000Y-170505000D03*
X218230000Y-107280000D03*
X151080000Y-98820000D03*
X134010000Y-94420000D03*
X222850000Y-97780000D03*
X209030000Y-164830000D03*
D16*
X140200000Y-84200000D03*
D15*
X208440000Y-99670000D03*
D16*
X130870000Y-84420000D03*
D15*
X208420000Y-92840000D03*
D17*
%TO.N,/Power/VIN_M*%
X167990000Y-103730000D03*
X194920000Y-108410000D03*
X199080000Y-102770000D03*
X169390000Y-102290000D03*
X193440000Y-102780000D03*
X165270000Y-102290000D03*
X166640000Y-102290000D03*
X162170000Y-102300000D03*
X169380000Y-103730000D03*
D15*
X146470000Y-99730000D03*
D17*
X165260000Y-103730000D03*
D15*
X127968951Y-93531049D03*
D17*
X163763949Y-106473949D03*
X194920000Y-102780000D03*
X196280000Y-101190000D03*
X162170000Y-105103949D03*
X193440000Y-101190000D03*
X168000000Y-102290000D03*
X197670000Y-102780000D03*
X166630000Y-103730000D03*
X193440000Y-104290000D03*
X199080000Y-101180000D03*
X193440000Y-108410000D03*
X197670000Y-101190000D03*
X163763949Y-102300000D03*
X163763949Y-105103949D03*
X194920000Y-107020000D03*
X194920000Y-105660000D03*
X193440000Y-107020000D03*
X194920000Y-101190000D03*
X162170000Y-103740000D03*
X194920000Y-104290000D03*
X162170000Y-106473949D03*
X196280000Y-102780000D03*
X163763949Y-103740000D03*
X193440000Y-105660000D03*
D15*
%TO.N,Net-(D1-A)*%
X137370000Y-90530000D03*
X131960000Y-96750000D03*
%TO.N,Net-(U1-COMP1)*%
X137810000Y-92030000D03*
X139833951Y-94531049D03*
%TO.N,Net-(D2-A)*%
X138230000Y-88970000D03*
X130400000Y-87860000D03*
X132320000Y-88248792D03*
D17*
%TO.N,/3V6*%
X132570000Y-135590000D03*
X228680000Y-137210000D03*
X134160000Y-134220000D03*
X218200000Y-134170000D03*
X218200000Y-132580000D03*
X219640000Y-134150000D03*
X221194284Y-140220000D03*
X134160000Y-135590000D03*
X129500000Y-136960000D03*
X135670000Y-139770000D03*
X129500000Y-135600000D03*
X126570000Y-134220000D03*
X228680000Y-141940000D03*
X169430000Y-135880000D03*
X222691426Y-140220000D03*
X228680000Y-138800000D03*
X134150000Y-139780000D03*
X218200000Y-138880000D03*
X228680000Y-135690000D03*
X129530000Y-132820000D03*
X218200000Y-142020000D03*
X168040000Y-135880000D03*
X202500000Y-129490000D03*
X199390000Y-128050000D03*
X227200000Y-135690000D03*
X227200000Y-132500000D03*
X127980000Y-136980000D03*
X227200000Y-137210000D03*
X218200000Y-140300000D03*
X135680000Y-134210000D03*
X128010000Y-132840000D03*
X135680000Y-135580000D03*
X227182852Y-141940000D03*
X126560000Y-141170000D03*
X202500000Y-128100000D03*
X135680000Y-136940000D03*
X132560000Y-139780000D03*
X155980000Y-133950000D03*
X155980000Y-132560000D03*
X127970000Y-139810000D03*
X227200000Y-138800000D03*
X154390000Y-133950000D03*
X129490000Y-141180000D03*
X225685710Y-141940000D03*
X227182852Y-140220000D03*
X135710000Y-132800000D03*
X132570000Y-136950000D03*
X132600000Y-132810000D03*
X126600000Y-132810000D03*
X219697142Y-142000000D03*
X222691426Y-141940000D03*
X126570000Y-136950000D03*
X134160000Y-136950000D03*
X228680000Y-134090000D03*
X224188568Y-140220000D03*
X218200000Y-137290000D03*
X134150000Y-141170000D03*
X127980000Y-134250000D03*
X129500000Y-138350000D03*
X154390000Y-132560000D03*
X127980000Y-138370000D03*
X131050000Y-138360000D03*
X126560000Y-139780000D03*
X132560000Y-141170000D03*
X169430000Y-137470000D03*
X131040000Y-141190000D03*
X219640000Y-135750000D03*
X221194284Y-141940000D03*
X168040000Y-137470000D03*
X135680000Y-138330000D03*
X129490000Y-139790000D03*
X225685710Y-140220000D03*
X131080000Y-132830000D03*
X218200000Y-135770000D03*
X202440000Y-130930000D03*
X127980000Y-135620000D03*
X135670000Y-141160000D03*
X219697142Y-140280000D03*
X131050000Y-136970000D03*
D15*
X142400000Y-153030000D03*
D17*
X219640000Y-137270000D03*
X131040000Y-139800000D03*
X134190000Y-132810000D03*
X126570000Y-138340000D03*
X228680000Y-132500000D03*
X228680000Y-140220000D03*
X227200000Y-134090000D03*
X131050000Y-135610000D03*
X132570000Y-138340000D03*
X219640000Y-138860000D03*
X200910000Y-128100000D03*
X219640000Y-132560000D03*
D15*
X224900000Y-107900000D03*
D17*
X127970000Y-141200000D03*
X132570000Y-134220000D03*
X134160000Y-138340000D03*
X126570000Y-135590000D03*
X129500000Y-134230000D03*
X131050000Y-134240000D03*
X224188568Y-141940000D03*
D15*
%TO.N,Net-(Q1-G)*%
X156110000Y-109770000D03*
X129000000Y-97770000D03*
%TO.N,Net-(Q2-G)*%
X159860000Y-117600000D03*
X132763949Y-96740000D03*
%TO.N,Net-(Q3-G)*%
X130590000Y-92010000D03*
X201940000Y-103890000D03*
%TO.N,Net-(Q4-G)*%
X133020000Y-87890000D03*
X200890000Y-117400000D03*
%TO.N,/3V3*%
X220560000Y-106230000D03*
X216690000Y-106220000D03*
X215390000Y-95410000D03*
X207350000Y-100480000D03*
D16*
X154390000Y-94680000D03*
D15*
X235560000Y-145110000D03*
D16*
X147990000Y-88810000D03*
D15*
X211380000Y-94220000D03*
X218000000Y-95855000D03*
X232200000Y-171100000D03*
D16*
X156461600Y-99268400D03*
D15*
X219870000Y-97785000D03*
X232000000Y-146130000D03*
X219960000Y-101385000D03*
X120100000Y-169750000D03*
D16*
X150900000Y-86900000D03*
D15*
X205260000Y-94055000D03*
X210680000Y-97785000D03*
X210250000Y-100470000D03*
%TO.N,/Data/1V1*%
X214990000Y-97995000D03*
X215350000Y-102765000D03*
X216930000Y-97995000D03*
%TO.N,/stack4/GND0*%
X133420000Y-157230000D03*
X143630000Y-157610000D03*
%TO.N,/stack4/GND1*%
X133350000Y-171210000D03*
X143440000Y-171040000D03*
%TO.N,/stack4/GND2*%
X143520000Y-184090000D03*
X133380000Y-184540000D03*
%TO.N,/stack4/1V2-0*%
X133120000Y-165470000D03*
%TO.N,/Power/SW1*%
X131940000Y-98140000D03*
X151290000Y-104650000D03*
%TO.N,/Power/SW2*%
X194730000Y-112020000D03*
X130930000Y-89160000D03*
%TO.N,/Power/LOOP1*%
X134710000Y-97470000D03*
X159200000Y-117590000D03*
%TO.N,/Power/LOOP2*%
X196065137Y-115084863D03*
X134040000Y-87900000D03*
%TO.N,/stack4/1V2-1*%
X132950000Y-179160000D03*
%TO.N,/stack4/1V2-2*%
X132790000Y-193870000D03*
%TO.N,/stack4/0V8-0*%
X132130000Y-165420000D03*
X128970000Y-160830000D03*
%TO.N,/stack4/0V8-1*%
X132850000Y-176370000D03*
X131930000Y-178570000D03*
%TO.N,/stack4/0V8-2*%
X128740000Y-187750000D03*
X131820000Y-193740000D03*
%TO.N,/stack5/GND0*%
X152730000Y-187110000D03*
X154970000Y-192060000D03*
X165240000Y-192140000D03*
%TO.N,/stack5/GND1*%
X165210000Y-178550000D03*
X154800000Y-178410000D03*
%TO.N,/stack5/GND2*%
X165002500Y-165607500D03*
X154770000Y-165410000D03*
X147722500Y-155955000D03*
X145720000Y-161820000D03*
%TO.N,/stack5/1V2-0*%
X152380000Y-184960000D03*
%TO.N,/stack5/1V2-1*%
X154880000Y-173920000D03*
%TO.N,/stack5/1V2-2*%
X150840000Y-157720000D03*
X154630000Y-156180000D03*
%TO.N,/stack5/0V8-0*%
X153800000Y-186575000D03*
%TO.N,/stack5/0V8-1*%
X165150000Y-171610000D03*
%TO.N,/stack5/0V8-2*%
X153560000Y-156200000D03*
%TO.N,/stack6/GND0*%
X186900000Y-156720000D03*
X176370000Y-157590000D03*
%TO.N,/stack6/GND1*%
X186710000Y-171070000D03*
X175800000Y-171100000D03*
%TO.N,/stack6/GND2*%
X186860000Y-184900000D03*
X176470000Y-184490000D03*
%TO.N,/stack6/1V2-0*%
X186660000Y-164720000D03*
%TO.N,/stack6/1V2-1*%
X176450000Y-178160000D03*
%TO.N,/stack6/1V2-2*%
X171480000Y-189320000D03*
X175650000Y-194370000D03*
%TO.N,/stack6/0V8-0*%
X175870000Y-163790000D03*
%TO.N,/stack6/0V8-1*%
X192528749Y-172053749D03*
X188425000Y-177750000D03*
%TO.N,/stack6/0V8-2*%
X174600000Y-194360000D03*
%TO.N,/stack7/GND0*%
X197820000Y-192140000D03*
X211600000Y-190930000D03*
%TO.N,/stack7/GND1*%
X197960000Y-179470000D03*
X208440000Y-178730000D03*
%TO.N,/stack7/1V2-0*%
X209080000Y-185050000D03*
X208200000Y-188330000D03*
%TO.N,/stack7/1V2-1*%
X213820000Y-175670000D03*
X210580000Y-172125000D03*
%TO.N,/stack7/1V2-2*%
X230195104Y-149850000D03*
X209520000Y-156990000D03*
X214600000Y-160960000D03*
X235570000Y-153120000D03*
%TO.N,/stack7/0V8-0*%
X209690000Y-185580000D03*
%TO.N,/stack7/0V8-1*%
X209560000Y-172150000D03*
%TO.N,/stack7/0V8-2*%
X210530000Y-156990000D03*
%TO.N,/Data/SWD*%
X216810000Y-102795000D03*
X217640000Y-93600000D03*
%TO.N,/Data/SWCLK*%
X213700000Y-92950000D03*
X216130000Y-102765000D03*
%TO.N,/Data/QSPI_SS*%
X205000960Y-95272707D03*
X210870000Y-96515000D03*
%TO.N,Net-(U46-NRSTO)*%
X143680000Y-171960000D03*
%TO.N,Net-(U46-CO)*%
X143738000Y-175488702D03*
%TO.N,Net-(U46-CLKO)*%
X143765000Y-174625000D03*
%TO.N,Net-(U46-RI)*%
X143759000Y-173741000D03*
%TO.N,Net-(U46-BO)*%
X143777000Y-172753000D03*
%TO.N,Net-(U45-BI)*%
X146620000Y-173760000D03*
%TO.N,Net-(U45-CO)*%
X132600000Y-157230000D03*
%TO.N,Net-(U46-CI)*%
X131500000Y-180030000D03*
%TO.N,Net-(U47-CO)*%
X131520000Y-182780000D03*
%TO.N,Net-(U46-CLKI)*%
X130490000Y-180010000D03*
%TO.N,Net-(U45-CLKO)*%
X132050000Y-157750000D03*
%TO.N,Net-(U47-CLKO)*%
X130540000Y-182780000D03*
%TO.N,Net-(U46-RO)*%
X129480000Y-180010000D03*
%TO.N,Net-(U45-RI)*%
X132120000Y-158840000D03*
%TO.N,Net-(U47-RI)*%
X129480000Y-182780000D03*
%TO.N,Net-(U46-BI)*%
X128490000Y-180010000D03*
%TO.N,Net-(U45-BO)*%
X131960000Y-160450000D03*
%TO.N,Net-(U47-BO)*%
X128530000Y-182780000D03*
%TO.N,Net-(U46-NRSTI)*%
X127500000Y-180010000D03*
%TO.N,Net-(U45-NRSTO)*%
X125000000Y-161500000D03*
%TO.N,Net-(U47-NRSTO)*%
X127470000Y-182780000D03*
%TO.N,Net-(U55-NRSTO)*%
X168190000Y-191270000D03*
%TO.N,Net-(U55-CO)*%
X168190000Y-187120000D03*
%TO.N,Net-(U55-CLKO)*%
X168190000Y-188140000D03*
%TO.N,Net-(U55-RI)*%
X168190000Y-189210000D03*
%TO.N,Net-(U55-BO)*%
X168190000Y-190200000D03*
%TO.N,Net-(U54-CO)*%
X146340000Y-185190000D03*
%TO.N,Net-(U54-CLKO)*%
X146350000Y-185990000D03*
%TO.N,Net-(U54-RI)*%
X146330000Y-186770000D03*
%TO.N,Net-(U54-BO)*%
X146350000Y-187570000D03*
%TO.N,Net-(U54-NRSTO)*%
X146340000Y-188290000D03*
%TO.N,Net-(U64-NRSTO)*%
X189920000Y-161070000D03*
%TO.N,Net-(U64-CO)*%
X190100000Y-157090000D03*
%TO.N,Net-(U64-CLKO)*%
X189890000Y-158110000D03*
%TO.N,Net-(U64-RI)*%
X189890000Y-159060000D03*
%TO.N,Net-(U64-BO)*%
X189890000Y-160050000D03*
%TO.N,Net-(U64-CI)*%
X173800000Y-186525000D03*
%TO.N,Net-(U63-CO)*%
X167780000Y-160730000D03*
%TO.N,Net-(U65-CO)*%
X176460000Y-185230000D03*
%TO.N,Net-(U63-CLKO)*%
X167780000Y-161720000D03*
%TO.N,Net-(U64-CLKI)*%
X173800000Y-187400000D03*
%TO.N,Net-(U65-CLKO)*%
X176460000Y-186120000D03*
%TO.N,Net-(U63-RI)*%
X167780000Y-162730000D03*
%TO.N,Net-(U64-RO)*%
X173800000Y-188400000D03*
%TO.N,Net-(U65-RI)*%
X176520000Y-186780000D03*
%TO.N,Net-(U64-BI)*%
X173800000Y-189325000D03*
%TO.N,Net-(U63-BO)*%
X167780000Y-163730000D03*
%TO.N,Net-(U65-BO)*%
X176570000Y-187510000D03*
%TO.N,Net-(U63-NRSTO)*%
X167780000Y-164740000D03*
%TO.N,Net-(U64-NRSTI)*%
X173800000Y-190250000D03*
%TO.N,Net-(U65-NRSTO)*%
X176520000Y-188670000D03*
%TO.N,Net-(U73-NRSTO)*%
X214940000Y-180240000D03*
%TO.N,Net-(U73-CO)*%
X210910000Y-180240000D03*
%TO.N,Net-(U73-CLKO)*%
X211920000Y-180240000D03*
%TO.N,Net-(U73-RI)*%
X212930000Y-180240000D03*
%TO.N,Net-(U73-BO)*%
X213920000Y-180230000D03*
%TO.N,Net-(U74-BI)*%
X209910000Y-163500000D03*
%TO.N,Net-(U72-CO)*%
X192260000Y-185660000D03*
%TO.N,Net-(U73-CI)*%
X198020000Y-178640000D03*
%TO.N,Net-(U72-CLKO)*%
X192260000Y-186610000D03*
%TO.N,Net-(U73-CLKI)*%
X198020000Y-177767500D03*
%TO.N,Net-(U72-RI)*%
X192280000Y-187570000D03*
%TO.N,Net-(U73-RO)*%
X198020000Y-176895000D03*
%TO.N,Net-(U73-BI)*%
X198020000Y-176022500D03*
%TO.N,Net-(U72-BO)*%
X192310000Y-188520000D03*
%TO.N,Net-(U73-NRSTI)*%
X198020000Y-175150000D03*
%TO.N,Net-(U72-NRSTO)*%
X192310000Y-189450000D03*
%TO.N,/stack4/RO*%
X143550000Y-186680000D03*
%TO.N,/stack4/CLKI*%
X143550000Y-185800000D03*
%TO.N,/stack4/CI*%
X143550000Y-184820000D03*
%TO.N,Net-(U74-NRSTO)*%
X195230000Y-174630000D03*
%TO.N,Net-(U74-BO)*%
X195230000Y-175567500D03*
%TO.N,Net-(U74-RI)*%
X195230000Y-176505000D03*
%TO.N,Net-(U74-CLKO)*%
X195230000Y-177442500D03*
%TO.N,Net-(U74-CO)*%
X195230000Y-178380000D03*
%TO.N,/Data/SCL*%
X205793263Y-99856737D03*
X213510000Y-105060000D03*
X151130000Y-94650000D03*
X226090000Y-107570000D03*
X155350000Y-100000000D03*
X122490000Y-116470000D03*
%TO.N,/Data/SDA*%
X123290000Y-116470000D03*
X154566600Y-100053400D03*
X206345000Y-101225000D03*
X150320000Y-94670000D03*
X211650000Y-105600000D03*
X226140000Y-108340000D03*
%TO.N,/Data/QSPI_SD1*%
X213023119Y-97878628D03*
X205650200Y-95241245D03*
%TO.N,/Data/QSPI_SD2*%
X213670000Y-97815000D03*
X206300000Y-95225000D03*
%TO.N,/RST*%
X236300000Y-141150000D03*
X210580000Y-102990000D03*
%TO.N,/RX*%
X235250000Y-142460000D03*
X209430000Y-103220000D03*
%TO.N,Net-(U27-GPIO1)*%
X210280000Y-99750000D03*
%TO.N,/TX*%
X235770000Y-141770000D03*
X209420000Y-102410000D03*
%TO.N,/stack6/CI*%
X189800000Y-185630000D03*
%TO.N,/stack6/CLKI*%
X189820000Y-186590000D03*
%TO.N,/stack6/RO*%
X189800000Y-187540000D03*
%TO.N,/stack6/BI*%
X189800000Y-188500000D03*
%TO.N,/stack6/NRSTI*%
X189770000Y-189480000D03*
%TO.N,Net-(U45-NRSTI)*%
X146600000Y-172760000D03*
%TO.N,Net-(U45-RO)*%
X146640000Y-174770000D03*
%TO.N,Net-(U45-CLKI)*%
X146650000Y-175780000D03*
%TO.N,Net-(U45-CI)*%
X146650000Y-176790000D03*
%TO.N,Net-(U54-NRSTI)*%
X165260000Y-191320000D03*
%TO.N,Net-(U54-BI)*%
X165260000Y-190500000D03*
%TO.N,Net-(U54-RO)*%
X165260000Y-189720000D03*
%TO.N,Net-(U54-CLKI)*%
X165260000Y-188950000D03*
%TO.N,Net-(U54-CI)*%
X165260000Y-188190000D03*
%TO.N,/stack4/BI*%
X143550000Y-187730000D03*
%TO.N,/stack4/NRSTI*%
X143550000Y-188750000D03*
%TO.N,Net-(U63-NRSTI)*%
X186860000Y-161170000D03*
%TO.N,/stack5/NRSTI*%
X165190000Y-164710000D03*
%TO.N,Net-(U63-BI)*%
X186880000Y-160260000D03*
%TO.N,/stack5/BI*%
X165190000Y-163710000D03*
%TO.N,Net-(U63-RO)*%
X186860000Y-159400000D03*
%TO.N,/stack5/RO*%
X165190000Y-162700000D03*
%TO.N,Net-(U63-CLKI)*%
X186860000Y-158530000D03*
%TO.N,/stack5/CLKI*%
X165190000Y-161750000D03*
%TO.N,Net-(U63-CI)*%
X186880000Y-157670000D03*
%TO.N,/stack5/CI*%
X165190000Y-160720000D03*
%TO.N,Net-(U72-NRSTI)*%
X214940000Y-183060000D03*
%TO.N,Net-(U72-BI)*%
X213930000Y-183060000D03*
%TO.N,Net-(U72-RO)*%
X212920000Y-183060000D03*
%TO.N,Net-(U72-CLKI)*%
X211930000Y-183040000D03*
%TO.N,Net-(U72-CI)*%
X210910000Y-183040000D03*
%TO.N,/stack7/RST_N*%
X232640000Y-155860000D03*
X227400000Y-164230000D03*
X232600000Y-159300000D03*
%TO.N,/stack7/RO*%
X227400000Y-162850000D03*
%TO.N,/stack7/CLKI*%
X219680000Y-162210000D03*
%TO.N,/stack7/CI*%
X227430000Y-161570000D03*
%TO.N,/5V*%
X218010000Y-173960000D03*
X218010000Y-160100000D03*
X126570000Y-169880000D03*
X218010000Y-192610000D03*
X126570000Y-188380000D03*
X126570000Y-183670000D03*
X218010000Y-187650000D03*
D17*
X177880000Y-94560000D03*
D15*
X190338749Y-176083749D03*
X126570000Y-175090000D03*
X149830000Y-192140000D03*
X126570000Y-156720000D03*
X147310000Y-192140000D03*
X144680000Y-157700000D03*
X218010000Y-178850000D03*
D17*
X217390000Y-91810000D03*
D15*
X126570000Y-160850000D03*
X144680000Y-171410000D03*
X174860000Y-157460000D03*
X193210000Y-163330000D03*
X170610000Y-174190000D03*
X170690000Y-190600000D03*
X170910000Y-185720000D03*
D17*
X212560000Y-91760000D03*
D15*
X218010000Y-164990000D03*
X148720000Y-153100000D03*
%TO.N,/Data/PWR_EN*%
X203180000Y-98910000D03*
X127780000Y-87090000D03*
%TD*%
%TA.AperFunction,Conductor*%
%TO.N,GND*%
G36*
X239915927Y-78675014D02*
G01*
X239917316Y-78675034D01*
X240063164Y-78677236D01*
X240076206Y-78678123D01*
X240369443Y-78713729D01*
X240384143Y-78716423D01*
X240670024Y-78786886D01*
X240684317Y-78791340D01*
X240959604Y-78895743D01*
X240973254Y-78901887D01*
X241233957Y-79038715D01*
X241246771Y-79046461D01*
X241489067Y-79213706D01*
X241500855Y-79222940D01*
X241721238Y-79418182D01*
X241731822Y-79428766D01*
X241927059Y-79649145D01*
X241936293Y-79660932D01*
X242103538Y-79903228D01*
X242111284Y-79916042D01*
X242248112Y-80176745D01*
X242254258Y-80190400D01*
X242358658Y-80465681D01*
X242363113Y-80479977D01*
X242433573Y-80765842D01*
X242436272Y-80780570D01*
X242471874Y-81073775D01*
X242472764Y-81086851D01*
X242474986Y-81234072D01*
X242475000Y-81235943D01*
X242475000Y-110717561D01*
X242455315Y-110784600D01*
X242402511Y-110830355D01*
X242350746Y-110841561D01*
X212412193Y-110780188D01*
X212345194Y-110760366D01*
X212299547Y-110707468D01*
X212293628Y-110691657D01*
X211794746Y-109020452D01*
X211460272Y-107899997D01*
X224144751Y-107899997D01*
X224144751Y-107900002D01*
X224163685Y-108068056D01*
X224219545Y-108227694D01*
X224219547Y-108227697D01*
X224309518Y-108370884D01*
X224309523Y-108370890D01*
X224429109Y-108490476D01*
X224429115Y-108490481D01*
X224572302Y-108580452D01*
X224572305Y-108580454D01*
X224572309Y-108580455D01*
X224572310Y-108580456D01*
X224644913Y-108605860D01*
X224731943Y-108636314D01*
X224899997Y-108655249D01*
X224900000Y-108655249D01*
X224900003Y-108655249D01*
X225068056Y-108636314D01*
X225104622Y-108623519D01*
X225227690Y-108580456D01*
X225261073Y-108559480D01*
X225328309Y-108540479D01*
X225395145Y-108560846D01*
X225440359Y-108614113D01*
X225444088Y-108623519D01*
X225459544Y-108667691D01*
X225459547Y-108667697D01*
X225549518Y-108810884D01*
X225549523Y-108810890D01*
X225669109Y-108930476D01*
X225669115Y-108930481D01*
X225812302Y-109020452D01*
X225812305Y-109020454D01*
X225812309Y-109020455D01*
X225812310Y-109020456D01*
X225884913Y-109045860D01*
X225971943Y-109076314D01*
X226139997Y-109095249D01*
X226140000Y-109095249D01*
X226140003Y-109095249D01*
X226308056Y-109076314D01*
X226308059Y-109076313D01*
X226467690Y-109020456D01*
X226467692Y-109020454D01*
X226467694Y-109020454D01*
X226467697Y-109020452D01*
X226610884Y-108930481D01*
X226610885Y-108930480D01*
X226610890Y-108930477D01*
X226730477Y-108810890D01*
X226820452Y-108667697D01*
X226820454Y-108667694D01*
X226820455Y-108667691D01*
X226820456Y-108667690D01*
X226876313Y-108508059D01*
X226876313Y-108508058D01*
X226876314Y-108508056D01*
X226895249Y-108340002D01*
X226895249Y-108339997D01*
X226876314Y-108171943D01*
X226839962Y-108068056D01*
X226820456Y-108012310D01*
X226820454Y-108012307D01*
X226820454Y-108012306D01*
X226794350Y-107970763D01*
X226775349Y-107903527D01*
X226782302Y-107863835D01*
X226826313Y-107738060D01*
X226826313Y-107738059D01*
X226845249Y-107570002D01*
X226845249Y-107569997D01*
X226826314Y-107401943D01*
X226776595Y-107259855D01*
X226770456Y-107242310D01*
X226770455Y-107242309D01*
X226770454Y-107242305D01*
X226770452Y-107242302D01*
X226680481Y-107099115D01*
X226680476Y-107099109D01*
X226560890Y-106979523D01*
X226560884Y-106979518D01*
X226417697Y-106889547D01*
X226417694Y-106889545D01*
X226258056Y-106833685D01*
X226090003Y-106814751D01*
X226089997Y-106814751D01*
X225921943Y-106833685D01*
X225762305Y-106889545D01*
X225762302Y-106889547D01*
X225619115Y-106979518D01*
X225619109Y-106979523D01*
X225499523Y-107099109D01*
X225499521Y-107099112D01*
X225434295Y-107202917D01*
X225381960Y-107249208D01*
X225312906Y-107259855D01*
X225263330Y-107241938D01*
X225227692Y-107219545D01*
X225227691Y-107219544D01*
X225227690Y-107219544D01*
X225180173Y-107202917D01*
X225068056Y-107163685D01*
X224900003Y-107144751D01*
X224899997Y-107144751D01*
X224731943Y-107163685D01*
X224572305Y-107219545D01*
X224572302Y-107219547D01*
X224429115Y-107309518D01*
X224429109Y-107309523D01*
X224309523Y-107429109D01*
X224309518Y-107429115D01*
X224219547Y-107572302D01*
X224219545Y-107572305D01*
X224163685Y-107731943D01*
X224144751Y-107899997D01*
X211460272Y-107899997D01*
X210991319Y-106329052D01*
X210991006Y-106259186D01*
X211028516Y-106200239D01*
X211091940Y-106170929D01*
X211161143Y-106180561D01*
X211176112Y-106188593D01*
X211179109Y-106190476D01*
X211179110Y-106190477D01*
X211288459Y-106259186D01*
X211322307Y-106280454D01*
X211322305Y-106280454D01*
X211322309Y-106280455D01*
X211322310Y-106280456D01*
X211394913Y-106305860D01*
X211481943Y-106336314D01*
X211649997Y-106355249D01*
X211650000Y-106355249D01*
X211650003Y-106355249D01*
X211818056Y-106336314D01*
X211838810Y-106329052D01*
X211977690Y-106280456D01*
X211977692Y-106280454D01*
X211977694Y-106280454D01*
X211977697Y-106280452D01*
X212073910Y-106219997D01*
X215934751Y-106219997D01*
X215934751Y-106220002D01*
X215953685Y-106388056D01*
X216009545Y-106547694D01*
X216009547Y-106547697D01*
X216099518Y-106690884D01*
X216099523Y-106690890D01*
X216219109Y-106810476D01*
X216219115Y-106810481D01*
X216362302Y-106900452D01*
X216362305Y-106900454D01*
X216362309Y-106900455D01*
X216362310Y-106900456D01*
X216390883Y-106910454D01*
X216521943Y-106956314D01*
X216689997Y-106975249D01*
X216690000Y-106975249D01*
X216690003Y-106975249D01*
X216858056Y-106956314D01*
X216858059Y-106956313D01*
X217017690Y-106900456D01*
X217017692Y-106900454D01*
X217017694Y-106900454D01*
X217017697Y-106900452D01*
X217160884Y-106810481D01*
X217160885Y-106810480D01*
X217160890Y-106810477D01*
X217280477Y-106690890D01*
X217309677Y-106644419D01*
X217370452Y-106547697D01*
X217370454Y-106547694D01*
X217370454Y-106547692D01*
X217370456Y-106547690D01*
X217426313Y-106388059D01*
X217426313Y-106388058D01*
X217426314Y-106388056D01*
X217444123Y-106229997D01*
X219804751Y-106229997D01*
X219804751Y-106230002D01*
X219823685Y-106398056D01*
X219879545Y-106557694D01*
X219879547Y-106557697D01*
X219969518Y-106700884D01*
X219969523Y-106700890D01*
X220089109Y-106820476D01*
X220089115Y-106820481D01*
X220232302Y-106910452D01*
X220232305Y-106910454D01*
X220232309Y-106910455D01*
X220232310Y-106910456D01*
X220304913Y-106935860D01*
X220391943Y-106966314D01*
X220559997Y-106985249D01*
X220560000Y-106985249D01*
X220560003Y-106985249D01*
X220728056Y-106966314D01*
X220728059Y-106966313D01*
X220887690Y-106910456D01*
X220887692Y-106910454D01*
X220887694Y-106910454D01*
X220887697Y-106910452D01*
X221030884Y-106820481D01*
X221030885Y-106820480D01*
X221030890Y-106820477D01*
X221150477Y-106700890D01*
X221150481Y-106700884D01*
X221240452Y-106557697D01*
X221240454Y-106557694D01*
X221240454Y-106557692D01*
X221240456Y-106557690D01*
X221296313Y-106398059D01*
X221296313Y-106398058D01*
X221296314Y-106398056D01*
X221315249Y-106230002D01*
X221315249Y-106229997D01*
X221296314Y-106061943D01*
X221240454Y-105902305D01*
X221240452Y-105902302D01*
X221219446Y-105868872D01*
X235999500Y-105868872D01*
X235999500Y-106131127D01*
X236019161Y-106280456D01*
X236033730Y-106391116D01*
X236101602Y-106644418D01*
X236101605Y-106644428D01*
X236201953Y-106886690D01*
X236201958Y-106886700D01*
X236333075Y-107113803D01*
X236492718Y-107321851D01*
X236492726Y-107321860D01*
X236678140Y-107507274D01*
X236678148Y-107507281D01*
X236886196Y-107666924D01*
X237113299Y-107798041D01*
X237113309Y-107798046D01*
X237355571Y-107898394D01*
X237355581Y-107898398D01*
X237608884Y-107966270D01*
X237868880Y-108000500D01*
X237868887Y-108000500D01*
X238131113Y-108000500D01*
X238131120Y-108000500D01*
X238391116Y-107966270D01*
X238644419Y-107898398D01*
X238886697Y-107798043D01*
X239113803Y-107666924D01*
X239321851Y-107507282D01*
X239321855Y-107507277D01*
X239321860Y-107507274D01*
X239507274Y-107321860D01*
X239507277Y-107321855D01*
X239507282Y-107321851D01*
X239666924Y-107113803D01*
X239798043Y-106886697D01*
X239820001Y-106833687D01*
X239879149Y-106690890D01*
X239898398Y-106644419D01*
X239966270Y-106391116D01*
X240000500Y-106131120D01*
X240000500Y-105868880D01*
X239966270Y-105608884D01*
X239898398Y-105355581D01*
X239875409Y-105300081D01*
X239798046Y-105113309D01*
X239798041Y-105113299D01*
X239666924Y-104886196D01*
X239507281Y-104678148D01*
X239507274Y-104678140D01*
X239321860Y-104492726D01*
X239321851Y-104492718D01*
X239113803Y-104333075D01*
X238886700Y-104201958D01*
X238886690Y-104201953D01*
X238644428Y-104101605D01*
X238644421Y-104101603D01*
X238644419Y-104101602D01*
X238391116Y-104033730D01*
X238333339Y-104026123D01*
X238131127Y-103999500D01*
X238131120Y-103999500D01*
X237868880Y-103999500D01*
X237868872Y-103999500D01*
X237637772Y-104029926D01*
X237608884Y-104033730D01*
X237512623Y-104059523D01*
X237355581Y-104101602D01*
X237355571Y-104101605D01*
X237113309Y-104201953D01*
X237113299Y-104201958D01*
X236886196Y-104333075D01*
X236678148Y-104492718D01*
X236492718Y-104678148D01*
X236333075Y-104886196D01*
X236201958Y-105113299D01*
X236201953Y-105113309D01*
X236101605Y-105355571D01*
X236101602Y-105355581D01*
X236036111Y-105600000D01*
X236033730Y-105608885D01*
X235999500Y-105868872D01*
X221219446Y-105868872D01*
X221150481Y-105759115D01*
X221150476Y-105759109D01*
X221030890Y-105639523D01*
X221030884Y-105639518D01*
X220887697Y-105549547D01*
X220887694Y-105549545D01*
X220728056Y-105493685D01*
X220560003Y-105474751D01*
X220559997Y-105474751D01*
X220391943Y-105493685D01*
X220232305Y-105549545D01*
X220232302Y-105549547D01*
X220089115Y-105639518D01*
X220089109Y-105639523D01*
X219969523Y-105759109D01*
X219969518Y-105759115D01*
X219879547Y-105902302D01*
X219879545Y-105902305D01*
X219823685Y-106061943D01*
X219804751Y-106229997D01*
X217444123Y-106229997D01*
X217445249Y-106220002D01*
X217445249Y-106219997D01*
X217426314Y-106051943D01*
X217370454Y-105892305D01*
X217370452Y-105892302D01*
X217280481Y-105749115D01*
X217280476Y-105749109D01*
X217160890Y-105629523D01*
X217160884Y-105629518D01*
X217017697Y-105539547D01*
X217017694Y-105539545D01*
X216858056Y-105483685D01*
X216690003Y-105464751D01*
X216689997Y-105464751D01*
X216521943Y-105483685D01*
X216362305Y-105539545D01*
X216362302Y-105539547D01*
X216219115Y-105629518D01*
X216219109Y-105629523D01*
X216099523Y-105749109D01*
X216099518Y-105749115D01*
X216009547Y-105892302D01*
X216009545Y-105892305D01*
X215953685Y-106051943D01*
X215934751Y-106219997D01*
X212073910Y-106219997D01*
X212120884Y-106190481D01*
X212120885Y-106190480D01*
X212120890Y-106190477D01*
X212240477Y-106070890D01*
X212246100Y-106061941D01*
X212330452Y-105927697D01*
X212330454Y-105927694D01*
X212330454Y-105927692D01*
X212330456Y-105927690D01*
X212386313Y-105768059D01*
X212386313Y-105768058D01*
X212386314Y-105768056D01*
X212405249Y-105600002D01*
X212405249Y-105599997D01*
X212386314Y-105431943D01*
X212330454Y-105272305D01*
X212330452Y-105272302D01*
X212240481Y-105129115D01*
X212240476Y-105129109D01*
X212171364Y-105059997D01*
X212754751Y-105059997D01*
X212754751Y-105060002D01*
X212773685Y-105228056D01*
X212829545Y-105387694D01*
X212829547Y-105387697D01*
X212919518Y-105530884D01*
X212919523Y-105530890D01*
X213039109Y-105650476D01*
X213039115Y-105650481D01*
X213182302Y-105740452D01*
X213182305Y-105740454D01*
X213182309Y-105740455D01*
X213182310Y-105740456D01*
X213235635Y-105759115D01*
X213341943Y-105796314D01*
X213509997Y-105815249D01*
X213510000Y-105815249D01*
X213510003Y-105815249D01*
X213678056Y-105796314D01*
X213699104Y-105788949D01*
X213837690Y-105740456D01*
X213837692Y-105740454D01*
X213837694Y-105740454D01*
X213837697Y-105740452D01*
X213980884Y-105650481D01*
X213980885Y-105650480D01*
X213980890Y-105650477D01*
X214100477Y-105530890D01*
X214100481Y-105530884D01*
X214190452Y-105387697D01*
X214190454Y-105387694D01*
X214190454Y-105387692D01*
X214190456Y-105387690D01*
X214246313Y-105228059D01*
X214246313Y-105228058D01*
X214246314Y-105228056D01*
X214265249Y-105060002D01*
X214265249Y-105059997D01*
X214246314Y-104891943D01*
X214215860Y-104804913D01*
X214190456Y-104732310D01*
X214190455Y-104732309D01*
X214190454Y-104732305D01*
X214190452Y-104732302D01*
X214100481Y-104589115D01*
X214100476Y-104589109D01*
X213980890Y-104469523D01*
X213980884Y-104469518D01*
X213837697Y-104379547D01*
X213837694Y-104379545D01*
X213678056Y-104323685D01*
X213510003Y-104304751D01*
X213509997Y-104304751D01*
X213341943Y-104323685D01*
X213182305Y-104379545D01*
X213182302Y-104379547D01*
X213039115Y-104469518D01*
X213039109Y-104469523D01*
X212919523Y-104589109D01*
X212919518Y-104589115D01*
X212829547Y-104732302D01*
X212829545Y-104732305D01*
X212773685Y-104891943D01*
X212754751Y-105059997D01*
X212171364Y-105059997D01*
X212120890Y-105009523D01*
X212120884Y-105009518D01*
X211977697Y-104919547D01*
X211977694Y-104919545D01*
X211818056Y-104863685D01*
X211650003Y-104844751D01*
X211649997Y-104844751D01*
X211481943Y-104863685D01*
X211322305Y-104919545D01*
X211322302Y-104919547D01*
X211179115Y-105009518D01*
X211179109Y-105009523D01*
X211059523Y-105129109D01*
X211059518Y-105129115D01*
X210969547Y-105272302D01*
X210969543Y-105272311D01*
X210937458Y-105364002D01*
X210896736Y-105420778D01*
X210831783Y-105446524D01*
X210763221Y-105433067D01*
X210712819Y-105384679D01*
X210701600Y-105358520D01*
X210260706Y-103881571D01*
X210260393Y-103811704D01*
X210297903Y-103752757D01*
X210361327Y-103723447D01*
X210407117Y-103725213D01*
X210411938Y-103726313D01*
X210579997Y-103745249D01*
X210580000Y-103745249D01*
X210580003Y-103745249D01*
X210748056Y-103726314D01*
X210748059Y-103726313D01*
X210907690Y-103670456D01*
X210907692Y-103670454D01*
X210907694Y-103670454D01*
X210907697Y-103670452D01*
X211050884Y-103580481D01*
X211050885Y-103580480D01*
X211050890Y-103580477D01*
X211170477Y-103460890D01*
X211173924Y-103455404D01*
X211260452Y-103317697D01*
X211260454Y-103317694D01*
X211260454Y-103317692D01*
X211260456Y-103317690D01*
X211316313Y-103158059D01*
X211316313Y-103158058D01*
X211316314Y-103158056D01*
X211335249Y-102990002D01*
X211335249Y-102989997D01*
X211316314Y-102821943D01*
X211296388Y-102764997D01*
X214594751Y-102764997D01*
X214594751Y-102765002D01*
X214613685Y-102933056D01*
X214669545Y-103092694D01*
X214669547Y-103092697D01*
X214759518Y-103235884D01*
X214759523Y-103235890D01*
X214879109Y-103355476D01*
X214879115Y-103355481D01*
X215022302Y-103445452D01*
X215022305Y-103445454D01*
X215022309Y-103445455D01*
X215022310Y-103445456D01*
X215050740Y-103455404D01*
X215181943Y-103501314D01*
X215349997Y-103520249D01*
X215350000Y-103520249D01*
X215350003Y-103520249D01*
X215450835Y-103508887D01*
X215518059Y-103501313D01*
X215677690Y-103445456D01*
X215677696Y-103445452D01*
X215683960Y-103442436D01*
X215685028Y-103444655D01*
X215741228Y-103428756D01*
X215795021Y-103444551D01*
X215796040Y-103442436D01*
X215802306Y-103445454D01*
X215802310Y-103445456D01*
X215961941Y-103501313D01*
X215985052Y-103503917D01*
X216129997Y-103520249D01*
X216130000Y-103520249D01*
X216130003Y-103520249D01*
X216298055Y-103501314D01*
X216298057Y-103501313D01*
X216298059Y-103501313D01*
X216387388Y-103470054D01*
X216457165Y-103466492D01*
X216482146Y-103475377D01*
X216482306Y-103475453D01*
X216482310Y-103475456D01*
X216598830Y-103516228D01*
X216641943Y-103531314D01*
X216809997Y-103550249D01*
X216810000Y-103550249D01*
X216810003Y-103550249D01*
X216978056Y-103531314D01*
X217009678Y-103520249D01*
X217137690Y-103475456D01*
X217137692Y-103475454D01*
X217137694Y-103475454D01*
X217137697Y-103475452D01*
X217280884Y-103385481D01*
X217280885Y-103385480D01*
X217280890Y-103385477D01*
X217400477Y-103265890D01*
X217400481Y-103265884D01*
X217490452Y-103122697D01*
X217490454Y-103122694D01*
X217490454Y-103122692D01*
X217490456Y-103122690D01*
X217546313Y-102963059D01*
X217546313Y-102963058D01*
X217546314Y-102963056D01*
X217565249Y-102795002D01*
X217565249Y-102794997D01*
X217546314Y-102626943D01*
X217508583Y-102519115D01*
X217490456Y-102467310D01*
X217490455Y-102467309D01*
X217490454Y-102467305D01*
X217490452Y-102467302D01*
X217400481Y-102324115D01*
X217400476Y-102324109D01*
X217280890Y-102204523D01*
X217280884Y-102204518D01*
X217137697Y-102114547D01*
X217137694Y-102114545D01*
X216978056Y-102058685D01*
X216810003Y-102039751D01*
X216809997Y-102039751D01*
X216641941Y-102058686D01*
X216552608Y-102089944D01*
X216482829Y-102093505D01*
X216457859Y-102084625D01*
X216457695Y-102084546D01*
X216457690Y-102084544D01*
X216413602Y-102069117D01*
X216298056Y-102028685D01*
X216130003Y-102009751D01*
X216129997Y-102009751D01*
X215961943Y-102028685D01*
X215802305Y-102084545D01*
X215796034Y-102087566D01*
X215794969Y-102085356D01*
X215738707Y-102101241D01*
X215684977Y-102085465D01*
X215683966Y-102087566D01*
X215677694Y-102084545D01*
X215518056Y-102028685D01*
X215350003Y-102009751D01*
X215349997Y-102009751D01*
X215181943Y-102028685D01*
X215022305Y-102084545D01*
X215022302Y-102084547D01*
X214879115Y-102174518D01*
X214879109Y-102174523D01*
X214759523Y-102294109D01*
X214759518Y-102294115D01*
X214669547Y-102437302D01*
X214669545Y-102437305D01*
X214613685Y-102596943D01*
X214594751Y-102764997D01*
X211296388Y-102764997D01*
X211260454Y-102662305D01*
X211260452Y-102662302D01*
X211170481Y-102519115D01*
X211170476Y-102519109D01*
X211050890Y-102399523D01*
X211050884Y-102399518D01*
X210907697Y-102309547D01*
X210907694Y-102309545D01*
X210748056Y-102253685D01*
X210580003Y-102234751D01*
X210579997Y-102234751D01*
X210411942Y-102253686D01*
X210304900Y-102291141D01*
X210235121Y-102294702D01*
X210174494Y-102259973D01*
X210146905Y-102215055D01*
X210100456Y-102082310D01*
X210100455Y-102082307D01*
X210100452Y-102082302D01*
X210010481Y-101939115D01*
X210010476Y-101939109D01*
X209890890Y-101819523D01*
X209890884Y-101819518D01*
X209747697Y-101729547D01*
X209747694Y-101729545D01*
X209588056Y-101673685D01*
X209420003Y-101654751D01*
X209419997Y-101654751D01*
X209251943Y-101673685D01*
X209092308Y-101729544D01*
X209043669Y-101760106D01*
X208977642Y-101779111D01*
X207108032Y-101778248D01*
X207041001Y-101758532D01*
X206995271Y-101705707D01*
X206985359Y-101636544D01*
X207003094Y-101588277D01*
X207025456Y-101552690D01*
X207081313Y-101393059D01*
X207081313Y-101393057D01*
X207081314Y-101393055D01*
X207082222Y-101384997D01*
X219204751Y-101384997D01*
X219204751Y-101385002D01*
X219223685Y-101553056D01*
X219279545Y-101712694D01*
X219279547Y-101712697D01*
X219369518Y-101855884D01*
X219369523Y-101855890D01*
X219489109Y-101975476D01*
X219489115Y-101975481D01*
X219632302Y-102065452D01*
X219632305Y-102065454D01*
X219632309Y-102065455D01*
X219632310Y-102065456D01*
X219686869Y-102084547D01*
X219791943Y-102121314D01*
X219959997Y-102140249D01*
X219960000Y-102140249D01*
X219960003Y-102140249D01*
X220128056Y-102121314D01*
X220147401Y-102114545D01*
X220287690Y-102065456D01*
X220287692Y-102065454D01*
X220287694Y-102065454D01*
X220287697Y-102065452D01*
X220430884Y-101975481D01*
X220430885Y-101975480D01*
X220430890Y-101975477D01*
X220550477Y-101855890D01*
X220573331Y-101819518D01*
X220640452Y-101712697D01*
X220640454Y-101712694D01*
X220640454Y-101712692D01*
X220640456Y-101712690D01*
X220696313Y-101553059D01*
X220696313Y-101553058D01*
X220696314Y-101553056D01*
X220715249Y-101385002D01*
X220715249Y-101384997D01*
X220696314Y-101216943D01*
X220645063Y-101070476D01*
X220640456Y-101057310D01*
X220640455Y-101057309D01*
X220640454Y-101057305D01*
X220640452Y-101057302D01*
X220550481Y-100914115D01*
X220550476Y-100914109D01*
X220430890Y-100794523D01*
X220430884Y-100794518D01*
X220287697Y-100704547D01*
X220287694Y-100704545D01*
X220128056Y-100648685D01*
X219960003Y-100629751D01*
X219959997Y-100629751D01*
X219791943Y-100648685D01*
X219632305Y-100704545D01*
X219632302Y-100704547D01*
X219489115Y-100794518D01*
X219489109Y-100794523D01*
X219369523Y-100914109D01*
X219369518Y-100914115D01*
X219279547Y-101057302D01*
X219279545Y-101057305D01*
X219223685Y-101216943D01*
X219204751Y-101384997D01*
X207082222Y-101384997D01*
X207088356Y-101330554D01*
X207115422Y-101266140D01*
X207173017Y-101226585D01*
X207225460Y-101221217D01*
X207349997Y-101235249D01*
X207350000Y-101235249D01*
X207350003Y-101235249D01*
X207518056Y-101216314D01*
X207518059Y-101216313D01*
X207677690Y-101160456D01*
X207677692Y-101160454D01*
X207677694Y-101160454D01*
X207677697Y-101160452D01*
X207820884Y-101070481D01*
X207820885Y-101070480D01*
X207820890Y-101070477D01*
X207940477Y-100950890D01*
X207940481Y-100950884D01*
X208030452Y-100807697D01*
X208030454Y-100807694D01*
X208030454Y-100807692D01*
X208030456Y-100807690D01*
X208086313Y-100648059D01*
X208086313Y-100648058D01*
X208086314Y-100648056D01*
X208105249Y-100480002D01*
X208105249Y-100479997D01*
X208104122Y-100469997D01*
X209494751Y-100469997D01*
X209494751Y-100470002D01*
X209513685Y-100638056D01*
X209569545Y-100797694D01*
X209569547Y-100797697D01*
X209659518Y-100940884D01*
X209659523Y-100940890D01*
X209779109Y-101060476D01*
X209779115Y-101060481D01*
X209922302Y-101150452D01*
X209922305Y-101150454D01*
X209922309Y-101150455D01*
X209922310Y-101150456D01*
X209950883Y-101160454D01*
X210081943Y-101206314D01*
X210249997Y-101225249D01*
X210250000Y-101225249D01*
X210250003Y-101225249D01*
X210418056Y-101206314D01*
X210464679Y-101190000D01*
X210577690Y-101150456D01*
X210577692Y-101150454D01*
X210577694Y-101150454D01*
X210577697Y-101150452D01*
X210720884Y-101060481D01*
X210720885Y-101060480D01*
X210720890Y-101060477D01*
X210840477Y-100940890D01*
X210857305Y-100914109D01*
X210930452Y-100797697D01*
X210930454Y-100797694D01*
X210930454Y-100797692D01*
X210930456Y-100797690D01*
X210986313Y-100638059D01*
X210986313Y-100638058D01*
X210986314Y-100638056D01*
X211005249Y-100470002D01*
X211005249Y-100469997D01*
X210986313Y-100301940D01*
X210986313Y-100301938D01*
X210946386Y-100187834D01*
X210942824Y-100118055D01*
X210958434Y-100080906D01*
X210960456Y-100077690D01*
X211016313Y-99918059D01*
X211035249Y-99750000D01*
X211034538Y-99743687D01*
X211016314Y-99581943D01*
X210960454Y-99422305D01*
X210960452Y-99422302D01*
X210870481Y-99279115D01*
X210870476Y-99279109D01*
X210750890Y-99159523D01*
X210750884Y-99159518D01*
X210607697Y-99069547D01*
X210607694Y-99069545D01*
X210448056Y-99013685D01*
X210280003Y-98994751D01*
X210279997Y-98994751D01*
X210111943Y-99013685D01*
X209952305Y-99069545D01*
X209952302Y-99069547D01*
X209809115Y-99159518D01*
X209809109Y-99159523D01*
X209689523Y-99279109D01*
X209689518Y-99279115D01*
X209599547Y-99422302D01*
X209599545Y-99422305D01*
X209543685Y-99581943D01*
X209524751Y-99749997D01*
X209524751Y-99750002D01*
X209543686Y-99918057D01*
X209583614Y-100032166D01*
X209587175Y-100101945D01*
X209571571Y-100139084D01*
X209569545Y-100142307D01*
X209569543Y-100142312D01*
X209513685Y-100301943D01*
X209494751Y-100469997D01*
X208104122Y-100469997D01*
X208086314Y-100311943D01*
X208041775Y-100184659D01*
X208030456Y-100152310D01*
X208030455Y-100152309D01*
X208030454Y-100152305D01*
X208030452Y-100152302D01*
X207940481Y-100009115D01*
X207940476Y-100009109D01*
X207820890Y-99889523D01*
X207820884Y-99889518D01*
X207677697Y-99799547D01*
X207677694Y-99799545D01*
X207518056Y-99743685D01*
X207350003Y-99724751D01*
X207349997Y-99724751D01*
X207181943Y-99743685D01*
X207022305Y-99799545D01*
X207022302Y-99799547D01*
X206879115Y-99889518D01*
X206879109Y-99889523D01*
X206754599Y-100014034D01*
X206752886Y-100012321D01*
X206704929Y-100045959D01*
X206635117Y-100048785D01*
X206574859Y-100013418D01*
X206543287Y-99951089D01*
X206541991Y-99914610D01*
X206548512Y-99856737D01*
X206542189Y-99800616D01*
X206529577Y-99688680D01*
X206473717Y-99529042D01*
X206473715Y-99529039D01*
X206383744Y-99385852D01*
X206383739Y-99385846D01*
X206264153Y-99266260D01*
X206264147Y-99266255D01*
X206120960Y-99176284D01*
X206120957Y-99176282D01*
X205961319Y-99120422D01*
X205793266Y-99101488D01*
X205793260Y-99101488D01*
X205625206Y-99120422D01*
X205465568Y-99176282D01*
X205465565Y-99176284D01*
X205322378Y-99266255D01*
X205322372Y-99266260D01*
X205202786Y-99385846D01*
X205202781Y-99385852D01*
X205112810Y-99529039D01*
X205112808Y-99529042D01*
X205056948Y-99688680D01*
X205038014Y-99856734D01*
X205038014Y-99856739D01*
X205056948Y-100024793D01*
X205112808Y-100184431D01*
X205112810Y-100184434D01*
X205202781Y-100327621D01*
X205202786Y-100327627D01*
X205322372Y-100447213D01*
X205322378Y-100447218D01*
X205465565Y-100537189D01*
X205465568Y-100537191D01*
X205465572Y-100537192D01*
X205465573Y-100537193D01*
X205617848Y-100590476D01*
X205625207Y-100593051D01*
X205644377Y-100595211D01*
X205708791Y-100622277D01*
X205748346Y-100679872D01*
X205750484Y-100749709D01*
X205735488Y-100784403D01*
X205664545Y-100897307D01*
X205608685Y-101056943D01*
X205589751Y-101224997D01*
X205589751Y-101225002D01*
X205608685Y-101393056D01*
X205664545Y-101552692D01*
X205686461Y-101587571D01*
X205705461Y-101654808D01*
X205685093Y-101721643D01*
X205631826Y-101766857D01*
X205581410Y-101777543D01*
X200103236Y-101775016D01*
X200036205Y-101755301D01*
X199990475Y-101702475D01*
X199980563Y-101633312D01*
X199993934Y-101592564D01*
X200008814Y-101564727D01*
X200066024Y-101376132D01*
X200085341Y-101180000D01*
X200066024Y-100983868D01*
X200008814Y-100795273D01*
X200008811Y-100795269D01*
X200008811Y-100795266D01*
X199915913Y-100621467D01*
X199915909Y-100621460D01*
X199790883Y-100469116D01*
X199638539Y-100344090D01*
X199638532Y-100344086D01*
X199464733Y-100251188D01*
X199464727Y-100251186D01*
X199338997Y-100213046D01*
X199276129Y-100193975D01*
X199080000Y-100174659D01*
X198883870Y-100193975D01*
X198695266Y-100251188D01*
X198521467Y-100344086D01*
X198521461Y-100344090D01*
X198447571Y-100404730D01*
X198383261Y-100432042D01*
X198314394Y-100420251D01*
X198290242Y-100404729D01*
X198228539Y-100354090D01*
X198228532Y-100354086D01*
X198054733Y-100261188D01*
X198054727Y-100261186D01*
X197866132Y-100203976D01*
X197866129Y-100203975D01*
X197670000Y-100184659D01*
X197473870Y-100203975D01*
X197285266Y-100261188D01*
X197111467Y-100354086D01*
X197111461Y-100354090D01*
X197053664Y-100401523D01*
X196989354Y-100428835D01*
X196920487Y-100417044D01*
X196896336Y-100401523D01*
X196838538Y-100354090D01*
X196838532Y-100354086D01*
X196664733Y-100261188D01*
X196664727Y-100261186D01*
X196476132Y-100203976D01*
X196476129Y-100203975D01*
X196280000Y-100184659D01*
X196083870Y-100203975D01*
X195895266Y-100261188D01*
X195721467Y-100354086D01*
X195721460Y-100354091D01*
X195678665Y-100389212D01*
X195614355Y-100416525D01*
X195545487Y-100404734D01*
X195521335Y-100389212D01*
X195478539Y-100354091D01*
X195478532Y-100354086D01*
X195304733Y-100261188D01*
X195304727Y-100261186D01*
X195116132Y-100203976D01*
X195116129Y-100203975D01*
X194920000Y-100184659D01*
X194723870Y-100203975D01*
X194535266Y-100261188D01*
X194361467Y-100354086D01*
X194361460Y-100354090D01*
X194258665Y-100438453D01*
X194194355Y-100465766D01*
X194125487Y-100453975D01*
X194101335Y-100438453D01*
X193998539Y-100354090D01*
X193998532Y-100354086D01*
X193824733Y-100261188D01*
X193824727Y-100261186D01*
X193636132Y-100203976D01*
X193636129Y-100203975D01*
X193440000Y-100184659D01*
X193243870Y-100203975D01*
X193055266Y-100261188D01*
X192881467Y-100354086D01*
X192881460Y-100354090D01*
X192729116Y-100479116D01*
X192604090Y-100631460D01*
X192604086Y-100631467D01*
X192511188Y-100805266D01*
X192453975Y-100993870D01*
X192434659Y-101190000D01*
X192453975Y-101386129D01*
X192453976Y-101386132D01*
X192509650Y-101569665D01*
X192511187Y-101574730D01*
X192518821Y-101589011D01*
X192533063Y-101657414D01*
X192508063Y-101722658D01*
X192451758Y-101764029D01*
X192409406Y-101771465D01*
X170308962Y-101761267D01*
X170241931Y-101741551D01*
X170213166Y-101715932D01*
X170100883Y-101579116D01*
X169948539Y-101454090D01*
X169948532Y-101454086D01*
X169774733Y-101361188D01*
X169774727Y-101361186D01*
X169648997Y-101323046D01*
X169586129Y-101303975D01*
X169390000Y-101284659D01*
X169193870Y-101303975D01*
X169005266Y-101361188D01*
X168831467Y-101454086D01*
X168831461Y-101454090D01*
X168773664Y-101501523D01*
X168709354Y-101528835D01*
X168640487Y-101517044D01*
X168616336Y-101501523D01*
X168558538Y-101454090D01*
X168558532Y-101454086D01*
X168384733Y-101361188D01*
X168384727Y-101361186D01*
X168258997Y-101323046D01*
X168196129Y-101303975D01*
X168000000Y-101284659D01*
X167803870Y-101303975D01*
X167615266Y-101361188D01*
X167441467Y-101454086D01*
X167441460Y-101454091D01*
X167398665Y-101489212D01*
X167334355Y-101516525D01*
X167265487Y-101504734D01*
X167241335Y-101489212D01*
X167198539Y-101454091D01*
X167198532Y-101454086D01*
X167024733Y-101361188D01*
X167024727Y-101361186D01*
X166898997Y-101323046D01*
X166836129Y-101303975D01*
X166640000Y-101284659D01*
X166443870Y-101303975D01*
X166255266Y-101361188D01*
X166081467Y-101454086D01*
X166081461Y-101454090D01*
X166033664Y-101493316D01*
X165969354Y-101520628D01*
X165900487Y-101508837D01*
X165876336Y-101493316D01*
X165828538Y-101454090D01*
X165828532Y-101454086D01*
X165654733Y-101361188D01*
X165654727Y-101361186D01*
X165528997Y-101323046D01*
X165466129Y-101303975D01*
X165270000Y-101284659D01*
X165073870Y-101303975D01*
X164885266Y-101361188D01*
X164711467Y-101454086D01*
X164711460Y-101454090D01*
X164589547Y-101554143D01*
X164525237Y-101581456D01*
X164456369Y-101569665D01*
X164432217Y-101554143D01*
X164322488Y-101464090D01*
X164322481Y-101464086D01*
X164148682Y-101371188D01*
X164148676Y-101371186D01*
X163960081Y-101313976D01*
X163960078Y-101313975D01*
X163763949Y-101294659D01*
X163567819Y-101313975D01*
X163379215Y-101371188D01*
X163205416Y-101464086D01*
X163205409Y-101464090D01*
X163048357Y-101592981D01*
X163047217Y-101591592D01*
X162993310Y-101621016D01*
X162923619Y-101616019D01*
X162886347Y-101592060D01*
X162885592Y-101592981D01*
X162728539Y-101464090D01*
X162728532Y-101464086D01*
X162554733Y-101371188D01*
X162554727Y-101371186D01*
X162366132Y-101313976D01*
X162366129Y-101313975D01*
X162170000Y-101294659D01*
X161973870Y-101313975D01*
X161785266Y-101371188D01*
X161611467Y-101464086D01*
X161611460Y-101464090D01*
X161459116Y-101589116D01*
X161358466Y-101711758D01*
X161300720Y-101751092D01*
X161262556Y-101757093D01*
X114598943Y-101735562D01*
X114531912Y-101715846D01*
X114486182Y-101663021D01*
X114475000Y-101611562D01*
X114475000Y-99729997D01*
X145714751Y-99729997D01*
X145714751Y-99730002D01*
X145733685Y-99898056D01*
X145789545Y-100057694D01*
X145789547Y-100057697D01*
X145879518Y-100200884D01*
X145879523Y-100200890D01*
X145999109Y-100320476D01*
X145999115Y-100320481D01*
X146142302Y-100410452D01*
X146142305Y-100410454D01*
X146142309Y-100410455D01*
X146142310Y-100410456D01*
X146204000Y-100432042D01*
X146301943Y-100466314D01*
X146469997Y-100485249D01*
X146470000Y-100485249D01*
X146470003Y-100485249D01*
X146638056Y-100466314D01*
X146673902Y-100453771D01*
X146797690Y-100410456D01*
X146797692Y-100410454D01*
X146797694Y-100410454D01*
X146797697Y-100410452D01*
X146940884Y-100320481D01*
X146940885Y-100320480D01*
X146940890Y-100320477D01*
X147060477Y-100200890D01*
X147060481Y-100200884D01*
X147150452Y-100057697D01*
X147150454Y-100057694D01*
X147150454Y-100057692D01*
X147150456Y-100057690D01*
X147151958Y-100053397D01*
X153811351Y-100053397D01*
X153811351Y-100053402D01*
X153830285Y-100221456D01*
X153886145Y-100381094D01*
X153886147Y-100381097D01*
X153976118Y-100524284D01*
X153976123Y-100524290D01*
X154095709Y-100643876D01*
X154095715Y-100643881D01*
X154238902Y-100733852D01*
X154238905Y-100733854D01*
X154238909Y-100733855D01*
X154238910Y-100733856D01*
X154245932Y-100736313D01*
X154398543Y-100789714D01*
X154566597Y-100808649D01*
X154566600Y-100808649D01*
X154566603Y-100808649D01*
X154685313Y-100795273D01*
X154734659Y-100789713D01*
X154894290Y-100733856D01*
X154944105Y-100702554D01*
X155011339Y-100683554D01*
X155051030Y-100690506D01*
X155091158Y-100704547D01*
X155181941Y-100736313D01*
X155223955Y-100741047D01*
X155349997Y-100755249D01*
X155350000Y-100755249D01*
X155350003Y-100755249D01*
X155518056Y-100736314D01*
X155525092Y-100733852D01*
X155677690Y-100680456D01*
X155677692Y-100680454D01*
X155677694Y-100680454D01*
X155677697Y-100680452D01*
X155820884Y-100590481D01*
X155820885Y-100590480D01*
X155820890Y-100590477D01*
X155940477Y-100470890D01*
X155941592Y-100469116D01*
X156030452Y-100327697D01*
X156030455Y-100327691D01*
X156030456Y-100327690D01*
X156069415Y-100216349D01*
X156110137Y-100159574D01*
X156175089Y-100133826D01*
X156212235Y-100136013D01*
X156366954Y-100168900D01*
X156366955Y-100168900D01*
X156556244Y-100168900D01*
X156556246Y-100168900D01*
X156741403Y-100129544D01*
X156914330Y-100052551D01*
X157067471Y-99941288D01*
X157194133Y-99800616D01*
X157288779Y-99636684D01*
X157347274Y-99456656D01*
X157367060Y-99268400D01*
X157347274Y-99080144D01*
X157291990Y-98909997D01*
X202424751Y-98909997D01*
X202424751Y-98910002D01*
X202443685Y-99078056D01*
X202499545Y-99237694D01*
X202499547Y-99237697D01*
X202589518Y-99380884D01*
X202589523Y-99380890D01*
X202709109Y-99500476D01*
X202709115Y-99500481D01*
X202852302Y-99590452D01*
X202852305Y-99590454D01*
X202852309Y-99590455D01*
X202852310Y-99590456D01*
X202924913Y-99615860D01*
X203011943Y-99646314D01*
X203179997Y-99665249D01*
X203180000Y-99665249D01*
X203180003Y-99665249D01*
X203348056Y-99646314D01*
X203375597Y-99636677D01*
X203507690Y-99590456D01*
X203507692Y-99590454D01*
X203507694Y-99590454D01*
X203507697Y-99590452D01*
X203650884Y-99500481D01*
X203650885Y-99500480D01*
X203650890Y-99500477D01*
X203770477Y-99380890D01*
X203777417Y-99369845D01*
X203860452Y-99237697D01*
X203860454Y-99237694D01*
X203860454Y-99237692D01*
X203860456Y-99237690D01*
X203916313Y-99078059D01*
X203916313Y-99078058D01*
X203916314Y-99078056D01*
X203935249Y-98910002D01*
X203935249Y-98909997D01*
X203916314Y-98741943D01*
X203871874Y-98614941D01*
X203860456Y-98582310D01*
X203860455Y-98582309D01*
X203860454Y-98582305D01*
X203860452Y-98582302D01*
X203770481Y-98439115D01*
X203770476Y-98439109D01*
X203650890Y-98319523D01*
X203650884Y-98319518D01*
X203507697Y-98229547D01*
X203507694Y-98229545D01*
X203348056Y-98173685D01*
X203180003Y-98154751D01*
X203179997Y-98154751D01*
X203011943Y-98173685D01*
X202852305Y-98229545D01*
X202852302Y-98229547D01*
X202709115Y-98319518D01*
X202709109Y-98319523D01*
X202589523Y-98439109D01*
X202589518Y-98439115D01*
X202499547Y-98582302D01*
X202499545Y-98582305D01*
X202443685Y-98741943D01*
X202424751Y-98909997D01*
X157291990Y-98909997D01*
X157288779Y-98900116D01*
X157194133Y-98736184D01*
X157067471Y-98595512D01*
X157067470Y-98595511D01*
X156914334Y-98484251D01*
X156914329Y-98484248D01*
X156741407Y-98407257D01*
X156741402Y-98407255D01*
X156591893Y-98375477D01*
X156556246Y-98367900D01*
X156366954Y-98367900D01*
X156334497Y-98374798D01*
X156181797Y-98407255D01*
X156181792Y-98407257D01*
X156008870Y-98484248D01*
X156008865Y-98484251D01*
X155855729Y-98595511D01*
X155729066Y-98736185D01*
X155634421Y-98900115D01*
X155634418Y-98900122D01*
X155579370Y-99069544D01*
X155575926Y-99080144D01*
X155573683Y-99101488D01*
X155569242Y-99143737D01*
X155542656Y-99208352D01*
X155485358Y-99248335D01*
X155432037Y-99253994D01*
X155350003Y-99244751D01*
X155349997Y-99244751D01*
X155181943Y-99263685D01*
X155022308Y-99319544D01*
X154972491Y-99350846D01*
X154905254Y-99369845D01*
X154865567Y-99362893D01*
X154734657Y-99317086D01*
X154566603Y-99298151D01*
X154566597Y-99298151D01*
X154398543Y-99317085D01*
X154238905Y-99372945D01*
X154238902Y-99372947D01*
X154095715Y-99462918D01*
X154095709Y-99462923D01*
X153976123Y-99582509D01*
X153976118Y-99582515D01*
X153886147Y-99725702D01*
X153886145Y-99725705D01*
X153830285Y-99885343D01*
X153811351Y-100053397D01*
X147151958Y-100053397D01*
X147206313Y-99898059D01*
X147206313Y-99898058D01*
X147206314Y-99898056D01*
X147225249Y-99730002D01*
X147225249Y-99729997D01*
X147206314Y-99561943D01*
X147157454Y-99422310D01*
X147150456Y-99402310D01*
X147150455Y-99402309D01*
X147150454Y-99402305D01*
X147150452Y-99402302D01*
X147060481Y-99259115D01*
X147060476Y-99259109D01*
X146940890Y-99139523D01*
X146940884Y-99139518D01*
X146797697Y-99049547D01*
X146797694Y-99049545D01*
X146638056Y-98993685D01*
X146470003Y-98974751D01*
X146469997Y-98974751D01*
X146301943Y-98993685D01*
X146142305Y-99049545D01*
X146142302Y-99049547D01*
X145999115Y-99139518D01*
X145999109Y-99139523D01*
X145879523Y-99259109D01*
X145879518Y-99259115D01*
X145789547Y-99402302D01*
X145789545Y-99402305D01*
X145733685Y-99561943D01*
X145714751Y-99729997D01*
X114475000Y-99729997D01*
X114475000Y-97769997D01*
X128244751Y-97769997D01*
X128244751Y-97770002D01*
X128263685Y-97938056D01*
X128319545Y-98097694D01*
X128319547Y-98097697D01*
X128409518Y-98240884D01*
X128409523Y-98240890D01*
X128529109Y-98360476D01*
X128529115Y-98360481D01*
X128672302Y-98450452D01*
X128672305Y-98450454D01*
X128672309Y-98450455D01*
X128672310Y-98450456D01*
X128716418Y-98465890D01*
X128831943Y-98506314D01*
X128999997Y-98525249D01*
X129000000Y-98525249D01*
X129000003Y-98525249D01*
X129168056Y-98506314D01*
X129168059Y-98506313D01*
X129327690Y-98450456D01*
X129327692Y-98450454D01*
X129327694Y-98450454D01*
X129327697Y-98450452D01*
X129470884Y-98360481D01*
X129470885Y-98360480D01*
X129470890Y-98360477D01*
X129590477Y-98240890D01*
X129590481Y-98240884D01*
X129653873Y-98139997D01*
X131184751Y-98139997D01*
X131184751Y-98140002D01*
X131203685Y-98308056D01*
X131259545Y-98467694D01*
X131259547Y-98467697D01*
X131349518Y-98610884D01*
X131349523Y-98610890D01*
X131469109Y-98730476D01*
X131469115Y-98730481D01*
X131612302Y-98820452D01*
X131612305Y-98820454D01*
X131612309Y-98820455D01*
X131612310Y-98820456D01*
X131684913Y-98845860D01*
X131771943Y-98876314D01*
X131939997Y-98895249D01*
X131940000Y-98895249D01*
X131940003Y-98895249D01*
X132108056Y-98876314D01*
X132108059Y-98876313D01*
X132267690Y-98820456D01*
X132267692Y-98820454D01*
X132267694Y-98820454D01*
X132267697Y-98820452D01*
X132410884Y-98730481D01*
X132410885Y-98730480D01*
X132410890Y-98730477D01*
X132530477Y-98610890D01*
X132540140Y-98595512D01*
X132620452Y-98467697D01*
X132620454Y-98467694D01*
X132620454Y-98467692D01*
X132620456Y-98467690D01*
X132676313Y-98308059D01*
X132676313Y-98308058D01*
X132676314Y-98308056D01*
X132695249Y-98140002D01*
X132695249Y-98139997D01*
X132676314Y-97971943D01*
X132643662Y-97878630D01*
X132620456Y-97812310D01*
X132620454Y-97812307D01*
X132620454Y-97812306D01*
X132586910Y-97758922D01*
X132532112Y-97671712D01*
X132513112Y-97604478D01*
X132533479Y-97537643D01*
X132586747Y-97492429D01*
X132650989Y-97482522D01*
X132763945Y-97495249D01*
X132763949Y-97495249D01*
X132763952Y-97495249D01*
X132932005Y-97476314D01*
X132950044Y-97470002D01*
X132950058Y-97469997D01*
X133954751Y-97469997D01*
X133954751Y-97470002D01*
X133973685Y-97638056D01*
X134029545Y-97797694D01*
X134029547Y-97797697D01*
X134119518Y-97940884D01*
X134119523Y-97940890D01*
X134239109Y-98060476D01*
X134239115Y-98060481D01*
X134382302Y-98150452D01*
X134382305Y-98150454D01*
X134382309Y-98150455D01*
X134382310Y-98150456D01*
X134448695Y-98173685D01*
X134541943Y-98206314D01*
X134709997Y-98225249D01*
X134710000Y-98225249D01*
X134710003Y-98225249D01*
X134878056Y-98206314D01*
X134878059Y-98206313D01*
X135037690Y-98150456D01*
X135037692Y-98150454D01*
X135037694Y-98150454D01*
X135037697Y-98150452D01*
X135180884Y-98060481D01*
X135180885Y-98060480D01*
X135180890Y-98060477D01*
X135300477Y-97940890D01*
X135372075Y-97826943D01*
X135390452Y-97797697D01*
X135390454Y-97797694D01*
X135390454Y-97797692D01*
X135390456Y-97797690D01*
X135394897Y-97784997D01*
X209924751Y-97784997D01*
X209924751Y-97785002D01*
X209943685Y-97953056D01*
X209999545Y-98112694D01*
X209999547Y-98112697D01*
X210089518Y-98255884D01*
X210089523Y-98255890D01*
X210209109Y-98375476D01*
X210209115Y-98375481D01*
X210352302Y-98465452D01*
X210352305Y-98465454D01*
X210352309Y-98465455D01*
X210352310Y-98465456D01*
X210424913Y-98490860D01*
X210511943Y-98521314D01*
X210679997Y-98540249D01*
X210680000Y-98540249D01*
X210680003Y-98540249D01*
X210848056Y-98521314D01*
X210851454Y-98520125D01*
X211007690Y-98465456D01*
X211007692Y-98465454D01*
X211007694Y-98465454D01*
X211007697Y-98465452D01*
X211150884Y-98375481D01*
X211150885Y-98375480D01*
X211150890Y-98375477D01*
X211270477Y-98255890D01*
X211270481Y-98255884D01*
X211360452Y-98112697D01*
X211360454Y-98112694D01*
X211360454Y-98112692D01*
X211360456Y-98112690D01*
X211416313Y-97953059D01*
X211416313Y-97953058D01*
X211416314Y-97953056D01*
X211424700Y-97878625D01*
X212267870Y-97878625D01*
X212267870Y-97878630D01*
X212286804Y-98046684D01*
X212342664Y-98206322D01*
X212342666Y-98206325D01*
X212432637Y-98349512D01*
X212432642Y-98349518D01*
X212552228Y-98469104D01*
X212552234Y-98469109D01*
X212695421Y-98559080D01*
X212695424Y-98559082D01*
X212695428Y-98559083D01*
X212695429Y-98559084D01*
X212768032Y-98584488D01*
X212855062Y-98614942D01*
X213023116Y-98633877D01*
X213023119Y-98633877D01*
X213023122Y-98633877D01*
X213123954Y-98622515D01*
X213191178Y-98614941D01*
X213350809Y-98559084D01*
X213362248Y-98551896D01*
X213429481Y-98532895D01*
X213469172Y-98539846D01*
X213501941Y-98551313D01*
X213501944Y-98551313D01*
X213501946Y-98551314D01*
X213669997Y-98570249D01*
X213670000Y-98570249D01*
X213670003Y-98570249D01*
X213838056Y-98551314D01*
X213870827Y-98539847D01*
X213997690Y-98495456D01*
X213997692Y-98495454D01*
X213997694Y-98495454D01*
X213997697Y-98495452D01*
X214140884Y-98405481D01*
X214140885Y-98405480D01*
X214140890Y-98405477D01*
X214166461Y-98379906D01*
X214227784Y-98346421D01*
X214297476Y-98351405D01*
X214353409Y-98393277D01*
X214359135Y-98401614D01*
X214399521Y-98465888D01*
X214519109Y-98585476D01*
X214519115Y-98585481D01*
X214662302Y-98675452D01*
X214662305Y-98675454D01*
X214662309Y-98675455D01*
X214662310Y-98675456D01*
X214734913Y-98700860D01*
X214821943Y-98731314D01*
X214989997Y-98750249D01*
X214990000Y-98750249D01*
X214990003Y-98750249D01*
X215158056Y-98731314D01*
X215160451Y-98730476D01*
X215317690Y-98675456D01*
X215317692Y-98675454D01*
X215317694Y-98675454D01*
X215317697Y-98675452D01*
X215460884Y-98585481D01*
X215460885Y-98585480D01*
X215460890Y-98585477D01*
X215580477Y-98465890D01*
X215590176Y-98450454D01*
X215670452Y-98322697D01*
X215670454Y-98322694D01*
X215670454Y-98322692D01*
X215670456Y-98322690D01*
X215726313Y-98163059D01*
X215726313Y-98163058D01*
X215726314Y-98163056D01*
X215745249Y-97995002D01*
X215745249Y-97994997D01*
X216174751Y-97994997D01*
X216174751Y-97995002D01*
X216193685Y-98163056D01*
X216249545Y-98322694D01*
X216249547Y-98322697D01*
X216339518Y-98465884D01*
X216339523Y-98465890D01*
X216459109Y-98585476D01*
X216459115Y-98585481D01*
X216602302Y-98675452D01*
X216602305Y-98675454D01*
X216602309Y-98675455D01*
X216602310Y-98675456D01*
X216674913Y-98700860D01*
X216761943Y-98731314D01*
X216929997Y-98750249D01*
X216930000Y-98750249D01*
X216930003Y-98750249D01*
X217098056Y-98731314D01*
X217100451Y-98730476D01*
X217257690Y-98675456D01*
X217257692Y-98675454D01*
X217257694Y-98675454D01*
X217257697Y-98675452D01*
X217400884Y-98585481D01*
X217400885Y-98585480D01*
X217400890Y-98585477D01*
X217520477Y-98465890D01*
X217530176Y-98450454D01*
X217610452Y-98322697D01*
X217610454Y-98322694D01*
X217610454Y-98322692D01*
X217610456Y-98322690D01*
X217666313Y-98163059D01*
X217666313Y-98163058D01*
X217666314Y-98163056D01*
X217685249Y-97995002D01*
X217685249Y-97994997D01*
X217666314Y-97826943D01*
X217651636Y-97784997D01*
X219114751Y-97784997D01*
X219114751Y-97785002D01*
X219133685Y-97953056D01*
X219189545Y-98112694D01*
X219189547Y-98112697D01*
X219279518Y-98255884D01*
X219279523Y-98255890D01*
X219399109Y-98375476D01*
X219399115Y-98375481D01*
X219542302Y-98465452D01*
X219542305Y-98465454D01*
X219542309Y-98465455D01*
X219542310Y-98465456D01*
X219614913Y-98490860D01*
X219701943Y-98521314D01*
X219869997Y-98540249D01*
X219870000Y-98540249D01*
X219870003Y-98540249D01*
X220038056Y-98521314D01*
X220041454Y-98520125D01*
X220197690Y-98465456D01*
X220197692Y-98465454D01*
X220197694Y-98465454D01*
X220197697Y-98465452D01*
X220340884Y-98375481D01*
X220340885Y-98375480D01*
X220340890Y-98375477D01*
X220460477Y-98255890D01*
X220460481Y-98255884D01*
X220550452Y-98112697D01*
X220550454Y-98112694D01*
X220550454Y-98112692D01*
X220550456Y-98112690D01*
X220606313Y-97953059D01*
X220606313Y-97953058D01*
X220606314Y-97953056D01*
X220625249Y-97785002D01*
X220625249Y-97784997D01*
X220606314Y-97616943D01*
X220563731Y-97495249D01*
X220550456Y-97457310D01*
X220550455Y-97457309D01*
X220550454Y-97457305D01*
X220550452Y-97457302D01*
X220460481Y-97314115D01*
X220460476Y-97314109D01*
X220340890Y-97194523D01*
X220340884Y-97194518D01*
X220197697Y-97104547D01*
X220197694Y-97104545D01*
X220038056Y-97048685D01*
X219870003Y-97029751D01*
X219869997Y-97029751D01*
X219701943Y-97048685D01*
X219542305Y-97104545D01*
X219542302Y-97104547D01*
X219399115Y-97194518D01*
X219399109Y-97194523D01*
X219279523Y-97314109D01*
X219279518Y-97314115D01*
X219189547Y-97457302D01*
X219189545Y-97457305D01*
X219133685Y-97616943D01*
X219114751Y-97784997D01*
X217651636Y-97784997D01*
X217635860Y-97739913D01*
X217610456Y-97667310D01*
X217610455Y-97667309D01*
X217610454Y-97667305D01*
X217610452Y-97667302D01*
X217520481Y-97524115D01*
X217520476Y-97524109D01*
X217400890Y-97404523D01*
X217400884Y-97404518D01*
X217257697Y-97314547D01*
X217257694Y-97314545D01*
X217098056Y-97258685D01*
X216930003Y-97239751D01*
X216929997Y-97239751D01*
X216761943Y-97258685D01*
X216602305Y-97314545D01*
X216602302Y-97314547D01*
X216459115Y-97404518D01*
X216459109Y-97404523D01*
X216339523Y-97524109D01*
X216339518Y-97524115D01*
X216249547Y-97667302D01*
X216249545Y-97667305D01*
X216193685Y-97826943D01*
X216174751Y-97994997D01*
X215745249Y-97994997D01*
X215726314Y-97826943D01*
X215695860Y-97739913D01*
X215670456Y-97667310D01*
X215670455Y-97667309D01*
X215670454Y-97667305D01*
X215670452Y-97667302D01*
X215580481Y-97524115D01*
X215580476Y-97524109D01*
X215460890Y-97404523D01*
X215460884Y-97404518D01*
X215317697Y-97314547D01*
X215317694Y-97314545D01*
X215158056Y-97258685D01*
X214990003Y-97239751D01*
X214989997Y-97239751D01*
X214821943Y-97258685D01*
X214662305Y-97314545D01*
X214662302Y-97314547D01*
X214519115Y-97404518D01*
X214519107Y-97404525D01*
X214493535Y-97430096D01*
X214432211Y-97463579D01*
X214362520Y-97458592D01*
X214306587Y-97416719D01*
X214300863Y-97408384D01*
X214300457Y-97407738D01*
X214260477Y-97344110D01*
X214140890Y-97224523D01*
X214140884Y-97224518D01*
X213997697Y-97134547D01*
X213997694Y-97134545D01*
X213838056Y-97078685D01*
X213670003Y-97059751D01*
X213669997Y-97059751D01*
X213501943Y-97078685D01*
X213342308Y-97134544D01*
X213330868Y-97141733D01*
X213263630Y-97160732D01*
X213223944Y-97153780D01*
X213191175Y-97142314D01*
X213023122Y-97123379D01*
X213023116Y-97123379D01*
X212855062Y-97142313D01*
X212695424Y-97198173D01*
X212695421Y-97198175D01*
X212552234Y-97288146D01*
X212552228Y-97288151D01*
X212432642Y-97407737D01*
X212432637Y-97407743D01*
X212342666Y-97550930D01*
X212342664Y-97550933D01*
X212286804Y-97710571D01*
X212267870Y-97878625D01*
X211424700Y-97878625D01*
X211435249Y-97785002D01*
X211435249Y-97784997D01*
X211416314Y-97616943D01*
X211373731Y-97495249D01*
X211360456Y-97457310D01*
X211360455Y-97457309D01*
X211360454Y-97457305D01*
X211360452Y-97457302D01*
X211270480Y-97314114D01*
X211269658Y-97313083D01*
X211269334Y-97312290D01*
X211266773Y-97308214D01*
X211267486Y-97307765D01*
X211243247Y-97248397D01*
X211256001Y-97179701D01*
X211300627Y-97130775D01*
X211340890Y-97105477D01*
X211460477Y-96985890D01*
X211460481Y-96985884D01*
X211550452Y-96842697D01*
X211550454Y-96842694D01*
X211550454Y-96842692D01*
X211550456Y-96842690D01*
X211606313Y-96683059D01*
X211606313Y-96683058D01*
X211606314Y-96683056D01*
X211625249Y-96515002D01*
X211625249Y-96514997D01*
X211606314Y-96346943D01*
X211550454Y-96187305D01*
X211550452Y-96187302D01*
X211460481Y-96044115D01*
X211460476Y-96044109D01*
X211340890Y-95924523D01*
X211340884Y-95924518D01*
X211197697Y-95834547D01*
X211197694Y-95834545D01*
X211038056Y-95778685D01*
X210870003Y-95759751D01*
X210869997Y-95759751D01*
X210701943Y-95778685D01*
X210542305Y-95834545D01*
X210542302Y-95834547D01*
X210399115Y-95924518D01*
X210399109Y-95924523D01*
X210279523Y-96044109D01*
X210279518Y-96044115D01*
X210189547Y-96187302D01*
X210189545Y-96187305D01*
X210133685Y-96346943D01*
X210114751Y-96514997D01*
X210114751Y-96515002D01*
X210133685Y-96683056D01*
X210189545Y-96842694D01*
X210189547Y-96842697D01*
X210279518Y-96985884D01*
X210280343Y-96986918D01*
X210280667Y-96987712D01*
X210283227Y-96991786D01*
X210282513Y-96992234D01*
X210306752Y-97051604D01*
X210293997Y-97120300D01*
X210249370Y-97169225D01*
X210209112Y-97194521D01*
X210209109Y-97194523D01*
X210089523Y-97314109D01*
X210089518Y-97314115D01*
X209999547Y-97457302D01*
X209999545Y-97457305D01*
X209943685Y-97616943D01*
X209924751Y-97784997D01*
X135394897Y-97784997D01*
X135446313Y-97638059D01*
X135446313Y-97638058D01*
X135446314Y-97638056D01*
X135465249Y-97470002D01*
X135465249Y-97469997D01*
X135446314Y-97301943D01*
X135408724Y-97194518D01*
X135390456Y-97142310D01*
X135390455Y-97142309D01*
X135390454Y-97142305D01*
X135390452Y-97142302D01*
X135300481Y-96999115D01*
X135300476Y-96999109D01*
X135180890Y-96879523D01*
X135180884Y-96879518D01*
X135037697Y-96789547D01*
X135037694Y-96789545D01*
X134878056Y-96733685D01*
X134710003Y-96714751D01*
X134709997Y-96714751D01*
X134541943Y-96733685D01*
X134382305Y-96789545D01*
X134382302Y-96789547D01*
X134239115Y-96879518D01*
X134239109Y-96879523D01*
X134119523Y-96999109D01*
X134119518Y-96999115D01*
X134029547Y-97142302D01*
X134029545Y-97142305D01*
X133973685Y-97301943D01*
X133954751Y-97469997D01*
X132950058Y-97469997D01*
X133091639Y-97420456D01*
X133091641Y-97420454D01*
X133091643Y-97420454D01*
X133091646Y-97420452D01*
X133234833Y-97330481D01*
X133234834Y-97330480D01*
X133234839Y-97330477D01*
X133354426Y-97210890D01*
X133354430Y-97210884D01*
X133444401Y-97067697D01*
X133444403Y-97067694D01*
X133444403Y-97067692D01*
X133444405Y-97067690D01*
X133500262Y-96908059D01*
X133500262Y-96908058D01*
X133500263Y-96908056D01*
X133519198Y-96740002D01*
X133519198Y-96739997D01*
X133500263Y-96571943D01*
X133456012Y-96445481D01*
X133444405Y-96412310D01*
X133444404Y-96412309D01*
X133444403Y-96412305D01*
X133444401Y-96412302D01*
X133354430Y-96269115D01*
X133354425Y-96269109D01*
X133234839Y-96149523D01*
X133234833Y-96149518D01*
X133091646Y-96059547D01*
X133091643Y-96059545D01*
X132932005Y-96003685D01*
X132763952Y-95984751D01*
X132763946Y-95984751D01*
X132595892Y-96003685D01*
X132436256Y-96059545D01*
X132419986Y-96069768D01*
X132352749Y-96088766D01*
X132294412Y-96071638D01*
X132293966Y-96072566D01*
X132288335Y-96069854D01*
X132288054Y-96069772D01*
X132287693Y-96069545D01*
X132287694Y-96069545D01*
X132128056Y-96013685D01*
X131960003Y-95994751D01*
X131959997Y-95994751D01*
X131791943Y-96013685D01*
X131632305Y-96069545D01*
X131632302Y-96069547D01*
X131489115Y-96159518D01*
X131489109Y-96159523D01*
X131369523Y-96279109D01*
X131369518Y-96279115D01*
X131279547Y-96422302D01*
X131279545Y-96422305D01*
X131223685Y-96581943D01*
X131204751Y-96749997D01*
X131204751Y-96750002D01*
X131223685Y-96918056D01*
X131279545Y-97077694D01*
X131279547Y-97077697D01*
X131369518Y-97220884D01*
X131369523Y-97220890D01*
X131489110Y-97340477D01*
X131489115Y-97340480D01*
X131490276Y-97341406D01*
X131490834Y-97342201D01*
X131494034Y-97345401D01*
X131493473Y-97345961D01*
X131530417Y-97398594D01*
X131533267Y-97468406D01*
X131497922Y-97528676D01*
X131478942Y-97543344D01*
X131469113Y-97549520D01*
X131469109Y-97549523D01*
X131349523Y-97669109D01*
X131349518Y-97669115D01*
X131259547Y-97812302D01*
X131259545Y-97812305D01*
X131203685Y-97971943D01*
X131184751Y-98139997D01*
X129653873Y-98139997D01*
X129680452Y-98097697D01*
X129680454Y-98097694D01*
X129680454Y-98097692D01*
X129680456Y-98097690D01*
X129736313Y-97938059D01*
X129736313Y-97938058D01*
X129736314Y-97938056D01*
X129755249Y-97770002D01*
X129755249Y-97769997D01*
X129736314Y-97601943D01*
X129686153Y-97458592D01*
X129680456Y-97442310D01*
X129680455Y-97442309D01*
X129680454Y-97442305D01*
X129680452Y-97442302D01*
X129590481Y-97299115D01*
X129590476Y-97299109D01*
X129470890Y-97179523D01*
X129470884Y-97179518D01*
X129327697Y-97089547D01*
X129327694Y-97089545D01*
X129168056Y-97033685D01*
X129000003Y-97014751D01*
X128999997Y-97014751D01*
X128831943Y-97033685D01*
X128672305Y-97089545D01*
X128672302Y-97089547D01*
X128529115Y-97179518D01*
X128529109Y-97179523D01*
X128409523Y-97299109D01*
X128409518Y-97299115D01*
X128319547Y-97442302D01*
X128319545Y-97442305D01*
X128263685Y-97601943D01*
X128244751Y-97769997D01*
X114475000Y-97769997D01*
X114475000Y-94531046D01*
X139078702Y-94531046D01*
X139078702Y-94531051D01*
X139097636Y-94699105D01*
X139153496Y-94858743D01*
X139153498Y-94858746D01*
X139243469Y-95001933D01*
X139243474Y-95001939D01*
X139363060Y-95121525D01*
X139363066Y-95121530D01*
X139506253Y-95211501D01*
X139506256Y-95211503D01*
X139506260Y-95211504D01*
X139506261Y-95211505D01*
X139578864Y-95236909D01*
X139665894Y-95267363D01*
X139833948Y-95286298D01*
X139833951Y-95286298D01*
X139833954Y-95286298D01*
X140002007Y-95267363D01*
X140021689Y-95260476D01*
X140161641Y-95211505D01*
X140161643Y-95211503D01*
X140161645Y-95211503D01*
X140161648Y-95211501D01*
X140304835Y-95121530D01*
X140304836Y-95121529D01*
X140304841Y-95121526D01*
X140424428Y-95001939D01*
X140424432Y-95001933D01*
X140514403Y-94858746D01*
X140514405Y-94858743D01*
X140514405Y-94858741D01*
X140514407Y-94858739D01*
X140570264Y-94699108D01*
X140570264Y-94699107D01*
X140570265Y-94699105D01*
X140573545Y-94669997D01*
X149564751Y-94669997D01*
X149564751Y-94670002D01*
X149583685Y-94838056D01*
X149639545Y-94997694D01*
X149639547Y-94997697D01*
X149729518Y-95140884D01*
X149729523Y-95140890D01*
X149849109Y-95260476D01*
X149849115Y-95260481D01*
X149992302Y-95350452D01*
X149992305Y-95350454D01*
X149992309Y-95350455D01*
X149992310Y-95350456D01*
X150064913Y-95375860D01*
X150151943Y-95406314D01*
X150319997Y-95425249D01*
X150320000Y-95425249D01*
X150320003Y-95425249D01*
X150420835Y-95413887D01*
X150488059Y-95406313D01*
X150647690Y-95350456D01*
X150674941Y-95333332D01*
X150742175Y-95314331D01*
X150794886Y-95329816D01*
X150796034Y-95327434D01*
X150802305Y-95330454D01*
X150802309Y-95330455D01*
X150802310Y-95330456D01*
X150859456Y-95350452D01*
X150961943Y-95386314D01*
X151129997Y-95405249D01*
X151130000Y-95405249D01*
X151130003Y-95405249D01*
X151298056Y-95386314D01*
X151298059Y-95386313D01*
X151457690Y-95330456D01*
X151457692Y-95330454D01*
X151457694Y-95330454D01*
X151457697Y-95330452D01*
X151600884Y-95240481D01*
X151600885Y-95240480D01*
X151600890Y-95240477D01*
X151720477Y-95120890D01*
X151721959Y-95118532D01*
X151810452Y-94977697D01*
X151810454Y-94977694D01*
X151810454Y-94977692D01*
X151810456Y-94977690D01*
X151866313Y-94818059D01*
X151866313Y-94818058D01*
X151866314Y-94818056D01*
X151881869Y-94680000D01*
X153484540Y-94680000D01*
X153504326Y-94868256D01*
X153504327Y-94868259D01*
X153562818Y-95048277D01*
X153562821Y-95048284D01*
X153657467Y-95212216D01*
X153763929Y-95330454D01*
X153784129Y-95352888D01*
X153937265Y-95464148D01*
X153937270Y-95464151D01*
X154110192Y-95541142D01*
X154110197Y-95541144D01*
X154295354Y-95580500D01*
X154295355Y-95580500D01*
X154484644Y-95580500D01*
X154484646Y-95580500D01*
X154669803Y-95541144D01*
X154842730Y-95464151D01*
X154995871Y-95352888D01*
X155122533Y-95212216D01*
X155217179Y-95048284D01*
X155275674Y-94868256D01*
X155295460Y-94680000D01*
X155282848Y-94560000D01*
X176874659Y-94560000D01*
X176893975Y-94756129D01*
X176893976Y-94756132D01*
X176937756Y-94900456D01*
X176951188Y-94944733D01*
X177044086Y-95118532D01*
X177044090Y-95118539D01*
X177169116Y-95270883D01*
X177321460Y-95395909D01*
X177321467Y-95395913D01*
X177495266Y-95488811D01*
X177495269Y-95488811D01*
X177495273Y-95488814D01*
X177683868Y-95546024D01*
X177880000Y-95565341D01*
X178076132Y-95546024D01*
X178264727Y-95488814D01*
X178265242Y-95488539D01*
X178354624Y-95440763D01*
X178438538Y-95395910D01*
X178588664Y-95272704D01*
X204245711Y-95272704D01*
X204245711Y-95272709D01*
X204264645Y-95440763D01*
X204320505Y-95600401D01*
X204320507Y-95600404D01*
X204410478Y-95743591D01*
X204410483Y-95743597D01*
X204530069Y-95863183D01*
X204530075Y-95863188D01*
X204673262Y-95953159D01*
X204673265Y-95953161D01*
X204673269Y-95953162D01*
X204673270Y-95953163D01*
X204742987Y-95977558D01*
X204832903Y-96009021D01*
X205000957Y-96027956D01*
X205000960Y-96027956D01*
X205000963Y-96027956D01*
X205127617Y-96013685D01*
X205169019Y-96009020D01*
X205328650Y-95953163D01*
X205328654Y-95953160D01*
X205329581Y-95952836D01*
X205399360Y-95949273D01*
X205411475Y-95952830D01*
X205482141Y-95977558D01*
X205482142Y-95977558D01*
X205482145Y-95977559D01*
X205650197Y-95996494D01*
X205650200Y-95996494D01*
X205650203Y-95996494D01*
X205818259Y-95977558D01*
X205818260Y-95977558D01*
X205957359Y-95928885D01*
X206027138Y-95925323D01*
X206039262Y-95928883D01*
X206108650Y-95953163D01*
X206131944Y-95961314D01*
X206299997Y-95980249D01*
X206300000Y-95980249D01*
X206300003Y-95980249D01*
X206468056Y-95961314D01*
X206492285Y-95952836D01*
X206627690Y-95905456D01*
X206627692Y-95905454D01*
X206627694Y-95905454D01*
X206627697Y-95905452D01*
X206770884Y-95815481D01*
X206770885Y-95815480D01*
X206770890Y-95815477D01*
X206890477Y-95695890D01*
X206896100Y-95686941D01*
X206980452Y-95552697D01*
X206980454Y-95552694D01*
X206980454Y-95552692D01*
X206980456Y-95552690D01*
X207030386Y-95409997D01*
X214634751Y-95409997D01*
X214634751Y-95410002D01*
X214653685Y-95578056D01*
X214709545Y-95737694D01*
X214709547Y-95737697D01*
X214799518Y-95880884D01*
X214799523Y-95880890D01*
X214919109Y-96000476D01*
X214919115Y-96000481D01*
X215062302Y-96090452D01*
X215062305Y-96090454D01*
X215062309Y-96090455D01*
X215062310Y-96090456D01*
X215134913Y-96115860D01*
X215221943Y-96146314D01*
X215389997Y-96165249D01*
X215390000Y-96165249D01*
X215390003Y-96165249D01*
X215558056Y-96146314D01*
X215558059Y-96146313D01*
X215717690Y-96090456D01*
X215717692Y-96090454D01*
X215717694Y-96090454D01*
X215717697Y-96090452D01*
X215860884Y-96000481D01*
X215860885Y-96000480D01*
X215860890Y-96000477D01*
X215980477Y-95880890D01*
X215991600Y-95863188D01*
X215996747Y-95854997D01*
X217244751Y-95854997D01*
X217244751Y-95855002D01*
X217263685Y-96023056D01*
X217319545Y-96182694D01*
X217319547Y-96182697D01*
X217409518Y-96325884D01*
X217409523Y-96325890D01*
X217529109Y-96445476D01*
X217529115Y-96445481D01*
X217672302Y-96535452D01*
X217672305Y-96535454D01*
X217672309Y-96535455D01*
X217672310Y-96535456D01*
X217744913Y-96560860D01*
X217831943Y-96591314D01*
X217999997Y-96610249D01*
X218000000Y-96610249D01*
X218000003Y-96610249D01*
X218168056Y-96591314D01*
X218194837Y-96581943D01*
X218327690Y-96535456D01*
X218327692Y-96535454D01*
X218327694Y-96535454D01*
X218327697Y-96535452D01*
X218470884Y-96445481D01*
X218470885Y-96445480D01*
X218470890Y-96445477D01*
X218590477Y-96325890D01*
X218619872Y-96279109D01*
X218680452Y-96182697D01*
X218680454Y-96182694D01*
X218680454Y-96182692D01*
X218680456Y-96182690D01*
X218736313Y-96023059D01*
X218736313Y-96023058D01*
X218736314Y-96023056D01*
X218755249Y-95855002D01*
X218755249Y-95854997D01*
X218736314Y-95686943D01*
X218698213Y-95578056D01*
X218680456Y-95527310D01*
X218680455Y-95527309D01*
X218680454Y-95527305D01*
X218680452Y-95527302D01*
X218590481Y-95384115D01*
X218590476Y-95384109D01*
X218470890Y-95264523D01*
X218470884Y-95264518D01*
X218327697Y-95174547D01*
X218327694Y-95174545D01*
X218168056Y-95118685D01*
X218000003Y-95099751D01*
X217999997Y-95099751D01*
X217831943Y-95118685D01*
X217672305Y-95174545D01*
X217672302Y-95174547D01*
X217529115Y-95264518D01*
X217529109Y-95264523D01*
X217409523Y-95384109D01*
X217409518Y-95384115D01*
X217319547Y-95527302D01*
X217319545Y-95527305D01*
X217263685Y-95686943D01*
X217244751Y-95854997D01*
X215996747Y-95854997D01*
X216070452Y-95737697D01*
X216070454Y-95737694D01*
X216070454Y-95737692D01*
X216070456Y-95737690D01*
X216126313Y-95578059D01*
X216126313Y-95578058D01*
X216126314Y-95578056D01*
X216145249Y-95410002D01*
X216145249Y-95409997D01*
X216126314Y-95241943D01*
X216085789Y-95126129D01*
X216070456Y-95082310D01*
X216070455Y-95082309D01*
X216070454Y-95082305D01*
X216070452Y-95082302D01*
X215980481Y-94939115D01*
X215980476Y-94939109D01*
X215860890Y-94819523D01*
X215860884Y-94819518D01*
X215717697Y-94729547D01*
X215717694Y-94729545D01*
X215558056Y-94673685D01*
X215390003Y-94654751D01*
X215389997Y-94654751D01*
X215221943Y-94673685D01*
X215062305Y-94729545D01*
X215062302Y-94729547D01*
X214919115Y-94819518D01*
X214919109Y-94819523D01*
X214799523Y-94939109D01*
X214799518Y-94939115D01*
X214709547Y-95082302D01*
X214709545Y-95082305D01*
X214653685Y-95241943D01*
X214634751Y-95409997D01*
X207030386Y-95409997D01*
X207036313Y-95393059D01*
X207036313Y-95393058D01*
X207036314Y-95393056D01*
X207055249Y-95225002D01*
X207055249Y-95224997D01*
X207036314Y-95056943D01*
X206997149Y-94945017D01*
X206980456Y-94897310D01*
X206980455Y-94897309D01*
X206980454Y-94897305D01*
X206980452Y-94897302D01*
X206890481Y-94754115D01*
X206890476Y-94754109D01*
X206770890Y-94634523D01*
X206770884Y-94634518D01*
X206627697Y-94544547D01*
X206627694Y-94544545D01*
X206468056Y-94488685D01*
X206300003Y-94469751D01*
X206299997Y-94469751D01*
X206131940Y-94488686D01*
X206131938Y-94488686D01*
X206114509Y-94494785D01*
X206044730Y-94498344D01*
X205984104Y-94463613D01*
X205951879Y-94401619D01*
X205956518Y-94336787D01*
X205961586Y-94322305D01*
X205976230Y-94280454D01*
X205996313Y-94223060D01*
X205996313Y-94223059D01*
X205996658Y-94219997D01*
X210624751Y-94219997D01*
X210624751Y-94220002D01*
X210643685Y-94388056D01*
X210699545Y-94547694D01*
X210699547Y-94547697D01*
X210789518Y-94690884D01*
X210789523Y-94690890D01*
X210909109Y-94810476D01*
X210909115Y-94810481D01*
X211052302Y-94900452D01*
X211052305Y-94900454D01*
X211052309Y-94900455D01*
X211052310Y-94900456D01*
X211124913Y-94925860D01*
X211211943Y-94956314D01*
X211379997Y-94975249D01*
X211380000Y-94975249D01*
X211380003Y-94975249D01*
X211548056Y-94956314D01*
X211580341Y-94945017D01*
X211707690Y-94900456D01*
X211707692Y-94900454D01*
X211707694Y-94900454D01*
X211707697Y-94900452D01*
X211850884Y-94810481D01*
X211850885Y-94810480D01*
X211850890Y-94810477D01*
X211970477Y-94690890D01*
X211970481Y-94690884D01*
X212060452Y-94547697D01*
X212060454Y-94547694D01*
X212060454Y-94547692D01*
X212060456Y-94547690D01*
X212116313Y-94388059D01*
X212116313Y-94388058D01*
X212116314Y-94388056D01*
X212135249Y-94220002D01*
X212135249Y-94219997D01*
X212116314Y-94051943D01*
X212085860Y-93964913D01*
X212060456Y-93892310D01*
X212060455Y-93892309D01*
X212060454Y-93892305D01*
X212060452Y-93892302D01*
X211970481Y-93749115D01*
X211970476Y-93749109D01*
X211850890Y-93629523D01*
X211850884Y-93629518D01*
X211707697Y-93539547D01*
X211707694Y-93539545D01*
X211548056Y-93483685D01*
X211380003Y-93464751D01*
X211379997Y-93464751D01*
X211211943Y-93483685D01*
X211052305Y-93539545D01*
X211052302Y-93539547D01*
X210909115Y-93629518D01*
X210909109Y-93629523D01*
X210789523Y-93749109D01*
X210789518Y-93749115D01*
X210699547Y-93892302D01*
X210699545Y-93892305D01*
X210643685Y-94051943D01*
X210624751Y-94219997D01*
X205996658Y-94219997D01*
X206015249Y-94055002D01*
X206015249Y-94054997D01*
X205996314Y-93886943D01*
X205954715Y-93768059D01*
X205940456Y-93727310D01*
X205940455Y-93727309D01*
X205940454Y-93727305D01*
X205940452Y-93727302D01*
X205850481Y-93584115D01*
X205850476Y-93584109D01*
X205730890Y-93464523D01*
X205730884Y-93464518D01*
X205587697Y-93374547D01*
X205587694Y-93374545D01*
X205428056Y-93318685D01*
X205260003Y-93299751D01*
X205259997Y-93299751D01*
X205091943Y-93318685D01*
X204932305Y-93374545D01*
X204932302Y-93374547D01*
X204789115Y-93464518D01*
X204789109Y-93464523D01*
X204669523Y-93584109D01*
X204669518Y-93584115D01*
X204579547Y-93727302D01*
X204579545Y-93727305D01*
X204523685Y-93886943D01*
X204504751Y-94054997D01*
X204504751Y-94055002D01*
X204523685Y-94223056D01*
X204579545Y-94382694D01*
X204579547Y-94382697D01*
X204634505Y-94470161D01*
X204653506Y-94537397D01*
X204633139Y-94604232D01*
X204595485Y-94641126D01*
X204530072Y-94682228D01*
X204530069Y-94682230D01*
X204410483Y-94801816D01*
X204410478Y-94801822D01*
X204320507Y-94945009D01*
X204320505Y-94945012D01*
X204264645Y-95104650D01*
X204245711Y-95272704D01*
X178588664Y-95272704D01*
X178590883Y-95270883D01*
X178715910Y-95118538D01*
X178808814Y-94944727D01*
X178866024Y-94756132D01*
X178885341Y-94560000D01*
X178866024Y-94363868D01*
X178808814Y-94175273D01*
X178808811Y-94175269D01*
X178808811Y-94175266D01*
X178715913Y-94001467D01*
X178715909Y-94001460D01*
X178590883Y-93849116D01*
X178438539Y-93724090D01*
X178438532Y-93724086D01*
X178264733Y-93631188D01*
X178264727Y-93631186D01*
X178076132Y-93573976D01*
X178076129Y-93573975D01*
X177880000Y-93554659D01*
X177683870Y-93573975D01*
X177495266Y-93631188D01*
X177321467Y-93724086D01*
X177321460Y-93724090D01*
X177169116Y-93849116D01*
X177044090Y-94001460D01*
X177044086Y-94001467D01*
X176951188Y-94175266D01*
X176893975Y-94363870D01*
X176874659Y-94560000D01*
X155282848Y-94560000D01*
X155275674Y-94491744D01*
X155217179Y-94311716D01*
X155122533Y-94147784D01*
X154995871Y-94007112D01*
X154995870Y-94007111D01*
X154842734Y-93895851D01*
X154842729Y-93895848D01*
X154669807Y-93818857D01*
X154669802Y-93818855D01*
X154524001Y-93787865D01*
X154484646Y-93779500D01*
X154295354Y-93779500D01*
X154262897Y-93786398D01*
X154110197Y-93818855D01*
X154110192Y-93818857D01*
X153937270Y-93895848D01*
X153937265Y-93895851D01*
X153784129Y-94007111D01*
X153657466Y-94147785D01*
X153562821Y-94311715D01*
X153562818Y-94311722D01*
X153505319Y-94488687D01*
X153504326Y-94491744D01*
X153484540Y-94680000D01*
X151881869Y-94680000D01*
X151885249Y-94650002D01*
X151885249Y-94649997D01*
X151866314Y-94481943D01*
X151817454Y-94342310D01*
X151810456Y-94322310D01*
X151810455Y-94322309D01*
X151810454Y-94322305D01*
X151810452Y-94322302D01*
X151720481Y-94179115D01*
X151720476Y-94179109D01*
X151600890Y-94059523D01*
X151600884Y-94059518D01*
X151457697Y-93969547D01*
X151457694Y-93969545D01*
X151298056Y-93913685D01*
X151130003Y-93894751D01*
X151129997Y-93894751D01*
X150961943Y-93913685D01*
X150802306Y-93969545D01*
X150775055Y-93986668D01*
X150707818Y-94005667D01*
X150655105Y-93990200D01*
X150653966Y-93992566D01*
X150647694Y-93989545D01*
X150488056Y-93933685D01*
X150320003Y-93914751D01*
X150319997Y-93914751D01*
X150151943Y-93933685D01*
X149992305Y-93989545D01*
X149992302Y-93989547D01*
X149849115Y-94079518D01*
X149849109Y-94079523D01*
X149729523Y-94199109D01*
X149729518Y-94199115D01*
X149639547Y-94342302D01*
X149639545Y-94342305D01*
X149583685Y-94501943D01*
X149564751Y-94669997D01*
X140573545Y-94669997D01*
X140589200Y-94531051D01*
X140589200Y-94531046D01*
X140570265Y-94362992D01*
X140525073Y-94233841D01*
X140514407Y-94203359D01*
X140514406Y-94203358D01*
X140514405Y-94203354D01*
X140514403Y-94203351D01*
X140424432Y-94060164D01*
X140424427Y-94060158D01*
X140304841Y-93940572D01*
X140304835Y-93940567D01*
X140161648Y-93850596D01*
X140161645Y-93850594D01*
X140002007Y-93794734D01*
X139833954Y-93775800D01*
X139833948Y-93775800D01*
X139665894Y-93794734D01*
X139506256Y-93850594D01*
X139506253Y-93850596D01*
X139363066Y-93940567D01*
X139363060Y-93940572D01*
X139243474Y-94060158D01*
X139243469Y-94060164D01*
X139153498Y-94203351D01*
X139153496Y-94203354D01*
X139097636Y-94362992D01*
X139078702Y-94531046D01*
X114475000Y-94531046D01*
X114475000Y-93531046D01*
X127213702Y-93531046D01*
X127213702Y-93531051D01*
X127232636Y-93699105D01*
X127288496Y-93858743D01*
X127288498Y-93858746D01*
X127378469Y-94001933D01*
X127378474Y-94001939D01*
X127498060Y-94121525D01*
X127498066Y-94121530D01*
X127641253Y-94211501D01*
X127641256Y-94211503D01*
X127641260Y-94211504D01*
X127641261Y-94211505D01*
X127705094Y-94233841D01*
X127800894Y-94267363D01*
X127968948Y-94286298D01*
X127968951Y-94286298D01*
X127968954Y-94286298D01*
X128137007Y-94267363D01*
X128137010Y-94267362D01*
X128296641Y-94211505D01*
X128296643Y-94211503D01*
X128296645Y-94211503D01*
X128296648Y-94211501D01*
X128439835Y-94121530D01*
X128439836Y-94121529D01*
X128439841Y-94121526D01*
X128559428Y-94001939D01*
X128559729Y-94001460D01*
X128649403Y-93858746D01*
X128649405Y-93858743D01*
X128649405Y-93858741D01*
X128649407Y-93858739D01*
X128705264Y-93699108D01*
X128705264Y-93699107D01*
X128705265Y-93699105D01*
X128724200Y-93531051D01*
X128724200Y-93531046D01*
X128705265Y-93362992D01*
X128649405Y-93203354D01*
X128649403Y-93203351D01*
X128559432Y-93060164D01*
X128559427Y-93060158D01*
X128439841Y-92940572D01*
X128439835Y-92940567D01*
X128296648Y-92850596D01*
X128296645Y-92850594D01*
X128137007Y-92794734D01*
X127968954Y-92775800D01*
X127968948Y-92775800D01*
X127800894Y-92794734D01*
X127641256Y-92850594D01*
X127641253Y-92850596D01*
X127498066Y-92940567D01*
X127498060Y-92940572D01*
X127378474Y-93060158D01*
X127378469Y-93060164D01*
X127288498Y-93203351D01*
X127288496Y-93203354D01*
X127232636Y-93362992D01*
X127213702Y-93531046D01*
X114475000Y-93531046D01*
X114475000Y-92009997D01*
X129834751Y-92009997D01*
X129834751Y-92010002D01*
X129853685Y-92178056D01*
X129909545Y-92337694D01*
X129909547Y-92337697D01*
X129999518Y-92480884D01*
X129999523Y-92480890D01*
X130119109Y-92600476D01*
X130119115Y-92600481D01*
X130262302Y-92690452D01*
X130262305Y-92690454D01*
X130262309Y-92690455D01*
X130262310Y-92690456D01*
X130319456Y-92710452D01*
X130421943Y-92746314D01*
X130589997Y-92765249D01*
X130590000Y-92765249D01*
X130590003Y-92765249D01*
X130758056Y-92746314D01*
X130779490Y-92738814D01*
X130917690Y-92690456D01*
X130917692Y-92690454D01*
X130917694Y-92690454D01*
X130917697Y-92690452D01*
X131060884Y-92600481D01*
X131060885Y-92600480D01*
X131060890Y-92600477D01*
X131180477Y-92480890D01*
X131180481Y-92480884D01*
X131270452Y-92337697D01*
X131270454Y-92337694D01*
X131270454Y-92337692D01*
X131270456Y-92337690D01*
X131326313Y-92178059D01*
X131326313Y-92178058D01*
X131326314Y-92178056D01*
X131345249Y-92010002D01*
X131345249Y-92009997D01*
X131326314Y-91841943D01*
X131277454Y-91702310D01*
X131270456Y-91682310D01*
X131270455Y-91682309D01*
X131270454Y-91682305D01*
X131270452Y-91682302D01*
X131180481Y-91539115D01*
X131180476Y-91539109D01*
X131060890Y-91419523D01*
X131060884Y-91419518D01*
X130917697Y-91329547D01*
X130917694Y-91329545D01*
X130758056Y-91273685D01*
X130590003Y-91254751D01*
X130589997Y-91254751D01*
X130421943Y-91273685D01*
X130262305Y-91329545D01*
X130262302Y-91329547D01*
X130119115Y-91419518D01*
X130119109Y-91419523D01*
X129999523Y-91539109D01*
X129999518Y-91539115D01*
X129909547Y-91682302D01*
X129909545Y-91682305D01*
X129853685Y-91841943D01*
X129834751Y-92009997D01*
X114475000Y-92009997D01*
X114475000Y-90529997D01*
X136614751Y-90529997D01*
X136614751Y-90530002D01*
X136633685Y-90698056D01*
X136689545Y-90857694D01*
X136689547Y-90857697D01*
X136779518Y-91000884D01*
X136779523Y-91000890D01*
X136899109Y-91120476D01*
X136899115Y-91120481D01*
X137042302Y-91210452D01*
X137042305Y-91210454D01*
X137042309Y-91210455D01*
X137042310Y-91210456D01*
X137168899Y-91254751D01*
X137201944Y-91266314D01*
X137225019Y-91268914D01*
X137289433Y-91295980D01*
X137328988Y-91353575D01*
X137331126Y-91423412D01*
X137298818Y-91479815D01*
X137219518Y-91559115D01*
X137129547Y-91702302D01*
X137129545Y-91702305D01*
X137073685Y-91861943D01*
X137054751Y-92029997D01*
X137054751Y-92030002D01*
X137073685Y-92198056D01*
X137129545Y-92357694D01*
X137129547Y-92357697D01*
X137219518Y-92500884D01*
X137219523Y-92500890D01*
X137339109Y-92620476D01*
X137339115Y-92620481D01*
X137482302Y-92710452D01*
X137482305Y-92710454D01*
X137482309Y-92710455D01*
X137482310Y-92710456D01*
X137527507Y-92726271D01*
X137641943Y-92766314D01*
X137809997Y-92785249D01*
X137810000Y-92785249D01*
X137810003Y-92785249D01*
X137978056Y-92766314D01*
X137981100Y-92765249D01*
X138137690Y-92710456D01*
X138137692Y-92710454D01*
X138137694Y-92710454D01*
X138137697Y-92710452D01*
X138280884Y-92620481D01*
X138280885Y-92620480D01*
X138280890Y-92620477D01*
X138400477Y-92500890D01*
X138414159Y-92479115D01*
X138490452Y-92357697D01*
X138490454Y-92357694D01*
X138490454Y-92357692D01*
X138490456Y-92357690D01*
X138528138Y-92250000D01*
X162190141Y-92250000D01*
X162209750Y-92536680D01*
X162209750Y-92536684D01*
X162209751Y-92536686D01*
X162223007Y-92600476D01*
X162268215Y-92818034D01*
X162268216Y-92818037D01*
X162364443Y-93088793D01*
X162364442Y-93088793D01*
X162496647Y-93343935D01*
X162662361Y-93578700D01*
X162711380Y-93631186D01*
X162858496Y-93788708D01*
X163081402Y-93970055D01*
X163301075Y-94103642D01*
X163326931Y-94119365D01*
X163490650Y-94190477D01*
X163590491Y-94233844D01*
X163867191Y-94311371D01*
X164117469Y-94345771D01*
X164151870Y-94350500D01*
X164151871Y-94350500D01*
X164439228Y-94350500D01*
X164469919Y-94346281D01*
X164723907Y-94311371D01*
X165000607Y-94233844D01*
X165135451Y-94175273D01*
X165264166Y-94119365D01*
X165264169Y-94119363D01*
X165264174Y-94119361D01*
X165509696Y-93970055D01*
X165732602Y-93788708D01*
X165928738Y-93578698D01*
X166094450Y-93343936D01*
X166226653Y-93088797D01*
X166322883Y-92818032D01*
X166381347Y-92536686D01*
X166400957Y-92250000D01*
X167190141Y-92250000D01*
X167209750Y-92536680D01*
X167209750Y-92536684D01*
X167209751Y-92536686D01*
X167223007Y-92600476D01*
X167268215Y-92818034D01*
X167268216Y-92818037D01*
X167364443Y-93088793D01*
X167364442Y-93088793D01*
X167496647Y-93343935D01*
X167662361Y-93578700D01*
X167711380Y-93631186D01*
X167858496Y-93788708D01*
X168081402Y-93970055D01*
X168301075Y-94103642D01*
X168326931Y-94119365D01*
X168490650Y-94190477D01*
X168590491Y-94233844D01*
X168867191Y-94311371D01*
X169117469Y-94345771D01*
X169151870Y-94350500D01*
X169151871Y-94350500D01*
X169439228Y-94350500D01*
X169469919Y-94346281D01*
X169723907Y-94311371D01*
X170000607Y-94233844D01*
X170135451Y-94175273D01*
X170264166Y-94119365D01*
X170264169Y-94119363D01*
X170264174Y-94119361D01*
X170509696Y-93970055D01*
X170732602Y-93788708D01*
X170928738Y-93578698D01*
X171094450Y-93343936D01*
X171226653Y-93088797D01*
X171322883Y-92818032D01*
X171381347Y-92536686D01*
X171400957Y-92250000D01*
X171381347Y-91963314D01*
X171339098Y-91760000D01*
X211554659Y-91760000D01*
X211573975Y-91956129D01*
X211631188Y-92144733D01*
X211724086Y-92318532D01*
X211724090Y-92318539D01*
X211849116Y-92470883D01*
X212001460Y-92595909D01*
X212001467Y-92595913D01*
X212175266Y-92688811D01*
X212175269Y-92688811D01*
X212175273Y-92688814D01*
X212363868Y-92746024D01*
X212560000Y-92765341D01*
X212756132Y-92746024D01*
X212794909Y-92734260D01*
X212864773Y-92733636D01*
X212923887Y-92770883D01*
X212953479Y-92834177D01*
X212954124Y-92866804D01*
X212944751Y-92949995D01*
X212944751Y-92950002D01*
X212963685Y-93118056D01*
X213019545Y-93277694D01*
X213019547Y-93277697D01*
X213109518Y-93420884D01*
X213109523Y-93420890D01*
X213229109Y-93540476D01*
X213229115Y-93540481D01*
X213372302Y-93630452D01*
X213372305Y-93630454D01*
X213372309Y-93630455D01*
X213372310Y-93630456D01*
X213444913Y-93655860D01*
X213531943Y-93686314D01*
X213699997Y-93705249D01*
X213700000Y-93705249D01*
X213700003Y-93705249D01*
X213868056Y-93686314D01*
X213868059Y-93686313D01*
X214027690Y-93630456D01*
X214027692Y-93630454D01*
X214027694Y-93630454D01*
X214027697Y-93630452D01*
X214170884Y-93540481D01*
X214170885Y-93540480D01*
X214170890Y-93540477D01*
X214290477Y-93420890D01*
X214290481Y-93420884D01*
X214380452Y-93277697D01*
X214380454Y-93277694D01*
X214380454Y-93277692D01*
X214380456Y-93277690D01*
X214436313Y-93118059D01*
X214436313Y-93118058D01*
X214436314Y-93118056D01*
X214455249Y-92950002D01*
X214455249Y-92949997D01*
X214436314Y-92781943D01*
X214388714Y-92645910D01*
X214380456Y-92622310D01*
X214380455Y-92622309D01*
X214380454Y-92622305D01*
X214380452Y-92622302D01*
X214290481Y-92479115D01*
X214290476Y-92479109D01*
X214170890Y-92359523D01*
X214170884Y-92359518D01*
X214027697Y-92269547D01*
X214027694Y-92269545D01*
X213868056Y-92213685D01*
X213700003Y-92194751D01*
X213700002Y-92194751D01*
X213700000Y-92194751D01*
X213688490Y-92196047D01*
X213652867Y-92200061D01*
X213584046Y-92188005D01*
X213532667Y-92140655D01*
X213515044Y-92073044D01*
X213520324Y-92040850D01*
X213546024Y-91956132D01*
X213560417Y-91810000D01*
X216384659Y-91810000D01*
X216403975Y-92006129D01*
X216423046Y-92068997D01*
X216446020Y-92144733D01*
X216461188Y-92194733D01*
X216554086Y-92368532D01*
X216554090Y-92368539D01*
X216679116Y-92520883D01*
X216831460Y-92645909D01*
X216831467Y-92645913D01*
X217005268Y-92738812D01*
X217005270Y-92738812D01*
X217005273Y-92738814D01*
X217146055Y-92781520D01*
X217204493Y-92819817D01*
X217232949Y-92883629D01*
X217222389Y-92952696D01*
X217176165Y-93005090D01*
X217176034Y-93005172D01*
X217169111Y-93009521D01*
X217049523Y-93129109D01*
X217049518Y-93129115D01*
X216959547Y-93272302D01*
X216959545Y-93272305D01*
X216903685Y-93431943D01*
X216884751Y-93599997D01*
X216884751Y-93600002D01*
X216903685Y-93768056D01*
X216959545Y-93927694D01*
X216959547Y-93927697D01*
X217049518Y-94070884D01*
X217049523Y-94070890D01*
X217169109Y-94190476D01*
X217169115Y-94190481D01*
X217312302Y-94280452D01*
X217312305Y-94280454D01*
X217312309Y-94280455D01*
X217312310Y-94280456D01*
X217329006Y-94286298D01*
X217471943Y-94336314D01*
X217639997Y-94355249D01*
X217640000Y-94355249D01*
X217640003Y-94355249D01*
X217808056Y-94336314D01*
X217848077Y-94322310D01*
X217967690Y-94280456D01*
X217967692Y-94280454D01*
X217967694Y-94280454D01*
X217967697Y-94280452D01*
X218110884Y-94190481D01*
X218110885Y-94190480D01*
X218110890Y-94190477D01*
X218230477Y-94070890D01*
X218237220Y-94060159D01*
X218320452Y-93927697D01*
X218320454Y-93927694D01*
X218320454Y-93927692D01*
X218320456Y-93927690D01*
X218376313Y-93768059D01*
X218376313Y-93768058D01*
X218376314Y-93768056D01*
X218395249Y-93600002D01*
X218395249Y-93599997D01*
X218376314Y-93431943D01*
X218340643Y-93330000D01*
X225924659Y-93330000D01*
X225943975Y-93526129D01*
X225948329Y-93540481D01*
X225975339Y-93629523D01*
X226001188Y-93714733D01*
X226094086Y-93888532D01*
X226094090Y-93888539D01*
X226219118Y-94040885D01*
X226220552Y-94042319D01*
X226221063Y-94043255D01*
X226222981Y-94045592D01*
X226222537Y-94045955D01*
X226254037Y-94103642D01*
X226249053Y-94173334D01*
X226222767Y-94214233D01*
X226222981Y-94214408D01*
X226221480Y-94216236D01*
X226220552Y-94217681D01*
X226219118Y-94219114D01*
X226094090Y-94371460D01*
X226094086Y-94371467D01*
X226001188Y-94545266D01*
X225943975Y-94733870D01*
X225924659Y-94930000D01*
X225943975Y-95126129D01*
X225943976Y-95126132D01*
X225988438Y-95272704D01*
X226001188Y-95314733D01*
X226094086Y-95488532D01*
X226094090Y-95488539D01*
X226219116Y-95640883D01*
X226371460Y-95765909D01*
X226371467Y-95765913D01*
X226545266Y-95858811D01*
X226545269Y-95858811D01*
X226545273Y-95858814D01*
X226733868Y-95916024D01*
X226930000Y-95935341D01*
X227126132Y-95916024D01*
X227314727Y-95858814D01*
X227321863Y-95855000D01*
X227464634Y-95778687D01*
X227488538Y-95765910D01*
X227640883Y-95640883D01*
X227765910Y-95488538D01*
X227839716Y-95350457D01*
X227858811Y-95314733D01*
X227858811Y-95314732D01*
X227858814Y-95314727D01*
X227916024Y-95126132D01*
X227935341Y-94930000D01*
X227916024Y-94733868D01*
X227858814Y-94545273D01*
X227858811Y-94545269D01*
X227858811Y-94545266D01*
X227765913Y-94371467D01*
X227765909Y-94371460D01*
X227640881Y-94219114D01*
X227639448Y-94217681D01*
X227638936Y-94216744D01*
X227637019Y-94214408D01*
X227637462Y-94214044D01*
X227605963Y-94156358D01*
X227610947Y-94086666D01*
X227637232Y-94045766D01*
X227637019Y-94045592D01*
X227638519Y-94043763D01*
X227639448Y-94042319D01*
X227640881Y-94040885D01*
X227651357Y-94028121D01*
X227765910Y-93888538D01*
X227826170Y-93775800D01*
X227858811Y-93714733D01*
X227858811Y-93714732D01*
X227858814Y-93714727D01*
X227916024Y-93526132D01*
X227935341Y-93330000D01*
X227916024Y-93133868D01*
X227858814Y-92945273D01*
X227858811Y-92945269D01*
X227858811Y-92945266D01*
X227765913Y-92771467D01*
X227765909Y-92771460D01*
X227640883Y-92619116D01*
X227488539Y-92494090D01*
X227488532Y-92494086D01*
X227314733Y-92401188D01*
X227314727Y-92401186D01*
X227126132Y-92343976D01*
X227126129Y-92343975D01*
X226930000Y-92324659D01*
X226733870Y-92343975D01*
X226545266Y-92401188D01*
X226371467Y-92494086D01*
X226371460Y-92494090D01*
X226219116Y-92619116D01*
X226094090Y-92771460D01*
X226094086Y-92771467D01*
X226001188Y-92945266D01*
X225943975Y-93133870D01*
X225924659Y-93330000D01*
X218340643Y-93330000D01*
X218322340Y-93277694D01*
X218320456Y-93272310D01*
X218320455Y-93272309D01*
X218320454Y-93272305D01*
X218320452Y-93272302D01*
X218230481Y-93129115D01*
X218230476Y-93129109D01*
X218110890Y-93009523D01*
X218110884Y-93009518D01*
X217967697Y-92919547D01*
X217967691Y-92919544D01*
X217913285Y-92900507D01*
X217856509Y-92859785D01*
X217830761Y-92794832D01*
X217844217Y-92726271D01*
X217892604Y-92675868D01*
X217895757Y-92674122D01*
X217948538Y-92645910D01*
X218100883Y-92520883D01*
X218225910Y-92368538D01*
X218318814Y-92194727D01*
X218376024Y-92006132D01*
X218395341Y-91810000D01*
X218376024Y-91613868D01*
X218318814Y-91425273D01*
X218318811Y-91425269D01*
X218318811Y-91425266D01*
X218225913Y-91251467D01*
X218225909Y-91251460D01*
X218100883Y-91099116D01*
X217948539Y-90974090D01*
X217948532Y-90974086D01*
X217774733Y-90881188D01*
X217774727Y-90881186D01*
X217586132Y-90823976D01*
X217586129Y-90823975D01*
X217390000Y-90804659D01*
X217193870Y-90823975D01*
X217005266Y-90881188D01*
X216831467Y-90974086D01*
X216831460Y-90974090D01*
X216679116Y-91099116D01*
X216554090Y-91251460D01*
X216554086Y-91251467D01*
X216461188Y-91425266D01*
X216403975Y-91613870D01*
X216384659Y-91810000D01*
X213560417Y-91810000D01*
X213565341Y-91760000D01*
X213546024Y-91563868D01*
X213488814Y-91375273D01*
X213488811Y-91375269D01*
X213488811Y-91375266D01*
X213395913Y-91201467D01*
X213395909Y-91201460D01*
X213270883Y-91049116D01*
X213118539Y-90924090D01*
X213118532Y-90924086D01*
X212944733Y-90831188D01*
X212944727Y-90831186D01*
X212756132Y-90773976D01*
X212756129Y-90773975D01*
X212560000Y-90754659D01*
X212363870Y-90773975D01*
X212175266Y-90831188D01*
X212001467Y-90924086D01*
X212001460Y-90924090D01*
X211849116Y-91049116D01*
X211724090Y-91201460D01*
X211724086Y-91201467D01*
X211631188Y-91375266D01*
X211573975Y-91563870D01*
X211554659Y-91760000D01*
X171339098Y-91760000D01*
X171322883Y-91681968D01*
X171226654Y-91411206D01*
X171226655Y-91411206D01*
X171094450Y-91156064D01*
X170928736Y-90921299D01*
X170819801Y-90804659D01*
X170732602Y-90711292D01*
X170509696Y-90529945D01*
X170509695Y-90529944D01*
X170264166Y-90380634D01*
X170000612Y-90266158D01*
X170000610Y-90266157D01*
X170000607Y-90266156D01*
X169871127Y-90229877D01*
X169723913Y-90188630D01*
X169723908Y-90188629D01*
X169723907Y-90188629D01*
X169581567Y-90169064D01*
X169439228Y-90149500D01*
X169439227Y-90149500D01*
X169151871Y-90149500D01*
X169151870Y-90149500D01*
X168867191Y-90188629D01*
X168867184Y-90188630D01*
X168659410Y-90246845D01*
X168590491Y-90266156D01*
X168590488Y-90266156D01*
X168590485Y-90266158D01*
X168590484Y-90266158D01*
X168326931Y-90380634D01*
X168081402Y-90529944D01*
X167858499Y-90711289D01*
X167662361Y-90921299D01*
X167496647Y-91156064D01*
X167364443Y-91411206D01*
X167268216Y-91681962D01*
X167268215Y-91681965D01*
X167209750Y-91963319D01*
X167190141Y-92250000D01*
X166400957Y-92250000D01*
X166381347Y-91963314D01*
X166322883Y-91681968D01*
X166226654Y-91411206D01*
X166226655Y-91411206D01*
X166094450Y-91156064D01*
X165928736Y-90921299D01*
X165819801Y-90804659D01*
X165732602Y-90711292D01*
X165509696Y-90529945D01*
X165509695Y-90529944D01*
X165264166Y-90380634D01*
X165000612Y-90266158D01*
X165000610Y-90266157D01*
X165000607Y-90266156D01*
X164871127Y-90229877D01*
X164723913Y-90188630D01*
X164723908Y-90188629D01*
X164723907Y-90188629D01*
X164581567Y-90169064D01*
X164439228Y-90149500D01*
X164439227Y-90149500D01*
X164151871Y-90149500D01*
X164151870Y-90149500D01*
X163867191Y-90188629D01*
X163867184Y-90188630D01*
X163659410Y-90246845D01*
X163590491Y-90266156D01*
X163590488Y-90266156D01*
X163590485Y-90266158D01*
X163590484Y-90266158D01*
X163326931Y-90380634D01*
X163081402Y-90529944D01*
X162858499Y-90711289D01*
X162662361Y-90921299D01*
X162496647Y-91156064D01*
X162364443Y-91411206D01*
X162268216Y-91681962D01*
X162268215Y-91681965D01*
X162209750Y-91963319D01*
X162190141Y-92250000D01*
X138528138Y-92250000D01*
X138546313Y-92198059D01*
X138546313Y-92198058D01*
X138546314Y-92198056D01*
X138565249Y-92030002D01*
X138565249Y-92029997D01*
X138546314Y-91861943D01*
X138490454Y-91702305D01*
X138490452Y-91702302D01*
X138400481Y-91559115D01*
X138400476Y-91559109D01*
X138280890Y-91439523D01*
X138280884Y-91439518D01*
X138137697Y-91349547D01*
X138137694Y-91349545D01*
X137978056Y-91293686D01*
X137954976Y-91291085D01*
X137890563Y-91264016D01*
X137851009Y-91206420D01*
X137848874Y-91136583D01*
X137881179Y-91080187D01*
X137960477Y-91000890D01*
X138008734Y-90924090D01*
X138050452Y-90857697D01*
X138050454Y-90857694D01*
X138050454Y-90857692D01*
X138050456Y-90857690D01*
X138106313Y-90698059D01*
X138106313Y-90698058D01*
X138106314Y-90698056D01*
X138125249Y-90530002D01*
X138125249Y-90529997D01*
X138106314Y-90361943D01*
X138050454Y-90202305D01*
X138050452Y-90202302D01*
X137960481Y-90059115D01*
X137960476Y-90059109D01*
X137840890Y-89939523D01*
X137840884Y-89939518D01*
X137697697Y-89849547D01*
X137697694Y-89849545D01*
X137538056Y-89793685D01*
X137370003Y-89774751D01*
X137369997Y-89774751D01*
X137201943Y-89793685D01*
X137042305Y-89849545D01*
X137042302Y-89849547D01*
X136899115Y-89939518D01*
X136899109Y-89939523D01*
X136779523Y-90059109D01*
X136779518Y-90059115D01*
X136689547Y-90202302D01*
X136689545Y-90202305D01*
X136633685Y-90361943D01*
X136614751Y-90529997D01*
X114475000Y-90529997D01*
X114475000Y-87859997D01*
X129644751Y-87859997D01*
X129644751Y-87860002D01*
X129663685Y-88028056D01*
X129719545Y-88187694D01*
X129719547Y-88187697D01*
X129809518Y-88330884D01*
X129809523Y-88330890D01*
X129929109Y-88450476D01*
X129929115Y-88450481D01*
X130072302Y-88540452D01*
X130072308Y-88540455D01*
X130072310Y-88540456D01*
X130186624Y-88580456D01*
X130221164Y-88592542D01*
X130277941Y-88633264D01*
X130303688Y-88698217D01*
X130290232Y-88766778D01*
X130285204Y-88775555D01*
X130249546Y-88832304D01*
X130249545Y-88832305D01*
X130193685Y-88991943D01*
X130174751Y-89159997D01*
X130174751Y-89160002D01*
X130193685Y-89328056D01*
X130249545Y-89487694D01*
X130249547Y-89487697D01*
X130339518Y-89630884D01*
X130339523Y-89630890D01*
X130459109Y-89750476D01*
X130459115Y-89750481D01*
X130602302Y-89840452D01*
X130602305Y-89840454D01*
X130602309Y-89840455D01*
X130602310Y-89840456D01*
X130628285Y-89849545D01*
X130761943Y-89896314D01*
X130929997Y-89915249D01*
X130930000Y-89915249D01*
X130930003Y-89915249D01*
X131098056Y-89896314D01*
X131098059Y-89896313D01*
X131257690Y-89840456D01*
X131257692Y-89840454D01*
X131257694Y-89840454D01*
X131257697Y-89840452D01*
X131400884Y-89750481D01*
X131400885Y-89750480D01*
X131400890Y-89750477D01*
X131520477Y-89630890D01*
X131564721Y-89560477D01*
X131610452Y-89487697D01*
X131610454Y-89487694D01*
X131610454Y-89487692D01*
X131610456Y-89487690D01*
X131666313Y-89328059D01*
X131666313Y-89328058D01*
X131666314Y-89328056D01*
X131685249Y-89160002D01*
X131685249Y-89159997D01*
X131667025Y-88998259D01*
X131666313Y-88991941D01*
X131663358Y-88983498D01*
X131659796Y-88913720D01*
X131694524Y-88853092D01*
X131756517Y-88820864D01*
X131826092Y-88827267D01*
X131846373Y-88837549D01*
X131849109Y-88839268D01*
X131849110Y-88839269D01*
X131992304Y-88929244D01*
X131992307Y-88929246D01*
X131992305Y-88929246D01*
X131992309Y-88929247D01*
X131992310Y-88929248D01*
X132038767Y-88945504D01*
X132151943Y-88985106D01*
X132319997Y-89004041D01*
X132320000Y-89004041D01*
X132320003Y-89004041D01*
X132488056Y-88985106D01*
X132531221Y-88970002D01*
X132531235Y-88969997D01*
X137474751Y-88969997D01*
X137474751Y-88970002D01*
X137493685Y-89138056D01*
X137549545Y-89297694D01*
X137549547Y-89297697D01*
X137639518Y-89440884D01*
X137639523Y-89440890D01*
X137759109Y-89560476D01*
X137759115Y-89560481D01*
X137902302Y-89650452D01*
X137902305Y-89650454D01*
X137902309Y-89650455D01*
X137902310Y-89650456D01*
X137946858Y-89666044D01*
X138061943Y-89706314D01*
X138229997Y-89725249D01*
X138230000Y-89725249D01*
X138230003Y-89725249D01*
X138398056Y-89706314D01*
X138398059Y-89706313D01*
X138557690Y-89650456D01*
X138557692Y-89650454D01*
X138557694Y-89650454D01*
X138557697Y-89650452D01*
X138700884Y-89560481D01*
X138700885Y-89560480D01*
X138700890Y-89560477D01*
X138820477Y-89440890D01*
X138853481Y-89388365D01*
X138910452Y-89297697D01*
X138910454Y-89297694D01*
X138910454Y-89297692D01*
X138910456Y-89297690D01*
X138966313Y-89138059D01*
X138966313Y-89138058D01*
X138966314Y-89138056D01*
X138985249Y-88970002D01*
X138985249Y-88969997D01*
X138967222Y-88810000D01*
X147084540Y-88810000D01*
X147104326Y-88998256D01*
X147104327Y-88998259D01*
X147162818Y-89178277D01*
X147162821Y-89178284D01*
X147257467Y-89342216D01*
X147346314Y-89440890D01*
X147384129Y-89482888D01*
X147537265Y-89594148D01*
X147537270Y-89594151D01*
X147710192Y-89671142D01*
X147710197Y-89671144D01*
X147895354Y-89710500D01*
X147895355Y-89710500D01*
X148084644Y-89710500D01*
X148084646Y-89710500D01*
X148269803Y-89671144D01*
X148442730Y-89594151D01*
X148595871Y-89482888D01*
X148722533Y-89342216D01*
X148817179Y-89178284D01*
X148875674Y-88998256D01*
X148887419Y-88886504D01*
X209660000Y-88886504D01*
X209660000Y-89285000D01*
X210360000Y-89285000D01*
X210360000Y-89785000D01*
X209660000Y-89785000D01*
X209660000Y-90183495D01*
X209698427Y-90376681D01*
X209698430Y-90376693D01*
X209773807Y-90558671D01*
X209773814Y-90558684D01*
X209883248Y-90722462D01*
X209883251Y-90722466D01*
X210022533Y-90861748D01*
X210022537Y-90861751D01*
X210186315Y-90971185D01*
X210186328Y-90971192D01*
X210368308Y-91046569D01*
X210410000Y-91054862D01*
X210410000Y-90251988D01*
X210419940Y-90269205D01*
X210475795Y-90325060D01*
X210544204Y-90364556D01*
X210620504Y-90385000D01*
X210699496Y-90385000D01*
X210775796Y-90364556D01*
X210844205Y-90325060D01*
X210900060Y-90269205D01*
X210910000Y-90251988D01*
X210910000Y-91054862D01*
X210951690Y-91046569D01*
X210951692Y-91046569D01*
X211133671Y-90971192D01*
X211133684Y-90971185D01*
X211297462Y-90861751D01*
X211297466Y-90861748D01*
X211436748Y-90722466D01*
X211436751Y-90722462D01*
X211546185Y-90558684D01*
X211546192Y-90558671D01*
X211621569Y-90376693D01*
X211621572Y-90376681D01*
X211659999Y-90183495D01*
X211660000Y-90183492D01*
X211660000Y-89666044D01*
X211679685Y-89599005D01*
X211732489Y-89553250D01*
X211801647Y-89543306D01*
X211846000Y-89558657D01*
X211867865Y-89571281D01*
X212014234Y-89610500D01*
X212014236Y-89610500D01*
X212165764Y-89610500D01*
X212165766Y-89610500D01*
X212312135Y-89571281D01*
X212443365Y-89495515D01*
X212550515Y-89388365D01*
X212626281Y-89257135D01*
X212665500Y-89110766D01*
X212665500Y-88959234D01*
X217294500Y-88959234D01*
X217294500Y-89110765D01*
X217333719Y-89257136D01*
X217371602Y-89322750D01*
X217409485Y-89388365D01*
X217516635Y-89495515D01*
X217647865Y-89571281D01*
X217794234Y-89610500D01*
X217794236Y-89610500D01*
X217945764Y-89610500D01*
X217945766Y-89610500D01*
X218092135Y-89571281D01*
X218113999Y-89558657D01*
X218181897Y-89542184D01*
X218247925Y-89565035D01*
X218291117Y-89619955D01*
X218300000Y-89666044D01*
X218300000Y-90183495D01*
X218338427Y-90376681D01*
X218338430Y-90376693D01*
X218413807Y-90558671D01*
X218413814Y-90558684D01*
X218523248Y-90722462D01*
X218523251Y-90722466D01*
X218662533Y-90861748D01*
X218662537Y-90861751D01*
X218826315Y-90971185D01*
X218826328Y-90971192D01*
X219008308Y-91046569D01*
X219050000Y-91054862D01*
X219050000Y-90251988D01*
X219059940Y-90269205D01*
X219115795Y-90325060D01*
X219184204Y-90364556D01*
X219260504Y-90385000D01*
X219339496Y-90385000D01*
X219415796Y-90364556D01*
X219484205Y-90325060D01*
X219540060Y-90269205D01*
X219550000Y-90251988D01*
X219550000Y-91054862D01*
X219591690Y-91046569D01*
X219591692Y-91046569D01*
X219773671Y-90971192D01*
X219773684Y-90971185D01*
X219937462Y-90861751D01*
X219937466Y-90861748D01*
X220076748Y-90722466D01*
X220076751Y-90722462D01*
X220186185Y-90558684D01*
X220186192Y-90558671D01*
X220261569Y-90376693D01*
X220261572Y-90376681D01*
X220299999Y-90183495D01*
X220300000Y-90183492D01*
X220300000Y-89785000D01*
X219600000Y-89785000D01*
X219600000Y-89285000D01*
X220300000Y-89285000D01*
X220300000Y-88886508D01*
X220299999Y-88886504D01*
X220261572Y-88693318D01*
X220261569Y-88693306D01*
X220186192Y-88511328D01*
X220186185Y-88511315D01*
X220076751Y-88347537D01*
X220076748Y-88347533D01*
X219937466Y-88208251D01*
X219937462Y-88208248D01*
X219773684Y-88098814D01*
X219773671Y-88098807D01*
X219591691Y-88023429D01*
X219591683Y-88023427D01*
X219550000Y-88015135D01*
X219550000Y-88818011D01*
X219540060Y-88800795D01*
X219484205Y-88744940D01*
X219415796Y-88705444D01*
X219339496Y-88685000D01*
X219260504Y-88685000D01*
X219184204Y-88705444D01*
X219115795Y-88744940D01*
X219059940Y-88800795D01*
X219050000Y-88818011D01*
X219050000Y-88015136D01*
X219049999Y-88015135D01*
X219008316Y-88023427D01*
X219008308Y-88023429D01*
X218826328Y-88098807D01*
X218826315Y-88098814D01*
X218662537Y-88208248D01*
X218662533Y-88208251D01*
X218523251Y-88347533D01*
X218523248Y-88347537D01*
X218413814Y-88511315D01*
X218413809Y-88511324D01*
X218409866Y-88520845D01*
X218366023Y-88575247D01*
X218299728Y-88597310D01*
X218232030Y-88580029D01*
X218226597Y-88576351D01*
X218092136Y-88498719D01*
X218018950Y-88479109D01*
X217945766Y-88459500D01*
X217794234Y-88459500D01*
X217647863Y-88498719D01*
X217516635Y-88574485D01*
X217516632Y-88574487D01*
X217409487Y-88681632D01*
X217409485Y-88681635D01*
X217333719Y-88812863D01*
X217294500Y-88959234D01*
X212665500Y-88959234D01*
X212626281Y-88812865D01*
X212550515Y-88681635D01*
X212443365Y-88574485D01*
X212373406Y-88534094D01*
X212312136Y-88498719D01*
X212238950Y-88479109D01*
X212165766Y-88459500D01*
X212014234Y-88459500D01*
X211867863Y-88498719D01*
X211776428Y-88551510D01*
X211736635Y-88574485D01*
X211736633Y-88574486D01*
X211729597Y-88578549D01*
X211728327Y-88576349D01*
X211674995Y-88596960D01*
X211606552Y-88582914D01*
X211556568Y-88534094D01*
X211550131Y-88520838D01*
X211546192Y-88511328D01*
X211546185Y-88511315D01*
X211436751Y-88347537D01*
X211436748Y-88347533D01*
X211297466Y-88208251D01*
X211297462Y-88208248D01*
X211133684Y-88098814D01*
X211133671Y-88098807D01*
X210951691Y-88023429D01*
X210951683Y-88023427D01*
X210910000Y-88015135D01*
X210910000Y-88818011D01*
X210900060Y-88800795D01*
X210844205Y-88744940D01*
X210775796Y-88705444D01*
X210699496Y-88685000D01*
X210620504Y-88685000D01*
X210544204Y-88705444D01*
X210475795Y-88744940D01*
X210419940Y-88800795D01*
X210410000Y-88818011D01*
X210410000Y-88015136D01*
X210409999Y-88015135D01*
X210368316Y-88023427D01*
X210368308Y-88023429D01*
X210186328Y-88098807D01*
X210186315Y-88098814D01*
X210022537Y-88208248D01*
X210022533Y-88208251D01*
X209883251Y-88347533D01*
X209883248Y-88347537D01*
X209773814Y-88511315D01*
X209773807Y-88511328D01*
X209698430Y-88693306D01*
X209698427Y-88693318D01*
X209660000Y-88886504D01*
X148887419Y-88886504D01*
X148895460Y-88810000D01*
X148875674Y-88621744D01*
X148817179Y-88441716D01*
X148722533Y-88277784D01*
X148595871Y-88137112D01*
X148595870Y-88137111D01*
X148442734Y-88025851D01*
X148442729Y-88025848D01*
X148269807Y-87948857D01*
X148269802Y-87948855D01*
X148124001Y-87917865D01*
X148084646Y-87909500D01*
X147895354Y-87909500D01*
X147862897Y-87916398D01*
X147710197Y-87948855D01*
X147710192Y-87948857D01*
X147537270Y-88025848D01*
X147537265Y-88025851D01*
X147384129Y-88137111D01*
X147257466Y-88277785D01*
X147162821Y-88441715D01*
X147162818Y-88441722D01*
X147106436Y-88615249D01*
X147104326Y-88621744D01*
X147084540Y-88810000D01*
X138967222Y-88810000D01*
X138966314Y-88801943D01*
X138924215Y-88681632D01*
X138910456Y-88642310D01*
X138910455Y-88642309D01*
X138910454Y-88642305D01*
X138910452Y-88642302D01*
X138820481Y-88499115D01*
X138820476Y-88499109D01*
X138700890Y-88379523D01*
X138700884Y-88379518D01*
X138557697Y-88289547D01*
X138557694Y-88289545D01*
X138398056Y-88233685D01*
X138230003Y-88214751D01*
X138229997Y-88214751D01*
X138061943Y-88233685D01*
X137902305Y-88289545D01*
X137902302Y-88289547D01*
X137759115Y-88379518D01*
X137759109Y-88379523D01*
X137639523Y-88499109D01*
X137639518Y-88499115D01*
X137549547Y-88642302D01*
X137549545Y-88642305D01*
X137493685Y-88801943D01*
X137474751Y-88969997D01*
X132531235Y-88969997D01*
X132647690Y-88929248D01*
X132647692Y-88929246D01*
X132647694Y-88929246D01*
X132647697Y-88929244D01*
X132790884Y-88839273D01*
X132790885Y-88839272D01*
X132790890Y-88839269D01*
X132910477Y-88719682D01*
X132920784Y-88703278D01*
X132973116Y-88656987D01*
X133013305Y-88648029D01*
X133013080Y-88646029D01*
X133188055Y-88626314D01*
X133188057Y-88626313D01*
X133188059Y-88626313D01*
X133347690Y-88570456D01*
X133456070Y-88502355D01*
X133523306Y-88483355D01*
X133588015Y-88502356D01*
X133602294Y-88511328D01*
X133711630Y-88580029D01*
X133712307Y-88580454D01*
X133712305Y-88580454D01*
X133712309Y-88580455D01*
X133712310Y-88580456D01*
X133719335Y-88582914D01*
X133871943Y-88636314D01*
X134039997Y-88655249D01*
X134040000Y-88655249D01*
X134040003Y-88655249D01*
X134208056Y-88636314D01*
X134208059Y-88636313D01*
X134367690Y-88580456D01*
X134367692Y-88580454D01*
X134367694Y-88580454D01*
X134367697Y-88580452D01*
X134510884Y-88490481D01*
X134510885Y-88490480D01*
X134510890Y-88490477D01*
X134630477Y-88370890D01*
X134645151Y-88347537D01*
X134720452Y-88227697D01*
X134720454Y-88227694D01*
X134720454Y-88227692D01*
X134720456Y-88227690D01*
X134776313Y-88068059D01*
X134776313Y-88068058D01*
X134776314Y-88068056D01*
X134795249Y-87900002D01*
X134795249Y-87899997D01*
X134776314Y-87731943D01*
X134720454Y-87572305D01*
X134720452Y-87572302D01*
X134630481Y-87429115D01*
X134630476Y-87429109D01*
X134510890Y-87309523D01*
X134510884Y-87309518D01*
X134367697Y-87219547D01*
X134367694Y-87219545D01*
X134208056Y-87163685D01*
X134040003Y-87144751D01*
X134039997Y-87144751D01*
X133871943Y-87163685D01*
X133712307Y-87219545D01*
X133603929Y-87287644D01*
X133536692Y-87306644D01*
X133471985Y-87287644D01*
X133347692Y-87209545D01*
X133347691Y-87209544D01*
X133347690Y-87209544D01*
X133309370Y-87196135D01*
X133188056Y-87153685D01*
X133020003Y-87134751D01*
X133019997Y-87134751D01*
X132851943Y-87153685D01*
X132692305Y-87209545D01*
X132692302Y-87209547D01*
X132549115Y-87299518D01*
X132549109Y-87299523D01*
X132429519Y-87419113D01*
X132419215Y-87435514D01*
X132366881Y-87481806D01*
X132326694Y-87490762D01*
X132326920Y-87492763D01*
X132151943Y-87512477D01*
X131992305Y-87568337D01*
X131992302Y-87568339D01*
X131849115Y-87658310D01*
X131849109Y-87658315D01*
X131729523Y-87777901D01*
X131729518Y-87777907D01*
X131639547Y-87921094D01*
X131639545Y-87921097D01*
X131583685Y-88080735D01*
X131564751Y-88248789D01*
X131564751Y-88248794D01*
X131583686Y-88416851D01*
X131583687Y-88416854D01*
X131586641Y-88425297D01*
X131590202Y-88495076D01*
X131555472Y-88555702D01*
X131493478Y-88587928D01*
X131423902Y-88581522D01*
X131403627Y-88571242D01*
X131257697Y-88479547D01*
X131257686Y-88479542D01*
X131108834Y-88427456D01*
X131052058Y-88386735D01*
X131026311Y-88321782D01*
X131039767Y-88253220D01*
X131044796Y-88244442D01*
X131067537Y-88208251D01*
X131080456Y-88187690D01*
X131136313Y-88028059D01*
X131136313Y-88028058D01*
X131136314Y-88028056D01*
X131155249Y-87860002D01*
X131155249Y-87859997D01*
X131136314Y-87691943D01*
X131094655Y-87572888D01*
X131080456Y-87532310D01*
X131080455Y-87532309D01*
X131080454Y-87532305D01*
X131080452Y-87532302D01*
X130990481Y-87389115D01*
X130990476Y-87389109D01*
X130870890Y-87269523D01*
X130870884Y-87269518D01*
X130727697Y-87179547D01*
X130727694Y-87179545D01*
X130568056Y-87123685D01*
X130400003Y-87104751D01*
X130399997Y-87104751D01*
X130231943Y-87123685D01*
X130072305Y-87179545D01*
X130072302Y-87179547D01*
X129929115Y-87269518D01*
X129929109Y-87269523D01*
X129809523Y-87389109D01*
X129809518Y-87389115D01*
X129719547Y-87532302D01*
X129719545Y-87532305D01*
X129663685Y-87691943D01*
X129644751Y-87859997D01*
X114475000Y-87859997D01*
X114475000Y-87089997D01*
X127024751Y-87089997D01*
X127024751Y-87090002D01*
X127043685Y-87258056D01*
X127099545Y-87417694D01*
X127099547Y-87417697D01*
X127189518Y-87560884D01*
X127189523Y-87560890D01*
X127309109Y-87680476D01*
X127309115Y-87680481D01*
X127452302Y-87770452D01*
X127452305Y-87770454D01*
X127452309Y-87770455D01*
X127452310Y-87770456D01*
X127473587Y-87777901D01*
X127611943Y-87826314D01*
X127779997Y-87845249D01*
X127780000Y-87845249D01*
X127780003Y-87845249D01*
X127948056Y-87826314D01*
X127948059Y-87826313D01*
X128107690Y-87770456D01*
X128107692Y-87770454D01*
X128107694Y-87770454D01*
X128107697Y-87770452D01*
X128250884Y-87680481D01*
X128250885Y-87680480D01*
X128250890Y-87680477D01*
X128370477Y-87560890D01*
X128388435Y-87532310D01*
X128460452Y-87417697D01*
X128460454Y-87417694D01*
X128460454Y-87417692D01*
X128460456Y-87417690D01*
X128516313Y-87258059D01*
X128516313Y-87258058D01*
X128516314Y-87258056D01*
X128535249Y-87090002D01*
X128535249Y-87089997D01*
X128516314Y-86921943D01*
X128508636Y-86900000D01*
X149994540Y-86900000D01*
X150014326Y-87088256D01*
X150014327Y-87088259D01*
X150072818Y-87268277D01*
X150072821Y-87268284D01*
X150167467Y-87432216D01*
X150283321Y-87560884D01*
X150294129Y-87572888D01*
X150447265Y-87684148D01*
X150447270Y-87684151D01*
X150620192Y-87761142D01*
X150620197Y-87761144D01*
X150805354Y-87800500D01*
X150805355Y-87800500D01*
X150994644Y-87800500D01*
X150994646Y-87800500D01*
X151179803Y-87761144D01*
X151352730Y-87684151D01*
X151505871Y-87572888D01*
X151632533Y-87432216D01*
X151727179Y-87268284D01*
X151785674Y-87088256D01*
X151805460Y-86900000D01*
X151785674Y-86711744D01*
X151727179Y-86531716D01*
X151632533Y-86367784D01*
X151505871Y-86227112D01*
X151505870Y-86227111D01*
X151352734Y-86115851D01*
X151352729Y-86115848D01*
X151179807Y-86038857D01*
X151179802Y-86038855D01*
X151034001Y-86007865D01*
X150994646Y-85999500D01*
X150805354Y-85999500D01*
X150772897Y-86006398D01*
X150620197Y-86038855D01*
X150620192Y-86038857D01*
X150447270Y-86115848D01*
X150447265Y-86115851D01*
X150294129Y-86227111D01*
X150167466Y-86367785D01*
X150072821Y-86531715D01*
X150072818Y-86531722D01*
X150014327Y-86711740D01*
X150014326Y-86711744D01*
X149994540Y-86900000D01*
X128508636Y-86900000D01*
X128460454Y-86762305D01*
X128460452Y-86762302D01*
X128370481Y-86619115D01*
X128370476Y-86619109D01*
X128250890Y-86499523D01*
X128250884Y-86499518D01*
X128107697Y-86409547D01*
X128107694Y-86409545D01*
X127948056Y-86353685D01*
X127780003Y-86334751D01*
X127779997Y-86334751D01*
X127611943Y-86353685D01*
X127452305Y-86409545D01*
X127452302Y-86409547D01*
X127309115Y-86499518D01*
X127309109Y-86499523D01*
X127189523Y-86619109D01*
X127189518Y-86619115D01*
X127099547Y-86762302D01*
X127099545Y-86762305D01*
X127043685Y-86921943D01*
X127024751Y-87089997D01*
X114475000Y-87089997D01*
X114475000Y-85250000D01*
X162190141Y-85250000D01*
X162209750Y-85536680D01*
X162209750Y-85536684D01*
X162209751Y-85536686D01*
X162210625Y-85540890D01*
X162268215Y-85818034D01*
X162268216Y-85818037D01*
X162364443Y-86088793D01*
X162364442Y-86088793D01*
X162496647Y-86343935D01*
X162662361Y-86578700D01*
X162720719Y-86641185D01*
X162858496Y-86788708D01*
X163081402Y-86970055D01*
X163278645Y-87090002D01*
X163326931Y-87119365D01*
X163465486Y-87179547D01*
X163590491Y-87233844D01*
X163867191Y-87311371D01*
X164101911Y-87343633D01*
X164151870Y-87350500D01*
X164151871Y-87350500D01*
X164439228Y-87350500D01*
X164489187Y-87343633D01*
X164723907Y-87311371D01*
X165000607Y-87233844D01*
X165125616Y-87179545D01*
X165264166Y-87119365D01*
X165264169Y-87119363D01*
X165264174Y-87119361D01*
X165509696Y-86970055D01*
X165732602Y-86788708D01*
X165928738Y-86578698D01*
X166094450Y-86343936D01*
X166226653Y-86088797D01*
X166322883Y-85818032D01*
X166381347Y-85536686D01*
X166400957Y-85250000D01*
X167190141Y-85250000D01*
X167209750Y-85536680D01*
X167209750Y-85536684D01*
X167209751Y-85536686D01*
X167210625Y-85540890D01*
X167268215Y-85818034D01*
X167268216Y-85818037D01*
X167364443Y-86088793D01*
X167364442Y-86088793D01*
X167496647Y-86343935D01*
X167662361Y-86578700D01*
X167720719Y-86641185D01*
X167858496Y-86788708D01*
X168081402Y-86970055D01*
X168278645Y-87090002D01*
X168326931Y-87119365D01*
X168465486Y-87179547D01*
X168590491Y-87233844D01*
X168867191Y-87311371D01*
X169101911Y-87343633D01*
X169151870Y-87350500D01*
X169151871Y-87350500D01*
X169439228Y-87350500D01*
X169489187Y-87343633D01*
X169723907Y-87311371D01*
X170000607Y-87233844D01*
X170125616Y-87179545D01*
X170264166Y-87119365D01*
X170264169Y-87119363D01*
X170264174Y-87119361D01*
X170509696Y-86970055D01*
X170732602Y-86788708D01*
X170928738Y-86578698D01*
X171094450Y-86343936D01*
X171226653Y-86088797D01*
X171322883Y-85818032D01*
X171381347Y-85536686D01*
X171400957Y-85250000D01*
X171381347Y-84963314D01*
X171359152Y-84856504D01*
X209660000Y-84856504D01*
X209660000Y-85105000D01*
X210360000Y-85105000D01*
X210360000Y-85605000D01*
X209660000Y-85605000D01*
X209660000Y-85853495D01*
X209698427Y-86046681D01*
X209698430Y-86046693D01*
X209773807Y-86228671D01*
X209773814Y-86228684D01*
X209883248Y-86392462D01*
X209883251Y-86392466D01*
X210022533Y-86531748D01*
X210022537Y-86531751D01*
X210186315Y-86641185D01*
X210186328Y-86641192D01*
X210368308Y-86716569D01*
X210410000Y-86724862D01*
X210410000Y-85921988D01*
X210419940Y-85939205D01*
X210475795Y-85995060D01*
X210544204Y-86034556D01*
X210620504Y-86055000D01*
X210699496Y-86055000D01*
X210775796Y-86034556D01*
X210844205Y-85995060D01*
X210900060Y-85939205D01*
X210910000Y-85921988D01*
X210910000Y-86724862D01*
X210951690Y-86716569D01*
X210951692Y-86716569D01*
X211133671Y-86641192D01*
X211133684Y-86641185D01*
X211297462Y-86531751D01*
X211297466Y-86531748D01*
X211436748Y-86392466D01*
X211436751Y-86392462D01*
X211546185Y-86228684D01*
X211546192Y-86228671D01*
X211621569Y-86046693D01*
X211621572Y-86046681D01*
X211659999Y-85853495D01*
X211660000Y-85853492D01*
X211660000Y-85605000D01*
X210960000Y-85605000D01*
X210960000Y-85105000D01*
X211660000Y-85105000D01*
X211660000Y-84856508D01*
X211659999Y-84856504D01*
X218300000Y-84856504D01*
X218300000Y-85105000D01*
X219000000Y-85105000D01*
X219000000Y-85605000D01*
X218300000Y-85605000D01*
X218300000Y-85853495D01*
X218338427Y-86046681D01*
X218338430Y-86046693D01*
X218413807Y-86228671D01*
X218413814Y-86228684D01*
X218523248Y-86392462D01*
X218523251Y-86392466D01*
X218662533Y-86531748D01*
X218662537Y-86531751D01*
X218826315Y-86641185D01*
X218826328Y-86641192D01*
X219008308Y-86716569D01*
X219050000Y-86724862D01*
X219050000Y-85921988D01*
X219059940Y-85939205D01*
X219115795Y-85995060D01*
X219184204Y-86034556D01*
X219260504Y-86055000D01*
X219339496Y-86055000D01*
X219415796Y-86034556D01*
X219484205Y-85995060D01*
X219540060Y-85939205D01*
X219550000Y-85921988D01*
X219550000Y-86724862D01*
X219591690Y-86716569D01*
X219591692Y-86716569D01*
X219773671Y-86641192D01*
X219773684Y-86641185D01*
X219937462Y-86531751D01*
X219937466Y-86531748D01*
X220076748Y-86392466D01*
X220076751Y-86392462D01*
X220186185Y-86228684D01*
X220186192Y-86228671D01*
X220261569Y-86046693D01*
X220261572Y-86046681D01*
X220299999Y-85853495D01*
X220300000Y-85853492D01*
X220300000Y-85605000D01*
X219600000Y-85605000D01*
X219600000Y-85105000D01*
X220300000Y-85105000D01*
X220300000Y-85069997D01*
X232044751Y-85069997D01*
X232044751Y-85070002D01*
X232063685Y-85238056D01*
X232119545Y-85397694D01*
X232119547Y-85397697D01*
X232209518Y-85540884D01*
X232209523Y-85540890D01*
X232329109Y-85660476D01*
X232329115Y-85660481D01*
X232472302Y-85750452D01*
X232472305Y-85750454D01*
X232472309Y-85750455D01*
X232472310Y-85750456D01*
X232544913Y-85775860D01*
X232631943Y-85806314D01*
X232799997Y-85825249D01*
X232800000Y-85825249D01*
X232800003Y-85825249D01*
X232968056Y-85806314D01*
X233001830Y-85794496D01*
X233127690Y-85750456D01*
X233127692Y-85750454D01*
X233127694Y-85750454D01*
X233127697Y-85750452D01*
X233270884Y-85660481D01*
X233270885Y-85660480D01*
X233270890Y-85660477D01*
X233390477Y-85540890D01*
X233393119Y-85536686D01*
X233480452Y-85397697D01*
X233480454Y-85397694D01*
X233480454Y-85397692D01*
X233480456Y-85397690D01*
X233536313Y-85238059D01*
X233536313Y-85238058D01*
X233536314Y-85238056D01*
X233555249Y-85070002D01*
X233555249Y-85069997D01*
X233536314Y-84901943D01*
X233480454Y-84742305D01*
X233480452Y-84742302D01*
X233390481Y-84599115D01*
X233390476Y-84599109D01*
X233270890Y-84479523D01*
X233270884Y-84479518D01*
X233127697Y-84389547D01*
X233127694Y-84389545D01*
X232968056Y-84333685D01*
X232800003Y-84314751D01*
X232799997Y-84314751D01*
X232631943Y-84333685D01*
X232472305Y-84389545D01*
X232472302Y-84389547D01*
X232329115Y-84479518D01*
X232329109Y-84479523D01*
X232209523Y-84599109D01*
X232209518Y-84599115D01*
X232119547Y-84742302D01*
X232119545Y-84742305D01*
X232063685Y-84901943D01*
X232044751Y-85069997D01*
X220300000Y-85069997D01*
X220300000Y-84856508D01*
X220299999Y-84856504D01*
X220261572Y-84663318D01*
X220261569Y-84663306D01*
X220186192Y-84481328D01*
X220186185Y-84481315D01*
X220076751Y-84317537D01*
X220076748Y-84317533D01*
X219937466Y-84178251D01*
X219937462Y-84178248D01*
X219773684Y-84068814D01*
X219773671Y-84068807D01*
X219591691Y-83993429D01*
X219591683Y-83993427D01*
X219550000Y-83985135D01*
X219550000Y-84788011D01*
X219540060Y-84770795D01*
X219484205Y-84714940D01*
X219415796Y-84675444D01*
X219339496Y-84655000D01*
X219260504Y-84655000D01*
X219184204Y-84675444D01*
X219115795Y-84714940D01*
X219059940Y-84770795D01*
X219050000Y-84788011D01*
X219050000Y-83985136D01*
X219049999Y-83985135D01*
X219008316Y-83993427D01*
X219008308Y-83993429D01*
X218826328Y-84068807D01*
X218826315Y-84068814D01*
X218662537Y-84178248D01*
X218662533Y-84178251D01*
X218523251Y-84317533D01*
X218523248Y-84317537D01*
X218413814Y-84481315D01*
X218413807Y-84481328D01*
X218338430Y-84663306D01*
X218338427Y-84663318D01*
X218300000Y-84856504D01*
X211659999Y-84856504D01*
X211621572Y-84663318D01*
X211621569Y-84663306D01*
X211546192Y-84481328D01*
X211546185Y-84481315D01*
X211436751Y-84317537D01*
X211436748Y-84317533D01*
X211297466Y-84178251D01*
X211297462Y-84178248D01*
X211133684Y-84068814D01*
X211133671Y-84068807D01*
X210951691Y-83993429D01*
X210951683Y-83993427D01*
X210910000Y-83985135D01*
X210910000Y-84788011D01*
X210900060Y-84770795D01*
X210844205Y-84714940D01*
X210775796Y-84675444D01*
X210699496Y-84655000D01*
X210620504Y-84655000D01*
X210544204Y-84675444D01*
X210475795Y-84714940D01*
X210419940Y-84770795D01*
X210410000Y-84788011D01*
X210410000Y-83985136D01*
X210409999Y-83985135D01*
X210368316Y-83993427D01*
X210368308Y-83993429D01*
X210186328Y-84068807D01*
X210186315Y-84068814D01*
X210022537Y-84178248D01*
X210022533Y-84178251D01*
X209883251Y-84317533D01*
X209883248Y-84317537D01*
X209773814Y-84481315D01*
X209773807Y-84481328D01*
X209698430Y-84663306D01*
X209698427Y-84663318D01*
X209660000Y-84856504D01*
X171359152Y-84856504D01*
X171322883Y-84681968D01*
X171226654Y-84411206D01*
X171226655Y-84411206D01*
X171094450Y-84156064D01*
X170928736Y-83921299D01*
X170850103Y-83837105D01*
X170732602Y-83711292D01*
X170509696Y-83529945D01*
X170509695Y-83529944D01*
X170264166Y-83380634D01*
X170000612Y-83266158D01*
X170000610Y-83266157D01*
X170000607Y-83266156D01*
X169871127Y-83229877D01*
X169723913Y-83188630D01*
X169723908Y-83188629D01*
X169723907Y-83188629D01*
X169581567Y-83169064D01*
X169439228Y-83149500D01*
X169439227Y-83149500D01*
X169151871Y-83149500D01*
X169151870Y-83149500D01*
X168867191Y-83188629D01*
X168867184Y-83188630D01*
X168659410Y-83246845D01*
X168590491Y-83266156D01*
X168590488Y-83266156D01*
X168590485Y-83266158D01*
X168590484Y-83266158D01*
X168326931Y-83380634D01*
X168081402Y-83529944D01*
X167858499Y-83711289D01*
X167662361Y-83921299D01*
X167496647Y-84156064D01*
X167364443Y-84411206D01*
X167268216Y-84681962D01*
X167268215Y-84681965D01*
X167209750Y-84963319D01*
X167190141Y-85250000D01*
X166400957Y-85250000D01*
X166381347Y-84963314D01*
X166322883Y-84681968D01*
X166226654Y-84411206D01*
X166226655Y-84411206D01*
X166094450Y-84156064D01*
X165928736Y-83921299D01*
X165850103Y-83837105D01*
X165732602Y-83711292D01*
X165509696Y-83529945D01*
X165509695Y-83529944D01*
X165264166Y-83380634D01*
X165000612Y-83266158D01*
X165000610Y-83266157D01*
X165000607Y-83266156D01*
X164871127Y-83229877D01*
X164723913Y-83188630D01*
X164723908Y-83188629D01*
X164723907Y-83188629D01*
X164581567Y-83169064D01*
X164439228Y-83149500D01*
X164439227Y-83149500D01*
X164151871Y-83149500D01*
X164151870Y-83149500D01*
X163867191Y-83188629D01*
X163867184Y-83188630D01*
X163659410Y-83246845D01*
X163590491Y-83266156D01*
X163590488Y-83266156D01*
X163590485Y-83266158D01*
X163590484Y-83266158D01*
X163326931Y-83380634D01*
X163081402Y-83529944D01*
X162858499Y-83711289D01*
X162662361Y-83921299D01*
X162496647Y-84156064D01*
X162364443Y-84411206D01*
X162268216Y-84681962D01*
X162268215Y-84681965D01*
X162209750Y-84963319D01*
X162190141Y-85250000D01*
X114475000Y-85250000D01*
X114475000Y-81235943D01*
X114475014Y-81234073D01*
X114475034Y-81232704D01*
X114477236Y-81086833D01*
X114478123Y-81073795D01*
X114513729Y-80780553D01*
X114516422Y-80765859D01*
X114586887Y-80479970D01*
X114591341Y-80465681D01*
X114695746Y-80190388D01*
X114701887Y-80176745D01*
X114838715Y-79916042D01*
X114846456Y-79903235D01*
X115013711Y-79660924D01*
X115022934Y-79649152D01*
X115218189Y-79428753D01*
X115228753Y-79418189D01*
X115449152Y-79222934D01*
X115460924Y-79213711D01*
X115703235Y-79046456D01*
X115716042Y-79038715D01*
X115976745Y-78901887D01*
X115990388Y-78895746D01*
X116265687Y-78791338D01*
X116279970Y-78786887D01*
X116565859Y-78716422D01*
X116580553Y-78713729D01*
X116873795Y-78678123D01*
X116886833Y-78677236D01*
X117032704Y-78675034D01*
X117034073Y-78675014D01*
X117035943Y-78675000D01*
X239914057Y-78675000D01*
X239915927Y-78675014D01*
G37*
%TD.AperFunction*%
%TD*%
M02*
