%TF.GenerationSoftware,KiCad,Pcbnew,8.0.7*%
%TF.CreationDate,2025-01-15T12:36:28-05:00*%
%TF.ProjectId,emberone,656d6265-726f-46e6-952e-6b696361645f,rev?*%
%TF.SameCoordinates,Original*%
%TF.FileFunction,Copper,L3,Inr*%
%TF.FilePolarity,Positive*%
%FSLAX46Y46*%
G04 Gerber Fmt 4.6, Leading zero omitted, Abs format (unit mm)*
G04 Created by KiCad (PCBNEW 8.0.7) date 2025-01-15 12:36:28*
%MOMM*%
%LPD*%
G01*
G04 APERTURE LIST*
%TA.AperFunction,ComponentPad*%
%ADD10C,0.540000*%
%TD*%
%TA.AperFunction,HeatsinkPad*%
%ADD11C,0.540000*%
%TD*%
%TA.AperFunction,ComponentPad*%
%ADD12O,1.000000X1.800000*%
%TD*%
%TA.AperFunction,ComponentPad*%
%ADD13O,1.000000X2.100000*%
%TD*%
%TA.AperFunction,ComponentPad*%
%ADD14C,6.400000*%
%TD*%
%TA.AperFunction,ComponentPad*%
%ADD15C,3.200000*%
%TD*%
%TA.AperFunction,ViaPad*%
%ADD16C,0.500000*%
%TD*%
%TA.AperFunction,ViaPad*%
%ADD17C,0.800000*%
%TD*%
%TA.AperFunction,ViaPad*%
%ADD18C,1.000000*%
%TD*%
%TA.AperFunction,Conductor*%
%ADD19C,1.500000*%
%TD*%
%TA.AperFunction,Conductor*%
%ADD20C,1.000000*%
%TD*%
%TA.AperFunction,Conductor*%
%ADD21C,0.508000*%
%TD*%
G04 APERTURE END LIST*
D10*
%TO.N,/stack5/GND1*%
%TO.C,U55*%
X162910000Y-174685000D03*
X162908000Y-172815000D03*
X162078572Y-174685000D03*
X162076572Y-172815000D03*
X161250000Y-171945000D03*
X161247144Y-174685000D03*
X161245144Y-172815000D03*
X161230000Y-175595000D03*
X161220000Y-173805000D03*
X160415716Y-174685000D03*
X160413716Y-172815000D03*
X159584288Y-174685000D03*
X159582288Y-172815000D03*
D11*
X158760000Y-175595000D03*
D10*
X158760000Y-171955000D03*
X158752860Y-174685000D03*
X158750860Y-172815000D03*
X158750000Y-173825000D03*
X157921432Y-174685000D03*
X157919432Y-172815000D03*
X157090000Y-174685000D03*
X157088000Y-172815000D03*
%TD*%
%TO.N,/stack6/GND2*%
%TO.C,U65*%
X178580000Y-188675000D03*
X178582000Y-190545000D03*
X179411428Y-188675000D03*
X179413428Y-190545000D03*
X180240000Y-191415000D03*
X180242856Y-188675000D03*
X180244856Y-190545000D03*
X180260000Y-187765000D03*
X180270000Y-189555000D03*
X181074284Y-188675000D03*
X181076284Y-190545000D03*
X181905712Y-188675000D03*
X181907712Y-190545000D03*
D11*
X182730000Y-187765000D03*
D10*
X182730000Y-191405000D03*
X182737140Y-188675000D03*
X182739140Y-190545000D03*
X182740000Y-189535000D03*
X183568568Y-188675000D03*
X183570568Y-190545000D03*
X184400000Y-188675000D03*
X184402000Y-190545000D03*
%TD*%
%TO.N,/stack4/GND2*%
%TO.C,U47*%
X135540000Y-188645000D03*
X135542000Y-190515000D03*
X136371428Y-188645000D03*
X136373428Y-190515000D03*
X137200000Y-191385000D03*
X137202856Y-188645000D03*
X137204856Y-190515000D03*
X137220000Y-187735000D03*
X137230000Y-189525000D03*
X138034284Y-188645000D03*
X138036284Y-190515000D03*
X138865712Y-188645000D03*
X138867712Y-190515000D03*
D11*
X139690000Y-187735000D03*
D10*
X139690000Y-191375000D03*
X139697140Y-188645000D03*
X139699140Y-190515000D03*
X139700000Y-189505000D03*
X140528568Y-188645000D03*
X140530568Y-190515000D03*
X141360000Y-188645000D03*
X141362000Y-190515000D03*
%TD*%
%TO.N,GND*%
%TO.C,U74*%
X205970000Y-161095000D03*
X205968000Y-159225000D03*
X205138572Y-161095000D03*
X205136572Y-159225000D03*
X204310000Y-158355000D03*
X204307144Y-161095000D03*
X204305144Y-159225000D03*
X204290000Y-162005000D03*
X204280000Y-160215000D03*
X203475716Y-161095000D03*
X203473716Y-159225000D03*
X202644288Y-161095000D03*
X202642288Y-159225000D03*
D11*
X201820000Y-162005000D03*
D10*
X201820000Y-158365000D03*
X201812860Y-161095000D03*
X201810860Y-159225000D03*
X201810000Y-160235000D03*
X200981432Y-161095000D03*
X200979432Y-159225000D03*
X200150000Y-161095000D03*
X200148000Y-159225000D03*
%TD*%
%TO.N,/stack5/GND0*%
%TO.C,U54*%
X162910000Y-188355000D03*
X162908000Y-186485000D03*
X162078572Y-188355000D03*
X162076572Y-186485000D03*
X161250000Y-185615000D03*
X161247144Y-188355000D03*
X161245144Y-186485000D03*
X161230000Y-189265000D03*
X161220000Y-187475000D03*
X160415716Y-188355000D03*
X160413716Y-186485000D03*
X159584288Y-188355000D03*
X159582288Y-186485000D03*
D11*
X158760000Y-189265000D03*
D10*
X158760000Y-185625000D03*
X158752860Y-188355000D03*
X158750860Y-186485000D03*
X158750000Y-187495000D03*
X157921432Y-188355000D03*
X157919432Y-186485000D03*
X157090000Y-188355000D03*
X157088000Y-186485000D03*
%TD*%
%TO.N,/stack4/GND1*%
%TO.C,U46*%
X135540000Y-174965000D03*
X135542000Y-176835000D03*
X136371428Y-174965000D03*
X136373428Y-176835000D03*
X137200000Y-177705000D03*
X137202856Y-174965000D03*
X137204856Y-176835000D03*
X137220000Y-174055000D03*
X137230000Y-175845000D03*
X138034284Y-174965000D03*
X138036284Y-176835000D03*
X138865712Y-174965000D03*
X138867712Y-176835000D03*
D11*
X139690000Y-174055000D03*
D10*
X139690000Y-177695000D03*
X139697140Y-174965000D03*
X139699140Y-176835000D03*
X139700000Y-175825000D03*
X140528568Y-174965000D03*
X140530568Y-176835000D03*
X141360000Y-174965000D03*
X141362000Y-176835000D03*
%TD*%
%TO.N,/stack4/GND0*%
%TO.C,U45*%
X135540000Y-161275000D03*
X135542000Y-163145000D03*
X136371428Y-161275000D03*
X136373428Y-163145000D03*
X137200000Y-164015000D03*
X137202856Y-161275000D03*
X137204856Y-163145000D03*
X137220000Y-160365000D03*
X137230000Y-162155000D03*
X138034284Y-161275000D03*
X138036284Y-163145000D03*
X138865712Y-161275000D03*
X138867712Y-163145000D03*
D11*
X139690000Y-160365000D03*
D10*
X139690000Y-164005000D03*
X139697140Y-161275000D03*
X139699140Y-163145000D03*
X139700000Y-162135000D03*
X140528568Y-161275000D03*
X140530568Y-163145000D03*
X141360000Y-161275000D03*
X141362000Y-163145000D03*
%TD*%
%TO.N,/stack7/GND0*%
%TO.C,U72*%
X205970000Y-188465000D03*
X205968000Y-186595000D03*
X205138572Y-188465000D03*
X205136572Y-186595000D03*
X204310000Y-185725000D03*
X204307144Y-188465000D03*
X204305144Y-186595000D03*
X204290000Y-189375000D03*
X204280000Y-187585000D03*
X203475716Y-188465000D03*
X203473716Y-186595000D03*
X202644288Y-188465000D03*
X202642288Y-186595000D03*
D11*
X201820000Y-189375000D03*
D10*
X201820000Y-185735000D03*
X201812860Y-188465000D03*
X201810860Y-186595000D03*
X201810000Y-187605000D03*
X200981432Y-188465000D03*
X200979432Y-186595000D03*
X200150000Y-188465000D03*
X200148000Y-186595000D03*
%TD*%
%TO.N,/stack6/GND0*%
%TO.C,U63*%
X178580000Y-161305000D03*
X178582000Y-163175000D03*
X179411428Y-161305000D03*
X179413428Y-163175000D03*
X180240000Y-164045000D03*
X180242856Y-161305000D03*
X180244856Y-163175000D03*
X180260000Y-160395000D03*
X180270000Y-162185000D03*
X181074284Y-161305000D03*
X181076284Y-163175000D03*
X181905712Y-161305000D03*
X181907712Y-163175000D03*
D11*
X182730000Y-160395000D03*
D10*
X182730000Y-164035000D03*
X182737140Y-161305000D03*
X182739140Y-163175000D03*
X182740000Y-162165000D03*
X183568568Y-161305000D03*
X183570568Y-163175000D03*
X184400000Y-161305000D03*
X184402000Y-163175000D03*
%TD*%
%TO.N,/stack6/GND1*%
%TO.C,U64*%
X178580000Y-174985000D03*
X178582000Y-176855000D03*
X179411428Y-174985000D03*
X179413428Y-176855000D03*
X180240000Y-177725000D03*
X180242856Y-174985000D03*
X180244856Y-176855000D03*
X180260000Y-174075000D03*
X180270000Y-175865000D03*
X181074284Y-174985000D03*
X181076284Y-176855000D03*
X181905712Y-174985000D03*
X181907712Y-176855000D03*
D11*
X182730000Y-174075000D03*
D10*
X182730000Y-177715000D03*
X182737140Y-174985000D03*
X182739140Y-176855000D03*
X182740000Y-175845000D03*
X183568568Y-174985000D03*
X183570568Y-176855000D03*
X184400000Y-174985000D03*
X184402000Y-176855000D03*
%TD*%
%TO.N,/stack7/GND1*%
%TO.C,U73*%
X205970000Y-174775000D03*
X205968000Y-172905000D03*
X205138572Y-174775000D03*
X205136572Y-172905000D03*
X204310000Y-172035000D03*
X204307144Y-174775000D03*
X204305144Y-172905000D03*
X204290000Y-175685000D03*
X204280000Y-173895000D03*
X203475716Y-174775000D03*
X203473716Y-172905000D03*
X202644288Y-174775000D03*
X202642288Y-172905000D03*
D11*
X201820000Y-175685000D03*
D10*
X201820000Y-172045000D03*
X201812860Y-174775000D03*
X201810860Y-172905000D03*
X201810000Y-173915000D03*
X200981432Y-174775000D03*
X200979432Y-172905000D03*
X200150000Y-174775000D03*
X200148000Y-172905000D03*
%TD*%
%TO.N,/stack5/GND2*%
%TO.C,U56*%
X162930000Y-161005000D03*
X162928000Y-159135000D03*
X162098572Y-161005000D03*
X162096572Y-159135000D03*
X161270000Y-158265000D03*
X161267144Y-161005000D03*
X161265144Y-159135000D03*
X161250000Y-161915000D03*
X161240000Y-160125000D03*
X160435716Y-161005000D03*
X160433716Y-159135000D03*
X159604288Y-161005000D03*
X159602288Y-159135000D03*
D11*
X158780000Y-161915000D03*
D10*
X158780000Y-158275000D03*
X158772860Y-161005000D03*
X158770860Y-159135000D03*
X158770000Y-160145000D03*
X157941432Y-161005000D03*
X157939432Y-159135000D03*
X157110000Y-161005000D03*
X157108000Y-159135000D03*
%TD*%
D12*
%TO.N,GND*%
%TO.C,J6*%
X210660000Y-81265000D03*
D13*
X210660000Y-85445000D03*
D12*
X219300000Y-81265000D03*
D13*
X219300000Y-85445000D03*
%TD*%
D14*
%TO.N,unconnected-(H6-Pad1)*%
%TO.C,H6*%
X192930000Y-181770000D03*
%TD*%
%TO.N,unconnected-(H8-Pad1)*%
%TO.C,H8*%
X170930000Y-181770000D03*
%TD*%
D15*
%TO.N,/Power/VIN*%
%TO.C,J1*%
X164295549Y-81250000D03*
X164295549Y-88250000D03*
X169295549Y-81250000D03*
X169295549Y-88250000D03*
%TD*%
D14*
%TO.N,unconnected-(H5-Pad1)*%
%TO.C,H5*%
X192930000Y-167770000D03*
%TD*%
%TO.N,unconnected-(H10-Pad1)*%
%TO.C,H10*%
X148930000Y-181770000D03*
%TD*%
%TO.N,unconnected-(H7-Pad1)*%
%TO.C,H7*%
X170930000Y-167770000D03*
%TD*%
D15*
%TO.N,GND*%
%TO.C,J2*%
X185805549Y-81250000D03*
X185805549Y-88250000D03*
X190805549Y-81250000D03*
X190805549Y-88250000D03*
%TD*%
D14*
%TO.N,unconnected-(H9-Pad1)*%
%TO.C,H9*%
X148930000Y-167770000D03*
%TD*%
D16*
%TO.N,GND*%
X236380000Y-146880000D03*
X199770000Y-96740000D03*
%TO.N,/3V3*%
X204570000Y-100940000D03*
%TO.N,/Data/SCL*%
X206900000Y-100890000D03*
%TO.N,/5V*%
X144584719Y-171505281D03*
%TO.N,Net-(U55-NRSTI)*%
X154790000Y-167440000D03*
%TO.N,/Data/SWCLK*%
X213715000Y-91545000D03*
%TO.N,GND*%
X224970000Y-99620000D03*
X132913949Y-93291049D03*
X135050000Y-92220000D03*
X214480000Y-99550000D03*
D17*
X154150000Y-88260000D03*
D16*
X208650000Y-96750000D03*
D17*
X157951600Y-89788400D03*
D16*
X215900000Y-99550000D03*
X132910000Y-94430000D03*
X198140000Y-164650000D03*
X132910000Y-92220000D03*
X122405000Y-179190000D03*
D17*
X157711600Y-99268400D03*
X222660000Y-94780000D03*
D16*
X135053949Y-93291049D03*
D17*
X131700000Y-101200000D03*
D16*
X207760000Y-97785000D03*
D17*
X138430000Y-100680000D03*
D16*
X143490000Y-91150000D03*
X220660000Y-94510000D03*
X216750000Y-107480000D03*
X213994575Y-102880000D03*
D17*
X122890000Y-92130000D03*
D16*
X219530000Y-107230000D03*
D17*
X122330000Y-95850000D03*
D16*
X215200000Y-100377500D03*
X218200000Y-109960000D03*
X214470000Y-101220000D03*
D17*
X152800000Y-94695200D03*
D16*
X134010000Y-92210000D03*
X212100000Y-108940000D03*
X135050000Y-94430000D03*
X134013949Y-93281049D03*
X211790000Y-93150000D03*
X227550000Y-82230000D03*
X215890000Y-101220000D03*
X222650000Y-101390000D03*
X230240000Y-150730000D03*
X205420000Y-146280000D03*
X220650000Y-95570000D03*
X234740000Y-179440000D03*
D17*
X148500000Y-93450000D03*
D16*
X122565000Y-170505000D03*
X218230000Y-107280000D03*
X150970000Y-98210000D03*
X134010000Y-94420000D03*
X222660000Y-97780000D03*
X209030000Y-164830000D03*
D18*
X230970000Y-91130000D03*
D17*
X140200000Y-84200000D03*
D16*
X207770000Y-100940000D03*
D18*
X232375000Y-91135000D03*
D17*
X130870000Y-84420000D03*
D16*
X208610000Y-92850000D03*
D18*
%TO.N,/Power/VIN_M*%
X167990000Y-103730000D03*
X194920000Y-108410000D03*
X199080000Y-102770000D03*
X169390000Y-102290000D03*
X193440000Y-102780000D03*
X165270000Y-102290000D03*
X166640000Y-102290000D03*
X162170000Y-102300000D03*
X169380000Y-103730000D03*
D16*
X145750000Y-99710000D03*
D18*
X165260000Y-103730000D03*
D16*
X127968951Y-93531049D03*
D18*
X163763949Y-106473949D03*
X194920000Y-102780000D03*
X196280000Y-101190000D03*
X162170000Y-105103949D03*
X193440000Y-101190000D03*
X168000000Y-102290000D03*
X197670000Y-102780000D03*
X166630000Y-103730000D03*
X193440000Y-104290000D03*
X199080000Y-101180000D03*
X193440000Y-108410000D03*
X197670000Y-101190000D03*
X163763949Y-102300000D03*
X163763949Y-105103949D03*
X194920000Y-107020000D03*
X194920000Y-105660000D03*
X193440000Y-107020000D03*
X194920000Y-101190000D03*
X162170000Y-103740000D03*
X194920000Y-104290000D03*
X162170000Y-106473949D03*
X196280000Y-102780000D03*
X163763949Y-103740000D03*
X193440000Y-105660000D03*
D16*
%TO.N,Net-(D1-A)*%
X137370000Y-90530000D03*
X131960000Y-96750000D03*
%TO.N,Net-(U1-COMP1)*%
X138240000Y-91660000D03*
X139833951Y-94531049D03*
%TO.N,Net-(D2-A)*%
X138080000Y-89160000D03*
X130400000Y-87860000D03*
X132320000Y-88248792D03*
D18*
%TO.N,/3V6*%
X132570000Y-135590000D03*
X228680000Y-137210000D03*
X134160000Y-134220000D03*
X218200000Y-134170000D03*
X218200000Y-132580000D03*
X219640000Y-134150000D03*
X221194284Y-140220000D03*
X134160000Y-135590000D03*
X129500000Y-136960000D03*
X135670000Y-139770000D03*
X129500000Y-135600000D03*
X126570000Y-134220000D03*
X228680000Y-141940000D03*
X169430000Y-135880000D03*
X222691426Y-140220000D03*
X228680000Y-138800000D03*
X134150000Y-139780000D03*
X218200000Y-138880000D03*
X228680000Y-135690000D03*
X129530000Y-132820000D03*
X218200000Y-142020000D03*
X168040000Y-135880000D03*
X202500000Y-129490000D03*
X199390000Y-128050000D03*
X227200000Y-135690000D03*
X227200000Y-132500000D03*
X127980000Y-136980000D03*
X227200000Y-137210000D03*
X218200000Y-140300000D03*
X135680000Y-134210000D03*
X128010000Y-132840000D03*
X135680000Y-135580000D03*
X227182852Y-141940000D03*
X126560000Y-141170000D03*
X202500000Y-128100000D03*
X135680000Y-136940000D03*
X132560000Y-139780000D03*
X155980000Y-133950000D03*
X155980000Y-132560000D03*
X127970000Y-139810000D03*
X227200000Y-138800000D03*
X154390000Y-133950000D03*
X129490000Y-141180000D03*
X225685710Y-141940000D03*
X227182852Y-140220000D03*
X135710000Y-132800000D03*
X132570000Y-136950000D03*
X132600000Y-132810000D03*
X126600000Y-132810000D03*
X219697142Y-142000000D03*
X222691426Y-141940000D03*
X126570000Y-136950000D03*
X134160000Y-136950000D03*
X228680000Y-134090000D03*
X224188568Y-140220000D03*
X218200000Y-137290000D03*
X134150000Y-141170000D03*
X127980000Y-134250000D03*
X129500000Y-138350000D03*
X154390000Y-132560000D03*
X127980000Y-138370000D03*
X131050000Y-138360000D03*
X126560000Y-139780000D03*
X132560000Y-141170000D03*
X169430000Y-137470000D03*
X131040000Y-141190000D03*
X219640000Y-135750000D03*
X221194284Y-141940000D03*
X168040000Y-137470000D03*
X135680000Y-138330000D03*
X129490000Y-139790000D03*
X225685710Y-140220000D03*
X131080000Y-132830000D03*
X218200000Y-135770000D03*
X202440000Y-130930000D03*
X127980000Y-135620000D03*
X135670000Y-141160000D03*
X219697142Y-140280000D03*
X131050000Y-136970000D03*
D16*
X142400000Y-153030000D03*
D18*
X219640000Y-137270000D03*
X131040000Y-139800000D03*
X134190000Y-132810000D03*
X126570000Y-138340000D03*
X228680000Y-132500000D03*
X228680000Y-140220000D03*
X227200000Y-134090000D03*
X131050000Y-135610000D03*
X132570000Y-138340000D03*
X219640000Y-138860000D03*
X200910000Y-128100000D03*
X219640000Y-132560000D03*
D16*
X224900000Y-107900000D03*
D18*
X127970000Y-141200000D03*
X132570000Y-134220000D03*
X134160000Y-138340000D03*
X126570000Y-135590000D03*
X129500000Y-134230000D03*
X131050000Y-134240000D03*
X224188568Y-141940000D03*
D16*
%TO.N,Net-(Q1-G)*%
X156110000Y-109770000D03*
X129000000Y-97770000D03*
%TO.N,Net-(Q2-G)*%
X159800000Y-117390000D03*
X132763949Y-96740000D03*
%TO.N,Net-(Q3-G)*%
X130560000Y-91820000D03*
X201940000Y-103890000D03*
%TO.N,Net-(Q4-G)*%
X133020000Y-87890000D03*
X200890000Y-117400000D03*
%TO.N,/3V3*%
X220730000Y-106730000D03*
X216720000Y-106710000D03*
X215640000Y-94960000D03*
D17*
X154390000Y-94680000D03*
D16*
X235560000Y-145110000D03*
D17*
X147990000Y-88810000D03*
D18*
X226930000Y-94930000D03*
D16*
X211110000Y-94175000D03*
X218000000Y-95855000D03*
X232200000Y-171100000D03*
D17*
X156461600Y-99268400D03*
D16*
X219870000Y-97785000D03*
D18*
X226930000Y-93330000D03*
D16*
X232000000Y-146130000D03*
X219960000Y-101385000D03*
X120100000Y-169750000D03*
D17*
X150900000Y-86900000D03*
D16*
X205040000Y-92890000D03*
X210430000Y-97770000D03*
X210100000Y-100940000D03*
%TO.N,/Data/1V1*%
X214990000Y-97995000D03*
X215350000Y-102765000D03*
X216930000Y-97995000D03*
%TO.N,/stack4/GND0*%
X133360000Y-157380000D03*
X143630000Y-157610000D03*
%TO.N,/stack4/GND1*%
X133350000Y-171210000D03*
X143440000Y-171040000D03*
%TO.N,/stack4/GND2*%
X164338000Y-196342000D03*
X143620000Y-183930000D03*
X133380000Y-184540000D03*
%TO.N,/stack4/1V2-0*%
X133120000Y-165470000D03*
%TO.N,/Power/SW1*%
X131940000Y-98140000D03*
X151290000Y-104650000D03*
%TO.N,/Power/SW2*%
X194730000Y-112020000D03*
X130930000Y-89160000D03*
%TO.N,/Power/LOOP1*%
X134710000Y-97470000D03*
X154820000Y-116460000D03*
%TO.N,/Power/LOOP2*%
X196060000Y-116440000D03*
X134040000Y-87900000D03*
%TO.N,/stack4/1V2-1*%
X132950000Y-179160000D03*
%TO.N,/stack4/1V2-2*%
X132790000Y-193870000D03*
%TO.N,/stack4/0V8-0*%
X132130000Y-165420000D03*
X128970000Y-160830000D03*
%TO.N,/stack4/0V8-1*%
X132850000Y-176370000D03*
X131930000Y-178570000D03*
%TO.N,/stack4/0V8-2*%
X128740000Y-187750000D03*
X131820000Y-193740000D03*
%TO.N,/stack5/GND0*%
X149930000Y-187660000D03*
X155070000Y-192060000D03*
X165240000Y-192140000D03*
%TO.N,/stack5/GND1*%
X164930000Y-178410000D03*
X154800000Y-178410000D03*
%TO.N,/stack5/GND2*%
X185674000Y-152908000D03*
X165002500Y-165607500D03*
X154770000Y-165410000D03*
X147722500Y-155955000D03*
X146362500Y-161820000D03*
%TO.N,/stack5/1V2-0*%
X152930000Y-186570000D03*
%TO.N,/stack5/1V2-1*%
X154880000Y-173920000D03*
%TO.N,/stack5/1V2-2*%
X150840000Y-157720000D03*
X154630000Y-156180000D03*
%TO.N,/stack5/0V8-0*%
X153800000Y-186900000D03*
%TO.N,/stack5/0V8-1*%
X165150000Y-171610000D03*
%TO.N,/stack5/0V8-2*%
X150691091Y-159021091D03*
X153560000Y-156200000D03*
%TO.N,/stack6/GND0*%
X186900000Y-156720000D03*
X176370000Y-157590000D03*
%TO.N,/stack6/GND1*%
X186710000Y-171070000D03*
X176210000Y-171100000D03*
%TO.N,/stack6/GND2*%
X186860000Y-184900000D03*
X207518000Y-197104000D03*
X176280000Y-184700000D03*
%TO.N,/stack6/1V2-0*%
X186660000Y-164720000D03*
%TO.N,/stack6/1V2-1*%
X176300000Y-178050000D03*
%TO.N,/stack6/1V2-2*%
X171480000Y-189320000D03*
X175650000Y-194370000D03*
%TO.N,/stack6/0V8-0*%
X175870000Y-163790000D03*
%TO.N,/stack6/0V8-1*%
X192528749Y-172053749D03*
X188425000Y-177750000D03*
%TO.N,/stack6/0V8-2*%
X174600000Y-194360000D03*
%TO.N,/stack7/GND0*%
X197820000Y-192140000D03*
X211600000Y-190930000D03*
%TO.N,/stack7/GND1*%
X198010000Y-178730000D03*
X208440000Y-178730000D03*
%TO.N,/stack7/1V2-0*%
X209080000Y-185050000D03*
X208200000Y-188330000D03*
%TO.N,/stack7/1V2-1*%
X213820000Y-175670000D03*
X210580000Y-172125000D03*
%TO.N,/stack7/1V2-2*%
X230195104Y-149850000D03*
X209520000Y-156990000D03*
X215026522Y-160913133D03*
X235570000Y-153120000D03*
%TO.N,/stack7/0V8-0*%
X209690000Y-185580000D03*
%TO.N,/stack7/0V8-1*%
X209560000Y-172150000D03*
%TO.N,/stack7/0V8-2*%
X210530000Y-156990000D03*
%TO.N,/Data/SWD*%
X217010000Y-102795000D03*
X216620000Y-91550000D03*
%TO.N,/Data/SWCLK*%
X216250000Y-102710000D03*
%TO.N,/Data/QSPI_SS*%
X204510000Y-95260000D03*
X210613028Y-96694305D03*
%TO.N,Net-(U46-NRSTO)*%
X143610000Y-171890000D03*
%TO.N,Net-(U46-CO)*%
X143526091Y-175413909D03*
%TO.N,Net-(U46-CLKO)*%
X143550000Y-174320000D03*
%TO.N,Net-(U46-RI)*%
X143549000Y-173531000D03*
%TO.N,Net-(U46-BO)*%
X143550000Y-172710000D03*
%TO.N,Net-(U45-BI)*%
X146620000Y-173760000D03*
%TO.N,Net-(U45-CO)*%
X132570000Y-157450000D03*
%TO.N,Net-(U46-CI)*%
X131500000Y-180200000D03*
%TO.N,Net-(U47-CO)*%
X131520000Y-182590000D03*
%TO.N,Net-(U46-CLKI)*%
X130490000Y-180200000D03*
%TO.N,Net-(U45-CLKO)*%
X131990000Y-157940000D03*
%TO.N,Net-(U47-CLKO)*%
X130540000Y-182580000D03*
%TO.N,Net-(U46-RO)*%
X129480000Y-180200000D03*
%TO.N,Net-(U45-RI)*%
X131920000Y-159470000D03*
%TO.N,Net-(U47-RI)*%
X129480000Y-182500000D03*
%TO.N,Net-(U46-BI)*%
X128490000Y-180200000D03*
%TO.N,Net-(U45-BO)*%
X131960000Y-160450000D03*
%TO.N,Net-(U47-BO)*%
X128530000Y-182610000D03*
%TO.N,Net-(U46-NRSTI)*%
X127630000Y-180180000D03*
%TO.N,Net-(U45-NRSTO)*%
X125520000Y-161250000D03*
%TO.N,Net-(U47-NRSTO)*%
X127670000Y-182610000D03*
%TO.N,Net-(U55-NRSTO)*%
X168190000Y-191270000D03*
%TO.N,Net-(U55-CO)*%
X168190000Y-187120000D03*
%TO.N,Net-(U55-CLKO)*%
X168190000Y-188140000D03*
%TO.N,Net-(U55-RI)*%
X168190000Y-189210000D03*
%TO.N,Net-(U55-BO)*%
X168190000Y-190200000D03*
%TO.N,Net-(U55-CI)*%
X151680000Y-158810000D03*
%TO.N,Net-(U54-CO)*%
X146340000Y-185190000D03*
%TO.N,Net-(U56-CO)*%
X154350000Y-158820000D03*
%TO.N,Net-(U54-CLKO)*%
X146350000Y-186390000D03*
%TO.N,Net-(U55-CLKI)*%
X151700000Y-159810000D03*
%TO.N,Net-(U56-CLKO)*%
X154871091Y-161558909D03*
%TO.N,Net-(U55-RO)*%
X151700000Y-160840000D03*
%TO.N,Net-(U54-RI)*%
X146310000Y-187330000D03*
%TO.N,Net-(U56-RI)*%
X154700000Y-163200000D03*
%TO.N,Net-(U55-BI)*%
X151660000Y-161870000D03*
%TO.N,Net-(U54-BO)*%
X146320000Y-188410000D03*
%TO.N,Net-(U56-BO)*%
X154040000Y-163980000D03*
%TO.N,Net-(U54-NRSTO)*%
X146310000Y-189360000D03*
%TO.N,Net-(U55-NRSTI)*%
X151940000Y-162856000D03*
%TO.N,Net-(U56-NRSTO)*%
X153370000Y-163610000D03*
%TO.N,Net-(U64-NRSTO)*%
X189920000Y-161070000D03*
%TO.N,Net-(U64-CO)*%
X190100000Y-157090000D03*
%TO.N,Net-(U64-CLKO)*%
X189890000Y-158110000D03*
%TO.N,Net-(U64-RI)*%
X189890000Y-159060000D03*
%TO.N,Net-(U64-BO)*%
X189890000Y-160050000D03*
%TO.N,Net-(U64-CI)*%
X173713954Y-186860313D03*
%TO.N,Net-(U63-CO)*%
X167780000Y-160730000D03*
%TO.N,Net-(U65-CO)*%
X176400000Y-185470000D03*
%TO.N,Net-(U63-CLKO)*%
X167780000Y-161720000D03*
%TO.N,Net-(U64-CLKI)*%
X173760000Y-187650000D03*
%TO.N,Net-(U65-CLKO)*%
X176430000Y-186240000D03*
%TO.N,Net-(U63-RI)*%
X167780000Y-162730000D03*
%TO.N,Net-(U64-RO)*%
X173800000Y-188400000D03*
%TO.N,Net-(U65-RI)*%
X176390000Y-187130000D03*
%TO.N,Net-(U64-BI)*%
X173800000Y-189325000D03*
%TO.N,Net-(U63-BO)*%
X167780000Y-163730000D03*
%TO.N,Net-(U65-BO)*%
X176370000Y-187940000D03*
%TO.N,Net-(U63-NRSTO)*%
X167780000Y-164740000D03*
%TO.N,Net-(U64-NRSTI)*%
X173800000Y-190250000D03*
X173970000Y-179310000D03*
%TO.N,Net-(U65-NRSTO)*%
X176196545Y-189791783D03*
%TO.N,Net-(U73-NRSTO)*%
X214940000Y-180240000D03*
%TO.N,Net-(U73-CO)*%
X210910000Y-180240000D03*
%TO.N,Net-(U73-CLKO)*%
X211920000Y-180240000D03*
%TO.N,Net-(U73-RI)*%
X212930000Y-180240000D03*
%TO.N,Net-(U73-BO)*%
X213920000Y-180230000D03*
%TO.N,Net-(U74-BI)*%
X209910000Y-163500000D03*
%TO.N,Net-(U72-CO)*%
X192260000Y-185660000D03*
%TO.N,Net-(U73-CI)*%
X198010000Y-177740000D03*
%TO.N,Net-(U72-CLKO)*%
X192260000Y-186610000D03*
%TO.N,Net-(U73-CLKI)*%
X198010000Y-176988286D03*
%TO.N,Net-(U72-RI)*%
X192280000Y-187570000D03*
%TO.N,Net-(U73-RO)*%
X198010000Y-176213909D03*
%TO.N,Net-(U73-BI)*%
X198010000Y-175430000D03*
%TO.N,Net-(U72-BO)*%
X192310000Y-188520000D03*
%TO.N,Net-(U73-NRSTI)*%
X198010000Y-174650000D03*
%TO.N,Net-(U72-NRSTO)*%
X192310000Y-189450000D03*
%TO.N,/stack4/RO*%
X143550000Y-186680000D03*
%TO.N,/stack4/CLKI*%
X143550000Y-185800000D03*
%TO.N,/stack4/CI*%
X143530000Y-184980000D03*
%TO.N,Net-(U74-NRSTO)*%
X195460000Y-174630000D03*
%TO.N,Net-(U74-BO)*%
X195230000Y-175567500D03*
%TO.N,Net-(U74-RI)*%
X195230000Y-176505000D03*
%TO.N,Net-(U74-CLKO)*%
X195230000Y-177442500D03*
%TO.N,Net-(U74-CO)*%
X195230000Y-178380000D03*
%TO.N,/Data/SCL*%
X211200000Y-105590000D03*
X151130000Y-94650000D03*
X225993909Y-107416091D03*
X155350000Y-100000000D03*
X122490000Y-116470000D03*
%TO.N,/Data/SDA*%
X123290000Y-116470000D03*
X154566600Y-100053400D03*
X204275000Y-99170000D03*
X150320000Y-94670000D03*
X210650000Y-106180000D03*
X226488051Y-108027648D03*
%TO.N,/Data/QSPI_SD1*%
X212930000Y-97970000D03*
X205348889Y-95243644D03*
%TO.N,/Data/QSPI_SD2*%
X213770000Y-97970000D03*
X206300000Y-95225000D03*
%TO.N,/RST*%
X236460000Y-140720000D03*
X210110000Y-102810000D03*
%TO.N,/RX*%
X235320000Y-141910000D03*
X208860000Y-103220000D03*
%TO.N,Net-(U27-GPIO1)*%
X232810000Y-81080000D03*
X210280000Y-99396526D03*
%TO.N,/TX*%
X235910000Y-141360000D03*
X208850000Y-102390000D03*
%TO.N,/stack6/CI*%
X189800000Y-185630000D03*
%TO.N,/stack6/CLKI*%
X189820000Y-186590000D03*
%TO.N,/stack6/RO*%
X189800000Y-187540000D03*
%TO.N,/stack6/BI*%
X189800000Y-188500000D03*
%TO.N,/stack6/NRSTI*%
X189770000Y-189480000D03*
%TO.N,Net-(U45-NRSTI)*%
X146410000Y-173030000D03*
%TO.N,Net-(U45-RO)*%
X146640000Y-174770000D03*
%TO.N,Net-(U45-CLKI)*%
X146650000Y-175780000D03*
%TO.N,Net-(U45-CI)*%
X146650000Y-176790000D03*
X145680000Y-164810000D03*
%TO.N,Net-(U54-NRSTI)*%
X165260000Y-191320000D03*
%TO.N,Net-(U54-BI)*%
X165260000Y-190500000D03*
%TO.N,Net-(U54-RO)*%
X165260000Y-189720000D03*
%TO.N,Net-(U54-CLKI)*%
X165260000Y-188950000D03*
%TO.N,Net-(U54-CI)*%
X165260000Y-188190000D03*
%TO.N,/stack4/BI*%
X143550000Y-187730000D03*
%TO.N,/stack4/NRSTI*%
X143570000Y-189020000D03*
%TO.N,Net-(U63-NRSTI)*%
X186860000Y-161170000D03*
%TO.N,/stack5/NRSTI*%
X165190000Y-164710000D03*
%TO.N,Net-(U63-BI)*%
X186880000Y-160260000D03*
%TO.N,/stack5/BI*%
X165190000Y-163710000D03*
%TO.N,Net-(U63-RO)*%
X186860000Y-159400000D03*
%TO.N,/stack5/RO*%
X165190000Y-162700000D03*
%TO.N,Net-(U63-CLKI)*%
X186860000Y-158530000D03*
%TO.N,/stack5/CLKI*%
X165190000Y-161750000D03*
%TO.N,Net-(U63-CI)*%
X186880000Y-157670000D03*
%TO.N,/stack5/CI*%
X165190000Y-160720000D03*
%TO.N,Net-(U72-NRSTI)*%
X211500000Y-190000000D03*
X214940000Y-183060000D03*
%TO.N,Net-(U72-BI)*%
X213930000Y-183060000D03*
%TO.N,Net-(U72-RO)*%
X212920000Y-183060000D03*
%TO.N,Net-(U72-CLKI)*%
X211930000Y-183040000D03*
%TO.N,Net-(U72-CI)*%
X210910000Y-183040000D03*
%TO.N,/stack7/RST_N*%
X232640000Y-155860000D03*
X227400000Y-164230000D03*
X232600000Y-159300000D03*
%TO.N,/stack7/RO*%
X227400000Y-162850000D03*
%TO.N,/stack7/CLKI*%
X219680000Y-162210000D03*
%TO.N,/stack7/CI*%
X227430000Y-161570000D03*
%TO.N,/5V*%
X218010000Y-173960000D03*
X218010000Y-160100000D03*
X126570000Y-169880000D03*
X218010000Y-192610000D03*
X126570000Y-188380000D03*
X126570000Y-183670000D03*
X218010000Y-187650000D03*
D18*
X177880000Y-96600000D03*
D16*
X190338749Y-176083749D03*
X126570000Y-175090000D03*
X149830000Y-192140000D03*
X126570000Y-156720000D03*
X147310000Y-192140000D03*
X144680000Y-157700000D03*
X218010000Y-178850000D03*
D18*
X217320000Y-88220000D03*
D16*
X126570000Y-161220000D03*
X174860000Y-157460000D03*
X191670000Y-163360000D03*
X170610000Y-174190000D03*
X170690000Y-190600000D03*
X170910000Y-185720000D03*
D18*
X212550000Y-88250000D03*
D16*
X218010000Y-164990000D03*
X148720000Y-153100000D03*
%TO.N,/Data/PWR_EN*%
X203180000Y-98910000D03*
X127780000Y-87090000D03*
%TD*%
D19*
%TO.N,/5V*%
X177880000Y-96600000D02*
X177880000Y-137790000D01*
X177880000Y-137790000D02*
X188870000Y-148780000D01*
D20*
X126570000Y-161220000D02*
X126570000Y-156720000D01*
X126570000Y-169880000D02*
X126570000Y-161220000D01*
D21*
X191670000Y-163360000D02*
X191360000Y-163670000D01*
X188880000Y-163670000D02*
X188870000Y-163660000D01*
X191360000Y-163670000D02*
X188880000Y-163670000D01*
%TO.N,GND*%
X224680000Y-146280000D02*
X229070000Y-150670000D01*
X229070000Y-150670000D02*
X229070000Y-150730000D01*
X205420000Y-146280000D02*
X224680000Y-146280000D01*
X131700000Y-101200000D02*
X130500000Y-102400000D01*
X130500000Y-106070000D02*
X121550000Y-115020000D01*
X122405000Y-179190000D02*
X123030000Y-179190000D01*
X229070000Y-150730000D02*
X229070000Y-160770000D01*
X229070000Y-150730000D02*
X230240000Y-150730000D01*
X121550000Y-169490000D02*
X122565000Y-170505000D01*
X230626000Y-177826000D02*
X232240000Y-179440000D01*
X121550000Y-115020000D02*
X121550000Y-169490000D01*
X130500000Y-102400000D02*
X130500000Y-106070000D01*
X229070000Y-160770000D02*
X230626000Y-162326000D01*
X123030000Y-179190000D02*
X123670000Y-178550000D01*
X123670000Y-178550000D02*
X123670000Y-171610000D01*
X230626000Y-162326000D02*
X230626000Y-177826000D01*
X123670000Y-171610000D02*
X122565000Y-170505000D01*
X232240000Y-179440000D02*
X234740000Y-179440000D01*
%TO.N,/3V3*%
X233670000Y-160830000D02*
X233670000Y-145200000D01*
X232200000Y-162300000D02*
X233670000Y-160830000D01*
X233670000Y-145200000D02*
X232930000Y-145200000D01*
X120100000Y-169750000D02*
X120100000Y-114870000D01*
X128800000Y-106170000D02*
X128800000Y-101775000D01*
X120100000Y-114870000D02*
X128800000Y-106170000D01*
X235470000Y-145200000D02*
X235560000Y-145110000D01*
X233670000Y-110300000D02*
X233670000Y-145200000D01*
X128800000Y-101775000D02*
X129375000Y-101200000D01*
X233670000Y-145200000D02*
X235470000Y-145200000D01*
X232930000Y-145200000D02*
X232000000Y-146130000D01*
X232200000Y-171100000D02*
X232200000Y-162300000D01*
%TO.N,/5V*%
X170690000Y-190600000D02*
X171315000Y-191225000D01*
X170910000Y-185720000D02*
X172995104Y-185720000D01*
D20*
X182710000Y-148780000D02*
X174860000Y-156630000D01*
X218010000Y-173960000D02*
X218010000Y-178850000D01*
X126570000Y-156720000D02*
X134510000Y-148780000D01*
X126570000Y-175090000D02*
X126570000Y-169880000D01*
X174860000Y-174190000D02*
X170610000Y-174190000D01*
X153040000Y-148780000D02*
X148720000Y-153100000D01*
X174860000Y-156630000D02*
X174860000Y-157460000D01*
X174920000Y-184980000D02*
X174920000Y-190580000D01*
X144680000Y-157700000D02*
X144680000Y-157140000D01*
D21*
X172995104Y-185720000D02*
X173735104Y-184980000D01*
D20*
X174860000Y-157460000D02*
X174860000Y-174190000D01*
X188870000Y-148780000D02*
X188870000Y-163660000D01*
X218010000Y-187650000D02*
X218010000Y-192610000D01*
X218010000Y-178850000D02*
X218010000Y-187650000D01*
X188990000Y-148660000D02*
X212280000Y-148660000D01*
X147310000Y-192140000D02*
X149830000Y-192140000D01*
X134510000Y-148780000D02*
X153040000Y-148780000D01*
X126570000Y-175090000D02*
X126570000Y-183670000D01*
X188870000Y-148780000D02*
X182710000Y-148780000D01*
D21*
X174275000Y-191225000D02*
X174920000Y-190580000D01*
X173735104Y-184980000D02*
X174920000Y-184980000D01*
D20*
X174920000Y-174250000D02*
X174920000Y-184980000D01*
D21*
X171315000Y-191225000D02*
X174275000Y-191225000D01*
D20*
X174860000Y-174190000D02*
X174920000Y-174250000D01*
X212280000Y-148660000D02*
X218010000Y-154390000D01*
X218010000Y-160100000D02*
X218010000Y-164990000D01*
X144680000Y-157140000D02*
X148720000Y-153100000D01*
X188870000Y-148780000D02*
X153040000Y-148780000D01*
X188870000Y-163660000D02*
X188870000Y-174615000D01*
X218010000Y-154390000D02*
X218010000Y-160100000D01*
X188870000Y-174615000D02*
X190338749Y-176083749D01*
X126570000Y-183670000D02*
X126570000Y-188380000D01*
X218010000Y-164990000D02*
X218010000Y-173960000D01*
X144680000Y-157700000D02*
X144680000Y-171410000D01*
X146600000Y-192140000D02*
X147310000Y-192140000D01*
X144680000Y-171410000D02*
X144680000Y-190220000D01*
X144680000Y-190220000D02*
X146600000Y-192140000D01*
%TD*%
%TA.AperFunction,Conductor*%
%TO.N,/3V3*%
G36*
X239915927Y-78675014D02*
G01*
X239917316Y-78675034D01*
X240063164Y-78677236D01*
X240076206Y-78678123D01*
X240369443Y-78713729D01*
X240384143Y-78716423D01*
X240670024Y-78786886D01*
X240684317Y-78791340D01*
X240959604Y-78895743D01*
X240973254Y-78901887D01*
X241233957Y-79038715D01*
X241246771Y-79046461D01*
X241489067Y-79213706D01*
X241500855Y-79222940D01*
X241721238Y-79418182D01*
X241731822Y-79428766D01*
X241927059Y-79649145D01*
X241936293Y-79660932D01*
X242103538Y-79903228D01*
X242111284Y-79916042D01*
X242248112Y-80176745D01*
X242254258Y-80190400D01*
X242358658Y-80465681D01*
X242363113Y-80479977D01*
X242433573Y-80765842D01*
X242436271Y-80780569D01*
X242460346Y-80978839D01*
X242471874Y-81073775D01*
X242472764Y-81086851D01*
X242474986Y-81234072D01*
X242475000Y-81235943D01*
X242475000Y-110600887D01*
X242455315Y-110667926D01*
X242402511Y-110713681D01*
X242351186Y-110724887D01*
X218225060Y-110761045D01*
X218204527Y-110755049D01*
X218194791Y-110759637D01*
X218175871Y-110761118D01*
X212343178Y-110769860D01*
X212276109Y-110750276D01*
X212230275Y-110697540D01*
X212223943Y-110680548D01*
X212014054Y-109959999D01*
X217644750Y-109959999D01*
X217644750Y-109960000D01*
X217663670Y-110103708D01*
X217663671Y-110103712D01*
X217719137Y-110237622D01*
X217719138Y-110237624D01*
X217719139Y-110237625D01*
X217807379Y-110352621D01*
X217922375Y-110440861D01*
X218056291Y-110496330D01*
X218191872Y-110514179D01*
X218197208Y-110516540D01*
X218208685Y-110514106D01*
X218343709Y-110496330D01*
X218477625Y-110440861D01*
X218592621Y-110352621D01*
X218680861Y-110237625D01*
X218736330Y-110103709D01*
X218755250Y-109960000D01*
X218736330Y-109816291D01*
X218680861Y-109682375D01*
X218592621Y-109567379D01*
X218477625Y-109479139D01*
X218477624Y-109479138D01*
X218477622Y-109479137D01*
X218343712Y-109423671D01*
X218343710Y-109423670D01*
X218343709Y-109423670D01*
X218271854Y-109414210D01*
X218200001Y-109404750D01*
X218199999Y-109404750D01*
X218056291Y-109423670D01*
X218056287Y-109423671D01*
X217922377Y-109479137D01*
X217807379Y-109567379D01*
X217719137Y-109682377D01*
X217663671Y-109816287D01*
X217663670Y-109816291D01*
X217644750Y-109959999D01*
X212014054Y-109959999D01*
X211922986Y-109647364D01*
X211923136Y-109577498D01*
X211961037Y-109518802D01*
X212024655Y-109489913D01*
X212058224Y-109489750D01*
X212099999Y-109495250D01*
X212100000Y-109495250D01*
X212100001Y-109495250D01*
X212121837Y-109492375D01*
X212243709Y-109476330D01*
X212377625Y-109420861D01*
X212492621Y-109332621D01*
X212580861Y-109217625D01*
X212636330Y-109083709D01*
X212655250Y-108940000D01*
X212636330Y-108796291D01*
X212580861Y-108662375D01*
X212492621Y-108547379D01*
X212377625Y-108459139D01*
X212377624Y-108459138D01*
X212377622Y-108459137D01*
X212243712Y-108403671D01*
X212243710Y-108403670D01*
X212243709Y-108403670D01*
X212171854Y-108394210D01*
X212100001Y-108384750D01*
X212099999Y-108384750D01*
X211956291Y-108403670D01*
X211956287Y-108403671D01*
X211822376Y-108459138D01*
X211822375Y-108459138D01*
X211765549Y-108502742D01*
X211700380Y-108527935D01*
X211631935Y-108513896D01*
X211581946Y-108465081D01*
X211571014Y-108439051D01*
X211291651Y-107480000D01*
X216194750Y-107480000D01*
X216213494Y-107622375D01*
X216213670Y-107623708D01*
X216213671Y-107623712D01*
X216269137Y-107757622D01*
X216269138Y-107757624D01*
X216269139Y-107757625D01*
X216357379Y-107872621D01*
X216472375Y-107960861D01*
X216472376Y-107960861D01*
X216472377Y-107960862D01*
X216517013Y-107979350D01*
X216606291Y-108016330D01*
X216733280Y-108033048D01*
X216749999Y-108035250D01*
X216750000Y-108035250D01*
X216750001Y-108035250D01*
X216764977Y-108033278D01*
X216893709Y-108016330D01*
X217027625Y-107960861D01*
X217106940Y-107900000D01*
X224344750Y-107900000D01*
X224361555Y-108027648D01*
X224363670Y-108043708D01*
X224363671Y-108043712D01*
X224419137Y-108177622D01*
X224419138Y-108177624D01*
X224419139Y-108177625D01*
X224507379Y-108292621D01*
X224622375Y-108380861D01*
X224756291Y-108436330D01*
X224883280Y-108453048D01*
X224899999Y-108455250D01*
X224900000Y-108455250D01*
X224900001Y-108455250D01*
X224914977Y-108453278D01*
X225043709Y-108436330D01*
X225177625Y-108380861D01*
X225292621Y-108292621D01*
X225380861Y-108177625D01*
X225436330Y-108043709D01*
X225451531Y-107928245D01*
X225479798Y-107864350D01*
X225538122Y-107825879D01*
X225607987Y-107825048D01*
X225649956Y-107846056D01*
X225670164Y-107861562D01*
X225716282Y-107896951D01*
X225716283Y-107896951D01*
X225716284Y-107896952D01*
X225791836Y-107928246D01*
X225857708Y-107955531D01*
X225856693Y-107957979D01*
X225905172Y-107987519D01*
X225935710Y-108050362D01*
X225936369Y-108054755D01*
X225951721Y-108171356D01*
X225951722Y-108171360D01*
X226007188Y-108305270D01*
X226007189Y-108305272D01*
X226007190Y-108305273D01*
X226095430Y-108420269D01*
X226210426Y-108508509D01*
X226210427Y-108508509D01*
X226210428Y-108508510D01*
X226255064Y-108526998D01*
X226344342Y-108563978D01*
X226471331Y-108580696D01*
X226488050Y-108582898D01*
X226488051Y-108582898D01*
X226488052Y-108582898D01*
X226503028Y-108580926D01*
X226631760Y-108563978D01*
X226765676Y-108508509D01*
X226880672Y-108420269D01*
X226968912Y-108305273D01*
X227024381Y-108171357D01*
X227043301Y-108027648D01*
X227024381Y-107883939D01*
X226981405Y-107780184D01*
X226968913Y-107750025D01*
X226968912Y-107750024D01*
X226968912Y-107750023D01*
X226880672Y-107635027D01*
X226765676Y-107546787D01*
X226765675Y-107546786D01*
X226765673Y-107546785D01*
X226624252Y-107488208D01*
X226625264Y-107485762D01*
X226576774Y-107456206D01*
X226546245Y-107393359D01*
X226545595Y-107389026D01*
X226530239Y-107272382D01*
X226474770Y-107138466D01*
X226386530Y-107023470D01*
X226271534Y-106935230D01*
X226271533Y-106935229D01*
X226271531Y-106935228D01*
X226137621Y-106879762D01*
X226137619Y-106879761D01*
X226137618Y-106879761D01*
X226065763Y-106870301D01*
X225993910Y-106860841D01*
X225993908Y-106860841D01*
X225850200Y-106879761D01*
X225850196Y-106879762D01*
X225716286Y-106935228D01*
X225601288Y-107023470D01*
X225513046Y-107138468D01*
X225457580Y-107272378D01*
X225457579Y-107272382D01*
X225442377Y-107387845D01*
X225414110Y-107451741D01*
X225355785Y-107490211D01*
X225285920Y-107491042D01*
X225243951Y-107470033D01*
X225177626Y-107419139D01*
X225177623Y-107419138D01*
X225043712Y-107363671D01*
X225043710Y-107363670D01*
X225043709Y-107363670D01*
X224971854Y-107354210D01*
X224900001Y-107344750D01*
X224899999Y-107344750D01*
X224756291Y-107363670D01*
X224756287Y-107363671D01*
X224622377Y-107419137D01*
X224507379Y-107507379D01*
X224419137Y-107622377D01*
X224363671Y-107756287D01*
X224363670Y-107756291D01*
X224346865Y-107883939D01*
X224344750Y-107900000D01*
X217106940Y-107900000D01*
X217142621Y-107872621D01*
X217230861Y-107757625D01*
X217286330Y-107623709D01*
X217305250Y-107480000D01*
X217286330Y-107336291D01*
X217263014Y-107280000D01*
X217674750Y-107280000D01*
X217690132Y-107396839D01*
X217693670Y-107423708D01*
X217693671Y-107423712D01*
X217749137Y-107557622D01*
X217749138Y-107557624D01*
X217749139Y-107557625D01*
X217837379Y-107672621D01*
X217952375Y-107760861D01*
X217952376Y-107760861D01*
X217952377Y-107760862D01*
X217997013Y-107779350D01*
X218086291Y-107816330D01*
X218213280Y-107833048D01*
X218229999Y-107835250D01*
X218230000Y-107835250D01*
X218230001Y-107835250D01*
X218244977Y-107833278D01*
X218373709Y-107816330D01*
X218507625Y-107760861D01*
X218622621Y-107672621D01*
X218710861Y-107557625D01*
X218766330Y-107423709D01*
X218766331Y-107423700D01*
X218768433Y-107415859D01*
X218770883Y-107416515D01*
X218793995Y-107364234D01*
X218852310Y-107325748D01*
X218922174Y-107324898D01*
X218981407Y-107361954D01*
X219003250Y-107396839D01*
X219049037Y-107507379D01*
X219049139Y-107507625D01*
X219137379Y-107622621D01*
X219252375Y-107710861D01*
X219252376Y-107710861D01*
X219252377Y-107710862D01*
X219297013Y-107729350D01*
X219386291Y-107766330D01*
X219513280Y-107783048D01*
X219529999Y-107785250D01*
X219530000Y-107785250D01*
X219530001Y-107785250D01*
X219544977Y-107783278D01*
X219673709Y-107766330D01*
X219807625Y-107710861D01*
X219922621Y-107622621D01*
X220010861Y-107507625D01*
X220066330Y-107373709D01*
X220085250Y-107230000D01*
X220066330Y-107086291D01*
X220010861Y-106952375D01*
X219922621Y-106837379D01*
X219807625Y-106749139D01*
X219807624Y-106749138D01*
X219807622Y-106749137D01*
X219673712Y-106693671D01*
X219673710Y-106693670D01*
X219673709Y-106693670D01*
X219601854Y-106684210D01*
X219530001Y-106674750D01*
X219529999Y-106674750D01*
X219386291Y-106693670D01*
X219386287Y-106693671D01*
X219252377Y-106749137D01*
X219137379Y-106837379D01*
X219049137Y-106952377D01*
X218993671Y-107086287D01*
X218991567Y-107094141D01*
X218989122Y-107093485D01*
X218965979Y-107145794D01*
X218907653Y-107184262D01*
X218837789Y-107185091D01*
X218778567Y-107148016D01*
X218756749Y-107113160D01*
X218710862Y-107002377D01*
X218710861Y-107002376D01*
X218710861Y-107002375D01*
X218622621Y-106887379D01*
X218507625Y-106799139D01*
X218507624Y-106799138D01*
X218507622Y-106799137D01*
X218373712Y-106743671D01*
X218373710Y-106743670D01*
X218373709Y-106743670D01*
X218301854Y-106734210D01*
X218230001Y-106724750D01*
X218229999Y-106724750D01*
X218086291Y-106743670D01*
X218086287Y-106743671D01*
X217952377Y-106799137D01*
X217837379Y-106887379D01*
X217749137Y-107002377D01*
X217693671Y-107136287D01*
X217693670Y-107136291D01*
X217674750Y-107280000D01*
X217263014Y-107280000D01*
X217249350Y-107247013D01*
X217230862Y-107202377D01*
X217230861Y-107202376D01*
X217230861Y-107202375D01*
X217142621Y-107087379D01*
X217027625Y-106999139D01*
X217027624Y-106999138D01*
X217027622Y-106999137D01*
X216893712Y-106943671D01*
X216893710Y-106943670D01*
X216893709Y-106943670D01*
X216821854Y-106934210D01*
X216750001Y-106924750D01*
X216749999Y-106924750D01*
X216606291Y-106943670D01*
X216606287Y-106943671D01*
X216472377Y-106999137D01*
X216357379Y-107087379D01*
X216269137Y-107202377D01*
X216213671Y-107336287D01*
X216213670Y-107336291D01*
X216196119Y-107469605D01*
X216194750Y-107480000D01*
X211291651Y-107480000D01*
X211049115Y-106647373D01*
X211049265Y-106577507D01*
X211069792Y-106537211D01*
X211130860Y-106457626D01*
X211130859Y-106457626D01*
X211130861Y-106457625D01*
X211186330Y-106323709D01*
X211197579Y-106238264D01*
X211225844Y-106174371D01*
X211284168Y-106135899D01*
X211304325Y-106131514D01*
X211343709Y-106126330D01*
X211477625Y-106070861D01*
X211592621Y-105982621D01*
X211677390Y-105872149D01*
X236049500Y-105872149D01*
X236049500Y-106127850D01*
X236070824Y-106289816D01*
X236082874Y-106381340D01*
X236135437Y-106577507D01*
X236149050Y-106628312D01*
X236149053Y-106628322D01*
X236246894Y-106864531D01*
X236246899Y-106864542D01*
X236374734Y-107085957D01*
X236374745Y-107085973D01*
X236530388Y-107288811D01*
X236530394Y-107288818D01*
X236711181Y-107469605D01*
X236711188Y-107469611D01*
X236739477Y-107491318D01*
X236914035Y-107625261D01*
X236914042Y-107625265D01*
X237135457Y-107753100D01*
X237135462Y-107753102D01*
X237135465Y-107753104D01*
X237371687Y-107850950D01*
X237618660Y-107917126D01*
X237872157Y-107950500D01*
X237872164Y-107950500D01*
X238127836Y-107950500D01*
X238127843Y-107950500D01*
X238381340Y-107917126D01*
X238628313Y-107850950D01*
X238864535Y-107753104D01*
X239085965Y-107625261D01*
X239288813Y-107469610D01*
X239469610Y-107288813D01*
X239625261Y-107085965D01*
X239753104Y-106864535D01*
X239850950Y-106628313D01*
X239917126Y-106381340D01*
X239950500Y-106127843D01*
X239950500Y-105872157D01*
X239917126Y-105618660D01*
X239850950Y-105371687D01*
X239842418Y-105351090D01*
X239779958Y-105200296D01*
X239753104Y-105135465D01*
X239753102Y-105135462D01*
X239753100Y-105135457D01*
X239625265Y-104914042D01*
X239625261Y-104914035D01*
X239580452Y-104855638D01*
X239469611Y-104711188D01*
X239469605Y-104711181D01*
X239288818Y-104530394D01*
X239288811Y-104530388D01*
X239085973Y-104374745D01*
X239085971Y-104374743D01*
X239085965Y-104374739D01*
X239085960Y-104374736D01*
X239085957Y-104374734D01*
X238864542Y-104246899D01*
X238864531Y-104246894D01*
X238628322Y-104149053D01*
X238628315Y-104149051D01*
X238628313Y-104149050D01*
X238381340Y-104082874D01*
X238325007Y-104075457D01*
X238127850Y-104049500D01*
X238127843Y-104049500D01*
X237872157Y-104049500D01*
X237872149Y-104049500D01*
X237646826Y-104079165D01*
X237618660Y-104082874D01*
X237448299Y-104128522D01*
X237371687Y-104149050D01*
X237371677Y-104149053D01*
X237135468Y-104246894D01*
X237135457Y-104246899D01*
X236914042Y-104374734D01*
X236914026Y-104374745D01*
X236711188Y-104530388D01*
X236711181Y-104530394D01*
X236530394Y-104711181D01*
X236530388Y-104711188D01*
X236374745Y-104914026D01*
X236374734Y-104914042D01*
X236246899Y-105135457D01*
X236246894Y-105135468D01*
X236149053Y-105371677D01*
X236149050Y-105371687D01*
X236090554Y-105590000D01*
X236082874Y-105618661D01*
X236049500Y-105872149D01*
X211677390Y-105872149D01*
X211680861Y-105867625D01*
X211736330Y-105733709D01*
X211755250Y-105590000D01*
X211736330Y-105446291D01*
X211680861Y-105312375D01*
X211592621Y-105197379D01*
X211477625Y-105109139D01*
X211477624Y-105109138D01*
X211477622Y-105109137D01*
X211343712Y-105053671D01*
X211343710Y-105053670D01*
X211343709Y-105053670D01*
X211259785Y-105042621D01*
X211200001Y-105034750D01*
X211199999Y-105034750D01*
X211056291Y-105053670D01*
X211056287Y-105053671D01*
X210922376Y-105109138D01*
X210922374Y-105109139D01*
X210803577Y-105200296D01*
X210738408Y-105225490D01*
X210669963Y-105211452D01*
X210619974Y-105162638D01*
X210609040Y-105136603D01*
X210134104Y-103506149D01*
X210134254Y-103436281D01*
X210172155Y-103377585D01*
X210235773Y-103348696D01*
X210236882Y-103348545D01*
X210253709Y-103346330D01*
X210387625Y-103290861D01*
X210502621Y-103202621D01*
X210590861Y-103087625D01*
X210646330Y-102953709D01*
X210656034Y-102880000D01*
X213439325Y-102880000D01*
X213456026Y-103006858D01*
X213458245Y-103023708D01*
X213458246Y-103023712D01*
X213513712Y-103157622D01*
X213513713Y-103157624D01*
X213513714Y-103157625D01*
X213601954Y-103272621D01*
X213716950Y-103360861D01*
X213716951Y-103360861D01*
X213716952Y-103360862D01*
X213727546Y-103365250D01*
X213850866Y-103416330D01*
X213977855Y-103433048D01*
X213994574Y-103435250D01*
X213994575Y-103435250D01*
X213994576Y-103435250D01*
X214009552Y-103433278D01*
X214138284Y-103416330D01*
X214272200Y-103360861D01*
X214387196Y-103272621D01*
X214475436Y-103157625D01*
X214530905Y-103023709D01*
X214549825Y-102880000D01*
X214534685Y-102765000D01*
X214794750Y-102765000D01*
X214800674Y-102810000D01*
X214813670Y-102908708D01*
X214813671Y-102908712D01*
X214869137Y-103042622D01*
X214869138Y-103042624D01*
X214869139Y-103042625D01*
X214957379Y-103157621D01*
X215072375Y-103245861D01*
X215072376Y-103245861D01*
X215072377Y-103245862D01*
X215073507Y-103246330D01*
X215206291Y-103301330D01*
X215333280Y-103318048D01*
X215349999Y-103320250D01*
X215350000Y-103320250D01*
X215350001Y-103320250D01*
X215364977Y-103318278D01*
X215493709Y-103301330D01*
X215627625Y-103245861D01*
X215742621Y-103157621D01*
X215742624Y-103157616D01*
X215746667Y-103153574D01*
X215807989Y-103120086D01*
X215877681Y-103125067D01*
X215909840Y-103142876D01*
X215972373Y-103190860D01*
X215972374Y-103190860D01*
X215972375Y-103190861D01*
X216106291Y-103246330D01*
X216233280Y-103263048D01*
X216249999Y-103265250D01*
X216250000Y-103265250D01*
X216250001Y-103265250D01*
X216264977Y-103263278D01*
X216393709Y-103246330D01*
X216522517Y-103192976D01*
X216591982Y-103185508D01*
X216645453Y-103209163D01*
X216732373Y-103275860D01*
X216732374Y-103275860D01*
X216732375Y-103275861D01*
X216866291Y-103331330D01*
X216993280Y-103348048D01*
X217009999Y-103350250D01*
X217010000Y-103350250D01*
X217010001Y-103350250D01*
X217024977Y-103348278D01*
X217153709Y-103331330D01*
X217287625Y-103275861D01*
X217402621Y-103187621D01*
X217490861Y-103072625D01*
X217546330Y-102938709D01*
X217565250Y-102795000D01*
X217546330Y-102651291D01*
X217490861Y-102517375D01*
X217402621Y-102402379D01*
X217287625Y-102314139D01*
X217287624Y-102314138D01*
X217287622Y-102314137D01*
X217153712Y-102258671D01*
X217153710Y-102258670D01*
X217153709Y-102258670D01*
X217059683Y-102246291D01*
X217010001Y-102239750D01*
X217009999Y-102239750D01*
X216866291Y-102258670D01*
X216866287Y-102258671D01*
X216737485Y-102312022D01*
X216668016Y-102319491D01*
X216614548Y-102295838D01*
X216527625Y-102229139D01*
X216527624Y-102229138D01*
X216527622Y-102229137D01*
X216393712Y-102173671D01*
X216393710Y-102173670D01*
X216393709Y-102173670D01*
X216321854Y-102164210D01*
X216250001Y-102154750D01*
X216249999Y-102154750D01*
X216106291Y-102173670D01*
X216106287Y-102173671D01*
X215972377Y-102229137D01*
X215933888Y-102258671D01*
X215861602Y-102314139D01*
X215857369Y-102317387D01*
X215853318Y-102321438D01*
X215791992Y-102354917D01*
X215722301Y-102349925D01*
X215690162Y-102332125D01*
X215627625Y-102284139D01*
X215627624Y-102284138D01*
X215627622Y-102284137D01*
X215493712Y-102228671D01*
X215493710Y-102228670D01*
X215493709Y-102228670D01*
X215421854Y-102219210D01*
X215350001Y-102209750D01*
X215349999Y-102209750D01*
X215206291Y-102228670D01*
X215206287Y-102228671D01*
X215072377Y-102284137D01*
X214957379Y-102372379D01*
X214869137Y-102487377D01*
X214813671Y-102621287D01*
X214813670Y-102621291D01*
X214807746Y-102666291D01*
X214794750Y-102765000D01*
X214534685Y-102765000D01*
X214530905Y-102736291D01*
X214483271Y-102621291D01*
X214475437Y-102602377D01*
X214475436Y-102602376D01*
X214475436Y-102602375D01*
X214387196Y-102487379D01*
X214272200Y-102399139D01*
X214272199Y-102399138D01*
X214272197Y-102399137D01*
X214138287Y-102343671D01*
X214138285Y-102343670D01*
X214138284Y-102343670D01*
X214050585Y-102332124D01*
X213994576Y-102324750D01*
X213994574Y-102324750D01*
X213850866Y-102343670D01*
X213850862Y-102343671D01*
X213716952Y-102399137D01*
X213601954Y-102487379D01*
X213513712Y-102602377D01*
X213458246Y-102736287D01*
X213458245Y-102736291D01*
X213439325Y-102880000D01*
X210656034Y-102880000D01*
X210665250Y-102810000D01*
X210646330Y-102666291D01*
X210590861Y-102532375D01*
X210502621Y-102417379D01*
X210387625Y-102329139D01*
X210387624Y-102329138D01*
X210387622Y-102329137D01*
X210253712Y-102273671D01*
X210253710Y-102273670D01*
X210253709Y-102273670D01*
X210181854Y-102264210D01*
X210110001Y-102254750D01*
X210109999Y-102254750D01*
X209966291Y-102273670D01*
X209923491Y-102291398D01*
X209854022Y-102298865D01*
X209791543Y-102267590D01*
X209756988Y-102211515D01*
X209756474Y-102209750D01*
X209595993Y-101658820D01*
X209595992Y-101658819D01*
X209595993Y-101658819D01*
X208097155Y-101658552D01*
X208030119Y-101638855D01*
X207984373Y-101586043D01*
X207974442Y-101516883D01*
X208003479Y-101453333D01*
X208041261Y-101426094D01*
X208040586Y-101424925D01*
X208047620Y-101420863D01*
X208047619Y-101420863D01*
X208047625Y-101420861D01*
X208162621Y-101332621D01*
X208249039Y-101220000D01*
X213914750Y-101220000D01*
X213929630Y-101333026D01*
X213933670Y-101363708D01*
X213933671Y-101363712D01*
X213989137Y-101497622D01*
X213989138Y-101497624D01*
X213989139Y-101497625D01*
X214077379Y-101612621D01*
X214192375Y-101700861D01*
X214326291Y-101756330D01*
X214453280Y-101773048D01*
X214469999Y-101775250D01*
X214470000Y-101775250D01*
X214470001Y-101775250D01*
X214484977Y-101773278D01*
X214613709Y-101756330D01*
X214747625Y-101700861D01*
X214862621Y-101612621D01*
X214950861Y-101497625D01*
X215006330Y-101363709D01*
X215025250Y-101220000D01*
X215006330Y-101076291D01*
X215006329Y-101076290D01*
X215005269Y-101068234D01*
X215007709Y-101067912D01*
X215009066Y-101010499D01*
X215048217Y-100952629D01*
X215112441Y-100925113D01*
X215143366Y-100925293D01*
X215200000Y-100932750D01*
X215215393Y-100930723D01*
X215284426Y-100941487D01*
X215336683Y-100987866D01*
X215355570Y-101055134D01*
X215354518Y-101069847D01*
X215334750Y-101219998D01*
X215334750Y-101220000D01*
X215349630Y-101333026D01*
X215353670Y-101363708D01*
X215353671Y-101363712D01*
X215409137Y-101497622D01*
X215409138Y-101497624D01*
X215409139Y-101497625D01*
X215497379Y-101612621D01*
X215612375Y-101700861D01*
X215746291Y-101756330D01*
X215873280Y-101773048D01*
X215889999Y-101775250D01*
X215890000Y-101775250D01*
X215890001Y-101775250D01*
X215904977Y-101773278D01*
X216033709Y-101756330D01*
X216167625Y-101700861D01*
X216282621Y-101612621D01*
X216370861Y-101497625D01*
X216415440Y-101390000D01*
X222094750Y-101390000D01*
X222111431Y-101516706D01*
X222113670Y-101533708D01*
X222113671Y-101533712D01*
X222169137Y-101667622D01*
X222169138Y-101667624D01*
X222169139Y-101667625D01*
X222257379Y-101782621D01*
X222372375Y-101870861D01*
X222506291Y-101926330D01*
X222633280Y-101943048D01*
X222649999Y-101945250D01*
X222650000Y-101945250D01*
X222650001Y-101945250D01*
X222664977Y-101943278D01*
X222793709Y-101926330D01*
X222927625Y-101870861D01*
X223042621Y-101782621D01*
X223130861Y-101667625D01*
X223186330Y-101533709D01*
X223205250Y-101390000D01*
X223186330Y-101246291D01*
X223130861Y-101112375D01*
X223042621Y-100997379D01*
X222927625Y-100909139D01*
X222927624Y-100909138D01*
X222927622Y-100909137D01*
X222793712Y-100853671D01*
X222793710Y-100853670D01*
X222793709Y-100853670D01*
X222693508Y-100840478D01*
X222650001Y-100834750D01*
X222649999Y-100834750D01*
X222506291Y-100853670D01*
X222506287Y-100853671D01*
X222372377Y-100909137D01*
X222257379Y-100997379D01*
X222169137Y-101112377D01*
X222113671Y-101246287D01*
X222113670Y-101246291D01*
X222097270Y-101370862D01*
X222094750Y-101390000D01*
X216415440Y-101390000D01*
X216426330Y-101363709D01*
X216445250Y-101220000D01*
X216426330Y-101076291D01*
X216370861Y-100942375D01*
X216282621Y-100827379D01*
X216167625Y-100739139D01*
X216167624Y-100739138D01*
X216167622Y-100739137D01*
X216033712Y-100683671D01*
X216033710Y-100683670D01*
X216033709Y-100683670D01*
X215948023Y-100672389D01*
X215890001Y-100664750D01*
X215890000Y-100664750D01*
X215880901Y-100665947D01*
X215874603Y-100666777D01*
X215805568Y-100656009D01*
X215753313Y-100609628D01*
X215734429Y-100542359D01*
X215735481Y-100527651D01*
X215736328Y-100521211D01*
X215736330Y-100521209D01*
X215755250Y-100377500D01*
X215737314Y-100241269D01*
X215748079Y-100172238D01*
X215794459Y-100119982D01*
X215861727Y-100101096D01*
X215876437Y-100102147D01*
X215880024Y-100102620D01*
X215899999Y-100105250D01*
X215900000Y-100105250D01*
X215900001Y-100105250D01*
X215919976Y-100102620D01*
X216043709Y-100086330D01*
X216177625Y-100030861D01*
X216292621Y-99942621D01*
X216380861Y-99827625D01*
X216436330Y-99693709D01*
X216446034Y-99620000D01*
X224414750Y-99620000D01*
X224428228Y-99722377D01*
X224433670Y-99763708D01*
X224433671Y-99763712D01*
X224489137Y-99897622D01*
X224489138Y-99897624D01*
X224489139Y-99897625D01*
X224577379Y-100012621D01*
X224692375Y-100100861D01*
X224692376Y-100100861D01*
X224692377Y-100100862D01*
X224702971Y-100105250D01*
X224826291Y-100156330D01*
X224947122Y-100172238D01*
X224969999Y-100175250D01*
X224970000Y-100175250D01*
X224970001Y-100175250D01*
X224984977Y-100173278D01*
X225113709Y-100156330D01*
X225247625Y-100100861D01*
X225362621Y-100012621D01*
X225450861Y-99897625D01*
X225506330Y-99763709D01*
X225525250Y-99620000D01*
X225506330Y-99476291D01*
X225457296Y-99357910D01*
X225450862Y-99342377D01*
X225450861Y-99342376D01*
X225450861Y-99342375D01*
X225362621Y-99227379D01*
X225247625Y-99139139D01*
X225247624Y-99139138D01*
X225247622Y-99139137D01*
X225113712Y-99083671D01*
X225113710Y-99083670D01*
X225113709Y-99083670D01*
X225041854Y-99074210D01*
X224970001Y-99064750D01*
X224969999Y-99064750D01*
X224826291Y-99083670D01*
X224826287Y-99083671D01*
X224692377Y-99139137D01*
X224577379Y-99227379D01*
X224489137Y-99342377D01*
X224433671Y-99476287D01*
X224433670Y-99476291D01*
X224416412Y-99607379D01*
X224414750Y-99620000D01*
X216446034Y-99620000D01*
X216455250Y-99550000D01*
X216436330Y-99406291D01*
X216380861Y-99272375D01*
X216292621Y-99157379D01*
X216177625Y-99069139D01*
X216177624Y-99069138D01*
X216177622Y-99069137D01*
X216043712Y-99013671D01*
X216043710Y-99013670D01*
X216043709Y-99013670D01*
X215969538Y-99003905D01*
X215900001Y-98994750D01*
X215899999Y-98994750D01*
X215756291Y-99013670D01*
X215756287Y-99013671D01*
X215622377Y-99069137D01*
X215507379Y-99157379D01*
X215419137Y-99272377D01*
X215363671Y-99406287D01*
X215363670Y-99406291D01*
X215346036Y-99540235D01*
X215344750Y-99550000D01*
X215348100Y-99575449D01*
X215362685Y-99686226D01*
X215351920Y-99755262D01*
X215305540Y-99807518D01*
X215238271Y-99826403D01*
X215223563Y-99825351D01*
X215200005Y-99822250D01*
X215199998Y-99822250D01*
X215156086Y-99828031D01*
X215087051Y-99817265D01*
X215034795Y-99770885D01*
X215015910Y-99703616D01*
X215016962Y-99688906D01*
X215028583Y-99600643D01*
X215035250Y-99550000D01*
X215016330Y-99406291D01*
X214960861Y-99272375D01*
X214872621Y-99157379D01*
X214757625Y-99069139D01*
X214757624Y-99069138D01*
X214757622Y-99069137D01*
X214623712Y-99013671D01*
X214623710Y-99013670D01*
X214623709Y-99013670D01*
X214549538Y-99003905D01*
X214480001Y-98994750D01*
X214479999Y-98994750D01*
X214336291Y-99013670D01*
X214336287Y-99013671D01*
X214202377Y-99069137D01*
X214087379Y-99157379D01*
X213999137Y-99272377D01*
X213943671Y-99406287D01*
X213943670Y-99406291D01*
X213926036Y-99540235D01*
X213924750Y-99550000D01*
X213928100Y-99575449D01*
X213943670Y-99693708D01*
X213943671Y-99693712D01*
X213999137Y-99827622D01*
X213999138Y-99827624D01*
X213999139Y-99827625D01*
X214087379Y-99942621D01*
X214202375Y-100030861D01*
X214202376Y-100030861D01*
X214202377Y-100030862D01*
X214247013Y-100049350D01*
X214336291Y-100086330D01*
X214480000Y-100105250D01*
X214523913Y-100099468D01*
X214592946Y-100110233D01*
X214645203Y-100156612D01*
X214664089Y-100223880D01*
X214663037Y-100238592D01*
X214644750Y-100377497D01*
X214644750Y-100377500D01*
X214662342Y-100511125D01*
X214664731Y-100529266D01*
X214662292Y-100529587D01*
X214660926Y-100587021D01*
X214621765Y-100644884D01*
X214557536Y-100672389D01*
X214526629Y-100672205D01*
X214470002Y-100664750D01*
X214469999Y-100664750D01*
X214326291Y-100683670D01*
X214326287Y-100683671D01*
X214192377Y-100739137D01*
X214077379Y-100827379D01*
X213989137Y-100942377D01*
X213933671Y-101076287D01*
X213933670Y-101076291D01*
X213924239Y-101147929D01*
X213914750Y-101220000D01*
X208249039Y-101220000D01*
X208250861Y-101217625D01*
X208306330Y-101083709D01*
X208325250Y-100940000D01*
X208306330Y-100796291D01*
X208259682Y-100683670D01*
X208250862Y-100662377D01*
X208250861Y-100662376D01*
X208250861Y-100662375D01*
X208162621Y-100547379D01*
X208047625Y-100459139D01*
X208047624Y-100459138D01*
X208047622Y-100459137D01*
X207913712Y-100403671D01*
X207913710Y-100403670D01*
X207913709Y-100403670D01*
X207829785Y-100392621D01*
X207770001Y-100384750D01*
X207769999Y-100384750D01*
X207626291Y-100403670D01*
X207626287Y-100403671D01*
X207492376Y-100459138D01*
X207492374Y-100459139D01*
X207443066Y-100496975D01*
X207377897Y-100522169D01*
X207309452Y-100508131D01*
X207292093Y-100496974D01*
X207177626Y-100409139D01*
X207177623Y-100409138D01*
X207043712Y-100353671D01*
X207043710Y-100353670D01*
X207043709Y-100353670D01*
X206971854Y-100344210D01*
X206900001Y-100334750D01*
X206899999Y-100334750D01*
X206756291Y-100353670D01*
X206756287Y-100353671D01*
X206622377Y-100409137D01*
X206507379Y-100497379D01*
X206419137Y-100612377D01*
X206363671Y-100746287D01*
X206363670Y-100746291D01*
X206347111Y-100872070D01*
X206344750Y-100890000D01*
X206363330Y-101031130D01*
X206363670Y-101033708D01*
X206363671Y-101033712D01*
X206419137Y-101167622D01*
X206419138Y-101167624D01*
X206419139Y-101167625D01*
X206507379Y-101282621D01*
X206622375Y-101370861D01*
X206622376Y-101370861D01*
X206622377Y-101370862D01*
X206740383Y-101419741D01*
X206794787Y-101463581D01*
X206816852Y-101529875D01*
X206799573Y-101597575D01*
X206748436Y-101645186D01*
X206692909Y-101658302D01*
X202525650Y-101657559D01*
X202458614Y-101637862D01*
X202445253Y-101627946D01*
X202202202Y-101420863D01*
X200530659Y-99996683D01*
X200525509Y-99996682D01*
X179054478Y-99992852D01*
X178987442Y-99973155D01*
X178941696Y-99920343D01*
X178930500Y-99868852D01*
X178930500Y-98909999D01*
X202624750Y-98909999D01*
X202624750Y-98910000D01*
X202643670Y-99053708D01*
X202643671Y-99053712D01*
X202699137Y-99187622D01*
X202699138Y-99187624D01*
X202699139Y-99187625D01*
X202787379Y-99302621D01*
X202902375Y-99390861D01*
X202902376Y-99390861D01*
X202902377Y-99390862D01*
X202939617Y-99406287D01*
X203036291Y-99446330D01*
X203163280Y-99463048D01*
X203179999Y-99465250D01*
X203180000Y-99465250D01*
X203180001Y-99465250D01*
X203194977Y-99463278D01*
X203323709Y-99446330D01*
X203457625Y-99390861D01*
X203566932Y-99306986D01*
X203632099Y-99281792D01*
X203700544Y-99295830D01*
X203750534Y-99344643D01*
X203756978Y-99357910D01*
X203794137Y-99447622D01*
X203794138Y-99447624D01*
X203794139Y-99447625D01*
X203882379Y-99562621D01*
X203997375Y-99650861D01*
X203997376Y-99650861D01*
X203997377Y-99650862D01*
X204042013Y-99669350D01*
X204131291Y-99706330D01*
X204253163Y-99722375D01*
X204274999Y-99725250D01*
X204275000Y-99725250D01*
X204275001Y-99725250D01*
X204296837Y-99722375D01*
X204418709Y-99706330D01*
X204552625Y-99650861D01*
X204667621Y-99562621D01*
X204755861Y-99447625D01*
X204777027Y-99396526D01*
X209724750Y-99396526D01*
X209740892Y-99519138D01*
X209743670Y-99540234D01*
X209743671Y-99540238D01*
X209799137Y-99674148D01*
X209799138Y-99674150D01*
X209799139Y-99674151D01*
X209887379Y-99789147D01*
X210002375Y-99877387D01*
X210136291Y-99932856D01*
X210263280Y-99949574D01*
X210279999Y-99951776D01*
X210280000Y-99951776D01*
X210280001Y-99951776D01*
X210294977Y-99949804D01*
X210423709Y-99932856D01*
X210557625Y-99877387D01*
X210672621Y-99789147D01*
X210760861Y-99674151D01*
X210816330Y-99540235D01*
X210835250Y-99396526D01*
X210816330Y-99252817D01*
X210760861Y-99118901D01*
X210672621Y-99003905D01*
X210557625Y-98915665D01*
X210557624Y-98915664D01*
X210557622Y-98915663D01*
X210423712Y-98860197D01*
X210423710Y-98860196D01*
X210423709Y-98860196D01*
X210351854Y-98850736D01*
X210280001Y-98841276D01*
X210279999Y-98841276D01*
X210136291Y-98860196D01*
X210136287Y-98860197D01*
X210002377Y-98915663D01*
X209887379Y-99003905D01*
X209799137Y-99118903D01*
X209743671Y-99252813D01*
X209743670Y-99252817D01*
X209724750Y-99396526D01*
X204777027Y-99396526D01*
X204811330Y-99313709D01*
X204830250Y-99170000D01*
X204811330Y-99026291D01*
X204765507Y-98915663D01*
X204755862Y-98892377D01*
X204755861Y-98892376D01*
X204755861Y-98892375D01*
X204667621Y-98777379D01*
X204552625Y-98689139D01*
X204552624Y-98689138D01*
X204552622Y-98689137D01*
X204418712Y-98633671D01*
X204418710Y-98633670D01*
X204418709Y-98633670D01*
X204346854Y-98624210D01*
X204275001Y-98614750D01*
X204274999Y-98614750D01*
X204131291Y-98633670D01*
X204131287Y-98633671D01*
X203997376Y-98689138D01*
X203997374Y-98689139D01*
X203888068Y-98773013D01*
X203822899Y-98798207D01*
X203754454Y-98784169D01*
X203704465Y-98735355D01*
X203698028Y-98722105D01*
X203660861Y-98632375D01*
X203572621Y-98517379D01*
X203457625Y-98429139D01*
X203457624Y-98429138D01*
X203457622Y-98429137D01*
X203323712Y-98373671D01*
X203323710Y-98373670D01*
X203323709Y-98373670D01*
X203239785Y-98362621D01*
X203180001Y-98354750D01*
X203179999Y-98354750D01*
X203036291Y-98373670D01*
X203036287Y-98373671D01*
X202902377Y-98429137D01*
X202787379Y-98517379D01*
X202699137Y-98632377D01*
X202643671Y-98766287D01*
X202643670Y-98766291D01*
X202624750Y-98909999D01*
X178930500Y-98909999D01*
X178930500Y-97784999D01*
X207204750Y-97784999D01*
X207204750Y-97785000D01*
X207223670Y-97928708D01*
X207223671Y-97928712D01*
X207279137Y-98062622D01*
X207279138Y-98062624D01*
X207279139Y-98062625D01*
X207367379Y-98177621D01*
X207482375Y-98265861D01*
X207482376Y-98265861D01*
X207482377Y-98265862D01*
X207498705Y-98272625D01*
X207616291Y-98321330D01*
X207743280Y-98338048D01*
X207759999Y-98340250D01*
X207760000Y-98340250D01*
X207760001Y-98340250D01*
X207774977Y-98338278D01*
X207903709Y-98321330D01*
X208037625Y-98265861D01*
X208152621Y-98177621D01*
X208240861Y-98062625D01*
X208279227Y-97969999D01*
X212374750Y-97969999D01*
X212374750Y-97970000D01*
X212393670Y-98113708D01*
X212393671Y-98113712D01*
X212449137Y-98247622D01*
X212449138Y-98247623D01*
X212449139Y-98247625D01*
X212537379Y-98362621D01*
X212652375Y-98450861D01*
X212786291Y-98506330D01*
X212913280Y-98523048D01*
X212929999Y-98525250D01*
X212930000Y-98525250D01*
X212930001Y-98525250D01*
X212944977Y-98523278D01*
X213073709Y-98506330D01*
X213207625Y-98450861D01*
X213274516Y-98399533D01*
X213339681Y-98374340D01*
X213408126Y-98388378D01*
X213425475Y-98399527D01*
X213492375Y-98450861D01*
X213626291Y-98506330D01*
X213753280Y-98523048D01*
X213769999Y-98525250D01*
X213770000Y-98525250D01*
X213770001Y-98525250D01*
X213784977Y-98523278D01*
X213913709Y-98506330D01*
X214047625Y-98450861D01*
X214162621Y-98362621D01*
X214250861Y-98247625D01*
X214260261Y-98224930D01*
X214304099Y-98170528D01*
X214370393Y-98148461D01*
X214438093Y-98165739D01*
X214485705Y-98216875D01*
X214489383Y-98224930D01*
X214509137Y-98272621D01*
X214509139Y-98272625D01*
X214597379Y-98387621D01*
X214712375Y-98475861D01*
X214846291Y-98531330D01*
X214973280Y-98548048D01*
X214989999Y-98550250D01*
X214990000Y-98550250D01*
X214990001Y-98550250D01*
X215004977Y-98548278D01*
X215133709Y-98531330D01*
X215267625Y-98475861D01*
X215382621Y-98387621D01*
X215470861Y-98272625D01*
X215526330Y-98138709D01*
X215545250Y-97995000D01*
X216374750Y-97995000D01*
X216390378Y-98113708D01*
X216393670Y-98138708D01*
X216393671Y-98138712D01*
X216449137Y-98272622D01*
X216449138Y-98272624D01*
X216449139Y-98272625D01*
X216537379Y-98387621D01*
X216652375Y-98475861D01*
X216786291Y-98531330D01*
X216913280Y-98548048D01*
X216929999Y-98550250D01*
X216930000Y-98550250D01*
X216930001Y-98550250D01*
X216944977Y-98548278D01*
X217073709Y-98531330D01*
X217207625Y-98475861D01*
X217322621Y-98387621D01*
X217410861Y-98272625D01*
X217466330Y-98138709D01*
X217485250Y-97995000D01*
X217466330Y-97851291D01*
X217436801Y-97780000D01*
X222104750Y-97780000D01*
X222122353Y-97913709D01*
X222123670Y-97923708D01*
X222123671Y-97923712D01*
X222179137Y-98057622D01*
X222179138Y-98057624D01*
X222179139Y-98057625D01*
X222267379Y-98172621D01*
X222382375Y-98260861D01*
X222382376Y-98260861D01*
X222382377Y-98260862D01*
X222410769Y-98272622D01*
X222516291Y-98316330D01*
X222643280Y-98333048D01*
X222659999Y-98335250D01*
X222660000Y-98335250D01*
X222660001Y-98335250D01*
X222674977Y-98333278D01*
X222803709Y-98316330D01*
X222937625Y-98260861D01*
X223052621Y-98172621D01*
X223140861Y-98057625D01*
X223196330Y-97923709D01*
X223215250Y-97780000D01*
X223213933Y-97770000D01*
X223208554Y-97729139D01*
X223196330Y-97636291D01*
X223140861Y-97502375D01*
X223052621Y-97387379D01*
X222937625Y-97299139D01*
X222937624Y-97299138D01*
X222937622Y-97299137D01*
X222803712Y-97243671D01*
X222803710Y-97243670D01*
X222803709Y-97243670D01*
X222731854Y-97234210D01*
X222660001Y-97224750D01*
X222659999Y-97224750D01*
X222516291Y-97243670D01*
X222516287Y-97243671D01*
X222382377Y-97299137D01*
X222267379Y-97387379D01*
X222179137Y-97502377D01*
X222123671Y-97636287D01*
X222123670Y-97636291D01*
X222106067Y-97770000D01*
X222104750Y-97780000D01*
X217436801Y-97780000D01*
X217410861Y-97717375D01*
X217322621Y-97602379D01*
X217207625Y-97514139D01*
X217207624Y-97514138D01*
X217207622Y-97514137D01*
X217073712Y-97458671D01*
X217073710Y-97458670D01*
X217073709Y-97458670D01*
X217001854Y-97449210D01*
X216930001Y-97439750D01*
X216929999Y-97439750D01*
X216786291Y-97458670D01*
X216786287Y-97458671D01*
X216652377Y-97514137D01*
X216537379Y-97602379D01*
X216449137Y-97717377D01*
X216393671Y-97851287D01*
X216393670Y-97851291D01*
X216378042Y-97969999D01*
X216374750Y-97995000D01*
X215545250Y-97995000D01*
X215526330Y-97851291D01*
X215470861Y-97717375D01*
X215382621Y-97602379D01*
X215267625Y-97514139D01*
X215267624Y-97514138D01*
X215267622Y-97514137D01*
X215133712Y-97458671D01*
X215133710Y-97458670D01*
X215133709Y-97458670D01*
X215061854Y-97449210D01*
X214990001Y-97439750D01*
X214989999Y-97439750D01*
X214846291Y-97458670D01*
X214846287Y-97458671D01*
X214712377Y-97514137D01*
X214597379Y-97602379D01*
X214509136Y-97717378D01*
X214499737Y-97740071D01*
X214455896Y-97794474D01*
X214389601Y-97816538D01*
X214321902Y-97799258D01*
X214274292Y-97748120D01*
X214270623Y-97740086D01*
X214250861Y-97692375D01*
X214162621Y-97577379D01*
X214047625Y-97489139D01*
X214047624Y-97489138D01*
X214047622Y-97489137D01*
X213913712Y-97433671D01*
X213913710Y-97433670D01*
X213913709Y-97433670D01*
X213841854Y-97424210D01*
X213770001Y-97414750D01*
X213769999Y-97414750D01*
X213626291Y-97433670D01*
X213626287Y-97433671D01*
X213492377Y-97489137D01*
X213468607Y-97507377D01*
X213425484Y-97540465D01*
X213360318Y-97565659D01*
X213291873Y-97551621D01*
X213274519Y-97540468D01*
X213207625Y-97489139D01*
X213207624Y-97489138D01*
X213207622Y-97489137D01*
X213073712Y-97433671D01*
X213073710Y-97433670D01*
X213073709Y-97433670D01*
X213001854Y-97424210D01*
X212930001Y-97414750D01*
X212929999Y-97414750D01*
X212786291Y-97433670D01*
X212786287Y-97433671D01*
X212652377Y-97489137D01*
X212537379Y-97577379D01*
X212449137Y-97692377D01*
X212393671Y-97826287D01*
X212393670Y-97826291D01*
X212374750Y-97969999D01*
X208279227Y-97969999D01*
X208296330Y-97928709D01*
X208315250Y-97785000D01*
X208296330Y-97641291D01*
X208240861Y-97507375D01*
X208152621Y-97392379D01*
X208037625Y-97304139D01*
X208037624Y-97304138D01*
X208037622Y-97304137D01*
X207903712Y-97248671D01*
X207903710Y-97248670D01*
X207903709Y-97248670D01*
X207831854Y-97239210D01*
X207760001Y-97229750D01*
X207759999Y-97229750D01*
X207616291Y-97248670D01*
X207616287Y-97248671D01*
X207482377Y-97304137D01*
X207367379Y-97392379D01*
X207279137Y-97507377D01*
X207223671Y-97641287D01*
X207223670Y-97641291D01*
X207204750Y-97784999D01*
X178930500Y-97784999D01*
X178930500Y-96740000D01*
X199214750Y-96740000D01*
X199227654Y-96838017D01*
X199233670Y-96883708D01*
X199233671Y-96883712D01*
X199289137Y-97017622D01*
X199289138Y-97017624D01*
X199289139Y-97017625D01*
X199377379Y-97132621D01*
X199492375Y-97220861D01*
X199492376Y-97220861D01*
X199492377Y-97220862D01*
X199537013Y-97239350D01*
X199626291Y-97276330D01*
X199753280Y-97293048D01*
X199769999Y-97295250D01*
X199770000Y-97295250D01*
X199770001Y-97295250D01*
X199784977Y-97293278D01*
X199913709Y-97276330D01*
X200047625Y-97220861D01*
X200162621Y-97132621D01*
X200250861Y-97017625D01*
X200306330Y-96883709D01*
X200323933Y-96750000D01*
X208094750Y-96750000D01*
X208112353Y-96883709D01*
X208113670Y-96893708D01*
X208113671Y-96893712D01*
X208169137Y-97027622D01*
X208169138Y-97027624D01*
X208169139Y-97027625D01*
X208257379Y-97142621D01*
X208372375Y-97230861D01*
X208372376Y-97230861D01*
X208372377Y-97230862D01*
X208415370Y-97248670D01*
X208506291Y-97286330D01*
X208633280Y-97303048D01*
X208649999Y-97305250D01*
X208650000Y-97305250D01*
X208650001Y-97305250D01*
X208664977Y-97303278D01*
X208793709Y-97286330D01*
X208927625Y-97230861D01*
X209042621Y-97142621D01*
X209130861Y-97027625D01*
X209186330Y-96893709D01*
X209205250Y-96750000D01*
X209203933Y-96740000D01*
X209197917Y-96694304D01*
X210057778Y-96694304D01*
X210057778Y-96694305D01*
X210076698Y-96838013D01*
X210076699Y-96838017D01*
X210132165Y-96971927D01*
X210132166Y-96971929D01*
X210132167Y-96971930D01*
X210220407Y-97086926D01*
X210335403Y-97175166D01*
X210335404Y-97175166D01*
X210335405Y-97175167D01*
X210376950Y-97192375D01*
X210469319Y-97230635D01*
X210596308Y-97247353D01*
X210613027Y-97249555D01*
X210613028Y-97249555D01*
X210613029Y-97249555D01*
X210628005Y-97247583D01*
X210756737Y-97230635D01*
X210890653Y-97175166D01*
X211005649Y-97086926D01*
X211093889Y-96971930D01*
X211149358Y-96838014D01*
X211168278Y-96694305D01*
X211149358Y-96550596D01*
X211093889Y-96416680D01*
X211005649Y-96301684D01*
X210890653Y-96213444D01*
X210890652Y-96213443D01*
X210890650Y-96213442D01*
X210756740Y-96157976D01*
X210756738Y-96157975D01*
X210756737Y-96157975D01*
X210684882Y-96148515D01*
X210613029Y-96139055D01*
X210613027Y-96139055D01*
X210469319Y-96157975D01*
X210469315Y-96157976D01*
X210335405Y-96213442D01*
X210220407Y-96301684D01*
X210132165Y-96416682D01*
X210076699Y-96550592D01*
X210076698Y-96550596D01*
X210057778Y-96694304D01*
X209197917Y-96694304D01*
X209186330Y-96606291D01*
X209130861Y-96472375D01*
X209042621Y-96357379D01*
X208927625Y-96269139D01*
X208927624Y-96269138D01*
X208927622Y-96269137D01*
X208793712Y-96213671D01*
X208793710Y-96213670D01*
X208793709Y-96213670D01*
X208721854Y-96204210D01*
X208650001Y-96194750D01*
X208649999Y-96194750D01*
X208506291Y-96213670D01*
X208506287Y-96213671D01*
X208372377Y-96269137D01*
X208257379Y-96357379D01*
X208169137Y-96472377D01*
X208113671Y-96606287D01*
X208113670Y-96606291D01*
X208096067Y-96740000D01*
X208094750Y-96750000D01*
X200323933Y-96750000D01*
X200325250Y-96740000D01*
X200306330Y-96596291D01*
X200250861Y-96462375D01*
X200162621Y-96347379D01*
X200047625Y-96259139D01*
X200047624Y-96259138D01*
X200047622Y-96259137D01*
X199913712Y-96203671D01*
X199913710Y-96203670D01*
X199913709Y-96203670D01*
X199841854Y-96194210D01*
X199770001Y-96184750D01*
X199769999Y-96184750D01*
X199626291Y-96203670D01*
X199626287Y-96203671D01*
X199492377Y-96259137D01*
X199377379Y-96347379D01*
X199289137Y-96462377D01*
X199233671Y-96596287D01*
X199233670Y-96596291D01*
X199214750Y-96740000D01*
X178930500Y-96740000D01*
X178930500Y-96496534D01*
X178930499Y-96496530D01*
X178894973Y-96317927D01*
X178890130Y-96293580D01*
X178810941Y-96102402D01*
X178695977Y-95930345D01*
X178695975Y-95930342D01*
X178549657Y-95784024D01*
X178396641Y-95681783D01*
X178377598Y-95669059D01*
X178337913Y-95652621D01*
X178186420Y-95589870D01*
X178186412Y-95589868D01*
X177983469Y-95549500D01*
X177983465Y-95549500D01*
X177776535Y-95549500D01*
X177776530Y-95549500D01*
X177573587Y-95589868D01*
X177573579Y-95589870D01*
X177382403Y-95669058D01*
X177210342Y-95784024D01*
X177064024Y-95930342D01*
X176949058Y-96102403D01*
X176869870Y-96293579D01*
X176869868Y-96293587D01*
X176829500Y-96496530D01*
X176829500Y-99868432D01*
X176809815Y-99935471D01*
X176757011Y-99981226D01*
X176705478Y-99992432D01*
X161337850Y-99989692D01*
X161337849Y-99989693D01*
X159967150Y-101606148D01*
X159908779Y-101644548D01*
X159872553Y-101649951D01*
X132460018Y-101645061D01*
X132392982Y-101625364D01*
X132347236Y-101572552D01*
X132337305Y-101503392D01*
X132344096Y-101477096D01*
X132385140Y-101368872D01*
X132405645Y-101200000D01*
X132385140Y-101031128D01*
X132385138Y-101031124D01*
X132324817Y-100872068D01*
X132254447Y-100770121D01*
X132228183Y-100732071D01*
X132169407Y-100680000D01*
X137724355Y-100680000D01*
X137744859Y-100848869D01*
X137744860Y-100848874D01*
X137805182Y-101007931D01*
X137857488Y-101083708D01*
X137901817Y-101147929D01*
X137983168Y-101219999D01*
X138029150Y-101260736D01*
X138166887Y-101333026D01*
X138179775Y-101339790D01*
X138344944Y-101380500D01*
X138515056Y-101380500D01*
X138680225Y-101339790D01*
X138759692Y-101298081D01*
X138830849Y-101260736D01*
X138830850Y-101260734D01*
X138830852Y-101260734D01*
X138958183Y-101147929D01*
X139054818Y-101007930D01*
X139115140Y-100848872D01*
X139135645Y-100680000D01*
X139115140Y-100511128D01*
X139114003Y-100508131D01*
X139054817Y-100352068D01*
X138981830Y-100246330D01*
X138958183Y-100212071D01*
X138837607Y-100105250D01*
X138830849Y-100099263D01*
X138680226Y-100020210D01*
X138515056Y-99979500D01*
X138344944Y-99979500D01*
X138179773Y-100020210D01*
X138029150Y-100099263D01*
X137901816Y-100212072D01*
X137805182Y-100352068D01*
X137744860Y-100511125D01*
X137744859Y-100511130D01*
X137724355Y-100680000D01*
X132169407Y-100680000D01*
X132100852Y-100619266D01*
X132100849Y-100619263D01*
X131950226Y-100540210D01*
X131785056Y-100499500D01*
X131614944Y-100499500D01*
X131449773Y-100540210D01*
X131299150Y-100619263D01*
X131171816Y-100732072D01*
X131075182Y-100872068D01*
X131075182Y-100872069D01*
X131014860Y-101031124D01*
X131014859Y-101031128D01*
X131010366Y-101068134D01*
X130982743Y-101132311D01*
X130974951Y-101140866D01*
X130507438Y-101608378D01*
X130446115Y-101641863D01*
X130419735Y-101644697D01*
X114598978Y-101641876D01*
X114531942Y-101622179D01*
X114486196Y-101569367D01*
X114475000Y-101517876D01*
X114475000Y-99710000D01*
X145194750Y-99710000D01*
X145196379Y-99722377D01*
X145213670Y-99853708D01*
X145213671Y-99853712D01*
X145269137Y-99987622D01*
X145269138Y-99987624D01*
X145269139Y-99987625D01*
X145357379Y-100102621D01*
X145472375Y-100190861D01*
X145606291Y-100246330D01*
X145733280Y-100263048D01*
X145749999Y-100265250D01*
X145750000Y-100265250D01*
X145750001Y-100265250D01*
X145764977Y-100263278D01*
X145893709Y-100246330D01*
X146027625Y-100190861D01*
X146142621Y-100102621D01*
X146180390Y-100053400D01*
X154011350Y-100053400D01*
X154029447Y-100190861D01*
X154030270Y-100197108D01*
X154030271Y-100197112D01*
X154085737Y-100331022D01*
X154085738Y-100331024D01*
X154085739Y-100331025D01*
X154173979Y-100446021D01*
X154288975Y-100534261D01*
X154288976Y-100534261D01*
X154288977Y-100534262D01*
X154320645Y-100547379D01*
X154422891Y-100589730D01*
X154549880Y-100606448D01*
X154566599Y-100608650D01*
X154566600Y-100608650D01*
X154566601Y-100608650D01*
X154581577Y-100606678D01*
X154710309Y-100589730D01*
X154844225Y-100534261D01*
X154917609Y-100477950D01*
X154982778Y-100452756D01*
X155051223Y-100466794D01*
X155068574Y-100477945D01*
X155072375Y-100480861D01*
X155206291Y-100536330D01*
X155333280Y-100553048D01*
X155349999Y-100555250D01*
X155350000Y-100555250D01*
X155350001Y-100555250D01*
X155364977Y-100553278D01*
X155493709Y-100536330D01*
X155627625Y-100480861D01*
X155742621Y-100392621D01*
X155830861Y-100277625D01*
X155886330Y-100143709D01*
X155905250Y-100000000D01*
X155886330Y-99856291D01*
X155830861Y-99722375D01*
X155742621Y-99607379D01*
X155627625Y-99519139D01*
X155627624Y-99519138D01*
X155627622Y-99519137D01*
X155493712Y-99463671D01*
X155493710Y-99463670D01*
X155493709Y-99463670D01*
X155421854Y-99454210D01*
X155350001Y-99444750D01*
X155349999Y-99444750D01*
X155206291Y-99463670D01*
X155206287Y-99463671D01*
X155072376Y-99519138D01*
X155072374Y-99519139D01*
X154998990Y-99575449D01*
X154933821Y-99600643D01*
X154865376Y-99586605D01*
X154848019Y-99575450D01*
X154846858Y-99574559D01*
X154844225Y-99572539D01*
X154844223Y-99572538D01*
X154844225Y-99572538D01*
X154710312Y-99517071D01*
X154710310Y-99517070D01*
X154710309Y-99517070D01*
X154638454Y-99507610D01*
X154566601Y-99498150D01*
X154566599Y-99498150D01*
X154422891Y-99517070D01*
X154422887Y-99517071D01*
X154288977Y-99572537D01*
X154173979Y-99660779D01*
X154085737Y-99775777D01*
X154030271Y-99909687D01*
X154030270Y-99909691D01*
X154017873Y-100003857D01*
X154011350Y-100053400D01*
X146180390Y-100053400D01*
X146230861Y-99987625D01*
X146286330Y-99853709D01*
X146305250Y-99710000D01*
X146286330Y-99566291D01*
X146237178Y-99447625D01*
X146230862Y-99432377D01*
X146230861Y-99432376D01*
X146230861Y-99432375D01*
X146142621Y-99317379D01*
X146078791Y-99268400D01*
X157005955Y-99268400D01*
X157026459Y-99437269D01*
X157026460Y-99437274D01*
X157086782Y-99596331D01*
X157124422Y-99650861D01*
X157183417Y-99736329D01*
X157285090Y-99826403D01*
X157310750Y-99849136D01*
X157461373Y-99928189D01*
X157461375Y-99928190D01*
X157626544Y-99968900D01*
X157796656Y-99968900D01*
X157961825Y-99928190D01*
X158074883Y-99868852D01*
X158112449Y-99849136D01*
X158112450Y-99849134D01*
X158112452Y-99849134D01*
X158239783Y-99736329D01*
X158336418Y-99596330D01*
X158396740Y-99437272D01*
X158417245Y-99268400D01*
X158396740Y-99099528D01*
X158379364Y-99053712D01*
X158336417Y-98940468D01*
X158281008Y-98860196D01*
X158239783Y-98800471D01*
X158116060Y-98690862D01*
X158112449Y-98687663D01*
X157961826Y-98608610D01*
X157796656Y-98567900D01*
X157626544Y-98567900D01*
X157461373Y-98608610D01*
X157310750Y-98687663D01*
X157183416Y-98800472D01*
X157086782Y-98940468D01*
X157026460Y-99099525D01*
X157026459Y-99099530D01*
X157005955Y-99268400D01*
X146078791Y-99268400D01*
X146027625Y-99229139D01*
X146027624Y-99229138D01*
X146027622Y-99229137D01*
X145893712Y-99173671D01*
X145893710Y-99173670D01*
X145893709Y-99173670D01*
X145821854Y-99164210D01*
X145750001Y-99154750D01*
X145749999Y-99154750D01*
X145606291Y-99173670D01*
X145606287Y-99173671D01*
X145472377Y-99229137D01*
X145357379Y-99317379D01*
X145269137Y-99432377D01*
X145213671Y-99566287D01*
X145213670Y-99566291D01*
X145194750Y-99710000D01*
X114475000Y-99710000D01*
X114475000Y-97770000D01*
X128444750Y-97770000D01*
X128452160Y-97826287D01*
X128463670Y-97913708D01*
X128463671Y-97913712D01*
X128519137Y-98047622D01*
X128519138Y-98047624D01*
X128519139Y-98047625D01*
X128607379Y-98162621D01*
X128722375Y-98250861D01*
X128856291Y-98306330D01*
X128983280Y-98323048D01*
X128999999Y-98325250D01*
X129000000Y-98325250D01*
X129000001Y-98325250D01*
X129014977Y-98323278D01*
X129143709Y-98306330D01*
X129277625Y-98250861D01*
X129392621Y-98162621D01*
X129409979Y-98140000D01*
X131384750Y-98140000D01*
X131399345Y-98250861D01*
X131403670Y-98283708D01*
X131403671Y-98283712D01*
X131459137Y-98417622D01*
X131459138Y-98417624D01*
X131459139Y-98417625D01*
X131547379Y-98532621D01*
X131662375Y-98620861D01*
X131662376Y-98620861D01*
X131662377Y-98620862D01*
X131707013Y-98639350D01*
X131796291Y-98676330D01*
X131923280Y-98693048D01*
X131939999Y-98695250D01*
X131940000Y-98695250D01*
X131940001Y-98695250D01*
X131954977Y-98693278D01*
X132083709Y-98676330D01*
X132217625Y-98620861D01*
X132332621Y-98532621D01*
X132420861Y-98417625D01*
X132476330Y-98283709D01*
X132486034Y-98210000D01*
X150414750Y-98210000D01*
X150422994Y-98272622D01*
X150433670Y-98353708D01*
X150433671Y-98353712D01*
X150489137Y-98487622D01*
X150489138Y-98487624D01*
X150489139Y-98487625D01*
X150577379Y-98602621D01*
X150692375Y-98690861D01*
X150826291Y-98746330D01*
X150953280Y-98763048D01*
X150969999Y-98765250D01*
X150970000Y-98765250D01*
X150970001Y-98765250D01*
X150984977Y-98763278D01*
X151113709Y-98746330D01*
X151247625Y-98690861D01*
X151362621Y-98602621D01*
X151450861Y-98487625D01*
X151506330Y-98353709D01*
X151525250Y-98210000D01*
X151506330Y-98066291D01*
X151466445Y-97969999D01*
X151450862Y-97932377D01*
X151450861Y-97932376D01*
X151450861Y-97932375D01*
X151362621Y-97817379D01*
X151247625Y-97729139D01*
X151247624Y-97729138D01*
X151247622Y-97729137D01*
X151113712Y-97673671D01*
X151113710Y-97673670D01*
X151113709Y-97673670D01*
X151041854Y-97664210D01*
X150970001Y-97654750D01*
X150969999Y-97654750D01*
X150826291Y-97673670D01*
X150826287Y-97673671D01*
X150692377Y-97729137D01*
X150577379Y-97817379D01*
X150489137Y-97932377D01*
X150433671Y-98066287D01*
X150433670Y-98066291D01*
X150414750Y-98210000D01*
X132486034Y-98210000D01*
X132495250Y-98140000D01*
X132495080Y-98138712D01*
X132491789Y-98113709D01*
X132476330Y-97996291D01*
X132420963Y-97862621D01*
X132420862Y-97862377D01*
X132420861Y-97862376D01*
X132420861Y-97862375D01*
X132332621Y-97747379D01*
X132217625Y-97659139D01*
X132217624Y-97659138D01*
X132217622Y-97659137D01*
X132083712Y-97603671D01*
X132083710Y-97603670D01*
X132083709Y-97603670D01*
X132011854Y-97594210D01*
X131940001Y-97584750D01*
X131939999Y-97584750D01*
X131796291Y-97603670D01*
X131796287Y-97603671D01*
X131662377Y-97659137D01*
X131547379Y-97747379D01*
X131459137Y-97862377D01*
X131403671Y-97996287D01*
X131403670Y-97996291D01*
X131384920Y-98138712D01*
X131384750Y-98140000D01*
X129409979Y-98140000D01*
X129480861Y-98047625D01*
X129536330Y-97913709D01*
X129555250Y-97770000D01*
X129536330Y-97626291D01*
X129480861Y-97492375D01*
X129463692Y-97470000D01*
X134154750Y-97470000D01*
X134173584Y-97613059D01*
X134173670Y-97613708D01*
X134173671Y-97613712D01*
X134229137Y-97747622D01*
X134229138Y-97747624D01*
X134229139Y-97747625D01*
X134317379Y-97862621D01*
X134432375Y-97950861D01*
X134566291Y-98006330D01*
X134693280Y-98023048D01*
X134709999Y-98025250D01*
X134710000Y-98025250D01*
X134710001Y-98025250D01*
X134724977Y-98023278D01*
X134853709Y-98006330D01*
X134987625Y-97950861D01*
X135102621Y-97862621D01*
X135190861Y-97747625D01*
X135246330Y-97613709D01*
X135265250Y-97470000D01*
X135263758Y-97458671D01*
X135257976Y-97414750D01*
X135246330Y-97326291D01*
X135190861Y-97192375D01*
X135102621Y-97077379D01*
X134987625Y-96989139D01*
X134987624Y-96989138D01*
X134987622Y-96989137D01*
X134853712Y-96933671D01*
X134853710Y-96933670D01*
X134853709Y-96933670D01*
X134781854Y-96924210D01*
X134710001Y-96914750D01*
X134709999Y-96914750D01*
X134566291Y-96933670D01*
X134566287Y-96933671D01*
X134432377Y-96989137D01*
X134317379Y-97077379D01*
X134229137Y-97192377D01*
X134173671Y-97326287D01*
X134173670Y-97326291D01*
X134156242Y-97458671D01*
X134154750Y-97470000D01*
X129463692Y-97470000D01*
X129392621Y-97377379D01*
X129277625Y-97289139D01*
X129277624Y-97289138D01*
X129277622Y-97289137D01*
X129143712Y-97233671D01*
X129143710Y-97233670D01*
X129143709Y-97233670D01*
X129071854Y-97224210D01*
X129000001Y-97214750D01*
X128999999Y-97214750D01*
X128856291Y-97233670D01*
X128856287Y-97233671D01*
X128722377Y-97289137D01*
X128607379Y-97377379D01*
X128519137Y-97492377D01*
X128463671Y-97626287D01*
X128463670Y-97626291D01*
X128447631Y-97748120D01*
X128444750Y-97770000D01*
X114475000Y-97770000D01*
X114475000Y-96750000D01*
X131404750Y-96750000D01*
X131422353Y-96883709D01*
X131423670Y-96893708D01*
X131423671Y-96893712D01*
X131479137Y-97027622D01*
X131479138Y-97027624D01*
X131479139Y-97027625D01*
X131567379Y-97142621D01*
X131682375Y-97230861D01*
X131682376Y-97230861D01*
X131682377Y-97230862D01*
X131725370Y-97248670D01*
X131816291Y-97286330D01*
X131943280Y-97303048D01*
X131959999Y-97305250D01*
X131960000Y-97305250D01*
X131960001Y-97305250D01*
X131974977Y-97303278D01*
X132103709Y-97286330D01*
X132237625Y-97230861D01*
X132293005Y-97188365D01*
X132358171Y-97163172D01*
X132426616Y-97177210D01*
X132443970Y-97188361D01*
X132486324Y-97220861D01*
X132486325Y-97220861D01*
X132486326Y-97220862D01*
X132530962Y-97239350D01*
X132620240Y-97276330D01*
X132747229Y-97293048D01*
X132763948Y-97295250D01*
X132763949Y-97295250D01*
X132763950Y-97295250D01*
X132778926Y-97293278D01*
X132907658Y-97276330D01*
X133041574Y-97220861D01*
X133156570Y-97132621D01*
X133244810Y-97017625D01*
X133300279Y-96883709D01*
X133319199Y-96740000D01*
X133300279Y-96596291D01*
X133244810Y-96462375D01*
X133156570Y-96347379D01*
X133041574Y-96259139D01*
X133041573Y-96259138D01*
X133041571Y-96259137D01*
X132907661Y-96203671D01*
X132907659Y-96203670D01*
X132907658Y-96203670D01*
X132835803Y-96194210D01*
X132763950Y-96184750D01*
X132763948Y-96184750D01*
X132620240Y-96203670D01*
X132620236Y-96203671D01*
X132486325Y-96259138D01*
X132486323Y-96259139D01*
X132430944Y-96301633D01*
X132365775Y-96326827D01*
X132297330Y-96312788D01*
X132279972Y-96301633D01*
X132237625Y-96269139D01*
X132237623Y-96269138D01*
X132103712Y-96213671D01*
X132103710Y-96213670D01*
X132103709Y-96213670D01*
X132031854Y-96204210D01*
X131960001Y-96194750D01*
X131959999Y-96194750D01*
X131816291Y-96213670D01*
X131816287Y-96213671D01*
X131682377Y-96269137D01*
X131567379Y-96357379D01*
X131479137Y-96472377D01*
X131423671Y-96606287D01*
X131423670Y-96606291D01*
X131406067Y-96740000D01*
X131404750Y-96750000D01*
X114475000Y-96750000D01*
X114475000Y-95850000D01*
X121624355Y-95850000D01*
X121644859Y-96018869D01*
X121644860Y-96018874D01*
X121705182Y-96177931D01*
X121761236Y-96259138D01*
X121801817Y-96317929D01*
X121854462Y-96364568D01*
X121929150Y-96430736D01*
X122054510Y-96496530D01*
X122079775Y-96509790D01*
X122244944Y-96550500D01*
X122415056Y-96550500D01*
X122580225Y-96509790D01*
X122670566Y-96462375D01*
X122730849Y-96430736D01*
X122730850Y-96430734D01*
X122730852Y-96430734D01*
X122858183Y-96317929D01*
X122954818Y-96177930D01*
X123015140Y-96018872D01*
X123035645Y-95850000D01*
X123015140Y-95681128D01*
X123004328Y-95652620D01*
X122954817Y-95522068D01*
X122888703Y-95426287D01*
X122858183Y-95382071D01*
X122730852Y-95269266D01*
X122730849Y-95269263D01*
X122580226Y-95190210D01*
X122415056Y-95149500D01*
X122244944Y-95149500D01*
X122079773Y-95190210D01*
X121929150Y-95269263D01*
X121801816Y-95382072D01*
X121705182Y-95522068D01*
X121644860Y-95681125D01*
X121644859Y-95681130D01*
X121624355Y-95850000D01*
X114475000Y-95850000D01*
X114475000Y-93531048D01*
X127413701Y-93531048D01*
X127413701Y-93531049D01*
X127432621Y-93674757D01*
X127432622Y-93674761D01*
X127488088Y-93808671D01*
X127488089Y-93808673D01*
X127488090Y-93808674D01*
X127576330Y-93923670D01*
X127691326Y-94011910D01*
X127825242Y-94067379D01*
X127952231Y-94084097D01*
X127968950Y-94086299D01*
X127968951Y-94086299D01*
X127968952Y-94086299D01*
X127983928Y-94084327D01*
X128112660Y-94067379D01*
X128246576Y-94011910D01*
X128361572Y-93923670D01*
X128449812Y-93808674D01*
X128505281Y-93674758D01*
X128524201Y-93531049D01*
X128505281Y-93387340D01*
X128449812Y-93253424D01*
X128361572Y-93138428D01*
X128246576Y-93050188D01*
X128246575Y-93050187D01*
X128246573Y-93050186D01*
X128112663Y-92994720D01*
X128112661Y-92994719D01*
X128112660Y-92994719D01*
X128040805Y-92985259D01*
X127968952Y-92975799D01*
X127968950Y-92975799D01*
X127825242Y-92994719D01*
X127825238Y-92994720D01*
X127691328Y-93050186D01*
X127576330Y-93138428D01*
X127488088Y-93253426D01*
X127432622Y-93387336D01*
X127432621Y-93387340D01*
X127413701Y-93531048D01*
X114475000Y-93531048D01*
X114475000Y-92130000D01*
X122184355Y-92130000D01*
X122204859Y-92298869D01*
X122204860Y-92298874D01*
X122265182Y-92457931D01*
X122307737Y-92519581D01*
X122361817Y-92597929D01*
X122426952Y-92655633D01*
X122489150Y-92710736D01*
X122630338Y-92784837D01*
X122639775Y-92789790D01*
X122804944Y-92830500D01*
X122975056Y-92830500D01*
X123140225Y-92789790D01*
X123226111Y-92744713D01*
X123290849Y-92710736D01*
X123290850Y-92710734D01*
X123290852Y-92710734D01*
X123418183Y-92597929D01*
X123514818Y-92457930D01*
X123575140Y-92298872D01*
X123595645Y-92130000D01*
X123575140Y-91961128D01*
X123566225Y-91937622D01*
X123537087Y-91860789D01*
X123521618Y-91820000D01*
X130004750Y-91820000D01*
X130023330Y-91961130D01*
X130023670Y-91963708D01*
X130023671Y-91963712D01*
X130079137Y-92097622D01*
X130079138Y-92097624D01*
X130079139Y-92097625D01*
X130167379Y-92212621D01*
X130282375Y-92300861D01*
X130282376Y-92300861D01*
X130282377Y-92300862D01*
X130327013Y-92319350D01*
X130416291Y-92356330D01*
X130543280Y-92373048D01*
X130559999Y-92375250D01*
X130560000Y-92375250D01*
X130560001Y-92375250D01*
X130574977Y-92373278D01*
X130703709Y-92356330D01*
X130837625Y-92300861D01*
X130943005Y-92220000D01*
X132354750Y-92220000D01*
X132372698Y-92356329D01*
X132373670Y-92363708D01*
X132373671Y-92363712D01*
X132429137Y-92497622D01*
X132429138Y-92497624D01*
X132429139Y-92497625D01*
X132517379Y-92612621D01*
X132577384Y-92658665D01*
X132618585Y-92715091D01*
X132622740Y-92784837D01*
X132588527Y-92845758D01*
X132577384Y-92855414D01*
X132521329Y-92898427D01*
X132433086Y-93013426D01*
X132377620Y-93147336D01*
X132377619Y-93147340D01*
X132360006Y-93281125D01*
X132358699Y-93291049D01*
X132376302Y-93424758D01*
X132377619Y-93434757D01*
X132377620Y-93434761D01*
X132433086Y-93568671D01*
X132433087Y-93568673D01*
X132433088Y-93568674D01*
X132521328Y-93683670D01*
X132621630Y-93760635D01*
X132662831Y-93817061D01*
X132666986Y-93886807D01*
X132632773Y-93947728D01*
X132621629Y-93957384D01*
X132517381Y-94037377D01*
X132517380Y-94037378D01*
X132517379Y-94037379D01*
X132485058Y-94079500D01*
X132429137Y-94152377D01*
X132373671Y-94286287D01*
X132373670Y-94286291D01*
X132359704Y-94392375D01*
X132354750Y-94430000D01*
X132372353Y-94563709D01*
X132373670Y-94573708D01*
X132373671Y-94573712D01*
X132429137Y-94707622D01*
X132429138Y-94707624D01*
X132429139Y-94707625D01*
X132517379Y-94822621D01*
X132632375Y-94910861D01*
X132766291Y-94966330D01*
X132888163Y-94982375D01*
X132909999Y-94985250D01*
X132910000Y-94985250D01*
X132910001Y-94985250D01*
X132931837Y-94982375D01*
X133053709Y-94966330D01*
X133187625Y-94910861D01*
X133302621Y-94822621D01*
X133365461Y-94740725D01*
X133421888Y-94699524D01*
X133491634Y-94695369D01*
X133552554Y-94729581D01*
X133562211Y-94740726D01*
X133583659Y-94768677D01*
X133617379Y-94812621D01*
X133732375Y-94900861D01*
X133866291Y-94956330D01*
X133993280Y-94973048D01*
X134009999Y-94975250D01*
X134010000Y-94975250D01*
X134010001Y-94975250D01*
X134024977Y-94973278D01*
X134153709Y-94956330D01*
X134287625Y-94900861D01*
X134402621Y-94812621D01*
X134427789Y-94779821D01*
X134484214Y-94738620D01*
X134553960Y-94734465D01*
X134614881Y-94768677D01*
X134624530Y-94779811D01*
X134657379Y-94822621D01*
X134772375Y-94910861D01*
X134906291Y-94966330D01*
X135028163Y-94982375D01*
X135049999Y-94985250D01*
X135050000Y-94985250D01*
X135050001Y-94985250D01*
X135071837Y-94982375D01*
X135193709Y-94966330D01*
X135327625Y-94910861D01*
X135442621Y-94822621D01*
X135530861Y-94707625D01*
X135586330Y-94573709D01*
X135591946Y-94531049D01*
X139278701Y-94531049D01*
X139296994Y-94669999D01*
X139297621Y-94674757D01*
X139297622Y-94674761D01*
X139353088Y-94808671D01*
X139353089Y-94808673D01*
X139353090Y-94808674D01*
X139441330Y-94923670D01*
X139556326Y-95011910D01*
X139556327Y-95011910D01*
X139556328Y-95011911D01*
X139583414Y-95023130D01*
X139690242Y-95067379D01*
X139817231Y-95084097D01*
X139833950Y-95086299D01*
X139833951Y-95086299D01*
X139833952Y-95086299D01*
X139848928Y-95084327D01*
X139977660Y-95067379D01*
X140111576Y-95011910D01*
X140226572Y-94923670D01*
X140314812Y-94808674D01*
X140370281Y-94674758D01*
X140370907Y-94670000D01*
X149764750Y-94670000D01*
X149783526Y-94812619D01*
X149783670Y-94813708D01*
X149783671Y-94813712D01*
X149839137Y-94947622D01*
X149839138Y-94947624D01*
X149839139Y-94947625D01*
X149927379Y-95062621D01*
X150042375Y-95150861D01*
X150176291Y-95206330D01*
X150303280Y-95223048D01*
X150319999Y-95225250D01*
X150320000Y-95225250D01*
X150320001Y-95225250D01*
X150334977Y-95223278D01*
X150463709Y-95206330D01*
X150597625Y-95150861D01*
X150662547Y-95101044D01*
X150727714Y-95075851D01*
X150796159Y-95089889D01*
X150813519Y-95101045D01*
X150852375Y-95130861D01*
X150986291Y-95186330D01*
X151113280Y-95203048D01*
X151129999Y-95205250D01*
X151130000Y-95205250D01*
X151130001Y-95205250D01*
X151144977Y-95203278D01*
X151273709Y-95186330D01*
X151407625Y-95130861D01*
X151522621Y-95042621D01*
X151610861Y-94927625D01*
X151666330Y-94793709D01*
X151679299Y-94695200D01*
X152094355Y-94695200D01*
X152114859Y-94864069D01*
X152114860Y-94864074D01*
X152175182Y-95023131D01*
X152218785Y-95086299D01*
X152271817Y-95163129D01*
X152367535Y-95247927D01*
X152399150Y-95275936D01*
X152549773Y-95354989D01*
X152549775Y-95354990D01*
X152714944Y-95395700D01*
X152885056Y-95395700D01*
X153050225Y-95354990D01*
X153169527Y-95292375D01*
X153200849Y-95275936D01*
X153200850Y-95275934D01*
X153200852Y-95275934D01*
X153218838Y-95260000D01*
X203954750Y-95260000D01*
X203969062Y-95368712D01*
X203973670Y-95403708D01*
X203973671Y-95403712D01*
X204029137Y-95537622D01*
X204029138Y-95537624D01*
X204029139Y-95537625D01*
X204117379Y-95652621D01*
X204232375Y-95740861D01*
X204366291Y-95796330D01*
X204493280Y-95813048D01*
X204509999Y-95815250D01*
X204510000Y-95815250D01*
X204510001Y-95815250D01*
X204524977Y-95813278D01*
X204653709Y-95796330D01*
X204787625Y-95740861D01*
X204864615Y-95681783D01*
X204929784Y-95656589D01*
X204998229Y-95670627D01*
X205015582Y-95681778D01*
X205071264Y-95724505D01*
X205205180Y-95779974D01*
X205329399Y-95796328D01*
X205348888Y-95798894D01*
X205348889Y-95798894D01*
X205348890Y-95798894D01*
X205368364Y-95796330D01*
X205492598Y-95779974D01*
X205626514Y-95724505D01*
X205741510Y-95636265D01*
X205741513Y-95636260D01*
X205747177Y-95630597D01*
X205808499Y-95597109D01*
X205878190Y-95602090D01*
X205910344Y-95619896D01*
X206022375Y-95705861D01*
X206156291Y-95761330D01*
X206283280Y-95778048D01*
X206299999Y-95780250D01*
X206300000Y-95780250D01*
X206300001Y-95780250D01*
X206314977Y-95778278D01*
X206443709Y-95761330D01*
X206577625Y-95705861D01*
X206692621Y-95617621D01*
X206729162Y-95570000D01*
X220094750Y-95570000D01*
X220107791Y-95669058D01*
X220113670Y-95713708D01*
X220113671Y-95713712D01*
X220169137Y-95847622D01*
X220169138Y-95847624D01*
X220169139Y-95847625D01*
X220257379Y-95962621D01*
X220372375Y-96050861D01*
X220506291Y-96106330D01*
X220633280Y-96123048D01*
X220649999Y-96125250D01*
X220650000Y-96125250D01*
X220650001Y-96125250D01*
X220664977Y-96123278D01*
X220793709Y-96106330D01*
X220927625Y-96050861D01*
X221042621Y-95962621D01*
X221130861Y-95847625D01*
X221186330Y-95713709D01*
X221205250Y-95570000D01*
X221186330Y-95426291D01*
X221130861Y-95292375D01*
X221042621Y-95177379D01*
X221008064Y-95150862D01*
X220996790Y-95142211D01*
X220955587Y-95085783D01*
X220951433Y-95016037D01*
X220985646Y-94955117D01*
X220996779Y-94945469D01*
X221052621Y-94902621D01*
X221140861Y-94787625D01*
X221144019Y-94780000D01*
X221954355Y-94780000D01*
X221974859Y-94948869D01*
X221974860Y-94948874D01*
X222035182Y-95107931D01*
X222089297Y-95186328D01*
X222131817Y-95247929D01*
X222181989Y-95292377D01*
X222259150Y-95360736D01*
X222384047Y-95426287D01*
X222409775Y-95439790D01*
X222574944Y-95480500D01*
X222745056Y-95480500D01*
X222910225Y-95439790D01*
X222994231Y-95395700D01*
X223060849Y-95360736D01*
X223060850Y-95360734D01*
X223060852Y-95360734D01*
X223188183Y-95247929D01*
X223284818Y-95107930D01*
X223345140Y-94948872D01*
X223365645Y-94780000D01*
X223345140Y-94611128D01*
X223284818Y-94452070D01*
X223269583Y-94429999D01*
X223240135Y-94387336D01*
X223188183Y-94312071D01*
X223060852Y-94199266D01*
X223060849Y-94199263D01*
X222910226Y-94120210D01*
X222745056Y-94079500D01*
X222574944Y-94079500D01*
X222409773Y-94120210D01*
X222259150Y-94199263D01*
X222131816Y-94312072D01*
X222035182Y-94452068D01*
X221974860Y-94611125D01*
X221974859Y-94611130D01*
X221954355Y-94780000D01*
X221144019Y-94780000D01*
X221196330Y-94653709D01*
X221215250Y-94510000D01*
X221196330Y-94366291D01*
X221151218Y-94257379D01*
X221140862Y-94232377D01*
X221140861Y-94232376D01*
X221140861Y-94232375D01*
X221052621Y-94117379D01*
X220937625Y-94029139D01*
X220937624Y-94029138D01*
X220937622Y-94029137D01*
X220803712Y-93973671D01*
X220803710Y-93973670D01*
X220803709Y-93973670D01*
X220731854Y-93964210D01*
X220660001Y-93954750D01*
X220659999Y-93954750D01*
X220516291Y-93973670D01*
X220516287Y-93973671D01*
X220382377Y-94029137D01*
X220267379Y-94117379D01*
X220179137Y-94232377D01*
X220123671Y-94366287D01*
X220123670Y-94366291D01*
X220115283Y-94429999D01*
X220104750Y-94510000D01*
X220113137Y-94573708D01*
X220123670Y-94653708D01*
X220123671Y-94653712D01*
X220179137Y-94787622D01*
X220179138Y-94787624D01*
X220179139Y-94787625D01*
X220267379Y-94902621D01*
X220299911Y-94927584D01*
X220313209Y-94937788D01*
X220354411Y-94994216D01*
X220358566Y-95063962D01*
X220324353Y-95124882D01*
X220313210Y-95134538D01*
X220257382Y-95177377D01*
X220257379Y-95177379D01*
X220235993Y-95205250D01*
X220169137Y-95292377D01*
X220113671Y-95426287D01*
X220113670Y-95426291D01*
X220094750Y-95570000D01*
X206729162Y-95570000D01*
X206780861Y-95502625D01*
X206836330Y-95368709D01*
X206855250Y-95225000D01*
X206836330Y-95081291D01*
X206788712Y-94966329D01*
X206780862Y-94947377D01*
X206780861Y-94947376D01*
X206780861Y-94947375D01*
X206692621Y-94832379D01*
X206577625Y-94744139D01*
X206577624Y-94744138D01*
X206577622Y-94744137D01*
X206443712Y-94688671D01*
X206443710Y-94688670D01*
X206443709Y-94688670D01*
X206338039Y-94674758D01*
X206300001Y-94669750D01*
X206299999Y-94669750D01*
X206156291Y-94688670D01*
X206156287Y-94688671D01*
X206022377Y-94744137D01*
X205907372Y-94832384D01*
X205901703Y-94838054D01*
X205840379Y-94871536D01*
X205770687Y-94866549D01*
X205738542Y-94848745D01*
X205683523Y-94806527D01*
X205626515Y-94762783D01*
X205626512Y-94762782D01*
X205492601Y-94707315D01*
X205492599Y-94707314D01*
X205492598Y-94707314D01*
X205419004Y-94697625D01*
X205348890Y-94688394D01*
X205348888Y-94688394D01*
X205205180Y-94707314D01*
X205205176Y-94707315D01*
X205071265Y-94762782D01*
X205071263Y-94762783D01*
X204994272Y-94821860D01*
X204929102Y-94847054D01*
X204860658Y-94833015D01*
X204843303Y-94821863D01*
X204787625Y-94779139D01*
X204787624Y-94779138D01*
X204787622Y-94779137D01*
X204653712Y-94723671D01*
X204653710Y-94723670D01*
X204653709Y-94723670D01*
X204581854Y-94714210D01*
X204510001Y-94704750D01*
X204509999Y-94704750D01*
X204366291Y-94723670D01*
X204366287Y-94723671D01*
X204232377Y-94779137D01*
X204117379Y-94867379D01*
X204029137Y-94982377D01*
X203973671Y-95116287D01*
X203973670Y-95116291D01*
X203970258Y-95142211D01*
X203954750Y-95260000D01*
X153218838Y-95260000D01*
X153328183Y-95163129D01*
X153424818Y-95023130D01*
X153485140Y-94864072D01*
X153505645Y-94695200D01*
X153485140Y-94526328D01*
X153485124Y-94526287D01*
X153432428Y-94387336D01*
X153424818Y-94367270D01*
X153424142Y-94366291D01*
X153348965Y-94257379D01*
X153328183Y-94227271D01*
X153222529Y-94133670D01*
X153200849Y-94114463D01*
X153050226Y-94035410D01*
X152885056Y-93994700D01*
X152714944Y-93994700D01*
X152549773Y-94035410D01*
X152399150Y-94114463D01*
X152271816Y-94227272D01*
X152175182Y-94367268D01*
X152114860Y-94526325D01*
X152114859Y-94526330D01*
X152094355Y-94695200D01*
X151679299Y-94695200D01*
X151685250Y-94650000D01*
X151666330Y-94506291D01*
X151610861Y-94372375D01*
X151522621Y-94257379D01*
X151407625Y-94169139D01*
X151407624Y-94169138D01*
X151407622Y-94169137D01*
X151273712Y-94113671D01*
X151273710Y-94113670D01*
X151273709Y-94113670D01*
X151201854Y-94104210D01*
X151130001Y-94094750D01*
X151129999Y-94094750D01*
X150986291Y-94113670D01*
X150986287Y-94113671D01*
X150852376Y-94169138D01*
X150852375Y-94169138D01*
X150787452Y-94218955D01*
X150722283Y-94244148D01*
X150653838Y-94230109D01*
X150636481Y-94218954D01*
X150597625Y-94189139D01*
X150597623Y-94189138D01*
X150463712Y-94133671D01*
X150463710Y-94133670D01*
X150463709Y-94133670D01*
X150391854Y-94124210D01*
X150320001Y-94114750D01*
X150319999Y-94114750D01*
X150176291Y-94133670D01*
X150176287Y-94133671D01*
X150042377Y-94189137D01*
X149927379Y-94277379D01*
X149839137Y-94392377D01*
X149783671Y-94526287D01*
X149783670Y-94526291D01*
X149772501Y-94611130D01*
X149764750Y-94670000D01*
X140370907Y-94670000D01*
X140389201Y-94531049D01*
X140388579Y-94526328D01*
X140378803Y-94452070D01*
X140370281Y-94387340D01*
X140314812Y-94253424D01*
X140226572Y-94138428D01*
X140111576Y-94050188D01*
X140111575Y-94050187D01*
X140111573Y-94050186D01*
X139977663Y-93994720D01*
X139977661Y-93994719D01*
X139977660Y-93994719D01*
X139905805Y-93985259D01*
X139833952Y-93975799D01*
X139833950Y-93975799D01*
X139690242Y-93994719D01*
X139690238Y-93994720D01*
X139556328Y-94050186D01*
X139441330Y-94138428D01*
X139353088Y-94253426D01*
X139297622Y-94387336D01*
X139297621Y-94387340D01*
X139279323Y-94526328D01*
X139278701Y-94531049D01*
X135591946Y-94531049D01*
X135605250Y-94430000D01*
X135586330Y-94286291D01*
X135530861Y-94152375D01*
X135442621Y-94037379D01*
X135342317Y-93960413D01*
X135301117Y-93903987D01*
X135296962Y-93834240D01*
X135331175Y-93773320D01*
X135342307Y-93763674D01*
X135446570Y-93683670D01*
X135534810Y-93568674D01*
X135583966Y-93450000D01*
X147794355Y-93450000D01*
X147814859Y-93618869D01*
X147814860Y-93618874D01*
X147875182Y-93777931D01*
X147909314Y-93827379D01*
X147971817Y-93917929D01*
X148077505Y-94011560D01*
X148099150Y-94030736D01*
X148205017Y-94086299D01*
X148249775Y-94109790D01*
X148414944Y-94150500D01*
X148585056Y-94150500D01*
X148750225Y-94109790D01*
X148863790Y-94050186D01*
X148900849Y-94030736D01*
X148900850Y-94030734D01*
X148900852Y-94030734D01*
X149028183Y-93917929D01*
X149124818Y-93777930D01*
X149185140Y-93618872D01*
X149205645Y-93450000D01*
X149185140Y-93281128D01*
X149124818Y-93122070D01*
X149028183Y-92982071D01*
X148904364Y-92872377D01*
X148900849Y-92869263D01*
X148864144Y-92849999D01*
X208054750Y-92849999D01*
X208054750Y-92850000D01*
X208073670Y-92993708D01*
X208073671Y-92993712D01*
X208129137Y-93127622D01*
X208129138Y-93127624D01*
X208129139Y-93127625D01*
X208217379Y-93242621D01*
X208332375Y-93330861D01*
X208466291Y-93386330D01*
X208593280Y-93403048D01*
X208609999Y-93405250D01*
X208610000Y-93405250D01*
X208610001Y-93405250D01*
X208624977Y-93403278D01*
X208753709Y-93386330D01*
X208887625Y-93330861D01*
X209002621Y-93242621D01*
X209073693Y-93149999D01*
X211234750Y-93149999D01*
X211234750Y-93150000D01*
X211253670Y-93293708D01*
X211253671Y-93293712D01*
X211309137Y-93427622D01*
X211309138Y-93427624D01*
X211309139Y-93427625D01*
X211397379Y-93542621D01*
X211512375Y-93630861D01*
X211512376Y-93630861D01*
X211512377Y-93630862D01*
X211536544Y-93640872D01*
X211646291Y-93686330D01*
X211773280Y-93703048D01*
X211789999Y-93705250D01*
X211790000Y-93705250D01*
X211790001Y-93705250D01*
X211804977Y-93703278D01*
X211933709Y-93686330D01*
X212067625Y-93630861D01*
X212182621Y-93542621D01*
X212270861Y-93427625D01*
X212326330Y-93293709D01*
X212345250Y-93150000D01*
X212343726Y-93138428D01*
X212332109Y-93050188D01*
X212326330Y-93006291D01*
X212270861Y-92872375D01*
X212182621Y-92757379D01*
X212067625Y-92669139D01*
X212067624Y-92669138D01*
X212067622Y-92669137D01*
X211933712Y-92613671D01*
X211933710Y-92613670D01*
X211933709Y-92613670D01*
X211849762Y-92602618D01*
X211790001Y-92594750D01*
X211789999Y-92594750D01*
X211646291Y-92613670D01*
X211646287Y-92613671D01*
X211512377Y-92669137D01*
X211397379Y-92757379D01*
X211309137Y-92872377D01*
X211253671Y-93006287D01*
X211253670Y-93006291D01*
X211234750Y-93149999D01*
X209073693Y-93149999D01*
X209090861Y-93127625D01*
X209146330Y-92993709D01*
X209165250Y-92850000D01*
X209146330Y-92706291D01*
X209090861Y-92572375D01*
X209002621Y-92457379D01*
X208887625Y-92369139D01*
X208887624Y-92369138D01*
X208887622Y-92369137D01*
X208753712Y-92313671D01*
X208753710Y-92313670D01*
X208753709Y-92313670D01*
X208681854Y-92304210D01*
X208610001Y-92294750D01*
X208609999Y-92294750D01*
X208466291Y-92313670D01*
X208466287Y-92313671D01*
X208332377Y-92369137D01*
X208217379Y-92457379D01*
X208129137Y-92572377D01*
X208073671Y-92706287D01*
X208073670Y-92706291D01*
X208054750Y-92849999D01*
X148864144Y-92849999D01*
X148750226Y-92790210D01*
X148585056Y-92749500D01*
X148414944Y-92749500D01*
X148249773Y-92790210D01*
X148099150Y-92869263D01*
X147971816Y-92982072D01*
X147875182Y-93122068D01*
X147814860Y-93281125D01*
X147814859Y-93281130D01*
X147794355Y-93450000D01*
X135583966Y-93450000D01*
X135590279Y-93434758D01*
X135609199Y-93291049D01*
X135607892Y-93281125D01*
X135604245Y-93253424D01*
X135590279Y-93147340D01*
X135534810Y-93013424D01*
X135446570Y-92898428D01*
X135408562Y-92869263D01*
X135386565Y-92852384D01*
X135345363Y-92795956D01*
X135341208Y-92726210D01*
X135375421Y-92665290D01*
X135386558Y-92655639D01*
X135442621Y-92612621D01*
X135530861Y-92497625D01*
X135586330Y-92363709D01*
X135605250Y-92220000D01*
X135586330Y-92076291D01*
X135539697Y-91963708D01*
X135530862Y-91942377D01*
X135530861Y-91942376D01*
X135530861Y-91942375D01*
X135442621Y-91827379D01*
X135327625Y-91739139D01*
X135327624Y-91739138D01*
X135327622Y-91739137D01*
X135193712Y-91683671D01*
X135193710Y-91683670D01*
X135193709Y-91683670D01*
X135121854Y-91674210D01*
X135050001Y-91664750D01*
X135049999Y-91664750D01*
X134906291Y-91683670D01*
X134906287Y-91683671D01*
X134772377Y-91739137D01*
X134738912Y-91764816D01*
X134657379Y-91827379D01*
X134657377Y-91827380D01*
X134657376Y-91827382D01*
X134632210Y-91860178D01*
X134575782Y-91901380D01*
X134506036Y-91905533D01*
X134445116Y-91871320D01*
X134435460Y-91860176D01*
X134402622Y-91817380D01*
X134384806Y-91803709D01*
X134287625Y-91729139D01*
X134287624Y-91729138D01*
X134287622Y-91729137D01*
X134153712Y-91673671D01*
X134153710Y-91673670D01*
X134153709Y-91673670D01*
X134065615Y-91662072D01*
X134049877Y-91660000D01*
X137684750Y-91660000D01*
X137698549Y-91764815D01*
X137703670Y-91803708D01*
X137703671Y-91803712D01*
X137759137Y-91937622D01*
X137759138Y-91937624D01*
X137759139Y-91937625D01*
X137847379Y-92052621D01*
X137962375Y-92140861D01*
X138096291Y-92196330D01*
X138220024Y-92212620D01*
X138239999Y-92215250D01*
X138240000Y-92215250D01*
X138240001Y-92215250D01*
X138259976Y-92212620D01*
X138383709Y-92196330D01*
X138517625Y-92140861D01*
X138632621Y-92052621D01*
X138720861Y-91937625D01*
X138776330Y-91803709D01*
X138795250Y-91660000D01*
X138776330Y-91516291D01*
X138728696Y-91401291D01*
X138720862Y-91382377D01*
X138720861Y-91382376D01*
X138720861Y-91382375D01*
X138632621Y-91267379D01*
X138517625Y-91179139D01*
X138517624Y-91179138D01*
X138517622Y-91179137D01*
X138447277Y-91150000D01*
X142934750Y-91150000D01*
X142952348Y-91283671D01*
X142953670Y-91293708D01*
X142953671Y-91293712D01*
X143009137Y-91427622D01*
X143009138Y-91427624D01*
X143009139Y-91427625D01*
X143097379Y-91542621D01*
X143212375Y-91630861D01*
X143212376Y-91630861D01*
X143212377Y-91630862D01*
X143257013Y-91649350D01*
X143346291Y-91686330D01*
X143473280Y-91703048D01*
X143489999Y-91705250D01*
X143490000Y-91705250D01*
X143490001Y-91705250D01*
X143504977Y-91703278D01*
X143633709Y-91686330D01*
X143767625Y-91630861D01*
X143879521Y-91545000D01*
X213159750Y-91545000D01*
X213171238Y-91632262D01*
X213178670Y-91688708D01*
X213178671Y-91688712D01*
X213234137Y-91822622D01*
X213234138Y-91822624D01*
X213234139Y-91822625D01*
X213322379Y-91937621D01*
X213437375Y-92025861D01*
X213437376Y-92025861D01*
X213437377Y-92025862D01*
X213482013Y-92044350D01*
X213571291Y-92081330D01*
X213695039Y-92097622D01*
X213714999Y-92100250D01*
X213715000Y-92100250D01*
X213715001Y-92100250D01*
X213734961Y-92097622D01*
X213858709Y-92081330D01*
X213992625Y-92025861D01*
X214107621Y-91937621D01*
X214195861Y-91822625D01*
X214251330Y-91688709D01*
X214269592Y-91550000D01*
X216064750Y-91550000D01*
X216082698Y-91686329D01*
X216083670Y-91693708D01*
X216083671Y-91693712D01*
X216139137Y-91827622D01*
X216139138Y-91827624D01*
X216139139Y-91827625D01*
X216227379Y-91942621D01*
X216342375Y-92030861D01*
X216476291Y-92086330D01*
X216603280Y-92103048D01*
X216619999Y-92105250D01*
X216620000Y-92105250D01*
X216620001Y-92105250D01*
X216634977Y-92103278D01*
X216763709Y-92086330D01*
X216897625Y-92030861D01*
X217012621Y-91942621D01*
X217100861Y-91827625D01*
X217156330Y-91693709D01*
X217175250Y-91550000D01*
X217156330Y-91406291D01*
X217116137Y-91309254D01*
X217100862Y-91272377D01*
X217100861Y-91272376D01*
X217100861Y-91272375D01*
X217012621Y-91157379D01*
X216976935Y-91129996D01*
X230164435Y-91129996D01*
X230164435Y-91130003D01*
X230184630Y-91309249D01*
X230184631Y-91309254D01*
X230244211Y-91479523D01*
X230288495Y-91550000D01*
X230340184Y-91632262D01*
X230467738Y-91759816D01*
X230534982Y-91802068D01*
X230575650Y-91827622D01*
X230620478Y-91855789D01*
X230744748Y-91899273D01*
X230790745Y-91915368D01*
X230790750Y-91915369D01*
X230969996Y-91935565D01*
X230970000Y-91935565D01*
X230970004Y-91935565D01*
X231149249Y-91915369D01*
X231149252Y-91915368D01*
X231149255Y-91915368D01*
X231319522Y-91855789D01*
X231472262Y-91759816D01*
X231582319Y-91649759D01*
X231643642Y-91616274D01*
X231713334Y-91621258D01*
X231757681Y-91649759D01*
X231872738Y-91764816D01*
X231934634Y-91803708D01*
X232024505Y-91860178D01*
X232025478Y-91860789D01*
X232153349Y-91905533D01*
X232195745Y-91920368D01*
X232195750Y-91920369D01*
X232374996Y-91940565D01*
X232375000Y-91940565D01*
X232375004Y-91940565D01*
X232554249Y-91920369D01*
X232554252Y-91920368D01*
X232554255Y-91920368D01*
X232724522Y-91860789D01*
X232877262Y-91764816D01*
X233004816Y-91637262D01*
X233100789Y-91484522D01*
X233160368Y-91314255D01*
X233160369Y-91314249D01*
X233180565Y-91135003D01*
X233180565Y-91134996D01*
X233160369Y-90955750D01*
X233160368Y-90955745D01*
X233131196Y-90872377D01*
X233100789Y-90785478D01*
X233097647Y-90780478D01*
X233061582Y-90723080D01*
X233004816Y-90632738D01*
X232877262Y-90505184D01*
X232786557Y-90448190D01*
X232724523Y-90409211D01*
X232554254Y-90349631D01*
X232554249Y-90349630D01*
X232375004Y-90329435D01*
X232374996Y-90329435D01*
X232195750Y-90349630D01*
X232195745Y-90349631D01*
X232025476Y-90409211D01*
X231872737Y-90505184D01*
X231762681Y-90615241D01*
X231701358Y-90648726D01*
X231631666Y-90643742D01*
X231587319Y-90615241D01*
X231472262Y-90500184D01*
X231319523Y-90404211D01*
X231149254Y-90344631D01*
X231149249Y-90344630D01*
X230970004Y-90324435D01*
X230969996Y-90324435D01*
X230790750Y-90344630D01*
X230790745Y-90344631D01*
X230620476Y-90404211D01*
X230467737Y-90500184D01*
X230340184Y-90627737D01*
X230244211Y-90780476D01*
X230184631Y-90950745D01*
X230184630Y-90950750D01*
X230164435Y-91129996D01*
X216976935Y-91129996D01*
X216897625Y-91069139D01*
X216897624Y-91069138D01*
X216897622Y-91069137D01*
X216763712Y-91013671D01*
X216763710Y-91013670D01*
X216763709Y-91013670D01*
X216691854Y-91004210D01*
X216620001Y-90994750D01*
X216619999Y-90994750D01*
X216476291Y-91013670D01*
X216476287Y-91013671D01*
X216342377Y-91069137D01*
X216227379Y-91157379D01*
X216139137Y-91272377D01*
X216083671Y-91406287D01*
X216083670Y-91406291D01*
X216065722Y-91542620D01*
X216064750Y-91550000D01*
X214269592Y-91550000D01*
X214270250Y-91545000D01*
X214269904Y-91542375D01*
X214262288Y-91484523D01*
X214251330Y-91401291D01*
X214195861Y-91267375D01*
X214107621Y-91152379D01*
X213992625Y-91064139D01*
X213992624Y-91064138D01*
X213992622Y-91064137D01*
X213858712Y-91008671D01*
X213858710Y-91008670D01*
X213858709Y-91008670D01*
X213786854Y-90999210D01*
X213715001Y-90989750D01*
X213714999Y-90989750D01*
X213571291Y-91008670D01*
X213571287Y-91008671D01*
X213437377Y-91064137D01*
X213322379Y-91152379D01*
X213234137Y-91267377D01*
X213178671Y-91401287D01*
X213178670Y-91401291D01*
X213160096Y-91542375D01*
X213159750Y-91545000D01*
X143879521Y-91545000D01*
X143882621Y-91542621D01*
X143970861Y-91427625D01*
X144026330Y-91293709D01*
X144045250Y-91150000D01*
X144026330Y-91006291D01*
X143970861Y-90872375D01*
X143882621Y-90757379D01*
X143767625Y-90669139D01*
X143767624Y-90669138D01*
X143767622Y-90669137D01*
X143633712Y-90613671D01*
X143633710Y-90613670D01*
X143633709Y-90613670D01*
X143561854Y-90604210D01*
X143490001Y-90594750D01*
X143489999Y-90594750D01*
X143346291Y-90613670D01*
X143346287Y-90613671D01*
X143212377Y-90669137D01*
X143097379Y-90757379D01*
X143009137Y-90872377D01*
X142953671Y-91006287D01*
X142953670Y-91006291D01*
X142934750Y-91150000D01*
X138447277Y-91150000D01*
X138383712Y-91123671D01*
X138383710Y-91123670D01*
X138383709Y-91123670D01*
X138311854Y-91114210D01*
X138240001Y-91104750D01*
X138239999Y-91104750D01*
X138096291Y-91123670D01*
X138096287Y-91123671D01*
X137962377Y-91179137D01*
X137847379Y-91267379D01*
X137759137Y-91382377D01*
X137703671Y-91516287D01*
X137703670Y-91516291D01*
X137687744Y-91637262D01*
X137684750Y-91660000D01*
X134049877Y-91660000D01*
X134010001Y-91654750D01*
X134009999Y-91654750D01*
X133866291Y-91673670D01*
X133866287Y-91673671D01*
X133732377Y-91729137D01*
X133617378Y-91817380D01*
X133554538Y-91899274D01*
X133498110Y-91940476D01*
X133428364Y-91944630D01*
X133367444Y-91910417D01*
X133357788Y-91899273D01*
X133331063Y-91864445D01*
X133302621Y-91827379D01*
X133187625Y-91739139D01*
X133187624Y-91739138D01*
X133187622Y-91739137D01*
X133053712Y-91683671D01*
X133053710Y-91683670D01*
X133053709Y-91683670D01*
X132981854Y-91674210D01*
X132910001Y-91664750D01*
X132909999Y-91664750D01*
X132766291Y-91683670D01*
X132766287Y-91683671D01*
X132632377Y-91739137D01*
X132517379Y-91827379D01*
X132429137Y-91942377D01*
X132373671Y-92076287D01*
X132373670Y-92076291D01*
X132355722Y-92212620D01*
X132354750Y-92220000D01*
X130943005Y-92220000D01*
X130952621Y-92212621D01*
X131040861Y-92097625D01*
X131096330Y-91963709D01*
X131115250Y-91820000D01*
X131096330Y-91676291D01*
X131040963Y-91542621D01*
X131040862Y-91542377D01*
X131040861Y-91542376D01*
X131040861Y-91542375D01*
X130952621Y-91427379D01*
X130837625Y-91339139D01*
X130837624Y-91339138D01*
X130837622Y-91339137D01*
X130703712Y-91283671D01*
X130703710Y-91283670D01*
X130703709Y-91283670D01*
X130617917Y-91272375D01*
X130560001Y-91264750D01*
X130559999Y-91264750D01*
X130416291Y-91283670D01*
X130416287Y-91283671D01*
X130282377Y-91339137D01*
X130167379Y-91427379D01*
X130079137Y-91542377D01*
X130023671Y-91676287D01*
X130023670Y-91676291D01*
X130007111Y-91802070D01*
X130004750Y-91820000D01*
X123521618Y-91820000D01*
X123514818Y-91802070D01*
X123418183Y-91662071D01*
X123291681Y-91550000D01*
X123290849Y-91549263D01*
X123140226Y-91470210D01*
X122975056Y-91429500D01*
X122804944Y-91429500D01*
X122639773Y-91470210D01*
X122489150Y-91549263D01*
X122361816Y-91662072D01*
X122265182Y-91802068D01*
X122204860Y-91961125D01*
X122204859Y-91961130D01*
X122184355Y-92130000D01*
X114475000Y-92130000D01*
X114475000Y-90529999D01*
X136814750Y-90529999D01*
X136814750Y-90530000D01*
X136833670Y-90673708D01*
X136833671Y-90673712D01*
X136889137Y-90807622D01*
X136889138Y-90807624D01*
X136889139Y-90807625D01*
X136977379Y-90922621D01*
X137092375Y-91010861D01*
X137092376Y-91010861D01*
X137092377Y-91010862D01*
X137099159Y-91013671D01*
X137226291Y-91066330D01*
X137353280Y-91083048D01*
X137369999Y-91085250D01*
X137370000Y-91085250D01*
X137370001Y-91085250D01*
X137384977Y-91083278D01*
X137513709Y-91066330D01*
X137647625Y-91010861D01*
X137762621Y-90922621D01*
X137850861Y-90807625D01*
X137906330Y-90673709D01*
X137925250Y-90530000D01*
X137906330Y-90386291D01*
X137850861Y-90252375D01*
X137762621Y-90137379D01*
X137647625Y-90049139D01*
X137647624Y-90049138D01*
X137647622Y-90049137D01*
X137513712Y-89993671D01*
X137513710Y-89993670D01*
X137513709Y-89993670D01*
X137433970Y-89983172D01*
X137370001Y-89974750D01*
X137369999Y-89974750D01*
X137226291Y-89993670D01*
X137226287Y-89993671D01*
X137092377Y-90049137D01*
X136977379Y-90137379D01*
X136889137Y-90252377D01*
X136833671Y-90386287D01*
X136833670Y-90386291D01*
X136814750Y-90529999D01*
X114475000Y-90529999D01*
X114475000Y-89788400D01*
X157245955Y-89788400D01*
X157266459Y-89957269D01*
X157266460Y-89957274D01*
X157326782Y-90116331D01*
X157340332Y-90135961D01*
X157423417Y-90256329D01*
X157500293Y-90324435D01*
X157550750Y-90369136D01*
X157701373Y-90448189D01*
X157701375Y-90448190D01*
X157866544Y-90488900D01*
X158036656Y-90488900D01*
X158201825Y-90448190D01*
X158285619Y-90404211D01*
X158352449Y-90369136D01*
X158352450Y-90369134D01*
X158352452Y-90369134D01*
X158479783Y-90256329D01*
X158576418Y-90116330D01*
X158636740Y-89957272D01*
X158657245Y-89788400D01*
X158636740Y-89619528D01*
X158576418Y-89460470D01*
X158479783Y-89320471D01*
X158352452Y-89207666D01*
X158352449Y-89207663D01*
X158201826Y-89128610D01*
X158036656Y-89087900D01*
X157866544Y-89087900D01*
X157701373Y-89128610D01*
X157550750Y-89207663D01*
X157423416Y-89320472D01*
X157326782Y-89460468D01*
X157266460Y-89619525D01*
X157266459Y-89619530D01*
X157245955Y-89788400D01*
X114475000Y-89788400D01*
X114475000Y-89160000D01*
X130374750Y-89160000D01*
X130390563Y-89280113D01*
X130393670Y-89303708D01*
X130393671Y-89303712D01*
X130449137Y-89437622D01*
X130449138Y-89437624D01*
X130449139Y-89437625D01*
X130537379Y-89552621D01*
X130652375Y-89640861D01*
X130786291Y-89696330D01*
X130913280Y-89713048D01*
X130929999Y-89715250D01*
X130930000Y-89715250D01*
X130930001Y-89715250D01*
X130944977Y-89713278D01*
X131073709Y-89696330D01*
X131207625Y-89640861D01*
X131322621Y-89552621D01*
X131410861Y-89437625D01*
X131466330Y-89303709D01*
X131485250Y-89160000D01*
X137524750Y-89160000D01*
X137540563Y-89280113D01*
X137543670Y-89303708D01*
X137543671Y-89303712D01*
X137599137Y-89437622D01*
X137599138Y-89437624D01*
X137599139Y-89437625D01*
X137687379Y-89552621D01*
X137802375Y-89640861D01*
X137936291Y-89696330D01*
X138063280Y-89713048D01*
X138079999Y-89715250D01*
X138080000Y-89715250D01*
X138080001Y-89715250D01*
X138094977Y-89713278D01*
X138223709Y-89696330D01*
X138357625Y-89640861D01*
X138472621Y-89552621D01*
X138560861Y-89437625D01*
X138616330Y-89303709D01*
X138635250Y-89160000D01*
X138616330Y-89016291D01*
X138560861Y-88882375D01*
X138472621Y-88767379D01*
X138357625Y-88679139D01*
X138357624Y-88679138D01*
X138357622Y-88679137D01*
X138223712Y-88623671D01*
X138223710Y-88623670D01*
X138223709Y-88623670D01*
X138151854Y-88614210D01*
X138080001Y-88604750D01*
X138079999Y-88604750D01*
X137936291Y-88623670D01*
X137936287Y-88623671D01*
X137802377Y-88679137D01*
X137687379Y-88767379D01*
X137599137Y-88882377D01*
X137543671Y-89016287D01*
X137543670Y-89016291D01*
X137524750Y-89160000D01*
X131485250Y-89160000D01*
X131466330Y-89016291D01*
X131410861Y-88882375D01*
X131322621Y-88767379D01*
X131207625Y-88679139D01*
X131207624Y-88679138D01*
X131207622Y-88679137D01*
X131073712Y-88623671D01*
X131073710Y-88623670D01*
X131073709Y-88623670D01*
X131001854Y-88614210D01*
X130930001Y-88604750D01*
X130929999Y-88604750D01*
X130786291Y-88623670D01*
X130786287Y-88623671D01*
X130652377Y-88679137D01*
X130537379Y-88767379D01*
X130449137Y-88882377D01*
X130393671Y-89016287D01*
X130393670Y-89016291D01*
X130374750Y-89160000D01*
X114475000Y-89160000D01*
X114475000Y-87859999D01*
X129844750Y-87859999D01*
X129844750Y-87860000D01*
X129863670Y-88003708D01*
X129863671Y-88003712D01*
X129919137Y-88137622D01*
X129919138Y-88137624D01*
X129919139Y-88137625D01*
X130007379Y-88252621D01*
X130122375Y-88340861D01*
X130256291Y-88396330D01*
X130383280Y-88413048D01*
X130399999Y-88415250D01*
X130400000Y-88415250D01*
X130400001Y-88415250D01*
X130414977Y-88413278D01*
X130543709Y-88396330D01*
X130677625Y-88340861D01*
X130792621Y-88252621D01*
X130795559Y-88248792D01*
X131764750Y-88248792D01*
X131776871Y-88340862D01*
X131783670Y-88392500D01*
X131783671Y-88392504D01*
X131839137Y-88526414D01*
X131839138Y-88526416D01*
X131839139Y-88526417D01*
X131927379Y-88641413D01*
X132042375Y-88729653D01*
X132176291Y-88785122D01*
X132303280Y-88801840D01*
X132319999Y-88804042D01*
X132320000Y-88804042D01*
X132320001Y-88804042D01*
X132334977Y-88802070D01*
X132463709Y-88785122D01*
X132597625Y-88729653D01*
X132712621Y-88641413D01*
X132800861Y-88526417D01*
X132807662Y-88509995D01*
X132851499Y-88455594D01*
X132917792Y-88433526D01*
X132938407Y-88434507D01*
X132980697Y-88440075D01*
X133019999Y-88445250D01*
X133020000Y-88445250D01*
X133020001Y-88445250D01*
X133034977Y-88443278D01*
X133163709Y-88426330D01*
X133297625Y-88370861D01*
X133412621Y-88282621D01*
X133427788Y-88262853D01*
X133484213Y-88221653D01*
X133553959Y-88217497D01*
X133614880Y-88251708D01*
X133624535Y-88262851D01*
X133647379Y-88292621D01*
X133762375Y-88380861D01*
X133896291Y-88436330D01*
X134023280Y-88453048D01*
X134039999Y-88455250D01*
X134040000Y-88455250D01*
X134040001Y-88455250D01*
X134054977Y-88453278D01*
X134183709Y-88436330D01*
X134317625Y-88380861D01*
X134432621Y-88292621D01*
X134457652Y-88260000D01*
X153444355Y-88260000D01*
X153464859Y-88428869D01*
X153464860Y-88428874D01*
X153525182Y-88587931D01*
X153549852Y-88623671D01*
X153621817Y-88727929D01*
X153686373Y-88785120D01*
X153749150Y-88840736D01*
X153899773Y-88919789D01*
X153899775Y-88919790D01*
X154064944Y-88960500D01*
X154235056Y-88960500D01*
X154400225Y-88919790D01*
X154533550Y-88849815D01*
X154550849Y-88840736D01*
X154550850Y-88840734D01*
X154550852Y-88840734D01*
X154678183Y-88727929D01*
X154774818Y-88587930D01*
X154835140Y-88428872D01*
X154855645Y-88260000D01*
X154854431Y-88249998D01*
X162390194Y-88249998D01*
X162390194Y-88250001D01*
X162409588Y-88521160D01*
X162409589Y-88521167D01*
X162467372Y-88786793D01*
X162467374Y-88786801D01*
X162526674Y-88945789D01*
X162562379Y-89041519D01*
X162692658Y-89280107D01*
X162692659Y-89280108D01*
X162692662Y-89280113D01*
X162855578Y-89497742D01*
X162855582Y-89497746D01*
X162855587Y-89497752D01*
X163047796Y-89689961D01*
X163047802Y-89689966D01*
X163047807Y-89689971D01*
X163265436Y-89852887D01*
X163265440Y-89852889D01*
X163265441Y-89852890D01*
X163504030Y-89983169D01*
X163504029Y-89983169D01*
X163504033Y-89983170D01*
X163504036Y-89983172D01*
X163758748Y-90078175D01*
X164024389Y-90135961D01*
X164276154Y-90153967D01*
X164295548Y-90155355D01*
X164295549Y-90155355D01*
X164295550Y-90155355D01*
X164313649Y-90154060D01*
X164566709Y-90135961D01*
X164832350Y-90078175D01*
X165087062Y-89983172D01*
X165087066Y-89983169D01*
X165087068Y-89983169D01*
X165206362Y-89918029D01*
X165325662Y-89852887D01*
X165543291Y-89689971D01*
X165735520Y-89497742D01*
X165898436Y-89280113D01*
X166028721Y-89041513D01*
X166123724Y-88786801D01*
X166181510Y-88521160D01*
X166200904Y-88250000D01*
X166200904Y-88249998D01*
X167390194Y-88249998D01*
X167390194Y-88250001D01*
X167409588Y-88521160D01*
X167409589Y-88521167D01*
X167467372Y-88786793D01*
X167467374Y-88786801D01*
X167526674Y-88945789D01*
X167562379Y-89041519D01*
X167692658Y-89280107D01*
X167692659Y-89280108D01*
X167692662Y-89280113D01*
X167855578Y-89497742D01*
X167855582Y-89497746D01*
X167855587Y-89497752D01*
X168047796Y-89689961D01*
X168047802Y-89689966D01*
X168047807Y-89689971D01*
X168265436Y-89852887D01*
X168265440Y-89852889D01*
X168265441Y-89852890D01*
X168504030Y-89983169D01*
X168504029Y-89983169D01*
X168504033Y-89983170D01*
X168504036Y-89983172D01*
X168758748Y-90078175D01*
X169024389Y-90135961D01*
X169276154Y-90153967D01*
X169295548Y-90155355D01*
X169295549Y-90155355D01*
X169295550Y-90155355D01*
X169313649Y-90154060D01*
X169566709Y-90135961D01*
X169832350Y-90078175D01*
X170087062Y-89983172D01*
X170087066Y-89983169D01*
X170087068Y-89983169D01*
X170206362Y-89918029D01*
X170325662Y-89852887D01*
X170543291Y-89689971D01*
X170735520Y-89497742D01*
X170898436Y-89280113D01*
X171028721Y-89041513D01*
X171123724Y-88786801D01*
X171181510Y-88521160D01*
X171200904Y-88250000D01*
X171200904Y-88249998D01*
X183900194Y-88249998D01*
X183900194Y-88250001D01*
X183919588Y-88521160D01*
X183919589Y-88521167D01*
X183977372Y-88786793D01*
X183977374Y-88786801D01*
X184036674Y-88945789D01*
X184072379Y-89041519D01*
X184202658Y-89280107D01*
X184202659Y-89280108D01*
X184202662Y-89280113D01*
X184365578Y-89497742D01*
X184365582Y-89497746D01*
X184365587Y-89497752D01*
X184557796Y-89689961D01*
X184557802Y-89689966D01*
X184557807Y-89689971D01*
X184775436Y-89852887D01*
X184775440Y-89852889D01*
X184775441Y-89852890D01*
X185014030Y-89983169D01*
X185014029Y-89983169D01*
X185014033Y-89983170D01*
X185014036Y-89983172D01*
X185268748Y-90078175D01*
X185534389Y-90135961D01*
X185786154Y-90153967D01*
X185805548Y-90155355D01*
X185805549Y-90155355D01*
X185805550Y-90155355D01*
X185823649Y-90154060D01*
X186076709Y-90135961D01*
X186342350Y-90078175D01*
X186597062Y-89983172D01*
X186597066Y-89983169D01*
X186597068Y-89983169D01*
X186716362Y-89918029D01*
X186835662Y-89852887D01*
X187053291Y-89689971D01*
X187245520Y-89497742D01*
X187408436Y-89280113D01*
X187538721Y-89041513D01*
X187633724Y-88786801D01*
X187691510Y-88521160D01*
X187710904Y-88250000D01*
X187710904Y-88249998D01*
X188900194Y-88249998D01*
X188900194Y-88250001D01*
X188919588Y-88521160D01*
X188919589Y-88521167D01*
X188977372Y-88786793D01*
X188977374Y-88786801D01*
X189036674Y-88945789D01*
X189072379Y-89041519D01*
X189202658Y-89280107D01*
X189202659Y-89280108D01*
X189202662Y-89280113D01*
X189365578Y-89497742D01*
X189365582Y-89497746D01*
X189365587Y-89497752D01*
X189557796Y-89689961D01*
X189557802Y-89689966D01*
X189557807Y-89689971D01*
X189775436Y-89852887D01*
X189775440Y-89852889D01*
X189775441Y-89852890D01*
X190014030Y-89983169D01*
X190014029Y-89983169D01*
X190014033Y-89983170D01*
X190014036Y-89983172D01*
X190268748Y-90078175D01*
X190534389Y-90135961D01*
X190786154Y-90153967D01*
X190805548Y-90155355D01*
X190805549Y-90155355D01*
X190805550Y-90155355D01*
X190823649Y-90154060D01*
X191076709Y-90135961D01*
X191342350Y-90078175D01*
X191597062Y-89983172D01*
X191597066Y-89983169D01*
X191597068Y-89983169D01*
X191716362Y-89918029D01*
X191835662Y-89852887D01*
X192053291Y-89689971D01*
X192245520Y-89497742D01*
X192408436Y-89280113D01*
X192538721Y-89041513D01*
X192633724Y-88786801D01*
X192691510Y-88521160D01*
X192710904Y-88250000D01*
X192710904Y-88249996D01*
X211744435Y-88249996D01*
X211744435Y-88250003D01*
X211764630Y-88429249D01*
X211764631Y-88429254D01*
X211824211Y-88599523D01*
X211905978Y-88729653D01*
X211920184Y-88752262D01*
X212047738Y-88879816D01*
X212051811Y-88882375D01*
X212176145Y-88960500D01*
X212200478Y-88975789D01*
X212285010Y-89005368D01*
X212370745Y-89035368D01*
X212370750Y-89035369D01*
X212549996Y-89055565D01*
X212550000Y-89055565D01*
X212550004Y-89055565D01*
X212729249Y-89035369D01*
X212729252Y-89035368D01*
X212729255Y-89035368D01*
X212899522Y-88975789D01*
X213052262Y-88879816D01*
X213179816Y-88752262D01*
X213275789Y-88599522D01*
X213335368Y-88429255D01*
X213335411Y-88428872D01*
X213355565Y-88250003D01*
X213355565Y-88249996D01*
X213352185Y-88219996D01*
X216514435Y-88219996D01*
X216514435Y-88220003D01*
X216534630Y-88399249D01*
X216534631Y-88399254D01*
X216594211Y-88569523D01*
X216639383Y-88641413D01*
X216690184Y-88722262D01*
X216817738Y-88849816D01*
X216970478Y-88945789D01*
X217140745Y-89005368D01*
X217140750Y-89005369D01*
X217319996Y-89025565D01*
X217320000Y-89025565D01*
X217320004Y-89025565D01*
X217499249Y-89005369D01*
X217499252Y-89005368D01*
X217499255Y-89005368D01*
X217669522Y-88945789D01*
X217822262Y-88849816D01*
X217949816Y-88722262D01*
X218045789Y-88569522D01*
X218105368Y-88399255D01*
X218106129Y-88392500D01*
X218125565Y-88220003D01*
X218125565Y-88219996D01*
X218105369Y-88040750D01*
X218105368Y-88040745D01*
X218092410Y-88003712D01*
X218045789Y-87870478D01*
X218036799Y-87856171D01*
X217968666Y-87747738D01*
X217949816Y-87717738D01*
X217822262Y-87590184D01*
X217773429Y-87559500D01*
X217669523Y-87494211D01*
X217499254Y-87434631D01*
X217499249Y-87434630D01*
X217320004Y-87414435D01*
X217319996Y-87414435D01*
X217140750Y-87434630D01*
X217140745Y-87434631D01*
X216970476Y-87494211D01*
X216817737Y-87590184D01*
X216690184Y-87717737D01*
X216594211Y-87870476D01*
X216534631Y-88040745D01*
X216534630Y-88040750D01*
X216514435Y-88219996D01*
X213352185Y-88219996D01*
X213335369Y-88070750D01*
X213335368Y-88070745D01*
X213324872Y-88040750D01*
X213275789Y-87900478D01*
X213256937Y-87870476D01*
X213185190Y-87756291D01*
X213179816Y-87747738D01*
X213052262Y-87620184D01*
X213020474Y-87600210D01*
X212899523Y-87524211D01*
X212729254Y-87464631D01*
X212729249Y-87464630D01*
X212550004Y-87444435D01*
X212549996Y-87444435D01*
X212370750Y-87464630D01*
X212370745Y-87464631D01*
X212200476Y-87524211D01*
X212047737Y-87620184D01*
X211920184Y-87747737D01*
X211824211Y-87900476D01*
X211764631Y-88070745D01*
X211764630Y-88070750D01*
X211744435Y-88249996D01*
X192710904Y-88249996D01*
X192691510Y-87978840D01*
X192633724Y-87713199D01*
X192538721Y-87458487D01*
X192538719Y-87458484D01*
X192538718Y-87458480D01*
X192408439Y-87219892D01*
X192408438Y-87219891D01*
X192408436Y-87219887D01*
X192245520Y-87002258D01*
X192245515Y-87002253D01*
X192245510Y-87002247D01*
X192053301Y-86810038D01*
X192053295Y-86810033D01*
X192053291Y-86810029D01*
X191835662Y-86647113D01*
X191835657Y-86647110D01*
X191835656Y-86647109D01*
X191597067Y-86516830D01*
X191597068Y-86516830D01*
X191547469Y-86498330D01*
X191342350Y-86421825D01*
X191342343Y-86421823D01*
X191342342Y-86421823D01*
X191076716Y-86364040D01*
X191076709Y-86364039D01*
X190805550Y-86344645D01*
X190805548Y-86344645D01*
X190534388Y-86364039D01*
X190534381Y-86364040D01*
X190268755Y-86421823D01*
X190268751Y-86421824D01*
X190268748Y-86421825D01*
X190141392Y-86469326D01*
X190014029Y-86516830D01*
X189775441Y-86647109D01*
X189775440Y-86647110D01*
X189557808Y-86810028D01*
X189557796Y-86810038D01*
X189365587Y-87002247D01*
X189365577Y-87002259D01*
X189202659Y-87219891D01*
X189202658Y-87219892D01*
X189072379Y-87458480D01*
X189030463Y-87570862D01*
X188977374Y-87713199D01*
X188977373Y-87713202D01*
X188977372Y-87713206D01*
X188919589Y-87978832D01*
X188919588Y-87978839D01*
X188900194Y-88249998D01*
X187710904Y-88249998D01*
X187691510Y-87978840D01*
X187633724Y-87713199D01*
X187538721Y-87458487D01*
X187538719Y-87458484D01*
X187538718Y-87458480D01*
X187408439Y-87219892D01*
X187408438Y-87219891D01*
X187408436Y-87219887D01*
X187245520Y-87002258D01*
X187245515Y-87002253D01*
X187245510Y-87002247D01*
X187053301Y-86810038D01*
X187053295Y-86810033D01*
X187053291Y-86810029D01*
X186835662Y-86647113D01*
X186835657Y-86647110D01*
X186835656Y-86647109D01*
X186597067Y-86516830D01*
X186597068Y-86516830D01*
X186547469Y-86498330D01*
X186342350Y-86421825D01*
X186342343Y-86421823D01*
X186342342Y-86421823D01*
X186076716Y-86364040D01*
X186076709Y-86364039D01*
X185805550Y-86344645D01*
X185805548Y-86344645D01*
X185534388Y-86364039D01*
X185534381Y-86364040D01*
X185268755Y-86421823D01*
X185268751Y-86421824D01*
X185268748Y-86421825D01*
X185141392Y-86469326D01*
X185014029Y-86516830D01*
X184775441Y-86647109D01*
X184775440Y-86647110D01*
X184557808Y-86810028D01*
X184557796Y-86810038D01*
X184365587Y-87002247D01*
X184365577Y-87002259D01*
X184202659Y-87219891D01*
X184202658Y-87219892D01*
X184072379Y-87458480D01*
X184030463Y-87570862D01*
X183977374Y-87713199D01*
X183977373Y-87713202D01*
X183977372Y-87713206D01*
X183919589Y-87978832D01*
X183919588Y-87978839D01*
X183900194Y-88249998D01*
X171200904Y-88249998D01*
X171181510Y-87978840D01*
X171123724Y-87713199D01*
X171028721Y-87458487D01*
X171028719Y-87458484D01*
X171028718Y-87458480D01*
X170898439Y-87219892D01*
X170898438Y-87219891D01*
X170898436Y-87219887D01*
X170735520Y-87002258D01*
X170735515Y-87002253D01*
X170735510Y-87002247D01*
X170543301Y-86810038D01*
X170543295Y-86810033D01*
X170543291Y-86810029D01*
X170325662Y-86647113D01*
X170325657Y-86647110D01*
X170325656Y-86647109D01*
X170087067Y-86516830D01*
X170087068Y-86516830D01*
X170037469Y-86498330D01*
X169832350Y-86421825D01*
X169832343Y-86421823D01*
X169832342Y-86421823D01*
X169566716Y-86364040D01*
X169566709Y-86364039D01*
X169295550Y-86344645D01*
X169295548Y-86344645D01*
X169024388Y-86364039D01*
X169024381Y-86364040D01*
X168758755Y-86421823D01*
X168758751Y-86421824D01*
X168758748Y-86421825D01*
X168631392Y-86469326D01*
X168504029Y-86516830D01*
X168265441Y-86647109D01*
X168265440Y-86647110D01*
X168047808Y-86810028D01*
X168047796Y-86810038D01*
X167855587Y-87002247D01*
X167855577Y-87002259D01*
X167692659Y-87219891D01*
X167692658Y-87219892D01*
X167562379Y-87458480D01*
X167520463Y-87570862D01*
X167467374Y-87713199D01*
X167467373Y-87713202D01*
X167467372Y-87713206D01*
X167409589Y-87978832D01*
X167409588Y-87978839D01*
X167390194Y-88249998D01*
X166200904Y-88249998D01*
X166181510Y-87978840D01*
X166123724Y-87713199D01*
X166028721Y-87458487D01*
X166028719Y-87458484D01*
X166028718Y-87458480D01*
X165898439Y-87219892D01*
X165898438Y-87219891D01*
X165898436Y-87219887D01*
X165735520Y-87002258D01*
X165735515Y-87002253D01*
X165735510Y-87002247D01*
X165543301Y-86810038D01*
X165543295Y-86810033D01*
X165543291Y-86810029D01*
X165325662Y-86647113D01*
X165325657Y-86647110D01*
X165325656Y-86647109D01*
X165087067Y-86516830D01*
X165087068Y-86516830D01*
X165037469Y-86498330D01*
X164832350Y-86421825D01*
X164832343Y-86421823D01*
X164832342Y-86421823D01*
X164566716Y-86364040D01*
X164566709Y-86364039D01*
X164295550Y-86344645D01*
X164295548Y-86344645D01*
X164024388Y-86364039D01*
X164024381Y-86364040D01*
X163758755Y-86421823D01*
X163758751Y-86421824D01*
X163758748Y-86421825D01*
X163631392Y-86469326D01*
X163504029Y-86516830D01*
X163265441Y-86647109D01*
X163265440Y-86647110D01*
X163047808Y-86810028D01*
X163047796Y-86810038D01*
X162855587Y-87002247D01*
X162855577Y-87002259D01*
X162692659Y-87219891D01*
X162692658Y-87219892D01*
X162562379Y-87458480D01*
X162520463Y-87570862D01*
X162467374Y-87713199D01*
X162467373Y-87713202D01*
X162467372Y-87713206D01*
X162409589Y-87978832D01*
X162409588Y-87978839D01*
X162390194Y-88249998D01*
X154854431Y-88249998D01*
X154835140Y-88091128D01*
X154816032Y-88040745D01*
X154774817Y-87932068D01*
X154725071Y-87860000D01*
X154678183Y-87792071D01*
X154580199Y-87705265D01*
X154550849Y-87679263D01*
X154400226Y-87600210D01*
X154235056Y-87559500D01*
X154064944Y-87559500D01*
X153899773Y-87600210D01*
X153749150Y-87679263D01*
X153621816Y-87792072D01*
X153525182Y-87932068D01*
X153464860Y-88091125D01*
X153464859Y-88091130D01*
X153444355Y-88260000D01*
X134457652Y-88260000D01*
X134520861Y-88177625D01*
X134576330Y-88043709D01*
X134595250Y-87900000D01*
X134576330Y-87756291D01*
X134522499Y-87626329D01*
X134520862Y-87622377D01*
X134520861Y-87622376D01*
X134520861Y-87622375D01*
X134432621Y-87507379D01*
X134317625Y-87419139D01*
X134317624Y-87419138D01*
X134317622Y-87419137D01*
X134183712Y-87363671D01*
X134183710Y-87363670D01*
X134183709Y-87363670D01*
X134111854Y-87354210D01*
X134040001Y-87344750D01*
X134039999Y-87344750D01*
X133896291Y-87363670D01*
X133896287Y-87363671D01*
X133762377Y-87419137D01*
X133647377Y-87507380D01*
X133632210Y-87527147D01*
X133575781Y-87568348D01*
X133506035Y-87572501D01*
X133445115Y-87538287D01*
X133435463Y-87527147D01*
X133412621Y-87497379D01*
X133297625Y-87409139D01*
X133297624Y-87409138D01*
X133297622Y-87409137D01*
X133163712Y-87353671D01*
X133163710Y-87353670D01*
X133163709Y-87353670D01*
X133091854Y-87344210D01*
X133020001Y-87334750D01*
X133019999Y-87334750D01*
X132876291Y-87353670D01*
X132876287Y-87353671D01*
X132742377Y-87409137D01*
X132646613Y-87482620D01*
X132627379Y-87497379D01*
X132539139Y-87612375D01*
X132539138Y-87612376D01*
X132539138Y-87612377D01*
X132532335Y-87628800D01*
X132488492Y-87683202D01*
X132422197Y-87705265D01*
X132401590Y-87704283D01*
X132320002Y-87693542D01*
X132319999Y-87693542D01*
X132176291Y-87712462D01*
X132176287Y-87712463D01*
X132042377Y-87767929D01*
X131927379Y-87856171D01*
X131839137Y-87971169D01*
X131783671Y-88105079D01*
X131783670Y-88105083D01*
X131764750Y-88248792D01*
X130795559Y-88248792D01*
X130880861Y-88137625D01*
X130936330Y-88003709D01*
X130955250Y-87860000D01*
X130936330Y-87716291D01*
X130880861Y-87582375D01*
X130792621Y-87467379D01*
X130677625Y-87379139D01*
X130677624Y-87379138D01*
X130677622Y-87379137D01*
X130543712Y-87323671D01*
X130543710Y-87323670D01*
X130543709Y-87323670D01*
X130471854Y-87314210D01*
X130400001Y-87304750D01*
X130399999Y-87304750D01*
X130256291Y-87323670D01*
X130256287Y-87323671D01*
X130122377Y-87379137D01*
X130007379Y-87467379D01*
X129919137Y-87582377D01*
X129863671Y-87716287D01*
X129863670Y-87716291D01*
X129844750Y-87859999D01*
X114475000Y-87859999D01*
X114475000Y-87089999D01*
X127224750Y-87089999D01*
X127224750Y-87090000D01*
X127243670Y-87233708D01*
X127243671Y-87233712D01*
X127299137Y-87367622D01*
X127299138Y-87367624D01*
X127299139Y-87367625D01*
X127387379Y-87482621D01*
X127502375Y-87570861D01*
X127636291Y-87626330D01*
X127763280Y-87643048D01*
X127779999Y-87645250D01*
X127780000Y-87645250D01*
X127780001Y-87645250D01*
X127794977Y-87643278D01*
X127923709Y-87626330D01*
X128057625Y-87570861D01*
X128172621Y-87482621D01*
X128260861Y-87367625D01*
X128316330Y-87233709D01*
X128335250Y-87090000D01*
X128316330Y-86946291D01*
X128260861Y-86812375D01*
X128172621Y-86697379D01*
X128057625Y-86609139D01*
X128057624Y-86609138D01*
X128057622Y-86609137D01*
X127923712Y-86553671D01*
X127923710Y-86553670D01*
X127923709Y-86553670D01*
X127851854Y-86544210D01*
X127780001Y-86534750D01*
X127779999Y-86534750D01*
X127636291Y-86553670D01*
X127636287Y-86553671D01*
X127502377Y-86609137D01*
X127387379Y-86697379D01*
X127299137Y-86812377D01*
X127243671Y-86946287D01*
X127243670Y-86946291D01*
X127224750Y-87089999D01*
X114475000Y-87089999D01*
X114475000Y-84420000D01*
X130164355Y-84420000D01*
X130184859Y-84588869D01*
X130184860Y-84588874D01*
X130245182Y-84747931D01*
X130292277Y-84816158D01*
X130341817Y-84887929D01*
X130447505Y-84981560D01*
X130469150Y-85000736D01*
X130619773Y-85079789D01*
X130619775Y-85079790D01*
X130784944Y-85120500D01*
X130955056Y-85120500D01*
X131120225Y-85079790D01*
X131199692Y-85038081D01*
X131270849Y-85000736D01*
X131270850Y-85000734D01*
X131270852Y-85000734D01*
X131398183Y-84887929D01*
X131494818Y-84747930D01*
X131555140Y-84588872D01*
X131575645Y-84420000D01*
X131555140Y-84251128D01*
X131535750Y-84200000D01*
X139494355Y-84200000D01*
X139514859Y-84368869D01*
X139514860Y-84368874D01*
X139575182Y-84527931D01*
X139617249Y-84588874D01*
X139671817Y-84667929D01*
X139762120Y-84747930D01*
X139799150Y-84780736D01*
X139949773Y-84859789D01*
X139949775Y-84859790D01*
X140114944Y-84900500D01*
X140285056Y-84900500D01*
X140450225Y-84859790D01*
X140533364Y-84816155D01*
X140533368Y-84816153D01*
X209859500Y-84816153D01*
X209859500Y-86073846D01*
X209890261Y-86228489D01*
X209890264Y-86228501D01*
X209950602Y-86374172D01*
X209950609Y-86374185D01*
X210038210Y-86505288D01*
X210038213Y-86505292D01*
X210149707Y-86616786D01*
X210149711Y-86616789D01*
X210280814Y-86704390D01*
X210280827Y-86704397D01*
X210426498Y-86764735D01*
X210426503Y-86764737D01*
X210581153Y-86795499D01*
X210581156Y-86795500D01*
X210581158Y-86795500D01*
X210738844Y-86795500D01*
X210738845Y-86795499D01*
X210893497Y-86764737D01*
X211039179Y-86704394D01*
X211170289Y-86616789D01*
X211281789Y-86505289D01*
X211369394Y-86374179D01*
X211429737Y-86228497D01*
X211460500Y-86073842D01*
X211460500Y-85358032D01*
X211480185Y-85290993D01*
X211532989Y-85245238D01*
X211602147Y-85235294D01*
X211665703Y-85264319D01*
X211672181Y-85270351D01*
X211767335Y-85365505D01*
X211887164Y-85434688D01*
X212020817Y-85470500D01*
X212020819Y-85470500D01*
X212159181Y-85470500D01*
X212159183Y-85470500D01*
X212292836Y-85434688D01*
X212412665Y-85365505D01*
X212510505Y-85267665D01*
X212579688Y-85147836D01*
X212615500Y-85014183D01*
X212615500Y-84875817D01*
X217344500Y-84875817D01*
X217344500Y-85014183D01*
X217372988Y-85120500D01*
X217380312Y-85147835D01*
X217380313Y-85147838D01*
X217449492Y-85267661D01*
X217449494Y-85267664D01*
X217449495Y-85267665D01*
X217547335Y-85365505D01*
X217667164Y-85434688D01*
X217800817Y-85470500D01*
X217800819Y-85470500D01*
X217939181Y-85470500D01*
X217939183Y-85470500D01*
X218072836Y-85434688D01*
X218192665Y-85365505D01*
X218287819Y-85270351D01*
X218349142Y-85236866D01*
X218418834Y-85241850D01*
X218474767Y-85283722D01*
X218499184Y-85349186D01*
X218499500Y-85358032D01*
X218499500Y-86073846D01*
X218530261Y-86228489D01*
X218530264Y-86228501D01*
X218590602Y-86374172D01*
X218590609Y-86374185D01*
X218678210Y-86505288D01*
X218678213Y-86505292D01*
X218789707Y-86616786D01*
X218789711Y-86616789D01*
X218920814Y-86704390D01*
X218920827Y-86704397D01*
X219066498Y-86764735D01*
X219066503Y-86764737D01*
X219221153Y-86795499D01*
X219221156Y-86795500D01*
X219221158Y-86795500D01*
X219378844Y-86795500D01*
X219378845Y-86795499D01*
X219533497Y-86764737D01*
X219679179Y-86704394D01*
X219810289Y-86616789D01*
X219921789Y-86505289D01*
X220009394Y-86374179D01*
X220069737Y-86228497D01*
X220100500Y-86073842D01*
X220100500Y-84816158D01*
X220100500Y-84816155D01*
X220100499Y-84816153D01*
X220086929Y-84747931D01*
X220069737Y-84661503D01*
X220053516Y-84622341D01*
X220009397Y-84515827D01*
X220009390Y-84515814D01*
X219921789Y-84384711D01*
X219921786Y-84384707D01*
X219810292Y-84273213D01*
X219810288Y-84273210D01*
X219679185Y-84185609D01*
X219679172Y-84185602D01*
X219533501Y-84125264D01*
X219533489Y-84125261D01*
X219378845Y-84094500D01*
X219378842Y-84094500D01*
X219221158Y-84094500D01*
X219221155Y-84094500D01*
X219066510Y-84125261D01*
X219066498Y-84125264D01*
X218920827Y-84185602D01*
X218920814Y-84185609D01*
X218789711Y-84273210D01*
X218789707Y-84273213D01*
X218678213Y-84384707D01*
X218678210Y-84384711D01*
X218590609Y-84515814D01*
X218590602Y-84515827D01*
X218535778Y-84648187D01*
X218491937Y-84702591D01*
X218425643Y-84724656D01*
X218357944Y-84707377D01*
X218313830Y-84662734D01*
X218290509Y-84622341D01*
X218290506Y-84622337D01*
X218290505Y-84622335D01*
X218192665Y-84524495D01*
X218192664Y-84524494D01*
X218192661Y-84524492D01*
X218072838Y-84455313D01*
X218072837Y-84455312D01*
X218072836Y-84455312D01*
X217939183Y-84419500D01*
X217800817Y-84419500D01*
X217667164Y-84455312D01*
X217667161Y-84455313D01*
X217547338Y-84524492D01*
X217547333Y-84524496D01*
X217449496Y-84622333D01*
X217449492Y-84622338D01*
X217380313Y-84742161D01*
X217380312Y-84742164D01*
X217344500Y-84875817D01*
X212615500Y-84875817D01*
X212579688Y-84742164D01*
X212536829Y-84667929D01*
X212510507Y-84622338D01*
X212510506Y-84622336D01*
X212510505Y-84622335D01*
X212412665Y-84524495D01*
X212412664Y-84524494D01*
X212412661Y-84524492D01*
X212292838Y-84455313D01*
X212292837Y-84455312D01*
X212292836Y-84455312D01*
X212159183Y-84419500D01*
X212020817Y-84419500D01*
X211887164Y-84455312D01*
X211887161Y-84455313D01*
X211767338Y-84524492D01*
X211767333Y-84524496D01*
X211669496Y-84622333D01*
X211669494Y-84622336D01*
X211646169Y-84662736D01*
X211595601Y-84710951D01*
X211526994Y-84724173D01*
X211462129Y-84698205D01*
X211424221Y-84648187D01*
X211369397Y-84515826D01*
X211369390Y-84515814D01*
X211281789Y-84384711D01*
X211281786Y-84384707D01*
X211170292Y-84273213D01*
X211170288Y-84273210D01*
X211039185Y-84185609D01*
X211039172Y-84185602D01*
X210893501Y-84125264D01*
X210893489Y-84125261D01*
X210738845Y-84094500D01*
X210738842Y-84094500D01*
X210581158Y-84094500D01*
X210581155Y-84094500D01*
X210426510Y-84125261D01*
X210426498Y-84125264D01*
X210280827Y-84185602D01*
X210280814Y-84185609D01*
X210149711Y-84273210D01*
X210149707Y-84273213D01*
X210038213Y-84384707D01*
X210038210Y-84384711D01*
X209950609Y-84515814D01*
X209950602Y-84515827D01*
X209890264Y-84661498D01*
X209890261Y-84661510D01*
X209859500Y-84816153D01*
X140533368Y-84816153D01*
X140600849Y-84780736D01*
X140600850Y-84780734D01*
X140600852Y-84780734D01*
X140728183Y-84667929D01*
X140824818Y-84527930D01*
X140885140Y-84368872D01*
X140905645Y-84200000D01*
X140885140Y-84031128D01*
X140824818Y-83872070D01*
X140728183Y-83732071D01*
X140600852Y-83619266D01*
X140600849Y-83619263D01*
X140450226Y-83540210D01*
X140285056Y-83499500D01*
X140114944Y-83499500D01*
X139949773Y-83540210D01*
X139799150Y-83619263D01*
X139671816Y-83732072D01*
X139575182Y-83872068D01*
X139514860Y-84031125D01*
X139514859Y-84031130D01*
X139494355Y-84200000D01*
X131535750Y-84200000D01*
X131494818Y-84092070D01*
X131398183Y-83952071D01*
X131270852Y-83839266D01*
X131270849Y-83839263D01*
X131120226Y-83760210D01*
X130955056Y-83719500D01*
X130784944Y-83719500D01*
X130619773Y-83760210D01*
X130469150Y-83839263D01*
X130341816Y-83952072D01*
X130245182Y-84092068D01*
X130184860Y-84251125D01*
X130184859Y-84251130D01*
X130164355Y-84420000D01*
X114475000Y-84420000D01*
X114475000Y-81249998D01*
X162390194Y-81249998D01*
X162390194Y-81250001D01*
X162409588Y-81521160D01*
X162409589Y-81521167D01*
X162459181Y-81749139D01*
X162467374Y-81786801D01*
X162529130Y-81952375D01*
X162562379Y-82041519D01*
X162692658Y-82280107D01*
X162692659Y-82280108D01*
X162692662Y-82280113D01*
X162855578Y-82497742D01*
X162855582Y-82497746D01*
X162855587Y-82497752D01*
X163047796Y-82689961D01*
X163047802Y-82689966D01*
X163047807Y-82689971D01*
X163265436Y-82852887D01*
X163265440Y-82852889D01*
X163265441Y-82852890D01*
X163504030Y-82983169D01*
X163504029Y-82983169D01*
X163504033Y-82983170D01*
X163504036Y-82983172D01*
X163758748Y-83078175D01*
X164024389Y-83135961D01*
X164276154Y-83153967D01*
X164295548Y-83155355D01*
X164295549Y-83155355D01*
X164295550Y-83155355D01*
X164313649Y-83154060D01*
X164566709Y-83135961D01*
X164832350Y-83078175D01*
X165087062Y-82983172D01*
X165087066Y-82983169D01*
X165087068Y-82983169D01*
X165206362Y-82918029D01*
X165325662Y-82852887D01*
X165543291Y-82689971D01*
X165735520Y-82497742D01*
X165898436Y-82280113D01*
X165963578Y-82160813D01*
X166028718Y-82041519D01*
X166028718Y-82041517D01*
X166028721Y-82041513D01*
X166123724Y-81786801D01*
X166181510Y-81521160D01*
X166200904Y-81250000D01*
X166200904Y-81249998D01*
X167390194Y-81249998D01*
X167390194Y-81250001D01*
X167409588Y-81521160D01*
X167409589Y-81521167D01*
X167459181Y-81749139D01*
X167467374Y-81786801D01*
X167529130Y-81952375D01*
X167562379Y-82041519D01*
X167692658Y-82280107D01*
X167692659Y-82280108D01*
X167692662Y-82280113D01*
X167855578Y-82497742D01*
X167855582Y-82497746D01*
X167855587Y-82497752D01*
X168047796Y-82689961D01*
X168047802Y-82689966D01*
X168047807Y-82689971D01*
X168265436Y-82852887D01*
X168265440Y-82852889D01*
X168265441Y-82852890D01*
X168504030Y-82983169D01*
X168504029Y-82983169D01*
X168504033Y-82983170D01*
X168504036Y-82983172D01*
X168758748Y-83078175D01*
X169024389Y-83135961D01*
X169276154Y-83153967D01*
X169295548Y-83155355D01*
X169295549Y-83155355D01*
X169295550Y-83155355D01*
X169313649Y-83154060D01*
X169566709Y-83135961D01*
X169832350Y-83078175D01*
X170087062Y-82983172D01*
X170087066Y-82983169D01*
X170087068Y-82983169D01*
X170206362Y-82918029D01*
X170325662Y-82852887D01*
X170543291Y-82689971D01*
X170735520Y-82497742D01*
X170898436Y-82280113D01*
X170963578Y-82160813D01*
X171028718Y-82041519D01*
X171028718Y-82041517D01*
X171028721Y-82041513D01*
X171123724Y-81786801D01*
X171181510Y-81521160D01*
X171200904Y-81250000D01*
X171200904Y-81249998D01*
X183900194Y-81249998D01*
X183900194Y-81250001D01*
X183919588Y-81521160D01*
X183919589Y-81521167D01*
X183969181Y-81749139D01*
X183977374Y-81786801D01*
X184039130Y-81952375D01*
X184072379Y-82041519D01*
X184202658Y-82280107D01*
X184202659Y-82280108D01*
X184202662Y-82280113D01*
X184365578Y-82497742D01*
X184365582Y-82497746D01*
X184365587Y-82497752D01*
X184557796Y-82689961D01*
X184557802Y-82689966D01*
X184557807Y-82689971D01*
X184775436Y-82852887D01*
X184775440Y-82852889D01*
X184775441Y-82852890D01*
X185014030Y-82983169D01*
X185014029Y-82983169D01*
X185014033Y-82983170D01*
X185014036Y-82983172D01*
X185268748Y-83078175D01*
X185534389Y-83135961D01*
X185786154Y-83153967D01*
X185805548Y-83155355D01*
X185805549Y-83155355D01*
X185805550Y-83155355D01*
X185823649Y-83154060D01*
X186076709Y-83135961D01*
X186342350Y-83078175D01*
X186597062Y-82983172D01*
X186597066Y-82983169D01*
X186597068Y-82983169D01*
X186716362Y-82918029D01*
X186835662Y-82852887D01*
X187053291Y-82689971D01*
X187245520Y-82497742D01*
X187408436Y-82280113D01*
X187473578Y-82160813D01*
X187538718Y-82041519D01*
X187538718Y-82041517D01*
X187538721Y-82041513D01*
X187633724Y-81786801D01*
X187691510Y-81521160D01*
X187710904Y-81250000D01*
X187710904Y-81249998D01*
X188900194Y-81249998D01*
X188900194Y-81250001D01*
X188919588Y-81521160D01*
X188919589Y-81521167D01*
X188969181Y-81749139D01*
X188977374Y-81786801D01*
X189039130Y-81952375D01*
X189072379Y-82041519D01*
X189202658Y-82280107D01*
X189202659Y-82280108D01*
X189202662Y-82280113D01*
X189365578Y-82497742D01*
X189365582Y-82497746D01*
X189365587Y-82497752D01*
X189557796Y-82689961D01*
X189557802Y-82689966D01*
X189557807Y-82689971D01*
X189775436Y-82852887D01*
X189775440Y-82852889D01*
X189775441Y-82852890D01*
X190014030Y-82983169D01*
X190014029Y-82983169D01*
X190014033Y-82983170D01*
X190014036Y-82983172D01*
X190268748Y-83078175D01*
X190534389Y-83135961D01*
X190786154Y-83153967D01*
X190805548Y-83155355D01*
X190805549Y-83155355D01*
X190805550Y-83155355D01*
X190823649Y-83154060D01*
X191076709Y-83135961D01*
X191342350Y-83078175D01*
X191597062Y-82983172D01*
X191597066Y-82983169D01*
X191597068Y-82983169D01*
X191716362Y-82918029D01*
X191835662Y-82852887D01*
X192053291Y-82689971D01*
X192245520Y-82497742D01*
X192408436Y-82280113D01*
X192473578Y-82160813D01*
X192538718Y-82041519D01*
X192538718Y-82041517D01*
X192538721Y-82041513D01*
X192633724Y-81786801D01*
X192691510Y-81521160D01*
X192710904Y-81250000D01*
X192691510Y-80978840D01*
X192649594Y-80786153D01*
X209859500Y-80786153D01*
X209859500Y-81743846D01*
X209890261Y-81898489D01*
X209890264Y-81898501D01*
X209950602Y-82044172D01*
X209950609Y-82044185D01*
X210038210Y-82175288D01*
X210038213Y-82175292D01*
X210149707Y-82286786D01*
X210149711Y-82286789D01*
X210280814Y-82374390D01*
X210280827Y-82374397D01*
X210426498Y-82434735D01*
X210426503Y-82434737D01*
X210581153Y-82465499D01*
X210581156Y-82465500D01*
X210581158Y-82465500D01*
X210738844Y-82465500D01*
X210738845Y-82465499D01*
X210893497Y-82434737D01*
X211039179Y-82374394D01*
X211170289Y-82286789D01*
X211281789Y-82175289D01*
X211369394Y-82044179D01*
X211429737Y-81898497D01*
X211460500Y-81743842D01*
X211460500Y-80786158D01*
X211460500Y-80786155D01*
X211460499Y-80786153D01*
X218499500Y-80786153D01*
X218499500Y-81743846D01*
X218530261Y-81898489D01*
X218530264Y-81898501D01*
X218590602Y-82044172D01*
X218590609Y-82044185D01*
X218678210Y-82175288D01*
X218678213Y-82175292D01*
X218789707Y-82286786D01*
X218789711Y-82286789D01*
X218920814Y-82374390D01*
X218920827Y-82374397D01*
X219066498Y-82434735D01*
X219066503Y-82434737D01*
X219221153Y-82465499D01*
X219221156Y-82465500D01*
X219221158Y-82465500D01*
X219378844Y-82465500D01*
X219378845Y-82465499D01*
X219533497Y-82434737D01*
X219679179Y-82374394D01*
X219810289Y-82286789D01*
X219867079Y-82229999D01*
X226994750Y-82229999D01*
X226994750Y-82230000D01*
X227013670Y-82373708D01*
X227013671Y-82373712D01*
X227069137Y-82507622D01*
X227069138Y-82507624D01*
X227069139Y-82507625D01*
X227157379Y-82622621D01*
X227272375Y-82710861D01*
X227406291Y-82766330D01*
X227533280Y-82783048D01*
X227549999Y-82785250D01*
X227550000Y-82785250D01*
X227550001Y-82785250D01*
X227564977Y-82783278D01*
X227693709Y-82766330D01*
X227827625Y-82710861D01*
X227942621Y-82622621D01*
X228030861Y-82507625D01*
X228086330Y-82373709D01*
X228105250Y-82230000D01*
X228086330Y-82086291D01*
X228030861Y-81952375D01*
X227942621Y-81837379D01*
X227827625Y-81749139D01*
X227827624Y-81749138D01*
X227827622Y-81749137D01*
X227693712Y-81693671D01*
X227693710Y-81693670D01*
X227693709Y-81693670D01*
X227621854Y-81684210D01*
X227550001Y-81674750D01*
X227549999Y-81674750D01*
X227406291Y-81693670D01*
X227406287Y-81693671D01*
X227272377Y-81749137D01*
X227157379Y-81837379D01*
X227069137Y-81952377D01*
X227013671Y-82086287D01*
X227013670Y-82086291D01*
X226994750Y-82229999D01*
X219867079Y-82229999D01*
X219921789Y-82175289D01*
X220009394Y-82044179D01*
X220069737Y-81898497D01*
X220100500Y-81743842D01*
X220100500Y-81079999D01*
X232254750Y-81079999D01*
X232254750Y-81080000D01*
X232273670Y-81223708D01*
X232273671Y-81223712D01*
X232329137Y-81357622D01*
X232329138Y-81357624D01*
X232329139Y-81357625D01*
X232417379Y-81472621D01*
X232532375Y-81560861D01*
X232666291Y-81616330D01*
X232793280Y-81633048D01*
X232809999Y-81635250D01*
X232810000Y-81635250D01*
X232810001Y-81635250D01*
X232824977Y-81633278D01*
X232953709Y-81616330D01*
X233087625Y-81560861D01*
X233202621Y-81472621D01*
X233290861Y-81357625D01*
X233346330Y-81223709D01*
X233365250Y-81080000D01*
X233364430Y-81073775D01*
X233363048Y-81063280D01*
X233346330Y-80936291D01*
X233290861Y-80802375D01*
X233202621Y-80687379D01*
X233087625Y-80599139D01*
X233087624Y-80599138D01*
X233087622Y-80599137D01*
X232953712Y-80543671D01*
X232953710Y-80543670D01*
X232953709Y-80543670D01*
X232881854Y-80534210D01*
X232810001Y-80524750D01*
X232809999Y-80524750D01*
X232666291Y-80543670D01*
X232666287Y-80543671D01*
X232532377Y-80599137D01*
X232417379Y-80687379D01*
X232329137Y-80802377D01*
X232273671Y-80936287D01*
X232273670Y-80936291D01*
X232254750Y-81079999D01*
X220100500Y-81079999D01*
X220100500Y-80786158D01*
X220100500Y-80786155D01*
X220100499Y-80786153D01*
X220085987Y-80713199D01*
X220069737Y-80631503D01*
X220069735Y-80631498D01*
X220009397Y-80485827D01*
X220009390Y-80485814D01*
X219921789Y-80354711D01*
X219921786Y-80354707D01*
X219810292Y-80243213D01*
X219810288Y-80243210D01*
X219679185Y-80155609D01*
X219679172Y-80155602D01*
X219533501Y-80095264D01*
X219533489Y-80095261D01*
X219378845Y-80064500D01*
X219378842Y-80064500D01*
X219221158Y-80064500D01*
X219221155Y-80064500D01*
X219066510Y-80095261D01*
X219066498Y-80095264D01*
X218920827Y-80155602D01*
X218920814Y-80155609D01*
X218789711Y-80243210D01*
X218789707Y-80243213D01*
X218678213Y-80354707D01*
X218678210Y-80354711D01*
X218590609Y-80485814D01*
X218590602Y-80485827D01*
X218530264Y-80631498D01*
X218530261Y-80631510D01*
X218499500Y-80786153D01*
X211460499Y-80786153D01*
X211445987Y-80713199D01*
X211429737Y-80631503D01*
X211429735Y-80631498D01*
X211369397Y-80485827D01*
X211369390Y-80485814D01*
X211281789Y-80354711D01*
X211281786Y-80354707D01*
X211170292Y-80243213D01*
X211170288Y-80243210D01*
X211039185Y-80155609D01*
X211039172Y-80155602D01*
X210893501Y-80095264D01*
X210893489Y-80095261D01*
X210738845Y-80064500D01*
X210738842Y-80064500D01*
X210581158Y-80064500D01*
X210581155Y-80064500D01*
X210426510Y-80095261D01*
X210426498Y-80095264D01*
X210280827Y-80155602D01*
X210280814Y-80155609D01*
X210149711Y-80243210D01*
X210149707Y-80243213D01*
X210038213Y-80354707D01*
X210038210Y-80354711D01*
X209950609Y-80485814D01*
X209950602Y-80485827D01*
X209890264Y-80631498D01*
X209890261Y-80631510D01*
X209859500Y-80786153D01*
X192649594Y-80786153D01*
X192633724Y-80713199D01*
X192538721Y-80458487D01*
X192538719Y-80458484D01*
X192538718Y-80458480D01*
X192408439Y-80219892D01*
X192408438Y-80219891D01*
X192408436Y-80219887D01*
X192245520Y-80002258D01*
X192245515Y-80002253D01*
X192245510Y-80002247D01*
X192053301Y-79810038D01*
X192053295Y-79810033D01*
X192053291Y-79810029D01*
X191835662Y-79647113D01*
X191835657Y-79647110D01*
X191835656Y-79647109D01*
X191597067Y-79516830D01*
X191597068Y-79516830D01*
X191547469Y-79498330D01*
X191342350Y-79421825D01*
X191342343Y-79421823D01*
X191342342Y-79421823D01*
X191076716Y-79364040D01*
X191076709Y-79364039D01*
X190805550Y-79344645D01*
X190805548Y-79344645D01*
X190534388Y-79364039D01*
X190534381Y-79364040D01*
X190268755Y-79421823D01*
X190268751Y-79421824D01*
X190268748Y-79421825D01*
X190141392Y-79469326D01*
X190014029Y-79516830D01*
X189775441Y-79647109D01*
X189775440Y-79647110D01*
X189557808Y-79810028D01*
X189557796Y-79810038D01*
X189365587Y-80002247D01*
X189365577Y-80002259D01*
X189202659Y-80219891D01*
X189202658Y-80219892D01*
X189072379Y-80458480D01*
X189047662Y-80524750D01*
X188977374Y-80713199D01*
X188977373Y-80713202D01*
X188977372Y-80713206D01*
X188919589Y-80978832D01*
X188919588Y-80978839D01*
X188900194Y-81249998D01*
X187710904Y-81249998D01*
X187691510Y-80978840D01*
X187633724Y-80713199D01*
X187538721Y-80458487D01*
X187538719Y-80458484D01*
X187538718Y-80458480D01*
X187408439Y-80219892D01*
X187408438Y-80219891D01*
X187408436Y-80219887D01*
X187245520Y-80002258D01*
X187245515Y-80002253D01*
X187245510Y-80002247D01*
X187053301Y-79810038D01*
X187053295Y-79810033D01*
X187053291Y-79810029D01*
X186835662Y-79647113D01*
X186835657Y-79647110D01*
X186835656Y-79647109D01*
X186597067Y-79516830D01*
X186597068Y-79516830D01*
X186547469Y-79498330D01*
X186342350Y-79421825D01*
X186342343Y-79421823D01*
X186342342Y-79421823D01*
X186076716Y-79364040D01*
X186076709Y-79364039D01*
X185805550Y-79344645D01*
X185805548Y-79344645D01*
X185534388Y-79364039D01*
X185534381Y-79364040D01*
X185268755Y-79421823D01*
X185268751Y-79421824D01*
X185268748Y-79421825D01*
X185141392Y-79469326D01*
X185014029Y-79516830D01*
X184775441Y-79647109D01*
X184775440Y-79647110D01*
X184557808Y-79810028D01*
X184557796Y-79810038D01*
X184365587Y-80002247D01*
X184365577Y-80002259D01*
X184202659Y-80219891D01*
X184202658Y-80219892D01*
X184072379Y-80458480D01*
X184047662Y-80524750D01*
X183977374Y-80713199D01*
X183977373Y-80713202D01*
X183977372Y-80713206D01*
X183919589Y-80978832D01*
X183919588Y-80978839D01*
X183900194Y-81249998D01*
X171200904Y-81249998D01*
X171181510Y-80978840D01*
X171123724Y-80713199D01*
X171028721Y-80458487D01*
X171028719Y-80458484D01*
X171028718Y-80458480D01*
X170898439Y-80219892D01*
X170898438Y-80219891D01*
X170898436Y-80219887D01*
X170735520Y-80002258D01*
X170735515Y-80002253D01*
X170735510Y-80002247D01*
X170543301Y-79810038D01*
X170543295Y-79810033D01*
X170543291Y-79810029D01*
X170325662Y-79647113D01*
X170325657Y-79647110D01*
X170325656Y-79647109D01*
X170087067Y-79516830D01*
X170087068Y-79516830D01*
X170037469Y-79498330D01*
X169832350Y-79421825D01*
X169832343Y-79421823D01*
X169832342Y-79421823D01*
X169566716Y-79364040D01*
X169566709Y-79364039D01*
X169295550Y-79344645D01*
X169295548Y-79344645D01*
X169024388Y-79364039D01*
X169024381Y-79364040D01*
X168758755Y-79421823D01*
X168758751Y-79421824D01*
X168758748Y-79421825D01*
X168631392Y-79469326D01*
X168504029Y-79516830D01*
X168265441Y-79647109D01*
X168265440Y-79647110D01*
X168047808Y-79810028D01*
X168047796Y-79810038D01*
X167855587Y-80002247D01*
X167855577Y-80002259D01*
X167692659Y-80219891D01*
X167692658Y-80219892D01*
X167562379Y-80458480D01*
X167537662Y-80524750D01*
X167467374Y-80713199D01*
X167467373Y-80713202D01*
X167467372Y-80713206D01*
X167409589Y-80978832D01*
X167409588Y-80978839D01*
X167390194Y-81249998D01*
X166200904Y-81249998D01*
X166181510Y-80978840D01*
X166123724Y-80713199D01*
X166028721Y-80458487D01*
X166028719Y-80458484D01*
X166028718Y-80458480D01*
X165898439Y-80219892D01*
X165898438Y-80219891D01*
X165898436Y-80219887D01*
X165735520Y-80002258D01*
X165735515Y-80002253D01*
X165735510Y-80002247D01*
X165543301Y-79810038D01*
X165543295Y-79810033D01*
X165543291Y-79810029D01*
X165325662Y-79647113D01*
X165325657Y-79647110D01*
X165325656Y-79647109D01*
X165087067Y-79516830D01*
X165087068Y-79516830D01*
X165037469Y-79498330D01*
X164832350Y-79421825D01*
X164832343Y-79421823D01*
X164832342Y-79421823D01*
X164566716Y-79364040D01*
X164566709Y-79364039D01*
X164295550Y-79344645D01*
X164295548Y-79344645D01*
X164024388Y-79364039D01*
X164024381Y-79364040D01*
X163758755Y-79421823D01*
X163758751Y-79421824D01*
X163758748Y-79421825D01*
X163631392Y-79469326D01*
X163504029Y-79516830D01*
X163265441Y-79647109D01*
X163265440Y-79647110D01*
X163047808Y-79810028D01*
X163047796Y-79810038D01*
X162855587Y-80002247D01*
X162855577Y-80002259D01*
X162692659Y-80219891D01*
X162692658Y-80219892D01*
X162562379Y-80458480D01*
X162537662Y-80524750D01*
X162467374Y-80713199D01*
X162467373Y-80713202D01*
X162467372Y-80713206D01*
X162409589Y-80978832D01*
X162409588Y-80978839D01*
X162390194Y-81249998D01*
X114475000Y-81249998D01*
X114475000Y-81235943D01*
X114475014Y-81234073D01*
X114475170Y-81223708D01*
X114477236Y-81086833D01*
X114478123Y-81073795D01*
X114513729Y-80780553D01*
X114516422Y-80765859D01*
X114586887Y-80479970D01*
X114591341Y-80465681D01*
X114594072Y-80458480D01*
X114695746Y-80190388D01*
X114701887Y-80176745D01*
X114838715Y-79916042D01*
X114846456Y-79903235D01*
X115013711Y-79660924D01*
X115022934Y-79649152D01*
X115218189Y-79428753D01*
X115228753Y-79418189D01*
X115449152Y-79222934D01*
X115460924Y-79213711D01*
X115703235Y-79046456D01*
X115716042Y-79038715D01*
X115976745Y-78901887D01*
X115990388Y-78895746D01*
X116265687Y-78791338D01*
X116279970Y-78786887D01*
X116565859Y-78716422D01*
X116580553Y-78713729D01*
X116873795Y-78678123D01*
X116886833Y-78677236D01*
X117032704Y-78675034D01*
X117034073Y-78675014D01*
X117035943Y-78675000D01*
X239914057Y-78675000D01*
X239915927Y-78675014D01*
G37*
%TD.AperFunction*%
%TD*%
M02*
