%TF.GenerationSoftware,KiCad,Pcbnew,8.0.5*%
%TF.CreationDate,2024-10-21T15:52:06-04:00*%
%TF.ProjectId,emberone,656d6265-726f-46e6-952e-6b696361645f,rev?*%
%TF.SameCoordinates,Original*%
%TF.FileFunction,Copper,L4,Bot*%
%TF.FilePolarity,Positive*%
%FSLAX46Y46*%
G04 Gerber Fmt 4.6, Leading zero omitted, Abs format (unit mm)*
G04 Created by KiCad (PCBNEW 8.0.5) date 2024-10-21 15:52:06*
%MOMM*%
%LPD*%
G01*
G04 APERTURE LIST*
%TA.AperFunction,ComponentPad*%
%ADD10C,1.300000*%
%TD*%
%TA.AperFunction,ComponentPad*%
%ADD11C,3.200000*%
%TD*%
%TA.AperFunction,ViaPad*%
%ADD12C,0.800000*%
%TD*%
%TA.AperFunction,ViaPad*%
%ADD13C,0.500000*%
%TD*%
%TA.AperFunction,ViaPad*%
%ADD14C,1.000000*%
%TD*%
%TA.AperFunction,Conductor*%
%ADD15C,0.200000*%
%TD*%
G04 APERTURE END LIST*
D10*
%TO.P,J3,1,Pin_1*%
%TO.N,GND*%
X177530000Y-53040000D03*
%TO.P,J3,2,Pin_2*%
X177530000Y-51040000D03*
%TO.P,J3,3,Pin_3*%
%TO.N,/ASICs/SDA*%
X175530000Y-53040000D03*
%TO.P,J3,4,Pin_4*%
%TO.N,/ASICs/SCL*%
X175530000Y-51040000D03*
%TO.P,J3,5,Pin_5*%
%TO.N,/ASICs/PLUG*%
X173530000Y-53040000D03*
%TO.P,J3,6,Pin_6*%
%TO.N,/ASICs/A2*%
X173530000Y-51040000D03*
%TO.P,J3,7,Pin_7*%
%TO.N,/ASICs/A1*%
X171530000Y-53040000D03*
%TO.P,J3,8,Pin_8*%
%TO.N,/ASICs/A0*%
X171530000Y-51040000D03*
%TO.P,J3,9,Pin_9*%
%TO.N,GND*%
X169530000Y-53040000D03*
%TO.P,J3,10,Pin_10*%
X169530000Y-51040000D03*
%TO.P,J3,11,Pin_11*%
%TO.N,/ASICs/TXD*%
X167530000Y-53040000D03*
%TO.P,J3,12,Pin_12*%
%TO.N,/ASICs/RXD*%
X167530000Y-51040000D03*
%TO.P,J3,13,Pin_13*%
%TO.N,GND*%
X165530000Y-53040000D03*
%TO.P,J3,14,Pin_14*%
X165530000Y-51040000D03*
%TO.P,J3,15,Pin_15*%
%TO.N,/ASICs/RST*%
X163530000Y-53040000D03*
%TO.P,J3,16,Pin_16*%
%TO.N,/ASICs/3V3*%
X163530000Y-51040000D03*
%TO.P,J3,17,Pin_17*%
%TO.N,unconnected-(J3-Pin_17-Pad17)*%
X161530000Y-53040000D03*
%TO.P,J3,18,Pin_18*%
%TO.N,unconnected-(J3-Pin_18-Pad18)*%
X161530000Y-51040000D03*
%TD*%
D11*
%TO.P,J4,1,Pin_1*%
%TO.N,GND*%
X146083949Y-136993949D03*
X146083949Y-129993949D03*
X141083949Y-136993949D03*
X141083949Y-129993949D03*
%TD*%
%TO.P,J1,1,Pin_1*%
%TO.N,/Power/VIN*%
X122543949Y-50963949D03*
X122543949Y-57963949D03*
X127543949Y-50963949D03*
X127543949Y-57963949D03*
%TD*%
%TO.P,J5,1,Pin_1*%
%TO.N,/Power/VOUT*%
X127520000Y-136900000D03*
X127520000Y-129900000D03*
X122520000Y-136900000D03*
X122520000Y-129900000D03*
%TD*%
%TO.P,J2,1,Pin_1*%
%TO.N,GND*%
X144053949Y-50963949D03*
X144053949Y-57963949D03*
X149053949Y-50963949D03*
X149053949Y-57963949D03*
%TD*%
D12*
%TO.N,GND*%
X115960000Y-65710000D03*
X116200000Y-56230000D03*
X110340000Y-62340000D03*
X179820000Y-82860000D03*
X173650000Y-81260000D03*
X174960000Y-78170000D03*
X177191600Y-74370000D03*
X177191600Y-72230000D03*
X175460000Y-66640000D03*
X156680000Y-72500000D03*
X155640000Y-68540000D03*
X157550000Y-65190000D03*
X169110000Y-60700000D03*
X164030000Y-58100000D03*
%TO.N,/ASICs/3V3*%
X112250000Y-62330000D03*
X114710000Y-65710000D03*
X179370000Y-77350000D03*
X181040000Y-79340000D03*
D13*
%TO.N,/ASICs/SDA*%
X173430753Y-78123697D03*
%TO.N,/ASICs/SCL*%
X173500000Y-78770000D03*
%TO.N,/ASICs/SDA*%
X111990000Y-65670000D03*
%TO.N,/ASICs/SCL*%
X112980000Y-65670000D03*
D14*
%TO.N,/Power/VOUT*%
X107190000Y-120490000D03*
X107190000Y-121860000D03*
X107190000Y-123220000D03*
X105600000Y-124610000D03*
X107190000Y-124610000D03*
X105600000Y-123220000D03*
X105600000Y-121860000D03*
X105600000Y-120490000D03*
X178310000Y-114950000D03*
X178310000Y-116540000D03*
X185440000Y-114980000D03*
X186830000Y-114980000D03*
X186830000Y-116570000D03*
X185440000Y-116570000D03*
D13*
%TO.N,Net-(D2-A)*%
X175700000Y-61280000D03*
%TO.N,Net-(D1-A)*%
X162493471Y-68033950D03*
X169350000Y-73140000D03*
%TO.N,Net-(Q3-G)*%
X160440000Y-89750000D03*
X167870000Y-66360000D03*
%TO.N,/Power/VIN_M*%
X166348951Y-63738951D03*
%TO.N,/Power/SW2*%
X166210000Y-95110000D03*
X170720000Y-66700000D03*
%TO.N,/Power/SW1*%
X134220000Y-99030000D03*
X161835157Y-67985157D03*
%TO.N,GND*%
X168950000Y-80150000D03*
%TO.N,/Power/OUT0*%
X181640000Y-80970000D03*
X135700000Y-127130000D03*
%TO.N,Net-(Q2-G)*%
X133910000Y-102340000D03*
X163140000Y-68533949D03*
%TO.N,Net-(Q4-G)*%
X160600000Y-102810000D03*
X171990000Y-68790000D03*
%TO.N,GND*%
X165450000Y-68680000D03*
X166588951Y-68683949D03*
X167660000Y-68680000D03*
X165450000Y-70820000D03*
X166588951Y-70823949D03*
X167660000Y-70820000D03*
X165460000Y-69780000D03*
X167670000Y-69780000D03*
X166598951Y-69783949D03*
X145900000Y-104480000D03*
X143350000Y-104600000D03*
X162820000Y-69530000D03*
X172780000Y-69550000D03*
D14*
%TO.N,/Power/VIN_M*%
X127963949Y-86803949D03*
X153440000Y-94770000D03*
X129353949Y-85213949D03*
X125233949Y-85213949D03*
X126603949Y-85213949D03*
X136793949Y-94103949D03*
X129353949Y-86803949D03*
X125233949Y-86803949D03*
X136793949Y-92743949D03*
X135203949Y-91373949D03*
X127963949Y-85213949D03*
X126603949Y-86803949D03*
X151850000Y-90650000D03*
X151850000Y-94770000D03*
X135203949Y-94103949D03*
X136793949Y-91373949D03*
X153440000Y-93380000D03*
X153440000Y-92020000D03*
X151850000Y-93380000D03*
X135200000Y-90010000D03*
X153440000Y-90650000D03*
X135203949Y-92743949D03*
X136790000Y-90010000D03*
X151850000Y-92020000D03*
D13*
%TO.N,Net-(U1-COMP1)*%
X167850000Y-73580000D03*
X165348951Y-75603951D03*
%TO.N,Net-(D2-A)*%
X170540000Y-73700000D03*
X171631208Y-68090000D03*
D14*
%TO.N,/Power/VOUT*%
X162310000Y-122120000D03*
X108710000Y-120480000D03*
X108710000Y-121850000D03*
X162310000Y-120730000D03*
X108710000Y-123210000D03*
X182580000Y-116530000D03*
X127630000Y-121450000D03*
X183970000Y-116530000D03*
X127630000Y-120060000D03*
X126040000Y-121450000D03*
X181220000Y-114940000D03*
X183970000Y-114940000D03*
X181220000Y-116530000D03*
X126040000Y-120060000D03*
X179850000Y-114940000D03*
X104080000Y-124630000D03*
X108710000Y-124600000D03*
X160720000Y-122120000D03*
X104080000Y-123240000D03*
X179850000Y-116530000D03*
X104080000Y-121880000D03*
X160720000Y-120730000D03*
X182580000Y-114940000D03*
X104080000Y-120510000D03*
D13*
%TO.N,Net-(Q1-G)*%
X136010000Y-96760000D03*
X161240000Y-66530000D03*
%TO.N,/Power/LOOP1*%
X162770000Y-70530000D03*
X134540000Y-103610000D03*
%TO.N,/Power/LOOP2*%
X159840000Y-104870000D03*
X171590000Y-70060000D03*
%TD*%
D15*
%TO.N,GND*%
X163280000Y-96670000D02*
X159980000Y-99970000D01*
X163280000Y-69990000D02*
X163280000Y-96670000D01*
X162820000Y-69530000D02*
X163280000Y-69990000D01*
X159980000Y-99970000D02*
X147980000Y-99970000D01*
X147980000Y-99970000D02*
X143350000Y-104600000D01*
%TO.N,/Power/LOOP1*%
X159781600Y-99668400D02*
X138481600Y-99668400D01*
X162770000Y-70530000D02*
X162950000Y-70710000D01*
X138481600Y-99668400D02*
X134540000Y-103610000D01*
X162950000Y-70710000D02*
X162950000Y-96500000D01*
X162950000Y-96500000D02*
X159781600Y-99668400D01*
%TO.N,GND*%
X146820000Y-105400000D02*
X145900000Y-104480000D01*
X172780000Y-69550000D02*
X172120000Y-70210000D01*
X172120000Y-93297107D02*
X160017107Y-105400000D01*
X172120000Y-70210000D02*
X172120000Y-93297107D01*
X160017107Y-105400000D02*
X146820000Y-105400000D01*
%TO.N,/ASICs/SCL*%
X153483474Y-56440000D02*
X171580000Y-56440000D01*
X174540000Y-53480000D02*
X174540000Y-52030000D01*
X143123474Y-66800000D02*
X153483474Y-56440000D01*
X171580000Y-56440000D02*
X174540000Y-53480000D01*
X112980000Y-65670000D02*
X114110000Y-66800000D01*
X114110000Y-66800000D02*
X143123474Y-66800000D01*
X174540000Y-52030000D02*
X175530000Y-51040000D01*
%TO.N,/ASICs/SDA*%
X111990000Y-65670000D02*
X113421600Y-67101600D01*
X171828400Y-56741600D02*
X175530000Y-53040000D01*
X113421600Y-67101600D02*
X143248400Y-67101600D01*
X143248400Y-67101600D02*
X153608400Y-56741600D01*
X153608400Y-56741600D02*
X171828400Y-56741600D01*
%TO.N,/ASICs/SCL*%
X173500000Y-78770000D02*
X176590000Y-75680000D01*
X176590000Y-75680000D02*
X176590000Y-52450000D01*
X176590000Y-52450000D02*
X175530000Y-51390000D01*
X175530000Y-51390000D02*
X175530000Y-51040000D01*
%TO.N,/ASICs/SDA*%
X176200000Y-53710000D02*
X175530000Y-53040000D01*
X173430753Y-78123697D02*
X176200000Y-75354450D01*
X176200000Y-75354450D02*
X176200000Y-53710000D01*
%TO.N,/Power/SW2*%
X170030000Y-92460000D02*
X170030000Y-67390000D01*
X166210000Y-95110000D02*
X167380000Y-95110000D01*
X167380000Y-95110000D02*
X170030000Y-92460000D01*
X170030000Y-67390000D02*
X170720000Y-66700000D01*
%TO.N,Net-(D2-A)*%
X175700000Y-61280000D02*
X175700000Y-64021208D01*
X175700000Y-64021208D02*
X171631208Y-68090000D01*
%TO.N,Net-(D1-A)*%
X169290000Y-73080000D02*
X164360000Y-73080000D01*
X169350000Y-73140000D02*
X169290000Y-73080000D01*
X164150000Y-72870000D02*
X164150000Y-68836842D01*
X164360000Y-73080000D02*
X164150000Y-72870000D01*
X164150000Y-68836842D02*
X163347108Y-68033950D01*
X163347108Y-68033950D02*
X162493471Y-68033950D01*
%TO.N,Net-(D2-A)*%
X170540000Y-73700000D02*
X170710000Y-73530000D01*
X170710000Y-73530000D02*
X170710000Y-69011208D01*
X170710000Y-69011208D02*
X171631208Y-68090000D01*
%TO.N,Net-(Q3-G)*%
X161010000Y-66030000D02*
X160440000Y-66600000D01*
X167870000Y-66360000D02*
X167540000Y-66030000D01*
X160440000Y-66600000D02*
X160440000Y-89750000D01*
X167540000Y-66030000D02*
X161010000Y-66030000D01*
%TO.N,/Power/VIN_M*%
X159060000Y-66030000D02*
X159060000Y-90520000D01*
X161351049Y-63738951D02*
X159060000Y-66030000D01*
X156440000Y-93140000D02*
X155813949Y-92513949D01*
X166348951Y-63738951D02*
X161351049Y-63738951D01*
X159060000Y-90520000D02*
X156440000Y-93140000D01*
X155813949Y-92513949D02*
X153383949Y-92513949D01*
%TO.N,Net-(Q4-G)*%
X171990000Y-68790000D02*
X171080000Y-69700000D01*
X171080000Y-69700000D02*
X171080000Y-92330000D01*
X171080000Y-92330000D02*
X160600000Y-102810000D01*
%TO.N,/Power/LOOP2*%
X171590000Y-70060000D02*
X171630000Y-70100000D01*
X171630000Y-70100000D02*
X171630000Y-93080000D01*
X171630000Y-93080000D02*
X159840000Y-104870000D01*
%TO.N,/Power/SW1*%
X135260000Y-97990000D02*
X134220000Y-99030000D01*
X159160000Y-97990000D02*
X135260000Y-97990000D01*
X161835157Y-67985157D02*
X161835157Y-95314843D01*
X161835157Y-95314843D02*
X159160000Y-97990000D01*
%TO.N,Net-(Q2-G)*%
X163140000Y-68533949D02*
X162786051Y-68533949D01*
X136890000Y-99360000D02*
X133910000Y-102340000D01*
X162260000Y-69060000D02*
X162260000Y-96240000D01*
X162260000Y-96240000D02*
X159140000Y-99360000D01*
X159140000Y-99360000D02*
X136890000Y-99360000D01*
X162786051Y-68533949D02*
X162260000Y-69060000D01*
%TO.N,/Power/OUT0*%
X190150000Y-126010000D02*
X190150000Y-89480000D01*
X190150000Y-89480000D02*
X181640000Y-80970000D01*
X135700000Y-127130000D02*
X189030000Y-127130000D01*
X189030000Y-127130000D02*
X190150000Y-126010000D01*
%TO.N,Net-(Q1-G)*%
X136010000Y-96760000D02*
X136601737Y-97351737D01*
X136601737Y-97351737D02*
X158928263Y-97351737D01*
X161240000Y-95040000D02*
X161240000Y-66530000D01*
X158928263Y-97351737D02*
X161240000Y-95040000D01*
%TO.N,Net-(U1-COMP1)*%
X167850000Y-73580000D02*
X165826049Y-75603951D01*
X165826049Y-75603951D02*
X165348951Y-75603951D01*
%TD*%
%TA.AperFunction,Conductor*%
%TO.N,/Power/VOUT*%
G36*
X187881778Y-113815628D02*
G01*
X187927564Y-113868405D01*
X187938799Y-113920397D01*
X187899626Y-125652578D01*
X187879718Y-125719551D01*
X187826762Y-125765130D01*
X187775883Y-125776164D01*
X130703948Y-125893949D01*
X130613925Y-138503544D01*
X130593762Y-138570441D01*
X130540633Y-138615818D01*
X130489899Y-138626659D01*
X119179780Y-138623978D01*
X119112745Y-138604278D01*
X119067002Y-138551463D01*
X119055823Y-138498134D01*
X119244224Y-125854449D01*
X119244222Y-125854449D01*
X119244223Y-125854448D01*
X103279001Y-126022631D01*
X103211758Y-126003654D01*
X103165449Y-125951335D01*
X103153695Y-125898890D01*
X103129467Y-113970088D01*
X103149016Y-113903009D01*
X103201727Y-113857146D01*
X103253390Y-113845836D01*
X187814728Y-113795983D01*
X187881778Y-113815628D01*
G37*
%TD.AperFunction*%
%TD*%
%TA.AperFunction,Conductor*%
%TO.N,/Power/VIN_M*%
G36*
X141707670Y-83679961D02*
G01*
X141750914Y-83687827D01*
X159124626Y-90190093D01*
X159180512Y-90232027D01*
X159204856Y-90297519D01*
X159205161Y-90306685D01*
X159184406Y-95910449D01*
X159164473Y-95977415D01*
X159111500Y-96022974D01*
X159060448Y-96033990D01*
X136250421Y-96041620D01*
X136209428Y-96034662D01*
X136178061Y-96023687D01*
X136178058Y-96023686D01*
X136010003Y-96004751D01*
X136009997Y-96004751D01*
X135841946Y-96023685D01*
X135841936Y-96023688D01*
X135810110Y-96034824D01*
X135769199Y-96041782D01*
X129418537Y-96043907D01*
X129351491Y-96024245D01*
X129305719Y-95971456D01*
X129294497Y-95919361D01*
X129294537Y-95910449D01*
X129327973Y-88313791D01*
X129327973Y-88313790D01*
X124265484Y-88319849D01*
X124198421Y-88300245D01*
X124152603Y-88247495D01*
X124141343Y-88194521D01*
X124188684Y-83772882D01*
X124209085Y-83706058D01*
X124262376Y-83660871D01*
X124312888Y-83650210D01*
X141707670Y-83679961D01*
G37*
%TD.AperFunction*%
%TD*%
M02*
