%TF.GenerationSoftware,KiCad,Pcbnew,9.0.0*%
%TF.CreationDate,2025-03-15T22:01:35-04:00*%
%TF.ProjectId,emberone,656d6265-726f-46e6-952e-6b696361645f,rev?*%
%TF.SameCoordinates,Original*%
%TF.FileFunction,Legend,Top*%
%TF.FilePolarity,Positive*%
%FSLAX46Y46*%
G04 Gerber Fmt 4.6, Leading zero omitted, Abs format (unit mm)*
G04 Created by KiCad (PCBNEW 9.0.0) date 2025-03-15 22:01:35*
%MOMM*%
%LPD*%
G01*
G04 APERTURE LIST*
%ADD10C,0.400000*%
%ADD11C,0.350000*%
%ADD12C,0.150000*%
%ADD13C,0.120000*%
%ADD14C,0.152400*%
%ADD15C,0.350689*%
%ADD16C,0.471096*%
%ADD17C,0.200000*%
%ADD18C,0.264009*%
%ADD19C,0.127000*%
%ADD20C,0.177800*%
G04 APERTURE END LIST*
D10*
X168560000Y-92690000D02*
G75*
G02*
X165060000Y-92690000I-1750000J0D01*
G01*
X165060000Y-92690000D02*
G75*
G02*
X168560000Y-92690000I1750000J0D01*
G01*
X197028700Y-92740000D02*
G75*
G02*
X193528700Y-92740000I-1750000J0D01*
G01*
X193528700Y-92740000D02*
G75*
G02*
X197028700Y-92740000I1750000J0D01*
G01*
X178773809Y-83284662D02*
X177630952Y-83284662D01*
X178202380Y-83284662D02*
X178202380Y-81284662D01*
X178202380Y-81284662D02*
X178011904Y-81570376D01*
X178011904Y-81570376D02*
X177821428Y-81760852D01*
X177821428Y-81760852D02*
X177630952Y-81856090D01*
X180011904Y-81284662D02*
X180202381Y-81284662D01*
X180202381Y-81284662D02*
X180392857Y-81379900D01*
X180392857Y-81379900D02*
X180488095Y-81475138D01*
X180488095Y-81475138D02*
X180583333Y-81665614D01*
X180583333Y-81665614D02*
X180678571Y-82046566D01*
X180678571Y-82046566D02*
X180678571Y-82522757D01*
X180678571Y-82522757D02*
X180583333Y-82903709D01*
X180583333Y-82903709D02*
X180488095Y-83094185D01*
X180488095Y-83094185D02*
X180392857Y-83189424D01*
X180392857Y-83189424D02*
X180202381Y-83284662D01*
X180202381Y-83284662D02*
X180011904Y-83284662D01*
X180011904Y-83284662D02*
X179821428Y-83189424D01*
X179821428Y-83189424D02*
X179726190Y-83094185D01*
X179726190Y-83094185D02*
X179630952Y-82903709D01*
X179630952Y-82903709D02*
X179535714Y-82522757D01*
X179535714Y-82522757D02*
X179535714Y-82046566D01*
X179535714Y-82046566D02*
X179630952Y-81665614D01*
X179630952Y-81665614D02*
X179726190Y-81475138D01*
X179726190Y-81475138D02*
X179821428Y-81379900D01*
X179821428Y-81379900D02*
X180011904Y-81284662D01*
X181916666Y-81284662D02*
X182107143Y-81284662D01*
X182107143Y-81284662D02*
X182297619Y-81379900D01*
X182297619Y-81379900D02*
X182392857Y-81475138D01*
X182392857Y-81475138D02*
X182488095Y-81665614D01*
X182488095Y-81665614D02*
X182583333Y-82046566D01*
X182583333Y-82046566D02*
X182583333Y-82522757D01*
X182583333Y-82522757D02*
X182488095Y-82903709D01*
X182488095Y-82903709D02*
X182392857Y-83094185D01*
X182392857Y-83094185D02*
X182297619Y-83189424D01*
X182297619Y-83189424D02*
X182107143Y-83284662D01*
X182107143Y-83284662D02*
X181916666Y-83284662D01*
X181916666Y-83284662D02*
X181726190Y-83189424D01*
X181726190Y-83189424D02*
X181630952Y-83094185D01*
X181630952Y-83094185D02*
X181535714Y-82903709D01*
X181535714Y-82903709D02*
X181440476Y-82522757D01*
X181440476Y-82522757D02*
X181440476Y-82046566D01*
X181440476Y-82046566D02*
X181535714Y-81665614D01*
X181535714Y-81665614D02*
X181630952Y-81475138D01*
X181630952Y-81475138D02*
X181726190Y-81379900D01*
X181726190Y-81379900D02*
X181916666Y-81284662D01*
X183250000Y-81284662D02*
X183726190Y-83284662D01*
X183726190Y-83284662D02*
X184107143Y-81856090D01*
X184107143Y-81856090D02*
X184488095Y-83284662D01*
X184488095Y-83284662D02*
X184964286Y-81284662D01*
X177726190Y-86504550D02*
X176583333Y-86504550D01*
X177154761Y-86504550D02*
X177154761Y-84504550D01*
X177154761Y-84504550D02*
X176964285Y-84790264D01*
X176964285Y-84790264D02*
X176773809Y-84980740D01*
X176773809Y-84980740D02*
X176583333Y-85075978D01*
X178488095Y-84695026D02*
X178583333Y-84599788D01*
X178583333Y-84599788D02*
X178773809Y-84504550D01*
X178773809Y-84504550D02*
X179250000Y-84504550D01*
X179250000Y-84504550D02*
X179440476Y-84599788D01*
X179440476Y-84599788D02*
X179535714Y-84695026D01*
X179535714Y-84695026D02*
X179630952Y-84885502D01*
X179630952Y-84885502D02*
X179630952Y-85075978D01*
X179630952Y-85075978D02*
X179535714Y-85361692D01*
X179535714Y-85361692D02*
X178392857Y-86504550D01*
X178392857Y-86504550D02*
X179630952Y-86504550D01*
X180488095Y-85742645D02*
X182011905Y-85742645D01*
X182869047Y-84695026D02*
X182964285Y-84599788D01*
X182964285Y-84599788D02*
X183154761Y-84504550D01*
X183154761Y-84504550D02*
X183630952Y-84504550D01*
X183630952Y-84504550D02*
X183821428Y-84599788D01*
X183821428Y-84599788D02*
X183916666Y-84695026D01*
X183916666Y-84695026D02*
X184011904Y-84885502D01*
X184011904Y-84885502D02*
X184011904Y-85075978D01*
X184011904Y-85075978D02*
X183916666Y-85361692D01*
X183916666Y-85361692D02*
X182773809Y-86504550D01*
X182773809Y-86504550D02*
X184011904Y-86504550D01*
X185726190Y-85171216D02*
X185726190Y-86504550D01*
X185249999Y-84409312D02*
X184773809Y-85837883D01*
X184773809Y-85837883D02*
X186011904Y-85837883D01*
X178583333Y-87724438D02*
X179249999Y-89724438D01*
X179249999Y-89724438D02*
X179916666Y-87724438D01*
X180583333Y-89724438D02*
X180583333Y-87724438D01*
X180583333Y-87724438D02*
X181059523Y-87724438D01*
X181059523Y-87724438D02*
X181345238Y-87819676D01*
X181345238Y-87819676D02*
X181535714Y-88010152D01*
X181535714Y-88010152D02*
X181630952Y-88200628D01*
X181630952Y-88200628D02*
X181726190Y-88581580D01*
X181726190Y-88581580D02*
X181726190Y-88867295D01*
X181726190Y-88867295D02*
X181630952Y-89248247D01*
X181630952Y-89248247D02*
X181535714Y-89438723D01*
X181535714Y-89438723D02*
X181345238Y-89629200D01*
X181345238Y-89629200D02*
X181059523Y-89724438D01*
X181059523Y-89724438D02*
X180583333Y-89724438D01*
X183726190Y-89533961D02*
X183630952Y-89629200D01*
X183630952Y-89629200D02*
X183345238Y-89724438D01*
X183345238Y-89724438D02*
X183154762Y-89724438D01*
X183154762Y-89724438D02*
X182869047Y-89629200D01*
X182869047Y-89629200D02*
X182678571Y-89438723D01*
X182678571Y-89438723D02*
X182583333Y-89248247D01*
X182583333Y-89248247D02*
X182488095Y-88867295D01*
X182488095Y-88867295D02*
X182488095Y-88581580D01*
X182488095Y-88581580D02*
X182583333Y-88200628D01*
X182583333Y-88200628D02*
X182678571Y-88010152D01*
X182678571Y-88010152D02*
X182869047Y-87819676D01*
X182869047Y-87819676D02*
X183154762Y-87724438D01*
X183154762Y-87724438D02*
X183345238Y-87724438D01*
X183345238Y-87724438D02*
X183630952Y-87819676D01*
X183630952Y-87819676D02*
X183726190Y-87914914D01*
D11*
X118518358Y-82091800D02*
X118327882Y-82187038D01*
X118327882Y-82187038D02*
X117946929Y-82187038D01*
X117946929Y-82187038D02*
X117756453Y-82091800D01*
X117756453Y-82091800D02*
X117661215Y-81901323D01*
X117661215Y-81901323D02*
X117661215Y-81139419D01*
X117661215Y-81139419D02*
X117756453Y-80948942D01*
X117756453Y-80948942D02*
X117946929Y-80853704D01*
X117946929Y-80853704D02*
X118327882Y-80853704D01*
X118327882Y-80853704D02*
X118518358Y-80948942D01*
X118518358Y-80948942D02*
X118613596Y-81139419D01*
X118613596Y-81139419D02*
X118613596Y-81329895D01*
X118613596Y-81329895D02*
X117661215Y-81520371D01*
X119470739Y-82187038D02*
X119470739Y-80853704D01*
X119470739Y-81044180D02*
X119565977Y-80948942D01*
X119565977Y-80948942D02*
X119756453Y-80853704D01*
X119756453Y-80853704D02*
X120042168Y-80853704D01*
X120042168Y-80853704D02*
X120232644Y-80948942D01*
X120232644Y-80948942D02*
X120327882Y-81139419D01*
X120327882Y-81139419D02*
X120327882Y-82187038D01*
X120327882Y-81139419D02*
X120423120Y-80948942D01*
X120423120Y-80948942D02*
X120613596Y-80853704D01*
X120613596Y-80853704D02*
X120899310Y-80853704D01*
X120899310Y-80853704D02*
X121089787Y-80948942D01*
X121089787Y-80948942D02*
X121185025Y-81139419D01*
X121185025Y-81139419D02*
X121185025Y-82187038D01*
X122137406Y-82187038D02*
X122137406Y-80187038D01*
X122137406Y-80948942D02*
X122327882Y-80853704D01*
X122327882Y-80853704D02*
X122708835Y-80853704D01*
X122708835Y-80853704D02*
X122899311Y-80948942D01*
X122899311Y-80948942D02*
X122994549Y-81044180D01*
X122994549Y-81044180D02*
X123089787Y-81234657D01*
X123089787Y-81234657D02*
X123089787Y-81806085D01*
X123089787Y-81806085D02*
X122994549Y-81996561D01*
X122994549Y-81996561D02*
X122899311Y-82091800D01*
X122899311Y-82091800D02*
X122708835Y-82187038D01*
X122708835Y-82187038D02*
X122327882Y-82187038D01*
X122327882Y-82187038D02*
X122137406Y-82091800D01*
X124708835Y-82091800D02*
X124518359Y-82187038D01*
X124518359Y-82187038D02*
X124137406Y-82187038D01*
X124137406Y-82187038D02*
X123946930Y-82091800D01*
X123946930Y-82091800D02*
X123851692Y-81901323D01*
X123851692Y-81901323D02*
X123851692Y-81139419D01*
X123851692Y-81139419D02*
X123946930Y-80948942D01*
X123946930Y-80948942D02*
X124137406Y-80853704D01*
X124137406Y-80853704D02*
X124518359Y-80853704D01*
X124518359Y-80853704D02*
X124708835Y-80948942D01*
X124708835Y-80948942D02*
X124804073Y-81139419D01*
X124804073Y-81139419D02*
X124804073Y-81329895D01*
X124804073Y-81329895D02*
X123851692Y-81520371D01*
X125661216Y-82187038D02*
X125661216Y-80853704D01*
X125661216Y-81234657D02*
X125756454Y-81044180D01*
X125756454Y-81044180D02*
X125851692Y-80948942D01*
X125851692Y-80948942D02*
X126042168Y-80853704D01*
X126042168Y-80853704D02*
X126232645Y-80853704D01*
X127280263Y-80187038D02*
X127661216Y-80187038D01*
X127661216Y-80187038D02*
X127851692Y-80282276D01*
X127851692Y-80282276D02*
X128042168Y-80472752D01*
X128042168Y-80472752D02*
X128137406Y-80853704D01*
X128137406Y-80853704D02*
X128137406Y-81520371D01*
X128137406Y-81520371D02*
X128042168Y-81901323D01*
X128042168Y-81901323D02*
X127851692Y-82091800D01*
X127851692Y-82091800D02*
X127661216Y-82187038D01*
X127661216Y-82187038D02*
X127280263Y-82187038D01*
X127280263Y-82187038D02*
X127089787Y-82091800D01*
X127089787Y-82091800D02*
X126899311Y-81901323D01*
X126899311Y-81901323D02*
X126804073Y-81520371D01*
X126804073Y-81520371D02*
X126804073Y-80853704D01*
X126804073Y-80853704D02*
X126899311Y-80472752D01*
X126899311Y-80472752D02*
X127089787Y-80282276D01*
X127089787Y-80282276D02*
X127280263Y-80187038D01*
X128994549Y-80853704D02*
X128994549Y-82187038D01*
X128994549Y-81044180D02*
X129089787Y-80948942D01*
X129089787Y-80948942D02*
X129280263Y-80853704D01*
X129280263Y-80853704D02*
X129565978Y-80853704D01*
X129565978Y-80853704D02*
X129756454Y-80948942D01*
X129756454Y-80948942D02*
X129851692Y-81139419D01*
X129851692Y-81139419D02*
X129851692Y-82187038D01*
X131565978Y-82091800D02*
X131375502Y-82187038D01*
X131375502Y-82187038D02*
X130994549Y-82187038D01*
X130994549Y-82187038D02*
X130804073Y-82091800D01*
X130804073Y-82091800D02*
X130708835Y-81901323D01*
X130708835Y-81901323D02*
X130708835Y-81139419D01*
X130708835Y-81139419D02*
X130804073Y-80948942D01*
X130804073Y-80948942D02*
X130994549Y-80853704D01*
X130994549Y-80853704D02*
X131375502Y-80853704D01*
X131375502Y-80853704D02*
X131565978Y-80948942D01*
X131565978Y-80948942D02*
X131661216Y-81139419D01*
X131661216Y-81139419D02*
X131661216Y-81329895D01*
X131661216Y-81329895D02*
X130708835Y-81520371D01*
X133946930Y-80091800D02*
X132232645Y-82663228D01*
X134994549Y-80187038D02*
X135185026Y-80187038D01*
X135185026Y-80187038D02*
X135375502Y-80282276D01*
X135375502Y-80282276D02*
X135470740Y-80377514D01*
X135470740Y-80377514D02*
X135565978Y-80567990D01*
X135565978Y-80567990D02*
X135661216Y-80948942D01*
X135661216Y-80948942D02*
X135661216Y-81425133D01*
X135661216Y-81425133D02*
X135565978Y-81806085D01*
X135565978Y-81806085D02*
X135470740Y-81996561D01*
X135470740Y-81996561D02*
X135375502Y-82091800D01*
X135375502Y-82091800D02*
X135185026Y-82187038D01*
X135185026Y-82187038D02*
X134994549Y-82187038D01*
X134994549Y-82187038D02*
X134804073Y-82091800D01*
X134804073Y-82091800D02*
X134708835Y-81996561D01*
X134708835Y-81996561D02*
X134613597Y-81806085D01*
X134613597Y-81806085D02*
X134518359Y-81425133D01*
X134518359Y-81425133D02*
X134518359Y-80948942D01*
X134518359Y-80948942D02*
X134613597Y-80567990D01*
X134613597Y-80567990D02*
X134708835Y-80377514D01*
X134708835Y-80377514D02*
X134804073Y-80282276D01*
X134804073Y-80282276D02*
X134994549Y-80187038D01*
X136899311Y-80187038D02*
X137089788Y-80187038D01*
X137089788Y-80187038D02*
X137280264Y-80282276D01*
X137280264Y-80282276D02*
X137375502Y-80377514D01*
X137375502Y-80377514D02*
X137470740Y-80567990D01*
X137470740Y-80567990D02*
X137565978Y-80948942D01*
X137565978Y-80948942D02*
X137565978Y-81425133D01*
X137565978Y-81425133D02*
X137470740Y-81806085D01*
X137470740Y-81806085D02*
X137375502Y-81996561D01*
X137375502Y-81996561D02*
X137280264Y-82091800D01*
X137280264Y-82091800D02*
X137089788Y-82187038D01*
X137089788Y-82187038D02*
X136899311Y-82187038D01*
X136899311Y-82187038D02*
X136708835Y-82091800D01*
X136708835Y-82091800D02*
X136613597Y-81996561D01*
X136613597Y-81996561D02*
X136518359Y-81806085D01*
X136518359Y-81806085D02*
X136423121Y-81425133D01*
X136423121Y-81425133D02*
X136423121Y-80948942D01*
X136423121Y-80948942D02*
X136518359Y-80567990D01*
X136518359Y-80567990D02*
X136613597Y-80377514D01*
X136613597Y-80377514D02*
X136708835Y-80282276D01*
X136708835Y-80282276D02*
X136899311Y-80187038D01*
X139756455Y-80853704D02*
X140232645Y-82187038D01*
X140232645Y-82187038D02*
X140708836Y-80853704D01*
X141280265Y-80187038D02*
X142518360Y-80187038D01*
X142518360Y-80187038D02*
X141851693Y-80948942D01*
X141851693Y-80948942D02*
X142137408Y-80948942D01*
X142137408Y-80948942D02*
X142327884Y-81044180D01*
X142327884Y-81044180D02*
X142423122Y-81139419D01*
X142423122Y-81139419D02*
X142518360Y-81329895D01*
X142518360Y-81329895D02*
X142518360Y-81806085D01*
X142518360Y-81806085D02*
X142423122Y-81996561D01*
X142423122Y-81996561D02*
X142327884Y-82091800D01*
X142327884Y-82091800D02*
X142137408Y-82187038D01*
X142137408Y-82187038D02*
X141565979Y-82187038D01*
X141565979Y-82187038D02*
X141375503Y-82091800D01*
X141375503Y-82091800D02*
X141280265Y-81996561D01*
D12*
X235781669Y-82789819D02*
X235305479Y-82789819D01*
X235305479Y-82789819D02*
X235305479Y-81789819D01*
X236448336Y-82266009D02*
X236115003Y-82266009D01*
X236115003Y-82789819D02*
X236115003Y-81789819D01*
X236115003Y-81789819D02*
X236591193Y-81789819D01*
X237495955Y-81837438D02*
X237400717Y-81789819D01*
X237400717Y-81789819D02*
X237257860Y-81789819D01*
X237257860Y-81789819D02*
X237115003Y-81837438D01*
X237115003Y-81837438D02*
X237019765Y-81932676D01*
X237019765Y-81932676D02*
X236972146Y-82027914D01*
X236972146Y-82027914D02*
X236924527Y-82218390D01*
X236924527Y-82218390D02*
X236924527Y-82361247D01*
X236924527Y-82361247D02*
X236972146Y-82551723D01*
X236972146Y-82551723D02*
X237019765Y-82646961D01*
X237019765Y-82646961D02*
X237115003Y-82742200D01*
X237115003Y-82742200D02*
X237257860Y-82789819D01*
X237257860Y-82789819D02*
X237353098Y-82789819D01*
X237353098Y-82789819D02*
X237495955Y-82742200D01*
X237495955Y-82742200D02*
X237543574Y-82694580D01*
X237543574Y-82694580D02*
X237543574Y-82361247D01*
X237543574Y-82361247D02*
X237353098Y-82361247D01*
D10*
X130996819Y-184023985D02*
X130996819Y-184690652D01*
X132044438Y-184690652D02*
X130044438Y-184690652D01*
X130044438Y-184690652D02*
X130044438Y-183738271D01*
X130044438Y-182595414D02*
X130044438Y-182214461D01*
X130044438Y-182214461D02*
X130139676Y-182023985D01*
X130139676Y-182023985D02*
X130330152Y-181833509D01*
X130330152Y-181833509D02*
X130711104Y-181738271D01*
X130711104Y-181738271D02*
X131377771Y-181738271D01*
X131377771Y-181738271D02*
X131758723Y-181833509D01*
X131758723Y-181833509D02*
X131949200Y-182023985D01*
X131949200Y-182023985D02*
X132044438Y-182214461D01*
X132044438Y-182214461D02*
X132044438Y-182595414D01*
X132044438Y-182595414D02*
X131949200Y-182785890D01*
X131949200Y-182785890D02*
X131758723Y-182976366D01*
X131758723Y-182976366D02*
X131377771Y-183071604D01*
X131377771Y-183071604D02*
X130711104Y-183071604D01*
X130711104Y-183071604D02*
X130330152Y-182976366D01*
X130330152Y-182976366D02*
X130139676Y-182785890D01*
X130139676Y-182785890D02*
X130044438Y-182595414D01*
X131949200Y-180976366D02*
X132044438Y-180690652D01*
X132044438Y-180690652D02*
X132044438Y-180214461D01*
X132044438Y-180214461D02*
X131949200Y-180023985D01*
X131949200Y-180023985D02*
X131853961Y-179928747D01*
X131853961Y-179928747D02*
X131663485Y-179833509D01*
X131663485Y-179833509D02*
X131473009Y-179833509D01*
X131473009Y-179833509D02*
X131282533Y-179928747D01*
X131282533Y-179928747D02*
X131187295Y-180023985D01*
X131187295Y-180023985D02*
X131092057Y-180214461D01*
X131092057Y-180214461D02*
X130996819Y-180595414D01*
X130996819Y-180595414D02*
X130901580Y-180785890D01*
X130901580Y-180785890D02*
X130806342Y-180881128D01*
X130806342Y-180881128D02*
X130615866Y-180976366D01*
X130615866Y-180976366D02*
X130425390Y-180976366D01*
X130425390Y-180976366D02*
X130234914Y-180881128D01*
X130234914Y-180881128D02*
X130139676Y-180785890D01*
X130139676Y-180785890D02*
X130044438Y-180595414D01*
X130044438Y-180595414D02*
X130044438Y-180119223D01*
X130044438Y-180119223D02*
X130139676Y-179833509D01*
X131949200Y-179071604D02*
X132044438Y-178785890D01*
X132044438Y-178785890D02*
X132044438Y-178309699D01*
X132044438Y-178309699D02*
X131949200Y-178119223D01*
X131949200Y-178119223D02*
X131853961Y-178023985D01*
X131853961Y-178023985D02*
X131663485Y-177928747D01*
X131663485Y-177928747D02*
X131473009Y-177928747D01*
X131473009Y-177928747D02*
X131282533Y-178023985D01*
X131282533Y-178023985D02*
X131187295Y-178119223D01*
X131187295Y-178119223D02*
X131092057Y-178309699D01*
X131092057Y-178309699D02*
X130996819Y-178690652D01*
X130996819Y-178690652D02*
X130901580Y-178881128D01*
X130901580Y-178881128D02*
X130806342Y-178976366D01*
X130806342Y-178976366D02*
X130615866Y-179071604D01*
X130615866Y-179071604D02*
X130425390Y-179071604D01*
X130425390Y-179071604D02*
X130234914Y-178976366D01*
X130234914Y-178976366D02*
X130139676Y-178881128D01*
X130139676Y-178881128D02*
X130044438Y-178690652D01*
X130044438Y-178690652D02*
X130044438Y-178214461D01*
X130044438Y-178214461D02*
X130139676Y-177928747D01*
X132711104Y-175071604D02*
X129853961Y-175071604D01*
X132711104Y-173166842D02*
X129853961Y-173166842D01*
X130139676Y-169166841D02*
X130044438Y-169357317D01*
X130044438Y-169357317D02*
X130044438Y-169643031D01*
X130044438Y-169643031D02*
X130139676Y-169928746D01*
X130139676Y-169928746D02*
X130330152Y-170119222D01*
X130330152Y-170119222D02*
X130520628Y-170214460D01*
X130520628Y-170214460D02*
X130901580Y-170309698D01*
X130901580Y-170309698D02*
X131187295Y-170309698D01*
X131187295Y-170309698D02*
X131568247Y-170214460D01*
X131568247Y-170214460D02*
X131758723Y-170119222D01*
X131758723Y-170119222D02*
X131949200Y-169928746D01*
X131949200Y-169928746D02*
X132044438Y-169643031D01*
X132044438Y-169643031D02*
X132044438Y-169452555D01*
X132044438Y-169452555D02*
X131949200Y-169166841D01*
X131949200Y-169166841D02*
X131853961Y-169071603D01*
X131853961Y-169071603D02*
X131187295Y-169071603D01*
X131187295Y-169071603D02*
X131187295Y-169452555D01*
X130044438Y-168500174D02*
X130044438Y-167357317D01*
X132044438Y-167928746D02*
X130044438Y-167928746D01*
X130996819Y-166023983D02*
X130996819Y-166690650D01*
X132044438Y-166690650D02*
X130044438Y-166690650D01*
X130044438Y-166690650D02*
X130044438Y-165738269D01*
X130044438Y-164595412D02*
X130044438Y-164214459D01*
X130044438Y-164214459D02*
X130139676Y-164023983D01*
X130139676Y-164023983D02*
X130330152Y-163833507D01*
X130330152Y-163833507D02*
X130711104Y-163738269D01*
X130711104Y-163738269D02*
X131377771Y-163738269D01*
X131377771Y-163738269D02*
X131758723Y-163833507D01*
X131758723Y-163833507D02*
X131949200Y-164023983D01*
X131949200Y-164023983D02*
X132044438Y-164214459D01*
X132044438Y-164214459D02*
X132044438Y-164595412D01*
X132044438Y-164595412D02*
X131949200Y-164785888D01*
X131949200Y-164785888D02*
X131758723Y-164976364D01*
X131758723Y-164976364D02*
X131377771Y-165071602D01*
X131377771Y-165071602D02*
X130711104Y-165071602D01*
X130711104Y-165071602D02*
X130330152Y-164976364D01*
X130330152Y-164976364D02*
X130139676Y-164785888D01*
X130139676Y-164785888D02*
X130044438Y-164595412D01*
X194546795Y-92752533D02*
X196070605Y-92752533D01*
X166078095Y-92702533D02*
X167601905Y-92702533D01*
X166840000Y-93464438D02*
X166840000Y-91940628D01*
D12*
X160108866Y-137300620D02*
X160108866Y-136538716D01*
X160489819Y-136919668D02*
X159727914Y-136919668D01*
X173264034Y-137091291D02*
X173264034Y-136329387D01*
X173644987Y-136710339D02*
X172883082Y-136710339D01*
X208516920Y-133716133D02*
X207755016Y-133716133D01*
X208135968Y-133335180D02*
X208135968Y-134097085D01*
X200101133Y-105246779D02*
X200101133Y-106008684D01*
X199720180Y-105627731D02*
X200482085Y-105627731D01*
X167661133Y-106256779D02*
X167661133Y-107018684D01*
X167280180Y-106637731D02*
X168042085Y-106637731D01*
X173351133Y-106336779D02*
X173351133Y-107098684D01*
X172970180Y-106717731D02*
X173732085Y-106717731D01*
%TO.C,U2*%
X150278949Y-92671051D02*
X150453949Y-92671051D01*
X150278949Y-92671051D02*
X150278949Y-89421051D01*
X153353949Y-92671051D02*
X153528949Y-92671051D01*
X153528949Y-92671051D02*
X153528949Y-89421051D01*
X150278949Y-89421051D02*
X150453949Y-89421051D01*
X153353949Y-89421051D02*
X153528949Y-89421051D01*
D13*
X150453949Y-93146051D02*
X150123949Y-93386051D01*
X150123949Y-92906051D01*
X150453949Y-93146051D01*
G36*
X150453949Y-93146051D02*
G01*
X150123949Y-93386051D01*
X150123949Y-92906051D01*
X150453949Y-93146051D01*
G37*
D14*
%TO.C,U1*%
X131207249Y-96087749D02*
X131820101Y-96087749D01*
X136207797Y-96087749D02*
X136820649Y-96087749D01*
X136820649Y-96087749D02*
X136820649Y-95474897D01*
X131207249Y-95474897D02*
X131207249Y-96087749D01*
X136820649Y-91087201D02*
X136820649Y-90474349D01*
X131207249Y-90474349D02*
X131207249Y-91087201D01*
X131820101Y-90474349D02*
X131207249Y-90474349D01*
X136820649Y-90474349D02*
X136207797Y-90474349D01*
D15*
X131399293Y-96831049D02*
G75*
G02*
X131048605Y-96831049I-175344J0D01*
G01*
X131048605Y-96831049D02*
G75*
G02*
X131399293Y-96831049I175344J0D01*
G01*
%TO.C,U55*%
D13*
X163990000Y-178835000D02*
X155990000Y-178835000D01*
X155990000Y-170835000D01*
X163990000Y-170835000D01*
X163990000Y-178835000D01*
D16*
X165375548Y-178845000D02*
G75*
G02*
X164904452Y-178845000I-235548J0D01*
G01*
X164904452Y-178845000D02*
G75*
G02*
X165375548Y-178845000I235548J0D01*
G01*
%TO.C,U46*%
D13*
X134460000Y-170815000D02*
X142460000Y-170815000D01*
X142460000Y-178815000D01*
X134460000Y-178815000D01*
X134460000Y-170815000D01*
D16*
X133545548Y-170805000D02*
G75*
G02*
X133074452Y-170805000I-235548J0D01*
G01*
X133074452Y-170805000D02*
G75*
G02*
X133545548Y-170805000I235548J0D01*
G01*
%TO.C,U64*%
D13*
X177500000Y-170835000D02*
X185500000Y-170835000D01*
X185500000Y-178835000D01*
X177500000Y-178835000D01*
X177500000Y-170835000D01*
D16*
X176585548Y-170825000D02*
G75*
G02*
X176114452Y-170825000I-235548J0D01*
G01*
X176114452Y-170825000D02*
G75*
G02*
X176585548Y-170825000I235548J0D01*
G01*
%TO.C,U73*%
D13*
X207050000Y-178925000D02*
X199050000Y-178925000D01*
X199050000Y-170925000D01*
X207050000Y-170925000D01*
X207050000Y-178925000D01*
D16*
X208435548Y-178935000D02*
G75*
G02*
X207964452Y-178935000I-235548J0D01*
G01*
X207964452Y-178935000D02*
G75*
G02*
X208435548Y-178935000I235548J0D01*
G01*
%TO.C,U65*%
D13*
X177500000Y-184525000D02*
X185500000Y-184525000D01*
X185500000Y-192525000D01*
X177500000Y-192525000D01*
X177500000Y-184525000D01*
D16*
X176585548Y-184515000D02*
G75*
G02*
X176114452Y-184515000I-235548J0D01*
G01*
X176114452Y-184515000D02*
G75*
G02*
X176585548Y-184515000I235548J0D01*
G01*
%TO.C,U47*%
D13*
X134460000Y-184495000D02*
X142460000Y-184495000D01*
X142460000Y-192495000D01*
X134460000Y-192495000D01*
X134460000Y-184495000D01*
D16*
X133545548Y-184485000D02*
G75*
G02*
X133074452Y-184485000I-235548J0D01*
G01*
X133074452Y-184485000D02*
G75*
G02*
X133545548Y-184485000I235548J0D01*
G01*
%TO.C,U74*%
D13*
X207050000Y-165245000D02*
X199050000Y-165245000D01*
X199050000Y-157245000D01*
X207050000Y-157245000D01*
X207050000Y-165245000D01*
D16*
X208435548Y-165255000D02*
G75*
G02*
X207964452Y-165255000I-235548J0D01*
G01*
X207964452Y-165255000D02*
G75*
G02*
X208435548Y-165255000I235548J0D01*
G01*
%TO.C,U54*%
D13*
X163990000Y-192505000D02*
X155990000Y-192505000D01*
X155990000Y-184505000D01*
X163990000Y-184505000D01*
X163990000Y-192505000D01*
D16*
X165375548Y-192515000D02*
G75*
G02*
X164904452Y-192515000I-235548J0D01*
G01*
X164904452Y-192515000D02*
G75*
G02*
X165375548Y-192515000I235548J0D01*
G01*
%TO.C,U45*%
D13*
X134460000Y-157125000D02*
X142460000Y-157125000D01*
X142460000Y-165125000D01*
X134460000Y-165125000D01*
X134460000Y-157125000D01*
D16*
X133545548Y-157115000D02*
G75*
G02*
X133074452Y-157115000I-235548J0D01*
G01*
X133074452Y-157115000D02*
G75*
G02*
X133545548Y-157115000I235548J0D01*
G01*
%TO.C,U72*%
D13*
X207050000Y-192615000D02*
X199050000Y-192615000D01*
X199050000Y-184615000D01*
X207050000Y-184615000D01*
X207050000Y-192615000D01*
D16*
X208435548Y-192625000D02*
G75*
G02*
X207964452Y-192625000I-235548J0D01*
G01*
X207964452Y-192625000D02*
G75*
G02*
X208435548Y-192625000I235548J0D01*
G01*
%TO.C,U63*%
D13*
X177500000Y-157155000D02*
X185500000Y-157155000D01*
X185500000Y-165155000D01*
X177500000Y-165155000D01*
X177500000Y-157155000D01*
D16*
X176585548Y-157145000D02*
G75*
G02*
X176114452Y-157145000I-235548J0D01*
G01*
X176114452Y-157145000D02*
G75*
G02*
X176585548Y-157145000I235548J0D01*
G01*
%TO.C,U56*%
D13*
X164010000Y-165155000D02*
X156010000Y-165155000D01*
X156010000Y-157155000D01*
X164010000Y-157155000D01*
X164010000Y-165155000D01*
D16*
X165395548Y-165165000D02*
G75*
G02*
X164924452Y-165165000I-235548J0D01*
G01*
X164924452Y-165165000D02*
G75*
G02*
X165395548Y-165165000I235548J0D01*
G01*
D13*
%TO.C,R69*%
X235213641Y-157530000D02*
X234906359Y-157530000D01*
X235213641Y-156770000D02*
X234906359Y-156770000D01*
%TO.C,R33*%
X124737742Y-89927500D02*
X125212258Y-89927500D01*
X124737742Y-90972500D02*
X125212258Y-90972500D01*
%TO.C,R32*%
X144187742Y-103177500D02*
X144662258Y-103177500D01*
X144187742Y-104222500D02*
X144662258Y-104222500D01*
%TO.C,R31*%
X147412742Y-100727500D02*
X147887258Y-100727500D01*
X147412742Y-101772500D02*
X147887258Y-101772500D01*
%TO.C,R30*%
X153212742Y-100677500D02*
X153687258Y-100677500D01*
X153212742Y-101722500D02*
X153687258Y-101722500D01*
%TO.C,R29*%
X153212742Y-98827500D02*
X153687258Y-98827500D01*
X153212742Y-99872500D02*
X153687258Y-99872500D01*
%TO.C,C31*%
X144165000Y-101461252D02*
X144165000Y-100938748D01*
X145635000Y-101461252D02*
X145635000Y-100938748D01*
%TO.C,C30*%
X150065000Y-100811252D02*
X150065000Y-100288748D01*
X151535000Y-100811252D02*
X151535000Y-100288748D01*
D17*
%TO.C,J19*%
X122370000Y-135990000D02*
X122870000Y-135990000D01*
X120870000Y-134490000D02*
X120870000Y-133990000D01*
X124370000Y-134490000D02*
X124370000Y-133990000D01*
X122370000Y-132490000D02*
X122870000Y-132490000D01*
D14*
%TO.C,C16*%
X157970100Y-127247500D02*
X157970100Y-135807300D01*
X157970100Y-135807300D02*
X160964760Y-135807300D01*
X160964760Y-127247500D02*
X157970100Y-127247500D01*
X163535240Y-135807300D02*
X166529900Y-135807300D01*
X166529900Y-127247500D02*
X163535240Y-127247500D01*
X166529900Y-135807300D02*
X166529900Y-127247500D01*
D13*
%TO.C,U4*%
X230890000Y-151572500D02*
X230890000Y-149372500D01*
X230890000Y-151572500D02*
X230890000Y-153772500D01*
X236360000Y-151572500D02*
X236360000Y-149372500D01*
X236360000Y-151572500D02*
X236360000Y-153772500D01*
X231590000Y-155762500D02*
X231110000Y-155762500D01*
X231350000Y-155432500D01*
X231590000Y-155762500D01*
G36*
X231590000Y-155762500D02*
G01*
X231110000Y-155762500D01*
X231350000Y-155432500D01*
X231590000Y-155762500D01*
G37*
%TO.C,R6*%
X147757500Y-97457258D02*
X147757500Y-96982742D01*
X148802500Y-97457258D02*
X148802500Y-96982742D01*
%TO.C,C11*%
X144055000Y-89341252D02*
X144055000Y-88818748D01*
X145525000Y-89341252D02*
X145525000Y-88818748D01*
D14*
%TO.C,D1*%
X126421300Y-100800500D02*
X128478700Y-100800500D01*
D13*
X127070000Y-98915000D02*
X127070000Y-101125000D01*
D14*
X128478700Y-99149500D02*
X126421300Y-99149500D01*
D13*
%TO.C,R5*%
X133997258Y-97967500D02*
X133522742Y-97967500D01*
X133997258Y-99012500D02*
X133522742Y-99012500D01*
%TO.C,R20*%
X214213641Y-100180000D02*
X213906359Y-100180000D01*
X214213641Y-100940000D02*
X213906359Y-100940000D01*
D17*
%TO.C,Q4*%
X203448700Y-116595001D02*
X203448700Y-110795003D01*
X208448700Y-110795003D02*
X203448700Y-110795003D01*
X208448700Y-116595001D02*
X203448700Y-116595001D01*
X208448700Y-116595001D02*
X208448700Y-110795003D01*
D10*
X202898700Y-116620002D02*
G75*
G02*
X202498700Y-116620002I-200000J0D01*
G01*
X202498700Y-116620002D02*
G75*
G02*
X202898700Y-116620002I200000J0D01*
G01*
D13*
%TO.C,C15*%
X128615000Y-90371252D02*
X128615000Y-89848748D01*
X130085000Y-90371252D02*
X130085000Y-89848748D01*
%TO.C,R27*%
X138377500Y-99687258D02*
X138377500Y-99212742D01*
X139422500Y-99687258D02*
X139422500Y-99212742D01*
%TO.C,C101*%
X225826536Y-90965000D02*
X225610864Y-90965000D01*
X225826536Y-91685000D02*
X225610864Y-91685000D01*
%TO.C,C7*%
X137865000Y-85421252D02*
X137865000Y-84898748D01*
X139335000Y-85421252D02*
X139335000Y-84898748D01*
%TO.C,C9*%
X138868748Y-95695000D02*
X139391252Y-95695000D01*
X138868748Y-97165000D02*
X139391252Y-97165000D01*
%TO.C,R28*%
X125287742Y-86577500D02*
X125762258Y-86577500D01*
X125287742Y-87622500D02*
X125762258Y-87622500D01*
%TO.C,C5*%
X129865000Y-98818748D02*
X129865000Y-99341252D01*
X131335000Y-98818748D02*
X131335000Y-99341252D01*
%TO.C,U27*%
X218510807Y-94037500D02*
X218510807Y-93627500D01*
X218510807Y-100607500D02*
X218510807Y-99957500D01*
X219160807Y-93387500D02*
X218810807Y-93387500D01*
X219160807Y-100607500D02*
X218510807Y-100607500D01*
X225080807Y-93387500D02*
X225730807Y-93387500D01*
X225080807Y-100607500D02*
X225730807Y-100607500D01*
X225730807Y-93387500D02*
X225730807Y-94037500D01*
X225730807Y-100607500D02*
X225730807Y-99957500D01*
X218510807Y-93387500D02*
X218270807Y-93057500D01*
X218750807Y-93057500D01*
X218510807Y-93387500D01*
G36*
X218510807Y-93387500D02*
G01*
X218270807Y-93057500D01*
X218750807Y-93057500D01*
X218510807Y-93387500D01*
G37*
%TO.C,C27*%
X178888748Y-131135000D02*
X179411252Y-131135000D01*
X178888748Y-132605000D02*
X179411252Y-132605000D01*
%TO.C,R9*%
X133917500Y-85607258D02*
X133917500Y-85132742D01*
X134962500Y-85607258D02*
X134962500Y-85132742D01*
%TO.C,C22*%
X232160000Y-146307836D02*
X232160000Y-146092164D01*
X231440000Y-146307836D02*
X231440000Y-146092164D01*
%TO.C,C107*%
X215712971Y-97200000D02*
X215928643Y-97200000D01*
X215712971Y-97920000D02*
X215928643Y-97920000D01*
%TO.C,R23*%
X142422742Y-95887500D02*
X142897258Y-95887500D01*
X142422742Y-96932500D02*
X142897258Y-96932500D01*
D14*
%TO.C,C17*%
X167020100Y-127270100D02*
X167020100Y-135829900D01*
X167020100Y-135829900D02*
X170014760Y-135829900D01*
X170014760Y-127270100D02*
X167020100Y-127270100D01*
X172585240Y-135829900D02*
X175579900Y-135829900D01*
X175579900Y-127270100D02*
X172585240Y-127270100D01*
X175579900Y-135829900D02*
X175579900Y-127270100D01*
D13*
%TO.C,C20*%
X153071252Y-95995000D02*
X152548748Y-95995000D01*
X153071252Y-97465000D02*
X152548748Y-97465000D01*
%TO.C,R52*%
X215428700Y-83563641D02*
X215428700Y-83256359D01*
X216188700Y-83563641D02*
X216188700Y-83256359D01*
%TO.C,R53*%
X222170807Y-90116359D02*
X222170807Y-90423641D01*
X222930807Y-90116359D02*
X222930807Y-90423641D01*
%TO.C,U9*%
D18*
X238264713Y-81720000D02*
G75*
G02*
X238000705Y-81720000I-132004J0D01*
G01*
X238000705Y-81720000D02*
G75*
G02*
X238264713Y-81720000I132004J0D01*
G01*
D13*
%TO.C,R4*%
X141867258Y-87397500D02*
X141392742Y-87397500D01*
X141867258Y-88442500D02*
X141392742Y-88442500D01*
%TO.C,C106*%
X226080807Y-102647836D02*
X226080807Y-102432164D01*
X226800807Y-102647836D02*
X226800807Y-102432164D01*
%TO.C,C99*%
X216532971Y-89110000D02*
X216748643Y-89110000D01*
X216532971Y-89830000D02*
X216748643Y-89830000D01*
%TO.C,U7*%
X231960000Y-175850000D02*
X231960000Y-174350000D01*
X231960000Y-175850000D02*
X231960000Y-177350000D01*
X235180000Y-175850000D02*
X235180000Y-174350000D01*
X235180000Y-175850000D02*
X235180000Y-177350000D01*
X232085000Y-178037500D02*
X231755000Y-178277500D01*
X231755000Y-177797500D01*
X232085000Y-178037500D01*
G36*
X232085000Y-178037500D02*
G01*
X231755000Y-178277500D01*
X231755000Y-177797500D01*
X232085000Y-178037500D01*
G37*
D14*
%TO.C,C18*%
X198463800Y-127295100D02*
X198463800Y-130289760D01*
X198463800Y-132860240D02*
X198463800Y-135854900D01*
X198463800Y-135854900D02*
X207023600Y-135854900D01*
X207023600Y-127295100D02*
X198463800Y-127295100D01*
X207023600Y-130289760D02*
X207023600Y-127295100D01*
X207023600Y-135854900D02*
X207023600Y-132860240D01*
D13*
%TO.C,J1*%
X162795549Y-80750000D02*
X170795549Y-80750000D01*
X162795549Y-88750000D02*
X162795549Y-80750000D01*
X170795549Y-80750000D02*
X170795549Y-88750000D01*
X170795549Y-88750000D02*
X162795549Y-88750000D01*
%TO.C,D2*%
X128245000Y-86570000D02*
X130455000Y-86570000D01*
D14*
X128479500Y-85161300D02*
X128479500Y-87218700D01*
X130130500Y-87218700D02*
X130130500Y-85161300D01*
D13*
%TO.C,C24*%
X120472164Y-171680000D02*
X120687836Y-171680000D01*
X120472164Y-172400000D02*
X120687836Y-172400000D01*
D14*
%TO.C,L1*%
X125767000Y-107953000D02*
X125767000Y-118542260D01*
X125767000Y-125557740D02*
X125767000Y-136147000D01*
X125767000Y-136147000D02*
X145833000Y-136147000D01*
X145833000Y-107953000D02*
X125767000Y-107953000D01*
X145833000Y-136147000D02*
X145833000Y-107953000D01*
D13*
%TO.C,C100*%
X219692971Y-90410000D02*
X219908643Y-90410000D01*
X219692971Y-91130000D02*
X219908643Y-91130000D01*
D19*
%TO.C,U10*%
X230648700Y-92330000D02*
X230648700Y-95830000D01*
X230648700Y-95830000D02*
X231888700Y-95830000D01*
X237148700Y-92330000D02*
X237148700Y-95830000D01*
X237148700Y-95830000D02*
X235908700Y-95830000D01*
D17*
X236298700Y-89480000D02*
G75*
G02*
X236098700Y-89480000I-100000J0D01*
G01*
X236098700Y-89480000D02*
G75*
G02*
X236298700Y-89480000I100000J0D01*
G01*
D13*
%TO.C,R7*%
X149467500Y-96982742D02*
X149467500Y-97457258D01*
X150512500Y-96982742D02*
X150512500Y-97457258D01*
%TO.C,C105*%
X224740807Y-102697836D02*
X224740807Y-102482164D01*
X225460807Y-102697836D02*
X225460807Y-102482164D01*
D19*
%TO.C,J6*%
X217278700Y-84190000D02*
X217278700Y-82490000D01*
X226618700Y-84190000D02*
X226618700Y-82490000D01*
D13*
%TO.C,C90*%
X229483700Y-92922164D02*
X229483700Y-93137836D01*
X230203700Y-92922164D02*
X230203700Y-93137836D01*
%TO.C,C96*%
X223310807Y-105222164D02*
X223310807Y-105437836D01*
X224030807Y-105222164D02*
X224030807Y-105437836D01*
%TO.C,C25*%
X232622164Y-171650000D02*
X232837836Y-171650000D01*
X232622164Y-172370000D02*
X232837836Y-172370000D01*
D14*
%TO.C,U8*%
X214806662Y-92761099D02*
X216619352Y-92761099D01*
X216619352Y-90398899D02*
X214806662Y-90398899D01*
D20*
X213396907Y-90829999D02*
G75*
G02*
X213219107Y-90829999I-88900J0D01*
G01*
X213219107Y-90829999D02*
G75*
G02*
X213396907Y-90829999I88900J0D01*
G01*
D13*
%TO.C,R25*%
X141392742Y-85787500D02*
X141867258Y-85787500D01*
X141392742Y-86832500D02*
X141867258Y-86832500D01*
%TO.C,C21*%
X230560000Y-148407836D02*
X230560000Y-148192164D01*
X229840000Y-148407836D02*
X229840000Y-148192164D01*
%TO.C,C104*%
X228568643Y-94065000D02*
X228352971Y-94065000D01*
X228568643Y-94785000D02*
X228352971Y-94785000D01*
D17*
%TO.C,Q2*%
X155395000Y-116580000D02*
X155395000Y-110780002D01*
X160395000Y-110780002D02*
X155395000Y-110780002D01*
X160395000Y-116580000D02*
X155395000Y-116580000D01*
X160395000Y-116580000D02*
X160395000Y-110780002D01*
D10*
X154845000Y-116605001D02*
G75*
G02*
X154445000Y-116605001I-200000J0D01*
G01*
X154445000Y-116605001D02*
G75*
G02*
X154845000Y-116605001I200000J0D01*
G01*
D13*
%TO.C,C108*%
X226951536Y-92040000D02*
X226735864Y-92040000D01*
X226951536Y-92760000D02*
X226735864Y-92760000D01*
%TO.C,R51*%
X227808700Y-83553641D02*
X227808700Y-83246359D01*
X228568700Y-83553641D02*
X228568700Y-83246359D01*
%TO.C,C109*%
X215702971Y-94045000D02*
X215918643Y-94045000D01*
X215702971Y-94765000D02*
X215918643Y-94765000D01*
D14*
%TO.C,C4*%
X193938500Y-106452900D02*
X193938500Y-115215900D01*
X193938500Y-115215900D02*
X197237960Y-115215900D01*
X197237960Y-106452900D02*
X193938500Y-106452900D01*
X199402040Y-115215900D02*
X202701500Y-115215900D01*
X202701500Y-106452900D02*
X199402040Y-106452900D01*
X202701500Y-115215900D02*
X202701500Y-106452900D01*
D13*
%TO.C,R26*%
X147262742Y-94267500D02*
X147737258Y-94267500D01*
X147262742Y-95312500D02*
X147737258Y-95312500D01*
D14*
%TO.C,R10*%
X194271600Y-117597000D02*
X194271600Y-118153260D01*
X194271600Y-124406740D02*
X194271600Y-124963000D01*
X194271600Y-124963000D02*
X206768400Y-124963000D01*
X206768400Y-117597000D02*
X194271600Y-117597000D01*
X206768400Y-118153260D02*
X206768400Y-117597000D01*
X206768400Y-124963000D02*
X206768400Y-124406740D01*
D13*
%TO.C,R22*%
X229966359Y-96400000D02*
X230273641Y-96400000D01*
X229966359Y-97160000D02*
X230273641Y-97160000D01*
%TO.C,R3*%
X141392742Y-91087500D02*
X141867258Y-91087500D01*
X141392742Y-92132500D02*
X141867258Y-92132500D01*
%TO.C,C28*%
X136295000Y-99188748D02*
X136295000Y-99711252D01*
X137765000Y-99188748D02*
X137765000Y-99711252D01*
%TO.C,C2*%
X125001252Y-95075000D02*
X124478748Y-95075000D01*
X125001252Y-96545000D02*
X124478748Y-96545000D01*
D14*
%TO.C,C1*%
X161608500Y-107530800D02*
X161608500Y-116293800D01*
X161608500Y-116293800D02*
X164907960Y-116293800D01*
X164907960Y-107530800D02*
X161608500Y-107530800D01*
X167072040Y-116293800D02*
X170371500Y-116293800D01*
X170371500Y-107530800D02*
X167072040Y-107530800D01*
X170371500Y-116293800D02*
X170371500Y-107530800D01*
D13*
%TO.C,C10*%
X134231252Y-99715000D02*
X133708748Y-99715000D01*
X134231252Y-101185000D02*
X133708748Y-101185000D01*
D19*
%TO.C,Y1*%
X220020807Y-103915000D02*
X220020807Y-104455000D01*
X222520807Y-104455000D02*
X222520807Y-103915000D01*
D17*
X222340807Y-106535000D02*
G75*
G02*
X222140807Y-106535000I-100000J0D01*
G01*
X222140807Y-106535000D02*
G75*
G02*
X222340807Y-106535000I100000J0D01*
G01*
D13*
%TO.C,R2*%
X125207258Y-91627500D02*
X124732742Y-91627500D01*
X125207258Y-92672500D02*
X124732742Y-92672500D01*
%TO.C,C13*%
X128578949Y-95263591D02*
X128578949Y-95786095D01*
X130048949Y-95263591D02*
X130048949Y-95786095D01*
%TO.C,C102*%
X224740807Y-105427836D02*
X224740807Y-105212164D01*
X225460807Y-105427836D02*
X225460807Y-105212164D01*
%TO.C,C110*%
X219692971Y-89410000D02*
X219908643Y-89410000D01*
X219692971Y-90130000D02*
X219908643Y-90130000D01*
%TO.C,C29*%
X125811252Y-85985000D02*
X125288748Y-85985000D01*
X125811252Y-84515000D02*
X125288748Y-84515000D01*
%TO.C,R19*%
X213193641Y-99050000D02*
X212886359Y-99050000D01*
X213193641Y-99810000D02*
X212886359Y-99810000D01*
%TO.C,C8*%
X141588748Y-89035000D02*
X142111252Y-89035000D01*
X141588748Y-90505000D02*
X142111252Y-90505000D01*
%TO.C,C12*%
X142126252Y-92715000D02*
X141603748Y-92715000D01*
X142126252Y-94185000D02*
X141603748Y-94185000D01*
%TO.C,R1*%
X124742742Y-93317500D02*
X125217258Y-93317500D01*
X124742742Y-94362500D02*
X125217258Y-94362500D01*
D14*
%TO.C,R8*%
X155061600Y-117597000D02*
X155061600Y-118153260D01*
X155061600Y-124406740D02*
X155061600Y-124963000D01*
X155061600Y-124963000D02*
X167558400Y-124963000D01*
X167558400Y-117597000D02*
X155061600Y-117597000D01*
X167558400Y-118153260D02*
X167558400Y-117597000D01*
X167558400Y-124963000D02*
X167558400Y-124406740D01*
D13*
%TO.C,C19*%
X147245000Y-90948748D02*
X147245000Y-91471252D01*
X148715000Y-90948748D02*
X148715000Y-91471252D01*
%TO.C,C6*%
X135725000Y-85421252D02*
X135725000Y-84898748D01*
X137195000Y-85421252D02*
X137195000Y-84898748D01*
%TO.C,C103*%
X228497836Y-98235000D02*
X228282164Y-98235000D01*
X228497836Y-98955000D02*
X228282164Y-98955000D01*
%TO.C,R54*%
X223270807Y-90116359D02*
X223270807Y-90423641D01*
X224030807Y-90116359D02*
X224030807Y-90423641D01*
%TO.C,R11*%
X153446359Y-86910000D02*
X153753641Y-86910000D01*
X153446359Y-87670000D02*
X153753641Y-87670000D01*
%TO.C,C14*%
X131705000Y-84878748D02*
X131705000Y-85401252D01*
X133175000Y-84878748D02*
X133175000Y-85401252D01*
%TO.C,J2*%
X191274249Y-80800000D02*
X199274249Y-80800000D01*
X191274249Y-88800000D02*
X191274249Y-80800000D01*
X199274249Y-80800000D02*
X199274249Y-88800000D01*
X199274249Y-88800000D02*
X191274249Y-88800000D01*
D17*
%TO.C,Q3*%
X204715000Y-104315000D02*
X204715000Y-109315000D01*
X210514998Y-104315000D02*
X204715000Y-104315000D01*
X210514998Y-104315000D02*
X210514998Y-109315000D01*
X210514998Y-109315000D02*
X204715000Y-109315000D01*
D10*
X210739999Y-110065000D02*
G75*
G02*
X210339999Y-110065000I-200000J0D01*
G01*
X210339999Y-110065000D02*
G75*
G02*
X210739999Y-110065000I200000J0D01*
G01*
D13*
%TO.C,C26*%
X178888748Y-133515000D02*
X179411252Y-133515000D01*
X178888748Y-134985000D02*
X179411252Y-134985000D01*
%TO.C,R21*%
X227706359Y-96400000D02*
X228013641Y-96400000D01*
X227706359Y-97160000D02*
X228013641Y-97160000D01*
D17*
%TO.C,Q1*%
X154898948Y-104373949D02*
X160698946Y-104373949D01*
X154898948Y-109373949D02*
X154898948Y-104373949D01*
X154898948Y-109373949D02*
X160698946Y-109373949D01*
X160698946Y-109373949D02*
X160698946Y-104373949D01*
D10*
X155073947Y-103623949D02*
G75*
G02*
X154673947Y-103623949I-200000J0D01*
G01*
X154673947Y-103623949D02*
G75*
G02*
X155073947Y-103623949I200000J0D01*
G01*
D13*
%TO.C,U3*%
X155540549Y-94392349D02*
X155540549Y-92192349D01*
X155540549Y-94392349D02*
X155540549Y-96592349D01*
X161010549Y-94392349D02*
X161010549Y-92192349D01*
X161010549Y-94392349D02*
X161010549Y-96592349D01*
X160550549Y-90532349D02*
X160310549Y-90202349D01*
X160790549Y-90202349D01*
X160550549Y-90532349D01*
G36*
X160550549Y-90532349D02*
G01*
X160310549Y-90202349D01*
X160790549Y-90202349D01*
X160550549Y-90532349D01*
G37*
%TO.C,C98*%
X237778700Y-93347836D02*
X237778700Y-93132164D01*
X238498700Y-93347836D02*
X238498700Y-93132164D01*
%TO.C,R24*%
X147407742Y-99167500D02*
X147882258Y-99167500D01*
X147407742Y-100212500D02*
X147882258Y-100212500D01*
D14*
%TO.C,C3*%
X170718500Y-107512900D02*
X170718500Y-116275900D01*
X170718500Y-116275900D02*
X174017960Y-116275900D01*
X174017960Y-107512900D02*
X170718500Y-107512900D01*
X176182040Y-116275900D02*
X179481500Y-116275900D01*
X179481500Y-107512900D02*
X176182040Y-107512900D01*
X179481500Y-116275900D02*
X179481500Y-107512900D01*
%TO.C,L2*%
X217235700Y-107928000D02*
X217235700Y-136122000D01*
X217235700Y-136122000D02*
X237301700Y-136122000D01*
X237301700Y-107928000D02*
X217235700Y-107928000D01*
X237301700Y-118517260D02*
X237301700Y-107928000D01*
X237301700Y-136122000D02*
X237301700Y-125532740D01*
D13*
%TO.C,R50*%
X213007166Y-89090000D02*
X213314448Y-89090000D01*
X213007166Y-89850000D02*
X213314448Y-89850000D01*
%TO.C,U6*%
X119820000Y-175880000D02*
X119820000Y-174380000D01*
X119820000Y-175880000D02*
X119820000Y-177380000D01*
X123040000Y-175880000D02*
X123040000Y-174380000D01*
X123040000Y-175880000D02*
X123040000Y-177380000D01*
X119945000Y-178067500D02*
X119615000Y-178307500D01*
X119615000Y-177827500D01*
X119945000Y-178067500D01*
G36*
X119945000Y-178067500D02*
G01*
X119615000Y-178307500D01*
X119615000Y-177827500D01*
X119945000Y-178067500D01*
G37*
%TO.C,C97*%
X218540807Y-104292836D02*
X218540807Y-104077164D01*
X219260807Y-104292836D02*
X219260807Y-104077164D01*
%TD*%
M02*
