M48
; DRILL file {KiCad 8.0.7} date 2025-01-15T12:36:31-0500
; FORMAT={-:-/ absolute / metric / decimal}
; #@! TF.CreationDate,2025-01-15T12:36:31-05:00
; #@! TF.GenerationSoftware,Kicad,Pcbnew,8.0.7
; #@! TF.FileFunction,Plated,1,4,PTH
FMAT,2
METRIC
; #@! TA.AperFunction,Plated,PTH,ViaDrill
T1C0.300
; #@! TA.AperFunction,Plated,PTH,ComponentDrill
T2C0.300
; #@! TA.AperFunction,Plated,PTH,ViaDrill
T3C0.400
; #@! TA.AperFunction,Plated,PTH,ViaDrill
T4C0.600
; #@! TA.AperFunction,Plated,PTH,ComponentDrill
T5C0.600
; #@! TA.AperFunction,Plated,PTH,ComponentDrill
T6C1.850
; #@! TA.AperFunction,Plated,PTH,ComponentDrill
T7C3.200
%
G90
G05
T1
X120.1Y-169.75
X122.405Y-179.19
X122.49Y-116.47
X122.565Y-170.505
X123.29Y-116.47
X125.52Y-161.25
X126.57Y-156.72
X126.57Y-161.22
X126.57Y-169.88
X126.57Y-175.09
X126.57Y-183.67
X126.57Y-188.38
X127.63Y-180.18
X127.67Y-182.61
X127.78Y-87.09
X127.969Y-93.531
X128.49Y-180.2
X128.53Y-182.61
X128.74Y-187.75
X128.97Y-160.83
X129.0Y-97.77
X129.48Y-180.2
X129.48Y-182.5
X130.4Y-87.86
X130.49Y-180.2
X130.54Y-182.58
X130.56Y-91.82
X130.93Y-89.16
X131.5Y-180.2
X131.52Y-182.59
X131.82Y-193.74
X131.92Y-159.47
X131.93Y-178.57
X131.94Y-98.14
X131.96Y-96.75
X131.96Y-160.45
X131.99Y-157.94
X132.13Y-165.42
X132.32Y-88.249
X132.57Y-157.45
X132.764Y-96.74
X132.79Y-193.87
X132.85Y-176.37
X132.91Y-92.22
X132.91Y-94.43
X132.914Y-93.291
X132.95Y-179.16
X133.02Y-87.89
X133.12Y-165.47
X133.35Y-171.21
X133.36Y-157.38
X133.38Y-184.54
X134.01Y-92.21
X134.01Y-94.42
X134.014Y-93.281
X134.04Y-87.9
X134.71Y-97.47
X135.05Y-92.22
X135.05Y-94.43
X135.054Y-93.291
X137.37Y-90.53
X138.08Y-89.16
X138.24Y-91.66
X139.834Y-94.531
X142.4Y-153.03
X143.44Y-171.04
X143.49Y-91.15
X143.526Y-175.414
X143.53Y-184.98
X143.549Y-173.531
X143.55Y-172.71
X143.55Y-174.32
X143.55Y-185.8
X143.55Y-186.68
X143.55Y-187.73
X143.57Y-189.02
X143.61Y-171.89
X143.62Y-183.93
X143.63Y-157.61
X144.585Y-171.505
X144.68Y-157.7
X145.68Y-164.81
X145.75Y-99.71
X146.31Y-187.33
X146.31Y-189.36
X146.32Y-188.41
X146.34Y-185.19
X146.35Y-186.39
X146.362Y-161.82
X146.41Y-173.03
X146.62Y-173.76
X146.64Y-174.77
X146.65Y-175.78
X146.65Y-176.79
X147.31Y-192.14
X147.722Y-155.955
X148.72Y-153.1
X149.83Y-192.14
X149.93Y-187.66
X150.32Y-94.67
X150.691Y-159.021
X150.84Y-157.72
X150.97Y-98.21
X151.13Y-94.65
X151.29Y-104.65
X151.66Y-161.87
X151.68Y-158.81
X151.7Y-159.81
X151.7Y-160.84
X151.94Y-162.856
X152.93Y-186.57
X153.37Y-163.61
X153.56Y-156.2
X153.8Y-186.9
X154.04Y-163.98
X154.35Y-158.82
X154.567Y-100.053
X154.63Y-156.18
X154.7Y-163.2
X154.77Y-165.41
X154.79Y-167.44
X154.8Y-178.41
X154.82Y-116.46
X154.871Y-161.559
X154.88Y-173.92
X155.07Y-192.06
X155.35Y-100.0
X156.11Y-109.77
X159.8Y-117.39
X164.338Y-196.342
X164.93Y-178.41
X165.002Y-165.607
X165.15Y-171.61
X165.19Y-160.72
X165.19Y-161.75
X165.19Y-162.7
X165.19Y-163.71
X165.19Y-164.71
X165.24Y-192.14
X165.26Y-188.19
X165.26Y-188.95
X165.26Y-189.72
X165.26Y-190.5
X165.26Y-191.32
X167.78Y-160.73
X167.78Y-161.72
X167.78Y-162.73
X167.78Y-163.73
X167.78Y-164.74
X168.19Y-187.12
X168.19Y-188.14
X168.19Y-189.21
X168.19Y-190.2
X168.19Y-191.27
X170.61Y-174.19
X170.69Y-190.6
X170.91Y-185.72
X171.48Y-189.32
X173.714Y-186.86
X173.76Y-187.65
X173.8Y-188.4
X173.8Y-189.325
X173.8Y-190.25
X173.97Y-179.31
X174.6Y-194.36
X174.86Y-157.46
X175.65Y-194.37
X175.87Y-163.79
X176.197Y-189.792
X176.21Y-171.1
X176.28Y-184.7
X176.3Y-178.05
X176.37Y-157.59
X176.37Y-187.94
X176.39Y-187.13
X176.4Y-185.47
X176.43Y-186.24
X185.674Y-152.908
X186.66Y-164.72
X186.71Y-171.07
X186.86Y-158.53
X186.86Y-159.4
X186.86Y-161.17
X186.86Y-184.9
X186.88Y-157.67
X186.88Y-160.26
X186.9Y-156.72
X188.425Y-177.75
X189.77Y-189.48
X189.8Y-185.63
X189.8Y-187.54
X189.8Y-188.5
X189.82Y-186.59
X189.89Y-158.11
X189.89Y-159.06
X189.89Y-160.05
X189.92Y-161.07
X190.1Y-157.09
X190.339Y-176.084
X191.67Y-163.36
X192.26Y-185.66
X192.26Y-186.61
X192.28Y-187.57
X192.31Y-188.52
X192.31Y-189.45
X192.529Y-172.054
X194.73Y-112.02
X195.23Y-175.567
X195.23Y-176.505
X195.23Y-177.442
X195.23Y-178.38
X195.46Y-174.63
X196.06Y-116.44
X197.82Y-192.14
X198.01Y-174.65
X198.01Y-175.43
X198.01Y-176.214
X198.01Y-176.988
X198.01Y-177.74
X198.01Y-178.73
X198.14Y-164.65
X199.77Y-96.74
X200.89Y-117.4
X201.94Y-103.89
X203.18Y-98.91
X204.275Y-99.17
X204.51Y-95.26
X204.57Y-100.94
X205.04Y-92.89
X205.349Y-95.244
X205.42Y-146.28
X206.3Y-95.225
X206.9Y-100.89
X207.518Y-197.104
X207.76Y-97.785
X207.77Y-100.94
X208.2Y-188.33
X208.44Y-178.73
X208.61Y-92.85
X208.65Y-96.75
X208.85Y-102.39
X208.86Y-103.22
X209.03Y-164.83
X209.08Y-185.05
X209.52Y-156.99
X209.56Y-172.15
X209.69Y-185.58
X209.91Y-163.5
X210.1Y-100.94
X210.11Y-102.81
X210.28Y-99.397
X210.43Y-97.77
X210.53Y-156.99
X210.58Y-172.125
X210.613Y-96.694
X210.65Y-106.18
X210.91Y-180.24
X210.91Y-183.04
X211.11Y-94.175
X211.2Y-105.59
X211.5Y-190.0
X211.6Y-190.93
X211.79Y-93.15
X211.92Y-180.24
X211.93Y-183.04
X212.1Y-108.94
X212.92Y-183.06
X212.93Y-97.97
X212.93Y-180.24
X213.715Y-91.545
X213.77Y-97.97
X213.82Y-175.67
X213.92Y-180.23
X213.93Y-183.06
X213.995Y-102.88
X214.47Y-101.22
X214.48Y-99.55
X214.94Y-180.24
X214.94Y-183.06
X214.99Y-97.995
X215.027Y-160.913
X215.2Y-100.377
X215.35Y-102.765
X215.64Y-94.96
X215.89Y-101.22
X215.9Y-99.55
X216.25Y-102.71
X216.62Y-91.55
X216.72Y-106.71
X216.75Y-107.48
X216.93Y-97.995
X217.01Y-102.795
X218.0Y-95.855
X218.01Y-160.1
X218.01Y-164.99
X218.01Y-173.96
X218.01Y-178.85
X218.01Y-187.65
X218.01Y-192.61
X218.2Y-109.96
X218.23Y-107.28
X219.53Y-107.23
X219.68Y-162.21
X219.87Y-97.785
X219.96Y-101.385
X220.65Y-95.57
X220.66Y-94.51
X220.73Y-106.73
X222.65Y-101.39
X222.66Y-97.78
X224.9Y-107.9
X224.97Y-99.62
X225.994Y-107.416
X226.488Y-108.028
X227.4Y-162.85
X227.4Y-164.23
X227.43Y-161.57
X227.55Y-82.23
X230.195Y-149.85
X230.24Y-150.73
X232.0Y-146.13
X232.2Y-171.1
X232.6Y-159.3
X232.64Y-155.86
X232.81Y-81.08
X234.74Y-179.44
X235.32Y-141.91
X235.56Y-145.11
X235.57Y-153.12
X235.91Y-141.36
X236.38Y-146.88
X236.46Y-140.72
T2
X135.54Y-161.275
X135.54Y-174.965
X135.54Y-188.645
X135.542Y-163.145
X135.542Y-176.835
X135.542Y-190.515
X136.371Y-161.275
X136.371Y-174.965
X136.371Y-188.645
X136.373Y-163.145
X136.373Y-176.835
X136.373Y-190.515
X137.2Y-164.015
X137.2Y-177.705
X137.2Y-191.385
X137.203Y-161.275
X137.203Y-174.965
X137.203Y-188.645
X137.205Y-163.145
X137.205Y-176.835
X137.205Y-190.515
X137.22Y-160.365
X137.22Y-174.055
X137.22Y-187.735
X137.23Y-162.155
X137.23Y-175.845
X137.23Y-189.525
X138.034Y-161.275
X138.034Y-174.965
X138.034Y-188.645
X138.036Y-163.145
X138.036Y-176.835
X138.036Y-190.515
X138.866Y-161.275
X138.866Y-174.965
X138.866Y-188.645
X138.868Y-163.145
X138.868Y-176.835
X138.868Y-190.515
X139.69Y-160.365
X139.69Y-164.005
X139.69Y-174.055
X139.69Y-177.695
X139.69Y-187.735
X139.69Y-191.375
X139.697Y-161.275
X139.697Y-174.965
X139.697Y-188.645
X139.699Y-163.145
X139.699Y-176.835
X139.699Y-190.515
X139.7Y-162.135
X139.7Y-175.825
X139.7Y-189.505
X140.529Y-161.275
X140.529Y-174.965
X140.529Y-188.645
X140.531Y-163.145
X140.531Y-176.835
X140.531Y-190.515
X141.36Y-161.275
X141.36Y-174.965
X141.36Y-188.645
X141.362Y-163.145
X141.362Y-176.835
X141.362Y-190.515
X157.088Y-172.815
X157.088Y-186.485
X157.09Y-174.685
X157.09Y-188.355
X157.108Y-159.135
X157.11Y-161.005
X157.919Y-172.815
X157.919Y-186.485
X157.921Y-174.685
X157.921Y-188.355
X157.939Y-159.135
X157.941Y-161.005
X158.75Y-173.825
X158.75Y-187.495
X158.751Y-172.815
X158.751Y-186.485
X158.753Y-174.685
X158.753Y-188.355
X158.76Y-171.955
X158.76Y-175.595
X158.76Y-185.625
X158.76Y-189.265
X158.77Y-160.145
X158.771Y-159.135
X158.773Y-161.005
X158.78Y-158.275
X158.78Y-161.915
X159.582Y-172.815
X159.582Y-186.485
X159.584Y-174.685
X159.584Y-188.355
X159.602Y-159.135
X159.604Y-161.005
X160.414Y-172.815
X160.414Y-186.485
X160.416Y-174.685
X160.416Y-188.355
X160.434Y-159.135
X160.436Y-161.005
X161.22Y-173.805
X161.22Y-187.475
X161.23Y-175.595
X161.23Y-189.265
X161.24Y-160.125
X161.245Y-172.815
X161.245Y-186.485
X161.247Y-174.685
X161.247Y-188.355
X161.25Y-161.915
X161.25Y-171.945
X161.25Y-185.615
X161.265Y-159.135
X161.267Y-161.005
X161.27Y-158.265
X162.077Y-172.815
X162.077Y-186.485
X162.079Y-174.685
X162.079Y-188.355
X162.097Y-159.135
X162.099Y-161.005
X162.908Y-172.815
X162.908Y-186.485
X162.91Y-174.685
X162.91Y-188.355
X162.928Y-159.135
X162.93Y-161.005
X178.58Y-161.305
X178.58Y-174.985
X178.58Y-188.675
X178.582Y-163.175
X178.582Y-176.855
X178.582Y-190.545
X179.411Y-161.305
X179.411Y-174.985
X179.411Y-188.675
X179.413Y-163.175
X179.413Y-176.855
X179.413Y-190.545
X180.24Y-164.045
X180.24Y-177.725
X180.24Y-191.415
X180.243Y-161.305
X180.243Y-174.985
X180.243Y-188.675
X180.245Y-163.175
X180.245Y-176.855
X180.245Y-190.545
X180.26Y-160.395
X180.26Y-174.075
X180.26Y-187.765
X180.27Y-162.185
X180.27Y-175.865
X180.27Y-189.555
X181.074Y-161.305
X181.074Y-174.985
X181.074Y-188.675
X181.076Y-163.175
X181.076Y-176.855
X181.076Y-190.545
X181.906Y-161.305
X181.906Y-174.985
X181.906Y-188.675
X181.908Y-163.175
X181.908Y-176.855
X181.908Y-190.545
X182.73Y-160.395
X182.73Y-164.035
X182.73Y-174.075
X182.73Y-177.715
X182.73Y-187.765
X182.73Y-191.405
X182.737Y-161.305
X182.737Y-174.985
X182.737Y-188.675
X182.739Y-163.175
X182.739Y-176.855
X182.739Y-190.545
X182.74Y-162.165
X182.74Y-175.845
X182.74Y-189.535
X183.569Y-161.305
X183.569Y-174.985
X183.569Y-188.675
X183.571Y-163.175
X183.571Y-176.855
X183.571Y-190.545
X184.4Y-161.305
X184.4Y-174.985
X184.4Y-188.675
X184.402Y-163.175
X184.402Y-176.855
X184.402Y-190.545
X200.148Y-159.225
X200.148Y-172.905
X200.148Y-186.595
X200.15Y-161.095
X200.15Y-174.775
X200.15Y-188.465
X200.979Y-159.225
X200.979Y-172.905
X200.979Y-186.595
X200.981Y-161.095
X200.981Y-174.775
X200.981Y-188.465
X201.81Y-160.235
X201.81Y-173.915
X201.81Y-187.605
X201.811Y-159.225
X201.811Y-172.905
X201.811Y-186.595
X201.813Y-161.095
X201.813Y-174.775
X201.813Y-188.465
X201.82Y-158.365
X201.82Y-162.005
X201.82Y-172.045
X201.82Y-175.685
X201.82Y-185.735
X201.82Y-189.375
X202.642Y-159.225
X202.642Y-172.905
X202.642Y-186.595
X202.644Y-161.095
X202.644Y-174.775
X202.644Y-188.465
X203.474Y-159.225
X203.474Y-172.905
X203.474Y-186.595
X203.476Y-161.095
X203.476Y-174.775
X203.476Y-188.465
X204.28Y-160.215
X204.28Y-173.895
X204.28Y-187.585
X204.29Y-162.005
X204.29Y-175.685
X204.29Y-189.375
X204.305Y-159.225
X204.305Y-172.905
X204.305Y-186.595
X204.307Y-161.095
X204.307Y-174.775
X204.307Y-188.465
X204.31Y-158.355
X204.31Y-172.035
X204.31Y-185.725
X205.137Y-159.225
X205.137Y-172.905
X205.137Y-186.595
X205.139Y-161.095
X205.139Y-174.775
X205.139Y-188.465
X205.968Y-159.225
X205.968Y-172.905
X205.968Y-186.595
X205.97Y-161.095
X205.97Y-174.775
X205.97Y-188.465
T3
X122.33Y-95.85
X122.89Y-92.13
X130.87Y-84.42
X131.7Y-101.2
X138.43Y-100.68
X140.2Y-84.2
X147.99Y-88.81
X148.5Y-93.45
X150.9Y-86.9
X152.8Y-94.695
X154.15Y-88.26
X154.39Y-94.68
X156.462Y-99.268
X157.712Y-99.268
X157.952Y-89.788
X222.66Y-94.78
T4
X126.56Y-139.78
X126.56Y-141.17
X126.57Y-134.22
X126.57Y-135.59
X126.57Y-136.95
X126.57Y-138.34
X126.6Y-132.81
X127.97Y-139.81
X127.97Y-141.2
X127.98Y-134.25
X127.98Y-135.62
X127.98Y-136.98
X127.98Y-138.37
X128.01Y-132.84
X129.49Y-139.79
X129.49Y-141.18
X129.5Y-134.23
X129.5Y-135.6
X129.5Y-136.96
X129.5Y-138.35
X129.53Y-132.82
X131.04Y-139.8
X131.04Y-141.19
X131.05Y-134.24
X131.05Y-135.61
X131.05Y-136.97
X131.05Y-138.36
X131.08Y-132.83
X132.56Y-139.78
X132.56Y-141.17
X132.57Y-134.22
X132.57Y-135.59
X132.57Y-136.95
X132.57Y-138.34
X132.6Y-132.81
X134.15Y-139.78
X134.15Y-141.17
X134.16Y-134.22
X134.16Y-135.59
X134.16Y-136.95
X134.16Y-138.34
X134.19Y-132.81
X135.67Y-139.77
X135.67Y-141.16
X135.68Y-134.21
X135.68Y-135.58
X135.68Y-136.94
X135.68Y-138.33
X135.71Y-132.8
X154.39Y-132.56
X154.39Y-133.95
X155.98Y-132.56
X155.98Y-133.95
X162.17Y-102.3
X162.17Y-103.74
X162.17Y-105.104
X162.17Y-106.474
X163.764Y-102.3
X163.764Y-103.74
X163.764Y-105.104
X163.764Y-106.474
X165.26Y-103.73
X165.27Y-102.29
X166.63Y-103.73
X166.64Y-102.29
X167.99Y-103.73
X168.0Y-102.29
X168.04Y-135.88
X168.04Y-137.47
X169.38Y-103.73
X169.39Y-102.29
X169.43Y-135.88
X169.43Y-137.47
X177.88Y-96.6
X193.44Y-101.19
X193.44Y-102.78
X193.44Y-104.29
X193.44Y-105.66
X193.44Y-107.02
X193.44Y-108.41
X194.92Y-101.19
X194.92Y-102.78
X194.92Y-104.29
X194.92Y-105.66
X194.92Y-107.02
X194.92Y-108.41
X196.28Y-101.19
X196.28Y-102.78
X197.67Y-101.19
X197.67Y-102.78
X199.08Y-101.18
X199.08Y-102.77
X199.39Y-128.05
X200.91Y-128.1
X202.44Y-130.93
X202.5Y-128.1
X202.5Y-129.49
X212.55Y-88.25
X217.32Y-88.22
X218.2Y-132.58
X218.2Y-134.17
X218.2Y-135.77
X218.2Y-137.29
X218.2Y-138.88
X218.2Y-140.3
X218.2Y-142.02
X219.64Y-132.56
X219.64Y-134.15
X219.64Y-135.75
X219.64Y-137.27
X219.64Y-138.86
X219.697Y-140.28
X219.697Y-142.0
X221.194Y-140.22
X221.194Y-141.94
X222.691Y-140.22
X222.691Y-141.94
X224.189Y-140.22
X224.189Y-141.94
X225.686Y-140.22
X225.686Y-141.94
X226.93Y-93.33
X226.93Y-94.93
X227.183Y-140.22
X227.183Y-141.94
X227.2Y-132.5
X227.2Y-134.09
X227.2Y-135.69
X227.2Y-137.21
X227.2Y-138.8
X228.68Y-132.5
X228.68Y-134.09
X228.68Y-135.69
X228.68Y-137.21
X228.68Y-138.8
X228.68Y-140.22
X228.68Y-141.94
X230.97Y-91.13
X232.375Y-91.135
T6
X164.296Y-81.25
X164.296Y-88.25
X169.296Y-81.25
X169.296Y-88.25
X185.806Y-81.25
X185.806Y-88.25
X190.806Y-81.25
X190.806Y-88.25
T7
X148.93Y-167.77
X148.93Y-181.77
X170.93Y-167.77
X170.93Y-181.77
X192.93Y-167.77
X192.93Y-181.77
T5
G00X210.66Y-81.665
M15
G01X210.66Y-80.865
M16
G05
G00X210.66Y-85.995
M15
G01X210.66Y-84.895
M16
G05
G00X219.3Y-81.665
M15
G01X219.3Y-80.865
M16
G05
G00X219.3Y-85.995
M15
G01X219.3Y-84.895
M16
G05
M30
