%TF.GenerationSoftware,KiCad,Pcbnew,8.0.7*%
%TF.CreationDate,2025-01-15T12:36:27-05:00*%
%TF.ProjectId,emberone,656d6265-726f-46e6-952e-6b696361645f,rev?*%
%TF.SameCoordinates,Original*%
%TF.FileFunction,Copper,L1,Top*%
%TF.FilePolarity,Positive*%
%FSLAX46Y46*%
G04 Gerber Fmt 4.6, Leading zero omitted, Abs format (unit mm)*
G04 Created by KiCad (PCBNEW 8.0.7) date 2025-01-15 12:36:27*
%MOMM*%
%LPD*%
G01*
G04 APERTURE LIST*
G04 Aperture macros list*
%AMRoundRect*
0 Rectangle with rounded corners*
0 $1 Rounding radius*
0 $2 $3 $4 $5 $6 $7 $8 $9 X,Y pos of 4 corners*
0 Add a 4 corners polygon primitive as box body*
4,1,4,$2,$3,$4,$5,$6,$7,$8,$9,$2,$3,0*
0 Add four circle primitives for the rounded corners*
1,1,$1+$1,$2,$3*
1,1,$1+$1,$4,$5*
1,1,$1+$1,$6,$7*
1,1,$1+$1,$8,$9*
0 Add four rect primitives between the rounded corners*
20,1,$1+$1,$2,$3,$4,$5,0*
20,1,$1+$1,$4,$5,$6,$7,0*
20,1,$1+$1,$6,$7,$8,$9,0*
20,1,$1+$1,$8,$9,$2,$3,0*%
G04 Aperture macros list end*
%TA.AperFunction,EtchedComponent*%
%ADD10C,0.000000*%
%TD*%
%TA.AperFunction,SMDPad,CuDef*%
%ADD11R,3.302000X1.498600*%
%TD*%
%TA.AperFunction,SMDPad,CuDef*%
%ADD12R,1.498600X3.302000*%
%TD*%
%TA.AperFunction,SMDPad,CuDef*%
%ADD13RoundRect,0.100000X0.400000X0.100000X-0.400000X0.100000X-0.400000X-0.100000X0.400000X-0.100000X0*%
%TD*%
%TA.AperFunction,SMDPad,CuDef*%
%ADD14R,6.440000X1.850000*%
%TD*%
%TA.AperFunction,ComponentPad*%
%ADD15C,0.540000*%
%TD*%
%TA.AperFunction,SMDPad,CuDef*%
%ADD16R,6.440000X5.490000*%
%TD*%
%TA.AperFunction,HeatsinkPad*%
%ADD17C,0.540000*%
%TD*%
%TA.AperFunction,SMDPad,CuDef*%
%ADD18RoundRect,0.100000X-0.400000X-0.100000X0.400000X-0.100000X0.400000X0.100000X-0.400000X0.100000X0*%
%TD*%
%TA.AperFunction,ComponentPad*%
%ADD19O,1.000000X1.800000*%
%TD*%
%TA.AperFunction,ComponentPad*%
%ADD20O,1.000000X2.100000*%
%TD*%
%TA.AperFunction,SMDPad,CuDef*%
%ADD21RoundRect,0.075000X0.075000X0.500000X-0.075000X0.500000X-0.075000X-0.500000X0.075000X-0.500000X0*%
%TD*%
%TA.AperFunction,SMDPad,CuDef*%
%ADD22RoundRect,0.150000X0.150000X0.425000X-0.150000X0.425000X-0.150000X-0.425000X0.150000X-0.425000X0*%
%TD*%
%TA.AperFunction,SMDPad,CuDef*%
%ADD23RoundRect,0.150000X0.150000X0.400000X-0.150000X0.400000X-0.150000X-0.400000X0.150000X-0.400000X0*%
%TD*%
%TA.AperFunction,SMDPad,CuDef*%
%ADD24R,3.352800X1.905000*%
%TD*%
%TA.AperFunction,SMDPad,CuDef*%
%ADD25RoundRect,0.100000X0.100000X-0.637500X0.100000X0.637500X-0.100000X0.637500X-0.100000X-0.637500X0*%
%TD*%
%TA.AperFunction,SMDPad,CuDef*%
%ADD26RoundRect,0.200000X0.275000X-0.200000X0.275000X0.200000X-0.275000X0.200000X-0.275000X-0.200000X0*%
%TD*%
%TA.AperFunction,SMDPad,CuDef*%
%ADD27RoundRect,0.250000X0.475000X-0.250000X0.475000X0.250000X-0.475000X0.250000X-0.475000X-0.250000X0*%
%TD*%
%TA.AperFunction,SMDPad,CuDef*%
%ADD28R,1.168400X0.711200*%
%TD*%
%TA.AperFunction,SMDPad,CuDef*%
%ADD29R,6.440000X6.000000*%
%TD*%
%TA.AperFunction,SMDPad,CuDef*%
%ADD30R,14.000000X9.000000*%
%TD*%
%TA.AperFunction,SMDPad,CuDef*%
%ADD31RoundRect,0.200000X0.200000X0.275000X-0.200000X0.275000X-0.200000X-0.275000X0.200000X-0.275000X0*%
%TD*%
%TA.AperFunction,ComponentPad*%
%ADD32C,6.400000*%
%TD*%
%TA.AperFunction,SMDPad,CuDef*%
%ADD33RoundRect,0.135000X0.135000X0.185000X-0.135000X0.185000X-0.135000X-0.185000X0.135000X-0.185000X0*%
%TD*%
%TA.AperFunction,SMDPad,CuDef*%
%ADD34R,0.509999X0.910001*%
%TD*%
%TA.AperFunction,SMDPad,CuDef*%
%ADD35R,4.570001X4.490001*%
%TD*%
%TA.AperFunction,SMDPad,CuDef*%
%ADD36RoundRect,0.140000X0.140000X0.170000X-0.140000X0.170000X-0.140000X-0.170000X0.140000X-0.170000X0*%
%TD*%
%TA.AperFunction,SMDPad,CuDef*%
%ADD37RoundRect,0.250000X-0.475000X0.250000X-0.475000X-0.250000X0.475000X-0.250000X0.475000X0.250000X0*%
%TD*%
%TA.AperFunction,SMDPad,CuDef*%
%ADD38R,1.000000X1.500000*%
%TD*%
%TA.AperFunction,HeatsinkPad*%
%ADD39R,3.200000X3.200000*%
%TD*%
%TA.AperFunction,SMDPad,CuDef*%
%ADD40RoundRect,0.050000X-0.050000X-0.387500X0.050000X-0.387500X0.050000X0.387500X-0.050000X0.387500X0*%
%TD*%
%TA.AperFunction,SMDPad,CuDef*%
%ADD41RoundRect,0.050000X-0.387500X-0.050000X0.387500X-0.050000X0.387500X0.050000X-0.387500X0.050000X0*%
%TD*%
%TA.AperFunction,SMDPad,CuDef*%
%ADD42RoundRect,0.200000X-0.275000X0.200000X-0.275000X-0.200000X0.275000X-0.200000X0.275000X0.200000X0*%
%TD*%
%TA.AperFunction,SMDPad,CuDef*%
%ADD43RoundRect,0.140000X-0.170000X0.140000X-0.170000X-0.140000X0.170000X-0.140000X0.170000X0.140000X0*%
%TD*%
%TA.AperFunction,SMDPad,CuDef*%
%ADD44RoundRect,0.140000X-0.140000X-0.170000X0.140000X-0.170000X0.140000X0.170000X-0.140000X0.170000X0*%
%TD*%
%TA.AperFunction,SMDPad,CuDef*%
%ADD45R,9.000000X5.000000*%
%TD*%
%TA.AperFunction,SMDPad,CuDef*%
%ADD46R,1.905000X3.352800*%
%TD*%
%TA.AperFunction,SMDPad,CuDef*%
%ADD47RoundRect,0.250000X0.250000X0.475000X-0.250000X0.475000X-0.250000X-0.475000X0.250000X-0.475000X0*%
%TD*%
%TA.AperFunction,SMDPad,CuDef*%
%ADD48RoundRect,0.135000X0.185000X-0.135000X0.185000X0.135000X-0.185000X0.135000X-0.185000X-0.135000X0*%
%TD*%
%TA.AperFunction,SMDPad,CuDef*%
%ADD49RoundRect,0.135000X-0.185000X0.135000X-0.185000X-0.135000X0.185000X-0.135000X0.185000X0.135000X0*%
%TD*%
%TA.AperFunction,SMDPad,CuDef*%
%ADD50R,1.000000X1.200000*%
%TD*%
%TA.AperFunction,SMDPad,CuDef*%
%ADD51R,0.700000X1.200000*%
%TD*%
%TA.AperFunction,SMDPad,CuDef*%
%ADD52R,0.450000X1.200000*%
%TD*%
%TA.AperFunction,SMDPad,CuDef*%
%ADD53RoundRect,0.140000X0.170000X-0.140000X0.170000X0.140000X-0.170000X0.140000X-0.170000X-0.140000X0*%
%TD*%
%TA.AperFunction,SMDPad,CuDef*%
%ADD54RoundRect,0.112500X0.112500X-0.612500X0.112500X0.612500X-0.112500X0.612500X-0.112500X-0.612500X0*%
%TD*%
%TA.AperFunction,ComponentPad*%
%ADD55C,3.200000*%
%TD*%
%TA.AperFunction,SMDPad,CuDef*%
%ADD56R,0.711200X1.168400*%
%TD*%
%TA.AperFunction,SMDPad,CuDef*%
%ADD57R,5.334000X5.588000*%
%TD*%
%TA.AperFunction,SMDPad,CuDef*%
%ADD58R,6.350000X5.283200*%
%TD*%
%TA.AperFunction,SMDPad,CuDef*%
%ADD59R,0.950000X2.150000*%
%TD*%
%TA.AperFunction,SMDPad,CuDef*%
%ADD60R,3.250000X2.150000*%
%TD*%
%TA.AperFunction,SMDPad,CuDef*%
%ADD61R,0.812800X0.254000*%
%TD*%
%TA.AperFunction,SMDPad,CuDef*%
%ADD62R,0.254000X1.651000*%
%TD*%
%TA.AperFunction,SMDPad,CuDef*%
%ADD63R,3.454400X5.588000*%
%TD*%
%TA.AperFunction,SMDPad,CuDef*%
%ADD64RoundRect,0.135000X-0.135000X-0.185000X0.135000X-0.185000X0.135000X0.185000X-0.135000X0.185000X0*%
%TD*%
%TA.AperFunction,SMDPad,CuDef*%
%ADD65RoundRect,0.200000X-0.200000X-0.275000X0.200000X-0.275000X0.200000X0.275000X-0.200000X0.275000X0*%
%TD*%
%TA.AperFunction,SMDPad,CuDef*%
%ADD66R,1.100000X1.300000*%
%TD*%
%TA.AperFunction,SMDPad,CuDef*%
%ADD67R,0.400000X1.100000*%
%TD*%
%TA.AperFunction,SMDPad,CuDef*%
%ADD68R,0.254000X0.609600*%
%TD*%
%TA.AperFunction,SMDPad,CuDef*%
%ADD69R,0.609600X0.254000*%
%TD*%
%TA.AperFunction,SMDPad,CuDef*%
%ADD70R,3.098800X3.098800*%
%TD*%
%TA.AperFunction,SMDPad,CuDef*%
%ADD71RoundRect,0.250000X-0.250000X-0.475000X0.250000X-0.475000X0.250000X0.475000X-0.250000X0.475000X0*%
%TD*%
%TA.AperFunction,SMDPad,CuDef*%
%ADD72R,0.910001X0.509999*%
%TD*%
%TA.AperFunction,SMDPad,CuDef*%
%ADD73R,4.490001X4.570001*%
%TD*%
%TA.AperFunction,SMDPad,CuDef*%
%ADD74RoundRect,0.100000X-0.100000X0.637500X-0.100000X-0.637500X0.100000X-0.637500X0.100000X0.637500X0*%
%TD*%
%TA.AperFunction,ViaPad*%
%ADD75C,0.500000*%
%TD*%
%TA.AperFunction,ViaPad*%
%ADD76C,0.800000*%
%TD*%
%TA.AperFunction,ViaPad*%
%ADD77C,1.000000*%
%TD*%
%TA.AperFunction,Conductor*%
%ADD78C,0.200000*%
%TD*%
%TA.AperFunction,Conductor*%
%ADD79C,1.500000*%
%TD*%
%TA.AperFunction,Conductor*%
%ADD80C,0.508000*%
%TD*%
%TA.AperFunction,Conductor*%
%ADD81C,0.254000*%
%TD*%
%TA.AperFunction,Conductor*%
%ADD82C,0.381000*%
%TD*%
%TA.AperFunction,Conductor*%
%ADD83C,0.400000*%
%TD*%
%TA.AperFunction,Conductor*%
%ADD84C,0.600000*%
%TD*%
G04 APERTURE END LIST*
D10*
%TA.AperFunction,EtchedComponent*%
%TO.C,JP1*%
G36*
X125240000Y-88730000D02*
G01*
X124740000Y-88730000D01*
X124740000Y-88130000D01*
X125240000Y-88130000D01*
X125240000Y-88730000D01*
G37*
%TD.AperFunction*%
%TD*%
D11*
%TO.P,C4,1*%
%TO.N,/Power/VIN_M*%
X173200000Y-111760000D03*
%TO.P,C4,2*%
%TO.N,GND*%
X180108800Y-111760000D03*
%TD*%
D12*
%TO.P,C1,1*%
%TO.N,/Power/VIN_M*%
X166300000Y-108457900D03*
%TO.P,C1,2*%
%TO.N,GND*%
X166300000Y-115366700D03*
%TD*%
D11*
%TO.P,C3,1*%
%TO.N,/Power/VIN_M*%
X173200000Y-102300000D03*
%TO.P,C3,2*%
%TO.N,GND*%
X180108800Y-102300000D03*
%TD*%
D13*
%TO.P,U55,1,VSS*%
%TO.N,/stack5/GND1*%
X164050000Y-178410000D03*
%TO.P,U55,2,CO*%
%TO.N,Net-(U55-CO)*%
X164050000Y-177760000D03*
%TO.P,U55,3,CLKO*%
%TO.N,Net-(U55-CLKO)*%
X164050000Y-177110000D03*
%TO.P,U55,4,RI*%
%TO.N,Net-(U55-RI)*%
X164050000Y-176460000D03*
%TO.P,U55,5,BO*%
%TO.N,Net-(U55-BO)*%
X164050000Y-175810000D03*
%TO.P,U55,6,NRSTO*%
%TO.N,Net-(U55-NRSTO)*%
X164050000Y-175160000D03*
%TO.P,U55,7,INV_CLKO*%
%TO.N,unconnected-(U55-INV_CLKO-Pad7)*%
X164050000Y-174510000D03*
%TO.P,U55,8,TEMP_P*%
%TO.N,unconnected-(U55-TEMP_P-Pad8)*%
X164050000Y-173860000D03*
%TO.P,U55,9,TEMP_N*%
%TO.N,unconnected-(U55-TEMP_N-Pad9)*%
X164050000Y-173210000D03*
%TO.P,U55,10,VSS*%
%TO.N,/stack5/GND1*%
X164050000Y-172560000D03*
%TO.P,U55,11,VDDIO_08_0*%
%TO.N,/stack5/0V8-1*%
X164050000Y-171910000D03*
%TO.P,U55,12,VDDIO_18_0*%
%TO.N,unconnected-(U55-VDDIO_18_0-Pad12)*%
X164050000Y-171260000D03*
%TO.P,U55,13,VDDIO_18_1*%
%TO.N,/stack5/1V2-1*%
X155990000Y-171260000D03*
%TO.P,U55,14,VDDIO_08_1*%
%TO.N,unconnected-(U55-VDDIO_08_1-Pad14)*%
X155990000Y-171910000D03*
%TO.P,U55,15,PLL_VSS*%
%TO.N,/stack5/GND1*%
X155990000Y-172560000D03*
%TO.P,U55,16,POR_EN*%
%TO.N,unconnected-(U55-POR_EN-Pad16)*%
X155990000Y-173210000D03*
%TO.P,U55,17,PIN_MODE*%
%TO.N,/stack5/GND1*%
X155990000Y-173860000D03*
%TO.P,U55,18,VSS*%
X155990000Y-174510000D03*
%TO.P,U55,19,NRSTI*%
%TO.N,Net-(U55-NRSTI)*%
X155990000Y-175160000D03*
%TO.P,U55,20,BI*%
%TO.N,Net-(U55-BI)*%
X155990000Y-175810000D03*
%TO.P,U55,21,RO*%
%TO.N,Net-(U55-RO)*%
X155990000Y-176460000D03*
%TO.P,U55,22,CLKI*%
%TO.N,Net-(U55-CLKI)*%
X155990000Y-177110000D03*
%TO.P,U55,23,CI*%
%TO.N,Net-(U55-CI)*%
X155990000Y-177760000D03*
%TO.P,U55,24,VSS*%
%TO.N,/stack5/GND1*%
X155990000Y-178410000D03*
D14*
%TO.P,U55,25,VDD*%
%TO.N,/stack5/GND0*%
X159990000Y-177760000D03*
D15*
%TO.P,U55,26,VSS*%
%TO.N,/stack5/GND1*%
X162910000Y-174685000D03*
X162908000Y-172815000D03*
X162078572Y-174685000D03*
X162076572Y-172815000D03*
X161250000Y-171945000D03*
X161247144Y-174685000D03*
X161245144Y-172815000D03*
X161230000Y-175595000D03*
X161220000Y-173805000D03*
X160415716Y-174685000D03*
X160413716Y-172815000D03*
D16*
X159990000Y-173730000D03*
D15*
X159584288Y-174685000D03*
X159582288Y-172815000D03*
D17*
X158760000Y-175595000D03*
D15*
X158760000Y-171955000D03*
X158752860Y-174685000D03*
X158750860Y-172815000D03*
X158750000Y-173825000D03*
X157921432Y-174685000D03*
X157919432Y-172815000D03*
X157090000Y-174685000D03*
X157088000Y-172815000D03*
%TD*%
D18*
%TO.P,U65,1,VSS*%
%TO.N,/stack6/GND2*%
X177440000Y-184950000D03*
%TO.P,U65,2,CO*%
%TO.N,Net-(U65-CO)*%
X177440000Y-185600000D03*
%TO.P,U65,3,CLKO*%
%TO.N,Net-(U65-CLKO)*%
X177440000Y-186250000D03*
%TO.P,U65,4,RI*%
%TO.N,Net-(U65-RI)*%
X177440000Y-186900000D03*
%TO.P,U65,5,BO*%
%TO.N,Net-(U65-BO)*%
X177440000Y-187550000D03*
%TO.P,U65,6,NRSTO*%
%TO.N,Net-(U65-NRSTO)*%
X177440000Y-188200000D03*
%TO.P,U65,7,INV_CLKO*%
%TO.N,unconnected-(U65-INV_CLKO-Pad7)*%
X177440000Y-188850000D03*
%TO.P,U65,8,TEMP_P*%
%TO.N,unconnected-(U65-TEMP_P-Pad8)*%
X177440000Y-189500000D03*
%TO.P,U65,9,TEMP_N*%
%TO.N,unconnected-(U65-TEMP_N-Pad9)*%
X177440000Y-190150000D03*
%TO.P,U65,10,VSS*%
%TO.N,/stack6/GND2*%
X177440000Y-190800000D03*
%TO.P,U65,11,VDDIO_08_0*%
%TO.N,/stack6/0V8-2*%
X177440000Y-191450000D03*
%TO.P,U65,12,VDDIO_18_0*%
%TO.N,/stack6/1V2-2*%
X177440000Y-192100000D03*
%TO.P,U65,13,VDDIO_18_1*%
%TO.N,unconnected-(U65-VDDIO_18_1-Pad13)*%
X185500000Y-192100000D03*
%TO.P,U65,14,VDDIO_08_1*%
%TO.N,unconnected-(U65-VDDIO_08_1-Pad14)*%
X185500000Y-191450000D03*
%TO.P,U65,15,PLL_VSS*%
%TO.N,/stack6/GND2*%
X185500000Y-190800000D03*
%TO.P,U65,16,POR_EN*%
%TO.N,unconnected-(U65-POR_EN-Pad16)*%
X185500000Y-190150000D03*
%TO.P,U65,17,PIN_MODE*%
%TO.N,unconnected-(U65-PIN_MODE-Pad17)*%
X185500000Y-189500000D03*
%TO.P,U65,18,VSS*%
%TO.N,/stack6/GND2*%
X185500000Y-188850000D03*
%TO.P,U65,19,NRSTI*%
%TO.N,/stack6/NRSTI*%
X185500000Y-188200000D03*
%TO.P,U65,20,BI*%
%TO.N,/stack6/BI*%
X185500000Y-187550000D03*
%TO.P,U65,21,RO*%
%TO.N,/stack6/RO*%
X185500000Y-186900000D03*
%TO.P,U65,22,CLKI*%
%TO.N,/stack6/CLKI*%
X185500000Y-186250000D03*
%TO.P,U65,23,CI*%
%TO.N,/stack6/CI*%
X185500000Y-185600000D03*
%TO.P,U65,24,VSS*%
%TO.N,/stack6/GND2*%
X185500000Y-184950000D03*
D14*
%TO.P,U65,25,VDD*%
%TO.N,/stack6/GND1*%
X181500000Y-185600000D03*
D15*
%TO.P,U65,26,VSS*%
%TO.N,/stack6/GND2*%
X178580000Y-188675000D03*
X178582000Y-190545000D03*
X179411428Y-188675000D03*
X179413428Y-190545000D03*
X180240000Y-191415000D03*
X180242856Y-188675000D03*
X180244856Y-190545000D03*
X180260000Y-187765000D03*
X180270000Y-189555000D03*
X181074284Y-188675000D03*
X181076284Y-190545000D03*
D16*
X181500000Y-189630000D03*
D15*
X181905712Y-188675000D03*
X181907712Y-190545000D03*
D17*
X182730000Y-187765000D03*
D15*
X182730000Y-191405000D03*
X182737140Y-188675000D03*
X182739140Y-190545000D03*
X182740000Y-189535000D03*
X183568568Y-188675000D03*
X183570568Y-190545000D03*
X184400000Y-188675000D03*
X184402000Y-190545000D03*
%TD*%
D18*
%TO.P,U47,1,VSS*%
%TO.N,/stack4/GND2*%
X134400000Y-184920000D03*
%TO.P,U47,2,CO*%
%TO.N,Net-(U47-CO)*%
X134400000Y-185570000D03*
%TO.P,U47,3,CLKO*%
%TO.N,Net-(U47-CLKO)*%
X134400000Y-186220000D03*
%TO.P,U47,4,RI*%
%TO.N,Net-(U47-RI)*%
X134400000Y-186870000D03*
%TO.P,U47,5,BO*%
%TO.N,Net-(U47-BO)*%
X134400000Y-187520000D03*
%TO.P,U47,6,NRSTO*%
%TO.N,Net-(U47-NRSTO)*%
X134400000Y-188170000D03*
%TO.P,U47,7,INV_CLKO*%
%TO.N,unconnected-(U47-INV_CLKO-Pad7)*%
X134400000Y-188820000D03*
%TO.P,U47,8,TEMP_P*%
%TO.N,unconnected-(U47-TEMP_P-Pad8)*%
X134400000Y-189470000D03*
%TO.P,U47,9,TEMP_N*%
%TO.N,unconnected-(U47-TEMP_N-Pad9)*%
X134400000Y-190120000D03*
%TO.P,U47,10,VSS*%
%TO.N,/stack4/GND2*%
X134400000Y-190770000D03*
%TO.P,U47,11,VDDIO_08_0*%
%TO.N,/stack4/0V8-2*%
X134400000Y-191420000D03*
%TO.P,U47,12,VDDIO_18_0*%
%TO.N,/stack4/1V2-2*%
X134400000Y-192070000D03*
%TO.P,U47,13,VDDIO_18_1*%
%TO.N,unconnected-(U47-VDDIO_18_1-Pad13)*%
X142460000Y-192070000D03*
%TO.P,U47,14,VDDIO_08_1*%
%TO.N,unconnected-(U47-VDDIO_08_1-Pad14)*%
X142460000Y-191420000D03*
%TO.P,U47,15,PLL_VSS*%
%TO.N,/stack4/GND2*%
X142460000Y-190770000D03*
%TO.P,U47,16,POR_EN*%
%TO.N,unconnected-(U47-POR_EN-Pad16)*%
X142460000Y-190120000D03*
%TO.P,U47,17,PIN_MODE*%
%TO.N,unconnected-(U47-PIN_MODE-Pad17)*%
X142460000Y-189470000D03*
%TO.P,U47,18,VSS*%
%TO.N,/stack4/GND2*%
X142460000Y-188820000D03*
%TO.P,U47,19,NRSTI*%
%TO.N,/stack4/NRSTI*%
X142460000Y-188170000D03*
%TO.P,U47,20,BI*%
%TO.N,/stack4/BI*%
X142460000Y-187520000D03*
%TO.P,U47,21,RO*%
%TO.N,/stack4/RO*%
X142460000Y-186870000D03*
%TO.P,U47,22,CLKI*%
%TO.N,/stack4/CLKI*%
X142460000Y-186220000D03*
%TO.P,U47,23,CI*%
%TO.N,/stack4/CI*%
X142460000Y-185570000D03*
%TO.P,U47,24,VSS*%
%TO.N,/stack4/GND2*%
X142460000Y-184920000D03*
D14*
%TO.P,U47,25,VDD*%
%TO.N,/stack4/GND1*%
X138460000Y-185570000D03*
D15*
%TO.P,U47,26,VSS*%
%TO.N,/stack4/GND2*%
X135540000Y-188645000D03*
X135542000Y-190515000D03*
X136371428Y-188645000D03*
X136373428Y-190515000D03*
X137200000Y-191385000D03*
X137202856Y-188645000D03*
X137204856Y-190515000D03*
X137220000Y-187735000D03*
X137230000Y-189525000D03*
X138034284Y-188645000D03*
X138036284Y-190515000D03*
D16*
X138460000Y-189600000D03*
D15*
X138865712Y-188645000D03*
X138867712Y-190515000D03*
D17*
X139690000Y-187735000D03*
D15*
X139690000Y-191375000D03*
X139697140Y-188645000D03*
X139699140Y-190515000D03*
X139700000Y-189505000D03*
X140528568Y-188645000D03*
X140530568Y-190515000D03*
X141360000Y-188645000D03*
X141362000Y-190515000D03*
%TD*%
D13*
%TO.P,U74,1,VSS*%
%TO.N,GND*%
X207110000Y-164820000D03*
%TO.P,U74,2,NRSTI*%
%TO.N,/stack7/RST_N*%
X207110000Y-164170000D03*
%TO.P,U74,3,BI*%
%TO.N,Net-(U74-BI)*%
X207110000Y-163520000D03*
%TO.P,U74,4,RO*%
%TO.N,/stack7/RO*%
X207110000Y-162870000D03*
%TO.P,U74,5,CLKI*%
%TO.N,/stack7/CLKI*%
X207110000Y-162220000D03*
%TO.P,U74,6,CI*%
%TO.N,/stack7/CI*%
X207110000Y-161570000D03*
%TO.P,U74,7,INV_CLKO*%
%TO.N,unconnected-(U74-INV_CLKO-Pad7)*%
X207110000Y-160920000D03*
%TO.P,U74,8,TEMP_P*%
%TO.N,unconnected-(U74-TEMP_P-Pad8)*%
X207110000Y-160270000D03*
%TO.P,U74,9,TEMP_N*%
%TO.N,unconnected-(U74-TEMP_N-Pad9)*%
X207110000Y-159620000D03*
%TO.P,U74,10,VSS*%
%TO.N,GND*%
X207110000Y-158970000D03*
%TO.P,U74,11,VDDIO_08_0*%
%TO.N,/stack7/0V8-2*%
X207110000Y-158320000D03*
%TO.P,U74,12,VDDIO_18_0*%
%TO.N,/stack7/1V2-2*%
X207110000Y-157670000D03*
%TO.P,U74,13,VDDIO_18_1*%
%TO.N,unconnected-(U74-VDDIO_18_1-Pad13)*%
X199050000Y-157670000D03*
%TO.P,U74,14,VDDIO_08_1*%
%TO.N,unconnected-(U74-VDDIO_08_1-Pad14)*%
X199050000Y-158320000D03*
%TO.P,U74,15,PLL_VSS*%
%TO.N,GND*%
X199050000Y-158970000D03*
%TO.P,U74,16,POR_EN*%
%TO.N,unconnected-(U74-POR_EN-Pad16)*%
X199050000Y-159620000D03*
%TO.P,U74,17,PIN_MODE*%
%TO.N,unconnected-(U74-PIN_MODE-Pad17)*%
X199050000Y-160270000D03*
%TO.P,U74,18,VSS*%
%TO.N,GND*%
X199050000Y-160920000D03*
%TO.P,U74,19,CO*%
%TO.N,Net-(U74-CO)*%
X199050000Y-161570000D03*
%TO.P,U74,20,CLKO*%
%TO.N,Net-(U74-CLKO)*%
X199050000Y-162220000D03*
%TO.P,U74,21,RI*%
%TO.N,Net-(U74-RI)*%
X199050000Y-162870000D03*
%TO.P,U74,22,BO*%
%TO.N,Net-(U74-BO)*%
X199050000Y-163520000D03*
%TO.P,U74,23,NRSTO*%
%TO.N,Net-(U74-NRSTO)*%
X199050000Y-164170000D03*
%TO.P,U74,24,VSS*%
%TO.N,GND*%
X199050000Y-164820000D03*
D14*
%TO.P,U74,25,VDD*%
%TO.N,/stack7/GND1*%
X203050000Y-164170000D03*
D15*
%TO.P,U74,26,VSS*%
%TO.N,GND*%
X205970000Y-161095000D03*
X205968000Y-159225000D03*
X205138572Y-161095000D03*
X205136572Y-159225000D03*
X204310000Y-158355000D03*
X204307144Y-161095000D03*
X204305144Y-159225000D03*
X204290000Y-162005000D03*
X204280000Y-160215000D03*
X203475716Y-161095000D03*
X203473716Y-159225000D03*
D16*
X203050000Y-160140000D03*
D15*
X202644288Y-161095000D03*
X202642288Y-159225000D03*
D17*
X201820000Y-162005000D03*
D15*
X201820000Y-158365000D03*
X201812860Y-161095000D03*
X201810860Y-159225000D03*
X201810000Y-160235000D03*
X200981432Y-161095000D03*
X200979432Y-159225000D03*
X200150000Y-161095000D03*
X200148000Y-159225000D03*
%TD*%
D13*
%TO.P,U54,1,VSS*%
%TO.N,/stack5/GND0*%
X164050000Y-192080000D03*
%TO.P,U54,2,NRSTI*%
%TO.N,Net-(U54-NRSTI)*%
X164050000Y-191430000D03*
%TO.P,U54,3,BI*%
%TO.N,Net-(U54-BI)*%
X164050000Y-190780000D03*
%TO.P,U54,4,RO*%
%TO.N,Net-(U54-RO)*%
X164050000Y-190130000D03*
%TO.P,U54,5,CLKI*%
%TO.N,Net-(U54-CLKI)*%
X164050000Y-189480000D03*
%TO.P,U54,6,CI*%
%TO.N,Net-(U54-CI)*%
X164050000Y-188830000D03*
%TO.P,U54,7,INV_CLKO*%
%TO.N,unconnected-(U54-INV_CLKO-Pad7)*%
X164050000Y-188180000D03*
%TO.P,U54,8,TEMP_P*%
%TO.N,unconnected-(U54-TEMP_P-Pad8)*%
X164050000Y-187530000D03*
%TO.P,U54,9,TEMP_N*%
%TO.N,unconnected-(U54-TEMP_N-Pad9)*%
X164050000Y-186880000D03*
%TO.P,U54,10,VSS*%
%TO.N,/stack5/GND0*%
X164050000Y-186230000D03*
%TO.P,U54,11,VDDIO_08_0*%
%TO.N,unconnected-(U54-VDDIO_08_0-Pad11)*%
X164050000Y-185580000D03*
%TO.P,U54,12,VDDIO_18_0*%
%TO.N,unconnected-(U54-VDDIO_18_0-Pad12)*%
X164050000Y-184930000D03*
%TO.P,U54,13,VDDIO_18_1*%
%TO.N,/stack5/1V2-0*%
X155990000Y-184930000D03*
%TO.P,U54,14,VDDIO_08_1*%
%TO.N,/stack5/0V8-0*%
X155990000Y-185580000D03*
%TO.P,U54,15,PLL_VSS*%
%TO.N,/stack5/GND0*%
X155990000Y-186230000D03*
%TO.P,U54,16,POR_EN*%
%TO.N,unconnected-(U54-POR_EN-Pad16)*%
X155990000Y-186880000D03*
%TO.P,U54,17,PIN_MODE*%
%TO.N,unconnected-(U54-PIN_MODE-Pad17)*%
X155990000Y-187530000D03*
%TO.P,U54,18,VSS*%
%TO.N,/stack5/GND0*%
X155990000Y-188180000D03*
%TO.P,U54,19,CO*%
%TO.N,Net-(U54-CO)*%
X155990000Y-188830000D03*
%TO.P,U54,20,CLKO*%
%TO.N,Net-(U54-CLKO)*%
X155990000Y-189480000D03*
%TO.P,U54,21,RI*%
%TO.N,Net-(U54-RI)*%
X155990000Y-190130000D03*
%TO.P,U54,22,BO*%
%TO.N,Net-(U54-BO)*%
X155990000Y-190780000D03*
%TO.P,U54,23,NRSTO*%
%TO.N,Net-(U54-NRSTO)*%
X155990000Y-191430000D03*
%TO.P,U54,24,VSS*%
%TO.N,/stack5/GND0*%
X155990000Y-192080000D03*
D14*
%TO.P,U54,25,VDD*%
%TO.N,/stack4/GND2*%
X159990000Y-191430000D03*
D15*
%TO.P,U54,26,VSS*%
%TO.N,/stack5/GND0*%
X162910000Y-188355000D03*
X162908000Y-186485000D03*
X162078572Y-188355000D03*
X162076572Y-186485000D03*
X161250000Y-185615000D03*
X161247144Y-188355000D03*
X161245144Y-186485000D03*
X161230000Y-189265000D03*
X161220000Y-187475000D03*
X160415716Y-188355000D03*
X160413716Y-186485000D03*
D16*
X159990000Y-187400000D03*
D15*
X159584288Y-188355000D03*
X159582288Y-186485000D03*
D17*
X158760000Y-189265000D03*
D15*
X158760000Y-185625000D03*
X158752860Y-188355000D03*
X158750860Y-186485000D03*
X158750000Y-187495000D03*
X157921432Y-188355000D03*
X157919432Y-186485000D03*
X157090000Y-188355000D03*
X157088000Y-186485000D03*
%TD*%
D18*
%TO.P,U46,1,VSS*%
%TO.N,/stack4/GND1*%
X134400000Y-171240000D03*
%TO.P,U46,2,NRSTI*%
%TO.N,Net-(U46-NRSTI)*%
X134400000Y-171890000D03*
%TO.P,U46,3,BI*%
%TO.N,Net-(U46-BI)*%
X134400000Y-172540000D03*
%TO.P,U46,4,RO*%
%TO.N,Net-(U46-RO)*%
X134400000Y-173190000D03*
%TO.P,U46,5,CLKI*%
%TO.N,Net-(U46-CLKI)*%
X134400000Y-173840000D03*
%TO.P,U46,6,CI*%
%TO.N,Net-(U46-CI)*%
X134400000Y-174490000D03*
%TO.P,U46,7,INV_CLKO*%
%TO.N,unconnected-(U46-INV_CLKO-Pad7)*%
X134400000Y-175140000D03*
%TO.P,U46,8,TEMP_P*%
%TO.N,unconnected-(U46-TEMP_P-Pad8)*%
X134400000Y-175790000D03*
%TO.P,U46,9,TEMP_N*%
%TO.N,unconnected-(U46-TEMP_N-Pad9)*%
X134400000Y-176440000D03*
%TO.P,U46,10,VSS*%
%TO.N,/stack4/GND1*%
X134400000Y-177090000D03*
%TO.P,U46,11,VDDIO_08_0*%
%TO.N,/stack4/0V8-1*%
X134400000Y-177740000D03*
%TO.P,U46,12,VDDIO_18_0*%
%TO.N,/stack4/1V2-1*%
X134400000Y-178390000D03*
%TO.P,U46,13,VDDIO_18_1*%
%TO.N,unconnected-(U46-VDDIO_18_1-Pad13)*%
X142460000Y-178390000D03*
%TO.P,U46,14,VDDIO_08_1*%
%TO.N,unconnected-(U46-VDDIO_08_1-Pad14)*%
X142460000Y-177740000D03*
%TO.P,U46,15,PLL_VSS*%
%TO.N,/stack4/GND1*%
X142460000Y-177090000D03*
%TO.P,U46,16,POR_EN*%
%TO.N,unconnected-(U46-POR_EN-Pad16)*%
X142460000Y-176440000D03*
%TO.P,U46,17,PIN_MODE*%
%TO.N,/stack4/GND1*%
X142460000Y-175790000D03*
%TO.P,U46,18,VSS*%
X142460000Y-175140000D03*
%TO.P,U46,19,CO*%
%TO.N,Net-(U46-CO)*%
X142460000Y-174490000D03*
%TO.P,U46,20,CLKO*%
%TO.N,Net-(U46-CLKO)*%
X142460000Y-173840000D03*
%TO.P,U46,21,RI*%
%TO.N,Net-(U46-RI)*%
X142460000Y-173190000D03*
%TO.P,U46,22,BO*%
%TO.N,Net-(U46-BO)*%
X142460000Y-172540000D03*
%TO.P,U46,23,NRSTO*%
%TO.N,Net-(U46-NRSTO)*%
X142460000Y-171890000D03*
%TO.P,U46,24,VSS*%
%TO.N,/stack4/GND1*%
X142460000Y-171240000D03*
D14*
%TO.P,U46,25,VDD*%
%TO.N,/stack4/GND0*%
X138460000Y-171890000D03*
D15*
%TO.P,U46,26,VSS*%
%TO.N,/stack4/GND1*%
X135540000Y-174965000D03*
X135542000Y-176835000D03*
X136371428Y-174965000D03*
X136373428Y-176835000D03*
X137200000Y-177705000D03*
X137202856Y-174965000D03*
X137204856Y-176835000D03*
X137220000Y-174055000D03*
X137230000Y-175845000D03*
X138034284Y-174965000D03*
X138036284Y-176835000D03*
D16*
X138460000Y-175920000D03*
D15*
X138865712Y-174965000D03*
X138867712Y-176835000D03*
D17*
X139690000Y-174055000D03*
D15*
X139690000Y-177695000D03*
X139697140Y-174965000D03*
X139699140Y-176835000D03*
X139700000Y-175825000D03*
X140528568Y-174965000D03*
X140530568Y-176835000D03*
X141360000Y-174965000D03*
X141362000Y-176835000D03*
%TD*%
D18*
%TO.P,U45,1,VSS*%
%TO.N,/stack4/GND0*%
X134400000Y-157550000D03*
%TO.P,U45,2,CO*%
%TO.N,Net-(U45-CO)*%
X134400000Y-158200000D03*
%TO.P,U45,3,CLKO*%
%TO.N,Net-(U45-CLKO)*%
X134400000Y-158850000D03*
%TO.P,U45,4,RI*%
%TO.N,Net-(U45-RI)*%
X134400000Y-159500000D03*
%TO.P,U45,5,BO*%
%TO.N,Net-(U45-BO)*%
X134400000Y-160150000D03*
%TO.P,U45,6,NRSTO*%
%TO.N,Net-(U45-NRSTO)*%
X134400000Y-160800000D03*
%TO.P,U45,7,INV_CLKO*%
%TO.N,unconnected-(U45-INV_CLKO-Pad7)*%
X134400000Y-161450000D03*
%TO.P,U45,8,TEMP_P*%
%TO.N,unconnected-(U45-TEMP_P-Pad8)*%
X134400000Y-162100000D03*
%TO.P,U45,9,TEMP_N*%
%TO.N,unconnected-(U45-TEMP_N-Pad9)*%
X134400000Y-162750000D03*
%TO.P,U45,10,VSS*%
%TO.N,/stack4/GND0*%
X134400000Y-163400000D03*
%TO.P,U45,11,VDDIO_08_0*%
%TO.N,/stack4/0V8-0*%
X134400000Y-164050000D03*
%TO.P,U45,12,VDDIO_18_0*%
%TO.N,/stack4/1V2-0*%
X134400000Y-164700000D03*
%TO.P,U45,13,VDDIO_18_1*%
%TO.N,unconnected-(U45-VDDIO_18_1-Pad13)*%
X142460000Y-164700000D03*
%TO.P,U45,14,VDDIO_08_1*%
%TO.N,unconnected-(U45-VDDIO_08_1-Pad14)*%
X142460000Y-164050000D03*
%TO.P,U45,15,PLL_VSS*%
%TO.N,/stack4/GND0*%
X142460000Y-163400000D03*
%TO.P,U45,16,POR_EN*%
%TO.N,unconnected-(U45-POR_EN-Pad16)*%
X142460000Y-162750000D03*
%TO.P,U45,17,PIN_MODE*%
%TO.N,unconnected-(U45-PIN_MODE-Pad17)*%
X142460000Y-162100000D03*
%TO.P,U45,18,VSS*%
%TO.N,/stack4/GND0*%
X142460000Y-161450000D03*
%TO.P,U45,19,NRSTI*%
%TO.N,Net-(U45-NRSTI)*%
X142460000Y-160800000D03*
%TO.P,U45,20,BI*%
%TO.N,Net-(U45-BI)*%
X142460000Y-160150000D03*
%TO.P,U45,21,RO*%
%TO.N,Net-(U45-RO)*%
X142460000Y-159500000D03*
%TO.P,U45,22,CLKI*%
%TO.N,Net-(U45-CLKI)*%
X142460000Y-158850000D03*
%TO.P,U45,23,CI*%
%TO.N,Net-(U45-CI)*%
X142460000Y-158200000D03*
%TO.P,U45,24,VSS*%
%TO.N,/stack4/GND0*%
X142460000Y-157550000D03*
D14*
%TO.P,U45,25,VDD*%
%TO.N,/3V6*%
X138460000Y-158200000D03*
D15*
%TO.P,U45,26,VSS*%
%TO.N,/stack4/GND0*%
X135540000Y-161275000D03*
X135542000Y-163145000D03*
X136371428Y-161275000D03*
X136373428Y-163145000D03*
X137200000Y-164015000D03*
X137202856Y-161275000D03*
X137204856Y-163145000D03*
X137220000Y-160365000D03*
X137230000Y-162155000D03*
X138034284Y-161275000D03*
X138036284Y-163145000D03*
D16*
X138460000Y-162230000D03*
D15*
X138865712Y-161275000D03*
X138867712Y-163145000D03*
D17*
X139690000Y-160365000D03*
D15*
X139690000Y-164005000D03*
X139697140Y-161275000D03*
X139699140Y-163145000D03*
X139700000Y-162135000D03*
X140528568Y-161275000D03*
X140530568Y-163145000D03*
X141360000Y-161275000D03*
X141362000Y-163145000D03*
%TD*%
D13*
%TO.P,U72,1,VSS*%
%TO.N,/stack7/GND0*%
X207110000Y-192190000D03*
%TO.P,U72,2,NRSTI*%
%TO.N,Net-(U72-NRSTI)*%
X207110000Y-191540000D03*
%TO.P,U72,3,BI*%
%TO.N,Net-(U72-BI)*%
X207110000Y-190890000D03*
%TO.P,U72,4,RO*%
%TO.N,Net-(U72-RO)*%
X207110000Y-190240000D03*
%TO.P,U72,5,CLKI*%
%TO.N,Net-(U72-CLKI)*%
X207110000Y-189590000D03*
%TO.P,U72,6,CI*%
%TO.N,Net-(U72-CI)*%
X207110000Y-188940000D03*
%TO.P,U72,7,INV_CLKO*%
%TO.N,unconnected-(U72-INV_CLKO-Pad7)*%
X207110000Y-188290000D03*
%TO.P,U72,8,TEMP_P*%
%TO.N,unconnected-(U72-TEMP_P-Pad8)*%
X207110000Y-187640000D03*
%TO.P,U72,9,TEMP_N*%
%TO.N,unconnected-(U72-TEMP_N-Pad9)*%
X207110000Y-186990000D03*
%TO.P,U72,10,VSS*%
%TO.N,/stack7/GND0*%
X207110000Y-186340000D03*
%TO.P,U72,11,VDDIO_08_0*%
%TO.N,/stack7/0V8-0*%
X207110000Y-185690000D03*
%TO.P,U72,12,VDDIO_18_0*%
%TO.N,/stack7/1V2-0*%
X207110000Y-185040000D03*
%TO.P,U72,13,VDDIO_18_1*%
%TO.N,unconnected-(U72-VDDIO_18_1-Pad13)*%
X199050000Y-185040000D03*
%TO.P,U72,14,VDDIO_08_1*%
%TO.N,unconnected-(U72-VDDIO_08_1-Pad14)*%
X199050000Y-185690000D03*
%TO.P,U72,15,PLL_VSS*%
%TO.N,/stack7/GND0*%
X199050000Y-186340000D03*
%TO.P,U72,16,POR_EN*%
%TO.N,unconnected-(U72-POR_EN-Pad16)*%
X199050000Y-186990000D03*
%TO.P,U72,17,PIN_MODE*%
%TO.N,unconnected-(U72-PIN_MODE-Pad17)*%
X199050000Y-187640000D03*
%TO.P,U72,18,VSS*%
%TO.N,/stack7/GND0*%
X199050000Y-188290000D03*
%TO.P,U72,19,CO*%
%TO.N,Net-(U72-CO)*%
X199050000Y-188940000D03*
%TO.P,U72,20,CLKO*%
%TO.N,Net-(U72-CLKO)*%
X199050000Y-189590000D03*
%TO.P,U72,21,RI*%
%TO.N,Net-(U72-RI)*%
X199050000Y-190240000D03*
%TO.P,U72,22,BO*%
%TO.N,Net-(U72-BO)*%
X199050000Y-190890000D03*
%TO.P,U72,23,NRSTO*%
%TO.N,Net-(U72-NRSTO)*%
X199050000Y-191540000D03*
%TO.P,U72,24,VSS*%
%TO.N,/stack7/GND0*%
X199050000Y-192190000D03*
D14*
%TO.P,U72,25,VDD*%
%TO.N,/stack6/GND2*%
X203050000Y-191540000D03*
D15*
%TO.P,U72,26,VSS*%
%TO.N,/stack7/GND0*%
X205970000Y-188465000D03*
X205968000Y-186595000D03*
X205138572Y-188465000D03*
X205136572Y-186595000D03*
X204310000Y-185725000D03*
X204307144Y-188465000D03*
X204305144Y-186595000D03*
X204290000Y-189375000D03*
X204280000Y-187585000D03*
X203475716Y-188465000D03*
X203473716Y-186595000D03*
D16*
X203050000Y-187510000D03*
D15*
X202644288Y-188465000D03*
X202642288Y-186595000D03*
D17*
X201820000Y-189375000D03*
D15*
X201820000Y-185735000D03*
X201812860Y-188465000D03*
X201810860Y-186595000D03*
X201810000Y-187605000D03*
X200981432Y-188465000D03*
X200979432Y-186595000D03*
X200150000Y-188465000D03*
X200148000Y-186595000D03*
%TD*%
D18*
%TO.P,U63,1,VSS*%
%TO.N,/stack6/GND0*%
X177440000Y-157580000D03*
%TO.P,U63,2,CO*%
%TO.N,Net-(U63-CO)*%
X177440000Y-158230000D03*
%TO.P,U63,3,CLKO*%
%TO.N,Net-(U63-CLKO)*%
X177440000Y-158880000D03*
%TO.P,U63,4,RI*%
%TO.N,Net-(U63-RI)*%
X177440000Y-159530000D03*
%TO.P,U63,5,BO*%
%TO.N,Net-(U63-BO)*%
X177440000Y-160180000D03*
%TO.P,U63,6,NRSTO*%
%TO.N,Net-(U63-NRSTO)*%
X177440000Y-160830000D03*
%TO.P,U63,7,INV_CLKO*%
%TO.N,unconnected-(U63-INV_CLKO-Pad7)*%
X177440000Y-161480000D03*
%TO.P,U63,8,TEMP_P*%
%TO.N,unconnected-(U63-TEMP_P-Pad8)*%
X177440000Y-162130000D03*
%TO.P,U63,9,TEMP_N*%
%TO.N,unconnected-(U63-TEMP_N-Pad9)*%
X177440000Y-162780000D03*
%TO.P,U63,10,VSS*%
%TO.N,/stack6/GND0*%
X177440000Y-163430000D03*
%TO.P,U63,11,VDDIO_08_0*%
%TO.N,/stack6/0V8-0*%
X177440000Y-164080000D03*
%TO.P,U63,12,VDDIO_18_0*%
%TO.N,unconnected-(U63-VDDIO_18_0-Pad12)*%
X177440000Y-164730000D03*
%TO.P,U63,13,VDDIO_18_1*%
%TO.N,/stack6/1V2-0*%
X185500000Y-164730000D03*
%TO.P,U63,14,VDDIO_08_1*%
%TO.N,unconnected-(U63-VDDIO_08_1-Pad14)*%
X185500000Y-164080000D03*
%TO.P,U63,15,PLL_VSS*%
%TO.N,/stack6/GND0*%
X185500000Y-163430000D03*
%TO.P,U63,16,POR_EN*%
%TO.N,unconnected-(U63-POR_EN-Pad16)*%
X185500000Y-162780000D03*
%TO.P,U63,17,PIN_MODE*%
%TO.N,unconnected-(U63-PIN_MODE-Pad17)*%
X185500000Y-162130000D03*
%TO.P,U63,18,VSS*%
%TO.N,/stack6/GND0*%
X185500000Y-161480000D03*
%TO.P,U63,19,NRSTI*%
%TO.N,Net-(U63-NRSTI)*%
X185500000Y-160830000D03*
%TO.P,U63,20,BI*%
%TO.N,Net-(U63-BI)*%
X185500000Y-160180000D03*
%TO.P,U63,21,RO*%
%TO.N,Net-(U63-RO)*%
X185500000Y-159530000D03*
%TO.P,U63,22,CLKI*%
%TO.N,Net-(U63-CLKI)*%
X185500000Y-158880000D03*
%TO.P,U63,23,CI*%
%TO.N,Net-(U63-CI)*%
X185500000Y-158230000D03*
%TO.P,U63,24,VSS*%
%TO.N,/stack6/GND0*%
X185500000Y-157580000D03*
D14*
%TO.P,U63,25,VDD*%
%TO.N,/stack5/GND2*%
X181500000Y-158230000D03*
D15*
%TO.P,U63,26,VSS*%
%TO.N,/stack6/GND0*%
X178580000Y-161305000D03*
X178582000Y-163175000D03*
X179411428Y-161305000D03*
X179413428Y-163175000D03*
X180240000Y-164045000D03*
X180242856Y-161305000D03*
X180244856Y-163175000D03*
X180260000Y-160395000D03*
X180270000Y-162185000D03*
X181074284Y-161305000D03*
X181076284Y-163175000D03*
D16*
X181500000Y-162260000D03*
D15*
X181905712Y-161305000D03*
X181907712Y-163175000D03*
D17*
X182730000Y-160395000D03*
D15*
X182730000Y-164035000D03*
X182737140Y-161305000D03*
X182739140Y-163175000D03*
X182740000Y-162165000D03*
X183568568Y-161305000D03*
X183570568Y-163175000D03*
X184400000Y-161305000D03*
X184402000Y-163175000D03*
%TD*%
D18*
%TO.P,U64,1,VSS*%
%TO.N,/stack6/GND1*%
X177440000Y-171260000D03*
%TO.P,U64,2,NRSTI*%
%TO.N,Net-(U64-NRSTI)*%
X177440000Y-171910000D03*
%TO.P,U64,3,BI*%
%TO.N,Net-(U64-BI)*%
X177440000Y-172560000D03*
%TO.P,U64,4,RO*%
%TO.N,Net-(U64-RO)*%
X177440000Y-173210000D03*
%TO.P,U64,5,CLKI*%
%TO.N,Net-(U64-CLKI)*%
X177440000Y-173860000D03*
%TO.P,U64,6,CI*%
%TO.N,Net-(U64-CI)*%
X177440000Y-174510000D03*
%TO.P,U64,7,INV_CLKO*%
%TO.N,unconnected-(U64-INV_CLKO-Pad7)*%
X177440000Y-175160000D03*
%TO.P,U64,8,TEMP_P*%
%TO.N,unconnected-(U64-TEMP_P-Pad8)*%
X177440000Y-175810000D03*
%TO.P,U64,9,TEMP_N*%
%TO.N,unconnected-(U64-TEMP_N-Pad9)*%
X177440000Y-176460000D03*
%TO.P,U64,10,VSS*%
%TO.N,/stack6/GND1*%
X177440000Y-177110000D03*
%TO.P,U64,11,VDDIO_08_0*%
%TO.N,unconnected-(U64-VDDIO_08_0-Pad11)*%
X177440000Y-177760000D03*
%TO.P,U64,12,VDDIO_18_0*%
%TO.N,/stack6/1V2-1*%
X177440000Y-178410000D03*
%TO.P,U64,13,VDDIO_18_1*%
%TO.N,unconnected-(U64-VDDIO_18_1-Pad13)*%
X185500000Y-178410000D03*
%TO.P,U64,14,VDDIO_08_1*%
%TO.N,/stack6/0V8-1*%
X185500000Y-177760000D03*
%TO.P,U64,15,PLL_VSS*%
%TO.N,/stack6/GND1*%
X185500000Y-177110000D03*
%TO.P,U64,16,POR_EN*%
%TO.N,unconnected-(U64-POR_EN-Pad16)*%
X185500000Y-176460000D03*
%TO.P,U64,17,PIN_MODE*%
%TO.N,/stack6/GND1*%
X185500000Y-175810000D03*
%TO.P,U64,18,VSS*%
X185500000Y-175160000D03*
%TO.P,U64,19,CO*%
%TO.N,Net-(U64-CO)*%
X185500000Y-174510000D03*
%TO.P,U64,20,CLKO*%
%TO.N,Net-(U64-CLKO)*%
X185500000Y-173860000D03*
%TO.P,U64,21,RI*%
%TO.N,Net-(U64-RI)*%
X185500000Y-173210000D03*
%TO.P,U64,22,BO*%
%TO.N,Net-(U64-BO)*%
X185500000Y-172560000D03*
%TO.P,U64,23,NRSTO*%
%TO.N,Net-(U64-NRSTO)*%
X185500000Y-171910000D03*
%TO.P,U64,24,VSS*%
%TO.N,/stack6/GND1*%
X185500000Y-171260000D03*
D14*
%TO.P,U64,25,VDD*%
%TO.N,/stack6/GND0*%
X181500000Y-171910000D03*
D15*
%TO.P,U64,26,VSS*%
%TO.N,/stack6/GND1*%
X178580000Y-174985000D03*
X178582000Y-176855000D03*
X179411428Y-174985000D03*
X179413428Y-176855000D03*
X180240000Y-177725000D03*
X180242856Y-174985000D03*
X180244856Y-176855000D03*
X180260000Y-174075000D03*
X180270000Y-175865000D03*
X181074284Y-174985000D03*
X181076284Y-176855000D03*
D16*
X181500000Y-175940000D03*
D15*
X181905712Y-174985000D03*
X181907712Y-176855000D03*
D17*
X182730000Y-174075000D03*
D15*
X182730000Y-177715000D03*
X182737140Y-174985000D03*
X182739140Y-176855000D03*
X182740000Y-175845000D03*
X183568568Y-174985000D03*
X183570568Y-176855000D03*
X184400000Y-174985000D03*
X184402000Y-176855000D03*
%TD*%
D13*
%TO.P,U73,1,VSS*%
%TO.N,/stack7/GND1*%
X207110000Y-178500000D03*
%TO.P,U73,2,CO*%
%TO.N,Net-(U73-CO)*%
X207110000Y-177850000D03*
%TO.P,U73,3,CLKO*%
%TO.N,Net-(U73-CLKO)*%
X207110000Y-177200000D03*
%TO.P,U73,4,RI*%
%TO.N,Net-(U73-RI)*%
X207110000Y-176550000D03*
%TO.P,U73,5,BO*%
%TO.N,Net-(U73-BO)*%
X207110000Y-175900000D03*
%TO.P,U73,6,NRSTO*%
%TO.N,Net-(U73-NRSTO)*%
X207110000Y-175250000D03*
%TO.P,U73,7,INV_CLKO*%
%TO.N,unconnected-(U73-INV_CLKO-Pad7)*%
X207110000Y-174600000D03*
%TO.P,U73,8,TEMP_P*%
%TO.N,unconnected-(U73-TEMP_P-Pad8)*%
X207110000Y-173950000D03*
%TO.P,U73,9,TEMP_N*%
%TO.N,unconnected-(U73-TEMP_N-Pad9)*%
X207110000Y-173300000D03*
%TO.P,U73,10,VSS*%
%TO.N,/stack7/GND1*%
X207110000Y-172650000D03*
%TO.P,U73,11,VDDIO_08_0*%
%TO.N,/stack7/0V8-1*%
X207110000Y-172000000D03*
%TO.P,U73,12,VDDIO_18_0*%
%TO.N,/stack7/1V2-1*%
X207110000Y-171350000D03*
%TO.P,U73,13,VDDIO_18_1*%
%TO.N,unconnected-(U73-VDDIO_18_1-Pad13)*%
X199050000Y-171350000D03*
%TO.P,U73,14,VDDIO_08_1*%
%TO.N,unconnected-(U73-VDDIO_08_1-Pad14)*%
X199050000Y-172000000D03*
%TO.P,U73,15,PLL_VSS*%
%TO.N,/stack7/GND1*%
X199050000Y-172650000D03*
%TO.P,U73,16,POR_EN*%
%TO.N,unconnected-(U73-POR_EN-Pad16)*%
X199050000Y-173300000D03*
%TO.P,U73,17,PIN_MODE*%
%TO.N,/stack7/GND1*%
X199050000Y-173950000D03*
%TO.P,U73,18,VSS*%
X199050000Y-174600000D03*
%TO.P,U73,19,NRSTI*%
%TO.N,Net-(U73-NRSTI)*%
X199050000Y-175250000D03*
%TO.P,U73,20,BI*%
%TO.N,Net-(U73-BI)*%
X199050000Y-175900000D03*
%TO.P,U73,21,RO*%
%TO.N,Net-(U73-RO)*%
X199050000Y-176550000D03*
%TO.P,U73,22,CLKI*%
%TO.N,Net-(U73-CLKI)*%
X199050000Y-177200000D03*
%TO.P,U73,23,CI*%
%TO.N,Net-(U73-CI)*%
X199050000Y-177850000D03*
%TO.P,U73,24,VSS*%
%TO.N,/stack7/GND1*%
X199050000Y-178500000D03*
D14*
%TO.P,U73,25,VDD*%
%TO.N,/stack7/GND0*%
X203050000Y-177850000D03*
D15*
%TO.P,U73,26,VSS*%
%TO.N,/stack7/GND1*%
X205970000Y-174775000D03*
X205968000Y-172905000D03*
X205138572Y-174775000D03*
X205136572Y-172905000D03*
X204310000Y-172035000D03*
X204307144Y-174775000D03*
X204305144Y-172905000D03*
X204290000Y-175685000D03*
X204280000Y-173895000D03*
X203475716Y-174775000D03*
X203473716Y-172905000D03*
D16*
X203050000Y-173820000D03*
D15*
X202644288Y-174775000D03*
X202642288Y-172905000D03*
D17*
X201820000Y-175685000D03*
D15*
X201820000Y-172045000D03*
X201812860Y-174775000D03*
X201810860Y-172905000D03*
X201810000Y-173915000D03*
X200981432Y-174775000D03*
X200979432Y-172905000D03*
X200150000Y-174775000D03*
X200148000Y-172905000D03*
%TD*%
D13*
%TO.P,U56,1,VSS*%
%TO.N,/stack5/GND2*%
X164070000Y-164730000D03*
%TO.P,U56,2,NRSTI*%
%TO.N,/stack5/NRSTI*%
X164070000Y-164080000D03*
%TO.P,U56,3,BI*%
%TO.N,/stack5/BI*%
X164070000Y-163430000D03*
%TO.P,U56,4,RO*%
%TO.N,/stack5/RO*%
X164070000Y-162780000D03*
%TO.P,U56,5,CLKI*%
%TO.N,/stack5/CLKI*%
X164070000Y-162130000D03*
%TO.P,U56,6,CI*%
%TO.N,/stack5/CI*%
X164070000Y-161480000D03*
%TO.P,U56,7,INV_CLKO*%
%TO.N,unconnected-(U56-INV_CLKO-Pad7)*%
X164070000Y-160830000D03*
%TO.P,U56,8,TEMP_P*%
%TO.N,unconnected-(U56-TEMP_P-Pad8)*%
X164070000Y-160180000D03*
%TO.P,U56,9,TEMP_N*%
%TO.N,unconnected-(U56-TEMP_N-Pad9)*%
X164070000Y-159530000D03*
%TO.P,U56,10,VSS*%
%TO.N,/stack5/GND2*%
X164070000Y-158880000D03*
%TO.P,U56,11,VDDIO_08_0*%
%TO.N,unconnected-(U56-VDDIO_08_0-Pad11)*%
X164070000Y-158230000D03*
%TO.P,U56,12,VDDIO_18_0*%
%TO.N,unconnected-(U56-VDDIO_18_0-Pad12)*%
X164070000Y-157580000D03*
%TO.P,U56,13,VDDIO_18_1*%
%TO.N,/stack5/1V2-2*%
X156010000Y-157580000D03*
%TO.P,U56,14,VDDIO_08_1*%
%TO.N,/stack5/0V8-2*%
X156010000Y-158230000D03*
%TO.P,U56,15,PLL_VSS*%
%TO.N,/stack5/GND2*%
X156010000Y-158880000D03*
%TO.P,U56,16,POR_EN*%
%TO.N,unconnected-(U56-POR_EN-Pad16)*%
X156010000Y-159530000D03*
%TO.P,U56,17,PIN_MODE*%
%TO.N,unconnected-(U56-PIN_MODE-Pad17)*%
X156010000Y-160180000D03*
%TO.P,U56,18,VSS*%
%TO.N,/stack5/GND2*%
X156010000Y-160830000D03*
%TO.P,U56,19,CO*%
%TO.N,Net-(U56-CO)*%
X156010000Y-161480000D03*
%TO.P,U56,20,CLKO*%
%TO.N,Net-(U56-CLKO)*%
X156010000Y-162130000D03*
%TO.P,U56,21,RI*%
%TO.N,Net-(U56-RI)*%
X156010000Y-162780000D03*
%TO.P,U56,22,BO*%
%TO.N,Net-(U56-BO)*%
X156010000Y-163430000D03*
%TO.P,U56,23,NRSTO*%
%TO.N,Net-(U56-NRSTO)*%
X156010000Y-164080000D03*
%TO.P,U56,24,VSS*%
%TO.N,/stack5/GND2*%
X156010000Y-164730000D03*
D14*
%TO.P,U56,25,VDD*%
%TO.N,/stack5/GND1*%
X160010000Y-164080000D03*
D15*
%TO.P,U56,26,VSS*%
%TO.N,/stack5/GND2*%
X162930000Y-161005000D03*
X162928000Y-159135000D03*
X162098572Y-161005000D03*
X162096572Y-159135000D03*
X161270000Y-158265000D03*
X161267144Y-161005000D03*
X161265144Y-159135000D03*
X161250000Y-161915000D03*
X161240000Y-160125000D03*
X160435716Y-161005000D03*
X160433716Y-159135000D03*
D16*
X160010000Y-160050000D03*
D15*
X159604288Y-161005000D03*
X159602288Y-159135000D03*
D17*
X158780000Y-161915000D03*
D15*
X158780000Y-158275000D03*
X158772860Y-161005000D03*
X158770860Y-159135000D03*
X158770000Y-160145000D03*
X157941432Y-161005000D03*
X157939432Y-159135000D03*
X157110000Y-161005000D03*
X157108000Y-159135000D03*
%TD*%
D19*
%TO.P,J6,S1,SHIELD*%
%TO.N,GND*%
X210660000Y-81265000D03*
D20*
X210660000Y-85445000D03*
D19*
X219300000Y-81265000D03*
D20*
X219300000Y-85445000D03*
D21*
%TO.P,J6,B8,SBU2*%
%TO.N,/Data/SWD*%
X216730000Y-86020000D03*
%TO.P,J6,B7,D-*%
%TO.N,/Data/USB_DN*%
X215730000Y-86020000D03*
%TO.P,J6,B6,D+*%
%TO.N,/Data/USB_DP*%
X214230000Y-86020000D03*
%TO.P,J6,B5,CC2*%
%TO.N,Net-(J6-CC2)*%
X213230000Y-86020000D03*
D22*
%TO.P,J6,B4A9,VBUS*%
%TO.N,/5V*%
X212580000Y-86020000D03*
D23*
%TO.P,J6,B1A12,GND*%
%TO.N,GND*%
X211780000Y-86045000D03*
D21*
%TO.P,J6,A8,SBU1*%
%TO.N,/Data/SWCLK*%
X213730000Y-86020000D03*
%TO.P,J6,A7,D-*%
%TO.N,/Data/USB_DN*%
X214730000Y-86020000D03*
%TO.P,J6,A6,D+*%
%TO.N,/Data/USB_DP*%
X215230000Y-86020000D03*
%TO.P,J6,A5,CC1*%
%TO.N,Net-(J6-CC1)*%
X216230000Y-86020000D03*
D22*
%TO.P,J6,A4B9,VBUS*%
%TO.N,/5V*%
X217380000Y-86020000D03*
D23*
%TO.P,J6,A1B12,GND*%
%TO.N,GND*%
X218180000Y-86045000D03*
%TD*%
D24*
%TO.P,C16,1*%
%TO.N,/3V6*%
X157732600Y-130610000D03*
%TO.P,C16,2*%
%TO.N,GND*%
X164387400Y-130610000D03*
%TD*%
D25*
%TO.P,U4,1,DIR1*%
%TO.N,GND*%
X231350000Y-154435000D03*
%TO.P,U4,2,DIR2*%
X232000000Y-154435000D03*
%TO.P,U4,3,A1*%
%TO.N,/stack7/RST_N*%
X232650000Y-154435000D03*
%TO.P,U4,4,A2*%
%TO.N,/stack7/CI*%
X233300000Y-154435000D03*
%TO.P,U4,5,A3*%
%TO.N,/stack7/RO*%
X233950000Y-154435000D03*
%TO.P,U4,6,A4*%
%TO.N,GND*%
X234600000Y-154435000D03*
%TO.P,U4,7,DIR3*%
%TO.N,/stack7/1V2-2*%
X235250000Y-154435000D03*
%TO.P,U4,8,DIR4*%
X235900000Y-154435000D03*
%TO.P,U4,9,OE*%
%TO.N,GND*%
X235900000Y-148710000D03*
%TO.P,U4,10,GND*%
X235250000Y-148710000D03*
%TO.P,U4,11,B4*%
%TO.N,unconnected-(U4-B4-Pad11)*%
X234600000Y-148710000D03*
%TO.P,U4,12,B3*%
%TO.N,/RX*%
X233950000Y-148710000D03*
%TO.P,U4,13,B2*%
%TO.N,/TX*%
X233300000Y-148710000D03*
%TO.P,U4,14,B1*%
%TO.N,/RST*%
X232650000Y-148710000D03*
%TO.P,U4,15,VCCB*%
%TO.N,/3V3*%
X232000000Y-148710000D03*
%TO.P,U4,16,VCCA*%
%TO.N,/stack7/1V2-2*%
X231350000Y-148710000D03*
%TD*%
D26*
%TO.P,R6,1*%
%TO.N,/3V6*%
X148280000Y-98045000D03*
%TO.P,R6,2*%
%TO.N,/Power/OUT0*%
X148280000Y-96395000D03*
%TD*%
D27*
%TO.P,C11,1*%
%TO.N,/Power/OUT0*%
X144790000Y-90030000D03*
%TO.P,C11,2*%
%TO.N,Net-(C11-Pad2)*%
X144790000Y-88130000D03*
%TD*%
D28*
%TO.P,D1,1,K*%
%TO.N,Net-(D1-K)*%
X126332400Y-99975000D03*
%TO.P,D1,2,A*%
%TO.N,Net-(D1-A)*%
X128567600Y-99975000D03*
%TD*%
D29*
%TO.P,J16,1,Pin_1*%
%TO.N,/stack6/GND2*%
X181505000Y-195370000D03*
D30*
X185295000Y-197370000D03*
%TD*%
D31*
%TO.P,R5,1*%
%TO.N,Net-(U1-RAMP1)*%
X134585000Y-98490000D03*
%TO.P,R5,2*%
%TO.N,/Power/SW1*%
X132935000Y-98490000D03*
%TD*%
D32*
%TO.P,H6,1,1*%
%TO.N,unconnected-(H6-Pad1)*%
X192930000Y-181770000D03*
%TD*%
D33*
%TO.P,R20,1*%
%TO.N,/Data/SCL*%
X206300000Y-100940000D03*
%TO.P,R20,2*%
%TO.N,/3V3*%
X205280000Y-100940000D03*
%TD*%
D34*
%TO.P,Q4,1,S*%
%TO.N,/Power/LOOP2*%
X197075000Y-116440003D03*
%TO.P,Q4,2,S*%
X198345000Y-116440003D03*
%TO.P,Q4,3,S*%
X199615000Y-116440003D03*
%TO.P,Q4,4,G*%
%TO.N,Net-(Q4-G)*%
X200885000Y-116440003D03*
%TO.P,Q4,5,D*%
%TO.N,/Power/SW2*%
X200885000Y-110850001D03*
%TO.P,Q4,6,D*%
X199615000Y-110850001D03*
%TO.P,Q4,7,D*%
X198345000Y-110850001D03*
D35*
%TO.P,Q4,8,D*%
X198980000Y-112640000D03*
D34*
X197075000Y-110850001D03*
%TD*%
D27*
%TO.P,C15,1*%
%TO.N,Net-(D2-K)*%
X129350000Y-91060000D03*
%TO.P,C15,2*%
%TO.N,/Power/SW2*%
X129350000Y-89160000D03*
%TD*%
D36*
%TO.P,C101,1*%
%TO.N,GND*%
X220010000Y-94510000D03*
%TO.P,C101,2*%
%TO.N,/Data/1V1*%
X219050000Y-94510000D03*
%TD*%
D27*
%TO.P,C7,1*%
%TO.N,Net-(U1-SS2)*%
X138600000Y-86110000D03*
%TO.P,C7,2*%
%TO.N,GND*%
X138600000Y-84210000D03*
%TD*%
D37*
%TO.P,C9,1*%
%TO.N,Net-(U1-SS1)*%
X136800000Y-98770000D03*
%TO.P,C9,2*%
%TO.N,GND*%
X136800000Y-100670000D03*
%TD*%
%TO.P,C5,1*%
%TO.N,Net-(D1-A)*%
X130600000Y-98130000D03*
%TO.P,C5,2*%
%TO.N,GND*%
X130600000Y-100030000D03*
%TD*%
D38*
%TO.P,JP1,1,A*%
%TO.N,/Data/PWR_EN*%
X125640000Y-88430000D03*
%TO.P,JP1,2,C*%
%TO.N,Net-(JP1-C)*%
X124340000Y-88430000D03*
%TO.P,JP1,3,B*%
%TO.N,Net-(JP1-B)*%
X123040000Y-88430000D03*
%TD*%
D32*
%TO.P,H8,1,1*%
%TO.N,unconnected-(H8-Pad1)*%
X170930000Y-181770000D03*
%TD*%
D39*
%TO.P,U27,57,GND*%
%TO.N,GND*%
X215200000Y-100377500D03*
D40*
%TO.P,U27,56,QSPI_SS*%
%TO.N,/Data/QSPI_SS*%
X212600000Y-96940000D03*
%TO.P,U27,55,QSPI_SD1*%
%TO.N,/Data/QSPI_SD1*%
X213000000Y-96940000D03*
%TO.P,U27,54,QSPI_SD2*%
%TO.N,/Data/QSPI_SD2*%
X213400000Y-96940000D03*
%TO.P,U27,53,QSPI_SD0*%
%TO.N,/Data/QSPI_SD0*%
X213800000Y-96940000D03*
%TO.P,U27,52,QSPI_SCLK*%
%TO.N,/Data/QSPI_SCLK*%
X214200000Y-96940000D03*
%TO.P,U27,51,QSPI_SD3*%
%TO.N,/Data/QSPI_SD3*%
X214600000Y-96940000D03*
%TO.P,U27,50,DVDD*%
%TO.N,/Data/1V1*%
X215000000Y-96940000D03*
%TO.P,U27,49,IOVDD*%
%TO.N,/3V3*%
X215400000Y-96940000D03*
%TO.P,U27,48,USB_VDD*%
X215800000Y-96940000D03*
%TO.P,U27,47,USB_DP*%
%TO.N,Net-(U27-USB_DP)*%
X216200000Y-96940000D03*
%TO.P,U27,46,USB_DM*%
%TO.N,Net-(U27-USB_DM)*%
X216600000Y-96940000D03*
%TO.P,U27,45,VREG_VOUT*%
%TO.N,/Data/1V1*%
X217000000Y-96940000D03*
%TO.P,U27,44,VREG_IN*%
%TO.N,/3V3*%
X217400000Y-96940000D03*
%TO.P,U27,43,ADC_AVDD*%
X217800000Y-96940000D03*
D41*
%TO.P,U27,42,IOVDD*%
X218637500Y-97777500D03*
%TO.P,U27,41,GPIO29_ADC3*%
%TO.N,unconnected-(U27-GPIO29_ADC3-Pad41)*%
X218637500Y-98177500D03*
%TO.P,U27,40,GPIO28_ADC2*%
%TO.N,unconnected-(U27-GPIO28_ADC2-Pad40)*%
X218637500Y-98577500D03*
%TO.P,U27,39,GPIO27_ADC1*%
%TO.N,unconnected-(U27-GPIO27_ADC1-Pad39)*%
X218637500Y-98977500D03*
%TO.P,U27,38,GPIO26_ADC0*%
%TO.N,Net-(U27-GPIO26_ADC0)*%
X218637500Y-99377500D03*
%TO.P,U27,37,GPIO25*%
%TO.N,unconnected-(U27-GPIO25-Pad37)*%
X218637500Y-99777500D03*
%TO.P,U27,36,GPIO24*%
%TO.N,unconnected-(U27-GPIO24-Pad36)*%
X218637500Y-100177500D03*
%TO.P,U27,35,GPIO23*%
%TO.N,unconnected-(U27-GPIO23-Pad35)*%
X218637500Y-100577500D03*
%TO.P,U27,34,GPIO22*%
%TO.N,unconnected-(U27-GPIO22-Pad34)*%
X218637500Y-100977500D03*
%TO.P,U27,33,IOVDD*%
%TO.N,/3V3*%
X218637500Y-101377500D03*
%TO.P,U27,32,GPIO21*%
%TO.N,unconnected-(U27-GPIO21-Pad32)*%
X218637500Y-101777500D03*
%TO.P,U27,31,GPIO20*%
%TO.N,unconnected-(U27-GPIO20-Pad31)*%
X218637500Y-102177500D03*
%TO.P,U27,30,GPIO19*%
%TO.N,unconnected-(U27-GPIO19-Pad30)*%
X218637500Y-102577500D03*
%TO.P,U27,29,GPIO18*%
%TO.N,unconnected-(U27-GPIO18-Pad29)*%
X218637500Y-102977500D03*
D40*
%TO.P,U27,28,GPIO17*%
%TO.N,unconnected-(U27-GPIO17-Pad28)*%
X217800000Y-103815000D03*
%TO.P,U27,27,GPIO16*%
%TO.N,unconnected-(U27-GPIO16-Pad27)*%
X217400000Y-103815000D03*
%TO.P,U27,26,RUN*%
%TO.N,/3V3*%
X217000000Y-103815000D03*
%TO.P,U27,25,SWD*%
%TO.N,/Data/SWD*%
X216600000Y-103815000D03*
%TO.P,U27,24,SWCLK*%
%TO.N,/Data/SWCLK*%
X216200000Y-103815000D03*
%TO.P,U27,23,DVDD*%
%TO.N,/Data/1V1*%
X215800000Y-103815000D03*
%TO.P,U27,22,IOVDD*%
%TO.N,/3V3*%
X215400000Y-103815000D03*
%TO.P,U27,21,XOUT*%
%TO.N,/Data/XOUT*%
X215000000Y-103815000D03*
%TO.P,U27,20,XIN*%
%TO.N,/Data/XIN*%
X214600000Y-103815000D03*
%TO.P,U27,19,TESTEN*%
%TO.N,GND*%
X214200000Y-103815000D03*
%TO.P,U27,18,GPIO15*%
%TO.N,/Data/SCL*%
X213800000Y-103815000D03*
%TO.P,U27,17,GPIO14*%
%TO.N,/Data/SDA*%
X213400000Y-103815000D03*
%TO.P,U27,16,GPIO13*%
%TO.N,unconnected-(U27-GPIO13-Pad16)*%
X213000000Y-103815000D03*
%TO.P,U27,15,GPIO12*%
%TO.N,unconnected-(U27-GPIO12-Pad15)*%
X212600000Y-103815000D03*
D41*
%TO.P,U27,14,GPIO11*%
%TO.N,/RST*%
X211762500Y-102977500D03*
%TO.P,U27,13,GPIO10*%
%TO.N,unconnected-(U27-GPIO10-Pad13)*%
X211762500Y-102577500D03*
%TO.P,U27,12,GPIO9*%
%TO.N,/RX*%
X211762500Y-102177500D03*
%TO.P,U27,11,GPIO8*%
%TO.N,/TX*%
X211762500Y-101777500D03*
%TO.P,U27,10,IOVDD*%
%TO.N,/3V3*%
X211762500Y-101377500D03*
%TO.P,U27,9,GPIO7*%
%TO.N,unconnected-(U27-GPIO7-Pad9)*%
X211762500Y-100977500D03*
%TO.P,U27,8,GPIO6*%
%TO.N,unconnected-(U27-GPIO6-Pad8)*%
X211762500Y-100577500D03*
%TO.P,U27,7,GPIO5*%
%TO.N,unconnected-(U27-GPIO5-Pad7)*%
X211762500Y-100177500D03*
%TO.P,U27,6,GPIO4*%
%TO.N,unconnected-(U27-GPIO4-Pad6)*%
X211762500Y-99777500D03*
%TO.P,U27,5,GPIO3*%
%TO.N,unconnected-(U27-GPIO3-Pad5)*%
X211762500Y-99377500D03*
%TO.P,U27,4,GPIO2*%
%TO.N,unconnected-(U27-GPIO2-Pad4)*%
X211762500Y-98977500D03*
%TO.P,U27,3,GPIO1*%
%TO.N,Net-(U27-GPIO1)*%
X211762500Y-98577500D03*
%TO.P,U27,2,GPIO0*%
%TO.N,/Data/PWR_EN*%
X211762500Y-98177500D03*
%TO.P,U27,1,IOVDD*%
%TO.N,/3V3*%
X211762500Y-97777500D03*
%TD*%
D42*
%TO.P,R9,1*%
%TO.N,/Power/SW2*%
X134440000Y-84545000D03*
%TO.P,R9,2*%
%TO.N,Net-(U1-RAMP2)*%
X134440000Y-86195000D03*
%TD*%
D43*
%TO.P,C22,1*%
%TO.N,/3V3*%
X235600000Y-145990000D03*
%TO.P,C22,2*%
%TO.N,GND*%
X235600000Y-146950000D03*
%TD*%
D44*
%TO.P,C107,1*%
%TO.N,GND*%
X208420000Y-100940000D03*
%TO.P,C107,2*%
%TO.N,/3V3*%
X209380000Y-100940000D03*
%TD*%
D29*
%TO.P,J4,1,Pin_1*%
%TO.N,/stack4/GND1*%
X138460000Y-181660000D03*
D45*
X138460000Y-181660000D03*
%TD*%
D29*
%TO.P,J3,1,Pin_1*%
%TO.N,/stack4/GND0*%
X138460000Y-167970000D03*
D45*
X138460000Y-167970000D03*
%TD*%
D46*
%TO.P,C17,1*%
%TO.N,/3V6*%
X171484832Y-134109329D03*
%TO.P,C17,2*%
%TO.N,GND*%
X171484832Y-127454529D03*
%TD*%
D29*
%TO.P,J18,1,Pin_1*%
%TO.N,/3V6*%
X138470000Y-154320000D03*
D30*
X134680000Y-152320000D03*
%TD*%
D47*
%TO.P,C20,1*%
%TO.N,/3V3*%
X153760000Y-96730000D03*
%TO.P,C20,2*%
%TO.N,GND*%
X151860000Y-96730000D03*
%TD*%
D48*
%TO.P,R52,1*%
%TO.N,GND*%
X208840000Y-83870000D03*
%TO.P,R52,2*%
%TO.N,Net-(J6-CC2)*%
X208840000Y-82850000D03*
%TD*%
D49*
%TO.P,R53,1*%
%TO.N,/Data/USB_DP*%
X215630000Y-93140000D03*
%TO.P,R53,2*%
%TO.N,Net-(U27-USB_DP)*%
X215630000Y-94160000D03*
%TD*%
D50*
%TO.P,U9,1,DIN*%
%TO.N,Net-(U27-GPIO1)*%
X231150000Y-80670000D03*
D51*
%TO.P,U9,2,VDD*%
%TO.N,/5V*%
X229800000Y-80670000D03*
D52*
%TO.P,U9,3,DOUT*%
%TO.N,unconnected-(U9-DOUT-Pad3)*%
X228775000Y-80670000D03*
D50*
%TO.P,U9,4,GND*%
%TO.N,GND*%
X227550000Y-80670000D03*
%TD*%
D31*
%TO.P,R4,1*%
%TO.N,Net-(C11-Pad2)*%
X142455000Y-87920000D03*
%TO.P,R4,2*%
%TO.N,Net-(U1-COMP1)*%
X140805000Y-87920000D03*
%TD*%
D53*
%TO.P,C106,1*%
%TO.N,GND*%
X219520000Y-106400000D03*
%TO.P,C106,2*%
%TO.N,/3V3*%
X219520000Y-105440000D03*
%TD*%
D44*
%TO.P,C99,1*%
%TO.N,GND*%
X209240000Y-92850000D03*
%TO.P,C99,2*%
%TO.N,/3V3*%
X210200000Y-92850000D03*
%TD*%
D54*
%TO.P,U7,1,SDA*%
%TO.N,/Data/SDA*%
X232595000Y-178000000D03*
%TO.P,U7,2,SCL*%
%TO.N,/Data/SCL*%
X233245000Y-178000000D03*
%TO.P,U7,3,ALERT*%
%TO.N,unconnected-(U7-ALERT-Pad3)*%
X233895000Y-178000000D03*
%TO.P,U7,4,GND*%
%TO.N,GND*%
X234545000Y-178000000D03*
%TO.P,U7,5,A2*%
X234545000Y-173700000D03*
%TO.P,U7,6,A1*%
%TO.N,/3V3*%
X233895000Y-173700000D03*
%TO.P,U7,7,A0*%
X233245000Y-173700000D03*
%TO.P,U7,8,V+*%
X232595000Y-173700000D03*
%TD*%
D29*
%TO.P,J11,1,Pin_1*%
%TO.N,/stack7/GND1*%
X203050000Y-168080000D03*
D45*
X203050000Y-168080000D03*
%TD*%
D24*
%TO.P,C18,1*%
%TO.N,/3V6*%
X199197400Y-130610000D03*
%TO.P,C18,2*%
%TO.N,GND*%
X192542600Y-130610000D03*
%TD*%
D29*
%TO.P,J10,1,Pin_1*%
%TO.N,/stack7/GND0*%
X203050000Y-181770000D03*
D45*
X203050000Y-181770000D03*
%TD*%
D55*
%TO.P,J1,1,Pin_1*%
%TO.N,/Power/VIN*%
X164295549Y-81250000D03*
X164295549Y-88250000D03*
X169295549Y-81250000D03*
X169295549Y-88250000D03*
%TD*%
D32*
%TO.P,H5,1,1*%
%TO.N,unconnected-(H5-Pad1)*%
X192930000Y-167770000D03*
%TD*%
D30*
%TO.P,J17,1,Pin_1*%
%TO.N,/stack6/GND2*%
X199270000Y-197370000D03*
D29*
X203050000Y-195370000D03*
%TD*%
%TO.P,J9,1,Pin_1*%
%TO.N,/stack6/GND1*%
X181500000Y-181680000D03*
D45*
X181500000Y-181680000D03*
%TD*%
D56*
%TO.P,D2,1,K*%
%TO.N,Net-(D2-K)*%
X129305000Y-87307600D03*
%TO.P,D2,2,A*%
%TO.N,Net-(D2-A)*%
X129305000Y-85072400D03*
%TD*%
D29*
%TO.P,J12,1,Pin_1*%
%TO.N,/stack4/GND2*%
X138420000Y-195340000D03*
D30*
X142210000Y-197340000D03*
%TD*%
D44*
%TO.P,C24,1*%
%TO.N,/3V3*%
X120100000Y-172040000D03*
%TO.P,C24,2*%
%TO.N,GND*%
X121060000Y-172040000D03*
%TD*%
D57*
%TO.P,L1,1,1*%
%TO.N,/Power/SW1*%
X144898950Y-107098948D03*
%TO.P,L1,2,2*%
%TO.N,/3V6*%
X134468951Y-107098948D03*
D58*
%TO.P,L1,3,NC*%
%TO.N,unconnected-(L1-NC-Pad3)*%
X139683949Y-129173949D03*
%TD*%
D29*
%TO.P,J8,1,Pin_1*%
%TO.N,/stack6/GND0*%
X181500000Y-167990000D03*
D45*
X181500000Y-167990000D03*
%TD*%
D44*
%TO.P,C100,1*%
%TO.N,GND*%
X212400000Y-94150000D03*
%TO.P,C100,2*%
%TO.N,/Data/1V1*%
X213360000Y-94150000D03*
%TD*%
D59*
%TO.P,U10,1,GND*%
%TO.N,GND*%
X229230000Y-91130000D03*
%TO.P,U10,2,VOUT*%
%TO.N,/3V3*%
X226930000Y-91130000D03*
%TO.P,U10,3,VIN*%
%TO.N,/5V*%
X224630000Y-91130000D03*
D60*
%TO.P,U10,4,VOUT*%
%TO.N,/3V3*%
X226930000Y-96930000D03*
%TD*%
D42*
%TO.P,R7,1*%
%TO.N,/Power/OUT0*%
X149990000Y-96395000D03*
%TO.P,R7,2*%
%TO.N,GND*%
X149990000Y-98045000D03*
%TD*%
D53*
%TO.P,C105,1*%
%TO.N,GND*%
X218180000Y-106450000D03*
%TO.P,C105,2*%
%TO.N,/3V3*%
X218180000Y-105490000D03*
%TD*%
D43*
%TO.P,C90,1*%
%TO.N,/5V*%
X222680000Y-92710000D03*
%TO.P,C90,2*%
%TO.N,GND*%
X222680000Y-93670000D03*
%TD*%
%TO.P,C96,1*%
%TO.N,GND*%
X216750000Y-108230000D03*
%TO.P,C96,2*%
%TO.N,/Data/XOUT*%
X216750000Y-109190000D03*
%TD*%
D44*
%TO.P,C25,1*%
%TO.N,/3V3*%
X232250000Y-172010000D03*
%TO.P,C25,2*%
%TO.N,GND*%
X233210000Y-172010000D03*
%TD*%
D61*
%TO.P,U8,1,/CS*%
%TO.N,/Data/QSPI_SS*%
X207344400Y-94209998D03*
%TO.P,U8,2,DO(IO1)*%
%TO.N,/Data/QSPI_SD1*%
X207344400Y-94709999D03*
%TO.P,U8,3,/WP(IO2)*%
%TO.N,/Data/QSPI_SD2*%
X207344400Y-95209999D03*
%TO.P,U8,4,GND*%
%TO.N,GND*%
X207344400Y-95710000D03*
%TO.P,U8,5,DI(IO0)*%
%TO.N,/Data/QSPI_SD0*%
X210240000Y-95710000D03*
%TO.P,U8,6,CLK*%
%TO.N,/Data/QSPI_SCLK*%
X210240000Y-95209999D03*
%TO.P,U8,7,/HOLDOR/RESET(IO3)*%
%TO.N,/Data/QSPI_SD3*%
X210240000Y-94709999D03*
%TO.P,U8,8,VCC*%
%TO.N,/3V3*%
X210240000Y-94209998D03*
D62*
%TO.P,U8,9,EPAD*%
%TO.N,GND*%
X208792200Y-94959999D03*
%TD*%
D43*
%TO.P,C21,1*%
%TO.N,/stack7/1V2-2*%
X235600000Y-156180000D03*
%TO.P,C21,2*%
%TO.N,GND*%
X235600000Y-157140000D03*
%TD*%
D36*
%TO.P,C104,1*%
%TO.N,GND*%
X222020000Y-97805000D03*
%TO.P,C104,2*%
%TO.N,/3V3*%
X221060000Y-97805000D03*
%TD*%
D34*
%TO.P,Q2,1,S*%
%TO.N,/Power/LOOP1*%
X155990000Y-116475002D03*
%TO.P,Q2,2,S*%
X157260000Y-116475002D03*
%TO.P,Q2,3,S*%
X158530000Y-116475002D03*
%TO.P,Q2,4,G*%
%TO.N,Net-(Q2-G)*%
X159800000Y-116475002D03*
%TO.P,Q2,5,D*%
%TO.N,/Power/SW1*%
X159800000Y-110885000D03*
%TO.P,Q2,6,D*%
X158530000Y-110885000D03*
%TO.P,Q2,7,D*%
X157260000Y-110885000D03*
D35*
%TO.P,Q2,8,D*%
X157895000Y-112674999D03*
D34*
X155990000Y-110885000D03*
%TD*%
D36*
%TO.P,C108,1*%
%TO.N,GND*%
X220010000Y-95570000D03*
%TO.P,C108,2*%
%TO.N,/3V3*%
X219050000Y-95570000D03*
%TD*%
D30*
%TO.P,J15,1,Pin_1*%
%TO.N,/stack5/GND2*%
X163790000Y-152310000D03*
D29*
X160010000Y-154310000D03*
%TD*%
D48*
%TO.P,R51,1*%
%TO.N,GND*%
X221220000Y-83860000D03*
%TO.P,R51,2*%
%TO.N,Net-(J6-CC1)*%
X221220000Y-82840000D03*
%TD*%
D44*
%TO.P,C109,1*%
%TO.N,GND*%
X208410000Y-97785000D03*
%TO.P,C109,2*%
%TO.N,/3V3*%
X209370000Y-97785000D03*
%TD*%
D30*
%TO.P,J13,1,Pin_1*%
%TO.N,/stack4/GND2*%
X156210000Y-197350000D03*
D29*
X159990000Y-195350000D03*
%TD*%
D63*
%TO.P,R10,1*%
%TO.N,/Power/LOOP2*%
X198036600Y-121700000D03*
%TO.P,R10,2*%
%TO.N,GND*%
X188943400Y-121700000D03*
%TD*%
D29*
%TO.P,J5,1,Pin_1*%
%TO.N,/stack5/GND0*%
X159990000Y-181670000D03*
D45*
X159990000Y-181670000D03*
%TD*%
D64*
%TO.P,R22,1*%
%TO.N,Net-(U27-GPIO26_ADC0)*%
X223320000Y-99620000D03*
%TO.P,R22,2*%
%TO.N,GND*%
X224340000Y-99620000D03*
%TD*%
D65*
%TO.P,R3,1*%
%TO.N,Net-(U1-RT)*%
X140805000Y-91610000D03*
%TO.P,R3,2*%
%TO.N,GND*%
X142455000Y-91610000D03*
%TD*%
D32*
%TO.P,H10,1,1*%
%TO.N,unconnected-(H10-Pad1)*%
X148930000Y-181770000D03*
%TD*%
D47*
%TO.P,C2,1*%
%TO.N,/Power/VIN_M*%
X125690000Y-95810000D03*
%TO.P,C2,2*%
%TO.N,GND*%
X123790000Y-95810000D03*
%TD*%
D29*
%TO.P,J7,1,Pin_1*%
%TO.N,/stack5/GND1*%
X160000000Y-167990000D03*
D45*
X160000000Y-167990000D03*
%TD*%
D47*
%TO.P,C10,1*%
%TO.N,Net-(U1-RAMP1)*%
X134920000Y-100450000D03*
%TO.P,C10,2*%
%TO.N,GND*%
X133020000Y-100450000D03*
%TD*%
D66*
%TO.P,Y1,1,1*%
%TO.N,/Data/XOUT*%
X215250000Y-108715000D03*
%TO.P,Y1,2,2*%
%TO.N,GND*%
X215250000Y-106415000D03*
%TO.P,Y1,3,3*%
%TO.N,/Data/XIN*%
X213450000Y-106415000D03*
%TO.P,Y1,4,4*%
%TO.N,GND*%
X213450000Y-108715000D03*
%TD*%
D31*
%TO.P,R2,1*%
%TO.N,Net-(JP1-B)*%
X125795000Y-92150000D03*
%TO.P,R2,2*%
%TO.N,GND*%
X124145000Y-92150000D03*
%TD*%
D37*
%TO.P,C13,1*%
%TO.N,Net-(D1-K)*%
X129313949Y-94574843D03*
%TO.P,C13,2*%
%TO.N,/Power/SW1*%
X129313949Y-96474843D03*
%TD*%
D53*
%TO.P,C102,1*%
%TO.N,GND*%
X218180000Y-109180000D03*
%TO.P,C102,2*%
%TO.N,/Data/1V1*%
X218180000Y-108220000D03*
%TD*%
D32*
%TO.P,H7,1,1*%
%TO.N,unconnected-(H7-Pad1)*%
X170930000Y-167770000D03*
%TD*%
D67*
%TO.P,U2,1,SDA*%
%TO.N,/Data/SDA*%
X150928949Y-93196051D03*
%TO.P,U2,2,SCL*%
%TO.N,/Data/SCL*%
X151578949Y-93196051D03*
%TO.P,U2,3,FS1*%
%TO.N,unconnected-(U2-FS1-Pad3)*%
X152228949Y-93196051D03*
%TO.P,U2,4,GND*%
%TO.N,GND*%
X152878949Y-93196051D03*
%TO.P,U2,5,FS0*%
%TO.N,Net-(U2-FS0)*%
X152878949Y-88896051D03*
%TO.P,U2,6,OUT0*%
%TO.N,/Power/OUT0*%
X152228949Y-88896051D03*
%TO.P,U2,7,OUT1*%
%TO.N,unconnected-(U2-OUT1-Pad7)*%
X151578949Y-88896051D03*
%TO.P,U2,8,VCC*%
%TO.N,/3V3*%
X150928949Y-88896051D03*
%TD*%
D44*
%TO.P,C110,1*%
%TO.N,GND*%
X212400000Y-93150000D03*
%TO.P,C110,2*%
%TO.N,/3V3*%
X213360000Y-93150000D03*
%TD*%
D68*
%TO.P,U1,1,VCC1*%
%TO.N,Net-(D1-A)*%
X132263950Y-95681349D03*
%TO.P,U1,2,LO1*%
%TO.N,Net-(Q2-G)*%
X132763949Y-95681349D03*
%TO.P,U1,3,PGND1*%
%TO.N,GND*%
X133263948Y-95681349D03*
%TO.P,U1,4,CSG1*%
X133763949Y-95681349D03*
%TO.P,U1,5,CS1*%
%TO.N,/Power/LOOP1*%
X134263949Y-95681349D03*
%TO.P,U1,6,RAMP1*%
%TO.N,Net-(U1-RAMP1)*%
X134763950Y-95681349D03*
%TO.P,U1,7,SS1*%
%TO.N,Net-(U1-SS1)*%
X135263949Y-95681349D03*
%TO.P,U1,8,VCCDIS*%
%TO.N,unconnected-(U1-VCCDIS-Pad8)*%
X135763948Y-95681349D03*
D69*
%TO.P,U1,9,FB1*%
%TO.N,/Power/OUT0*%
X136414249Y-95031048D03*
%TO.P,U1,10,COMP1*%
%TO.N,Net-(U1-COMP1)*%
X136414249Y-94531049D03*
%TO.P,U1,11,EN2*%
%TO.N,unconnected-(U1-EN2-Pad11)*%
X136414249Y-94031050D03*
%TO.P,U1,12,AGND*%
%TO.N,GND*%
X136414249Y-93531049D03*
%TO.P,U1,13,RT*%
%TO.N,Net-(U1-RT)*%
X136414249Y-93031049D03*
%TO.P,U1,14,RES*%
%TO.N,Net-(U1-RES)*%
X136414249Y-92531048D03*
%TO.P,U1,15,COMP2*%
%TO.N,Net-(U1-COMP1)*%
X136414249Y-92031049D03*
%TO.P,U1,16,FB2*%
%TO.N,Net-(D2-A)*%
X136414249Y-91531050D03*
D68*
%TO.P,U1,17,DEMB*%
%TO.N,Net-(D1-A)*%
X135763948Y-90880749D03*
%TO.P,U1,18,SS2*%
%TO.N,Net-(U1-SS2)*%
X135263949Y-90880749D03*
%TO.P,U1,19,RAMP2*%
%TO.N,Net-(U1-RAMP2)*%
X134763950Y-90880749D03*
%TO.P,U1,20,CS2*%
%TO.N,/Power/LOOP2*%
X134263949Y-90880749D03*
%TO.P,U1,21,CSG2*%
%TO.N,GND*%
X133763949Y-90880749D03*
%TO.P,U1,22,PGND2*%
X133263948Y-90880749D03*
%TO.P,U1,23,LO2*%
%TO.N,Net-(Q4-G)*%
X132763949Y-90880749D03*
%TO.P,U1,24,VCC2*%
%TO.N,Net-(D2-A)*%
X132263950Y-90880749D03*
D69*
%TO.P,U1,25,SW2*%
%TO.N,/Power/SW2*%
X131613649Y-91531050D03*
%TO.P,U1,26,HO2*%
%TO.N,Net-(Q3-G)*%
X131613649Y-92031049D03*
%TO.P,U1,27,HB2*%
%TO.N,Net-(D2-K)*%
X131613649Y-92531048D03*
%TO.P,U1,28,UVLO*%
%TO.N,Net-(JP1-C)*%
X131613649Y-93031049D03*
%TO.P,U1,29,VIN*%
%TO.N,/Power/VIN_M*%
X131613649Y-93531049D03*
%TO.P,U1,30,HB1*%
%TO.N,Net-(D1-K)*%
X131613649Y-94031050D03*
%TO.P,U1,31,HO1*%
%TO.N,Net-(Q1-G)*%
X131613649Y-94531049D03*
%TO.P,U1,32,SW1*%
%TO.N,/Power/SW1*%
X131613649Y-95031048D03*
D70*
%TO.P,U1,33,PAD*%
%TO.N,GND*%
X134013949Y-93281049D03*
%TD*%
D33*
%TO.P,R19,1*%
%TO.N,/3V3*%
X205280000Y-99810000D03*
%TO.P,R19,2*%
%TO.N,/Data/SDA*%
X204260000Y-99810000D03*
%TD*%
D71*
%TO.P,C8,1*%
%TO.N,Net-(U1-RES)*%
X140900000Y-89770000D03*
%TO.P,C8,2*%
%TO.N,GND*%
X142800000Y-89770000D03*
%TD*%
D47*
%TO.P,C12,1*%
%TO.N,/Power/OUT0*%
X142815000Y-93450000D03*
%TO.P,C12,2*%
%TO.N,Net-(U1-COMP1)*%
X140915000Y-93450000D03*
%TD*%
D65*
%TO.P,R1,1*%
%TO.N,/Power/VIN_M*%
X124155000Y-93840000D03*
%TO.P,R1,2*%
%TO.N,Net-(JP1-B)*%
X125805000Y-93840000D03*
%TD*%
D63*
%TO.P,R8,1*%
%TO.N,/Power/LOOP1*%
X156803400Y-121990000D03*
%TO.P,R8,2*%
%TO.N,GND*%
X165896600Y-121990000D03*
%TD*%
D37*
%TO.P,C19,1*%
%TO.N,/3V3*%
X147980000Y-90260000D03*
%TO.P,C19,2*%
%TO.N,GND*%
X147980000Y-92160000D03*
%TD*%
D27*
%TO.P,C6,1*%
%TO.N,Net-(U1-RAMP2)*%
X136460000Y-86110000D03*
%TO.P,C6,2*%
%TO.N,GND*%
X136460000Y-84210000D03*
%TD*%
D36*
%TO.P,C103,1*%
%TO.N,GND*%
X222020000Y-101385000D03*
%TO.P,C103,2*%
%TO.N,/3V3*%
X221060000Y-101385000D03*
%TD*%
D49*
%TO.P,R54,1*%
%TO.N,/Data/USB_DN*%
X216730000Y-93140000D03*
%TO.P,R54,2*%
%TO.N,Net-(U27-USB_DM)*%
X216730000Y-94160000D03*
%TD*%
D64*
%TO.P,R11,1*%
%TO.N,Net-(U2-FS0)*%
X153090000Y-87290000D03*
%TO.P,R11,2*%
%TO.N,GND*%
X154110000Y-87290000D03*
%TD*%
D37*
%TO.P,C14,1*%
%TO.N,GND*%
X132440000Y-84190000D03*
%TO.P,C14,2*%
%TO.N,Net-(D2-A)*%
X132440000Y-86090000D03*
%TD*%
D55*
%TO.P,J2,1,Pin_1*%
%TO.N,GND*%
X185805549Y-81250000D03*
X185805549Y-88250000D03*
X190805549Y-81250000D03*
X190805549Y-88250000D03*
%TD*%
D72*
%TO.P,Q3,1,S*%
%TO.N,/Power/SW2*%
X201943952Y-108688949D03*
%TO.P,Q3,2,S*%
X201943952Y-107418949D03*
%TO.P,Q3,3,S*%
X201943952Y-106148949D03*
%TO.P,Q3,4,G*%
%TO.N,Net-(Q3-G)*%
X201943952Y-104878949D03*
%TO.P,Q3,5,D*%
%TO.N,/Power/VIN_M*%
X196353950Y-104878949D03*
%TO.P,Q3,6,D*%
X196353950Y-106148949D03*
%TO.P,Q3,7,D*%
X196353950Y-107418949D03*
D73*
%TO.P,Q3,8,D*%
X198143949Y-106783949D03*
D72*
X196353950Y-108688949D03*
%TD*%
D64*
%TO.P,R21,1*%
%TO.N,/3V6*%
X221060000Y-99620000D03*
%TO.P,R21,2*%
%TO.N,Net-(U27-GPIO26_ADC0)*%
X222080000Y-99620000D03*
%TD*%
D72*
%TO.P,Q1,1,S*%
%TO.N,/Power/SW1*%
X155003946Y-104968949D03*
%TO.P,Q1,2,S*%
X155003946Y-106238949D03*
%TO.P,Q1,3,S*%
X155003946Y-107508949D03*
%TO.P,Q1,4,G*%
%TO.N,Net-(Q1-G)*%
X155003946Y-108778949D03*
%TO.P,Q1,5,D*%
%TO.N,/Power/VIN_M*%
X160593948Y-108778949D03*
%TO.P,Q1,6,D*%
X160593948Y-107508949D03*
%TO.P,Q1,7,D*%
X160593948Y-106238949D03*
D73*
%TO.P,Q1,8,D*%
X158803949Y-106873949D03*
D72*
X160593948Y-104968949D03*
%TD*%
D74*
%TO.P,U3,1,IN+*%
%TO.N,/Power/VIN*%
X160550549Y-91529849D03*
%TO.P,U3,2,IN+*%
X159900549Y-91529849D03*
%TO.P,U3,3,IN+*%
X159250549Y-91529849D03*
%TO.P,U3,4,A1*%
%TO.N,GND*%
X158600549Y-91529849D03*
%TO.P,U3,5,A0*%
X157950549Y-91529849D03*
%TO.P,U3,6,GND*%
X157300549Y-91529849D03*
%TO.P,U3,7,ALERT*%
%TO.N,unconnected-(U3-ALERT-Pad7)*%
X156650549Y-91529849D03*
%TO.P,U3,8,SDA*%
%TO.N,/Data/SDA*%
X156000549Y-91529849D03*
%TO.P,U3,9,SCL*%
%TO.N,/Data/SCL*%
X156000549Y-97254849D03*
%TO.P,U3,10,VS*%
%TO.N,/3V3*%
X156650549Y-97254849D03*
%TO.P,U3,11,GND*%
%TO.N,GND*%
X157300549Y-97254849D03*
%TO.P,U3,12,VBUS*%
%TO.N,/Power/VIN*%
X157950549Y-97254849D03*
%TO.P,U3,13,NC*%
%TO.N,unconnected-(U3-NC-Pad13)*%
X158600549Y-97254849D03*
%TO.P,U3,14,IN-*%
%TO.N,/Power/VIN_M*%
X159250549Y-97254849D03*
%TO.P,U3,15,IN-*%
X159900549Y-97254849D03*
%TO.P,U3,16,IN-*%
X160550549Y-97254849D03*
%TD*%
D53*
%TO.P,C98,1*%
%TO.N,/3V3*%
X231170000Y-93670000D03*
%TO.P,C98,2*%
%TO.N,GND*%
X231170000Y-92710000D03*
%TD*%
D29*
%TO.P,J21,1,Pin_1*%
%TO.N,GND*%
X203000000Y-154510000D03*
D30*
X199210000Y-152510000D03*
%TD*%
D32*
%TO.P,H9,1,1*%
%TO.N,unconnected-(H9-Pad1)*%
X148930000Y-167770000D03*
%TD*%
D57*
%TO.P,L2,1,1*%
%TO.N,/Power/SW2*%
X212994999Y-135835001D03*
%TO.P,L2,2,2*%
%TO.N,/3V6*%
X223424998Y-135835001D03*
D58*
%TO.P,L2,3,NC*%
%TO.N,unconnected-(L2-NC-Pad3)*%
X218210000Y-113760000D03*
%TD*%
D64*
%TO.P,R50,1*%
%TO.N,/3V3*%
X205730000Y-92850000D03*
%TO.P,R50,2*%
%TO.N,/Data/QSPI_SS*%
X206750000Y-92850000D03*
%TD*%
D54*
%TO.P,U6,1,SDA*%
%TO.N,/Data/SDA*%
X120455000Y-178030000D03*
%TO.P,U6,2,SCL*%
%TO.N,/Data/SCL*%
X121105000Y-178030000D03*
%TO.P,U6,3,ALERT*%
%TO.N,unconnected-(U6-ALERT-Pad3)*%
X121755000Y-178030000D03*
%TO.P,U6,4,GND*%
%TO.N,GND*%
X122405000Y-178030000D03*
%TO.P,U6,5,A2*%
X122405000Y-173730000D03*
%TO.P,U6,6,A1*%
%TO.N,/3V3*%
X121755000Y-173730000D03*
%TO.P,U6,7,A0*%
%TO.N,GND*%
X121105000Y-173730000D03*
%TO.P,U6,8,V+*%
%TO.N,/3V3*%
X120455000Y-173730000D03*
%TD*%
D53*
%TO.P,C97,1*%
%TO.N,GND*%
X211980000Y-108045000D03*
%TO.P,C97,2*%
%TO.N,/Data/XIN*%
X211980000Y-107085000D03*
%TD*%
D29*
%TO.P,J14,1,Pin_1*%
%TO.N,/stack5/GND2*%
X181500000Y-154310000D03*
D30*
X177710000Y-152310000D03*
%TD*%
D75*
%TO.N,GND*%
X236380000Y-146880000D03*
X199770000Y-96740000D03*
%TO.N,/3V3*%
X204570000Y-100940000D03*
%TO.N,/Data/SCL*%
X206900000Y-100890000D03*
%TO.N,/5V*%
X144584719Y-171505281D03*
%TO.N,Net-(U55-NRSTI)*%
X154790000Y-167440000D03*
%TO.N,/Data/SWCLK*%
X213715000Y-91545000D03*
%TO.N,GND*%
X224970000Y-99620000D03*
X132913949Y-93291049D03*
X135050000Y-92220000D03*
X214480000Y-99550000D03*
D76*
X154150000Y-88260000D03*
D75*
X208650000Y-96750000D03*
D76*
X157951600Y-89788400D03*
D75*
X215900000Y-99550000D03*
X132910000Y-94430000D03*
X198140000Y-164650000D03*
X132910000Y-92220000D03*
X122405000Y-179190000D03*
D76*
X157711600Y-99268400D03*
X222660000Y-94780000D03*
D75*
X135053949Y-93291049D03*
D76*
X131700000Y-101200000D03*
D75*
X207760000Y-97785000D03*
D76*
X138430000Y-100680000D03*
D75*
X143490000Y-91150000D03*
X220660000Y-94510000D03*
X216750000Y-107480000D03*
X213994575Y-102880000D03*
D76*
X122890000Y-92130000D03*
D75*
X219530000Y-107230000D03*
D76*
X122330000Y-95850000D03*
D75*
X215200000Y-100377500D03*
X218200000Y-109960000D03*
X214470000Y-101220000D03*
D76*
X152800000Y-94695200D03*
D75*
X134010000Y-92210000D03*
X212100000Y-108940000D03*
X135050000Y-94430000D03*
X134013949Y-93281049D03*
X211790000Y-93150000D03*
X227550000Y-82230000D03*
X215890000Y-101220000D03*
X222650000Y-101390000D03*
X230240000Y-150730000D03*
X205420000Y-146280000D03*
X220650000Y-95570000D03*
X234740000Y-179440000D03*
D76*
X148500000Y-93450000D03*
D75*
X122565000Y-170505000D03*
X218230000Y-107280000D03*
X150970000Y-98210000D03*
X134010000Y-94420000D03*
X222660000Y-97780000D03*
X209030000Y-164830000D03*
D77*
X230970000Y-91130000D03*
D76*
X140200000Y-84200000D03*
D75*
X207770000Y-100940000D03*
D77*
X232375000Y-91135000D03*
D76*
X130870000Y-84420000D03*
D75*
X208610000Y-92850000D03*
D77*
%TO.N,/Power/VIN_M*%
X167990000Y-103730000D03*
X194920000Y-108410000D03*
X199080000Y-102770000D03*
X169390000Y-102290000D03*
X193440000Y-102780000D03*
X165270000Y-102290000D03*
X166640000Y-102290000D03*
X162170000Y-102300000D03*
X169380000Y-103730000D03*
D75*
X145750000Y-99710000D03*
D77*
X165260000Y-103730000D03*
D75*
X127968951Y-93531049D03*
D77*
X163763949Y-106473949D03*
X194920000Y-102780000D03*
X196280000Y-101190000D03*
X162170000Y-105103949D03*
X193440000Y-101190000D03*
X168000000Y-102290000D03*
X197670000Y-102780000D03*
X166630000Y-103730000D03*
X193440000Y-104290000D03*
X199080000Y-101180000D03*
X193440000Y-108410000D03*
X197670000Y-101190000D03*
X163763949Y-102300000D03*
X163763949Y-105103949D03*
X194920000Y-107020000D03*
X194920000Y-105660000D03*
X193440000Y-107020000D03*
X194920000Y-101190000D03*
X162170000Y-103740000D03*
X194920000Y-104290000D03*
X162170000Y-106473949D03*
X196280000Y-102780000D03*
X163763949Y-103740000D03*
X193440000Y-105660000D03*
D75*
%TO.N,Net-(D1-A)*%
X137370000Y-90530000D03*
X131960000Y-96750000D03*
%TO.N,Net-(U1-COMP1)*%
X138240000Y-91660000D03*
X139833951Y-94531049D03*
%TO.N,Net-(D2-A)*%
X138080000Y-89160000D03*
X130400000Y-87860000D03*
X132320000Y-88248792D03*
D77*
%TO.N,/3V6*%
X132570000Y-135590000D03*
X228680000Y-137210000D03*
X134160000Y-134220000D03*
X218200000Y-134170000D03*
X218200000Y-132580000D03*
X219640000Y-134150000D03*
X221194284Y-140220000D03*
X134160000Y-135590000D03*
X129500000Y-136960000D03*
X135670000Y-139770000D03*
X129500000Y-135600000D03*
X126570000Y-134220000D03*
X228680000Y-141940000D03*
X169430000Y-135880000D03*
X222691426Y-140220000D03*
X228680000Y-138800000D03*
X134150000Y-139780000D03*
X218200000Y-138880000D03*
X228680000Y-135690000D03*
X129530000Y-132820000D03*
X218200000Y-142020000D03*
X168040000Y-135880000D03*
X202500000Y-129490000D03*
X199390000Y-128050000D03*
X227200000Y-135690000D03*
X227200000Y-132500000D03*
X127980000Y-136980000D03*
X227200000Y-137210000D03*
X218200000Y-140300000D03*
X135680000Y-134210000D03*
X128010000Y-132840000D03*
X135680000Y-135580000D03*
X227182852Y-141940000D03*
X126560000Y-141170000D03*
X202500000Y-128100000D03*
X135680000Y-136940000D03*
X132560000Y-139780000D03*
X155980000Y-133950000D03*
X155980000Y-132560000D03*
X127970000Y-139810000D03*
X227200000Y-138800000D03*
X154390000Y-133950000D03*
X129490000Y-141180000D03*
X225685710Y-141940000D03*
X227182852Y-140220000D03*
X135710000Y-132800000D03*
X132570000Y-136950000D03*
X132600000Y-132810000D03*
X126600000Y-132810000D03*
X219697142Y-142000000D03*
X222691426Y-141940000D03*
X126570000Y-136950000D03*
X134160000Y-136950000D03*
X228680000Y-134090000D03*
X224188568Y-140220000D03*
X218200000Y-137290000D03*
X134150000Y-141170000D03*
X127980000Y-134250000D03*
X129500000Y-138350000D03*
X154390000Y-132560000D03*
X127980000Y-138370000D03*
X131050000Y-138360000D03*
X126560000Y-139780000D03*
X132560000Y-141170000D03*
X169430000Y-137470000D03*
X131040000Y-141190000D03*
X219640000Y-135750000D03*
X221194284Y-141940000D03*
X168040000Y-137470000D03*
X135680000Y-138330000D03*
X129490000Y-139790000D03*
X225685710Y-140220000D03*
X131080000Y-132830000D03*
X218200000Y-135770000D03*
X202440000Y-130930000D03*
X127980000Y-135620000D03*
X135670000Y-141160000D03*
X219697142Y-140280000D03*
X131050000Y-136970000D03*
D75*
X142400000Y-153030000D03*
D77*
X219640000Y-137270000D03*
X131040000Y-139800000D03*
X134190000Y-132810000D03*
X126570000Y-138340000D03*
X228680000Y-132500000D03*
X228680000Y-140220000D03*
X227200000Y-134090000D03*
X131050000Y-135610000D03*
X132570000Y-138340000D03*
X219640000Y-138860000D03*
X200910000Y-128100000D03*
X219640000Y-132560000D03*
D75*
X224900000Y-107900000D03*
D77*
X127970000Y-141200000D03*
X132570000Y-134220000D03*
X134160000Y-138340000D03*
X126570000Y-135590000D03*
X129500000Y-134230000D03*
X131050000Y-134240000D03*
X224188568Y-141940000D03*
D75*
%TO.N,Net-(Q1-G)*%
X156110000Y-109770000D03*
X129000000Y-97770000D03*
%TO.N,Net-(Q2-G)*%
X159800000Y-117390000D03*
X132763949Y-96740000D03*
%TO.N,Net-(Q3-G)*%
X130560000Y-91820000D03*
X201940000Y-103890000D03*
%TO.N,Net-(Q4-G)*%
X133020000Y-87890000D03*
X200890000Y-117400000D03*
%TO.N,/3V3*%
X220730000Y-106730000D03*
X216720000Y-106710000D03*
X215640000Y-94960000D03*
D76*
X154390000Y-94680000D03*
D75*
X235560000Y-145110000D03*
D76*
X147990000Y-88810000D03*
D77*
X226930000Y-94930000D03*
D75*
X211110000Y-94175000D03*
X218000000Y-95855000D03*
X232200000Y-171100000D03*
D76*
X156461600Y-99268400D03*
D75*
X219870000Y-97785000D03*
D77*
X226930000Y-93330000D03*
D75*
X232000000Y-146130000D03*
X219960000Y-101385000D03*
X120100000Y-169750000D03*
D76*
X150900000Y-86900000D03*
D75*
X205040000Y-92890000D03*
X210430000Y-97770000D03*
X210100000Y-100940000D03*
%TO.N,/Data/1V1*%
X214990000Y-97995000D03*
X215350000Y-102765000D03*
X216930000Y-97995000D03*
%TO.N,/stack4/GND0*%
X133360000Y-157380000D03*
X143630000Y-157610000D03*
%TO.N,/stack4/GND1*%
X133350000Y-171210000D03*
X143440000Y-171040000D03*
%TO.N,/stack4/GND2*%
X164338000Y-196342000D03*
X143620000Y-183930000D03*
X133380000Y-184540000D03*
%TO.N,/stack4/1V2-0*%
X133120000Y-165470000D03*
%TO.N,/Power/SW1*%
X131940000Y-98140000D03*
X151290000Y-104650000D03*
%TO.N,/Power/SW2*%
X194730000Y-112020000D03*
X130930000Y-89160000D03*
%TO.N,/Power/LOOP1*%
X134710000Y-97470000D03*
X154820000Y-116460000D03*
%TO.N,/Power/LOOP2*%
X196060000Y-116440000D03*
X134040000Y-87900000D03*
%TO.N,/stack4/1V2-1*%
X132950000Y-179160000D03*
%TO.N,/stack4/1V2-2*%
X132790000Y-193870000D03*
%TO.N,/stack4/0V8-0*%
X132130000Y-165420000D03*
X128970000Y-160830000D03*
%TO.N,/stack4/0V8-1*%
X132850000Y-176370000D03*
X131930000Y-178570000D03*
%TO.N,/stack4/0V8-2*%
X128740000Y-187750000D03*
X131820000Y-193740000D03*
%TO.N,/stack5/GND0*%
X149930000Y-187660000D03*
X155070000Y-192060000D03*
X165240000Y-192140000D03*
%TO.N,/stack5/GND1*%
X164930000Y-178410000D03*
X154800000Y-178410000D03*
%TO.N,/stack5/GND2*%
X185674000Y-152908000D03*
X165002500Y-165607500D03*
X154770000Y-165410000D03*
X147722500Y-155955000D03*
X146362500Y-161820000D03*
%TO.N,/stack5/1V2-0*%
X152930000Y-186570000D03*
%TO.N,/stack5/1V2-1*%
X154880000Y-173920000D03*
%TO.N,/stack5/1V2-2*%
X150840000Y-157720000D03*
X154630000Y-156180000D03*
%TO.N,/stack5/0V8-0*%
X153800000Y-186900000D03*
%TO.N,/stack5/0V8-1*%
X165150000Y-171610000D03*
%TO.N,/stack5/0V8-2*%
X150691091Y-159021091D03*
X153560000Y-156200000D03*
%TO.N,/stack6/GND0*%
X186900000Y-156720000D03*
X176370000Y-157590000D03*
%TO.N,/stack6/GND1*%
X186710000Y-171070000D03*
X176210000Y-171100000D03*
%TO.N,/stack6/GND2*%
X186860000Y-184900000D03*
X207518000Y-197104000D03*
X176280000Y-184700000D03*
%TO.N,/stack6/1V2-0*%
X186660000Y-164720000D03*
%TO.N,/stack6/1V2-1*%
X176300000Y-178050000D03*
%TO.N,/stack6/1V2-2*%
X171480000Y-189320000D03*
X175650000Y-194370000D03*
%TO.N,/stack6/0V8-0*%
X175870000Y-163790000D03*
%TO.N,/stack6/0V8-1*%
X192528749Y-172053749D03*
X188425000Y-177750000D03*
%TO.N,/stack6/0V8-2*%
X174600000Y-194360000D03*
%TO.N,/stack7/GND0*%
X197820000Y-192140000D03*
X211600000Y-190930000D03*
%TO.N,/stack7/GND1*%
X198010000Y-178730000D03*
X208440000Y-178730000D03*
%TO.N,/stack7/1V2-0*%
X209080000Y-185050000D03*
X208200000Y-188330000D03*
%TO.N,/stack7/1V2-1*%
X213820000Y-175670000D03*
X210580000Y-172125000D03*
%TO.N,/stack7/1V2-2*%
X230195104Y-149850000D03*
X209520000Y-156990000D03*
X215026522Y-160913133D03*
X235570000Y-153120000D03*
%TO.N,/stack7/0V8-0*%
X209690000Y-185580000D03*
%TO.N,/stack7/0V8-1*%
X209560000Y-172150000D03*
%TO.N,/stack7/0V8-2*%
X210530000Y-156990000D03*
%TO.N,/Data/SWD*%
X217010000Y-102795000D03*
X216620000Y-91550000D03*
%TO.N,/Data/SWCLK*%
X216250000Y-102710000D03*
%TO.N,/Data/QSPI_SS*%
X204510000Y-95260000D03*
X210613028Y-96694305D03*
%TO.N,Net-(U46-NRSTO)*%
X143610000Y-171890000D03*
%TO.N,Net-(U46-CO)*%
X143526091Y-175413909D03*
%TO.N,Net-(U46-CLKO)*%
X143550000Y-174320000D03*
%TO.N,Net-(U46-RI)*%
X143549000Y-173531000D03*
%TO.N,Net-(U46-BO)*%
X143550000Y-172710000D03*
%TO.N,Net-(U45-BI)*%
X146620000Y-173760000D03*
%TO.N,Net-(U45-CO)*%
X132570000Y-157450000D03*
%TO.N,Net-(U46-CI)*%
X131500000Y-180200000D03*
%TO.N,Net-(U47-CO)*%
X131520000Y-182590000D03*
%TO.N,Net-(U46-CLKI)*%
X130490000Y-180200000D03*
%TO.N,Net-(U45-CLKO)*%
X131990000Y-157940000D03*
%TO.N,Net-(U47-CLKO)*%
X130540000Y-182580000D03*
%TO.N,Net-(U46-RO)*%
X129480000Y-180200000D03*
%TO.N,Net-(U45-RI)*%
X131920000Y-159470000D03*
%TO.N,Net-(U47-RI)*%
X129480000Y-182500000D03*
%TO.N,Net-(U46-BI)*%
X128490000Y-180200000D03*
%TO.N,Net-(U45-BO)*%
X131960000Y-160450000D03*
%TO.N,Net-(U47-BO)*%
X128530000Y-182610000D03*
%TO.N,Net-(U46-NRSTI)*%
X127630000Y-180180000D03*
%TO.N,Net-(U45-NRSTO)*%
X125520000Y-161250000D03*
%TO.N,Net-(U47-NRSTO)*%
X127670000Y-182610000D03*
%TO.N,Net-(U55-NRSTO)*%
X168190000Y-191270000D03*
%TO.N,Net-(U55-CO)*%
X168190000Y-187120000D03*
%TO.N,Net-(U55-CLKO)*%
X168190000Y-188140000D03*
%TO.N,Net-(U55-RI)*%
X168190000Y-189210000D03*
%TO.N,Net-(U55-BO)*%
X168190000Y-190200000D03*
%TO.N,Net-(U55-CI)*%
X151680000Y-158810000D03*
%TO.N,Net-(U54-CO)*%
X146340000Y-185190000D03*
%TO.N,Net-(U56-CO)*%
X154350000Y-158820000D03*
%TO.N,Net-(U54-CLKO)*%
X146350000Y-186390000D03*
%TO.N,Net-(U55-CLKI)*%
X151700000Y-159810000D03*
%TO.N,Net-(U56-CLKO)*%
X154871091Y-161558909D03*
%TO.N,Net-(U55-RO)*%
X151700000Y-160840000D03*
%TO.N,Net-(U54-RI)*%
X146310000Y-187330000D03*
%TO.N,Net-(U56-RI)*%
X154700000Y-163200000D03*
%TO.N,Net-(U55-BI)*%
X151660000Y-161870000D03*
%TO.N,Net-(U54-BO)*%
X146320000Y-188410000D03*
%TO.N,Net-(U56-BO)*%
X154040000Y-163980000D03*
%TO.N,Net-(U54-NRSTO)*%
X146310000Y-189360000D03*
%TO.N,Net-(U55-NRSTI)*%
X151940000Y-162856000D03*
%TO.N,Net-(U56-NRSTO)*%
X153370000Y-163610000D03*
%TO.N,Net-(U64-NRSTO)*%
X189920000Y-161070000D03*
%TO.N,Net-(U64-CO)*%
X190100000Y-157090000D03*
%TO.N,Net-(U64-CLKO)*%
X189890000Y-158110000D03*
%TO.N,Net-(U64-RI)*%
X189890000Y-159060000D03*
%TO.N,Net-(U64-BO)*%
X189890000Y-160050000D03*
%TO.N,Net-(U64-CI)*%
X173713954Y-186860313D03*
%TO.N,Net-(U63-CO)*%
X167780000Y-160730000D03*
%TO.N,Net-(U65-CO)*%
X176400000Y-185470000D03*
%TO.N,Net-(U63-CLKO)*%
X167780000Y-161720000D03*
%TO.N,Net-(U64-CLKI)*%
X173760000Y-187650000D03*
%TO.N,Net-(U65-CLKO)*%
X176430000Y-186240000D03*
%TO.N,Net-(U63-RI)*%
X167780000Y-162730000D03*
%TO.N,Net-(U64-RO)*%
X173800000Y-188400000D03*
%TO.N,Net-(U65-RI)*%
X176390000Y-187130000D03*
%TO.N,Net-(U64-BI)*%
X173800000Y-189325000D03*
%TO.N,Net-(U63-BO)*%
X167780000Y-163730000D03*
%TO.N,Net-(U65-BO)*%
X176370000Y-187940000D03*
%TO.N,Net-(U63-NRSTO)*%
X167780000Y-164740000D03*
%TO.N,Net-(U64-NRSTI)*%
X173800000Y-190250000D03*
X173970000Y-179310000D03*
%TO.N,Net-(U65-NRSTO)*%
X176196545Y-189791783D03*
%TO.N,Net-(U73-NRSTO)*%
X214940000Y-180240000D03*
%TO.N,Net-(U73-CO)*%
X210910000Y-180240000D03*
%TO.N,Net-(U73-CLKO)*%
X211920000Y-180240000D03*
%TO.N,Net-(U73-RI)*%
X212930000Y-180240000D03*
%TO.N,Net-(U73-BO)*%
X213920000Y-180230000D03*
%TO.N,Net-(U74-BI)*%
X209910000Y-163500000D03*
%TO.N,Net-(U72-CO)*%
X192260000Y-185660000D03*
%TO.N,Net-(U73-CI)*%
X198010000Y-177740000D03*
%TO.N,Net-(U72-CLKO)*%
X192260000Y-186610000D03*
%TO.N,Net-(U73-CLKI)*%
X198010000Y-176988286D03*
%TO.N,Net-(U72-RI)*%
X192280000Y-187570000D03*
%TO.N,Net-(U73-RO)*%
X198010000Y-176213909D03*
%TO.N,Net-(U73-BI)*%
X198010000Y-175430000D03*
%TO.N,Net-(U72-BO)*%
X192310000Y-188520000D03*
%TO.N,Net-(U73-NRSTI)*%
X198010000Y-174650000D03*
%TO.N,Net-(U72-NRSTO)*%
X192310000Y-189450000D03*
%TO.N,/stack4/RO*%
X143550000Y-186680000D03*
%TO.N,/stack4/CLKI*%
X143550000Y-185800000D03*
%TO.N,/stack4/CI*%
X143530000Y-184980000D03*
%TO.N,Net-(U74-NRSTO)*%
X195460000Y-174630000D03*
%TO.N,Net-(U74-BO)*%
X195230000Y-175567500D03*
%TO.N,Net-(U74-RI)*%
X195230000Y-176505000D03*
%TO.N,Net-(U74-CLKO)*%
X195230000Y-177442500D03*
%TO.N,Net-(U74-CO)*%
X195230000Y-178380000D03*
%TO.N,/Data/SCL*%
X211200000Y-105590000D03*
X151130000Y-94650000D03*
X225993909Y-107416091D03*
X155350000Y-100000000D03*
X122490000Y-116470000D03*
%TO.N,/Data/SDA*%
X123290000Y-116470000D03*
X154566600Y-100053400D03*
X204275000Y-99170000D03*
X150320000Y-94670000D03*
X210650000Y-106180000D03*
X226488051Y-108027648D03*
%TO.N,/Data/QSPI_SD1*%
X212930000Y-97970000D03*
X205348889Y-95243644D03*
%TO.N,/Data/QSPI_SD2*%
X213770000Y-97970000D03*
X206300000Y-95225000D03*
%TO.N,/RST*%
X236460000Y-140720000D03*
X210110000Y-102810000D03*
%TO.N,/RX*%
X235320000Y-141910000D03*
X208860000Y-103220000D03*
%TO.N,Net-(U27-GPIO1)*%
X232810000Y-81080000D03*
X210280000Y-99396526D03*
%TO.N,/TX*%
X235910000Y-141360000D03*
X208850000Y-102390000D03*
%TO.N,/stack6/CI*%
X189800000Y-185630000D03*
%TO.N,/stack6/CLKI*%
X189820000Y-186590000D03*
%TO.N,/stack6/RO*%
X189800000Y-187540000D03*
%TO.N,/stack6/BI*%
X189800000Y-188500000D03*
%TO.N,/stack6/NRSTI*%
X189770000Y-189480000D03*
%TO.N,Net-(U45-NRSTI)*%
X146410000Y-173030000D03*
%TO.N,Net-(U45-RO)*%
X146640000Y-174770000D03*
%TO.N,Net-(U45-CLKI)*%
X146650000Y-175780000D03*
%TO.N,Net-(U45-CI)*%
X146650000Y-176790000D03*
X145680000Y-164810000D03*
%TO.N,Net-(U54-NRSTI)*%
X165260000Y-191320000D03*
%TO.N,Net-(U54-BI)*%
X165260000Y-190500000D03*
%TO.N,Net-(U54-RO)*%
X165260000Y-189720000D03*
%TO.N,Net-(U54-CLKI)*%
X165260000Y-188950000D03*
%TO.N,Net-(U54-CI)*%
X165260000Y-188190000D03*
%TO.N,/stack4/BI*%
X143550000Y-187730000D03*
%TO.N,/stack4/NRSTI*%
X143570000Y-189020000D03*
%TO.N,Net-(U63-NRSTI)*%
X186860000Y-161170000D03*
%TO.N,/stack5/NRSTI*%
X165190000Y-164710000D03*
%TO.N,Net-(U63-BI)*%
X186880000Y-160260000D03*
%TO.N,/stack5/BI*%
X165190000Y-163710000D03*
%TO.N,Net-(U63-RO)*%
X186860000Y-159400000D03*
%TO.N,/stack5/RO*%
X165190000Y-162700000D03*
%TO.N,Net-(U63-CLKI)*%
X186860000Y-158530000D03*
%TO.N,/stack5/CLKI*%
X165190000Y-161750000D03*
%TO.N,Net-(U63-CI)*%
X186880000Y-157670000D03*
%TO.N,/stack5/CI*%
X165190000Y-160720000D03*
%TO.N,Net-(U72-NRSTI)*%
X211500000Y-190000000D03*
X214940000Y-183060000D03*
%TO.N,Net-(U72-BI)*%
X213930000Y-183060000D03*
%TO.N,Net-(U72-RO)*%
X212920000Y-183060000D03*
%TO.N,Net-(U72-CLKI)*%
X211930000Y-183040000D03*
%TO.N,Net-(U72-CI)*%
X210910000Y-183040000D03*
%TO.N,/stack7/RST_N*%
X232640000Y-155860000D03*
X227400000Y-164230000D03*
X232600000Y-159300000D03*
%TO.N,/stack7/RO*%
X227400000Y-162850000D03*
%TO.N,/stack7/CLKI*%
X219680000Y-162210000D03*
%TO.N,/stack7/CI*%
X227430000Y-161570000D03*
%TO.N,/5V*%
X218010000Y-173960000D03*
X218010000Y-160100000D03*
X126570000Y-169880000D03*
X218010000Y-192610000D03*
X126570000Y-188380000D03*
X126570000Y-183670000D03*
X218010000Y-187650000D03*
D77*
X177880000Y-96600000D03*
D75*
X190338749Y-176083749D03*
X126570000Y-175090000D03*
X149830000Y-192140000D03*
X126570000Y-156720000D03*
X147310000Y-192140000D03*
X144680000Y-157700000D03*
X218010000Y-178850000D03*
D77*
X217320000Y-88220000D03*
D75*
X126570000Y-161220000D03*
X174860000Y-157460000D03*
X191670000Y-163360000D03*
X170610000Y-174190000D03*
X170690000Y-190600000D03*
X170910000Y-185720000D03*
D77*
X212550000Y-88250000D03*
D75*
X218010000Y-164990000D03*
X148720000Y-153100000D03*
%TO.N,/Data/PWR_EN*%
X203180000Y-98910000D03*
X127780000Y-87090000D03*
%TD*%
D78*
%TO.N,/stack5/1V2-0*%
X152930000Y-186570000D02*
X154570000Y-184930000D01*
X154570000Y-184930000D02*
X155990000Y-184930000D01*
%TO.N,GND*%
X236380000Y-146880000D02*
X235670000Y-146880000D01*
X235670000Y-146880000D02*
X235600000Y-146950000D01*
%TO.N,/3V6*%
X148280000Y-98045000D02*
X145485000Y-98045000D01*
X145485000Y-98045000D02*
X140310000Y-103220000D01*
X125500000Y-157700000D02*
X130900000Y-157700000D01*
X124710000Y-108890000D02*
X124710000Y-156910000D01*
X130900000Y-157700000D02*
X131800000Y-156800000D01*
X140310000Y-103220000D02*
X130380000Y-103220000D01*
X130380000Y-103220000D02*
X124710000Y-108890000D01*
X124710000Y-156910000D02*
X125500000Y-157700000D01*
X131800000Y-156800000D02*
X131800000Y-155200000D01*
X131800000Y-155200000D02*
X134680000Y-152320000D01*
%TO.N,GND*%
X234545000Y-173700000D02*
X234545000Y-172605000D01*
X233950000Y-172010000D02*
X233210000Y-172010000D01*
X234545000Y-172605000D02*
X233950000Y-172010000D01*
X221220000Y-83860000D02*
X221220000Y-84340000D01*
X221220000Y-84340000D02*
X220115000Y-85445000D01*
X220115000Y-85445000D02*
X219300000Y-85445000D01*
X208840000Y-83870000D02*
X208840000Y-84300000D01*
X208840000Y-84300000D02*
X209985000Y-85445000D01*
X209985000Y-85445000D02*
X210660000Y-85445000D01*
%TO.N,/Data/QSPI_SD1*%
X212930000Y-97970000D02*
X213000000Y-97900000D01*
X213000000Y-97900000D02*
X213000000Y-96940000D01*
%TO.N,/Data/QSPI_SS*%
X210613028Y-96694305D02*
X210613028Y-96596972D01*
X210870000Y-96340000D02*
X212440000Y-96340000D01*
X212440000Y-96340000D02*
X212600000Y-96500000D01*
X210613028Y-96596972D02*
X210870000Y-96340000D01*
X212600000Y-96500000D02*
X212600000Y-96940000D01*
%TO.N,/3V3*%
X210100000Y-100940000D02*
X210537500Y-101377500D01*
X210537500Y-101377500D02*
X211762500Y-101377500D01*
X205280000Y-100940000D02*
X204570000Y-100940000D01*
%TO.N,/Data/SCL*%
X206300000Y-100940000D02*
X206850000Y-100940000D01*
X206850000Y-100940000D02*
X206900000Y-100890000D01*
%TO.N,/3V3*%
X205380000Y-99710000D02*
X205280000Y-99810000D01*
%TO.N,/Data/SDA*%
X204275000Y-99170000D02*
X204275000Y-99795000D01*
X204275000Y-99795000D02*
X204260000Y-99810000D01*
%TO.N,/3V3*%
X210437500Y-97777500D02*
X211762500Y-97777500D01*
X210415000Y-97785000D02*
X209370000Y-97785000D01*
X210430000Y-97770000D02*
X210415000Y-97785000D01*
X210430000Y-97770000D02*
X210437500Y-97777500D01*
X214550000Y-94340000D02*
X214550000Y-93760000D01*
X215170000Y-94960000D02*
X214550000Y-94340000D01*
X214550000Y-93760000D02*
X213940000Y-93150000D01*
X213940000Y-93150000D02*
X213360000Y-93150000D01*
%TO.N,GND*%
X211790000Y-93150000D02*
X212400000Y-93150000D01*
X208610000Y-92850000D02*
X209240000Y-92850000D01*
X220650000Y-95570000D02*
X220010000Y-95570000D01*
X220660000Y-94510000D02*
X220010000Y-94510000D01*
X222660000Y-97780000D02*
X222045000Y-97780000D01*
X222045000Y-97780000D02*
X222020000Y-97805000D01*
X222025000Y-101390000D02*
X222020000Y-101385000D01*
X222650000Y-101390000D02*
X222025000Y-101390000D01*
X207770000Y-100940000D02*
X208420000Y-100940000D01*
X207760000Y-97785000D02*
X208410000Y-97785000D01*
D79*
%TO.N,/5V*%
X217320000Y-88220000D02*
X218560000Y-88220000D01*
X218560000Y-88220000D02*
X221860000Y-91520000D01*
X221860000Y-91520000D02*
X221910000Y-91520000D01*
D80*
X229800000Y-80670000D02*
X229800000Y-86980000D01*
X225700000Y-88300000D02*
X224630000Y-89370000D01*
X229800000Y-86980000D02*
X228480000Y-88300000D01*
X224630000Y-89370000D02*
X224630000Y-91130000D01*
X228480000Y-88300000D02*
X225700000Y-88300000D01*
%TO.N,GND*%
X227550000Y-80670000D02*
X227550000Y-82230000D01*
D78*
%TO.N,Net-(U27-GPIO1)*%
X232810000Y-81080000D02*
X232400000Y-80670000D01*
X232400000Y-80670000D02*
X231150000Y-80670000D01*
%TO.N,Net-(Q2-G)*%
X159800000Y-117390000D02*
X159800000Y-116475002D01*
%TO.N,/Power/LOOP2*%
X196060000Y-116440000D02*
X197070000Y-116440000D01*
X197070000Y-116440000D02*
X197070003Y-116440003D01*
X197070003Y-116440003D02*
X197075000Y-116440003D01*
%TO.N,Net-(U55-NRSTI)*%
X154790000Y-167440000D02*
X154440000Y-167440000D01*
X154440000Y-167440000D02*
X154320000Y-167320000D01*
%TO.N,/Data/SCL*%
X211200000Y-105590000D02*
X211200000Y-105345686D01*
X211200000Y-105345686D02*
X211425686Y-105120000D01*
X211425686Y-105120000D02*
X213360000Y-105120000D01*
X213360000Y-105120000D02*
X213800000Y-104680000D01*
X213800000Y-104680000D02*
X213800000Y-103815000D01*
%TO.N,/Data/SDA*%
X210650000Y-106180000D02*
X210650000Y-105330000D01*
X213127893Y-104720000D02*
X213400000Y-104447893D01*
X210650000Y-105330000D02*
X211260000Y-104720000D01*
X211260000Y-104720000D02*
X213127893Y-104720000D01*
X213400000Y-104447893D02*
X213400000Y-103815000D01*
%TO.N,/Data/SCL*%
X232924314Y-108780000D02*
X237088400Y-112944086D01*
X230910000Y-164630000D02*
X230910000Y-179235686D01*
X237088400Y-158451600D02*
X230910000Y-164630000D01*
X225993909Y-107416091D02*
X225640000Y-107770000D01*
X225640000Y-108547107D02*
X225872893Y-108780000D01*
X225872893Y-108780000D02*
X232924314Y-108780000D01*
X225640000Y-107770000D02*
X225640000Y-108547107D01*
X230910000Y-179235686D02*
X231674314Y-180000000D01*
X237088400Y-112944086D02*
X237088400Y-158451600D01*
X231674314Y-180000000D02*
X232586526Y-180000000D01*
X232586526Y-180000000D02*
X233245000Y-179341526D01*
X233245000Y-179341526D02*
X233245000Y-178000000D01*
%TO.N,/Data/SDA*%
X226488051Y-108027648D02*
X226490403Y-108030000D01*
X232740000Y-108030000D02*
X237488400Y-112778400D01*
X231740000Y-179500000D02*
X232300000Y-179500000D01*
X226490403Y-108030000D02*
X232740000Y-108030000D01*
X237488400Y-158617286D02*
X231310000Y-164795686D01*
X237488400Y-112778400D02*
X237488400Y-158617286D01*
X231310000Y-164795686D02*
X231310000Y-179070000D01*
X232300000Y-179500000D02*
X232595000Y-179205000D01*
X231310000Y-179070000D02*
X231740000Y-179500000D01*
X232595000Y-179205000D02*
X232595000Y-178000000D01*
D80*
%TO.N,GND*%
X231460000Y-150730000D02*
X234650000Y-150730000D01*
%TO.N,/3V3*%
X235560000Y-145110000D02*
X235560000Y-145950000D01*
X235560000Y-145950000D02*
X235600000Y-145990000D01*
%TO.N,GND*%
X234650000Y-150730000D02*
X235580000Y-149800000D01*
X235580000Y-148710000D02*
X235600000Y-148690000D01*
X235580000Y-149800000D02*
X235580000Y-148710000D01*
X235600000Y-148690000D02*
X235600000Y-146950000D01*
D78*
X232280000Y-153090000D02*
X232000000Y-153090000D01*
X232000000Y-153090000D02*
X232000000Y-154435000D01*
X231350000Y-154435000D02*
X231350000Y-153080000D01*
X231350000Y-153080000D02*
X231350000Y-150840000D01*
X232280000Y-153090000D02*
X231360000Y-153090000D01*
X231360000Y-153090000D02*
X231350000Y-153080000D01*
X234600000Y-154435000D02*
X234600000Y-153370000D01*
X234600000Y-153370000D02*
X234320000Y-153090000D01*
X234320000Y-153090000D02*
X232280000Y-153090000D01*
X234600000Y-154435000D02*
X234600000Y-156700000D01*
X234600000Y-156700000D02*
X234990000Y-157090000D01*
X234990000Y-157090000D02*
X235550000Y-157090000D01*
%TO.N,/stack7/1V2-2*%
X235360000Y-155500000D02*
X235610000Y-155500000D01*
X235610000Y-155500000D02*
X235810000Y-155500000D01*
X235600000Y-156180000D02*
X235600000Y-155510000D01*
X235600000Y-155510000D02*
X235610000Y-155500000D01*
X235900000Y-154435000D02*
X235900000Y-153450000D01*
X235900000Y-153450000D02*
X235570000Y-153120000D01*
X235250000Y-154435000D02*
X235250000Y-153440000D01*
X235250000Y-153440000D02*
X235570000Y-153120000D01*
X235810000Y-155500000D02*
X235900000Y-155410000D01*
X235250000Y-154435000D02*
X235250000Y-155390000D01*
X235250000Y-155390000D02*
X235360000Y-155500000D01*
X235900000Y-155410000D02*
X235900000Y-154435000D01*
%TO.N,/RX*%
X233950000Y-142970000D02*
X233950000Y-148710000D01*
X235320000Y-141910000D02*
X235010000Y-141910000D01*
X235010000Y-141910000D02*
X233950000Y-142970000D01*
%TO.N,/RST*%
X236460000Y-140720000D02*
X235068628Y-140720000D01*
X235068628Y-140720000D02*
X232650000Y-143138628D01*
X232650000Y-143138628D02*
X232650000Y-148710000D01*
%TO.N,/TX*%
X235910000Y-141360000D02*
X234994314Y-141360000D01*
X234994314Y-141360000D02*
X233300000Y-143054314D01*
X233300000Y-143054314D02*
X233300000Y-148710000D01*
%TO.N,Net-(J6-CC1)*%
X221220000Y-82840000D02*
X217940000Y-82840000D01*
X217940000Y-82840000D02*
X216230000Y-84550000D01*
X216230000Y-84550000D02*
X216230000Y-86020000D01*
%TO.N,Net-(J6-CC2)*%
X208840000Y-82850000D02*
X211550000Y-82850000D01*
X211550000Y-82850000D02*
X213230000Y-84530000D01*
X213230000Y-84530000D02*
X213230000Y-86020000D01*
%TO.N,/RST*%
X210277500Y-102977500D02*
X211762500Y-102977500D01*
X210110000Y-102810000D02*
X210277500Y-102977500D01*
%TO.N,/RX*%
X208860000Y-103220000D02*
X209902500Y-102177500D01*
X209902500Y-102177500D02*
X211762500Y-102177500D01*
%TO.N,/TX*%
X208850000Y-102390000D02*
X209462500Y-101777500D01*
X209462500Y-101777500D02*
X211762500Y-101777500D01*
%TO.N,/Data/SWD*%
X216620000Y-91550000D02*
X216120000Y-91050000D01*
X216120000Y-91050000D02*
X216120000Y-87850000D01*
X216706000Y-86044000D02*
X216730000Y-86020000D01*
X216120000Y-87850000D02*
X216706000Y-87264000D01*
X216706000Y-87264000D02*
X216706000Y-86044000D01*
%TO.N,/Data/SWCLK*%
X213730000Y-91530000D02*
X213730000Y-86020000D01*
X213715000Y-91545000D02*
X213730000Y-91530000D01*
%TO.N,/3V3*%
X211110000Y-94175000D02*
X211075002Y-94209998D01*
D81*
X211075002Y-94209998D02*
X210240000Y-94209998D01*
D82*
X211110000Y-94175000D02*
X211110000Y-93760000D01*
X211110000Y-93760000D02*
X210200000Y-92850000D01*
D78*
%TO.N,/Power/OUT0*%
X152228949Y-88896051D02*
X152228949Y-89596051D01*
X152228949Y-89596051D02*
X149610000Y-92215000D01*
X149610000Y-92215000D02*
X149610000Y-96015000D01*
X149610000Y-96015000D02*
X149990000Y-96395000D01*
%TO.N,/Data/SDA*%
X124090000Y-117270000D02*
X124090000Y-179605686D01*
X124090000Y-179605686D02*
X122874119Y-180821567D01*
X123290000Y-116470000D02*
X124090000Y-117270000D01*
X122874119Y-180821567D02*
X121651316Y-180821567D01*
X121651316Y-180821567D02*
X120455000Y-179625251D01*
X120455000Y-179625251D02*
X120455000Y-178030000D01*
%TO.N,/Data/SCL*%
X122490000Y-116470000D02*
X123650000Y-117630000D01*
X123650000Y-117630000D02*
X123650000Y-179480000D01*
X122708433Y-180421567D02*
X121817002Y-180421567D01*
X123650000Y-179480000D02*
X122708433Y-180421567D01*
X121817002Y-180421567D02*
X121105000Y-179709565D01*
X121105000Y-179709565D02*
X121105000Y-178030000D01*
%TO.N,Net-(U45-NRSTI)*%
X146410000Y-173030000D02*
X146410000Y-172552744D01*
X146410000Y-172552744D02*
X143580000Y-169722744D01*
X143580000Y-169722744D02*
X143580000Y-161080000D01*
X143580000Y-161080000D02*
X143300000Y-160800000D01*
X143300000Y-160800000D02*
X142460000Y-160800000D01*
%TO.N,Net-(U45-BI)*%
X146620000Y-173760000D02*
X146930000Y-173760000D01*
X146930000Y-173760000D02*
X147100000Y-173590000D01*
X147100000Y-173590000D02*
X147100000Y-172677058D01*
X147100000Y-172677058D02*
X144010000Y-169587058D01*
X143560000Y-160150000D02*
X142460000Y-160150000D01*
X144010000Y-169587058D02*
X144010000Y-160600000D01*
X144010000Y-160600000D02*
X143560000Y-160150000D01*
%TO.N,Net-(U45-RO)*%
X146640000Y-174770000D02*
X147120000Y-174770000D01*
X144420000Y-169431372D02*
X144420000Y-160100000D01*
X147500000Y-174390000D02*
X147500000Y-172511372D01*
X147500000Y-172511372D02*
X144420000Y-169431372D01*
X147120000Y-174770000D02*
X147500000Y-174390000D01*
X144420000Y-160100000D02*
X143820000Y-159500000D01*
X143820000Y-159500000D02*
X142460000Y-159500000D01*
%TO.N,Net-(U45-CLKI)*%
X147220000Y-175780000D02*
X147900000Y-175100000D01*
X147900000Y-175100000D02*
X147900000Y-172345686D01*
X147900000Y-172345686D02*
X144830000Y-169275686D01*
X144830000Y-169275686D02*
X144830000Y-159500000D01*
X146650000Y-175780000D02*
X147220000Y-175780000D01*
X144830000Y-159500000D02*
X144180000Y-158850000D01*
X144180000Y-158850000D02*
X142460000Y-158850000D01*
%TO.N,Net-(U45-CI)*%
X146650000Y-176790000D02*
X147210000Y-176790000D01*
X148300000Y-175700000D02*
X148300000Y-172180000D01*
X147210000Y-176790000D02*
X148300000Y-175700000D01*
X148300000Y-172180000D02*
X145270000Y-169150000D01*
X145270000Y-169150000D02*
X145270000Y-164800000D01*
X145280000Y-164810000D02*
X145270000Y-164800000D01*
X145680000Y-164810000D02*
X145280000Y-164810000D01*
X145270000Y-164800000D02*
X145270000Y-159060000D01*
%TO.N,/stack5/0V8-2*%
X150691091Y-159021091D02*
X150698909Y-159021091D01*
X151482182Y-158230000D02*
X154800000Y-158230000D01*
X150698909Y-159021091D02*
X151130000Y-158590000D01*
X151130000Y-158590000D02*
X151130000Y-158582182D01*
X151130000Y-158582182D02*
X151482182Y-158230000D01*
%TO.N,Net-(U55-CI)*%
X155990000Y-177760000D02*
X154060000Y-177760000D01*
X154060000Y-177760000D02*
X152540000Y-176240000D01*
X152540000Y-176240000D02*
X152540000Y-166270000D01*
X152540000Y-166270000D02*
X150150000Y-163880000D01*
X150150000Y-163880000D02*
X150150000Y-160340000D01*
X150150000Y-160340000D02*
X151680000Y-158810000D01*
%TO.N,Net-(U55-CLKI)*%
X155990000Y-177110000D02*
X154310000Y-177110000D01*
X152950000Y-166114314D02*
X150550000Y-163714314D01*
X154310000Y-177110000D02*
X152950000Y-175750000D01*
X150550000Y-160960000D02*
X151700000Y-159810000D01*
X152950000Y-175750000D02*
X152950000Y-166114314D01*
X150550000Y-163714314D02*
X150550000Y-160960000D01*
%TO.N,Net-(U55-RO)*%
X155990000Y-176460000D02*
X154660000Y-176460000D01*
X154660000Y-176460000D02*
X153430000Y-175230000D01*
X153430000Y-175230000D02*
X153430000Y-166028628D01*
X150950000Y-161590000D02*
X151700000Y-160840000D01*
X153430000Y-166028628D02*
X150950000Y-163548628D01*
X150950000Y-163548628D02*
X150950000Y-161590000D01*
%TO.N,Net-(U55-BI)*%
X155990000Y-175810000D02*
X154810000Y-175810000D01*
X154810000Y-175810000D02*
X153920000Y-174920000D01*
X153830000Y-165862942D02*
X151350000Y-163382942D01*
X153920000Y-174920000D02*
X153920000Y-165952943D01*
X153920000Y-165952943D02*
X153830000Y-165862943D01*
X153830000Y-165862943D02*
X153830000Y-165862942D01*
X151350000Y-163382942D02*
X151350000Y-162180000D01*
X151350000Y-162180000D02*
X151660000Y-161870000D01*
%TO.N,Net-(U56-CLKO)*%
X154871091Y-161558909D02*
X155442182Y-162130000D01*
X155442182Y-162130000D02*
X156010000Y-162130000D01*
%TO.N,Net-(U56-CO)*%
X154350000Y-158820000D02*
X154660000Y-159130000D01*
X154660000Y-160570000D02*
X155570000Y-161480000D01*
X154660000Y-159130000D02*
X154660000Y-160570000D01*
X155570000Y-161480000D02*
X156010000Y-161480000D01*
%TO.N,Net-(U55-NRSTI)*%
X154320000Y-166210000D02*
X154320000Y-165737818D01*
X154320000Y-174620000D02*
X154320000Y-166210000D01*
X154320000Y-165737818D02*
X151940000Y-163357818D01*
X151940000Y-163357818D02*
X151940000Y-162856000D01*
%TO.N,Net-(U56-NRSTO)*%
X153370000Y-163610000D02*
X153370000Y-164087818D01*
X153370000Y-164087818D02*
X153812182Y-164530000D01*
X153812182Y-164530000D02*
X155000000Y-164530000D01*
X155000000Y-164530000D02*
X155450000Y-164080000D01*
X155450000Y-164080000D02*
X156010000Y-164080000D01*
%TO.N,Net-(U55-NRSTI)*%
X154320000Y-174620000D02*
X154860000Y-175160000D01*
X154860000Y-175160000D02*
X155990000Y-175160000D01*
%TO.N,Net-(U46-CO)*%
X143526091Y-175116091D02*
X142900000Y-174490000D01*
X142900000Y-174490000D02*
X142460000Y-174490000D01*
X143526091Y-175413909D02*
X143526091Y-175116091D01*
%TO.N,Net-(U46-CLKO)*%
X143070000Y-173840000D02*
X142460000Y-173840000D01*
X143550000Y-174320000D02*
X143070000Y-173840000D01*
%TO.N,Net-(U46-RI)*%
X143549000Y-173531000D02*
X143208000Y-173190000D01*
X143208000Y-173190000D02*
X142460000Y-173190000D01*
%TO.N,Net-(U46-NRSTO)*%
X143610000Y-171890000D02*
X142460000Y-171890000D01*
%TO.N,Net-(U46-BO)*%
X143550000Y-172710000D02*
X143380000Y-172540000D01*
X143380000Y-172540000D02*
X142460000Y-172540000D01*
%TO.N,/stack4/CI*%
X143530000Y-184900000D02*
X143530000Y-185023474D01*
X143530000Y-185023474D02*
X142983474Y-185570000D01*
X142983474Y-185570000D02*
X142460000Y-185570000D01*
%TO.N,/stack4/GND2*%
X143620000Y-183930000D02*
X142630000Y-184920000D01*
X142630000Y-184920000D02*
X142460000Y-184920000D01*
%TO.N,/stack4/NRSTI*%
X143570000Y-189020000D02*
X143570000Y-188810000D01*
X143570000Y-188810000D02*
X142930000Y-188170000D01*
X142930000Y-188170000D02*
X142460000Y-188170000D01*
%TO.N,Net-(U45-NRSTO)*%
X126670000Y-160100000D02*
X130200000Y-160100000D01*
X130200000Y-160100000D02*
X131130000Y-161030000D01*
X131130000Y-161030000D02*
X132157818Y-161030000D01*
X125520000Y-161250000D02*
X126670000Y-160100000D01*
X132157818Y-161030000D02*
X132387818Y-160800000D01*
X132387818Y-160800000D02*
X134400000Y-160800000D01*
%TO.N,/stack4/GND0*%
X133360000Y-157380000D02*
X133530000Y-157550000D01*
X133530000Y-157550000D02*
X134400000Y-157550000D01*
%TO.N,Net-(U45-CO)*%
X132570000Y-157450000D02*
X133320000Y-158200000D01*
X133320000Y-158200000D02*
X134400000Y-158200000D01*
%TO.N,Net-(U45-CLKO)*%
X131990000Y-157940000D02*
X132900000Y-158850000D01*
X132900000Y-158850000D02*
X134400000Y-158850000D01*
%TO.N,Net-(U45-RI)*%
X131950000Y-159500000D02*
X134400000Y-159500000D01*
X131920000Y-159470000D02*
X131950000Y-159500000D01*
%TO.N,Net-(U54-CO)*%
X146340000Y-185190000D02*
X146540000Y-185190000D01*
X146540000Y-185190000D02*
X150180000Y-188830000D01*
X150180000Y-188830000D02*
X155990000Y-188830000D01*
%TO.N,Net-(U54-CLKO)*%
X146350000Y-186390000D02*
X146750000Y-186390000D01*
X146750000Y-186390000D02*
X149850000Y-189490000D01*
X155980000Y-189490000D02*
X155990000Y-189480000D01*
X149850000Y-189490000D02*
X155980000Y-189490000D01*
%TO.N,Net-(U54-RI)*%
X146890000Y-187330000D02*
X149690000Y-190130000D01*
X146310000Y-187330000D02*
X146890000Y-187330000D01*
X149690000Y-190130000D02*
X155990000Y-190130000D01*
%TO.N,Net-(U54-BO)*%
X147190000Y-188410000D02*
X149560000Y-190780000D01*
X146320000Y-188410000D02*
X147190000Y-188410000D01*
X149560000Y-190780000D02*
X155990000Y-190780000D01*
%TO.N,Net-(U54-NRSTO)*%
X146310000Y-189360000D02*
X147235000Y-189360000D01*
X147235000Y-189360000D02*
X149305000Y-191430000D01*
X149305000Y-191430000D02*
X155990000Y-191430000D01*
%TO.N,/stack5/0V8-0*%
X155120000Y-185580000D02*
X155990000Y-185580000D01*
X153800000Y-186900000D02*
X155120000Y-185580000D01*
%TO.N,/stack5/GND0*%
X149930000Y-187660000D02*
X150140000Y-187450000D01*
X150140000Y-187450000D02*
X154160000Y-187450000D01*
X154160000Y-187450000D02*
X155380000Y-186230000D01*
X155380000Y-186230000D02*
X155990000Y-186230000D01*
X155990000Y-192080000D02*
X155090000Y-192080000D01*
X155090000Y-192080000D02*
X155070000Y-192060000D01*
%TO.N,Net-(U45-CI)*%
X145270000Y-159060000D02*
X144410000Y-158200000D01*
X144410000Y-158200000D02*
X142460000Y-158200000D01*
%TO.N,/stack5/GND2*%
X146362500Y-161820000D02*
X147720000Y-160462500D01*
X147720000Y-160462500D02*
X147720000Y-155957500D01*
X147720000Y-155957500D02*
X147722500Y-155955000D01*
%TO.N,/stack5/1V2-2*%
X154630000Y-156180000D02*
X153910000Y-155460000D01*
X153910000Y-155460000D02*
X153100000Y-155460000D01*
X153100000Y-155460000D02*
X150840000Y-157720000D01*
%TO.N,/stack5/GND2*%
X164070000Y-164730000D02*
X164400000Y-164730000D01*
X164400000Y-164730000D02*
X165002500Y-165332500D01*
X165002500Y-165332500D02*
X165002500Y-165607500D01*
%TO.N,/stack6/1V2-2*%
X175650000Y-194370000D02*
X174860000Y-195160000D01*
X174860000Y-195160000D02*
X173460000Y-195160000D01*
X173460000Y-195160000D02*
X171480000Y-193180000D01*
X171480000Y-193180000D02*
X171480000Y-189320000D01*
%TO.N,/stack6/GND2*%
X176280000Y-184700000D02*
X177190000Y-184700000D01*
X177190000Y-184700000D02*
X177440000Y-184950000D01*
%TO.N,Net-(U65-CO)*%
X176530000Y-185600000D02*
X177440000Y-185600000D01*
X176400000Y-185470000D02*
X176530000Y-185600000D01*
%TO.N,Net-(U65-CLKO)*%
X176430000Y-186240000D02*
X177430000Y-186240000D01*
X177430000Y-186240000D02*
X177440000Y-186250000D01*
%TO.N,Net-(U65-RI)*%
X176390000Y-187130000D02*
X176620000Y-186900000D01*
X176620000Y-186900000D02*
X177440000Y-186900000D01*
%TO.N,Net-(U65-BO)*%
X176760000Y-187550000D02*
X177440000Y-187550000D01*
X176370000Y-187940000D02*
X176760000Y-187550000D01*
%TO.N,Net-(U65-NRSTO)*%
X176196545Y-189791783D02*
X176196545Y-189023455D01*
X176196545Y-189023455D02*
X177020000Y-188200000D01*
X177020000Y-188200000D02*
X177440000Y-188200000D01*
%TO.N,/stack6/1V2-1*%
X176321544Y-178028456D02*
X176640000Y-178028456D01*
X176640000Y-178028456D02*
X177021544Y-178410000D01*
X176300000Y-178050000D02*
X176321544Y-178028456D01*
X177021544Y-178410000D02*
X177440000Y-178410000D01*
%TO.N,Net-(U64-CI)*%
X173713954Y-186860313D02*
X173713954Y-186378790D01*
X173713954Y-186378790D02*
X176160000Y-183932744D01*
X176160000Y-183932744D02*
X176160000Y-179025124D01*
X175202438Y-178067562D02*
X175202438Y-175897562D01*
X176160000Y-179025124D02*
X175202438Y-178067562D01*
X175202438Y-175897562D02*
X176590000Y-174510000D01*
X176590000Y-174510000D02*
X177440000Y-174510000D01*
%TO.N,Net-(U64-CLKI)*%
X173760000Y-187650000D02*
X173330000Y-187650000D01*
X173330000Y-187650000D02*
X172900000Y-187220000D01*
X175730000Y-179160810D02*
X174780000Y-178210810D01*
X172900000Y-187220000D02*
X172900000Y-186627058D01*
X172900000Y-186627058D02*
X175730000Y-183797058D01*
X175730000Y-183797058D02*
X175730000Y-179160810D01*
X174780000Y-178210810D02*
X174780000Y-175320000D01*
X176240000Y-173860000D02*
X177440000Y-173860000D01*
X174780000Y-175320000D02*
X176240000Y-173860000D01*
%TO.N,Net-(U64-RO)*%
X173800000Y-188400000D02*
X172750000Y-188400000D01*
X176090000Y-173210000D02*
X177440000Y-173210000D01*
X172750000Y-188400000D02*
X172450000Y-188100000D01*
X172450000Y-188100000D02*
X172450000Y-186511372D01*
X172450000Y-186511372D02*
X175330000Y-183631372D01*
X175330000Y-183631372D02*
X175330000Y-179326496D01*
X175330000Y-179326496D02*
X174378372Y-178374868D01*
X174378372Y-178374868D02*
X174378372Y-174921628D01*
X174378372Y-174921628D02*
X176090000Y-173210000D01*
%TO.N,Net-(U64-BI)*%
X173800000Y-189325000D02*
X172875000Y-189325000D01*
X172010000Y-188460000D02*
X172010000Y-186385686D01*
X172010000Y-186385686D02*
X174930000Y-183465686D01*
X172875000Y-189325000D02*
X172010000Y-188460000D01*
X174930000Y-183465686D02*
X174930000Y-179492182D01*
X174930000Y-179492182D02*
X173910000Y-178472182D01*
X173910000Y-178472182D02*
X173910000Y-174390000D01*
X173910000Y-174390000D02*
X175740000Y-172560000D01*
X175740000Y-172560000D02*
X177440000Y-172560000D01*
%TO.N,Net-(U64-NRSTI)*%
X173800000Y-190250000D02*
X173190000Y-190250000D01*
X173190000Y-190250000D02*
X171590000Y-188650000D01*
X171590000Y-188650000D02*
X171590000Y-186240000D01*
X171590000Y-186240000D02*
X174530000Y-183300000D01*
X174530000Y-183300000D02*
X174530000Y-179870000D01*
X175490000Y-171910000D02*
X177440000Y-171910000D01*
X174530000Y-179870000D02*
X173510000Y-178850000D01*
X173510000Y-178850000D02*
X173510000Y-173890000D01*
X173510000Y-173890000D02*
X175490000Y-171910000D01*
%TO.N,/stack6/GND1*%
X176210000Y-171100000D02*
X176370000Y-171260000D01*
X176370000Y-171260000D02*
X177440000Y-171260000D01*
%TO.N,Net-(U55-NRSTO)*%
X167120000Y-176442500D02*
X167120000Y-176170000D01*
X167120000Y-176170000D02*
X166110000Y-175160000D01*
X166110000Y-175160000D02*
X165960000Y-175160000D01*
%TO.N,Net-(U55-CO)*%
X168220000Y-187120000D02*
X168220000Y-186585686D01*
X168220000Y-186585686D02*
X165510000Y-183875686D01*
X165510000Y-183875686D02*
X165510000Y-177910000D01*
X165510000Y-177910000D02*
X165360000Y-177760000D01*
X165360000Y-177760000D02*
X164050000Y-177760000D01*
%TO.N,Net-(U55-CLKO)*%
X168200000Y-188140000D02*
X168890000Y-187450000D01*
X168890000Y-187450000D02*
X168890000Y-186690000D01*
X165910000Y-177330000D02*
X165690000Y-177110000D01*
X168890000Y-186690000D02*
X165910000Y-183710000D01*
X165910000Y-183710000D02*
X165910000Y-177330000D01*
X165690000Y-177110000D02*
X164050000Y-177110000D01*
%TO.N,Net-(U55-RI)*%
X169350000Y-188080000D02*
X169350000Y-186570000D01*
X169350000Y-186570000D02*
X166320000Y-183540000D01*
X168220000Y-189210000D02*
X169350000Y-188080000D01*
X166320000Y-183540000D02*
X166320000Y-176930000D01*
X166320000Y-176930000D02*
X165850000Y-176460000D01*
X165850000Y-176460000D02*
X164050000Y-176460000D01*
%TO.N,Net-(U55-BO)*%
X168220000Y-190200000D02*
X169770000Y-188650000D01*
X169770000Y-188650000D02*
X169770000Y-186400000D01*
X169770000Y-186400000D02*
X166720000Y-183350000D01*
X166720000Y-183350000D02*
X166720000Y-176636526D01*
X166720000Y-176636526D02*
X165893474Y-175810000D01*
X165893474Y-175810000D02*
X164050000Y-175810000D01*
%TO.N,Net-(U55-NRSTO)*%
X168190000Y-191270000D02*
X170210000Y-189250000D01*
X170210000Y-186260000D02*
X167130000Y-183180000D01*
X167130000Y-183180000D02*
X167130000Y-176330000D01*
X170210000Y-189250000D02*
X170210000Y-186260000D01*
X165960000Y-175160000D02*
X164050000Y-175160000D01*
%TO.N,/stack5/GND1*%
X164930000Y-178410000D02*
X164050000Y-178410000D01*
%TO.N,Net-(U73-RO)*%
X197936091Y-176213909D02*
X198023909Y-176213909D01*
X198023909Y-176213909D02*
X198360000Y-176550000D01*
X198360000Y-176550000D02*
X199050000Y-176550000D01*
%TO.N,Net-(U73-NRSTI)*%
X197990000Y-174650000D02*
X198010000Y-174650000D01*
X198010000Y-174650000D02*
X198610000Y-175250000D01*
X198610000Y-175250000D02*
X199050000Y-175250000D01*
%TO.N,Net-(U73-BI)*%
X197930000Y-175430000D02*
X198030000Y-175430000D01*
X198030000Y-175430000D02*
X198500000Y-175900000D01*
X198500000Y-175900000D02*
X199050000Y-175900000D01*
%TO.N,/stack7/GND1*%
X198010000Y-178730000D02*
X198240000Y-178500000D01*
X198240000Y-178500000D02*
X199050000Y-178500000D01*
%TO.N,Net-(U73-CI)*%
X198130000Y-177850000D02*
X199050000Y-177850000D01*
X197960000Y-177800000D02*
X198020000Y-177740000D01*
X198020000Y-177740000D02*
X198130000Y-177850000D01*
%TO.N,Net-(U73-CLKI)*%
X197939907Y-176988286D02*
X198151621Y-177200000D01*
X198151621Y-177200000D02*
X199050000Y-177200000D01*
%TO.N,Net-(U74-NRSTO)*%
X195250000Y-174630000D02*
X195250000Y-173410000D01*
X198980000Y-164100000D02*
X199050000Y-164170000D01*
X198090000Y-165507256D02*
X197090686Y-164507942D01*
X198090000Y-170570000D02*
X198090000Y-165507256D01*
X197090686Y-164507942D02*
X197090686Y-164279314D01*
X195250000Y-173410000D02*
X198090000Y-170570000D01*
X197090686Y-164279314D02*
X197270000Y-164100000D01*
X197270000Y-164100000D02*
X198980000Y-164100000D01*
%TO.N,GND*%
X198140000Y-164650000D02*
X198310000Y-164820000D01*
X198310000Y-164820000D02*
X199050000Y-164820000D01*
%TO.N,Net-(U74-BO)*%
X195250000Y-175630000D02*
X194550000Y-174930000D01*
X196690686Y-163976372D02*
X197147058Y-163520000D01*
X194550000Y-174930000D02*
X194550000Y-173520000D01*
X194550000Y-173520000D02*
X197690000Y-170380000D01*
X197690000Y-170380000D02*
X197690000Y-165672942D01*
X197690000Y-165672942D02*
X196690686Y-164673628D01*
X196690686Y-164673628D02*
X196690686Y-163976372D01*
X197147058Y-163520000D02*
X199050000Y-163520000D01*
%TO.N,Net-(U74-RI)*%
X195250000Y-176570000D02*
X194140000Y-175460000D01*
X194140000Y-173360000D02*
X197290000Y-170210000D01*
X197231372Y-162870000D02*
X199050000Y-162870000D01*
X197290000Y-170210000D02*
X197290000Y-165838628D01*
X194140000Y-175460000D02*
X194140000Y-173360000D01*
X197290000Y-165838628D02*
X196290686Y-164839314D01*
X196290686Y-164839314D02*
X196290686Y-163810686D01*
X196290686Y-163810686D02*
X197231372Y-162870000D01*
%TO.N,Net-(U74-CLKO)*%
X195270000Y-177520000D02*
X193720000Y-175970000D01*
X193720000Y-175970000D02*
X193720000Y-173210000D01*
X193720000Y-173210000D02*
X196890000Y-170040000D01*
X196890000Y-170040000D02*
X196890000Y-166004314D01*
X196890000Y-166004314D02*
X195860000Y-164974314D01*
X195860000Y-164974314D02*
X195860000Y-163675686D01*
X195860000Y-163675686D02*
X197315686Y-162220000D01*
X197315686Y-162220000D02*
X199050000Y-162220000D01*
%TO.N,Net-(U74-CO)*%
X195230000Y-178380000D02*
X193320000Y-176470000D01*
X193320000Y-173020000D02*
X196490000Y-169850000D01*
X196490000Y-169850000D02*
X196490000Y-166170000D01*
X193320000Y-176470000D02*
X193320000Y-173020000D01*
X196490000Y-166170000D02*
X195430000Y-165110000D01*
X195430000Y-165110000D02*
X195430000Y-163540000D01*
X197400000Y-161570000D02*
X199050000Y-161570000D01*
X195430000Y-163540000D02*
X197400000Y-161570000D01*
%TO.N,Net-(U64-CO)*%
X190100000Y-157090000D02*
X191860000Y-158850000D01*
X191860000Y-161776217D02*
X188870000Y-164766217D01*
X191860000Y-158850000D02*
X191860000Y-161776217D01*
X186567058Y-174510000D02*
X185500000Y-174510000D01*
X188870000Y-164766217D02*
X188870000Y-172207058D01*
X188870000Y-172207058D02*
X186567058Y-174510000D01*
%TO.N,Net-(U64-CLKO)*%
X189890000Y-158110000D02*
X191460000Y-159680000D01*
X191460000Y-159680000D02*
X191460000Y-161610531D01*
X188470000Y-164600531D02*
X188470000Y-172041372D01*
X191460000Y-161610531D02*
X188470000Y-164600531D01*
X188470000Y-172041372D02*
X186651372Y-173860000D01*
X186651372Y-173860000D02*
X185500000Y-173860000D01*
%TO.N,Net-(U64-RI)*%
X186735686Y-173210000D02*
X188070000Y-171875686D01*
X191060000Y-160230000D02*
X189890000Y-159060000D01*
X188070000Y-171875686D02*
X188070000Y-164434845D01*
X185500000Y-173210000D02*
X186735686Y-173210000D01*
X188070000Y-164434845D02*
X191060000Y-161444845D01*
X191060000Y-161444845D02*
X191060000Y-160230000D01*
%TO.N,Net-(U64-BO)*%
X187670000Y-171710000D02*
X186820000Y-172560000D01*
X190660000Y-160820000D02*
X190660000Y-161279159D01*
X190660000Y-161279159D02*
X187670000Y-164269159D01*
X189890000Y-160050000D02*
X190660000Y-160820000D01*
X187670000Y-164269159D02*
X187670000Y-171710000D01*
X186820000Y-172560000D02*
X185500000Y-172560000D01*
%TO.N,/stack7/1V2-2*%
X215026522Y-160913133D02*
X215026522Y-160436522D01*
X215026522Y-160436522D02*
X210840000Y-156250000D01*
X210260000Y-156250000D02*
X209520000Y-156990000D01*
X210840000Y-156250000D02*
X210260000Y-156250000D01*
%TO.N,/stack7/1V2-0*%
X209080000Y-185050000D02*
X209150000Y-184980000D01*
X209150000Y-184980000D02*
X209940000Y-184980000D01*
X209940000Y-184980000D02*
X210410000Y-185450000D01*
X210410000Y-185450000D02*
X210410000Y-186120000D01*
X210410000Y-186120000D02*
X208200000Y-188330000D01*
D80*
%TO.N,/stack7/1V2-2*%
X231130000Y-149850000D02*
X230195104Y-149850000D01*
D83*
X231350000Y-149630000D02*
X231350000Y-148710000D01*
D80*
X231350000Y-149630000D02*
X231130000Y-149850000D01*
D78*
%TO.N,/Data/1V1*%
X215800000Y-103815000D02*
X215800000Y-104360000D01*
X215800000Y-104360000D02*
X217320000Y-105880000D01*
X217320000Y-105880000D02*
X217320000Y-107360000D01*
X217320000Y-107360000D02*
X218180000Y-108220000D01*
%TO.N,/3V3*%
X216720000Y-106710000D02*
X216720000Y-105990000D01*
X215400000Y-104670000D02*
X215400000Y-103815000D01*
X216720000Y-105990000D02*
X215400000Y-104670000D01*
%TO.N,/Data/SWCLK*%
X216250000Y-102710000D02*
X216200000Y-102760000D01*
X216200000Y-102760000D02*
X216200000Y-103815000D01*
%TO.N,/Data/SWD*%
X217010000Y-102795000D02*
X216600000Y-103205000D01*
X216600000Y-103205000D02*
X216600000Y-103815000D01*
%TO.N,/Data/QSPI_SD2*%
X213770000Y-97970000D02*
X213400000Y-97600000D01*
X213400000Y-97600000D02*
X213400000Y-96940000D01*
%TO.N,/Data/QSPI_SD1*%
X205348889Y-95243644D02*
X205348889Y-95091111D01*
X205348889Y-95091111D02*
X205770000Y-94670000D01*
X205770000Y-94670000D02*
X207325000Y-94670000D01*
X207325000Y-94670000D02*
X207380000Y-94725000D01*
%TO.N,/Data/QSPI_SS*%
X204510000Y-95260000D02*
X204510000Y-95050000D01*
X204510000Y-95050000D02*
X205460000Y-94100000D01*
X205460000Y-94100000D02*
X206735000Y-94100000D01*
X206735000Y-94100000D02*
X206860000Y-94225000D01*
%TO.N,/3V3*%
X205690000Y-92890000D02*
X205730000Y-92850000D01*
X205040000Y-92890000D02*
X205690000Y-92890000D01*
%TO.N,Net-(U47-RI)*%
X129480000Y-182500000D02*
X129480000Y-183360000D01*
X129480000Y-183360000D02*
X132990000Y-186870000D01*
X132990000Y-186870000D02*
X134400000Y-186870000D01*
%TO.N,Net-(U47-CO)*%
X131520000Y-183670000D02*
X133420000Y-185570000D01*
X131520000Y-182590000D02*
X131520000Y-183670000D01*
X133420000Y-185570000D02*
X134400000Y-185570000D01*
%TO.N,Net-(U47-BO)*%
X128530000Y-183200000D02*
X132850000Y-187520000D01*
X128530000Y-182610000D02*
X128530000Y-183200000D01*
X132850000Y-187520000D02*
X134400000Y-187520000D01*
%TO.N,Net-(U47-CLKO)*%
X130540000Y-182580000D02*
X130540000Y-183530000D01*
X130540000Y-183530000D02*
X133230000Y-186220000D01*
X133230000Y-186220000D02*
X134400000Y-186220000D01*
%TO.N,Net-(U46-CI)*%
X131500000Y-180200000D02*
X131340000Y-180040000D01*
X131340000Y-180040000D02*
X131340000Y-175160000D01*
X131340000Y-175160000D02*
X132010000Y-174490000D01*
X132010000Y-174490000D02*
X134400000Y-174490000D01*
%TO.N,Net-(U46-NRSTI)*%
X127630000Y-180180000D02*
X127484000Y-180034000D01*
X127484000Y-180034000D02*
X127484000Y-175116000D01*
X127484000Y-175116000D02*
X130710000Y-171890000D01*
X130710000Y-171890000D02*
X134400000Y-171890000D01*
%TO.N,Net-(U46-BI)*%
X128488000Y-180198000D02*
X128488000Y-175112000D01*
X128490000Y-180200000D02*
X128488000Y-180198000D01*
X128488000Y-175112000D02*
X131060000Y-172540000D01*
X131060000Y-172540000D02*
X134400000Y-172540000D01*
%TO.N,Net-(U46-RO)*%
X129480000Y-180200000D02*
X129492000Y-180188000D01*
X129492000Y-180188000D02*
X129492000Y-175008000D01*
X129492000Y-175008000D02*
X131310000Y-173190000D01*
X131310000Y-173190000D02*
X134400000Y-173190000D01*
%TO.N,Net-(U46-CLKI)*%
X130496000Y-180194000D02*
X130496000Y-175104000D01*
X130496000Y-175104000D02*
X131760000Y-173840000D01*
X131760000Y-173840000D02*
X134400000Y-173840000D01*
X130490000Y-180200000D02*
X130496000Y-180194000D01*
%TO.N,Net-(Q3-G)*%
X130771049Y-92031049D02*
X131613649Y-92031049D01*
X130560000Y-91820000D02*
X130771049Y-92031049D01*
%TO.N,/Power/SW2*%
X134440000Y-84545000D02*
X133785000Y-85200000D01*
X131610000Y-85200000D02*
X131110000Y-85700000D01*
X131110000Y-85700000D02*
X131110000Y-88980000D01*
X133785000Y-85200000D02*
X131610000Y-85200000D01*
X131110000Y-88980000D02*
X130930000Y-89160000D01*
%TO.N,Net-(D2-A)*%
X130400000Y-87860000D02*
X130650000Y-87610000D01*
X130650000Y-87610000D02*
X130650000Y-85800000D01*
X130650000Y-85800000D02*
X129922400Y-85072400D01*
X129922400Y-85072400D02*
X129305000Y-85072400D01*
%TO.N,Net-(U1-COMP1)*%
X138240000Y-91660000D02*
X138580000Y-91660000D01*
X138580000Y-91660000D02*
X138860000Y-91380000D01*
X138860000Y-91380000D02*
X138860000Y-89670000D01*
X140610000Y-87920000D02*
X140805000Y-87920000D01*
X138860000Y-89670000D02*
X140610000Y-87920000D01*
X138240000Y-91660000D02*
X137868951Y-92031049D01*
X137868951Y-92031049D02*
X136414249Y-92031049D01*
%TO.N,Net-(D1-A)*%
X131960000Y-96750000D02*
X131960000Y-97030000D01*
X131960000Y-97030000D02*
X132410000Y-97480000D01*
X133280000Y-99390000D02*
X132390000Y-99390000D01*
X131130000Y-98130000D02*
X130600000Y-98130000D01*
X133200000Y-97480000D02*
X133780000Y-98060000D01*
X133780000Y-98890000D02*
X133280000Y-99390000D01*
X133780000Y-98060000D02*
X133780000Y-98890000D01*
X132410000Y-97480000D02*
X133200000Y-97480000D01*
X132390000Y-99390000D02*
X131130000Y-98130000D01*
%TO.N,Net-(D2-A)*%
X138080000Y-89160000D02*
X138080000Y-90940000D01*
X138080000Y-90940000D02*
X137488950Y-91531050D01*
X137488950Y-91531050D02*
X136414249Y-91531050D01*
%TO.N,Net-(U1-RT)*%
X136414249Y-93031049D02*
X138578951Y-93031049D01*
X138578951Y-93031049D02*
X140000000Y-91610000D01*
X140000000Y-91610000D02*
X140985000Y-91610000D01*
%TO.N,/Power/OUT0*%
X136414249Y-95031048D02*
X136523201Y-95140000D01*
X142000000Y-95140000D02*
X142815000Y-94325000D01*
X136523201Y-95140000D02*
X142000000Y-95140000D01*
%TO.N,/Data/SCL*%
X155350000Y-100000000D02*
X155350000Y-99260000D01*
X155350000Y-99260000D02*
X156000549Y-98609451D01*
X156000549Y-98609451D02*
X156000549Y-97254849D01*
%TO.N,/Data/SDA*%
X154566600Y-100053400D02*
X154566600Y-99193400D01*
X154566600Y-99193400D02*
X155101600Y-98658400D01*
X156000549Y-94089451D02*
X156000549Y-91529849D01*
X155101600Y-98658400D02*
X155101600Y-94988400D01*
X155101600Y-94988400D02*
X156000549Y-94089451D01*
%TO.N,/Power/VIN_M*%
X145750000Y-99710000D02*
X146643400Y-100603400D01*
X157366550Y-100603400D02*
X159250549Y-98719401D01*
X146643400Y-100603400D02*
X157366550Y-100603400D01*
X159250549Y-98719401D02*
X159250549Y-97254849D01*
%TO.N,GND*%
X150970000Y-98210000D02*
X150805000Y-98045000D01*
X150805000Y-98045000D02*
X149990000Y-98045000D01*
D81*
X148500000Y-93450000D02*
X147980000Y-92930000D01*
X147980000Y-92930000D02*
X147980000Y-92160000D01*
D78*
X214200000Y-103085425D02*
X214200000Y-103815000D01*
X213994575Y-102880000D02*
X214200000Y-103085425D01*
%TO.N,/3V3*%
X220730000Y-106100000D02*
X220070000Y-105440000D01*
X220730000Y-106730000D02*
X220730000Y-106100000D01*
X220070000Y-105440000D02*
X219520000Y-105440000D01*
%TO.N,GND*%
X216750000Y-107480000D02*
X216245000Y-107480000D01*
X216750000Y-107480000D02*
X216750000Y-108230000D01*
X216245000Y-107480000D02*
X215230000Y-106465000D01*
%TO.N,/3V3*%
X210100000Y-100940000D02*
X209380000Y-100940000D01*
%TO.N,Net-(U27-GPIO1)*%
X210280000Y-99396526D02*
X211099026Y-98577500D01*
X211099026Y-98577500D02*
X211762500Y-98577500D01*
%TO.N,/Data/PWR_EN*%
X203180000Y-98910000D02*
X203520000Y-98570000D01*
X203520000Y-98570000D02*
X210440000Y-98570000D01*
X210440000Y-98570000D02*
X210832500Y-98177500D01*
X210832500Y-98177500D02*
X211762500Y-98177500D01*
%TO.N,/Data/QSPI_SD0*%
X213460000Y-95940000D02*
X211010000Y-95940000D01*
X213800000Y-96280000D02*
X213460000Y-95940000D01*
X211010000Y-95940000D02*
X210790000Y-95720000D01*
X210790000Y-95720000D02*
X210785000Y-95725000D01*
X213800000Y-96940000D02*
X213800000Y-96280000D01*
X210785000Y-95725000D02*
X210220000Y-95725000D01*
%TO.N,/Data/QSPI_SCLK*%
X214200000Y-96940000D02*
X214200000Y-96058473D01*
X213631527Y-95490000D02*
X211410000Y-95490000D01*
X211145000Y-95225000D02*
X210220000Y-95225000D01*
X214200000Y-96058473D02*
X213631527Y-95490000D01*
X211410000Y-95490000D02*
X211145000Y-95225000D01*
%TO.N,/Data/QSPI_SD3*%
X214600000Y-96940000D02*
X214600000Y-95610000D01*
X211737985Y-94970097D02*
X211492888Y-94725000D01*
X214600000Y-95610000D02*
X213960097Y-94970097D01*
X213960097Y-94970097D02*
X211737985Y-94970097D01*
X211492888Y-94725000D02*
X210220000Y-94725000D01*
%TO.N,/Data/1V1*%
X213360000Y-94150000D02*
X213770000Y-94150000D01*
X213770000Y-94150000D02*
X215000000Y-95380000D01*
X215000000Y-95380000D02*
X215000000Y-96940000D01*
%TO.N,/3V3*%
X215800000Y-96940000D02*
X215800000Y-96325000D01*
X215800000Y-96325000D02*
X215730000Y-96255000D01*
X215730000Y-96255000D02*
X215500234Y-96255000D01*
X215400000Y-96355234D02*
X215400000Y-96940000D01*
X215500234Y-96255000D02*
X215400000Y-96355234D01*
X215640000Y-94960000D02*
X215630000Y-94970000D01*
X215630000Y-94970000D02*
X215630000Y-96245000D01*
X215630000Y-96245000D02*
X215620000Y-96255000D01*
X215640000Y-94960000D02*
X215170000Y-94960000D01*
%TO.N,Net-(U27-USB_DM)*%
X216600000Y-96940000D02*
X216600000Y-95454315D01*
X216600000Y-95454315D02*
X216610000Y-95444315D01*
X216610000Y-95444315D02*
X216610000Y-94280000D01*
X216610000Y-94280000D02*
X216730000Y-94160000D01*
%TO.N,Net-(U27-USB_DP)*%
X216200000Y-96940000D02*
X216200000Y-96159314D01*
X216200000Y-96159314D02*
X216190000Y-96149314D01*
X216190000Y-94720000D02*
X215630000Y-94160000D01*
X216190000Y-96149314D02*
X216190000Y-94720000D01*
%TO.N,/Data/USB_DP*%
X215630000Y-93140000D02*
X215630000Y-92150000D01*
X215630000Y-92150000D02*
X214230000Y-90750000D01*
X214230000Y-90750000D02*
X214230000Y-86020000D01*
%TO.N,/Data/USB_DN*%
X216730000Y-93140000D02*
X216730000Y-92630000D01*
X216730000Y-92630000D02*
X214740000Y-90640000D01*
X214740000Y-90640000D02*
X214740000Y-86910000D01*
X214740000Y-86910000D02*
X214730000Y-86900000D01*
%TO.N,GND*%
X212400000Y-94150000D02*
X212400000Y-93150000D01*
%TO.N,/Data/USB_DP*%
X214230000Y-86020000D02*
X214230000Y-85412590D01*
X214230000Y-85412590D02*
X214497590Y-85145000D01*
X214497590Y-85145000D02*
X214965000Y-85145000D01*
X214965000Y-85145000D02*
X215230000Y-85410000D01*
X215230000Y-85410000D02*
X215230000Y-86020000D01*
D84*
%TO.N,/5V*%
X217380000Y-86020000D02*
X217380000Y-88160000D01*
D78*
X217380000Y-88160000D02*
X217320000Y-88220000D01*
D84*
X212580000Y-86020000D02*
X212580000Y-88220000D01*
D78*
X212580000Y-88220000D02*
X212550000Y-88250000D01*
%TO.N,GND*%
X216750000Y-108230000D02*
X216750000Y-108050000D01*
D80*
X121060000Y-172040000D02*
X121060000Y-172010000D01*
D78*
X133020000Y-100450000D02*
X132450000Y-100450000D01*
D81*
X157300549Y-98857349D02*
X157711600Y-99268400D01*
D78*
X219530000Y-107230000D02*
X219530000Y-106410000D01*
D81*
X131700000Y-101200000D02*
X130600000Y-100100000D01*
D78*
X218180000Y-109180000D02*
X218180000Y-109940000D01*
D80*
X151860000Y-96730000D02*
X151860000Y-95635200D01*
D78*
X122099999Y-172700000D02*
X122405000Y-173005001D01*
X218180000Y-109940000D02*
X218200000Y-109960000D01*
D81*
X124125000Y-92130000D02*
X124145000Y-92150000D01*
D78*
X133763949Y-90880749D02*
X133763949Y-91963949D01*
X231350000Y-150840000D02*
X231460000Y-150730000D01*
X133763949Y-95681349D02*
X133763949Y-94666051D01*
X133763949Y-91963949D02*
X134010000Y-92210000D01*
D80*
X151860000Y-95635200D02*
X152800000Y-94695200D01*
D81*
X130600000Y-100100000D02*
X130600000Y-100030000D01*
D78*
X121060000Y-172349999D02*
X121060000Y-172040000D01*
X224340000Y-99620000D02*
X225130000Y-99620000D01*
X132450000Y-100450000D02*
X131700000Y-101200000D01*
X133763949Y-94666051D02*
X134010000Y-94420000D01*
D80*
X234740000Y-179440000D02*
X234564000Y-179264000D01*
D78*
X133263948Y-94783948D02*
X132910000Y-94430000D01*
D82*
X152878949Y-93196051D02*
X152878949Y-94616251D01*
D81*
X157950549Y-89789451D02*
X157951600Y-89788400D01*
D78*
X143490000Y-91150000D02*
X143030000Y-91610000D01*
X133263948Y-92531048D02*
X134013949Y-93281049D01*
X218180000Y-106450000D02*
X218180000Y-107230000D01*
X199050000Y-160920000D02*
X199975000Y-160920000D01*
D81*
X122405000Y-179190000D02*
X122405000Y-178030000D01*
D78*
X121410001Y-172700000D02*
X122099999Y-172700000D01*
X213470000Y-108665000D02*
X213195000Y-108940000D01*
X209020000Y-164820000D02*
X209030000Y-164830000D01*
D81*
X157300549Y-97254849D02*
X157300549Y-98857349D01*
X140190000Y-84210000D02*
X140200000Y-84200000D01*
D78*
X219530000Y-106410000D02*
X219520000Y-106400000D01*
X138430000Y-100680000D02*
X138420000Y-100670000D01*
X207110000Y-158970000D02*
X206223000Y-158970000D01*
D81*
X122370000Y-95810000D02*
X122330000Y-95850000D01*
D78*
X199893000Y-158970000D02*
X200148000Y-159225000D01*
D81*
X157300549Y-91529849D02*
X157300549Y-90439451D01*
D78*
X143490000Y-90460000D02*
X142800000Y-89770000D01*
X143490000Y-91150000D02*
X143490000Y-90460000D01*
X199975000Y-160920000D02*
X200150000Y-161095000D01*
D80*
X234564000Y-179264000D02*
X234564000Y-178000000D01*
D78*
X211980000Y-108820000D02*
X212100000Y-108940000D01*
D80*
X121060000Y-172010000D02*
X122565000Y-170505000D01*
D78*
X133263948Y-90880749D02*
X133263948Y-92531048D01*
X234545000Y-173700000D02*
X234545000Y-178000000D01*
X122405000Y-173005001D02*
X122405000Y-173730000D01*
D81*
X154110000Y-88220000D02*
X154150000Y-88260000D01*
D80*
X230240000Y-150730000D02*
X231460000Y-150730000D01*
D82*
X152878949Y-94616251D02*
X152800000Y-94695200D01*
D78*
X121105000Y-173730000D02*
X121105000Y-173005001D01*
D81*
X132440000Y-84190000D02*
X131100000Y-84190000D01*
X131100000Y-84190000D02*
X130870000Y-84420000D01*
D78*
X213195000Y-108940000D02*
X212100000Y-108940000D01*
X143030000Y-91610000D02*
X142455000Y-91610000D01*
D81*
X123790000Y-95810000D02*
X122370000Y-95810000D01*
D78*
X235900000Y-148710000D02*
X235250000Y-148710000D01*
D81*
X138600000Y-84210000D02*
X140190000Y-84210000D01*
X154110000Y-87290000D02*
X154110000Y-88220000D01*
D78*
X121105000Y-173005001D02*
X121410001Y-172700000D01*
D81*
X157300549Y-90439451D02*
X157951600Y-89788400D01*
D78*
X206223000Y-158970000D02*
X205968000Y-159225000D01*
X211980000Y-108045000D02*
X211980000Y-108820000D01*
X207110000Y-164820000D02*
X209020000Y-164820000D01*
X121410001Y-172700000D02*
X121060000Y-172349999D01*
D81*
X158600549Y-90437349D02*
X157951600Y-89788400D01*
D78*
X136460000Y-84210000D02*
X138600000Y-84210000D01*
X138420000Y-100670000D02*
X136800000Y-100670000D01*
D81*
X158600549Y-91529849D02*
X158600549Y-90437349D01*
X122890000Y-92130000D02*
X124125000Y-92130000D01*
X157950549Y-91529849D02*
X157950549Y-89789451D01*
D78*
X218180000Y-107230000D02*
X218230000Y-107280000D01*
X133263948Y-95681349D02*
X133263948Y-94783948D01*
X136414249Y-93531049D02*
X135293949Y-93531049D01*
X135293949Y-93531049D02*
X135053949Y-93291049D01*
X199050000Y-158970000D02*
X199893000Y-158970000D01*
%TO.N,/Power/VIN_M*%
X124155000Y-94275000D02*
X125690000Y-95810000D01*
X131613649Y-93531049D02*
X127968951Y-93531049D01*
X127500000Y-94000000D02*
X125690000Y-95810000D01*
X127968951Y-93531049D02*
X127500000Y-94000000D01*
X124155000Y-93840000D02*
X124155000Y-94275000D01*
%TO.N,Net-(D1-A)*%
X137019251Y-90880749D02*
X137370000Y-90530000D01*
X128567600Y-99975000D02*
X128755000Y-99975000D01*
X128755000Y-99975000D02*
X130600000Y-98130000D01*
X131960000Y-96750000D02*
X132263950Y-96446050D01*
X135763948Y-90880749D02*
X137019251Y-90880749D01*
X132263950Y-96446050D02*
X132263950Y-95681349D01*
%TO.N,Net-(U1-RAMP2)*%
X134440000Y-86465000D02*
X134440000Y-86195000D01*
X134763950Y-90880749D02*
X134763950Y-86788950D01*
X136460000Y-86110000D02*
X134525000Y-86110000D01*
X134763950Y-86788950D02*
X134440000Y-86465000D01*
X134525000Y-86110000D02*
X134440000Y-86195000D01*
%TO.N,Net-(U1-SS2)*%
X135263949Y-90176051D02*
X138600000Y-86840000D01*
X135263949Y-90880749D02*
X135263949Y-90176051D01*
X138600000Y-86840000D02*
X138600000Y-86110000D01*
%TO.N,Net-(U1-RES)*%
X138372426Y-92531048D02*
X140900000Y-90003474D01*
X140900000Y-90003474D02*
X140900000Y-89770000D01*
X136414249Y-92531048D02*
X138372426Y-92531048D01*
%TO.N,Net-(U1-SS1)*%
X136800000Y-97680000D02*
X136800000Y-98770000D01*
X135263949Y-95681349D02*
X135263949Y-96143949D01*
X135263949Y-96143949D02*
X136800000Y-97680000D01*
%TO.N,Net-(U1-RAMP1)*%
X134763950Y-96703950D02*
X135300000Y-97240000D01*
X134763950Y-95681349D02*
X134763950Y-96703950D01*
X135300000Y-97775000D02*
X134585000Y-98490000D01*
X135300000Y-97240000D02*
X135300000Y-97775000D01*
X134585000Y-98490000D02*
X134585000Y-100115000D01*
X134585000Y-100115000D02*
X134920000Y-100450000D01*
%TO.N,/Power/OUT0*%
X149990000Y-96395000D02*
X148280000Y-96395000D01*
X142815000Y-94325000D02*
X142815000Y-93450000D01*
X144790000Y-92710000D02*
X144790000Y-90030000D01*
X142815000Y-95115000D02*
X142815000Y-94325000D01*
X144095000Y-96395000D02*
X142815000Y-95115000D01*
X142815000Y-93450000D02*
X144050000Y-93450000D01*
X148280000Y-96395000D02*
X144095000Y-96395000D01*
X144050000Y-93450000D02*
X144790000Y-92710000D01*
%TO.N,Net-(C11-Pad2)*%
X144580000Y-87920000D02*
X144790000Y-88130000D01*
X142455000Y-87920000D02*
X144580000Y-87920000D01*
%TO.N,Net-(U1-COMP1)*%
X139833951Y-94531049D02*
X136414249Y-94531049D01*
X140915000Y-93450000D02*
X139833951Y-94531049D01*
%TO.N,Net-(D1-K)*%
X127200000Y-95963792D02*
X127200000Y-97770000D01*
X126332400Y-98637600D02*
X126332400Y-99975000D01*
X130918950Y-94031050D02*
X131613649Y-94031050D01*
X127200000Y-97770000D02*
X126332400Y-98637600D01*
X129313949Y-94574843D02*
X128588949Y-94574843D01*
X129313949Y-94574843D02*
X130375157Y-94574843D01*
X130375157Y-94574843D02*
X130918950Y-94031050D01*
X128588949Y-94574843D02*
X127200000Y-95963792D01*
%TO.N,Net-(D2-A)*%
X132263950Y-88304842D02*
X132263950Y-90880749D01*
X132320000Y-88248792D02*
X132440000Y-88128792D01*
X132440000Y-88128792D02*
X132440000Y-86090000D01*
X132320000Y-88248792D02*
X132263950Y-88304842D01*
%TO.N,Net-(D2-K)*%
X129350000Y-91060000D02*
X128760000Y-91060000D01*
X128120000Y-90420000D02*
X128120000Y-88020000D01*
X128832400Y-87307600D02*
X129305000Y-87307600D01*
X131613649Y-92531048D02*
X129861048Y-92531048D01*
X128760000Y-91060000D02*
X128120000Y-90420000D01*
X128120000Y-88020000D02*
X128832400Y-87307600D01*
X129861048Y-92531048D02*
X129350000Y-92020000D01*
X129350000Y-92020000D02*
X129350000Y-91060000D01*
%TO.N,/3V6*%
X224900000Y-102620000D02*
X224900000Y-107900000D01*
X139640000Y-153030000D02*
X138420000Y-154250000D01*
X140860000Y-156710000D02*
X138440000Y-154290000D01*
X221060000Y-99620000D02*
X221060000Y-99960000D01*
X142400000Y-153030000D02*
X139640000Y-153030000D01*
X221060000Y-99960000D02*
X221570000Y-100470000D01*
X222750000Y-100470000D02*
X224900000Y-102620000D01*
X221570000Y-100470000D02*
X222750000Y-100470000D01*
%TO.N,/Power/VIN*%
X157950549Y-97254849D02*
X157950549Y-95029451D01*
X157950549Y-95029451D02*
X159301600Y-93678400D01*
%TO.N,Net-(Q1-G)*%
X128250000Y-95500000D02*
X130160000Y-95500000D01*
X128040000Y-95710000D02*
X128250000Y-95500000D01*
X128670000Y-97770000D02*
X128040000Y-97140000D01*
X129000000Y-97770000D02*
X128670000Y-97770000D01*
X131128951Y-94531049D02*
X131613649Y-94531049D01*
X128040000Y-97140000D02*
X128040000Y-95710000D01*
X130160000Y-95500000D02*
X131128951Y-94531049D01*
%TO.N,Net-(Q2-G)*%
X132763949Y-96740000D02*
X132763949Y-95681349D01*
%TO.N,Net-(Q3-G)*%
X201940000Y-104874997D02*
X201943952Y-104878949D01*
X201940000Y-103890000D02*
X201940000Y-104874997D01*
%TO.N,Net-(Q4-G)*%
X132763949Y-89903158D02*
X132763949Y-90880749D01*
X200894997Y-116450000D02*
X200885000Y-116440003D01*
X133020000Y-87890000D02*
X133020000Y-89647107D01*
X200890000Y-117400000D02*
X200885000Y-117395000D01*
X133020000Y-89647107D02*
X132763949Y-89903158D01*
X200885000Y-117395000D02*
X200885000Y-116440003D01*
%TO.N,Net-(U2-FS0)*%
X152878949Y-87501051D02*
X153090000Y-87290000D01*
X152878949Y-88896051D02*
X152878949Y-87501051D01*
%TO.N,/3V3*%
X219952500Y-101377500D02*
X219960000Y-101385000D01*
D81*
X147990000Y-88810000D02*
X147990000Y-89250000D01*
D78*
X218637500Y-101377500D02*
X219952500Y-101377500D01*
D80*
X231170000Y-95820000D02*
X230060000Y-96930000D01*
D78*
X218000000Y-95855000D02*
X217800000Y-95905000D01*
X217000000Y-103815000D02*
X217000000Y-104780000D01*
X120455000Y-174454999D02*
X120750001Y-174750000D01*
D81*
X153760000Y-95310000D02*
X153760000Y-96730000D01*
D80*
X232250000Y-173355000D02*
X232595000Y-173700000D01*
D78*
X232000000Y-148710000D02*
X232000000Y-146130000D01*
X218265000Y-95590000D02*
X219030000Y-95590000D01*
D80*
X120100000Y-173394000D02*
X120436000Y-173730000D01*
D81*
X156461600Y-99268400D02*
X156650549Y-99079451D01*
D78*
X120455000Y-173730000D02*
X120455000Y-174454999D01*
X219890000Y-97805000D02*
X219870000Y-97785000D01*
X233895000Y-173700000D02*
X232595000Y-173700000D01*
X219862500Y-97777500D02*
X219870000Y-97785000D01*
D81*
X147980000Y-89260000D02*
X147980000Y-90260000D01*
D80*
X120100000Y-172040000D02*
X120100000Y-169750000D01*
D78*
X121459999Y-174750000D02*
X121755000Y-174454999D01*
X217000000Y-104780000D02*
X217710000Y-105490000D01*
X218637500Y-97777500D02*
X219862500Y-97777500D01*
X219470000Y-105490000D02*
X219520000Y-105440000D01*
D80*
X232200000Y-171100000D02*
X232200000Y-171960000D01*
D81*
X147990000Y-89250000D02*
X147980000Y-89260000D01*
D78*
X218180000Y-105490000D02*
X218290000Y-105380000D01*
D80*
X231170000Y-93670000D02*
X231170000Y-95820000D01*
D78*
X217645000Y-95855000D02*
X217400000Y-96100000D01*
D82*
X150928949Y-86928949D02*
X150928949Y-88896051D01*
D78*
X221090000Y-97805000D02*
X219890000Y-97805000D01*
D80*
X230060000Y-96930000D02*
X226930000Y-96930000D01*
X232250000Y-172010000D02*
X232250000Y-173355000D01*
X120100000Y-172040000D02*
X120100000Y-173394000D01*
D78*
X120750001Y-174750000D02*
X121459999Y-174750000D01*
X205240000Y-99770000D02*
X205280000Y-99810000D01*
D80*
X232200000Y-171960000D02*
X232250000Y-172010000D01*
D78*
X121755000Y-174454999D02*
X121755000Y-173730000D01*
X217400000Y-96100000D02*
X217400000Y-96940000D01*
D81*
X156650549Y-99079451D02*
X156650549Y-97254849D01*
D78*
X217710000Y-105490000D02*
X218180000Y-105490000D01*
X218000000Y-95855000D02*
X217645000Y-95855000D01*
X221080000Y-101385000D02*
X219960000Y-101385000D01*
X205280000Y-99810000D02*
X205280000Y-100970000D01*
X219030000Y-95590000D02*
X219050000Y-95570000D01*
D81*
X154390000Y-94680000D02*
X153760000Y-95310000D01*
D78*
X217800000Y-95905000D02*
X217800000Y-96940000D01*
D82*
X150900000Y-86900000D02*
X150928949Y-86928949D01*
D78*
X218180000Y-105490000D02*
X219470000Y-105490000D01*
X218000000Y-95855000D02*
X218265000Y-95590000D01*
%TO.N,/Data/XOUT*%
X216750000Y-109190000D02*
X215755000Y-109190000D01*
X215000000Y-103815000D02*
X215000000Y-104991800D01*
X214300000Y-107735000D02*
X215230000Y-108665000D01*
X215755000Y-109190000D02*
X215230000Y-108665000D01*
X215000000Y-104991800D02*
X214300000Y-105691800D01*
X214300000Y-105691800D02*
X214300000Y-107735000D01*
%TO.N,/Data/XIN*%
X214600000Y-103815000D02*
X214600000Y-104765000D01*
X214600000Y-104765000D02*
X213470000Y-105895000D01*
X212850000Y-107085000D02*
X213470000Y-106465000D01*
X211980000Y-107085000D02*
X212850000Y-107085000D01*
X213470000Y-105895000D02*
X213470000Y-106465000D01*
%TO.N,/Data/1V1*%
X215800000Y-103215000D02*
X215800000Y-103815000D01*
X219050000Y-94510000D02*
X218110000Y-94510000D01*
X215000000Y-97985000D02*
X215000000Y-96940000D01*
X217000000Y-97925000D02*
X216930000Y-97995000D01*
X217000000Y-95620000D02*
X217000000Y-96940000D01*
X214990000Y-97995000D02*
X215000000Y-97985000D01*
X218110000Y-94510000D02*
X217000000Y-95620000D01*
X215350000Y-102765000D02*
X215800000Y-103215000D01*
X217000000Y-96940000D02*
X217000000Y-97925000D01*
%TO.N,/stack4/GND0*%
X142460000Y-163400000D02*
X141617000Y-163400000D01*
X141535000Y-161450000D02*
X141360000Y-161275000D01*
X141500000Y-167970000D02*
X138460000Y-167970000D01*
X135287000Y-163400000D02*
X135542000Y-163145000D01*
X134400000Y-163400000D02*
X135287000Y-163400000D01*
X142460000Y-161450000D02*
X141535000Y-161450000D01*
X141617000Y-163400000D02*
X141362000Y-163145000D01*
X142460000Y-157550000D02*
X143570000Y-157550000D01*
X143570000Y-157550000D02*
X143630000Y-157610000D01*
%TO.N,/stack4/GND1*%
X142460000Y-175790000D02*
X138590000Y-175790000D01*
X133380000Y-171240000D02*
X133350000Y-171210000D01*
X143240000Y-171240000D02*
X143440000Y-171040000D01*
X134400000Y-171240000D02*
X133380000Y-171240000D01*
X142460000Y-177090000D02*
X141617000Y-177090000D01*
X141617000Y-177090000D02*
X141362000Y-176835000D01*
X141535000Y-175140000D02*
X141360000Y-174965000D01*
X134400000Y-177090000D02*
X135287000Y-177090000D01*
X142460000Y-171240000D02*
X143240000Y-171240000D01*
X138590000Y-175790000D02*
X138460000Y-175920000D01*
X142460000Y-175140000D02*
X141535000Y-175140000D01*
X135287000Y-177090000D02*
X135542000Y-176835000D01*
%TO.N,/stack4/GND2*%
X142460000Y-190770000D02*
X141617000Y-190770000D01*
X142460000Y-188820000D02*
X141535000Y-188820000D01*
X134400000Y-184920000D02*
X133760000Y-184920000D01*
X160982000Y-196342000D02*
X159990000Y-195350000D01*
X135287000Y-190770000D02*
X135542000Y-190515000D01*
X133760000Y-184920000D02*
X133380000Y-184540000D01*
X141617000Y-190770000D02*
X141362000Y-190515000D01*
X164338000Y-196342000D02*
X160982000Y-196342000D01*
X134400000Y-190770000D02*
X135287000Y-190770000D01*
X141535000Y-188820000D02*
X141360000Y-188645000D01*
%TO.N,/stack4/1V2-0*%
X134400000Y-164700000D02*
X133890000Y-164700000D01*
X133890000Y-164700000D02*
X133120000Y-165470000D01*
%TO.N,/Power/SW1*%
X131613649Y-95506351D02*
X130645157Y-96474843D01*
X131940000Y-98140000D02*
X131940000Y-97769686D01*
X131940000Y-98140000D02*
X132290000Y-98490000D01*
X131940000Y-97769686D02*
X130645157Y-96474843D01*
X130645157Y-96474843D02*
X129313949Y-96474843D01*
X131613649Y-95031048D02*
X131613649Y-95506351D01*
X132290000Y-98490000D02*
X132935000Y-98490000D01*
%TO.N,/Power/SW2*%
X131081050Y-91531050D02*
X130630000Y-91080000D01*
X131613649Y-91531050D02*
X131081050Y-91531050D01*
X196979999Y-110850001D02*
X197190001Y-110850001D01*
X194730000Y-112020000D02*
X195899999Y-110850001D01*
X197190001Y-110850001D02*
X198980000Y-112640000D01*
X130930000Y-89160000D02*
X129350000Y-89160000D01*
X195899999Y-110850001D02*
X197075000Y-110850001D01*
X130630000Y-89460000D02*
X130930000Y-89160000D01*
X130630000Y-91080000D02*
X130630000Y-89460000D01*
%TO.N,/Power/LOOP1*%
X134710000Y-97470000D02*
X134263949Y-97023949D01*
X134263949Y-97023949D02*
X134263949Y-95681349D01*
%TO.N,/Power/LOOP2*%
X134040000Y-89512102D02*
X134263949Y-89736051D01*
X198816600Y-121123400D02*
X198816600Y-121590000D01*
X134263949Y-89736051D02*
X134263949Y-90880749D01*
X134040000Y-87900000D02*
X134040000Y-89512102D01*
%TO.N,/stack4/1V2-1*%
X134400000Y-178390000D02*
X133720000Y-178390000D01*
X133720000Y-178390000D02*
X132950000Y-179160000D01*
%TO.N,/stack4/1V2-2*%
X134400000Y-192070000D02*
X133605000Y-192070000D01*
X133605000Y-192070000D02*
X132790000Y-192885000D01*
X132790000Y-192885000D02*
X132790000Y-193870000D01*
%TO.N,/stack4/0V8-0*%
X133500000Y-164050000D02*
X132130000Y-165420000D01*
X131320000Y-165420000D02*
X132130000Y-165420000D01*
X128970000Y-163070000D02*
X128970000Y-160830000D01*
X134400000Y-164050000D02*
X133500000Y-164050000D01*
X128970000Y-163070000D02*
X131320000Y-165420000D01*
%TO.N,/stack4/0V8-1*%
X134400000Y-177740000D02*
X132760000Y-177740000D01*
X132850000Y-176370000D02*
X132850000Y-177650000D01*
X132760000Y-177740000D02*
X131930000Y-178570000D01*
X132850000Y-177650000D02*
X132760000Y-177740000D01*
%TO.N,/stack4/0V8-2*%
X134400000Y-191420000D02*
X132705000Y-191420000D01*
X132705000Y-191420000D02*
X131820000Y-192305000D01*
X128740000Y-191640000D02*
X128740000Y-187750000D01*
X131820000Y-192305000D02*
X131820000Y-193740000D01*
X131820000Y-193740000D02*
X130840000Y-193740000D01*
X130840000Y-193740000D02*
X128740000Y-191640000D01*
%TO.N,/stack5/GND0*%
X156915000Y-188180000D02*
X157090000Y-188355000D01*
X156833000Y-186230000D02*
X157088000Y-186485000D01*
X163163000Y-186230000D02*
X162908000Y-186485000D01*
X155990000Y-186230000D02*
X156833000Y-186230000D01*
X164050000Y-192080000D02*
X165180000Y-192080000D01*
X155990000Y-188180000D02*
X156915000Y-188180000D01*
X165180000Y-192080000D02*
X165240000Y-192140000D01*
X164050000Y-186230000D02*
X163163000Y-186230000D01*
%TO.N,/stack5/GND1*%
X156580000Y-167990000D02*
X160000000Y-167990000D01*
X155990000Y-178410000D02*
X154800000Y-178410000D01*
X155990000Y-174510000D02*
X156915000Y-174510000D01*
X164050000Y-172560000D02*
X163163000Y-172560000D01*
X158678332Y-173860000D02*
X158890000Y-174071668D01*
X155990000Y-172560000D02*
X156833000Y-172560000D01*
X155990000Y-173860000D02*
X158678332Y-173860000D01*
X156833000Y-172560000D02*
X157088000Y-172815000D01*
X156915000Y-174510000D02*
X157090000Y-174685000D01*
X163163000Y-172560000D02*
X162908000Y-172815000D01*
%TO.N,/stack5/GND2*%
X185674000Y-152908000D02*
X182902000Y-152908000D01*
X182902000Y-152908000D02*
X181500000Y-154310000D01*
X155450000Y-164730000D02*
X154770000Y-165410000D01*
X156010000Y-158880000D02*
X156853000Y-158880000D01*
X156010000Y-160830000D02*
X156935000Y-160830000D01*
X163183000Y-158880000D02*
X162928000Y-159135000D01*
X164070000Y-158880000D02*
X163183000Y-158880000D01*
X156010000Y-164730000D02*
X155450000Y-164730000D01*
X156935000Y-160830000D02*
X157110000Y-161005000D01*
X156853000Y-158880000D02*
X157108000Y-159135000D01*
%TO.N,/stack5/1V2-1*%
X155930000Y-171320000D02*
X155990000Y-171260000D01*
X154880000Y-171445000D02*
X154880000Y-173920000D01*
X155065000Y-171260000D02*
X154880000Y-171445000D01*
X155990000Y-171260000D02*
X155065000Y-171260000D01*
%TO.N,/stack5/1V2-2*%
X154630000Y-156890000D02*
X155320000Y-157580000D01*
X154630000Y-156180000D02*
X154630000Y-156890000D01*
X155320000Y-157580000D02*
X156010000Y-157580000D01*
%TO.N,/stack5/0V8-1*%
X164850000Y-171910000D02*
X164050000Y-171910000D01*
X165150000Y-171610000D02*
X164850000Y-171910000D01*
%TO.N,/stack5/0V8-2*%
X153560000Y-156200000D02*
X153560000Y-156990000D01*
X153560000Y-156990000D02*
X154800000Y-158230000D01*
X154800000Y-158230000D02*
X156010000Y-158230000D01*
%TO.N,/stack6/GND0*%
X185500000Y-163430000D02*
X184657000Y-163430000D01*
X184575000Y-161480000D02*
X184400000Y-161305000D01*
X184657000Y-163430000D02*
X184402000Y-163175000D01*
X185500000Y-161480000D02*
X184575000Y-161480000D01*
X178327000Y-163430000D02*
X178582000Y-163175000D01*
X177440000Y-163430000D02*
X178327000Y-163430000D01*
X176380000Y-157580000D02*
X176370000Y-157590000D01*
X186040000Y-157580000D02*
X186900000Y-156720000D01*
X185500000Y-157580000D02*
X186040000Y-157580000D01*
X177440000Y-157580000D02*
X176380000Y-157580000D01*
%TO.N,/stack6/GND1*%
X185500000Y-175160000D02*
X184575000Y-175160000D01*
X181630000Y-175810000D02*
X181500000Y-175940000D01*
X185500000Y-171260000D02*
X186520000Y-171260000D01*
X186520000Y-171260000D02*
X186710000Y-171070000D01*
X178327000Y-177110000D02*
X178582000Y-176855000D01*
X177440000Y-177110000D02*
X178327000Y-177110000D01*
X185500000Y-175810000D02*
X181630000Y-175810000D01*
X184657000Y-177110000D02*
X184402000Y-176855000D01*
X184575000Y-175160000D02*
X184400000Y-174985000D01*
X178410000Y-181680000D02*
X181500000Y-181680000D01*
X185500000Y-177110000D02*
X184657000Y-177110000D01*
X177430000Y-177100000D02*
X177440000Y-177110000D01*
%TO.N,/stack6/GND2*%
X184657000Y-190800000D02*
X184402000Y-190545000D01*
X207518000Y-197104000D02*
X205784000Y-195370000D01*
X185500000Y-190800000D02*
X184657000Y-190800000D01*
X177440000Y-190800000D02*
X178327000Y-190800000D01*
X186810000Y-184950000D02*
X186860000Y-184900000D01*
X184575000Y-188850000D02*
X184400000Y-188675000D01*
X178327000Y-190800000D02*
X178582000Y-190545000D01*
X185500000Y-184950000D02*
X186810000Y-184950000D01*
X185500000Y-188850000D02*
X184575000Y-188850000D01*
X205784000Y-195370000D02*
X203050000Y-195370000D01*
%TO.N,/stack6/1V2-0*%
X186660000Y-164720000D02*
X186009999Y-164720000D01*
X185999999Y-164730000D02*
X185500000Y-164730000D01*
X186009999Y-164720000D02*
X185999999Y-164730000D01*
%TO.N,/stack6/1V2-1*%
X177420000Y-178390000D02*
X177440000Y-178410000D01*
%TO.N,/stack6/1V2-2*%
X176280000Y-192100000D02*
X175650000Y-192730000D01*
X175650000Y-192730000D02*
X175650000Y-194370000D01*
X177440000Y-192100000D02*
X176280000Y-192100000D01*
%TO.N,/stack6/0V8-0*%
X177440000Y-164080000D02*
X176160000Y-164080000D01*
X176160000Y-164080000D02*
X175870000Y-163790000D01*
%TO.N,/stack6/0V8-1*%
X188425000Y-177750000D02*
X190850000Y-177750000D01*
X188425000Y-177750000D02*
X188415000Y-177760000D01*
X192525000Y-176075000D02*
X192525000Y-172057498D01*
X188415000Y-177760000D02*
X185500000Y-177760000D01*
X192525000Y-172057498D02*
X192528749Y-172053749D01*
X190850000Y-177750000D02*
X192525000Y-176075000D01*
%TO.N,/stack6/0V8-2*%
X174590000Y-194350000D02*
X174600000Y-194360000D01*
X174590000Y-192570000D02*
X174590000Y-194350000D01*
X175710000Y-191450000D02*
X174590000Y-192570000D01*
X176940001Y-191450000D02*
X177440000Y-191450000D01*
X176940001Y-191450000D02*
X175710000Y-191450000D01*
%TO.N,/stack7/GND0*%
X199975000Y-188290000D02*
X200150000Y-188465000D01*
X210340000Y-192190000D02*
X207110000Y-192190000D01*
X199050000Y-186340000D02*
X199893000Y-186340000D01*
X199893000Y-186340000D02*
X200148000Y-186595000D01*
X211600000Y-190930000D02*
X210340000Y-192190000D01*
X207110000Y-186340000D02*
X206223000Y-186340000D01*
X199050000Y-192190000D02*
X197870000Y-192190000D01*
X199050000Y-188290000D02*
X199975000Y-188290000D01*
X206223000Y-186340000D02*
X205968000Y-186595000D01*
X197870000Y-192190000D02*
X197820000Y-192140000D01*
%TO.N,/stack7/GND1*%
X202620000Y-168510000D02*
X203050000Y-168080000D01*
X199050000Y-173950000D02*
X201738332Y-173950000D01*
X199050000Y-172650000D02*
X199893000Y-172650000D01*
X199050000Y-174600000D02*
X201721000Y-174600000D01*
X206223000Y-172650000D02*
X205968000Y-172905000D01*
X207110000Y-178500000D02*
X208210000Y-178500000D01*
X208210000Y-178500000D02*
X208440000Y-178730000D01*
X199893000Y-172650000D02*
X200148000Y-172905000D01*
X201738332Y-173950000D02*
X201950000Y-174161668D01*
X207110000Y-172650000D02*
X206223000Y-172650000D01*
X201721000Y-174600000D02*
X201896000Y-174775000D01*
%TO.N,/stack7/1V2-0*%
X209080000Y-185050000D02*
X209070000Y-185040000D01*
X209070000Y-185040000D02*
X207110000Y-185040000D01*
%TO.N,/stack7/1V2-1*%
X211725000Y-172125000D02*
X213820000Y-174220000D01*
X210580000Y-172125000D02*
X211725000Y-172125000D01*
X213820000Y-174220000D02*
X213820000Y-175670000D01*
X210580000Y-172125000D02*
X209805000Y-171350000D01*
X209805000Y-171350000D02*
X207110000Y-171350000D01*
%TO.N,/stack7/1V2-2*%
X207110000Y-157670000D02*
X208840000Y-157670000D01*
X208840000Y-157670000D02*
X209520000Y-156990000D01*
%TO.N,/stack7/0V8-0*%
X209580000Y-185690000D02*
X207110000Y-185690000D01*
X209690000Y-185580000D02*
X209580000Y-185690000D01*
%TO.N,/stack7/0V8-1*%
X209410000Y-172000000D02*
X207110000Y-172000000D01*
X209560000Y-172150000D02*
X209410000Y-172000000D01*
%TO.N,/stack7/0V8-2*%
X209200000Y-158320000D02*
X210530000Y-156990000D01*
X207110000Y-158320000D02*
X209200000Y-158320000D01*
%TO.N,/Data/USB_DN*%
X214730000Y-86900000D02*
X214730000Y-86110000D01*
X215514999Y-86900000D02*
X214730000Y-86900000D01*
X215730000Y-86684999D02*
X215514999Y-86900000D01*
X215730000Y-86110000D02*
X215730000Y-86684999D01*
%TO.N,/Data/USB_DP*%
X214230000Y-85590000D02*
X214230000Y-86110000D01*
X215230000Y-86110000D02*
X215230000Y-85535001D01*
%TO.N,/Data/QSPI_SS*%
X206860000Y-92960000D02*
X206860000Y-94225000D01*
X206860000Y-94225000D02*
X207380000Y-94225000D01*
X206750000Y-92850000D02*
X206860000Y-92960000D01*
%TO.N,Net-(U45-BO)*%
X132260000Y-160150000D02*
X134400000Y-160150000D01*
X131960000Y-160450000D02*
X132260000Y-160150000D01*
%TO.N,Net-(U47-NRSTO)*%
X132770000Y-188170000D02*
X127470000Y-182870000D01*
X127470000Y-182870000D02*
X127470000Y-182820000D01*
X134400000Y-188170000D02*
X132770000Y-188170000D01*
%TO.N,Net-(U55-NRSTO)*%
X164050000Y-175160000D02*
X164388234Y-175160000D01*
%TO.N,Net-(U56-RI)*%
X154700000Y-163200000D02*
X154700000Y-163115000D01*
X155035000Y-162780000D02*
X156010000Y-162780000D01*
X154700000Y-163115000D02*
X155035000Y-162780000D01*
%TO.N,Net-(U56-BO)*%
X155300000Y-163430000D02*
X156010000Y-163430000D01*
X154040000Y-163980000D02*
X154750000Y-163980000D01*
X154750000Y-163980000D02*
X155300000Y-163430000D01*
%TO.N,Net-(U64-NRSTO)*%
X187446673Y-163926800D02*
X187270000Y-164103473D01*
X187270000Y-164103473D02*
X187270000Y-171540000D01*
X186900000Y-171910000D02*
X185500000Y-171910000D01*
X189920000Y-161070000D02*
X189920000Y-161453474D01*
X189920000Y-161453474D02*
X187446673Y-163926800D01*
X187270000Y-171540000D02*
X186900000Y-171910000D01*
%TO.N,Net-(U63-CO)*%
X170270000Y-158230000D02*
X177440000Y-158230000D01*
X167780000Y-160720000D02*
X170270000Y-158230000D01*
X167780000Y-160730000D02*
X167780000Y-160720000D01*
%TO.N,Net-(U63-CLKO)*%
X167800000Y-161720000D02*
X167810000Y-161720000D01*
X167810000Y-161720000D02*
X170650000Y-158880000D01*
X170650000Y-158880000D02*
X177440000Y-158880000D01*
%TO.N,Net-(U63-RI)*%
X167810000Y-162730000D02*
X167870000Y-162730000D01*
X171070000Y-159530000D02*
X177440000Y-159530000D01*
X167870000Y-162730000D02*
X171070000Y-159530000D01*
%TO.N,Net-(U63-BO)*%
X167830000Y-163730000D02*
X171380000Y-160180000D01*
X171380000Y-160180000D02*
X177440000Y-160180000D01*
%TO.N,Net-(U63-NRSTO)*%
X167870000Y-164740000D02*
X171780000Y-160830000D01*
X171780000Y-160830000D02*
X177440000Y-160830000D01*
%TO.N,Net-(U73-NRSTO)*%
X211250000Y-175250000D02*
X207110000Y-175250000D01*
X214940000Y-178940000D02*
X211250000Y-175250000D01*
X214940000Y-180240000D02*
X214940000Y-178940000D01*
%TO.N,Net-(U73-CO)*%
X210910000Y-179710000D02*
X209050000Y-177850000D01*
X209050000Y-177850000D02*
X207110000Y-177850000D01*
X210910000Y-180240000D02*
X210910000Y-179710000D01*
%TO.N,Net-(U73-CLKO)*%
X211920000Y-179420000D02*
X209700000Y-177200000D01*
X209700000Y-177200000D02*
X207110000Y-177200000D01*
X211920000Y-180240000D02*
X211920000Y-179420000D01*
%TO.N,Net-(U73-RI)*%
X212930000Y-180240000D02*
X212930000Y-179230000D01*
X212930000Y-179230000D02*
X210250000Y-176550000D01*
X210250000Y-176550000D02*
X207110000Y-176550000D01*
%TO.N,Net-(U73-BO)*%
X213920000Y-180230000D02*
X213920000Y-179020000D01*
X210800000Y-175900000D02*
X207110000Y-175900000D01*
X213920000Y-179020000D02*
X210800000Y-175900000D01*
%TO.N,Net-(U74-BI)*%
X209890000Y-163520000D02*
X207110000Y-163520000D01*
X209910000Y-163500000D02*
X209890000Y-163520000D01*
%TO.N,Net-(U72-CO)*%
X192260000Y-185660000D02*
X195540000Y-188940000D01*
X195540000Y-188940000D02*
X199050000Y-188940000D01*
%TO.N,Net-(U72-CLKO)*%
X192260000Y-186610000D02*
X195240000Y-189590000D01*
X195240000Y-189590000D02*
X199050000Y-189590000D01*
%TO.N,Net-(U72-RI)*%
X194950000Y-190240000D02*
X199050000Y-190240000D01*
X192280000Y-187570000D02*
X194950000Y-190240000D01*
%TO.N,Net-(U73-RO)*%
X198954000Y-176646000D02*
X199050000Y-176550000D01*
%TO.N,Net-(U72-BO)*%
X194680000Y-190890000D02*
X199050000Y-190890000D01*
X192310000Y-188520000D02*
X194680000Y-190890000D01*
%TO.N,Net-(U72-NRSTO)*%
X192310000Y-189450000D02*
X194400000Y-191540000D01*
X194400000Y-191540000D02*
X199050000Y-191540000D01*
%TO.N,/stack4/RO*%
X143570000Y-186680000D02*
X143380000Y-186870000D01*
X143380000Y-186870000D02*
X142460000Y-186870000D01*
%TO.N,/stack4/CLKI*%
X143610000Y-185800000D02*
X143190000Y-186220000D01*
X143190000Y-186220000D02*
X142460000Y-186220000D01*
%TO.N,/Data/SCL*%
X151130000Y-94395000D02*
X151578949Y-93946051D01*
X151578949Y-93946051D02*
X151578949Y-93196051D01*
X151130000Y-94650000D02*
X151130000Y-94395000D01*
%TO.N,/Data/SDA*%
X150320000Y-94670000D02*
X150320000Y-94540000D01*
X150928949Y-93931051D02*
X150928949Y-93196051D01*
X150320000Y-94540000D02*
X150928949Y-93931051D01*
%TO.N,/Data/QSPI_SD2*%
X206300000Y-95225000D02*
X207380000Y-95225000D01*
%TO.N,/stack6/CI*%
X189770000Y-185600000D02*
X185500000Y-185600000D01*
X185540000Y-185640000D02*
X185500000Y-185600000D01*
X189800000Y-185630000D02*
X189770000Y-185600000D01*
%TO.N,/stack6/CLKI*%
X189820000Y-186590000D02*
X189480000Y-186250000D01*
X189480000Y-186250000D02*
X185500000Y-186250000D01*
%TO.N,/stack6/RO*%
X185500000Y-186900000D02*
X189160000Y-186900000D01*
X189160000Y-186900000D02*
X189800000Y-187540000D01*
%TO.N,/stack6/BI*%
X188850000Y-187550000D02*
X189800000Y-188500000D01*
X185500000Y-187550000D02*
X188850000Y-187550000D01*
X189800000Y-188300000D02*
X189800000Y-188500000D01*
%TO.N,/stack6/NRSTI*%
X189740000Y-189480000D02*
X189770000Y-189480000D01*
X185500000Y-188200000D02*
X188490000Y-188200000D01*
X188490000Y-188200000D02*
X189770000Y-189480000D01*
%TO.N,Net-(U54-NRSTI)*%
X164050000Y-191430000D02*
X165170000Y-191430000D01*
X165170000Y-191430000D02*
X165280000Y-191320000D01*
%TO.N,Net-(U54-BI)*%
X164050000Y-190780000D02*
X164980000Y-190780000D01*
X164980000Y-190780000D02*
X165260000Y-190500000D01*
%TO.N,Net-(U54-RO)*%
X164850000Y-190130000D02*
X165260000Y-189720000D01*
X164050000Y-190130000D02*
X164850000Y-190130000D01*
%TO.N,Net-(U54-CLKI)*%
X164700000Y-189480000D02*
X165230000Y-188950000D01*
X164050000Y-189480000D02*
X164700000Y-189480000D01*
%TO.N,Net-(U54-CI)*%
X164050000Y-188830000D02*
X164590000Y-188830000D01*
X164590000Y-188830000D02*
X165230000Y-188190000D01*
%TO.N,/stack4/BI*%
X143570000Y-187730000D02*
X143390000Y-187730000D01*
X143180000Y-187520000D02*
X142460000Y-187520000D01*
X143390000Y-187730000D02*
X143180000Y-187520000D01*
%TO.N,Net-(U63-NRSTI)*%
X185500000Y-160830000D02*
X186520000Y-160830000D01*
X186520000Y-160830000D02*
X186860000Y-161170000D01*
%TO.N,/stack5/NRSTI*%
X164540000Y-164080000D02*
X164070000Y-164080000D01*
X165170000Y-164710000D02*
X164540000Y-164080000D01*
%TO.N,Net-(U63-BI)*%
X185500000Y-160180000D02*
X186800000Y-160180000D01*
X186800000Y-160180000D02*
X186880000Y-160260000D01*
%TO.N,/stack5/BI*%
X165200000Y-163710000D02*
X164920000Y-163430000D01*
X164920000Y-163430000D02*
X164070000Y-163430000D01*
%TO.N,Net-(U63-RO)*%
X186730000Y-159530000D02*
X186860000Y-159400000D01*
X185500000Y-159530000D02*
X186730000Y-159530000D01*
%TO.N,/stack5/RO*%
X165190000Y-162700000D02*
X164150000Y-162700000D01*
X164150000Y-162700000D02*
X164070000Y-162780000D01*
%TO.N,Net-(U63-CLKI)*%
X186510000Y-158880000D02*
X186860000Y-158530000D01*
X185500000Y-158880000D02*
X186510000Y-158880000D01*
%TO.N,/stack5/CLKI*%
X165190000Y-161750000D02*
X164810000Y-162130000D01*
X164810000Y-162130000D02*
X164070000Y-162130000D01*
%TO.N,Net-(U63-CI)*%
X185500000Y-158230000D02*
X186320000Y-158230000D01*
X186320000Y-158230000D02*
X186880000Y-157670000D01*
%TO.N,/stack5/CI*%
X164640000Y-161480000D02*
X164070000Y-161480000D01*
X165200000Y-160920000D02*
X164640000Y-161480000D01*
X165200000Y-160720000D02*
X165200000Y-160920000D01*
%TO.N,Net-(U72-NRSTI)*%
X211500000Y-190000000D02*
X209960000Y-191540000D01*
X214940000Y-186560000D02*
X211500000Y-190000000D01*
X209960000Y-191540000D02*
X207110000Y-191540000D01*
X214940000Y-183060000D02*
X214940000Y-186560000D01*
%TO.N,Net-(U72-BI)*%
X209710000Y-190890000D02*
X207110000Y-190890000D01*
X213930000Y-186670000D02*
X209710000Y-190890000D01*
X213930000Y-183060000D02*
X213930000Y-186670000D01*
%TO.N,Net-(U72-RO)*%
X212920000Y-183060000D02*
X212920000Y-186680000D01*
X212920000Y-186680000D02*
X209360000Y-190240000D01*
X209360000Y-190240000D02*
X207110000Y-190240000D01*
%TO.N,Net-(U72-CLKI)*%
X211930000Y-183040000D02*
X211930000Y-186758474D01*
X209098474Y-189590000D02*
X207110000Y-189590000D01*
X211930000Y-186758474D02*
X209098474Y-189590000D01*
%TO.N,Net-(U72-CI)*%
X208760000Y-188940000D02*
X207110000Y-188940000D01*
X210910000Y-186790000D02*
X208760000Y-188940000D01*
X210910000Y-183040000D02*
X210910000Y-186790000D01*
%TO.N,/stack7/RST_N*%
X232600000Y-159300000D02*
X232550000Y-159300000D01*
X232550000Y-159300000D02*
X227620000Y-164230000D01*
X227620000Y-164230000D02*
X227400000Y-164230000D01*
X232640000Y-155860000D02*
X232640000Y-154445000D01*
X227400000Y-164230000D02*
X207170000Y-164230000D01*
X207170000Y-164230000D02*
X207110000Y-164170000D01*
X232640000Y-154445000D02*
X232650000Y-154435000D01*
%TO.N,/stack7/RO*%
X227400000Y-162850000D02*
X227756526Y-162850000D01*
X227756526Y-162850000D02*
X233950000Y-156656526D01*
X207130000Y-162850000D02*
X207110000Y-162870000D01*
X227400000Y-162850000D02*
X207130000Y-162850000D01*
X233950000Y-156656526D02*
X233950000Y-154435000D01*
%TO.N,/stack7/CLKI*%
X207110000Y-162220000D02*
X219670000Y-162220000D01*
X219670000Y-162220000D02*
X219680000Y-162210000D01*
%TO.N,/stack7/CI*%
X207110000Y-161570000D02*
X227430000Y-161570000D01*
X233300000Y-156000000D02*
X233300000Y-154435000D01*
X227730000Y-161570000D02*
X233300000Y-156000000D01*
X227430000Y-161570000D02*
X227730000Y-161570000D01*
%TO.N,/Data/PWR_EN*%
X127780000Y-87090000D02*
X126440000Y-88430000D01*
X126440000Y-88430000D02*
X125640000Y-88430000D01*
%TO.N,Net-(JP1-B)*%
X125795000Y-92150000D02*
X125805000Y-92160000D01*
X123820000Y-90530000D02*
X123040000Y-89750000D01*
X124980000Y-90530000D02*
X123820000Y-90530000D01*
X125805000Y-92160000D02*
X125805000Y-93840000D01*
X125795000Y-92150000D02*
X125795000Y-91345000D01*
X123040000Y-89750000D02*
X123040000Y-88430000D01*
X125795000Y-91345000D02*
X124980000Y-90530000D01*
%TO.N,Net-(JP1-C)*%
X124340000Y-89490000D02*
X124340000Y-88430000D01*
X125420000Y-89920000D02*
X124770000Y-89920000D01*
X131613649Y-93031049D02*
X128531049Y-93031049D01*
X128531049Y-93031049D02*
X125420000Y-89920000D01*
X124770000Y-89920000D02*
X124340000Y-89490000D01*
%TO.N,Net-(U27-GPIO26_ADC0)*%
X222080000Y-99000000D02*
X222080000Y-99620000D01*
X221920000Y-98840000D02*
X222080000Y-99000000D01*
X220017734Y-99377500D02*
X220296834Y-99098400D01*
X218637500Y-99377500D02*
X220017734Y-99377500D01*
X220296834Y-99093166D02*
X220550000Y-98840000D01*
X222080000Y-99620000D02*
X223320000Y-99620000D01*
X220550000Y-98840000D02*
X221920000Y-98840000D01*
X220296834Y-99098400D02*
X220296834Y-99093166D01*
%TO.N,Net-(Q1-G)*%
X156110000Y-109260000D02*
X155628949Y-108778949D01*
X156110000Y-109770000D02*
X156110000Y-109260000D01*
X155628949Y-108778949D02*
X155003946Y-108778949D01*
D80*
%TO.N,GND*%
X222680000Y-93670000D02*
X222680000Y-94760000D01*
%TD*%
%TA.AperFunction,Conductor*%
%TO.N,/3V6*%
G36*
X159654490Y-129034520D02*
G01*
X159721513Y-129054254D01*
X159767229Y-129107092D01*
X159778396Y-129158413D01*
X159783045Y-134560324D01*
X159763418Y-134627381D01*
X159710654Y-134673181D01*
X159658868Y-134684431D01*
X153699113Y-134675927D01*
X153632102Y-134656147D01*
X153586422Y-134603277D01*
X153575290Y-134551824D01*
X153579894Y-129153985D01*
X153599636Y-129086964D01*
X153652479Y-129041254D01*
X153703984Y-129030092D01*
X159654490Y-129034520D01*
G37*
%TD.AperFunction*%
%TD*%
%TA.AperFunction,Conductor*%
%TO.N,GND*%
G36*
X211081868Y-84716627D02*
G01*
X211127291Y-84743087D01*
X211466952Y-85053909D01*
X211620608Y-85194519D01*
X211644282Y-85223997D01*
X211669490Y-85267658D01*
X211669493Y-85267662D01*
X211669495Y-85267665D01*
X211767335Y-85365505D01*
X211864325Y-85421502D01*
X211886031Y-85437406D01*
X211957407Y-85502722D01*
X211993575Y-85562501D01*
X211991682Y-85632345D01*
X211989285Y-85639089D01*
X211653808Y-86502942D01*
X211611189Y-86558309D01*
X211545403Y-86581845D01*
X211526992Y-86581544D01*
X210763845Y-86512167D01*
X210698863Y-86486494D01*
X210658076Y-86429764D01*
X210652881Y-86367565D01*
X210778744Y-85639089D01*
X210921392Y-84813456D01*
X210952203Y-84750747D01*
X211012026Y-84714650D01*
X211081868Y-84716627D01*
G37*
%TD.AperFunction*%
%TD*%
%TA.AperFunction,Conductor*%
%TO.N,/Power/VIN_M*%
G36*
X200332189Y-100409917D02*
G01*
X200378155Y-100462537D01*
X200389567Y-100514930D01*
X200360424Y-108927422D01*
X200340508Y-108994392D01*
X200287545Y-109039964D01*
X200237425Y-109050988D01*
X193038840Y-109109052D01*
X192971644Y-109089909D01*
X192925465Y-109037476D01*
X192913840Y-108985116D01*
X192910055Y-100543557D01*
X192929710Y-100476510D01*
X192982493Y-100430732D01*
X193033555Y-100419504D01*
X200265071Y-100390501D01*
X200332189Y-100409917D01*
G37*
%TD.AperFunction*%
%TD*%
%TA.AperFunction,Conductor*%
%TO.N,/Power/LOOP2*%
G36*
X200071440Y-115922084D02*
G01*
X200117747Y-115974404D01*
X200129500Y-116027098D01*
X200129500Y-116942874D01*
X200129501Y-116942880D01*
X200135908Y-117002485D01*
X200135909Y-117002487D01*
X200170846Y-117096158D01*
X200175830Y-117165848D01*
X200171706Y-117180444D01*
X200153686Y-117231943D01*
X200134751Y-117399997D01*
X200134751Y-117400002D01*
X200153685Y-117568056D01*
X200209545Y-117727694D01*
X200209547Y-117727697D01*
X200299518Y-117870884D01*
X200299523Y-117870890D01*
X200419109Y-117990476D01*
X200419115Y-117990481D01*
X200562302Y-118080452D01*
X200562305Y-118080454D01*
X200562309Y-118080455D01*
X200562310Y-118080456D01*
X200634913Y-118105860D01*
X200721943Y-118136314D01*
X200889997Y-118155249D01*
X200890000Y-118155249D01*
X200890003Y-118155249D01*
X201058056Y-118136314D01*
X201058059Y-118136313D01*
X201217690Y-118080456D01*
X201217692Y-118080454D01*
X201217694Y-118080454D01*
X201217697Y-118080452D01*
X201360884Y-117990481D01*
X201360885Y-117990480D01*
X201360890Y-117990477D01*
X201480477Y-117870890D01*
X201503809Y-117833757D01*
X201556141Y-117787468D01*
X201625194Y-117776819D01*
X201689043Y-117805194D01*
X201727415Y-117863583D01*
X201732801Y-117899788D01*
X201729691Y-124706545D01*
X201709976Y-124773575D01*
X201657151Y-124819306D01*
X201605775Y-124830488D01*
X194231389Y-124835483D01*
X194164336Y-124815844D01*
X194118546Y-124763071D01*
X194107305Y-124711774D01*
X194107293Y-124706545D01*
X194087061Y-116088277D01*
X194106588Y-116021195D01*
X194159285Y-115975316D01*
X194209755Y-115963996D01*
X200004199Y-115903105D01*
X200071440Y-115922084D01*
G37*
%TD.AperFunction*%
%TD*%
%TA.AperFunction,Conductor*%
%TO.N,/3V6*%
G36*
X137285665Y-104314228D02*
G01*
X137331955Y-104366564D01*
X137343691Y-104419475D01*
X137299692Y-125908103D01*
X137279870Y-125975102D01*
X137226972Y-126020749D01*
X137175692Y-126031849D01*
X136461078Y-126031849D01*
X136461072Y-126031850D01*
X136401465Y-126038257D01*
X136266620Y-126088551D01*
X136266613Y-126088555D01*
X136151404Y-126174801D01*
X136151401Y-126174804D01*
X136065155Y-126290013D01*
X136065151Y-126290020D01*
X136014857Y-126424866D01*
X136008450Y-126484465D01*
X136008449Y-126484484D01*
X136008449Y-131863419D01*
X136008450Y-131863425D01*
X136014857Y-131923032D01*
X136065151Y-132057877D01*
X136065155Y-132057884D01*
X136151401Y-132173093D01*
X136151404Y-132173096D01*
X136266613Y-132259342D01*
X136266620Y-132259346D01*
X136401466Y-132309640D01*
X136401465Y-132309640D01*
X136408393Y-132310384D01*
X136461076Y-132316049D01*
X137162320Y-132316048D01*
X137229356Y-132335732D01*
X137275111Y-132388536D01*
X137286317Y-132440302D01*
X137236662Y-156691364D01*
X137216840Y-156758363D01*
X137163942Y-156804010D01*
X137111937Y-156815108D01*
X133876497Y-156796187D01*
X133811249Y-156777182D01*
X133730923Y-156726709D01*
X133687692Y-156699545D01*
X133687694Y-156699545D01*
X133528056Y-156643685D01*
X133360003Y-156624751D01*
X133359997Y-156624751D01*
X133191943Y-156643685D01*
X133032310Y-156699544D01*
X132963162Y-156742992D01*
X132895925Y-156761991D01*
X132856237Y-156755039D01*
X132827639Y-156745032D01*
X132738056Y-156713685D01*
X132570003Y-156694751D01*
X132569997Y-156694751D01*
X132401943Y-156713685D01*
X132242303Y-156769546D01*
X132236038Y-156772564D01*
X132234992Y-156770392D01*
X132179251Y-156786261D01*
X127439680Y-156758545D01*
X127372757Y-156738469D01*
X127327311Y-156685398D01*
X127317185Y-156648430D01*
X127306314Y-156551944D01*
X127250454Y-156392305D01*
X127250452Y-156392302D01*
X127160481Y-156249115D01*
X127160476Y-156249109D01*
X127040890Y-156129523D01*
X127040884Y-156129518D01*
X126897697Y-156039547D01*
X126897694Y-156039545D01*
X126738056Y-155983685D01*
X126570003Y-155964751D01*
X126569997Y-155964751D01*
X126401943Y-155983685D01*
X126242305Y-156039545D01*
X126242302Y-156039547D01*
X126099115Y-156129518D01*
X126099109Y-156129523D01*
X125979523Y-156249109D01*
X125979518Y-156249115D01*
X125889547Y-156392302D01*
X125889545Y-156392305D01*
X125833686Y-156551943D01*
X125823960Y-156638258D01*
X125796893Y-156702671D01*
X125739298Y-156742226D01*
X125700015Y-156748371D01*
X125428735Y-156746785D01*
X125361812Y-156726709D01*
X125316366Y-156673638D01*
X125305460Y-156622832D01*
X125290017Y-110573566D01*
X125309679Y-110506524D01*
X125328988Y-110483273D01*
X131804713Y-104383239D01*
X131867008Y-104351601D01*
X131888468Y-104349506D01*
X137218428Y-104295227D01*
X137285665Y-104314228D01*
G37*
%TD.AperFunction*%
%TD*%
%TA.AperFunction,Conductor*%
%TO.N,/3V6*%
G36*
X229378420Y-131115470D02*
G01*
X229445452Y-131135180D01*
X229491187Y-131188001D01*
X229502373Y-131239495D01*
X229500025Y-142736264D01*
X229480327Y-142803300D01*
X229427513Y-142849044D01*
X229376265Y-142860239D01*
X217325765Y-142883548D01*
X217258687Y-142863993D01*
X217212830Y-142811278D01*
X217201527Y-142760190D01*
X217142000Y-131235529D01*
X217161338Y-131168390D01*
X217213905Y-131122363D01*
X217266044Y-131110890D01*
X229378420Y-131115470D01*
G37*
%TD.AperFunction*%
%TD*%
%TA.AperFunction,Conductor*%
%TO.N,/3V6*%
G36*
X203242426Y-126789882D02*
G01*
X203288362Y-126842529D01*
X203299746Y-126894680D01*
X203289803Y-131786378D01*
X203269982Y-131853377D01*
X203217085Y-131899025D01*
X203165590Y-131910126D01*
X197353591Y-131900123D01*
X197286585Y-131880323D01*
X197240921Y-131827440D01*
X197229804Y-131775872D01*
X197239746Y-126914178D01*
X197259568Y-126847182D01*
X197312465Y-126801536D01*
X197363316Y-126790436D01*
X203175319Y-126770429D01*
X203242426Y-126789882D01*
G37*
%TD.AperFunction*%
%TD*%
%TA.AperFunction,Conductor*%
%TO.N,/Power/VIN*%
G36*
X171630261Y-79050294D02*
G01*
X171676053Y-79103066D01*
X171687294Y-79154303D01*
X171729800Y-94085573D01*
X171710307Y-94152668D01*
X171657633Y-94198573D01*
X171605984Y-94209926D01*
X159185620Y-94228216D01*
X159118551Y-94208630D01*
X159072719Y-94155894D01*
X159061437Y-94104232D01*
X159061435Y-94085573D01*
X159059533Y-79163338D01*
X159079209Y-79096299D01*
X159132007Y-79050537D01*
X159183444Y-79039325D01*
X171563210Y-79030656D01*
X171630261Y-79050294D01*
G37*
%TD.AperFunction*%
%TD*%
%TA.AperFunction,Conductor*%
%TO.N,GND*%
G36*
X192253976Y-79180762D02*
G01*
X192320807Y-79201137D01*
X192366015Y-79254410D01*
X192376688Y-79303468D01*
X192592032Y-100054590D01*
X192573044Y-100121830D01*
X192561789Y-100137037D01*
X192504338Y-100203399D01*
X192444621Y-100334311D01*
X192444620Y-100334315D01*
X192425611Y-100399160D01*
X192425102Y-100400784D01*
X192424968Y-100401352D01*
X192404554Y-100543786D01*
X192408340Y-108985346D01*
X192420354Y-109094667D01*
X192420358Y-109094691D01*
X192431979Y-109147036D01*
X192431982Y-109147045D01*
X192467353Y-109251168D01*
X192467356Y-109251174D01*
X192546113Y-109371574D01*
X192546119Y-109371582D01*
X192589920Y-109421315D01*
X192591833Y-109423618D01*
X192592295Y-109424012D01*
X192592296Y-109424013D01*
X192616267Y-109444448D01*
X192647166Y-109470788D01*
X192685413Y-109529259D01*
X192690715Y-109563866D01*
X192867484Y-126597627D01*
X192870000Y-126840000D01*
X195232051Y-131550000D01*
X196220000Y-133520000D01*
X196220000Y-133520001D01*
X206246396Y-140562350D01*
X206289942Y-140616990D01*
X206299114Y-140665497D01*
X206201061Y-147921485D01*
X206180472Y-147988252D01*
X206128568Y-148032610D01*
X192485422Y-154261002D01*
X192416262Y-154270936D01*
X192352711Y-154241903D01*
X192339307Y-154228346D01*
X173129999Y-131549999D01*
X173130000Y-131549999D01*
X162924394Y-131510481D01*
X162857431Y-131490537D01*
X162811881Y-131437556D01*
X162800877Y-131385608D01*
X162832926Y-126839998D01*
X162919140Y-114611974D01*
X162939296Y-114545079D01*
X162992421Y-114499697D01*
X163041973Y-114488857D01*
X175581763Y-114371355D01*
X175569544Y-96600000D01*
X176874659Y-96600000D01*
X176893975Y-96796129D01*
X176951188Y-96984733D01*
X177044086Y-97158532D01*
X177044090Y-97158539D01*
X177169116Y-97310883D01*
X177321460Y-97435909D01*
X177321467Y-97435913D01*
X177495266Y-97528811D01*
X177495269Y-97528811D01*
X177495273Y-97528814D01*
X177683868Y-97586024D01*
X177880000Y-97605341D01*
X178076132Y-97586024D01*
X178264727Y-97528814D01*
X178438538Y-97435910D01*
X178590883Y-97310883D01*
X178715910Y-97158538D01*
X178808814Y-96984727D01*
X178866024Y-96796132D01*
X178885341Y-96600000D01*
X178866024Y-96403868D01*
X178808814Y-96215273D01*
X178808811Y-96215269D01*
X178808811Y-96215266D01*
X178715913Y-96041467D01*
X178715909Y-96041460D01*
X178590883Y-95889116D01*
X178438539Y-95764090D01*
X178438532Y-95764086D01*
X178264733Y-95671188D01*
X178264727Y-95671186D01*
X178076132Y-95613976D01*
X178076129Y-95613975D01*
X177880000Y-95594659D01*
X177683870Y-95613975D01*
X177495266Y-95671188D01*
X177321467Y-95764086D01*
X177321460Y-95764090D01*
X177169116Y-95889116D01*
X177044090Y-96041460D01*
X177044086Y-96041467D01*
X176951188Y-96215266D01*
X176893975Y-96403870D01*
X176874659Y-96600000D01*
X175569544Y-96600000D01*
X175557534Y-79133809D01*
X175577172Y-79066757D01*
X175629945Y-79020966D01*
X175682809Y-79009732D01*
X192253976Y-79180762D01*
G37*
%TD.AperFunction*%
%TD*%
%TA.AperFunction,Conductor*%
%TO.N,GND*%
G36*
X218940667Y-84725667D02*
G01*
X218994864Y-84769763D01*
X219014146Y-84815072D01*
X219331795Y-86362594D01*
X219325992Y-86432223D01*
X219283466Y-86487660D01*
X219220172Y-86511136D01*
X218331845Y-86581888D01*
X218263454Y-86567588D01*
X218213651Y-86518583D01*
X218202557Y-86491585D01*
X218186004Y-86432223D01*
X217960367Y-85623040D01*
X217961321Y-85553180D01*
X217995736Y-85498592D01*
X218042433Y-85455522D01*
X218066570Y-85440095D01*
X218065795Y-85438753D01*
X218072836Y-85434688D01*
X218192665Y-85365505D01*
X218290505Y-85267665D01*
X218331635Y-85196424D01*
X218354943Y-85167285D01*
X218808611Y-84748853D01*
X218871233Y-84717873D01*
X218940667Y-84725667D01*
G37*
%TD.AperFunction*%
%TD*%
%TA.AperFunction,Conductor*%
%TO.N,/3V6*%
G36*
X172612691Y-132209685D02*
G01*
X172658446Y-132262489D01*
X172669652Y-132313994D01*
X172669941Y-138252785D01*
X172650260Y-138319825D01*
X172597458Y-138365583D01*
X172546001Y-138376791D01*
X167274011Y-138379332D01*
X167206962Y-138359680D01*
X167161181Y-138306898D01*
X167149951Y-138255335D01*
X167149999Y-132313998D01*
X167169684Y-132246960D01*
X167222488Y-132201205D01*
X167273999Y-132190000D01*
X172545652Y-132190000D01*
X172612691Y-132209685D01*
G37*
%TD.AperFunction*%
%TD*%
%TA.AperFunction,Conductor*%
%TO.N,/Power/VIN_M*%
G36*
X174655931Y-96352829D02*
G01*
X174701710Y-96405612D01*
X174712940Y-96457353D01*
X174690175Y-112386862D01*
X174670395Y-112453873D01*
X174617525Y-112499553D01*
X174566863Y-112510683D01*
X162156532Y-112579520D01*
X162089384Y-112560208D01*
X162043337Y-112507658D01*
X162039703Y-112498962D01*
X160840000Y-109290000D01*
X156832128Y-109280932D01*
X156765134Y-109261095D01*
X156719498Y-109208188D01*
X156713879Y-109188452D01*
X156712604Y-109188794D01*
X156710501Y-109180945D01*
X156710501Y-109180943D01*
X156669577Y-109028215D01*
X156640639Y-108978095D01*
X156590520Y-108891284D01*
X156478716Y-108779480D01*
X156478715Y-108779479D01*
X156474385Y-108775149D01*
X156474374Y-108775139D01*
X156453704Y-108754469D01*
X156420219Y-108693146D01*
X156417387Y-108667329D01*
X156400119Y-104617943D01*
X156411878Y-104564706D01*
X159057973Y-98930000D01*
X159064241Y-96464080D01*
X159084096Y-96397094D01*
X159137016Y-96351473D01*
X159188182Y-96340398D01*
X174588882Y-96333176D01*
X174655931Y-96352829D01*
G37*
%TD.AperFunction*%
%TD*%
%TA.AperFunction,Conductor*%
%TO.N,/Power/LOOP1*%
G36*
X158986713Y-115962110D02*
G01*
X159032884Y-116014551D01*
X159044500Y-116066952D01*
X159044500Y-116977873D01*
X159044501Y-116977879D01*
X159050908Y-117037486D01*
X159075142Y-117102458D01*
X159080126Y-117172149D01*
X159076002Y-117186744D01*
X159063687Y-117221938D01*
X159063685Y-117221945D01*
X159044751Y-117389997D01*
X159044751Y-117390002D01*
X159063685Y-117558056D01*
X159119545Y-117717694D01*
X159119547Y-117717697D01*
X159209518Y-117860884D01*
X159209523Y-117860890D01*
X159329109Y-117980476D01*
X159329115Y-117980481D01*
X159472302Y-118070452D01*
X159472305Y-118070454D01*
X159472309Y-118070455D01*
X159472310Y-118070456D01*
X159544913Y-118095860D01*
X159631943Y-118126314D01*
X159799997Y-118145249D01*
X159800000Y-118145249D01*
X159800003Y-118145249D01*
X159926044Y-118131047D01*
X159968059Y-118126313D01*
X160004794Y-118113459D01*
X160074573Y-118109896D01*
X160135201Y-118144625D01*
X160167428Y-118206618D01*
X160169746Y-118231496D01*
X160115177Y-125024993D01*
X160094955Y-125091872D01*
X160041785Y-125137201D01*
X159991376Y-125147997D01*
X151389614Y-125161544D01*
X151322544Y-125141965D01*
X151276706Y-125089233D01*
X151265426Y-125036273D01*
X151336056Y-118145249D01*
X151356769Y-116124443D01*
X151377138Y-116057613D01*
X151430408Y-116012402D01*
X151479781Y-116001722D01*
X158919524Y-115942957D01*
X158986713Y-115962110D01*
G37*
%TD.AperFunction*%
%TD*%
%TA.AperFunction,Conductor*%
%TO.N,/Power/SW2*%
G36*
X209653976Y-104589749D02*
G01*
X209699860Y-104642440D01*
X209706187Y-104659354D01*
X210012668Y-105705114D01*
X210012632Y-105774984D01*
X209998668Y-105805959D01*
X209969544Y-105852310D01*
X209913685Y-106011943D01*
X209894751Y-106179997D01*
X209894751Y-106180002D01*
X209913685Y-106348056D01*
X209969545Y-106507694D01*
X209969547Y-106507697D01*
X210059518Y-106650884D01*
X210059523Y-106650890D01*
X210179110Y-106770477D01*
X210296132Y-106844007D01*
X210317997Y-106857746D01*
X210364288Y-106910081D01*
X210371020Y-106927866D01*
X215765120Y-125333351D01*
X215770122Y-125367347D01*
X215863068Y-138489699D01*
X215843859Y-138556876D01*
X215791380Y-138603004D01*
X215739696Y-138614575D01*
X205564483Y-138665845D01*
X205497345Y-138646499D01*
X205485491Y-138637944D01*
X204785633Y-138067213D01*
X204746120Y-138009590D01*
X204740000Y-137971116D01*
X204740000Y-126559998D01*
X202075647Y-115219419D01*
X196551978Y-115213071D01*
X196484962Y-115193309D01*
X196439268Y-115140453D01*
X196428123Y-115089812D01*
X196400619Y-110464225D01*
X196419905Y-110397073D01*
X196472436Y-110351005D01*
X196517225Y-110339712D01*
X201540000Y-110040000D01*
X201524289Y-105758901D01*
X201543727Y-105691792D01*
X201596363Y-105645843D01*
X201648284Y-105634448D01*
X202446825Y-105634448D01*
X202506436Y-105628040D01*
X202641284Y-105577745D01*
X202756499Y-105491495D01*
X202842749Y-105376280D01*
X202893044Y-105241432D01*
X202899453Y-105181822D01*
X202899452Y-104710313D01*
X202919136Y-104643275D01*
X202971940Y-104597520D01*
X203023139Y-104586315D01*
X209586888Y-104570228D01*
X209653976Y-104589749D01*
G37*
%TD.AperFunction*%
%TD*%
%TA.AperFunction,Conductor*%
%TO.N,/Power/SW1*%
G36*
X155383203Y-104280027D02*
G01*
X155429276Y-104332554D01*
X155440792Y-104383954D01*
X155463249Y-107898657D01*
X155443994Y-107965821D01*
X155391483Y-108011912D01*
X155339252Y-108023449D01*
X154501074Y-108023449D01*
X154501068Y-108023450D01*
X154441461Y-108029857D01*
X154306616Y-108080151D01*
X154306609Y-108080155D01*
X154191400Y-108166401D01*
X154191397Y-108166404D01*
X154105151Y-108281613D01*
X154105147Y-108281620D01*
X154076208Y-108359212D01*
X154054854Y-108416466D01*
X154048445Y-108476076D01*
X154048445Y-108476083D01*
X154048445Y-108476084D01*
X154048445Y-109081819D01*
X154048446Y-109081825D01*
X154054853Y-109141432D01*
X154105147Y-109276277D01*
X154105151Y-109276284D01*
X154191397Y-109391493D01*
X154191400Y-109391496D01*
X154306609Y-109477742D01*
X154306616Y-109477746D01*
X154441462Y-109528040D01*
X154441461Y-109528040D01*
X154448389Y-109528784D01*
X154501072Y-109534449D01*
X155242535Y-109534448D01*
X155309574Y-109554132D01*
X155355329Y-109606936D01*
X155365755Y-109672331D01*
X155354751Y-109769996D01*
X155354751Y-109770002D01*
X155373685Y-109938056D01*
X155429545Y-110097692D01*
X155459014Y-110144592D01*
X155478017Y-110209772D01*
X155479999Y-110519999D01*
X155479999Y-110520000D01*
X155534795Y-110520470D01*
X160377066Y-110562034D01*
X160443932Y-110582293D01*
X160489232Y-110635488D01*
X160500000Y-110686029D01*
X160500000Y-114976354D01*
X160480315Y-115043393D01*
X160427511Y-115089148D01*
X160376277Y-115100354D01*
X149988571Y-115123566D01*
X149921488Y-115104031D01*
X149919638Y-115102825D01*
X142314642Y-110046331D01*
X142269715Y-109992821D01*
X142259305Y-109944387D01*
X142201318Y-104464556D01*
X142220292Y-104397313D01*
X142272609Y-104351002D01*
X142324560Y-104339247D01*
X155316049Y-104260748D01*
X155383203Y-104280027D01*
G37*
%TD.AperFunction*%
%TD*%
%TA.AperFunction,Conductor*%
%TO.N,unconnected-(L1-NC-Pad3)*%
G36*
X148963039Y-124259685D02*
G01*
X149008794Y-124312489D01*
X149020000Y-124364000D01*
X149020000Y-135088818D01*
X149000315Y-135155857D01*
X148947511Y-135201612D01*
X148895819Y-135212818D01*
X138263819Y-135197330D01*
X138196809Y-135177548D01*
X138151131Y-135124677D01*
X138140000Y-135073330D01*
X138140000Y-124364000D01*
X138159685Y-124296961D01*
X138212489Y-124251206D01*
X138264000Y-124240000D01*
X148896000Y-124240000D01*
X148963039Y-124259685D01*
G37*
%TD.AperFunction*%
%TD*%
%TA.AperFunction,Conductor*%
%TO.N,unconnected-(L2-NC-Pad3)*%
G36*
X228523039Y-111289685D02*
G01*
X228568794Y-111342489D01*
X228580000Y-111394000D01*
X228580000Y-119946000D01*
X228560315Y-120013039D01*
X228507511Y-120058794D01*
X228456000Y-120070000D01*
X216544000Y-120070000D01*
X216476961Y-120050315D01*
X216431206Y-119997511D01*
X216420000Y-119946000D01*
X216420000Y-111394000D01*
X216439685Y-111326961D01*
X216492489Y-111281206D01*
X216544000Y-111270000D01*
X228456000Y-111270000D01*
X228523039Y-111289685D01*
G37*
%TD.AperFunction*%
%TD*%
%TA.AperFunction,Conductor*%
%TO.N,GND*%
G36*
X233173039Y-90079685D02*
G01*
X233218794Y-90132489D01*
X233230000Y-90184000D01*
X233230000Y-92466000D01*
X233210315Y-92533039D01*
X233157511Y-92578794D01*
X233106000Y-92590000D01*
X228874000Y-92590000D01*
X228806961Y-92570315D01*
X228761206Y-92517511D01*
X228750000Y-92466000D01*
X228750000Y-90184000D01*
X228769685Y-90116961D01*
X228822489Y-90071206D01*
X228874000Y-90060000D01*
X233106000Y-90060000D01*
X233173039Y-90079685D01*
G37*
%TD.AperFunction*%
%TD*%
%TA.AperFunction,Conductor*%
%TO.N,/5V*%
G36*
X225053039Y-89979685D02*
G01*
X225098794Y-90032489D01*
X225110000Y-90084000D01*
X225110000Y-92406000D01*
X225090315Y-92473039D01*
X225037511Y-92518794D01*
X224986000Y-92530000D01*
X221861362Y-92530000D01*
X221794323Y-92510315D01*
X221773681Y-92493681D01*
X221396319Y-92116319D01*
X221362834Y-92054996D01*
X221360000Y-92028638D01*
X221360000Y-90084000D01*
X221379685Y-90016961D01*
X221432489Y-89971206D01*
X221484000Y-89960000D01*
X224986000Y-89960000D01*
X225053039Y-89979685D01*
G37*
%TD.AperFunction*%
%TD*%
%TA.AperFunction,Conductor*%
%TO.N,/3V3*%
G36*
X227993039Y-89619685D02*
G01*
X228038794Y-89672489D01*
X228050000Y-89724000D01*
X228050000Y-96306000D01*
X228030315Y-96373039D01*
X227977511Y-96418794D01*
X227926000Y-96430000D01*
X225924000Y-96430000D01*
X225856961Y-96410315D01*
X225811206Y-96357511D01*
X225800000Y-96306000D01*
X225800000Y-89724000D01*
X225819685Y-89656961D01*
X225872489Y-89611206D01*
X225924000Y-89600000D01*
X227926000Y-89600000D01*
X227993039Y-89619685D01*
G37*
%TD.AperFunction*%
%TD*%
%TA.AperFunction,Conductor*%
%TO.N,GND*%
G36*
X208863039Y-95599685D02*
G01*
X208908794Y-95652489D01*
X208920000Y-95704000D01*
X208920000Y-96816000D01*
X208900315Y-96883039D01*
X208847511Y-96928794D01*
X208796000Y-96940000D01*
X208601362Y-96940000D01*
X208534323Y-96920315D01*
X208513681Y-96903681D01*
X207666319Y-96056319D01*
X207632834Y-95994996D01*
X207630000Y-95968638D01*
X207630000Y-95704000D01*
X207649685Y-95636961D01*
X207702489Y-95591206D01*
X207754000Y-95580000D01*
X208796000Y-95580000D01*
X208863039Y-95599685D01*
G37*
%TD.AperFunction*%
%TD*%
M02*
