%TF.GenerationSoftware,KiCad,Pcbnew,9.0.0*%
%TF.CreationDate,2025-03-15T22:01:34-04:00*%
%TF.ProjectId,emberone,656d6265-726f-46e6-952e-6b696361645f,rev?*%
%TF.SameCoordinates,Original*%
%TF.FileFunction,Copper,L3,Inr*%
%TF.FilePolarity,Positive*%
%FSLAX46Y46*%
G04 Gerber Fmt 4.6, Leading zero omitted, Abs format (unit mm)*
G04 Created by KiCad (PCBNEW 9.0.0) date 2025-03-15 22:01:34*
%MOMM*%
%LPD*%
G01*
G04 APERTURE LIST*
%TA.AperFunction,ComponentPad*%
%ADD10C,0.540000*%
%TD*%
%TA.AperFunction,HeatsinkPad*%
%ADD11C,0.540000*%
%TD*%
%TA.AperFunction,ComponentPad*%
%ADD12C,1.348000*%
%TD*%
%TA.AperFunction,ComponentPad*%
%ADD13C,6.400000*%
%TD*%
%TA.AperFunction,ComponentPad*%
%ADD14C,3.200000*%
%TD*%
%TA.AperFunction,ComponentPad*%
%ADD15O,1.000000X2.100000*%
%TD*%
%TA.AperFunction,ComponentPad*%
%ADD16O,1.000000X1.800000*%
%TD*%
%TA.AperFunction,ViaPad*%
%ADD17C,0.800000*%
%TD*%
%TA.AperFunction,ViaPad*%
%ADD18C,0.500000*%
%TD*%
%TA.AperFunction,ViaPad*%
%ADD19C,1.000000*%
%TD*%
%TA.AperFunction,Conductor*%
%ADD20C,0.508000*%
%TD*%
%TA.AperFunction,Conductor*%
%ADD21C,1.000000*%
%TD*%
%TA.AperFunction,Conductor*%
%ADD22C,1.500000*%
%TD*%
G04 APERTURE END LIST*
D10*
%TO.N,/stack5/GND1*%
%TO.C,U55*%
X162235712Y-174725000D03*
X162230000Y-172755000D03*
X161130000Y-171735000D03*
X161122856Y-174725000D03*
X161117144Y-172755000D03*
X161100000Y-175765000D03*
X161100000Y-173805000D03*
X159945712Y-174725000D03*
X159940000Y-172755000D03*
X158900000Y-172775000D03*
X158890000Y-171745000D03*
D11*
X158880000Y-175765000D03*
D10*
X158880000Y-173825000D03*
X158878572Y-174725000D03*
X157685712Y-174725000D03*
X157680000Y-172755000D03*
%TD*%
%TO.N,/stack4/GND1*%
%TO.C,U46*%
X136214288Y-174925000D03*
X136220000Y-176895000D03*
X137320000Y-177915000D03*
X137327144Y-174925000D03*
X137332856Y-176895000D03*
X137350000Y-173885000D03*
X137350000Y-175845000D03*
X138504288Y-174925000D03*
X138510000Y-176895000D03*
X139550000Y-176875000D03*
X139560000Y-177905000D03*
D11*
X139570000Y-173885000D03*
D10*
X139570000Y-175825000D03*
X139571428Y-174925000D03*
X140764288Y-174925000D03*
X140770000Y-176895000D03*
%TD*%
%TO.N,/stack6/GND1*%
%TO.C,U64*%
X179254288Y-174945000D03*
X179260000Y-176915000D03*
X180360000Y-177935000D03*
X180367144Y-174945000D03*
X180372856Y-176915000D03*
X180390000Y-173905000D03*
X180390000Y-175865000D03*
X181544288Y-174945000D03*
X181550000Y-176915000D03*
X182590000Y-176895000D03*
X182600000Y-177925000D03*
D11*
X182610000Y-173905000D03*
D10*
X182610000Y-175845000D03*
X182611428Y-174945000D03*
X183804288Y-174945000D03*
X183810000Y-176915000D03*
%TD*%
%TO.N,/stack7/GND1*%
%TO.C,U73*%
X205295712Y-174815000D03*
X205290000Y-172845000D03*
X204190000Y-171825000D03*
X204182856Y-174815000D03*
X204177144Y-172845000D03*
X204160000Y-175855000D03*
X204160000Y-173895000D03*
X203005712Y-174815000D03*
X203000000Y-172845000D03*
X201960000Y-172865000D03*
X201950000Y-171835000D03*
D11*
X201940000Y-175855000D03*
D10*
X201940000Y-173915000D03*
X201938572Y-174815000D03*
X200745712Y-174815000D03*
X200740000Y-172845000D03*
%TD*%
%TO.N,/stack6/GND2*%
%TO.C,U65*%
X179254288Y-188635000D03*
X179260000Y-190605000D03*
X180360000Y-191625000D03*
X180367144Y-188635000D03*
X180372856Y-190605000D03*
X180390000Y-187595000D03*
X180390000Y-189555000D03*
X181544288Y-188635000D03*
X181550000Y-190605000D03*
X182590000Y-190585000D03*
X182600000Y-191615000D03*
D11*
X182610000Y-187595000D03*
D10*
X182610000Y-189535000D03*
X182611428Y-188635000D03*
X183804288Y-188635000D03*
X183810000Y-190605000D03*
%TD*%
%TO.N,/stack4/GND2*%
%TO.C,U47*%
X136214288Y-188605000D03*
X136220000Y-190575000D03*
X137320000Y-191595000D03*
X137327144Y-188605000D03*
X137332856Y-190575000D03*
X137350000Y-187565000D03*
X137350000Y-189525000D03*
X138504288Y-188605000D03*
X138510000Y-190575000D03*
X139550000Y-190555000D03*
X139560000Y-191585000D03*
D11*
X139570000Y-187565000D03*
D10*
X139570000Y-189505000D03*
X139571428Y-188605000D03*
X140764288Y-188605000D03*
X140770000Y-190575000D03*
%TD*%
%TO.N,GND*%
%TO.C,U74*%
X205295712Y-161135000D03*
X205290000Y-159165000D03*
X204190000Y-158145000D03*
X204182856Y-161135000D03*
X204177144Y-159165000D03*
X204160000Y-162175000D03*
X204160000Y-160215000D03*
X203005712Y-161135000D03*
X203000000Y-159165000D03*
X201960000Y-159185000D03*
X201950000Y-158155000D03*
D11*
X201940000Y-162175000D03*
D10*
X201940000Y-160235000D03*
X201938572Y-161135000D03*
X200745712Y-161135000D03*
X200740000Y-159165000D03*
%TD*%
%TO.N,/stack5/GND0*%
%TO.C,U54*%
X162235712Y-188395000D03*
X162230000Y-186425000D03*
X161130000Y-185405000D03*
X161122856Y-188395000D03*
X161117144Y-186425000D03*
X161100000Y-189435000D03*
X161100000Y-187475000D03*
X159945712Y-188395000D03*
X159940000Y-186425000D03*
X158900000Y-186445000D03*
X158890000Y-185415000D03*
D11*
X158880000Y-189435000D03*
D10*
X158880000Y-187495000D03*
X158878572Y-188395000D03*
X157685712Y-188395000D03*
X157680000Y-186425000D03*
%TD*%
%TO.N,/stack4/GND0*%
%TO.C,U45*%
X136214288Y-161235000D03*
X136220000Y-163205000D03*
X137320000Y-164225000D03*
X137327144Y-161235000D03*
X137332856Y-163205000D03*
X137350000Y-160195000D03*
X137350000Y-162155000D03*
X138504288Y-161235000D03*
X138510000Y-163205000D03*
X139550000Y-163185000D03*
X139560000Y-164215000D03*
D11*
X139570000Y-160195000D03*
D10*
X139570000Y-162135000D03*
X139571428Y-161235000D03*
X140764288Y-161235000D03*
X140770000Y-163205000D03*
%TD*%
%TO.N,/stack7/GND0*%
%TO.C,U72*%
X205295712Y-188505000D03*
X205290000Y-186535000D03*
X204190000Y-185515000D03*
X204182856Y-188505000D03*
X204177144Y-186535000D03*
X204160000Y-189545000D03*
X204160000Y-187585000D03*
X203005712Y-188505000D03*
X203000000Y-186535000D03*
X201960000Y-186555000D03*
X201950000Y-185525000D03*
D11*
X201940000Y-189545000D03*
D10*
X201940000Y-187605000D03*
X201938572Y-188505000D03*
X200745712Y-188505000D03*
X200740000Y-186535000D03*
%TD*%
%TO.N,/stack6/GND0*%
%TO.C,U63*%
X179254288Y-161265000D03*
X179260000Y-163235000D03*
X180360000Y-164255000D03*
X180367144Y-161265000D03*
X180372856Y-163235000D03*
X180390000Y-160225000D03*
X180390000Y-162185000D03*
X181544288Y-161265000D03*
X181550000Y-163235000D03*
X182590000Y-163215000D03*
X182600000Y-164245000D03*
D11*
X182610000Y-160225000D03*
D10*
X182610000Y-162165000D03*
X182611428Y-161265000D03*
X183804288Y-161265000D03*
X183810000Y-163235000D03*
%TD*%
%TO.N,/stack5/GND2*%
%TO.C,U56*%
X162255712Y-161045000D03*
X162250000Y-159075000D03*
X161150000Y-158055000D03*
X161142856Y-161045000D03*
X161137144Y-159075000D03*
X161120000Y-162085000D03*
X161120000Y-160125000D03*
X159965712Y-161045000D03*
X159960000Y-159075000D03*
X158920000Y-159095000D03*
X158910000Y-158065000D03*
D11*
X158900000Y-162085000D03*
D10*
X158900000Y-160145000D03*
X158898572Y-161045000D03*
X157705712Y-161045000D03*
X157700000Y-159075000D03*
%TD*%
D12*
%TO.N,/3V6*%
%TO.C,J19*%
X122620000Y-134240000D03*
%TO.N,GND*%
X121350000Y-135510000D03*
X123890000Y-135510000D03*
X121350000Y-132970000D03*
X123890000Y-132970000D03*
%TD*%
D13*
%TO.N,unconnected-(H6-Pad1)*%
%TO.C,H6*%
X192930000Y-181770000D03*
%TD*%
%TO.N,unconnected-(H8-Pad1)*%
%TO.C,H8*%
X170930000Y-181770000D03*
%TD*%
D14*
%TO.N,/Power/VIN*%
%TO.C,J1*%
X164295549Y-81250000D03*
X164295549Y-88250000D03*
X169295549Y-81250000D03*
X169295549Y-88250000D03*
%TD*%
D13*
%TO.N,unconnected-(H5-Pad1)*%
%TO.C,H5*%
X192930000Y-167770000D03*
%TD*%
D15*
%TO.N,GND*%
%TO.C,J6*%
X226268700Y-85495000D03*
D16*
X226268700Y-81315000D03*
D15*
X217628700Y-85495000D03*
D16*
X217628700Y-81315000D03*
%TD*%
D13*
%TO.N,unconnected-(H10-Pad1)*%
%TO.C,H10*%
X148930000Y-181770000D03*
%TD*%
%TO.N,unconnected-(H7-Pad1)*%
%TO.C,H7*%
X170930000Y-167770000D03*
%TD*%
D14*
%TO.N,GND*%
%TO.C,J2*%
X192774249Y-81300000D03*
X192774249Y-88300000D03*
X197774249Y-81300000D03*
X197774249Y-88300000D03*
%TD*%
D13*
%TO.N,unconnected-(H9-Pad1)*%
%TO.C,H9*%
X148930000Y-167770000D03*
%TD*%
D17*
%TO.N,GND*%
X125800000Y-88150000D03*
D18*
%TO.N,Net-(U27-GPIO1)*%
X238442649Y-84808600D03*
D19*
%TO.N,/3V6*%
X149440000Y-132190000D03*
X147890000Y-132180000D03*
X150960000Y-132170000D03*
X149440000Y-133560000D03*
X152580000Y-130760000D03*
X149440000Y-134920000D03*
X149470000Y-130780000D03*
X152550000Y-134900000D03*
X150990000Y-130760000D03*
X150960000Y-134900000D03*
X147920000Y-130770000D03*
X147890000Y-133550000D03*
X147890000Y-134910000D03*
X152550000Y-133540000D03*
X152550000Y-132170000D03*
X150960000Y-133540000D03*
D18*
%TO.N,GND*%
X231800000Y-145150000D03*
X230200000Y-146900000D03*
%TO.N,/3V3*%
X232000000Y-147400000D03*
%TO.N,/stack7/RST_N*%
X226800000Y-164400000D03*
%TO.N,Net-(U74-NRSTI)*%
X224750000Y-164400000D03*
%TO.N,/stack7/RO*%
X226850000Y-163100000D03*
%TO.N,Net-(U74-RO)*%
X224750000Y-163100000D03*
%TO.N,/stack7/CI*%
X226850000Y-161750000D03*
%TO.N,Net-(U74-CI)*%
X224750000Y-161750000D03*
D19*
%TO.N,/Power/VIN_M*%
X159200000Y-100800000D03*
X159220000Y-102290000D03*
D18*
%TO.N,GND*%
X154300000Y-101950000D03*
%TO.N,Net-(U1-CSG2)*%
X152650000Y-101950000D03*
%TO.N,/Power/LOOP2*%
X154250000Y-98600000D03*
%TO.N,Net-(U1-CS2)*%
X134400000Y-87140000D03*
X152550000Y-98600000D03*
%TO.N,Net-(U1-CSG2)*%
X133650000Y-89950000D03*
%TO.N,/Power/VIN_M*%
X146200000Y-102700000D03*
%TO.N,/Power/LOOP1*%
X149200000Y-101950000D03*
%TO.N,Net-(U1-CS1)*%
X145970000Y-99550835D03*
X135058909Y-97491091D03*
%TO.N,GND*%
X146430000Y-103700000D03*
%TO.N,Net-(U1-CSG1)*%
X143650000Y-102500000D03*
X134250000Y-97460000D03*
%TO.N,GND*%
X121700000Y-156000000D03*
X122750000Y-154750000D03*
X118800000Y-134200000D03*
D19*
%TO.N,/Power/VIN_M*%
X162170000Y-103740000D03*
X163720000Y-103740000D03*
X165270000Y-103730000D03*
X166820000Y-103730000D03*
X168370000Y-103730000D03*
X169920000Y-103730000D03*
X165227631Y-96550000D03*
X162086051Y-96550000D03*
X163656841Y-96550000D03*
X163660841Y-97920000D03*
X162096051Y-97920000D03*
X160660000Y-99320000D03*
X162140000Y-99280000D03*
X160670000Y-100810000D03*
X160690000Y-102300000D03*
D17*
%TO.N,GND*%
X151860000Y-97710000D03*
D18*
%TO.N,/Data/SCL*%
X155094000Y-92162183D03*
%TO.N,/Data/SDA*%
X155094000Y-92940000D03*
D17*
%TO.N,/3V3*%
X153730000Y-97700000D03*
D18*
%TO.N,GND*%
X118800000Y-145400000D03*
X120500000Y-145390000D03*
X118800000Y-118420000D03*
X120400000Y-118410000D03*
X123000000Y-106670000D03*
X124100000Y-107900000D03*
X133250000Y-102700000D03*
X133250000Y-104350000D03*
X144550000Y-98950000D03*
X142721041Y-98046399D03*
X124600000Y-156600000D03*
X124600000Y-158500000D03*
X119210000Y-153600000D03*
X120500000Y-152400000D03*
X118820000Y-124940000D03*
X120420000Y-124950000D03*
X118910000Y-110820000D03*
X120440000Y-111560000D03*
X126700000Y-102900000D03*
X127600000Y-104400000D03*
X138300000Y-104350000D03*
X138200000Y-102600000D03*
X140200000Y-100600000D03*
X141450000Y-101750000D03*
%TO.N,/stack7/GND1*%
X198993333Y-166800000D03*
X199990000Y-166780000D03*
X200986666Y-166780000D03*
X201983333Y-166780000D03*
X202980000Y-166780000D03*
X203976666Y-166780000D03*
X204973333Y-166780000D03*
%TO.N,/stack6/GND1*%
X177300000Y-182100000D03*
X178316667Y-182090000D03*
X179333333Y-182090000D03*
X180350000Y-182090000D03*
X181366667Y-182090000D03*
X182383333Y-182090000D03*
X183400000Y-182090000D03*
%TO.N,/stack5/GND2*%
X177323333Y-154760000D03*
X178451666Y-154760000D03*
X179580000Y-154760000D03*
X180708333Y-154760000D03*
X181836667Y-154760000D03*
X182965000Y-154760000D03*
D17*
%TO.N,GND*%
X163420000Y-122337500D03*
D19*
X200270000Y-145960000D03*
D17*
X162300000Y-119982500D03*
X198600000Y-120052500D03*
D19*
X205920000Y-147360000D03*
D17*
X163870000Y-128107500D03*
D18*
X230640000Y-97240000D03*
D17*
X163420000Y-118805000D03*
D18*
X132913949Y-93291049D03*
X135050000Y-92220000D03*
D17*
X173630000Y-114205000D03*
D18*
X221400807Y-96170000D03*
D17*
X163870000Y-126930000D03*
D19*
X201690000Y-144550000D03*
D17*
X154150000Y-88260000D03*
X176510000Y-114095000D03*
X164560000Y-115462500D03*
D19*
X201680000Y-147380000D03*
D17*
X168460000Y-123650000D03*
D18*
X215570807Y-93370000D03*
D19*
X194095000Y-144555000D03*
D17*
X157951600Y-89788400D03*
X169650000Y-126930000D03*
D18*
X222820807Y-96170000D03*
D17*
X162300000Y-121160000D03*
D18*
X132910000Y-94430000D03*
D17*
X167460000Y-115422500D03*
D18*
X140726200Y-96300000D03*
D19*
X204510000Y-147380000D03*
D18*
X164900000Y-118620000D03*
X198140000Y-164650000D03*
D17*
X168460000Y-121295000D03*
X162300000Y-123515000D03*
D18*
X132910000Y-92220000D03*
X122405000Y-179190000D03*
X235550000Y-147550000D03*
D17*
X157711600Y-99268400D03*
X192220000Y-123585000D03*
X229823700Y-94620000D03*
D18*
X135053949Y-93291049D03*
D17*
X131225000Y-100725000D03*
D19*
X195605000Y-147365000D03*
D17*
X192220000Y-120052500D03*
X163420000Y-123515000D03*
D18*
X214680807Y-94405000D03*
X143490000Y-89770000D03*
D17*
X172950000Y-129285000D03*
D18*
X234220000Y-172300000D03*
D17*
X192220000Y-122407500D03*
X163420000Y-119982500D03*
X193420000Y-120112500D03*
D18*
X226640000Y-91325000D03*
D17*
X132980000Y-101440000D03*
D19*
X205920000Y-145970000D03*
X203100000Y-147350000D03*
D18*
X223670807Y-104100000D03*
X220915382Y-99500000D03*
D17*
X123450000Y-92130000D03*
X164560000Y-114285000D03*
D18*
X226450807Y-103480000D03*
D19*
X203110000Y-144520000D03*
D17*
X123010000Y-95810000D03*
X172950000Y-126930000D03*
X198600000Y-118875000D03*
D18*
X222120807Y-96997500D03*
X231941360Y-155816335D03*
D19*
X198725000Y-144525000D03*
X200280000Y-144520000D03*
D18*
X225100807Y-106260000D03*
D19*
X194085000Y-145995000D03*
D18*
X221390807Y-97840000D03*
D17*
X192220000Y-118875000D03*
D19*
X204520000Y-144550000D03*
D17*
X162300000Y-122337500D03*
D18*
X134010000Y-92210000D03*
D17*
X193420000Y-122467500D03*
D19*
X192545000Y-144545000D03*
D18*
X219020807Y-105560000D03*
D17*
X169650000Y-129285000D03*
D18*
X135050000Y-94430000D03*
D17*
X173630000Y-116560000D03*
X169650000Y-128107500D03*
X198600000Y-121230000D03*
D18*
X134013949Y-93281049D03*
X218870000Y-89770000D03*
X234518700Y-82280000D03*
D17*
X168460000Y-122472500D03*
X168460000Y-118940000D03*
D19*
X201680000Y-145990000D03*
D17*
X192220000Y-121230000D03*
D18*
X222810807Y-97840000D03*
D17*
X193420000Y-123645000D03*
D19*
X200270000Y-147350000D03*
D18*
X228890000Y-99050000D03*
D17*
X176510000Y-116450000D03*
X167460000Y-114245000D03*
D19*
X204510000Y-145990000D03*
X205930000Y-144530000D03*
D17*
X197020000Y-115480000D03*
X163870000Y-129285000D03*
D18*
X227780000Y-92400000D03*
D17*
X197020000Y-114302500D03*
D19*
X198715000Y-145965000D03*
X192535000Y-147375000D03*
D17*
X168460000Y-120117500D03*
D18*
X234564000Y-179264000D03*
D17*
X147980000Y-92930000D03*
X198330000Y-116580000D03*
X176510000Y-115272500D03*
X193420000Y-121290000D03*
D18*
X121060000Y-171340000D03*
D19*
X197195000Y-147365000D03*
D18*
X225100807Y-103530000D03*
X150680000Y-97660000D03*
X134010000Y-94420000D03*
D19*
X192535000Y-145985000D03*
D18*
X234600000Y-155500000D03*
D19*
X197205000Y-144535000D03*
X194085000Y-147385000D03*
D18*
X196220000Y-117990000D03*
D17*
X198600000Y-123585000D03*
D19*
X197195000Y-145975000D03*
D17*
X198600000Y-122407500D03*
D19*
X203100000Y-145960000D03*
D18*
X209030000Y-164830000D03*
D17*
X164560000Y-116640000D03*
D19*
X195615000Y-144535000D03*
D17*
X163420000Y-121160000D03*
D19*
X237938700Y-91180000D03*
D17*
X139580000Y-84210000D03*
D18*
X139540000Y-98625000D03*
X214870000Y-97560000D03*
D19*
X198715000Y-147355000D03*
D17*
X162300000Y-118805000D03*
D19*
X239343700Y-91185000D03*
D17*
X131400000Y-84190000D03*
X172950000Y-128107500D03*
X193420000Y-118935000D03*
D18*
X215700000Y-89470000D03*
D17*
X167460000Y-116600000D03*
D19*
X195605000Y-145975000D03*
D17*
X173630000Y-115382500D03*
D19*
%TO.N,/Power/VIN_M*%
X168388000Y-99280000D03*
X202420000Y-103560000D03*
X208220000Y-102260000D03*
X199450000Y-99690000D03*
X169930000Y-102290000D03*
X202410000Y-100960000D03*
X205350000Y-103530000D03*
X205340000Y-100930000D03*
X169950000Y-99280000D03*
X202420000Y-104930000D03*
X198050000Y-100950000D03*
D18*
X161060000Y-95990000D03*
D19*
X165274000Y-102290000D03*
X200950000Y-102280000D03*
X206810000Y-103570000D03*
X169910000Y-100800000D03*
X206770000Y-99700000D03*
X199490000Y-102260000D03*
X166826000Y-102290000D03*
X166808000Y-105130000D03*
X162170000Y-102300000D03*
X198020000Y-99680000D03*
X162150000Y-100800000D03*
X203820000Y-100950000D03*
X165264000Y-99280000D03*
X198060000Y-103550000D03*
X168355210Y-97920000D03*
X199490000Y-103560000D03*
D18*
X127968951Y-93950000D03*
D19*
X200940000Y-100980000D03*
X203790000Y-99680000D03*
X169920000Y-97920000D03*
X169940000Y-96550000D03*
X165225631Y-97920000D03*
X205310000Y-99660000D03*
X168354000Y-105130000D03*
X163763949Y-106473949D03*
X166826000Y-99280000D03*
X162170000Y-105103949D03*
X208220000Y-103560000D03*
X165262000Y-105130000D03*
X168378000Y-102290000D03*
X206810000Y-102270000D03*
X208180000Y-98320000D03*
X199450000Y-98320000D03*
X208210000Y-100960000D03*
X208180000Y-99690000D03*
D18*
X159480000Y-95990000D03*
D19*
X203830000Y-102250000D03*
X199490000Y-104930000D03*
X206800000Y-100970000D03*
X198060000Y-102250000D03*
X166798420Y-96550000D03*
X166790420Y-97920000D03*
X205310000Y-98290000D03*
X168358000Y-100800000D03*
X206770000Y-98330000D03*
X200950000Y-104950000D03*
X163722000Y-102300000D03*
X163716000Y-105103949D03*
X166806000Y-100800000D03*
X200910000Y-98340000D03*
X202380000Y-98320000D03*
X199480000Y-100960000D03*
X169900000Y-105130000D03*
X200910000Y-99710000D03*
X203790000Y-98310000D03*
X163702000Y-99280000D03*
X200950000Y-103580000D03*
D18*
X160270000Y-95990000D03*
D19*
X168369210Y-96550000D03*
X203830000Y-103550000D03*
X160750000Y-103750000D03*
X205350000Y-102230000D03*
X198020000Y-98310000D03*
X163702000Y-100800000D03*
X202380000Y-99690000D03*
X165254000Y-100800000D03*
X198060000Y-104920000D03*
X202420000Y-102260000D03*
D18*
%TO.N,Net-(D1-A)*%
X137370000Y-90530000D03*
X131960000Y-96750000D03*
%TO.N,Net-(U1-COMP1)*%
X138240000Y-91660000D03*
X138280000Y-93630000D03*
%TO.N,Net-(D2-A)*%
X136880000Y-88310000D03*
X130400000Y-87860000D03*
X132320000Y-88248792D03*
D19*
%TO.N,/3V6*%
X131235000Y-141275000D03*
X215293700Y-135720000D03*
X132825000Y-139905000D03*
X132825000Y-141275000D03*
D18*
X138720000Y-155620000D03*
D19*
X138720000Y-145450000D03*
X218340000Y-138730000D03*
D17*
X176690000Y-135180000D03*
D19*
X128165000Y-142645000D03*
X134335000Y-145455000D03*
X212260000Y-135710000D03*
X128165000Y-141285000D03*
D18*
X137785000Y-154810000D03*
D17*
X176690000Y-133605000D03*
D19*
X135900000Y-139890000D03*
X140140000Y-141290000D03*
X168800000Y-133310000D03*
X213800000Y-142140000D03*
X215293700Y-137310000D03*
X210776300Y-138880000D03*
X132815000Y-145465000D03*
X216846558Y-134030000D03*
X215293700Y-134200000D03*
X128195000Y-138505000D03*
X212256300Y-140500000D03*
X209320000Y-134190000D03*
X164535000Y-133310000D03*
X140140000Y-142650000D03*
X216846558Y-137170000D03*
D17*
X176690000Y-132015000D03*
D19*
X167410000Y-133310000D03*
X140170000Y-138510000D03*
D18*
X136830000Y-155620000D03*
D19*
X213813700Y-134200000D03*
X218330000Y-141980000D03*
X213813700Y-131010000D03*
X137310000Y-142650000D03*
X164535000Y-134900000D03*
X213813700Y-135720000D03*
X141540000Y-145460000D03*
X215290000Y-138890000D03*
X216846558Y-135450000D03*
X134345000Y-139895000D03*
X137340000Y-138510000D03*
D18*
X139675000Y-154810000D03*
D19*
X134345000Y-141265000D03*
D18*
X140620000Y-154810000D03*
D19*
X135890000Y-146840000D03*
X210780000Y-135710000D03*
X134345000Y-142625000D03*
X209320000Y-131000000D03*
X131225000Y-145465000D03*
X165925000Y-133310000D03*
X138720000Y-146840000D03*
X216842858Y-138750000D03*
X218340000Y-140350000D03*
X140130000Y-145480000D03*
X216832858Y-142000000D03*
X137300000Y-145480000D03*
X138730000Y-141260000D03*
X212260000Y-131000000D03*
X213813700Y-137310000D03*
X128155000Y-146865000D03*
X210780000Y-132590000D03*
X213810000Y-138890000D03*
X134375000Y-138485000D03*
X131235000Y-142635000D03*
D18*
X134940000Y-155630000D03*
D19*
X131265000Y-138495000D03*
X135930000Y-138480000D03*
X141540000Y-146850000D03*
X167410000Y-136500000D03*
D18*
X137775000Y-155620000D03*
D19*
X218343700Y-137150000D03*
X135900000Y-142620000D03*
X132825000Y-142635000D03*
X209320000Y-135710000D03*
X140140000Y-139920000D03*
X140130000Y-146870000D03*
D18*
X135895000Y-154810000D03*
X135885000Y-155620000D03*
D19*
X216842858Y-140370000D03*
X215293700Y-132600000D03*
X164535000Y-136500000D03*
X215290000Y-140510000D03*
D18*
X138730000Y-154810000D03*
D19*
X216846558Y-132440000D03*
D18*
X136840000Y-154810000D03*
D19*
X132815000Y-146855000D03*
X137310000Y-139920000D03*
X141550000Y-142630000D03*
X128165000Y-144035000D03*
X210780000Y-134190000D03*
X141550000Y-144020000D03*
X141550000Y-141270000D03*
X137310000Y-144040000D03*
X129715000Y-144045000D03*
X135890000Y-145450000D03*
X131225000Y-146855000D03*
X209320000Y-137300000D03*
X168800000Y-134900000D03*
X129705000Y-146875000D03*
X218286558Y-130900000D03*
X210780000Y-137300000D03*
X138730000Y-142620000D03*
X167410000Y-134900000D03*
X134345000Y-144015000D03*
X138760000Y-138480000D03*
X128155000Y-145475000D03*
X129745000Y-138515000D03*
X216846558Y-130920000D03*
X137310000Y-141290000D03*
X134335000Y-146845000D03*
X138730000Y-139890000D03*
X218343700Y-135430000D03*
X140140000Y-144040000D03*
X209320000Y-132590000D03*
X129715000Y-142655000D03*
D18*
X142400000Y-153030000D03*
D19*
X212260000Y-137300000D03*
X141580000Y-138490000D03*
X218286558Y-132420000D03*
X212260000Y-134190000D03*
X215280000Y-142140000D03*
X129705000Y-145485000D03*
X132855000Y-138495000D03*
X212260000Y-132590000D03*
X165925000Y-136500000D03*
X210780000Y-131000000D03*
X135900000Y-144010000D03*
X215293700Y-131010000D03*
D18*
X134950000Y-154810000D03*
X140610000Y-155620000D03*
D19*
X213813700Y-132600000D03*
X129715000Y-141295000D03*
X165925000Y-134900000D03*
D18*
X139665000Y-155620000D03*
D19*
X168800000Y-136500000D03*
X213810000Y-140510000D03*
X131235000Y-144025000D03*
X218286558Y-134010000D03*
X137300000Y-146870000D03*
X138730000Y-144010000D03*
X131235000Y-139905000D03*
X132825000Y-144025000D03*
X212256300Y-138880000D03*
X135900000Y-141260000D03*
X128165000Y-139915000D03*
X141550000Y-139900000D03*
X129715000Y-139925000D03*
D18*
%TO.N,/Power/VIN*%
X162100000Y-92080000D03*
X159500000Y-89280000D03*
X163730000Y-91170000D03*
X162920000Y-92070000D03*
X161280000Y-92070000D03*
X160383333Y-89290000D03*
X162910000Y-91160000D03*
X161270000Y-91160000D03*
X162090000Y-91170000D03*
X163740000Y-92080000D03*
X162130000Y-90210000D03*
X160363333Y-90200000D03*
X162150000Y-89300000D03*
X159480000Y-90190000D03*
X161246667Y-90220000D03*
X161266667Y-89310000D03*
%TO.N,Net-(Q1-G)*%
X144102469Y-96254200D03*
X157040000Y-109910000D03*
%TO.N,Net-(Q2-G)*%
X159800000Y-117390000D03*
X148570000Y-100290000D03*
%TO.N,Net-(Q3-G)*%
X146210000Y-93290000D03*
X211140000Y-103930000D03*
%TO.N,Net-(Q4-G)*%
X207858700Y-117450000D03*
X144600000Y-93950000D03*
%TO.N,/3V3*%
X213100000Y-100560000D03*
X227650807Y-103350000D03*
X223640807Y-103330000D03*
X222560807Y-91580000D03*
D17*
X147980000Y-89450000D03*
D19*
X233898700Y-94980000D03*
D18*
X218030807Y-90795000D03*
X224920807Y-92475000D03*
X232200000Y-171100000D03*
D17*
X156461600Y-99268400D03*
D18*
X226790807Y-94405000D03*
D19*
X233898700Y-93380000D03*
D18*
X226880807Y-98005000D03*
X120100000Y-169750000D03*
D17*
X150928949Y-87930000D03*
D18*
X212200000Y-89510000D03*
X217350807Y-94390000D03*
X217020807Y-97560000D03*
%TO.N,/Data/1V1*%
X221910807Y-94615000D03*
X222270807Y-99385000D03*
X223850807Y-94615000D03*
%TO.N,/stack4/GND0*%
X137243333Y-168470000D03*
X139076667Y-169270000D03*
X139090000Y-168470000D03*
X138153333Y-169270000D03*
X140013333Y-168470000D03*
X136306667Y-169270000D03*
X133360000Y-157380000D03*
X136320000Y-168470000D03*
X138166666Y-168470000D03*
X135383333Y-169270000D03*
X134460000Y-169270000D03*
X134473333Y-168470000D03*
X143630000Y-157610000D03*
X135396666Y-168470000D03*
X140000000Y-169270000D03*
X137230000Y-169270000D03*
%TO.N,/stack4/GND1*%
X134300000Y-182980000D03*
X135340000Y-182980000D03*
X139513333Y-182170000D03*
X140540000Y-182980000D03*
X135353333Y-182170000D03*
X137433333Y-182170000D03*
X139500000Y-182980000D03*
X138473333Y-182170000D03*
X136380000Y-182980000D03*
X137420000Y-182980000D03*
X136393333Y-182170000D03*
X140553333Y-182170000D03*
X132890000Y-171260000D03*
X143440000Y-171040000D03*
X134313333Y-182170000D03*
X138460000Y-182980000D03*
%TO.N,/stack4/GND2*%
X156720000Y-194960000D03*
X159545000Y-194960000D03*
X157655000Y-194100000D03*
X160486667Y-194960000D03*
X164338000Y-196342000D03*
X158603333Y-194960000D03*
X160480000Y-194100000D03*
X161428333Y-194960000D03*
X159538333Y-194100000D03*
X158596666Y-194100000D03*
X162370000Y-194950000D03*
X143620000Y-183930000D03*
X133380000Y-184540000D03*
X156713333Y-194100000D03*
X161421666Y-194100000D03*
X162363333Y-194090000D03*
X157661667Y-194960000D03*
%TO.N,/stack4/1V2-0*%
X133120000Y-165470000D03*
D17*
%TO.N,/Power/SW1*%
X152550000Y-105080000D03*
X153620000Y-109825000D03*
X148967500Y-113450000D03*
X148962500Y-112380000D03*
X153680000Y-112120000D03*
X151337500Y-112380000D03*
X153680000Y-110932500D03*
X150150000Y-112380000D03*
X152525000Y-112380000D03*
X153620000Y-108637500D03*
X153620000Y-105075000D03*
X152550000Y-109830000D03*
X153680000Y-114495000D03*
X150155000Y-113450000D03*
X153680000Y-113307500D03*
D18*
X131940000Y-98140000D03*
D17*
X152550000Y-106267500D03*
X147775000Y-112380000D03*
X153620000Y-106262500D03*
X151342500Y-113450000D03*
X154750000Y-114490000D03*
D18*
X140913909Y-98486091D03*
D17*
X152550000Y-107455000D03*
X152550000Y-108642500D03*
D18*
X135730121Y-98950900D03*
D17*
X153620000Y-107450000D03*
X154750000Y-110927500D03*
X154750000Y-112115000D03*
X154750000Y-113302500D03*
X147780000Y-113450000D03*
X152530000Y-113450000D03*
%TO.N,/Power/SW2*%
X209000000Y-112090000D03*
X212870000Y-109800000D03*
D18*
X201698700Y-113100000D03*
D17*
X211650000Y-107435000D03*
X214222500Y-113470000D03*
X209000000Y-110902500D03*
X215410000Y-113470000D03*
X215405000Y-112400000D03*
X213035000Y-113470000D03*
X213030000Y-112400000D03*
X214217500Y-112400000D03*
X209000000Y-113277500D03*
X212870000Y-105050000D03*
X212870000Y-108612500D03*
X209000000Y-114465000D03*
D18*
X130930000Y-89160000D03*
D17*
X212870000Y-106237500D03*
X211650000Y-109810000D03*
X211650000Y-106247500D03*
X211650000Y-108622500D03*
X211847500Y-113470000D03*
X212870000Y-107425000D03*
X210660000Y-113470000D03*
X210655000Y-112400000D03*
X211842500Y-112400000D03*
%TO.N,/Power/LOOP1*%
X154260000Y-122252500D03*
X159120000Y-123460000D03*
X159120000Y-122282500D03*
X154260000Y-119897500D03*
X160050000Y-123450000D03*
X160050000Y-119917500D03*
X160050000Y-118740000D03*
X160050000Y-121095000D03*
X154260000Y-121075000D03*
X154260000Y-118720000D03*
X159120000Y-121105000D03*
D18*
X155150000Y-117110000D03*
D17*
X154260000Y-123430000D03*
X159120000Y-119927500D03*
X159120000Y-118750000D03*
X160050000Y-122272500D03*
%TO.N,/Power/LOOP2*%
X202770000Y-119962500D03*
D18*
X203028700Y-115973132D03*
D17*
X207810000Y-123360000D03*
X207810000Y-122217500D03*
X201710000Y-119952500D03*
X207810000Y-119932500D03*
X207810000Y-121075000D03*
X201710000Y-118810000D03*
X202770000Y-118820000D03*
X201710000Y-121095000D03*
X202770000Y-123390000D03*
X202770000Y-121105000D03*
X207810000Y-118790000D03*
X201710000Y-123380000D03*
X201710000Y-122237500D03*
X202770000Y-122247500D03*
D18*
%TO.N,/stack4/1V2-1*%
X132950000Y-179160000D03*
%TO.N,/stack4/1V2-2*%
X132790000Y-193870000D03*
%TO.N,/stack4/0V8-0*%
X132130000Y-165420000D03*
X128970000Y-160830000D03*
%TO.N,/stack4/0V8-1*%
X132850000Y-176370000D03*
X131580000Y-178390000D03*
%TO.N,/stack4/0V8-2*%
X128740000Y-187750000D03*
X131820000Y-193740000D03*
%TO.N,/stack5/GND0*%
X160835000Y-181180000D03*
X161810000Y-181180000D03*
X149930000Y-187660000D03*
X157923333Y-180320000D03*
X155070000Y-192060000D03*
X160848333Y-180320000D03*
X159860000Y-181180000D03*
X158885000Y-181180000D03*
X156948333Y-180320000D03*
X159873333Y-180320000D03*
X155973333Y-180330000D03*
X161823333Y-180320000D03*
X157910000Y-181180000D03*
X156935000Y-181180000D03*
X165540000Y-192030000D03*
X158898333Y-180320000D03*
X155960000Y-181190000D03*
%TO.N,/stack5/GND1*%
X155973333Y-166760000D03*
X160798333Y-166750000D03*
X157890000Y-167610000D03*
X161750000Y-167610000D03*
X159820000Y-167610000D03*
X158868333Y-166750000D03*
X159833333Y-166750000D03*
X158855000Y-167610000D03*
X161763333Y-166750000D03*
X155960000Y-167620000D03*
X156938333Y-166750000D03*
X160785000Y-167610000D03*
X164930000Y-178410000D03*
X156925000Y-167610000D03*
X157903333Y-166750000D03*
X154800000Y-178410000D03*
%TO.N,/stack5/GND2*%
X179483333Y-155620000D03*
X177310000Y-155620000D03*
X183830000Y-155620000D03*
X178396667Y-155620000D03*
X185674000Y-152908000D03*
X165002500Y-165607500D03*
X182743333Y-155620000D03*
X181656667Y-155620000D03*
X154770000Y-165410000D03*
X180570000Y-155620000D03*
X147722500Y-155955000D03*
X146362500Y-161820000D03*
%TO.N,/stack5/1V2-0*%
X152930000Y-186570000D03*
X154225000Y-184125000D03*
%TO.N,/stack5/1V2-1*%
X154880000Y-173920000D03*
%TO.N,/stack5/1V2-2*%
X150840000Y-157720000D03*
X154630000Y-156180000D03*
%TO.N,/stack5/0V8-0*%
X153800000Y-186900000D03*
%TO.N,/stack5/0V8-1*%
X165150000Y-171610000D03*
%TO.N,/stack5/0V8-2*%
X150691091Y-159021091D03*
X153560000Y-156200000D03*
%TO.N,/stack6/GND0*%
X181680000Y-169310000D03*
X182750000Y-169310000D03*
X178470000Y-168470000D03*
X180610000Y-168470000D03*
X179540000Y-169310000D03*
X181680000Y-168470000D03*
X180610000Y-169310000D03*
X186900000Y-156720000D03*
X178470000Y-169310000D03*
X183820000Y-168470000D03*
X177400000Y-169310000D03*
X182750000Y-168470000D03*
X179540000Y-168470000D03*
X183820000Y-169310000D03*
X177400000Y-168470000D03*
X176000000Y-157680000D03*
%TO.N,/stack6/GND1*%
X182373333Y-183030000D03*
X179323333Y-183030000D03*
X186710000Y-171070000D03*
X176020000Y-171340000D03*
X181356667Y-183030000D03*
X180340000Y-183030000D03*
X183390000Y-183030000D03*
X178306667Y-183030000D03*
X177290000Y-183040000D03*
%TO.N,/stack6/GND2*%
X204406666Y-194190000D03*
X203340000Y-194190000D03*
X186860000Y-184900000D03*
X207518000Y-197104000D03*
X199020000Y-195110000D03*
X203286667Y-195100000D03*
X202220000Y-195100000D03*
X205420000Y-195100000D03*
X205473333Y-194190000D03*
X176280000Y-184700000D03*
X200086667Y-195100000D03*
X202273333Y-194190000D03*
X201153333Y-195100000D03*
X199073333Y-194200000D03*
X201206666Y-194190000D03*
X204353333Y-195100000D03*
X200140000Y-194190000D03*
%TO.N,/stack6/1V2-0*%
X186660000Y-164720000D03*
%TO.N,/stack6/1V2-1*%
X176300000Y-178050000D03*
%TO.N,/stack6/1V2-2*%
X171480000Y-189320000D03*
X175650000Y-194370000D03*
%TO.N,/stack6/0V8-0*%
X175810000Y-163790000D03*
%TO.N,/stack6/0V8-1*%
X192528749Y-172053749D03*
X188425000Y-177750000D03*
%TO.N,/stack6/0V8-2*%
X174600000Y-194360000D03*
%TO.N,/stack7/GND0*%
X198900000Y-181340000D03*
X200930000Y-181320000D03*
X197820000Y-192140000D03*
X204990000Y-181320000D03*
X203975000Y-181320000D03*
X202960000Y-181320000D03*
X200953333Y-180440000D03*
X201945000Y-181320000D03*
X199915000Y-181320000D03*
X201968333Y-180440000D03*
X198923333Y-180460000D03*
X211600000Y-190930000D03*
X205013333Y-180440000D03*
X199938333Y-180440000D03*
X202983333Y-180440000D03*
X203998333Y-180440000D03*
%TO.N,/stack7/GND1*%
X197764455Y-178982768D03*
X204960000Y-167660000D03*
X198980000Y-167680000D03*
X200973333Y-167660000D03*
X199976667Y-167660000D03*
X202966667Y-167660000D03*
X201970000Y-167660000D03*
X208730000Y-178560000D03*
X203963333Y-167660000D03*
%TO.N,/stack7/1V2-0*%
X209080000Y-185050000D03*
X208200000Y-188330000D03*
%TO.N,/stack7/1V2-1*%
X213820000Y-175670000D03*
X210580000Y-172125000D03*
%TO.N,/stack7/1V2-2*%
X230195104Y-149850000D03*
X209520000Y-157460000D03*
X215026522Y-160913133D03*
X235600000Y-155510000D03*
%TO.N,/stack7/0V8-0*%
X209690000Y-185580000D03*
%TO.N,/stack7/0V8-1*%
X209560000Y-172150000D03*
%TO.N,/stack7/0V8-2*%
X210530000Y-157460000D03*
%TO.N,/Data/SWD*%
X223930807Y-99415000D03*
X224518291Y-90756321D03*
%TO.N,/Data/SWCLK*%
X223170807Y-99330000D03*
X221618700Y-89675000D03*
%TO.N,/Data/QSPI_SS*%
X211430807Y-91880000D03*
X217533835Y-93314305D03*
%TO.N,Net-(U46-NRSTO)*%
X143610000Y-171890000D03*
%TO.N,Net-(U46-CO)*%
X143526091Y-175413909D03*
%TO.N,Net-(U46-CLKO)*%
X143550000Y-174320000D03*
%TO.N,Net-(U46-RI)*%
X143549000Y-173531000D03*
%TO.N,Net-(U46-BO)*%
X143550000Y-172710000D03*
%TO.N,Net-(U45-BI)*%
X146620000Y-173760000D03*
%TO.N,Net-(U45-CO)*%
X132570000Y-157450000D03*
%TO.N,Net-(U46-CI)*%
X131620000Y-180330000D03*
%TO.N,Net-(U47-CO)*%
X131520000Y-182590000D03*
%TO.N,Net-(U46-CLKI)*%
X130490000Y-180200000D03*
%TO.N,Net-(U45-CLKO)*%
X131990000Y-157940000D03*
%TO.N,Net-(U47-CLKO)*%
X130540000Y-182580000D03*
%TO.N,Net-(U46-RO)*%
X129480000Y-180200000D03*
%TO.N,Net-(U45-RI)*%
X131920000Y-159470000D03*
X124639999Y-161557817D03*
%TO.N,Net-(U47-RI)*%
X129480000Y-182500000D03*
%TO.N,Net-(U46-BI)*%
X128490000Y-180200000D03*
%TO.N,Net-(U45-BO)*%
X131960000Y-160450000D03*
%TO.N,Net-(U47-BO)*%
X128530000Y-182610000D03*
%TO.N,Net-(U46-NRSTI)*%
X127630000Y-180180000D03*
%TO.N,Net-(U45-NRSTO)*%
X125520000Y-161250000D03*
%TO.N,Net-(U47-NRSTO)*%
X132770000Y-188170000D03*
X127670000Y-182610000D03*
%TO.N,Net-(U55-NRSTO)*%
X168190000Y-191270000D03*
X167275000Y-177375000D03*
%TO.N,Net-(U55-CO)*%
X168190000Y-187120000D03*
%TO.N,Net-(U55-CLKO)*%
X168190000Y-188140000D03*
%TO.N,Net-(U55-RI)*%
X168190000Y-189210000D03*
%TO.N,Net-(U55-BO)*%
X168190000Y-190200000D03*
%TO.N,Net-(U55-CI)*%
X151680000Y-158810000D03*
%TO.N,Net-(U54-CO)*%
X146462909Y-185587091D03*
%TO.N,Net-(U56-CO)*%
X154350000Y-158820000D03*
%TO.N,Net-(U54-CLKO)*%
X146350000Y-186390000D03*
%TO.N,Net-(U55-CLKI)*%
X151700000Y-159810000D03*
%TO.N,Net-(U56-CLKO)*%
X154853858Y-161636039D03*
%TO.N,Net-(U55-RO)*%
X151700000Y-160840000D03*
%TO.N,Net-(U54-RI)*%
X146310000Y-187330000D03*
X152400000Y-184150000D03*
%TO.N,Net-(U56-RI)*%
X154700000Y-163200000D03*
%TO.N,Net-(U55-BI)*%
X151660000Y-161870000D03*
%TO.N,Net-(U54-BO)*%
X146320000Y-188410000D03*
%TO.N,Net-(U56-BO)*%
X154040000Y-163980000D03*
%TO.N,Net-(U54-NRSTO)*%
X146310000Y-189360000D03*
%TO.N,Net-(U55-NRSTI)*%
X151940000Y-162856000D03*
%TO.N,Net-(U56-NRSTO)*%
X153370000Y-163610000D03*
%TO.N,Net-(U64-NRSTO)*%
X186625000Y-171910000D03*
X189920000Y-161070000D03*
%TO.N,Net-(U64-CO)*%
X190100000Y-157090000D03*
%TO.N,Net-(U64-CLKO)*%
X189890000Y-158110000D03*
%TO.N,Net-(U64-RI)*%
X189890000Y-159060000D03*
%TO.N,Net-(U64-BO)*%
X189890000Y-160050000D03*
%TO.N,Net-(U64-CI)*%
X173713954Y-186860313D03*
%TO.N,Net-(U63-CO)*%
X167780000Y-160730000D03*
%TO.N,Net-(U65-CO)*%
X176400000Y-185470000D03*
%TO.N,Net-(U63-CLKO)*%
X167780000Y-161720000D03*
%TO.N,Net-(U64-CLKI)*%
X173760000Y-187650000D03*
%TO.N,Net-(U65-CLKO)*%
X176430000Y-186240000D03*
%TO.N,Net-(U63-RI)*%
X167800000Y-159450000D03*
X167780000Y-162730000D03*
%TO.N,Net-(U64-RO)*%
X173800000Y-188400000D03*
%TO.N,Net-(U65-RI)*%
X176390000Y-187130000D03*
%TO.N,Net-(U64-BI)*%
X173800000Y-189325000D03*
%TO.N,Net-(U63-BO)*%
X167780000Y-163730000D03*
%TO.N,Net-(U65-BO)*%
X176370000Y-187940000D03*
%TO.N,Net-(U63-NRSTO)*%
X167775000Y-164750000D03*
%TO.N,Net-(U64-NRSTI)*%
X173800000Y-190250000D03*
%TO.N,Net-(U65-NRSTO)*%
X176196545Y-189791783D03*
%TO.N,Net-(U73-NRSTO)*%
X214940000Y-180240000D03*
X211450000Y-175450000D03*
%TO.N,Net-(U73-CO)*%
X210910000Y-180240000D03*
%TO.N,Net-(U73-CLKO)*%
X211920000Y-180240000D03*
%TO.N,Net-(U73-RI)*%
X212930000Y-180240000D03*
%TO.N,Net-(U73-BO)*%
X213920000Y-180230000D03*
%TO.N,Net-(U74-BI)*%
X209910000Y-163500000D03*
%TO.N,Net-(U72-CO)*%
X192260000Y-185660000D03*
%TO.N,Net-(U73-CI)*%
X197991091Y-177971091D03*
%TO.N,Net-(U72-CLKO)*%
X192260000Y-186610000D03*
%TO.N,Net-(U73-CLKI)*%
X197679096Y-177249096D03*
%TO.N,Net-(U72-RI)*%
X192280000Y-187570000D03*
%TO.N,Net-(U73-RO)*%
X197980000Y-176550000D03*
%TO.N,Net-(U73-BI)*%
X197690000Y-175850000D03*
%TO.N,Net-(U72-BO)*%
X192310000Y-188520000D03*
%TO.N,Net-(U73-NRSTI)*%
X197980000Y-175130000D03*
%TO.N,Net-(U72-NRSTO)*%
X192310000Y-189450000D03*
%TO.N,/stack4/RO*%
X143550000Y-186680000D03*
%TO.N,/stack4/CLKI*%
X143550000Y-185800000D03*
%TO.N,/stack4/CI*%
X143530000Y-184980000D03*
%TO.N,Net-(U74-NRSTO)*%
X195250000Y-174630000D03*
X197240686Y-164316752D03*
%TO.N,Net-(U74-BO)*%
X195230000Y-175567500D03*
%TO.N,Net-(U74-RI)*%
X195230000Y-176505000D03*
%TO.N,Net-(U74-CLKO)*%
X195230000Y-177442500D03*
%TO.N,Net-(U74-CO)*%
X195230000Y-178380000D03*
%TO.N,/Data/SCL*%
X230680000Y-104490000D03*
X218120807Y-102210000D03*
X215170000Y-100510000D03*
X151130000Y-94650000D03*
X122490000Y-104830000D03*
%TO.N,/Data/SDA*%
X122620000Y-105600000D03*
X231260000Y-105150000D03*
X212545000Y-98790000D03*
X150320000Y-94670000D03*
X217570807Y-102800000D03*
%TO.N,/Data/QSPI_SD1*%
X219850807Y-94590000D03*
X212269696Y-91863644D03*
%TO.N,/Data/QSPI_SD2*%
X220690807Y-94590000D03*
X213220807Y-91845000D03*
%TO.N,/RST*%
X236460000Y-140710000D03*
X217030807Y-99430000D03*
%TO.N,/RX*%
X235320000Y-141900000D03*
X215780807Y-99840000D03*
%TO.N,Net-(U27-GPIO1)*%
X217200807Y-96016526D03*
%TO.N,/TX*%
X235910000Y-141350000D03*
X215770807Y-99010000D03*
%TO.N,/stack6/1V2-0B*%
X166225000Y-158400000D03*
%TO.N,/stack7/1V2-0B*%
X196725000Y-185325000D03*
%TO.N,/stack6/CI*%
X189800000Y-185630000D03*
%TO.N,/stack6/CLKI*%
X189820000Y-186590000D03*
%TO.N,/stack6/RO*%
X189800000Y-187540000D03*
%TO.N,/stack6/BI*%
X189800000Y-188500000D03*
%TO.N,/stack6/NRSTI*%
X189770000Y-189480000D03*
%TO.N,Net-(U45-NRSTI)*%
X146410000Y-173030000D03*
%TO.N,Net-(U45-RO)*%
X146640000Y-174770000D03*
%TO.N,Net-(U45-CLKI)*%
X146650000Y-175780000D03*
%TO.N,Net-(U45-CI)*%
X146650000Y-176790000D03*
%TO.N,Net-(U54-NRSTI)*%
X165260000Y-191320000D03*
%TO.N,Net-(U54-BI)*%
X165260000Y-190500000D03*
%TO.N,Net-(U54-RO)*%
X165260000Y-189720000D03*
%TO.N,Net-(U54-CLKI)*%
X165260000Y-188950000D03*
%TO.N,Net-(U54-CI)*%
X165260000Y-188190000D03*
%TO.N,/stack4/BI*%
X143550000Y-187730000D03*
%TO.N,/stack4/NRSTI*%
X143570000Y-189020000D03*
%TO.N,Net-(U63-NRSTI)*%
X187370000Y-161170000D03*
%TO.N,/stack5/NRSTI*%
X165190000Y-164710000D03*
%TO.N,Net-(U63-BI)*%
X186880000Y-160260000D03*
%TO.N,/stack5/BI*%
X165190000Y-163710000D03*
%TO.N,Net-(U63-RO)*%
X187400000Y-159300000D03*
%TO.N,/stack5/RO*%
X165190000Y-162700000D03*
%TO.N,Net-(U63-CLKI)*%
X186860000Y-158530000D03*
%TO.N,/stack5/CLKI*%
X165190000Y-161750000D03*
%TO.N,Net-(U63-CI)*%
X187400000Y-157550000D03*
%TO.N,/stack5/CI*%
X165190000Y-160720000D03*
%TO.N,Net-(U72-NRSTI)*%
X214940000Y-183060000D03*
%TO.N,Net-(U72-BI)*%
X213930000Y-183060000D03*
%TO.N,Net-(U72-RO)*%
X212920000Y-183060000D03*
%TO.N,Net-(U72-CLKI)*%
X211930000Y-183040000D03*
%TO.N,Net-(U72-CI)*%
X210910000Y-183040000D03*
%TO.N,/stack7/RST_N*%
X232640000Y-155330000D03*
X232600000Y-159300000D03*
%TO.N,Net-(U74-CLKI)*%
X219680000Y-162210000D03*
%TO.N,/5V*%
X218010000Y-173960000D03*
X218010000Y-160100000D03*
X126570000Y-169880000D03*
X218010000Y-192610000D03*
X126570000Y-188380000D03*
X126570000Y-183670000D03*
X218010000Y-187650000D03*
D19*
X205010000Y-93760000D03*
D18*
X190338749Y-176083749D03*
X126570000Y-175090000D03*
X149830000Y-192140000D03*
X126700000Y-155760000D03*
D19*
X225170000Y-87770000D03*
D18*
X144584719Y-171505281D03*
X147310000Y-192140000D03*
X144680000Y-157700000D03*
X218010000Y-178850000D03*
X126570000Y-161220000D03*
X174860000Y-157460000D03*
X191670000Y-163360000D03*
X170610000Y-174190000D03*
X170690000Y-190600000D03*
X170910000Y-185720000D03*
D19*
X219548700Y-87520000D03*
D18*
X215950000Y-165800000D03*
X148720000Y-153100000D03*
%TO.N,/Data/PWR_EN*%
X127780000Y-87090000D03*
X211000000Y-96900000D03*
%TO.N,Net-(U1-HO1)*%
X141460000Y-95770000D03*
X128980000Y-97510000D03*
%TO.N,Net-(U1-LO1)*%
X147239012Y-98760988D03*
X132763949Y-96740000D03*
%TO.N,Net-(U1-LO2)*%
X138130000Y-88180000D03*
X132990000Y-87096874D03*
%TO.N,Net-(U1-HO2)*%
X130560000Y-91820000D03*
X145782864Y-93968227D03*
%TD*%
D20*
%TO.N,/3V3*%
X233670000Y-160830000D02*
X233670000Y-147400000D01*
X232000000Y-147400000D02*
X233670000Y-147400000D01*
D21*
%TO.N,/5V*%
X215950000Y-165800000D02*
X215950000Y-171900000D01*
X215950000Y-171900000D02*
X218010000Y-173960000D01*
X218010000Y-160100000D02*
X218010000Y-160190000D01*
X218010000Y-160190000D02*
X215950000Y-162250000D01*
X215950000Y-162250000D02*
X215950000Y-165800000D01*
D22*
X205010000Y-93760000D02*
X204360000Y-94410000D01*
X204360000Y-94410000D02*
X194960000Y-94410000D01*
X194960000Y-94410000D02*
X188910000Y-100460000D01*
X188910000Y-100460000D02*
X188910000Y-151380000D01*
X188910000Y-151380000D02*
X188850000Y-151440000D01*
D20*
%TO.N,/3V3*%
X154390000Y-94680000D02*
X154390000Y-97040000D01*
X154390000Y-97040000D02*
X153730000Y-97700000D01*
X156461600Y-99268400D02*
X156500000Y-99230000D01*
X154880000Y-94680000D02*
X154390000Y-94680000D01*
X156500000Y-99230000D02*
X156500000Y-96300000D01*
X156500000Y-96300000D02*
X154880000Y-94680000D01*
D21*
%TO.N,/5V*%
X126700000Y-155760000D02*
X126700000Y-155710000D01*
X126700000Y-155710000D02*
X130970000Y-151440000D01*
X130970000Y-151440000D02*
X150610000Y-151440000D01*
X126570000Y-161220000D02*
X126570000Y-155890000D01*
X126570000Y-155890000D02*
X126700000Y-155760000D01*
X174860000Y-157460000D02*
X174860000Y-155550000D01*
X174860000Y-155550000D02*
X178970000Y-151440000D01*
X178970000Y-151440000D02*
X179660000Y-151440000D01*
D20*
%TO.N,/3V3*%
X229350000Y-105340000D02*
X229350000Y-104880000D01*
X233670000Y-147400000D02*
X233670000Y-145200000D01*
X154390000Y-90400000D02*
X154390000Y-94680000D01*
X232200000Y-162300000D02*
X233670000Y-160830000D01*
X233670000Y-145200000D02*
X233670000Y-109660000D01*
D21*
X186420000Y-94130000D02*
X154940000Y-94130000D01*
X211733786Y-93180000D02*
X209520000Y-93180000D01*
X188660000Y-91890000D02*
X186420000Y-94130000D01*
D20*
X150928949Y-87930000D02*
X150900000Y-87901051D01*
X211743786Y-93190000D02*
X211780000Y-93190000D01*
D21*
X209520000Y-93180000D02*
X208230000Y-91890000D01*
D20*
X149500000Y-87930000D02*
X150928949Y-87930000D01*
D21*
X211743786Y-93190000D02*
X211733786Y-93180000D01*
D20*
X151920000Y-87930000D02*
X154390000Y-90400000D01*
D21*
X208230000Y-91890000D02*
X188660000Y-91890000D01*
X154940000Y-94130000D02*
X154390000Y-94680000D01*
D20*
X151920000Y-87930000D02*
X150928949Y-87930000D01*
X233670000Y-109660000D02*
X229350000Y-105340000D01*
X147980000Y-89450000D02*
X149500000Y-87930000D01*
X232200000Y-171100000D02*
X232200000Y-162300000D01*
%TO.N,/5V*%
X170690000Y-190600000D02*
X171315000Y-191225000D01*
X170910000Y-185720000D02*
X172995104Y-185720000D01*
D21*
X218010000Y-160100000D02*
X218010000Y-154390000D01*
X126570000Y-169880000D02*
X126570000Y-161220000D01*
X218010000Y-173960000D02*
X218010000Y-178850000D01*
X179660000Y-151440000D02*
X188850000Y-151440000D01*
X126570000Y-175090000D02*
X126570000Y-169880000D01*
X174860000Y-174190000D02*
X170610000Y-174190000D01*
X144680000Y-157700000D02*
X144680000Y-171410000D01*
X150380000Y-151440000D02*
X148720000Y-153100000D01*
X174920000Y-184980000D02*
X174920000Y-190580000D01*
X144680000Y-157700000D02*
X144680000Y-157140000D01*
D20*
X172995104Y-185720000D02*
X173735104Y-184980000D01*
D21*
X174860000Y-157460000D02*
X174860000Y-174190000D01*
D20*
X191670000Y-163360000D02*
X191360000Y-163670000D01*
D21*
X146600000Y-192140000D02*
X147310000Y-192140000D01*
X188870000Y-151420000D02*
X188870000Y-163660000D01*
X218010000Y-187650000D02*
X218010000Y-192610000D01*
X144680000Y-190220000D02*
X146600000Y-192140000D01*
X218010000Y-178850000D02*
X218010000Y-187650000D01*
X144680000Y-171410000D02*
X144680000Y-190220000D01*
X150610000Y-151440000D02*
X150380000Y-151440000D01*
X150610000Y-151440000D02*
X179660000Y-151440000D01*
X147310000Y-192140000D02*
X149830000Y-192140000D01*
X126570000Y-175090000D02*
X126570000Y-183670000D01*
D20*
X191360000Y-163670000D02*
X188880000Y-163670000D01*
X174275000Y-191225000D02*
X174920000Y-190580000D01*
X173735104Y-184980000D02*
X174920000Y-184980000D01*
D21*
X174920000Y-174250000D02*
X174920000Y-184980000D01*
X218010000Y-154390000D02*
X215040000Y-151420000D01*
D20*
X171315000Y-191225000D02*
X174275000Y-191225000D01*
D21*
X215040000Y-151420000D02*
X188870000Y-151420000D01*
X174860000Y-174190000D02*
X174920000Y-174250000D01*
X144680000Y-157140000D02*
X148720000Y-153100000D01*
D20*
X188880000Y-163670000D02*
X188870000Y-163660000D01*
D21*
X188870000Y-163660000D02*
X188870000Y-174615000D01*
X188870000Y-174615000D02*
X190338749Y-176083749D01*
X126570000Y-183670000D02*
X126570000Y-188380000D01*
X188850000Y-151440000D02*
X188870000Y-151420000D01*
D20*
%TO.N,/3V3*%
X117920000Y-107680000D02*
X117920000Y-167570000D01*
X136010000Y-99730000D02*
X125870000Y-99730000D01*
X146140000Y-96440000D02*
X144700000Y-95000000D01*
X140740000Y-95000000D02*
X136010000Y-99730000D01*
X117920000Y-167570000D02*
X120100000Y-169750000D01*
X125870000Y-99730000D02*
X117920000Y-107680000D01*
X144700000Y-95000000D02*
X140740000Y-95000000D01*
X152470000Y-96440000D02*
X146140000Y-96440000D01*
X153730000Y-97700000D02*
X152470000Y-96440000D01*
%TD*%
%TA.AperFunction,Conductor*%
%TO.N,/3V3*%
G36*
X239918471Y-78675695D02*
G01*
X239933599Y-78676544D01*
X240170748Y-78689862D01*
X240178672Y-78690565D01*
X240234831Y-78697384D01*
X240240584Y-78698222D01*
X240460507Y-78735588D01*
X240469385Y-78737433D01*
X240518198Y-78749465D01*
X240522840Y-78750705D01*
X240744020Y-78814426D01*
X240753616Y-78817622D01*
X240788580Y-78830882D01*
X240791875Y-78832189D01*
X241017176Y-78925511D01*
X241027321Y-78930262D01*
X241036998Y-78935342D01*
X241039191Y-78936523D01*
X241242462Y-79048866D01*
X241270640Y-79064440D01*
X241282414Y-79071838D01*
X241505141Y-79229871D01*
X241516013Y-79238541D01*
X241719647Y-79420519D01*
X241729480Y-79430352D01*
X241911458Y-79633986D01*
X241920128Y-79644858D01*
X242078161Y-79867585D01*
X242085559Y-79879359D01*
X242213439Y-80110740D01*
X242214693Y-80113068D01*
X242218743Y-80120785D01*
X242219728Y-80122662D01*
X242224490Y-80132830D01*
X242317778Y-80358046D01*
X242319143Y-80361488D01*
X242332366Y-80396353D01*
X242335577Y-80405995D01*
X242399293Y-80627160D01*
X242400536Y-80631811D01*
X242412561Y-80680597D01*
X242414412Y-80689502D01*
X242451771Y-80909381D01*
X242452619Y-80915205D01*
X242459429Y-80971288D01*
X242460138Y-80979282D01*
X242474305Y-81231527D01*
X242474500Y-81238480D01*
X242474500Y-106848227D01*
X242454815Y-106915266D01*
X242402011Y-106961021D01*
X242350827Y-106972227D01*
X225344481Y-107017088D01*
X225277390Y-106997580D01*
X225231496Y-106944897D01*
X225221370Y-106875765D01*
X225250227Y-106812133D01*
X225305829Y-106776191D01*
X225305788Y-106776092D01*
X225306329Y-106775867D01*
X225308905Y-106774203D01*
X225312049Y-106773316D01*
X225313292Y-106772984D01*
X225438822Y-106700509D01*
X225541316Y-106598015D01*
X225613791Y-106472485D01*
X225651307Y-106332475D01*
X225651307Y-106187525D01*
X225613791Y-106047515D01*
X225586650Y-106000506D01*
X225541318Y-105921988D01*
X225541313Y-105921982D01*
X225438824Y-105819493D01*
X225438818Y-105819488D01*
X225313295Y-105747017D01*
X225313296Y-105747017D01*
X225301813Y-105743940D01*
X225173282Y-105709500D01*
X225028332Y-105709500D01*
X224899800Y-105743940D01*
X224888318Y-105747017D01*
X224762795Y-105819488D01*
X224762789Y-105819493D01*
X224660300Y-105921982D01*
X224660295Y-105921988D01*
X224587824Y-106047511D01*
X224587823Y-106047515D01*
X224550307Y-106187525D01*
X224550307Y-106332475D01*
X224582288Y-106451828D01*
X224587824Y-106472488D01*
X224660295Y-106598011D01*
X224660297Y-106598013D01*
X224660298Y-106598015D01*
X224762792Y-106700509D01*
X224762793Y-106700510D01*
X224762795Y-106700511D01*
X224888318Y-106772982D01*
X224888319Y-106772982D01*
X224888322Y-106772984D01*
X224894293Y-106774584D01*
X224953954Y-106810945D01*
X224984486Y-106873791D01*
X224976194Y-106943167D01*
X224931712Y-106997046D01*
X224865160Y-107018324D01*
X224862531Y-107018359D01*
X220170961Y-107030735D01*
X220103870Y-107011227D01*
X220090598Y-107001446D01*
X219224641Y-106269663D01*
X219186142Y-106211357D01*
X219185276Y-106141493D01*
X219222320Y-106082252D01*
X219242673Y-106067567D01*
X219358822Y-106000509D01*
X219461316Y-105898015D01*
X219533791Y-105772485D01*
X219571307Y-105632475D01*
X219571307Y-105487525D01*
X219533791Y-105347515D01*
X219479989Y-105254328D01*
X219461318Y-105221988D01*
X219461313Y-105221982D01*
X219358824Y-105119493D01*
X219358818Y-105119488D01*
X219233295Y-105047017D01*
X219233296Y-105047017D01*
X219208974Y-105040500D01*
X219093282Y-105009500D01*
X218948332Y-105009500D01*
X218832640Y-105040500D01*
X218808318Y-105047017D01*
X218682795Y-105119488D01*
X218682789Y-105119493D01*
X218580300Y-105221982D01*
X218580295Y-105221988D01*
X218507824Y-105347511D01*
X218507822Y-105347516D01*
X218489267Y-105416763D01*
X218452902Y-105476423D01*
X218390055Y-105506951D01*
X218320679Y-105498656D01*
X218289457Y-105479379D01*
X216673861Y-104114109D01*
X216571402Y-104027525D01*
X223120307Y-104027525D01*
X223120307Y-104172475D01*
X223148452Y-104277511D01*
X223157824Y-104312488D01*
X223230295Y-104438011D01*
X223230297Y-104438013D01*
X223230298Y-104438015D01*
X223332792Y-104540509D01*
X223332793Y-104540510D01*
X223332795Y-104540511D01*
X223458318Y-104612982D01*
X223458319Y-104612982D01*
X223458322Y-104612984D01*
X223598332Y-104650500D01*
X223598335Y-104650500D01*
X223743279Y-104650500D01*
X223743282Y-104650500D01*
X223883292Y-104612984D01*
X224008822Y-104540509D01*
X224111316Y-104438015D01*
X224123146Y-104417525D01*
X230129500Y-104417525D01*
X230129500Y-104562475D01*
X230149474Y-104637017D01*
X230167017Y-104702488D01*
X230239488Y-104828011D01*
X230239490Y-104828013D01*
X230239491Y-104828015D01*
X230341985Y-104930509D01*
X230341986Y-104930510D01*
X230341988Y-104930511D01*
X230467511Y-105002982D01*
X230467512Y-105002982D01*
X230467515Y-105002984D01*
X230607525Y-105040500D01*
X230607528Y-105040500D01*
X230615376Y-105042603D01*
X230614613Y-105045449D01*
X230665582Y-105067997D01*
X230704053Y-105126322D01*
X230709500Y-105162670D01*
X230709500Y-105222475D01*
X230743004Y-105347511D01*
X230747017Y-105362488D01*
X230819488Y-105488011D01*
X230819490Y-105488013D01*
X230819491Y-105488015D01*
X230921985Y-105590509D01*
X230921986Y-105590510D01*
X230921988Y-105590511D01*
X231047511Y-105662982D01*
X231047512Y-105662982D01*
X231047515Y-105662984D01*
X231187525Y-105700500D01*
X231187528Y-105700500D01*
X231332472Y-105700500D01*
X231332475Y-105700500D01*
X231472485Y-105662984D01*
X231598015Y-105590509D01*
X231700509Y-105488015D01*
X231772984Y-105362485D01*
X231810500Y-105222475D01*
X231810500Y-105077525D01*
X231772984Y-104937515D01*
X231768940Y-104930511D01*
X231700511Y-104811988D01*
X231700506Y-104811982D01*
X231598017Y-104709493D01*
X231598011Y-104709488D01*
X231472488Y-104637017D01*
X231472489Y-104637017D01*
X231458613Y-104633299D01*
X231332475Y-104599500D01*
X231332473Y-104599500D01*
X231324624Y-104597397D01*
X231325384Y-104594558D01*
X231274376Y-104571966D01*
X231235931Y-104513625D01*
X231230500Y-104477329D01*
X231230500Y-104417527D01*
X231230500Y-104417525D01*
X231192984Y-104277515D01*
X231120509Y-104151985D01*
X231018015Y-104049491D01*
X231018013Y-104049490D01*
X231018011Y-104049488D01*
X230892488Y-103977017D01*
X230892489Y-103977017D01*
X230868201Y-103970509D01*
X230752475Y-103939500D01*
X230607525Y-103939500D01*
X230491799Y-103970509D01*
X230467511Y-103977017D01*
X230341988Y-104049488D01*
X230341982Y-104049493D01*
X230239493Y-104151982D01*
X230239488Y-104151988D01*
X230167017Y-104277511D01*
X230167016Y-104277515D01*
X230129500Y-104417525D01*
X224123146Y-104417525D01*
X224183791Y-104312485D01*
X224221307Y-104172475D01*
X224221307Y-104027525D01*
X224183791Y-103887515D01*
X224172530Y-103868011D01*
X224111318Y-103761988D01*
X224111313Y-103761982D01*
X224008824Y-103659493D01*
X224008818Y-103659488D01*
X223883295Y-103587017D01*
X223883296Y-103587017D01*
X223877453Y-103585451D01*
X223743282Y-103549500D01*
X223598332Y-103549500D01*
X223469800Y-103583940D01*
X223458318Y-103587017D01*
X223332795Y-103659488D01*
X223332789Y-103659493D01*
X223230300Y-103761982D01*
X223230295Y-103761988D01*
X223157824Y-103887511D01*
X223157823Y-103887515D01*
X223120307Y-104027525D01*
X216571402Y-104027525D01*
X215896891Y-103457525D01*
X224550307Y-103457525D01*
X224550307Y-103602475D01*
X224587823Y-103742485D01*
X224587824Y-103742488D01*
X224660295Y-103868011D01*
X224660297Y-103868013D01*
X224660298Y-103868015D01*
X224762792Y-103970509D01*
X224762793Y-103970510D01*
X224762795Y-103970511D01*
X224888318Y-104042982D01*
X224888319Y-104042982D01*
X224888322Y-104042984D01*
X225028332Y-104080500D01*
X225028335Y-104080500D01*
X225173279Y-104080500D01*
X225173282Y-104080500D01*
X225313292Y-104042984D01*
X225438822Y-103970509D01*
X225541316Y-103868015D01*
X225613791Y-103742485D01*
X225651307Y-103602475D01*
X225651307Y-103457525D01*
X225637909Y-103407525D01*
X225900307Y-103407525D01*
X225900307Y-103552475D01*
X225928983Y-103659493D01*
X225937824Y-103692488D01*
X226010295Y-103818011D01*
X226010297Y-103818013D01*
X226010298Y-103818015D01*
X226112792Y-103920509D01*
X226112793Y-103920510D01*
X226112795Y-103920511D01*
X226238318Y-103992982D01*
X226238319Y-103992982D01*
X226238322Y-103992984D01*
X226378332Y-104030500D01*
X226378335Y-104030500D01*
X226523279Y-104030500D01*
X226523282Y-104030500D01*
X226663292Y-103992984D01*
X226788822Y-103920509D01*
X226891316Y-103818015D01*
X226963791Y-103692485D01*
X227001307Y-103552475D01*
X227001307Y-103407525D01*
X226963791Y-103267515D01*
X226948197Y-103240506D01*
X226891318Y-103141988D01*
X226891313Y-103141982D01*
X226788824Y-103039493D01*
X226788818Y-103039488D01*
X226663295Y-102967017D01*
X226663296Y-102967017D01*
X226651813Y-102963940D01*
X226523282Y-102929500D01*
X226378332Y-102929500D01*
X226249800Y-102963940D01*
X226238318Y-102967017D01*
X226112795Y-103039488D01*
X226112789Y-103039493D01*
X226010300Y-103141982D01*
X226010295Y-103141988D01*
X225937824Y-103267511D01*
X225937823Y-103267515D01*
X225900307Y-103407525D01*
X225637909Y-103407525D01*
X225613791Y-103317515D01*
X225584923Y-103267515D01*
X225541318Y-103191988D01*
X225541313Y-103191982D01*
X225438824Y-103089493D01*
X225438818Y-103089488D01*
X225313295Y-103017017D01*
X225313296Y-103017017D01*
X225296382Y-103012485D01*
X225173282Y-102979500D01*
X225028332Y-102979500D01*
X224905232Y-103012485D01*
X224888318Y-103017017D01*
X224762795Y-103089488D01*
X224762789Y-103089493D01*
X224660300Y-103191982D01*
X224660295Y-103191988D01*
X224587824Y-103317511D01*
X224587823Y-103317515D01*
X224550307Y-103457525D01*
X215896891Y-103457525D01*
X215135503Y-102814109D01*
X215033044Y-102727525D01*
X217020307Y-102727525D01*
X217020307Y-102872475D01*
X217045640Y-102967017D01*
X217057824Y-103012488D01*
X217130295Y-103138011D01*
X217130297Y-103138013D01*
X217130298Y-103138015D01*
X217232792Y-103240509D01*
X217232793Y-103240510D01*
X217232795Y-103240511D01*
X217358318Y-103312982D01*
X217358319Y-103312982D01*
X217358322Y-103312984D01*
X217498332Y-103350500D01*
X217498335Y-103350500D01*
X217643279Y-103350500D01*
X217643282Y-103350500D01*
X217783292Y-103312984D01*
X217908822Y-103240509D01*
X218011316Y-103138015D01*
X218083791Y-103012485D01*
X218121307Y-102872475D01*
X218121307Y-102872471D01*
X218122368Y-102864415D01*
X218124319Y-102864672D01*
X218140992Y-102807894D01*
X218193796Y-102762139D01*
X218213201Y-102755162D01*
X218333292Y-102722984D01*
X218458822Y-102650509D01*
X218561316Y-102548015D01*
X218633791Y-102422485D01*
X218671307Y-102282475D01*
X218671307Y-102137525D01*
X218633791Y-101997515D01*
X218561411Y-101872149D01*
X236049500Y-101872149D01*
X236049500Y-102127850D01*
X236069858Y-102282475D01*
X236082874Y-102381340D01*
X236149050Y-102628312D01*
X236149053Y-102628322D01*
X236246894Y-102864531D01*
X236246899Y-102864542D01*
X236374734Y-103085957D01*
X236374745Y-103085973D01*
X236530388Y-103288811D01*
X236530394Y-103288818D01*
X236711181Y-103469605D01*
X236711188Y-103469611D01*
X236819175Y-103552472D01*
X236914035Y-103625261D01*
X236914042Y-103625265D01*
X237135457Y-103753100D01*
X237135462Y-103753102D01*
X237135465Y-103753104D01*
X237371687Y-103850950D01*
X237618660Y-103917126D01*
X237872157Y-103950500D01*
X237872164Y-103950500D01*
X238127836Y-103950500D01*
X238127843Y-103950500D01*
X238381340Y-103917126D01*
X238628313Y-103850950D01*
X238864535Y-103753104D01*
X239085965Y-103625261D01*
X239288813Y-103469610D01*
X239469610Y-103288813D01*
X239625261Y-103085965D01*
X239753104Y-102864535D01*
X239850950Y-102628313D01*
X239917126Y-102381340D01*
X239950500Y-102127843D01*
X239950500Y-101872157D01*
X239917126Y-101618660D01*
X239850950Y-101371687D01*
X239753104Y-101135465D01*
X239753102Y-101135462D01*
X239753100Y-101135457D01*
X239625265Y-100914042D01*
X239625261Y-100914035D01*
X239469610Y-100711187D01*
X239469605Y-100711181D01*
X239288818Y-100530394D01*
X239288811Y-100530388D01*
X239085973Y-100374745D01*
X239085971Y-100374743D01*
X239085965Y-100374739D01*
X239085960Y-100374736D01*
X239085957Y-100374734D01*
X238864542Y-100246899D01*
X238864531Y-100246894D01*
X238628322Y-100149053D01*
X238628315Y-100149051D01*
X238628313Y-100149050D01*
X238381340Y-100082874D01*
X238325007Y-100075457D01*
X238127850Y-100049500D01*
X238127843Y-100049500D01*
X237872157Y-100049500D01*
X237872149Y-100049500D01*
X237646826Y-100079165D01*
X237618660Y-100082874D01*
X237371687Y-100149050D01*
X237371677Y-100149053D01*
X237135468Y-100246894D01*
X237135457Y-100246899D01*
X236914042Y-100374734D01*
X236914026Y-100374745D01*
X236711188Y-100530388D01*
X236711181Y-100530394D01*
X236530394Y-100711181D01*
X236530388Y-100711188D01*
X236374745Y-100914026D01*
X236374734Y-100914042D01*
X236246899Y-101135457D01*
X236246894Y-101135468D01*
X236149053Y-101371677D01*
X236149050Y-101371687D01*
X236082874Y-101618661D01*
X236049500Y-101872149D01*
X218561411Y-101872149D01*
X218561316Y-101871985D01*
X218458822Y-101769491D01*
X218458820Y-101769490D01*
X218458818Y-101769488D01*
X218333295Y-101697017D01*
X218333296Y-101697017D01*
X218321813Y-101693940D01*
X218193282Y-101659500D01*
X218048332Y-101659500D01*
X217919800Y-101693940D01*
X217908318Y-101697017D01*
X217782795Y-101769488D01*
X217782789Y-101769493D01*
X217680300Y-101871982D01*
X217680295Y-101871988D01*
X217607824Y-101997511D01*
X217570306Y-102137528D01*
X217569246Y-102145585D01*
X217567293Y-102145327D01*
X217550622Y-102202105D01*
X217497818Y-102247860D01*
X217478405Y-102254839D01*
X217375280Y-102282472D01*
X217358318Y-102287017D01*
X217232795Y-102359488D01*
X217232789Y-102359493D01*
X217130300Y-102461982D01*
X217130295Y-102461988D01*
X217057824Y-102587511D01*
X217057823Y-102587515D01*
X217020307Y-102727525D01*
X215033044Y-102727525D01*
X213899348Y-101769488D01*
X212323167Y-100437525D01*
X214619500Y-100437525D01*
X214619500Y-100582475D01*
X214653987Y-100711181D01*
X214657017Y-100722488D01*
X214729488Y-100848011D01*
X214729490Y-100848013D01*
X214729491Y-100848015D01*
X214831985Y-100950509D01*
X214831986Y-100950510D01*
X214831988Y-100950511D01*
X214957511Y-101022982D01*
X214957512Y-101022982D01*
X214957515Y-101022984D01*
X215097525Y-101060500D01*
X215097528Y-101060500D01*
X215242472Y-101060500D01*
X215242475Y-101060500D01*
X215382485Y-101022984D01*
X215508015Y-100950509D01*
X215610509Y-100848015D01*
X215682984Y-100722485D01*
X215720500Y-100582475D01*
X215720500Y-100514500D01*
X215740185Y-100447461D01*
X215792989Y-100401706D01*
X215844500Y-100390500D01*
X215853279Y-100390500D01*
X215853282Y-100390500D01*
X215993292Y-100352984D01*
X216118822Y-100280509D01*
X216221316Y-100178015D01*
X216293791Y-100052485D01*
X216331307Y-99912475D01*
X216331307Y-99782204D01*
X216350992Y-99715165D01*
X216403796Y-99669410D01*
X216472954Y-99659466D01*
X216536510Y-99688491D01*
X216562694Y-99720204D01*
X216590295Y-99768011D01*
X216590297Y-99768013D01*
X216590298Y-99768015D01*
X216692792Y-99870509D01*
X216692793Y-99870510D01*
X216692795Y-99870511D01*
X216818318Y-99942982D01*
X216818319Y-99942982D01*
X216818322Y-99942984D01*
X216958332Y-99980500D01*
X216958335Y-99980500D01*
X217103279Y-99980500D01*
X217103282Y-99980500D01*
X217243292Y-99942984D01*
X217368822Y-99870509D01*
X217471316Y-99768015D01*
X217543791Y-99642485D01*
X217581307Y-99502475D01*
X217581307Y-99427525D01*
X220364882Y-99427525D01*
X220364882Y-99572475D01*
X220390856Y-99669410D01*
X220402399Y-99712488D01*
X220474870Y-99838011D01*
X220474872Y-99838013D01*
X220474873Y-99838015D01*
X220577367Y-99940509D01*
X220577368Y-99940510D01*
X220577370Y-99940511D01*
X220702893Y-100012982D01*
X220702894Y-100012982D01*
X220702897Y-100012984D01*
X220842907Y-100050500D01*
X220842910Y-100050500D01*
X220987854Y-100050500D01*
X220987857Y-100050500D01*
X221127867Y-100012984D01*
X221253397Y-99940509D01*
X221355891Y-99838015D01*
X221428366Y-99712485D01*
X221465882Y-99572475D01*
X221465882Y-99427525D01*
X221435067Y-99312525D01*
X221720307Y-99312525D01*
X221720307Y-99457475D01*
X221751121Y-99572472D01*
X221757824Y-99597488D01*
X221830295Y-99723011D01*
X221830297Y-99723013D01*
X221830298Y-99723015D01*
X221932792Y-99825509D01*
X221932793Y-99825510D01*
X221932795Y-99825511D01*
X222058318Y-99897982D01*
X222058319Y-99897982D01*
X222058322Y-99897984D01*
X222198332Y-99935500D01*
X222198335Y-99935500D01*
X222343279Y-99935500D01*
X222343282Y-99935500D01*
X222483292Y-99897984D01*
X222608822Y-99825509D01*
X222660626Y-99773705D01*
X222721949Y-99740220D01*
X222791641Y-99745204D01*
X222825345Y-99766865D01*
X222826346Y-99765562D01*
X222832795Y-99770511D01*
X222958318Y-99842982D01*
X222958319Y-99842982D01*
X222958322Y-99842984D01*
X223098332Y-99880500D01*
X223098335Y-99880500D01*
X223243279Y-99880500D01*
X223243282Y-99880500D01*
X223383292Y-99842984D01*
X223425767Y-99818460D01*
X223493666Y-99801987D01*
X223559693Y-99824838D01*
X223575449Y-99838166D01*
X223592792Y-99855509D01*
X223592793Y-99855510D01*
X223592795Y-99855511D01*
X223718318Y-99927982D01*
X223718319Y-99927982D01*
X223718322Y-99927984D01*
X223858332Y-99965500D01*
X223858335Y-99965500D01*
X224003279Y-99965500D01*
X224003282Y-99965500D01*
X224143292Y-99927984D01*
X224268822Y-99855509D01*
X224371316Y-99753015D01*
X224443791Y-99627485D01*
X224481307Y-99487475D01*
X224481307Y-99342525D01*
X224443791Y-99202515D01*
X224426470Y-99172515D01*
X224371318Y-99076988D01*
X224371313Y-99076982D01*
X224271856Y-98977525D01*
X228339500Y-98977525D01*
X228339500Y-99122475D01*
X228377016Y-99262485D01*
X228377017Y-99262488D01*
X228449488Y-99388011D01*
X228449490Y-99388013D01*
X228449491Y-99388015D01*
X228551985Y-99490509D01*
X228551986Y-99490510D01*
X228551988Y-99490511D01*
X228677511Y-99562982D01*
X228677512Y-99562982D01*
X228677515Y-99562984D01*
X228817525Y-99600500D01*
X228817528Y-99600500D01*
X228962472Y-99600500D01*
X228962475Y-99600500D01*
X229102485Y-99562984D01*
X229228015Y-99490509D01*
X229330509Y-99388015D01*
X229402984Y-99262485D01*
X229440500Y-99122475D01*
X229440500Y-98977525D01*
X229402984Y-98837515D01*
X229401243Y-98834500D01*
X229330511Y-98711988D01*
X229330506Y-98711982D01*
X229228017Y-98609493D01*
X229228011Y-98609488D01*
X229102488Y-98537017D01*
X229102489Y-98537017D01*
X229091006Y-98533940D01*
X228962475Y-98499500D01*
X228817525Y-98499500D01*
X228688993Y-98533940D01*
X228677511Y-98537017D01*
X228551988Y-98609488D01*
X228551982Y-98609493D01*
X228449493Y-98711982D01*
X228449488Y-98711988D01*
X228377017Y-98837511D01*
X228377016Y-98837515D01*
X228339500Y-98977525D01*
X224271856Y-98977525D01*
X224268824Y-98974493D01*
X224268818Y-98974488D01*
X224143295Y-98902017D01*
X224143296Y-98902017D01*
X224131813Y-98898940D01*
X224003282Y-98864500D01*
X223858332Y-98864500D01*
X223774326Y-98887009D01*
X223718320Y-98902016D01*
X223718317Y-98902018D01*
X223675843Y-98926540D01*
X223607943Y-98943011D01*
X223541916Y-98920158D01*
X223526164Y-98906833D01*
X223508824Y-98889493D01*
X223508818Y-98889488D01*
X223383295Y-98817017D01*
X223383296Y-98817017D01*
X223371813Y-98813940D01*
X223243282Y-98779500D01*
X223098332Y-98779500D01*
X222969800Y-98813940D01*
X222958318Y-98817017D01*
X222832795Y-98889488D01*
X222832792Y-98889491D01*
X222780986Y-98941296D01*
X222719662Y-98974780D01*
X222649970Y-98969794D01*
X222616268Y-98948134D01*
X222615268Y-98949438D01*
X222608818Y-98944488D01*
X222483295Y-98872017D01*
X222483296Y-98872017D01*
X222455242Y-98864500D01*
X222343282Y-98834500D01*
X222198332Y-98834500D01*
X222086372Y-98864500D01*
X222058318Y-98872017D01*
X221932795Y-98944488D01*
X221932789Y-98944493D01*
X221830300Y-99046982D01*
X221830295Y-99046988D01*
X221757824Y-99172511D01*
X221757823Y-99172515D01*
X221720307Y-99312525D01*
X221435067Y-99312525D01*
X221428366Y-99287515D01*
X221395453Y-99230509D01*
X221355893Y-99161988D01*
X221355888Y-99161982D01*
X221253399Y-99059493D01*
X221253393Y-99059488D01*
X221127870Y-98987017D01*
X221127871Y-98987017D01*
X221116388Y-98983940D01*
X220987857Y-98949500D01*
X220842907Y-98949500D01*
X220714375Y-98983940D01*
X220702893Y-98987017D01*
X220577370Y-99059488D01*
X220577364Y-99059493D01*
X220474875Y-99161982D01*
X220474870Y-99161988D01*
X220402399Y-99287511D01*
X220402398Y-99287515D01*
X220364882Y-99427525D01*
X217581307Y-99427525D01*
X217581307Y-99357525D01*
X217543791Y-99217515D01*
X217537527Y-99206666D01*
X217471318Y-99091988D01*
X217471313Y-99091982D01*
X217368824Y-98989493D01*
X217368818Y-98989488D01*
X217243295Y-98917017D01*
X217243296Y-98917017D01*
X217231813Y-98913940D01*
X217103282Y-98879500D01*
X216958332Y-98879500D01*
X216829800Y-98913940D01*
X216818318Y-98917017D01*
X216692795Y-98989488D01*
X216692789Y-98989493D01*
X216590300Y-99091982D01*
X216590296Y-99091988D01*
X216551922Y-99158452D01*
X216501354Y-99206666D01*
X216432747Y-99219888D01*
X216367883Y-99193919D01*
X216327355Y-99137005D01*
X216322650Y-99090602D01*
X216321307Y-99090602D01*
X216321307Y-98937527D01*
X216321307Y-98937525D01*
X216283791Y-98797515D01*
X216234408Y-98711982D01*
X216211318Y-98671988D01*
X216211313Y-98671982D01*
X216108824Y-98569493D01*
X216108818Y-98569488D01*
X215983295Y-98497017D01*
X215983296Y-98497017D01*
X215971813Y-98493940D01*
X215843282Y-98459500D01*
X215698332Y-98459500D01*
X215569800Y-98493940D01*
X215558318Y-98497017D01*
X215432795Y-98569488D01*
X215432789Y-98569493D01*
X215330300Y-98671982D01*
X215330295Y-98671988D01*
X215257824Y-98797511D01*
X215257823Y-98797515D01*
X215220307Y-98937525D01*
X215220307Y-99082475D01*
X215256490Y-99217511D01*
X215257824Y-99222488D01*
X215330295Y-99348011D01*
X215335245Y-99354461D01*
X215332835Y-99356309D01*
X215359396Y-99404951D01*
X215354412Y-99474643D01*
X215343461Y-99494426D01*
X215344362Y-99494946D01*
X215267824Y-99627511D01*
X215267823Y-99627515D01*
X215230307Y-99767525D01*
X215230307Y-99767527D01*
X215230307Y-99835500D01*
X215210622Y-99902539D01*
X215157818Y-99948294D01*
X215106307Y-99959500D01*
X215097525Y-99959500D01*
X214968993Y-99993940D01*
X214957511Y-99997017D01*
X214831988Y-100069488D01*
X214831982Y-100069493D01*
X214729493Y-100171982D01*
X214729488Y-100171988D01*
X214657017Y-100297511D01*
X214657016Y-100297515D01*
X214619500Y-100437525D01*
X212323167Y-100437525D01*
X211360138Y-99623711D01*
X211321640Y-99565406D01*
X211316175Y-99529208D01*
X211314861Y-98717525D01*
X211994500Y-98717525D01*
X211994500Y-98862475D01*
X212028534Y-98989491D01*
X212032017Y-99002488D01*
X212104488Y-99128011D01*
X212104490Y-99128013D01*
X212104491Y-99128015D01*
X212206985Y-99230509D01*
X212206986Y-99230510D01*
X212206988Y-99230511D01*
X212332511Y-99302982D01*
X212332512Y-99302982D01*
X212332515Y-99302984D01*
X212472525Y-99340500D01*
X212472528Y-99340500D01*
X212617472Y-99340500D01*
X212617475Y-99340500D01*
X212757485Y-99302984D01*
X212883015Y-99230509D01*
X212985509Y-99128015D01*
X213057984Y-99002485D01*
X213095500Y-98862475D01*
X213095500Y-98717525D01*
X213057984Y-98577515D01*
X213053352Y-98569493D01*
X212985511Y-98451988D01*
X212985506Y-98451982D01*
X212883017Y-98349493D01*
X212883011Y-98349488D01*
X212757488Y-98277017D01*
X212757489Y-98277017D01*
X212746006Y-98273940D01*
X212617475Y-98239500D01*
X212472525Y-98239500D01*
X212343993Y-98273940D01*
X212332511Y-98277017D01*
X212206988Y-98349488D01*
X212206982Y-98349493D01*
X212104493Y-98451982D01*
X212104488Y-98451988D01*
X212032017Y-98577511D01*
X212032016Y-98577515D01*
X211994500Y-98717525D01*
X211314861Y-98717525D01*
X211312869Y-97487525D01*
X214319500Y-97487525D01*
X214319500Y-97632475D01*
X214357016Y-97772485D01*
X214357017Y-97772488D01*
X214429488Y-97898011D01*
X214429490Y-97898013D01*
X214429491Y-97898015D01*
X214531985Y-98000509D01*
X214531986Y-98000510D01*
X214531988Y-98000511D01*
X214657511Y-98072982D01*
X214657512Y-98072982D01*
X214657515Y-98072984D01*
X214797525Y-98110500D01*
X214797528Y-98110500D01*
X214942472Y-98110500D01*
X214942475Y-98110500D01*
X215082485Y-98072984D01*
X215208015Y-98000509D01*
X215310509Y-97898015D01*
X215382984Y-97772485D01*
X215384313Y-97767525D01*
X220840307Y-97767525D01*
X220840307Y-97912475D01*
X220877823Y-98052485D01*
X220877824Y-98052488D01*
X220950295Y-98178011D01*
X220950297Y-98178013D01*
X220950298Y-98178015D01*
X221052792Y-98280509D01*
X221052793Y-98280510D01*
X221052795Y-98280511D01*
X221178318Y-98352982D01*
X221178319Y-98352982D01*
X221178322Y-98352984D01*
X221318332Y-98390500D01*
X221318335Y-98390500D01*
X221463279Y-98390500D01*
X221463282Y-98390500D01*
X221603292Y-98352984D01*
X221728822Y-98280509D01*
X221831316Y-98178015D01*
X221903791Y-98052485D01*
X221941307Y-97912475D01*
X221941307Y-97767525D01*
X221924310Y-97704092D01*
X221924905Y-97679098D01*
X221921347Y-97654353D01*
X221925722Y-97644772D01*
X221925973Y-97634244D01*
X221939985Y-97613539D01*
X221950372Y-97590797D01*
X221959231Y-97585103D01*
X221965135Y-97576381D01*
X221988118Y-97566539D01*
X222009150Y-97553023D01*
X222025005Y-97550743D01*
X222029364Y-97548877D01*
X222044085Y-97548000D01*
X222157529Y-97548000D01*
X222224568Y-97567685D01*
X222270323Y-97620489D01*
X222280267Y-97689647D01*
X222277305Y-97704085D01*
X222260307Y-97767525D01*
X222260307Y-97912475D01*
X222297823Y-98052485D01*
X222297824Y-98052488D01*
X222370295Y-98178011D01*
X222370297Y-98178013D01*
X222370298Y-98178015D01*
X222472792Y-98280509D01*
X222472793Y-98280510D01*
X222472795Y-98280511D01*
X222598318Y-98352982D01*
X222598319Y-98352982D01*
X222598322Y-98352984D01*
X222738332Y-98390500D01*
X222738335Y-98390500D01*
X222883279Y-98390500D01*
X222883282Y-98390500D01*
X223023292Y-98352984D01*
X223148822Y-98280509D01*
X223251316Y-98178015D01*
X223323791Y-98052485D01*
X223361307Y-97912475D01*
X223361307Y-97767525D01*
X223323791Y-97627515D01*
X223299304Y-97585103D01*
X223251318Y-97501988D01*
X223251313Y-97501982D01*
X223148824Y-97399493D01*
X223148818Y-97399488D01*
X223023295Y-97327017D01*
X223023296Y-97327017D01*
X223011813Y-97323940D01*
X222883282Y-97289500D01*
X222774085Y-97289500D01*
X222750096Y-97282456D01*
X222725273Y-97279488D01*
X222717151Y-97272782D01*
X222707046Y-97269815D01*
X222690674Y-97250921D01*
X222671395Y-97235003D01*
X222668187Y-97224970D01*
X222661291Y-97217011D01*
X222657732Y-97192265D01*
X222650120Y-97168451D01*
X222650231Y-97167525D01*
X230089500Y-97167525D01*
X230089500Y-97312475D01*
X230112817Y-97399493D01*
X230127017Y-97452488D01*
X230199488Y-97578011D01*
X230199490Y-97578013D01*
X230199491Y-97578015D01*
X230301985Y-97680509D01*
X230301986Y-97680510D01*
X230301988Y-97680511D01*
X230427511Y-97752982D01*
X230427512Y-97752982D01*
X230427515Y-97752984D01*
X230567525Y-97790500D01*
X230567528Y-97790500D01*
X230712472Y-97790500D01*
X230712475Y-97790500D01*
X230852485Y-97752984D01*
X230978015Y-97680509D01*
X231080509Y-97578015D01*
X231152984Y-97452485D01*
X231190500Y-97312475D01*
X231190500Y-97167525D01*
X231152984Y-97027515D01*
X231093812Y-96925027D01*
X231080511Y-96901988D01*
X231080506Y-96901982D01*
X230978017Y-96799493D01*
X230978011Y-96799488D01*
X230852488Y-96727017D01*
X230852489Y-96727017D01*
X230828167Y-96720500D01*
X230712475Y-96689500D01*
X230567525Y-96689500D01*
X230451833Y-96720500D01*
X230427511Y-96727017D01*
X230301988Y-96799488D01*
X230301982Y-96799493D01*
X230199493Y-96901982D01*
X230199488Y-96901988D01*
X230127017Y-97027511D01*
X230127016Y-97027515D01*
X230089500Y-97167525D01*
X222650231Y-97167525D01*
X222652021Y-97152545D01*
X222651347Y-97147853D01*
X222654310Y-97133407D01*
X222671307Y-97069975D01*
X222671307Y-96925025D01*
X222658329Y-96876591D01*
X222659992Y-96806744D01*
X222699154Y-96748882D01*
X222763382Y-96721377D01*
X222778104Y-96720500D01*
X222893279Y-96720500D01*
X222893282Y-96720500D01*
X223033292Y-96682984D01*
X223158822Y-96610509D01*
X223261316Y-96508015D01*
X223333791Y-96382485D01*
X223371307Y-96242475D01*
X223371307Y-96097525D01*
X223333791Y-95957515D01*
X223261316Y-95831985D01*
X223158822Y-95729491D01*
X223158820Y-95729490D01*
X223158818Y-95729488D01*
X223033295Y-95657017D01*
X223033296Y-95657017D01*
X223021813Y-95653940D01*
X222893282Y-95619500D01*
X222748332Y-95619500D01*
X222619800Y-95653940D01*
X222608318Y-95657017D01*
X222482795Y-95729488D01*
X222482789Y-95729493D01*
X222380300Y-95831982D01*
X222380295Y-95831988D01*
X222307824Y-95957511D01*
X222307823Y-95957515D01*
X222270307Y-96097525D01*
X222270307Y-96242475D01*
X222283284Y-96290908D01*
X222282689Y-96315901D01*
X222286248Y-96340647D01*
X222281872Y-96350227D01*
X222281622Y-96360756D01*
X222267609Y-96381459D01*
X222257223Y-96404203D01*
X222248362Y-96409897D01*
X222242460Y-96418618D01*
X222219479Y-96428459D01*
X222198445Y-96441977D01*
X222182590Y-96444256D01*
X222178232Y-96446123D01*
X222163510Y-96447000D01*
X222058104Y-96447000D01*
X221991065Y-96427315D01*
X221945310Y-96374511D01*
X221935366Y-96305353D01*
X221938326Y-96290918D01*
X221951307Y-96242475D01*
X221951307Y-96097525D01*
X221913791Y-95957515D01*
X221841316Y-95831985D01*
X221738822Y-95729491D01*
X221738820Y-95729490D01*
X221738818Y-95729488D01*
X221613295Y-95657017D01*
X221613296Y-95657017D01*
X221601813Y-95653940D01*
X221473282Y-95619500D01*
X221328332Y-95619500D01*
X221199800Y-95653940D01*
X221188318Y-95657017D01*
X221062795Y-95729488D01*
X221062789Y-95729493D01*
X220960300Y-95831982D01*
X220960295Y-95831988D01*
X220887824Y-95957511D01*
X220887823Y-95957515D01*
X220850307Y-96097525D01*
X220850307Y-96242475D01*
X220887533Y-96381401D01*
X220887824Y-96382488D01*
X220960295Y-96508011D01*
X220960297Y-96508013D01*
X220960298Y-96508015D01*
X221062792Y-96610509D01*
X221062793Y-96610510D01*
X221062795Y-96610511D01*
X221188318Y-96682982D01*
X221188319Y-96682982D01*
X221188322Y-96682984D01*
X221328332Y-96720500D01*
X221328335Y-96720500D01*
X221463510Y-96720500D01*
X221530549Y-96740185D01*
X221576304Y-96792989D01*
X221586248Y-96862147D01*
X221583287Y-96876581D01*
X221570307Y-96925025D01*
X221570307Y-97069975D01*
X221587303Y-97133407D01*
X221585641Y-97203256D01*
X221546479Y-97261119D01*
X221482250Y-97288623D01*
X221467529Y-97289500D01*
X221463282Y-97289500D01*
X221318332Y-97289500D01*
X221189800Y-97323940D01*
X221178318Y-97327017D01*
X221052795Y-97399488D01*
X221052789Y-97399493D01*
X220950300Y-97501982D01*
X220950295Y-97501988D01*
X220877824Y-97627511D01*
X220877823Y-97627515D01*
X220840307Y-97767525D01*
X215384313Y-97767525D01*
X215420500Y-97632475D01*
X215420500Y-97487525D01*
X215382984Y-97347515D01*
X215371149Y-97327017D01*
X215310511Y-97221988D01*
X215310506Y-97221982D01*
X215208017Y-97119493D01*
X215208011Y-97119488D01*
X215082488Y-97047017D01*
X215082489Y-97047017D01*
X215071006Y-97043940D01*
X214942475Y-97009500D01*
X214797525Y-97009500D01*
X214668993Y-97043940D01*
X214657511Y-97047017D01*
X214531988Y-97119488D01*
X214531982Y-97119493D01*
X214429493Y-97221982D01*
X214429488Y-97221988D01*
X214357017Y-97347511D01*
X214357016Y-97347515D01*
X214319500Y-97487525D01*
X211312869Y-97487525D01*
X211312755Y-97417328D01*
X211332330Y-97350262D01*
X211349073Y-97329451D01*
X211389901Y-97288623D01*
X211440509Y-97238015D01*
X211512984Y-97112485D01*
X211550500Y-96972475D01*
X211550500Y-96827525D01*
X211512984Y-96687515D01*
X211476054Y-96623551D01*
X211440511Y-96561988D01*
X211440510Y-96561987D01*
X211440509Y-96561985D01*
X211347394Y-96468870D01*
X211313910Y-96407546D01*
X211311077Y-96381401D01*
X211310369Y-95944051D01*
X216650307Y-95944051D01*
X216650307Y-96089001D01*
X216652592Y-96097527D01*
X216687824Y-96229014D01*
X216760295Y-96354537D01*
X216760297Y-96354539D01*
X216760298Y-96354541D01*
X216862792Y-96457035D01*
X216862793Y-96457036D01*
X216862795Y-96457037D01*
X216988318Y-96529508D01*
X216988319Y-96529508D01*
X216988322Y-96529510D01*
X217128332Y-96567026D01*
X217128335Y-96567026D01*
X217273279Y-96567026D01*
X217273282Y-96567026D01*
X217413292Y-96529510D01*
X217538822Y-96457035D01*
X217641316Y-96354541D01*
X217713791Y-96229011D01*
X217751307Y-96089001D01*
X217751307Y-95944051D01*
X217713791Y-95804041D01*
X217670749Y-95729491D01*
X217641318Y-95678514D01*
X217641313Y-95678508D01*
X217538824Y-95576019D01*
X217538818Y-95576014D01*
X217413295Y-95503543D01*
X217413296Y-95503543D01*
X217401813Y-95500466D01*
X217273282Y-95466026D01*
X217128332Y-95466026D01*
X216999800Y-95500466D01*
X216988318Y-95503543D01*
X216862795Y-95576014D01*
X216862789Y-95576019D01*
X216760300Y-95678508D01*
X216760295Y-95678514D01*
X216687824Y-95804037D01*
X216687823Y-95804041D01*
X216650307Y-95944051D01*
X211310369Y-95944051D01*
X211307758Y-94332525D01*
X214130307Y-94332525D01*
X214130307Y-94477475D01*
X214167823Y-94617485D01*
X214167824Y-94617488D01*
X214240295Y-94743011D01*
X214240297Y-94743013D01*
X214240298Y-94743015D01*
X214342792Y-94845509D01*
X214342793Y-94845510D01*
X214342795Y-94845511D01*
X214468318Y-94917982D01*
X214468319Y-94917982D01*
X214468322Y-94917984D01*
X214608332Y-94955500D01*
X214608335Y-94955500D01*
X214753279Y-94955500D01*
X214753282Y-94955500D01*
X214893292Y-94917984D01*
X215018822Y-94845509D01*
X215121316Y-94743015D01*
X215193791Y-94617485D01*
X215220576Y-94517525D01*
X219300307Y-94517525D01*
X219300307Y-94662475D01*
X219329523Y-94771509D01*
X219337824Y-94802488D01*
X219410295Y-94928011D01*
X219410297Y-94928013D01*
X219410298Y-94928015D01*
X219512792Y-95030509D01*
X219512793Y-95030510D01*
X219512795Y-95030511D01*
X219638318Y-95102982D01*
X219638319Y-95102982D01*
X219638322Y-95102984D01*
X219778332Y-95140500D01*
X219778335Y-95140500D01*
X219923279Y-95140500D01*
X219923282Y-95140500D01*
X220063292Y-95102984D01*
X220188822Y-95030509D01*
X220188826Y-95030504D01*
X220195268Y-95025562D01*
X220197438Y-95028389D01*
X220244449Y-95002720D01*
X220314141Y-95007704D01*
X220344886Y-95027463D01*
X220346346Y-95025562D01*
X220352795Y-95030511D01*
X220478318Y-95102982D01*
X220478319Y-95102982D01*
X220478322Y-95102984D01*
X220618332Y-95140500D01*
X220618335Y-95140500D01*
X220763279Y-95140500D01*
X220763282Y-95140500D01*
X220903292Y-95102984D01*
X221028822Y-95030509D01*
X221131316Y-94928015D01*
X221186203Y-94832947D01*
X221236770Y-94784732D01*
X221305377Y-94771509D01*
X221370242Y-94797477D01*
X221400977Y-94832948D01*
X221470298Y-94953015D01*
X221572792Y-95055509D01*
X221572793Y-95055510D01*
X221572795Y-95055511D01*
X221698318Y-95127982D01*
X221698319Y-95127982D01*
X221698322Y-95127984D01*
X221838332Y-95165500D01*
X221838335Y-95165500D01*
X221983279Y-95165500D01*
X221983282Y-95165500D01*
X222123292Y-95127984D01*
X222248822Y-95055509D01*
X222351316Y-94953015D01*
X222423791Y-94827485D01*
X222461307Y-94687475D01*
X222461307Y-94542525D01*
X223300307Y-94542525D01*
X223300307Y-94687475D01*
X223336977Y-94824328D01*
X223337824Y-94827488D01*
X223410295Y-94953011D01*
X223410297Y-94953013D01*
X223410298Y-94953015D01*
X223512792Y-95055509D01*
X223512793Y-95055510D01*
X223512795Y-95055511D01*
X223638318Y-95127982D01*
X223638319Y-95127982D01*
X223638322Y-95127984D01*
X223778332Y-95165500D01*
X223778335Y-95165500D01*
X223923279Y-95165500D01*
X223923282Y-95165500D01*
X224063292Y-95127984D01*
X224188822Y-95055509D01*
X224291316Y-94953015D01*
X224363791Y-94827485D01*
X224400900Y-94688995D01*
X229123199Y-94688995D01*
X229150118Y-94824322D01*
X229150121Y-94824332D01*
X229202921Y-94951804D01*
X229202928Y-94951817D01*
X229279585Y-95066541D01*
X229279588Y-95066545D01*
X229377154Y-95164111D01*
X229377158Y-95164114D01*
X229491882Y-95240771D01*
X229491895Y-95240778D01*
X229619367Y-95293578D01*
X229619372Y-95293580D01*
X229619376Y-95293580D01*
X229619377Y-95293581D01*
X229754704Y-95320500D01*
X229754707Y-95320500D01*
X229892695Y-95320500D01*
X229983741Y-95302389D01*
X230028028Y-95293580D01*
X230155511Y-95240775D01*
X230270242Y-95164114D01*
X230367814Y-95066542D01*
X230444475Y-94951811D01*
X230497280Y-94824328D01*
X230524200Y-94688993D01*
X230524200Y-94551007D01*
X230524200Y-94551004D01*
X230497281Y-94415677D01*
X230497280Y-94415676D01*
X230497280Y-94415672D01*
X230479212Y-94372051D01*
X230444478Y-94288195D01*
X230444471Y-94288182D01*
X230367814Y-94173458D01*
X230367811Y-94173454D01*
X230270245Y-94075888D01*
X230270241Y-94075885D01*
X230155517Y-93999228D01*
X230155504Y-93999221D01*
X230028032Y-93946421D01*
X230028022Y-93946418D01*
X229892695Y-93919500D01*
X229892693Y-93919500D01*
X229754707Y-93919500D01*
X229754705Y-93919500D01*
X229619377Y-93946418D01*
X229619367Y-93946421D01*
X229491895Y-93999221D01*
X229491882Y-93999228D01*
X229377158Y-94075885D01*
X229377154Y-94075888D01*
X229279588Y-94173454D01*
X229279585Y-94173458D01*
X229202928Y-94288182D01*
X229202921Y-94288195D01*
X229150121Y-94415667D01*
X229150118Y-94415677D01*
X229123200Y-94551004D01*
X229123200Y-94551007D01*
X229123200Y-94688993D01*
X229123200Y-94688995D01*
X229123199Y-94688995D01*
X224400900Y-94688995D01*
X224401307Y-94687475D01*
X224401307Y-94542525D01*
X224363791Y-94402515D01*
X224349357Y-94377515D01*
X224291318Y-94276988D01*
X224291313Y-94276982D01*
X224188824Y-94174493D01*
X224188818Y-94174488D01*
X224063295Y-94102017D01*
X224063296Y-94102017D01*
X224051813Y-94098940D01*
X223923282Y-94064500D01*
X223778332Y-94064500D01*
X223649800Y-94098940D01*
X223638318Y-94102017D01*
X223512795Y-94174488D01*
X223512789Y-94174493D01*
X223410300Y-94276982D01*
X223410295Y-94276988D01*
X223337824Y-94402511D01*
X223337823Y-94402515D01*
X223300307Y-94542525D01*
X222461307Y-94542525D01*
X222423791Y-94402515D01*
X222409357Y-94377515D01*
X222351318Y-94276988D01*
X222351313Y-94276982D01*
X222248824Y-94174493D01*
X222248818Y-94174488D01*
X222123295Y-94102017D01*
X222123296Y-94102017D01*
X222111813Y-94098940D01*
X221983282Y-94064500D01*
X221838332Y-94064500D01*
X221709800Y-94098940D01*
X221698318Y-94102017D01*
X221572795Y-94174488D01*
X221572789Y-94174493D01*
X221470300Y-94276982D01*
X221470293Y-94276991D01*
X221415409Y-94372052D01*
X221364842Y-94420267D01*
X221296235Y-94433489D01*
X221231370Y-94407521D01*
X221200636Y-94372051D01*
X221177817Y-94332527D01*
X221131316Y-94251985D01*
X221028822Y-94149491D01*
X221028820Y-94149490D01*
X221028818Y-94149488D01*
X220903295Y-94077017D01*
X220903296Y-94077017D01*
X220865856Y-94066985D01*
X220763282Y-94039500D01*
X220618332Y-94039500D01*
X220515758Y-94066985D01*
X220478318Y-94077017D01*
X220352795Y-94149488D01*
X220346346Y-94154438D01*
X220344175Y-94151610D01*
X220297165Y-94177280D01*
X220227473Y-94172296D01*
X220196727Y-94152536D01*
X220195268Y-94154438D01*
X220188818Y-94149488D01*
X220063295Y-94077017D01*
X220063296Y-94077017D01*
X220025856Y-94066985D01*
X219923282Y-94039500D01*
X219778332Y-94039500D01*
X219675758Y-94066985D01*
X219638318Y-94077017D01*
X219512795Y-94149488D01*
X219512789Y-94149493D01*
X219410300Y-94251982D01*
X219410295Y-94251988D01*
X219337824Y-94377511D01*
X219337823Y-94377515D01*
X219300307Y-94517525D01*
X215220576Y-94517525D01*
X215231307Y-94477475D01*
X215231307Y-94332525D01*
X215193791Y-94192515D01*
X215182788Y-94173458D01*
X215121318Y-94066988D01*
X215121313Y-94066982D01*
X215018824Y-93964493D01*
X215018818Y-93964488D01*
X214893295Y-93892017D01*
X214893296Y-93892017D01*
X214881813Y-93888940D01*
X214753282Y-93854500D01*
X214608332Y-93854500D01*
X214479800Y-93888940D01*
X214468318Y-93892017D01*
X214342795Y-93964488D01*
X214342789Y-93964493D01*
X214240300Y-94066982D01*
X214240295Y-94066988D01*
X214167824Y-94192511D01*
X214167823Y-94192515D01*
X214130307Y-94332525D01*
X211307758Y-94332525D01*
X211306081Y-93297525D01*
X215020307Y-93297525D01*
X215020307Y-93442475D01*
X215057823Y-93582485D01*
X215057824Y-93582488D01*
X215130295Y-93708011D01*
X215130297Y-93708013D01*
X215130298Y-93708015D01*
X215232792Y-93810509D01*
X215232793Y-93810510D01*
X215232795Y-93810511D01*
X215358318Y-93882982D01*
X215358319Y-93882982D01*
X215358322Y-93882984D01*
X215498332Y-93920500D01*
X215498335Y-93920500D01*
X215643279Y-93920500D01*
X215643282Y-93920500D01*
X215783292Y-93882984D01*
X215908822Y-93810509D01*
X216011316Y-93708015D01*
X216083791Y-93582485D01*
X216121307Y-93442475D01*
X216121307Y-93297525D01*
X216106383Y-93241830D01*
X216983335Y-93241830D01*
X216983335Y-93386780D01*
X216998258Y-93442472D01*
X217020852Y-93526793D01*
X217093323Y-93652316D01*
X217093325Y-93652318D01*
X217093326Y-93652320D01*
X217195820Y-93754814D01*
X217195821Y-93754815D01*
X217195823Y-93754816D01*
X217321346Y-93827287D01*
X217321347Y-93827287D01*
X217321350Y-93827289D01*
X217461360Y-93864805D01*
X217461363Y-93864805D01*
X217606307Y-93864805D01*
X217606310Y-93864805D01*
X217746320Y-93827289D01*
X217871850Y-93754814D01*
X217974344Y-93652320D01*
X218046819Y-93526790D01*
X218084335Y-93386780D01*
X218084335Y-93241830D01*
X218046819Y-93101820D01*
X218006501Y-93031988D01*
X217974346Y-92976293D01*
X217974341Y-92976287D01*
X217871852Y-92873798D01*
X217871846Y-92873793D01*
X217746323Y-92801322D01*
X217746324Y-92801322D01*
X217734841Y-92798245D01*
X217606310Y-92763805D01*
X217461360Y-92763805D01*
X217332828Y-92798245D01*
X217321346Y-92801322D01*
X217195823Y-92873793D01*
X217195817Y-92873798D01*
X217093328Y-92976287D01*
X217093323Y-92976293D01*
X217020852Y-93101816D01*
X217020851Y-93101820D01*
X216983335Y-93241830D01*
X216106383Y-93241830D01*
X216083791Y-93157515D01*
X216051635Y-93101820D01*
X216011318Y-93031988D01*
X216011313Y-93031982D01*
X215908824Y-92929493D01*
X215908818Y-92929488D01*
X215783295Y-92857017D01*
X215783296Y-92857017D01*
X215771813Y-92853940D01*
X215643282Y-92819500D01*
X215498332Y-92819500D01*
X215369800Y-92853940D01*
X215358318Y-92857017D01*
X215232795Y-92929488D01*
X215232789Y-92929493D01*
X215130300Y-93031982D01*
X215130295Y-93031988D01*
X215057824Y-93157511D01*
X215057823Y-93157515D01*
X215020307Y-93297525D01*
X211306081Y-93297525D01*
X211304878Y-92554697D01*
X211324454Y-92487630D01*
X211377184Y-92441789D01*
X211428878Y-92430500D01*
X211503279Y-92430500D01*
X211503282Y-92430500D01*
X211643292Y-92392984D01*
X211768822Y-92320509D01*
X211771883Y-92317447D01*
X211775108Y-92315686D01*
X211775273Y-92315560D01*
X211775292Y-92315585D01*
X211833200Y-92283957D01*
X211902892Y-92288933D01*
X211924253Y-92300762D01*
X211924642Y-92300089D01*
X212057207Y-92376626D01*
X212057208Y-92376626D01*
X212057211Y-92376628D01*
X212197221Y-92414144D01*
X212197224Y-92414144D01*
X212342168Y-92414144D01*
X212342171Y-92414144D01*
X212482181Y-92376628D01*
X212607711Y-92304153D01*
X212666895Y-92244968D01*
X212728214Y-92211486D01*
X212797906Y-92216470D01*
X212842254Y-92244971D01*
X212882792Y-92285509D01*
X212882793Y-92285510D01*
X212882795Y-92285511D01*
X213008318Y-92357982D01*
X213008319Y-92357982D01*
X213008322Y-92357984D01*
X213148332Y-92395500D01*
X213148335Y-92395500D01*
X213293279Y-92395500D01*
X213293282Y-92395500D01*
X213433292Y-92357984D01*
X213486048Y-92327525D01*
X227229500Y-92327525D01*
X227229500Y-92472475D01*
X227251532Y-92554697D01*
X227267017Y-92612488D01*
X227339488Y-92738011D01*
X227339490Y-92738013D01*
X227339491Y-92738015D01*
X227441985Y-92840509D01*
X227441986Y-92840510D01*
X227441988Y-92840511D01*
X227567511Y-92912982D01*
X227567512Y-92912982D01*
X227567515Y-92912984D01*
X227707525Y-92950500D01*
X227707528Y-92950500D01*
X227852472Y-92950500D01*
X227852475Y-92950500D01*
X227992485Y-92912984D01*
X228118015Y-92840509D01*
X228220509Y-92738015D01*
X228292984Y-92612485D01*
X228330500Y-92472475D01*
X228330500Y-92327525D01*
X228292984Y-92187515D01*
X228238118Y-92092485D01*
X228220511Y-92061988D01*
X228220506Y-92061982D01*
X228118017Y-91959493D01*
X228118011Y-91959488D01*
X227992488Y-91887017D01*
X227992489Y-91887017D01*
X227981006Y-91883940D01*
X227852475Y-91849500D01*
X227707525Y-91849500D01*
X227578993Y-91883940D01*
X227567511Y-91887017D01*
X227441988Y-91959488D01*
X227441982Y-91959493D01*
X227339493Y-92061982D01*
X227339488Y-92061988D01*
X227267017Y-92187511D01*
X227267016Y-92187515D01*
X227229500Y-92327525D01*
X213486048Y-92327525D01*
X213558822Y-92285509D01*
X213661316Y-92183015D01*
X213733791Y-92057485D01*
X213771307Y-91917475D01*
X213771307Y-91772525D01*
X213733791Y-91632515D01*
X213701744Y-91577009D01*
X213661318Y-91506988D01*
X213661313Y-91506982D01*
X213558824Y-91404493D01*
X213558818Y-91404488D01*
X213433295Y-91332017D01*
X213433296Y-91332017D01*
X213421813Y-91328940D01*
X213293282Y-91294500D01*
X213148332Y-91294500D01*
X213019800Y-91328940D01*
X213008318Y-91332017D01*
X212882795Y-91404488D01*
X212823610Y-91463673D01*
X212762286Y-91497157D01*
X212692595Y-91492172D01*
X212648248Y-91463672D01*
X212607713Y-91423137D01*
X212607707Y-91423132D01*
X212482184Y-91350661D01*
X212482185Y-91350661D01*
X212470702Y-91347584D01*
X212342171Y-91313144D01*
X212197221Y-91313144D01*
X212057211Y-91350660D01*
X211948375Y-91413497D01*
X211931676Y-91423138D01*
X211928606Y-91426209D01*
X211925377Y-91427971D01*
X211925231Y-91428084D01*
X211925213Y-91428061D01*
X211867281Y-91459691D01*
X211797590Y-91454702D01*
X211776248Y-91442883D01*
X211775861Y-91443555D01*
X211643295Y-91367017D01*
X211643296Y-91367017D01*
X211631813Y-91363940D01*
X211503282Y-91329500D01*
X211426693Y-91329500D01*
X211359654Y-91309815D01*
X211313899Y-91257011D01*
X211302693Y-91205704D01*
X211301848Y-90683846D01*
X223967791Y-90683846D01*
X223967791Y-90828796D01*
X224005307Y-90968806D01*
X224005308Y-90968809D01*
X224077779Y-91094332D01*
X224077781Y-91094334D01*
X224077782Y-91094336D01*
X224180276Y-91196830D01*
X224180277Y-91196831D01*
X224180279Y-91196832D01*
X224305802Y-91269303D01*
X224305803Y-91269303D01*
X224305806Y-91269305D01*
X224445816Y-91306821D01*
X224445819Y-91306821D01*
X224590763Y-91306821D01*
X224590766Y-91306821D01*
X224730776Y-91269305D01*
X224759840Y-91252525D01*
X226089500Y-91252525D01*
X226089500Y-91397475D01*
X226120386Y-91512742D01*
X226127017Y-91537488D01*
X226199488Y-91663011D01*
X226199490Y-91663013D01*
X226199491Y-91663015D01*
X226301985Y-91765509D01*
X226301986Y-91765510D01*
X226301988Y-91765511D01*
X226427511Y-91837982D01*
X226427512Y-91837982D01*
X226427515Y-91837984D01*
X226567525Y-91875500D01*
X226567528Y-91875500D01*
X226712472Y-91875500D01*
X226712475Y-91875500D01*
X226852485Y-91837984D01*
X226978015Y-91765509D01*
X227080509Y-91663015D01*
X227152984Y-91537485D01*
X227190500Y-91397475D01*
X227190500Y-91252525D01*
X227152984Y-91112515D01*
X227146424Y-91101153D01*
X237138200Y-91101153D01*
X237138200Y-91258846D01*
X237168961Y-91413489D01*
X237168964Y-91413501D01*
X237229302Y-91559172D01*
X237229309Y-91559185D01*
X237316910Y-91690288D01*
X237316913Y-91690292D01*
X237428407Y-91801786D01*
X237428411Y-91801789D01*
X237559514Y-91889390D01*
X237559527Y-91889397D01*
X237705198Y-91949735D01*
X237705203Y-91949737D01*
X237859853Y-91980499D01*
X237859856Y-91980500D01*
X237859858Y-91980500D01*
X238017544Y-91980500D01*
X238017545Y-91980499D01*
X238172197Y-91949737D01*
X238305808Y-91894394D01*
X238317872Y-91889397D01*
X238317872Y-91889396D01*
X238317879Y-91889394D01*
X238448989Y-91801789D01*
X238485272Y-91765506D01*
X238551019Y-91699760D01*
X238612342Y-91666275D01*
X238682034Y-91671259D01*
X238726381Y-91699760D01*
X238833407Y-91806786D01*
X238833411Y-91806789D01*
X238964514Y-91894390D01*
X238964527Y-91894397D01*
X239098127Y-91949735D01*
X239110203Y-91954737D01*
X239264853Y-91985499D01*
X239264856Y-91985500D01*
X239264858Y-91985500D01*
X239422544Y-91985500D01*
X239422545Y-91985499D01*
X239577197Y-91954737D01*
X239722879Y-91894394D01*
X239853989Y-91806789D01*
X239965489Y-91695289D01*
X240053094Y-91564179D01*
X240113437Y-91418497D01*
X240144200Y-91263842D01*
X240144200Y-91106158D01*
X240144200Y-91106155D01*
X240144199Y-91106153D01*
X240116879Y-90968809D01*
X240113437Y-90951503D01*
X240085679Y-90884488D01*
X240053097Y-90805827D01*
X240053090Y-90805814D01*
X239965489Y-90674711D01*
X239965486Y-90674707D01*
X239853992Y-90563213D01*
X239853988Y-90563210D01*
X239722885Y-90475609D01*
X239722872Y-90475602D01*
X239577201Y-90415264D01*
X239577189Y-90415261D01*
X239422545Y-90384500D01*
X239422542Y-90384500D01*
X239264858Y-90384500D01*
X239264855Y-90384500D01*
X239110210Y-90415261D01*
X239110198Y-90415264D01*
X238964527Y-90475602D01*
X238964514Y-90475609D01*
X238833411Y-90563210D01*
X238833407Y-90563213D01*
X238731381Y-90665240D01*
X238670058Y-90698725D01*
X238600366Y-90693741D01*
X238556019Y-90665240D01*
X238448992Y-90558213D01*
X238448988Y-90558210D01*
X238317885Y-90470609D01*
X238317872Y-90470602D01*
X238172201Y-90410264D01*
X238172189Y-90410261D01*
X238017545Y-90379500D01*
X238017542Y-90379500D01*
X237859858Y-90379500D01*
X237859855Y-90379500D01*
X237705210Y-90410261D01*
X237705198Y-90410264D01*
X237559527Y-90470602D01*
X237559514Y-90470609D01*
X237428411Y-90558210D01*
X237428407Y-90558213D01*
X237316913Y-90669707D01*
X237316910Y-90669711D01*
X237229309Y-90800814D01*
X237229302Y-90800827D01*
X237168964Y-90946498D01*
X237168961Y-90946510D01*
X237138200Y-91101153D01*
X227146424Y-91101153D01*
X227142489Y-91094338D01*
X227080511Y-90986988D01*
X227080506Y-90986982D01*
X226978017Y-90884493D01*
X226978011Y-90884488D01*
X226852488Y-90812017D01*
X226852489Y-90812017D01*
X226841006Y-90808940D01*
X226712475Y-90774500D01*
X226567525Y-90774500D01*
X226438993Y-90808940D01*
X226427511Y-90812017D01*
X226301988Y-90884488D01*
X226301982Y-90884493D01*
X226199493Y-90986982D01*
X226199488Y-90986988D01*
X226127017Y-91112511D01*
X226127016Y-91112515D01*
X226089500Y-91252525D01*
X224759840Y-91252525D01*
X224856306Y-91196830D01*
X224958800Y-91094336D01*
X225031275Y-90968806D01*
X225068791Y-90828796D01*
X225068791Y-90683846D01*
X225031275Y-90543836D01*
X224991882Y-90475606D01*
X224958802Y-90418309D01*
X224958797Y-90418303D01*
X224856308Y-90315814D01*
X224856302Y-90315809D01*
X224730779Y-90243338D01*
X224730780Y-90243338D01*
X224719297Y-90240261D01*
X224590766Y-90205821D01*
X224445816Y-90205821D01*
X224317284Y-90240261D01*
X224305802Y-90243338D01*
X224180279Y-90315809D01*
X224180273Y-90315814D01*
X224077784Y-90418303D01*
X224077779Y-90418309D01*
X224005308Y-90543832D01*
X224005307Y-90543836D01*
X223967791Y-90683846D01*
X211301848Y-90683846D01*
X211299764Y-89397525D01*
X215149500Y-89397525D01*
X215149500Y-89542475D01*
X215187016Y-89682485D01*
X215187017Y-89682488D01*
X215259488Y-89808011D01*
X215259490Y-89808013D01*
X215259491Y-89808015D01*
X215361985Y-89910509D01*
X215361986Y-89910510D01*
X215361988Y-89910511D01*
X215487511Y-89982982D01*
X215487512Y-89982982D01*
X215487515Y-89982984D01*
X215627525Y-90020500D01*
X215627528Y-90020500D01*
X215772472Y-90020500D01*
X215772475Y-90020500D01*
X215912485Y-89982984D01*
X216038015Y-89910509D01*
X216140509Y-89808015D01*
X216204301Y-89697525D01*
X218319500Y-89697525D01*
X218319500Y-89842475D01*
X218357016Y-89982485D01*
X218357017Y-89982488D01*
X218429488Y-90108011D01*
X218429490Y-90108013D01*
X218429491Y-90108015D01*
X218531985Y-90210509D01*
X218531986Y-90210510D01*
X218531988Y-90210511D01*
X218657511Y-90282982D01*
X218657512Y-90282982D01*
X218657515Y-90282984D01*
X218797525Y-90320500D01*
X218797528Y-90320500D01*
X218942472Y-90320500D01*
X218942475Y-90320500D01*
X219082485Y-90282984D01*
X219208015Y-90210509D01*
X219310509Y-90108015D01*
X219382984Y-89982485D01*
X219420500Y-89842475D01*
X219420500Y-89697525D01*
X219395045Y-89602525D01*
X221068200Y-89602525D01*
X221068200Y-89747475D01*
X221105716Y-89887485D01*
X221105717Y-89887488D01*
X221178188Y-90013011D01*
X221178190Y-90013013D01*
X221178191Y-90013015D01*
X221280685Y-90115509D01*
X221280686Y-90115510D01*
X221280688Y-90115511D01*
X221406211Y-90187982D01*
X221406212Y-90187982D01*
X221406215Y-90187984D01*
X221546225Y-90225500D01*
X221546228Y-90225500D01*
X221691172Y-90225500D01*
X221691175Y-90225500D01*
X221831185Y-90187984D01*
X221956715Y-90115509D01*
X222059209Y-90013015D01*
X222131684Y-89887485D01*
X222169200Y-89747475D01*
X222169200Y-89602525D01*
X222131684Y-89462515D01*
X222114057Y-89431985D01*
X222059211Y-89336988D01*
X222059206Y-89336982D01*
X221956717Y-89234493D01*
X221956711Y-89234488D01*
X221831188Y-89162017D01*
X221831189Y-89162017D01*
X221819706Y-89158940D01*
X221691175Y-89124500D01*
X221546225Y-89124500D01*
X221417693Y-89158940D01*
X221406211Y-89162017D01*
X221280688Y-89234488D01*
X221280682Y-89234493D01*
X221178193Y-89336982D01*
X221178188Y-89336988D01*
X221105717Y-89462511D01*
X221105716Y-89462515D01*
X221068200Y-89602525D01*
X219395045Y-89602525D01*
X219382984Y-89557515D01*
X219328133Y-89462511D01*
X219310511Y-89431988D01*
X219310506Y-89431982D01*
X219208017Y-89329493D01*
X219208011Y-89329488D01*
X219082488Y-89257017D01*
X219082489Y-89257017D01*
X219071006Y-89253940D01*
X218942475Y-89219500D01*
X218797525Y-89219500D01*
X218668993Y-89253940D01*
X218657511Y-89257017D01*
X218531988Y-89329488D01*
X218531982Y-89329493D01*
X218429493Y-89431982D01*
X218429488Y-89431988D01*
X218357017Y-89557511D01*
X218357016Y-89557515D01*
X218319500Y-89697525D01*
X216204301Y-89697525D01*
X216212984Y-89682485D01*
X216250500Y-89542475D01*
X216250500Y-89397525D01*
X216212984Y-89257515D01*
X216212696Y-89257017D01*
X216140511Y-89131988D01*
X216140506Y-89131982D01*
X216038017Y-89029493D01*
X216038011Y-89029488D01*
X215912488Y-88957017D01*
X215912489Y-88957017D01*
X215901006Y-88953940D01*
X215772475Y-88919500D01*
X215627525Y-88919500D01*
X215498993Y-88953940D01*
X215487511Y-88957017D01*
X215361988Y-89029488D01*
X215361982Y-89029493D01*
X215259493Y-89131982D01*
X215259488Y-89131988D01*
X215187017Y-89257511D01*
X215187016Y-89257515D01*
X215149500Y-89397525D01*
X211299764Y-89397525D01*
X211296595Y-87441153D01*
X218748200Y-87441153D01*
X218748200Y-87598846D01*
X218778961Y-87753489D01*
X218778964Y-87753501D01*
X218839302Y-87899172D01*
X218839309Y-87899185D01*
X218926910Y-88030288D01*
X218926913Y-88030292D01*
X219038407Y-88141786D01*
X219038411Y-88141789D01*
X219169514Y-88229390D01*
X219169527Y-88229397D01*
X219315198Y-88289735D01*
X219315203Y-88289737D01*
X219469853Y-88320499D01*
X219469856Y-88320500D01*
X219469858Y-88320500D01*
X219627544Y-88320500D01*
X219627545Y-88320499D01*
X219782197Y-88289737D01*
X219927879Y-88229394D01*
X220058989Y-88141789D01*
X220170489Y-88030289D01*
X220258094Y-87899179D01*
X220318437Y-87753497D01*
X220330838Y-87691153D01*
X224369500Y-87691153D01*
X224369500Y-87848846D01*
X224400261Y-88003489D01*
X224400264Y-88003501D01*
X224460602Y-88149172D01*
X224460609Y-88149185D01*
X224548210Y-88280288D01*
X224548213Y-88280292D01*
X224659707Y-88391786D01*
X224659711Y-88391789D01*
X224790814Y-88479390D01*
X224790827Y-88479397D01*
X224936498Y-88539735D01*
X224936503Y-88539737D01*
X225091153Y-88570499D01*
X225091156Y-88570500D01*
X225091158Y-88570500D01*
X225248844Y-88570500D01*
X225248845Y-88570499D01*
X225403497Y-88539737D01*
X225549179Y-88479394D01*
X225680289Y-88391789D01*
X225791789Y-88280289D01*
X225879394Y-88149179D01*
X225939737Y-88003497D01*
X225970500Y-87848842D01*
X225970500Y-87691158D01*
X225970500Y-87691155D01*
X225970499Y-87691153D01*
X225939738Y-87536510D01*
X225939737Y-87536503D01*
X225900242Y-87441153D01*
X225879397Y-87390827D01*
X225879390Y-87390814D01*
X225791789Y-87259711D01*
X225791786Y-87259707D01*
X225680292Y-87148213D01*
X225680288Y-87148210D01*
X225549185Y-87060609D01*
X225549172Y-87060602D01*
X225403501Y-87000264D01*
X225403489Y-87000261D01*
X225248845Y-86969500D01*
X225248842Y-86969500D01*
X225091158Y-86969500D01*
X225091155Y-86969500D01*
X224936510Y-87000261D01*
X224936498Y-87000264D01*
X224790827Y-87060602D01*
X224790814Y-87060609D01*
X224659711Y-87148210D01*
X224659707Y-87148213D01*
X224548213Y-87259707D01*
X224548210Y-87259711D01*
X224460609Y-87390814D01*
X224460602Y-87390827D01*
X224400264Y-87536498D01*
X224400261Y-87536510D01*
X224369500Y-87691153D01*
X220330838Y-87691153D01*
X220336861Y-87660874D01*
X220349200Y-87598844D01*
X220349200Y-87441155D01*
X220349199Y-87441153D01*
X220318438Y-87286510D01*
X220318437Y-87286503D01*
X220318435Y-87286498D01*
X220258097Y-87140827D01*
X220258090Y-87140814D01*
X220170489Y-87009711D01*
X220170486Y-87009707D01*
X220058992Y-86898213D01*
X220058988Y-86898210D01*
X219927885Y-86810609D01*
X219927872Y-86810602D01*
X219782201Y-86750264D01*
X219782189Y-86750261D01*
X219627545Y-86719500D01*
X219627542Y-86719500D01*
X219469858Y-86719500D01*
X219469855Y-86719500D01*
X219315210Y-86750261D01*
X219315198Y-86750264D01*
X219169527Y-86810602D01*
X219169514Y-86810609D01*
X219038411Y-86898210D01*
X219038407Y-86898213D01*
X218926913Y-87009707D01*
X218926910Y-87009711D01*
X218839309Y-87140814D01*
X218839302Y-87140827D01*
X218778964Y-87286498D01*
X218778961Y-87286510D01*
X218748200Y-87441153D01*
X211296595Y-87441153D01*
X211292425Y-84866153D01*
X216828200Y-84866153D01*
X216828200Y-86123846D01*
X216858961Y-86278489D01*
X216858964Y-86278501D01*
X216919302Y-86424172D01*
X216919309Y-86424185D01*
X217006910Y-86555288D01*
X217006913Y-86555292D01*
X217118407Y-86666786D01*
X217118411Y-86666789D01*
X217249514Y-86754390D01*
X217249527Y-86754397D01*
X217385220Y-86810602D01*
X217395203Y-86814737D01*
X217549853Y-86845499D01*
X217549856Y-86845500D01*
X217549858Y-86845500D01*
X217707544Y-86845500D01*
X217707545Y-86845499D01*
X217862197Y-86814737D01*
X218007879Y-86754394D01*
X218138989Y-86666789D01*
X218250489Y-86555289D01*
X218338094Y-86424179D01*
X218398437Y-86278497D01*
X218429200Y-86123842D01*
X218429200Y-85408032D01*
X218448885Y-85340993D01*
X218501689Y-85295238D01*
X218570847Y-85285294D01*
X218634403Y-85314319D01*
X218640881Y-85320351D01*
X218736035Y-85415505D01*
X218855864Y-85484688D01*
X218989517Y-85520500D01*
X218989519Y-85520500D01*
X219127881Y-85520500D01*
X219127883Y-85520500D01*
X219261536Y-85484688D01*
X219381365Y-85415505D01*
X219479205Y-85317665D01*
X219548388Y-85197836D01*
X219584200Y-85064183D01*
X219584200Y-84925817D01*
X224313200Y-84925817D01*
X224313200Y-85064183D01*
X224335288Y-85146615D01*
X224349012Y-85197835D01*
X224349013Y-85197838D01*
X224418192Y-85317661D01*
X224418194Y-85317664D01*
X224418195Y-85317665D01*
X224516035Y-85415505D01*
X224635864Y-85484688D01*
X224769517Y-85520500D01*
X224769519Y-85520500D01*
X224907881Y-85520500D01*
X224907883Y-85520500D01*
X225041536Y-85484688D01*
X225161365Y-85415505D01*
X225256519Y-85320351D01*
X225317842Y-85286866D01*
X225387534Y-85291850D01*
X225443467Y-85333722D01*
X225467884Y-85399186D01*
X225468200Y-85408032D01*
X225468200Y-86123846D01*
X225498961Y-86278489D01*
X225498964Y-86278501D01*
X225559302Y-86424172D01*
X225559309Y-86424185D01*
X225646910Y-86555288D01*
X225646913Y-86555292D01*
X225758407Y-86666786D01*
X225758411Y-86666789D01*
X225889514Y-86754390D01*
X225889527Y-86754397D01*
X226025220Y-86810602D01*
X226035203Y-86814737D01*
X226189853Y-86845499D01*
X226189856Y-86845500D01*
X226189858Y-86845500D01*
X226347544Y-86845500D01*
X226347545Y-86845499D01*
X226502197Y-86814737D01*
X226647879Y-86754394D01*
X226778989Y-86666789D01*
X226890489Y-86555289D01*
X226978094Y-86424179D01*
X227038437Y-86278497D01*
X227069200Y-86123842D01*
X227069200Y-84866158D01*
X227069200Y-84866155D01*
X227069199Y-84866153D01*
X227046531Y-84752189D01*
X227043335Y-84736125D01*
X237892149Y-84736125D01*
X237892149Y-84881075D01*
X237929665Y-85021085D01*
X237929666Y-85021088D01*
X238002137Y-85146611D01*
X238002139Y-85146613D01*
X238002140Y-85146615D01*
X238104634Y-85249109D01*
X238104635Y-85249110D01*
X238104637Y-85249111D01*
X238230160Y-85321582D01*
X238230161Y-85321582D01*
X238230164Y-85321584D01*
X238370174Y-85359100D01*
X238370177Y-85359100D01*
X238515121Y-85359100D01*
X238515124Y-85359100D01*
X238655134Y-85321584D01*
X238780664Y-85249109D01*
X238883158Y-85146615D01*
X238955633Y-85021085D01*
X238993149Y-84881075D01*
X238993149Y-84736125D01*
X238955633Y-84596115D01*
X238943151Y-84574496D01*
X238883160Y-84470588D01*
X238883155Y-84470582D01*
X238780666Y-84368093D01*
X238780660Y-84368088D01*
X238655137Y-84295617D01*
X238655138Y-84295617D01*
X238643655Y-84292540D01*
X238515124Y-84258100D01*
X238370174Y-84258100D01*
X238241642Y-84292540D01*
X238230160Y-84295617D01*
X238104637Y-84368088D01*
X238104631Y-84368093D01*
X238002142Y-84470582D01*
X238002137Y-84470588D01*
X237929666Y-84596111D01*
X237929665Y-84596115D01*
X237892149Y-84736125D01*
X227043335Y-84736125D01*
X227038682Y-84712736D01*
X227038437Y-84711503D01*
X227022216Y-84672341D01*
X226978097Y-84565827D01*
X226978090Y-84565814D01*
X226890489Y-84434711D01*
X226890486Y-84434707D01*
X226778992Y-84323213D01*
X226778988Y-84323210D01*
X226647885Y-84235609D01*
X226647872Y-84235602D01*
X226502201Y-84175264D01*
X226502189Y-84175261D01*
X226347545Y-84144500D01*
X226347542Y-84144500D01*
X226189858Y-84144500D01*
X226189855Y-84144500D01*
X226035210Y-84175261D01*
X226035198Y-84175264D01*
X225889527Y-84235602D01*
X225889514Y-84235609D01*
X225758411Y-84323210D01*
X225758407Y-84323213D01*
X225646913Y-84434707D01*
X225646910Y-84434711D01*
X225559309Y-84565814D01*
X225559302Y-84565827D01*
X225504478Y-84698187D01*
X225460637Y-84752591D01*
X225394343Y-84774656D01*
X225326644Y-84757377D01*
X225282530Y-84712734D01*
X225259209Y-84672341D01*
X225259206Y-84672337D01*
X225259205Y-84672335D01*
X225161365Y-84574495D01*
X225161364Y-84574494D01*
X225161361Y-84574492D01*
X225041538Y-84505313D01*
X225041537Y-84505312D01*
X225041536Y-84505312D01*
X224907883Y-84469500D01*
X224769517Y-84469500D01*
X224635864Y-84505312D01*
X224635861Y-84505313D01*
X224516038Y-84574492D01*
X224516033Y-84574496D01*
X224418196Y-84672333D01*
X224418192Y-84672338D01*
X224349013Y-84792161D01*
X224349012Y-84792164D01*
X224313200Y-84925817D01*
X219584200Y-84925817D01*
X219548388Y-84792164D01*
X219513796Y-84732249D01*
X219479207Y-84672338D01*
X219479206Y-84672336D01*
X219479205Y-84672335D01*
X219381365Y-84574495D01*
X219381364Y-84574494D01*
X219381361Y-84574492D01*
X219261538Y-84505313D01*
X219261537Y-84505312D01*
X219261536Y-84505312D01*
X219127883Y-84469500D01*
X218989517Y-84469500D01*
X218855864Y-84505312D01*
X218855861Y-84505313D01*
X218736038Y-84574492D01*
X218736033Y-84574496D01*
X218638196Y-84672333D01*
X218638194Y-84672336D01*
X218614869Y-84712736D01*
X218564301Y-84760951D01*
X218495694Y-84774173D01*
X218430829Y-84748205D01*
X218392921Y-84698187D01*
X218338097Y-84565826D01*
X218338090Y-84565814D01*
X218250489Y-84434711D01*
X218250486Y-84434707D01*
X218138992Y-84323213D01*
X218138988Y-84323210D01*
X218007885Y-84235609D01*
X218007872Y-84235602D01*
X217862201Y-84175264D01*
X217862189Y-84175261D01*
X217707545Y-84144500D01*
X217707542Y-84144500D01*
X217549858Y-84144500D01*
X217549855Y-84144500D01*
X217395210Y-84175261D01*
X217395198Y-84175264D01*
X217249527Y-84235602D01*
X217249514Y-84235609D01*
X217118411Y-84323210D01*
X217118407Y-84323213D01*
X217006913Y-84434707D01*
X217006910Y-84434711D01*
X216919309Y-84565814D01*
X216919302Y-84565827D01*
X216858964Y-84711498D01*
X216858961Y-84711510D01*
X216828200Y-84866153D01*
X211292425Y-84866153D01*
X211286293Y-81080290D01*
X211285898Y-80836153D01*
X216828200Y-80836153D01*
X216828200Y-81793846D01*
X216858961Y-81948489D01*
X216858964Y-81948501D01*
X216919302Y-82094172D01*
X216919309Y-82094185D01*
X217006910Y-82225288D01*
X217006913Y-82225292D01*
X217118407Y-82336786D01*
X217118411Y-82336789D01*
X217249514Y-82424390D01*
X217249527Y-82424397D01*
X217395198Y-82484735D01*
X217395203Y-82484737D01*
X217549853Y-82515499D01*
X217549856Y-82515500D01*
X217549858Y-82515500D01*
X217707544Y-82515500D01*
X217707545Y-82515499D01*
X217862197Y-82484737D01*
X218007879Y-82424394D01*
X218138989Y-82336789D01*
X218250489Y-82225289D01*
X218338094Y-82094179D01*
X218398437Y-81948497D01*
X218429200Y-81793842D01*
X218429200Y-80836158D01*
X218429200Y-80836155D01*
X218429199Y-80836153D01*
X225468200Y-80836153D01*
X225468200Y-81793846D01*
X225498961Y-81948489D01*
X225498964Y-81948501D01*
X225559302Y-82094172D01*
X225559309Y-82094185D01*
X225646910Y-82225288D01*
X225646913Y-82225292D01*
X225758407Y-82336786D01*
X225758411Y-82336789D01*
X225889514Y-82424390D01*
X225889527Y-82424397D01*
X226035198Y-82484735D01*
X226035203Y-82484737D01*
X226189853Y-82515499D01*
X226189856Y-82515500D01*
X226189858Y-82515500D01*
X226347544Y-82515500D01*
X226347545Y-82515499D01*
X226502197Y-82484737D01*
X226647879Y-82424394D01*
X226778989Y-82336789D01*
X226890489Y-82225289D01*
X226902358Y-82207525D01*
X233968200Y-82207525D01*
X233968200Y-82352475D01*
X234003640Y-82484737D01*
X234005717Y-82492488D01*
X234078188Y-82618011D01*
X234078190Y-82618013D01*
X234078191Y-82618015D01*
X234180685Y-82720509D01*
X234180686Y-82720510D01*
X234180688Y-82720511D01*
X234306211Y-82792982D01*
X234306212Y-82792982D01*
X234306215Y-82792984D01*
X234446225Y-82830500D01*
X234446228Y-82830500D01*
X234591172Y-82830500D01*
X234591175Y-82830500D01*
X234731185Y-82792984D01*
X234856715Y-82720509D01*
X234959209Y-82618015D01*
X235031684Y-82492485D01*
X235069200Y-82352475D01*
X235069200Y-82207525D01*
X235031684Y-82067515D01*
X234959209Y-81941985D01*
X234856715Y-81839491D01*
X234856713Y-81839490D01*
X234856711Y-81839488D01*
X234731188Y-81767017D01*
X234731189Y-81767017D01*
X234719706Y-81763940D01*
X234591175Y-81729500D01*
X234446225Y-81729500D01*
X234317693Y-81763940D01*
X234306211Y-81767017D01*
X234180688Y-81839488D01*
X234180682Y-81839493D01*
X234078193Y-81941982D01*
X234078188Y-81941988D01*
X234005717Y-82067511D01*
X234005716Y-82067515D01*
X233968200Y-82207525D01*
X226902358Y-82207525D01*
X226923315Y-82176160D01*
X226953821Y-82130507D01*
X226978090Y-82094185D01*
X226978090Y-82094184D01*
X226978094Y-82094179D01*
X227038437Y-81948497D01*
X227069200Y-81793842D01*
X227069200Y-80836158D01*
X227069200Y-80836155D01*
X227069199Y-80836153D01*
X227038438Y-80681510D01*
X227038437Y-80681503D01*
X227015928Y-80627160D01*
X226978097Y-80535827D01*
X226978090Y-80535814D01*
X226890489Y-80404711D01*
X226890486Y-80404707D01*
X226778992Y-80293213D01*
X226778988Y-80293210D01*
X226647885Y-80205609D01*
X226647872Y-80205602D01*
X226502201Y-80145264D01*
X226502189Y-80145261D01*
X226347545Y-80114500D01*
X226347542Y-80114500D01*
X226189858Y-80114500D01*
X226189855Y-80114500D01*
X226035210Y-80145261D01*
X226035198Y-80145264D01*
X225889527Y-80205602D01*
X225889514Y-80205609D01*
X225758411Y-80293210D01*
X225758407Y-80293213D01*
X225646913Y-80404707D01*
X225646910Y-80404711D01*
X225559309Y-80535814D01*
X225559302Y-80535827D01*
X225498964Y-80681498D01*
X225498961Y-80681510D01*
X225468200Y-80836153D01*
X218429199Y-80836153D01*
X218398438Y-80681510D01*
X218398437Y-80681503D01*
X218375928Y-80627160D01*
X218338097Y-80535827D01*
X218338090Y-80535814D01*
X218250489Y-80404711D01*
X218250486Y-80404707D01*
X218138992Y-80293213D01*
X218138988Y-80293210D01*
X218007885Y-80205609D01*
X218007872Y-80205602D01*
X217862201Y-80145264D01*
X217862189Y-80145261D01*
X217707545Y-80114500D01*
X217707542Y-80114500D01*
X217549858Y-80114500D01*
X217549855Y-80114500D01*
X217395210Y-80145261D01*
X217395198Y-80145264D01*
X217249527Y-80205602D01*
X217249514Y-80205609D01*
X217118411Y-80293210D01*
X217118407Y-80293213D01*
X217006913Y-80404707D01*
X217006910Y-80404711D01*
X216919309Y-80535814D01*
X216919302Y-80535827D01*
X216858964Y-80681498D01*
X216858961Y-80681510D01*
X216828200Y-80836153D01*
X211285898Y-80836153D01*
X211282599Y-78799701D01*
X211302175Y-78732630D01*
X211354905Y-78686789D01*
X211406599Y-78675500D01*
X239911519Y-78675500D01*
X239918471Y-78675695D01*
G37*
%TD.AperFunction*%
%TD*%
M02*
