%TF.GenerationSoftware,KiCad,Pcbnew,8.0.7*%
%TF.CreationDate,2025-01-15T12:36:28-05:00*%
%TF.ProjectId,emberone,656d6265-726f-46e6-952e-6b696361645f,rev?*%
%TF.SameCoordinates,Original*%
%TF.FileFunction,Soldermask,Top*%
%TF.FilePolarity,Negative*%
%FSLAX46Y46*%
G04 Gerber Fmt 4.6, Leading zero omitted, Abs format (unit mm)*
G04 Created by KiCad (PCBNEW 8.0.7) date 2025-01-15 12:36:28*
%MOMM*%
%LPD*%
G01*
G04 APERTURE LIST*
G04 Aperture macros list*
%AMRoundRect*
0 Rectangle with rounded corners*
0 $1 Rounding radius*
0 $2 $3 $4 $5 $6 $7 $8 $9 X,Y pos of 4 corners*
0 Add a 4 corners polygon primitive as box body*
4,1,4,$2,$3,$4,$5,$6,$7,$8,$9,$2,$3,0*
0 Add four circle primitives for the rounded corners*
1,1,$1+$1,$2,$3*
1,1,$1+$1,$4,$5*
1,1,$1+$1,$6,$7*
1,1,$1+$1,$8,$9*
0 Add four rect primitives between the rounded corners*
20,1,$1+$1,$2,$3,$4,$5,0*
20,1,$1+$1,$4,$5,$6,$7,0*
20,1,$1+$1,$6,$7,$8,$9,0*
20,1,$1+$1,$8,$9,$2,$3,0*%
G04 Aperture macros list end*
%ADD10C,0.120000*%
%ADD11C,0.000000*%
%ADD12R,3.302000X1.498600*%
%ADD13R,1.498600X3.302000*%
%ADD14RoundRect,0.100000X0.400000X0.100000X-0.400000X0.100000X-0.400000X-0.100000X0.400000X-0.100000X0*%
%ADD15C,0.540000*%
%ADD16RoundRect,0.100000X-0.400000X-0.100000X0.400000X-0.100000X0.400000X0.100000X-0.400000X0.100000X0*%
%ADD17O,1.000000X1.800000*%
%ADD18O,1.000000X2.100000*%
%ADD19RoundRect,0.075000X0.075000X0.500000X-0.075000X0.500000X-0.075000X-0.500000X0.075000X-0.500000X0*%
%ADD20RoundRect,0.150000X0.150000X0.425000X-0.150000X0.425000X-0.150000X-0.425000X0.150000X-0.425000X0*%
%ADD21RoundRect,0.150000X0.150000X0.400000X-0.150000X0.400000X-0.150000X-0.400000X0.150000X-0.400000X0*%
%ADD22C,0.650000*%
%ADD23R,3.352800X1.905000*%
%ADD24RoundRect,0.100000X0.100000X-0.637500X0.100000X0.637500X-0.100000X0.637500X-0.100000X-0.637500X0*%
%ADD25RoundRect,0.200000X0.275000X-0.200000X0.275000X0.200000X-0.275000X0.200000X-0.275000X-0.200000X0*%
%ADD26RoundRect,0.250000X0.475000X-0.250000X0.475000X0.250000X-0.475000X0.250000X-0.475000X-0.250000X0*%
%ADD27R,1.168400X0.711200*%
%ADD28R,14.000000X9.000000*%
%ADD29RoundRect,0.200000X0.200000X0.275000X-0.200000X0.275000X-0.200000X-0.275000X0.200000X-0.275000X0*%
%ADD30C,6.400000*%
%ADD31RoundRect,0.135000X0.135000X0.185000X-0.135000X0.185000X-0.135000X-0.185000X0.135000X-0.185000X0*%
%ADD32R,0.509999X0.910001*%
%ADD33RoundRect,0.140000X0.140000X0.170000X-0.140000X0.170000X-0.140000X-0.170000X0.140000X-0.170000X0*%
%ADD34RoundRect,0.250000X-0.475000X0.250000X-0.475000X-0.250000X0.475000X-0.250000X0.475000X0.250000X0*%
%ADD35R,1.000000X1.500000*%
%ADD36R,3.200000X3.200000*%
%ADD37RoundRect,0.050000X-0.050000X-0.387500X0.050000X-0.387500X0.050000X0.387500X-0.050000X0.387500X0*%
%ADD38RoundRect,0.050000X-0.387500X-0.050000X0.387500X-0.050000X0.387500X0.050000X-0.387500X0.050000X0*%
%ADD39RoundRect,0.200000X-0.275000X0.200000X-0.275000X-0.200000X0.275000X-0.200000X0.275000X0.200000X0*%
%ADD40RoundRect,0.140000X-0.170000X0.140000X-0.170000X-0.140000X0.170000X-0.140000X0.170000X0.140000X0*%
%ADD41RoundRect,0.140000X-0.140000X-0.170000X0.140000X-0.170000X0.140000X0.170000X-0.140000X0.170000X0*%
%ADD42R,9.000000X5.000000*%
%ADD43R,1.905000X3.352800*%
%ADD44RoundRect,0.250000X0.250000X0.475000X-0.250000X0.475000X-0.250000X-0.475000X0.250000X-0.475000X0*%
%ADD45RoundRect,0.135000X0.185000X-0.135000X0.185000X0.135000X-0.185000X0.135000X-0.185000X-0.135000X0*%
%ADD46RoundRect,0.135000X-0.185000X0.135000X-0.185000X-0.135000X0.185000X-0.135000X0.185000X0.135000X0*%
%ADD47R,1.000000X1.200000*%
%ADD48R,0.700000X1.200000*%
%ADD49R,0.450000X1.200000*%
%ADD50RoundRect,0.140000X0.170000X-0.140000X0.170000X0.140000X-0.170000X0.140000X-0.170000X-0.140000X0*%
%ADD51RoundRect,0.112500X0.112500X-0.612500X0.112500X0.612500X-0.112500X0.612500X-0.112500X-0.612500X0*%
%ADD52C,3.200000*%
%ADD53R,0.711200X1.168400*%
%ADD54R,5.334000X5.588000*%
%ADD55R,6.350000X5.283200*%
%ADD56RoundRect,0.102000X-0.475000X1.075000X-0.475000X-1.075000X0.475000X-1.075000X0.475000X1.075000X0*%
%ADD57RoundRect,0.102000X-1.625000X1.075000X-1.625000X-1.075000X1.625000X-1.075000X1.625000X1.075000X0*%
%ADD58R,0.812800X0.254000*%
%ADD59R,0.254000X1.651000*%
%ADD60R,3.454400X5.588000*%
%ADD61RoundRect,0.135000X-0.135000X-0.185000X0.135000X-0.185000X0.135000X0.185000X-0.135000X0.185000X0*%
%ADD62RoundRect,0.200000X-0.200000X-0.275000X0.200000X-0.275000X0.200000X0.275000X-0.200000X0.275000X0*%
%ADD63RoundRect,0.102000X0.550000X-0.650000X0.550000X0.650000X-0.550000X0.650000X-0.550000X-0.650000X0*%
%ADD64R,0.400000X1.100000*%
%ADD65R,0.254000X0.609600*%
%ADD66R,0.609600X0.254000*%
%ADD67R,3.098800X3.098800*%
%ADD68RoundRect,0.250000X-0.250000X-0.475000X0.250000X-0.475000X0.250000X0.475000X-0.250000X0.475000X0*%
%ADD69R,0.910001X0.509999*%
%ADD70RoundRect,0.100000X-0.100000X0.637500X-0.100000X-0.637500X0.100000X-0.637500X0.100000X0.637500X0*%
%ADD71C,3.500000*%
G04 APERTURE END LIST*
%TO.C,U55*%
D10*
X161330000Y-173015000D02*
X163150000Y-173015000D01*
X163150000Y-174455000D01*
X161330000Y-174455000D01*
X161330000Y-173015000D01*
G36*
X161330000Y-173015000D02*
G01*
X163150000Y-173015000D01*
X163150000Y-174455000D01*
X161330000Y-174455000D01*
X161330000Y-173015000D01*
G37*
X161320000Y-176885000D02*
X163160000Y-176885000D01*
X163160000Y-178625000D01*
X161320000Y-178625000D01*
X161320000Y-176885000D01*
G36*
X161320000Y-176885000D02*
G01*
X163160000Y-176885000D01*
X163160000Y-178625000D01*
X161320000Y-178625000D01*
X161320000Y-176885000D01*
G37*
X161320000Y-174855000D02*
X163140000Y-174855000D01*
X163140000Y-176405000D01*
X161320000Y-176405000D01*
X161320000Y-174855000D01*
G36*
X161320000Y-174855000D02*
G01*
X163140000Y-174855000D01*
X163140000Y-176405000D01*
X161320000Y-176405000D01*
X161320000Y-174855000D01*
G37*
X161320000Y-171055000D02*
X163150000Y-171055000D01*
X163150000Y-172585000D01*
X161320000Y-172585000D01*
X161320000Y-171055000D01*
G36*
X161320000Y-171055000D02*
G01*
X163150000Y-171055000D01*
X163150000Y-172585000D01*
X161320000Y-172585000D01*
X161320000Y-171055000D01*
G37*
X159120000Y-176905000D02*
X160900000Y-176905000D01*
X160900000Y-178615000D01*
X159120000Y-178615000D01*
X159120000Y-176905000D01*
G36*
X159120000Y-176905000D02*
G01*
X160900000Y-176905000D01*
X160900000Y-178615000D01*
X159120000Y-178615000D01*
X159120000Y-176905000D01*
G37*
X159120000Y-173025000D02*
X160900000Y-173025000D01*
X160900000Y-174465000D01*
X159120000Y-174465000D01*
X159120000Y-173025000D01*
G36*
X159120000Y-173025000D02*
G01*
X160900000Y-173025000D01*
X160900000Y-174465000D01*
X159120000Y-174465000D01*
X159120000Y-173025000D01*
G37*
X159110000Y-174865000D02*
X160890000Y-174865000D01*
X160890000Y-176405000D01*
X159110000Y-176405000D01*
X159110000Y-174865000D01*
G36*
X159110000Y-174865000D02*
G01*
X160890000Y-174865000D01*
X160890000Y-176405000D01*
X159110000Y-176405000D01*
X159110000Y-174865000D01*
G37*
X159110000Y-171045000D02*
X160890000Y-171045000D01*
X160890000Y-172595000D01*
X159110000Y-172595000D01*
X159110000Y-171045000D01*
G36*
X159110000Y-171045000D02*
G01*
X160890000Y-171045000D01*
X160890000Y-172595000D01*
X159110000Y-172595000D01*
X159110000Y-171045000D01*
G37*
X156900000Y-171055000D02*
X158680000Y-171055000D01*
X158680000Y-172595000D01*
X156900000Y-172595000D01*
X156900000Y-171055000D01*
G36*
X156900000Y-171055000D02*
G01*
X158680000Y-171055000D01*
X158680000Y-172595000D01*
X156900000Y-172595000D01*
X156900000Y-171055000D01*
G37*
X156850000Y-174865000D02*
X158680000Y-174865000D01*
X158680000Y-176405000D01*
X156850000Y-176405000D01*
X156850000Y-174865000D01*
G36*
X156850000Y-174865000D02*
G01*
X158680000Y-174865000D01*
X158680000Y-176405000D01*
X156850000Y-176405000D01*
X156850000Y-174865000D01*
G37*
X156840000Y-176915000D02*
X158690000Y-176915000D01*
X158690000Y-178615000D01*
X156840000Y-178615000D01*
X156840000Y-176915000D01*
G36*
X156840000Y-176915000D02*
G01*
X158690000Y-176915000D01*
X158690000Y-178615000D01*
X156840000Y-178615000D01*
X156840000Y-176915000D01*
G37*
X156840000Y-173025000D02*
X158690000Y-173025000D01*
X158690000Y-174465000D01*
X156840000Y-174465000D01*
X156840000Y-173025000D01*
G36*
X156840000Y-173025000D02*
G01*
X158690000Y-173025000D01*
X158690000Y-174465000D01*
X156840000Y-174465000D01*
X156840000Y-173025000D01*
G37*
%TO.C,U65*%
X180160000Y-190345000D02*
X178340000Y-190345000D01*
X178340000Y-188905000D01*
X180160000Y-188905000D01*
X180160000Y-190345000D01*
G36*
X180160000Y-190345000D02*
G01*
X178340000Y-190345000D01*
X178340000Y-188905000D01*
X180160000Y-188905000D01*
X180160000Y-190345000D01*
G37*
X180170000Y-186475000D02*
X178330000Y-186475000D01*
X178330000Y-184735000D01*
X180170000Y-184735000D01*
X180170000Y-186475000D01*
G36*
X180170000Y-186475000D02*
G01*
X178330000Y-186475000D01*
X178330000Y-184735000D01*
X180170000Y-184735000D01*
X180170000Y-186475000D01*
G37*
X180170000Y-188505000D02*
X178350000Y-188505000D01*
X178350000Y-186955000D01*
X180170000Y-186955000D01*
X180170000Y-188505000D01*
G36*
X180170000Y-188505000D02*
G01*
X178350000Y-188505000D01*
X178350000Y-186955000D01*
X180170000Y-186955000D01*
X180170000Y-188505000D01*
G37*
X180170000Y-192305000D02*
X178340000Y-192305000D01*
X178340000Y-190775000D01*
X180170000Y-190775000D01*
X180170000Y-192305000D01*
G36*
X180170000Y-192305000D02*
G01*
X178340000Y-192305000D01*
X178340000Y-190775000D01*
X180170000Y-190775000D01*
X180170000Y-192305000D01*
G37*
X182370000Y-186455000D02*
X180590000Y-186455000D01*
X180590000Y-184745000D01*
X182370000Y-184745000D01*
X182370000Y-186455000D01*
G36*
X182370000Y-186455000D02*
G01*
X180590000Y-186455000D01*
X180590000Y-184745000D01*
X182370000Y-184745000D01*
X182370000Y-186455000D01*
G37*
X182370000Y-190335000D02*
X180590000Y-190335000D01*
X180590000Y-188895000D01*
X182370000Y-188895000D01*
X182370000Y-190335000D01*
G36*
X182370000Y-190335000D02*
G01*
X180590000Y-190335000D01*
X180590000Y-188895000D01*
X182370000Y-188895000D01*
X182370000Y-190335000D01*
G37*
X182380000Y-188495000D02*
X180600000Y-188495000D01*
X180600000Y-186955000D01*
X182380000Y-186955000D01*
X182380000Y-188495000D01*
G36*
X182380000Y-188495000D02*
G01*
X180600000Y-188495000D01*
X180600000Y-186955000D01*
X182380000Y-186955000D01*
X182380000Y-188495000D01*
G37*
X182380000Y-192315000D02*
X180600000Y-192315000D01*
X180600000Y-190765000D01*
X182380000Y-190765000D01*
X182380000Y-192315000D01*
G36*
X182380000Y-192315000D02*
G01*
X180600000Y-192315000D01*
X180600000Y-190765000D01*
X182380000Y-190765000D01*
X182380000Y-192315000D01*
G37*
X184590000Y-192305000D02*
X182810000Y-192305000D01*
X182810000Y-190765000D01*
X184590000Y-190765000D01*
X184590000Y-192305000D01*
G36*
X184590000Y-192305000D02*
G01*
X182810000Y-192305000D01*
X182810000Y-190765000D01*
X184590000Y-190765000D01*
X184590000Y-192305000D01*
G37*
X184640000Y-188495000D02*
X182810000Y-188495000D01*
X182810000Y-186955000D01*
X184640000Y-186955000D01*
X184640000Y-188495000D01*
G36*
X184640000Y-188495000D02*
G01*
X182810000Y-188495000D01*
X182810000Y-186955000D01*
X184640000Y-186955000D01*
X184640000Y-188495000D01*
G37*
X184650000Y-186445000D02*
X182800000Y-186445000D01*
X182800000Y-184745000D01*
X184650000Y-184745000D01*
X184650000Y-186445000D01*
G36*
X184650000Y-186445000D02*
G01*
X182800000Y-186445000D01*
X182800000Y-184745000D01*
X184650000Y-184745000D01*
X184650000Y-186445000D01*
G37*
X184650000Y-190335000D02*
X182800000Y-190335000D01*
X182800000Y-188895000D01*
X184650000Y-188895000D01*
X184650000Y-190335000D01*
G36*
X184650000Y-190335000D02*
G01*
X182800000Y-190335000D01*
X182800000Y-188895000D01*
X184650000Y-188895000D01*
X184650000Y-190335000D01*
G37*
%TO.C,U47*%
X137120000Y-190315000D02*
X135300000Y-190315000D01*
X135300000Y-188875000D01*
X137120000Y-188875000D01*
X137120000Y-190315000D01*
G36*
X137120000Y-190315000D02*
G01*
X135300000Y-190315000D01*
X135300000Y-188875000D01*
X137120000Y-188875000D01*
X137120000Y-190315000D01*
G37*
X137130000Y-186445000D02*
X135290000Y-186445000D01*
X135290000Y-184705000D01*
X137130000Y-184705000D01*
X137130000Y-186445000D01*
G36*
X137130000Y-186445000D02*
G01*
X135290000Y-186445000D01*
X135290000Y-184705000D01*
X137130000Y-184705000D01*
X137130000Y-186445000D01*
G37*
X137130000Y-188475000D02*
X135310000Y-188475000D01*
X135310000Y-186925000D01*
X137130000Y-186925000D01*
X137130000Y-188475000D01*
G36*
X137130000Y-188475000D02*
G01*
X135310000Y-188475000D01*
X135310000Y-186925000D01*
X137130000Y-186925000D01*
X137130000Y-188475000D01*
G37*
X137130000Y-192275000D02*
X135300000Y-192275000D01*
X135300000Y-190745000D01*
X137130000Y-190745000D01*
X137130000Y-192275000D01*
G36*
X137130000Y-192275000D02*
G01*
X135300000Y-192275000D01*
X135300000Y-190745000D01*
X137130000Y-190745000D01*
X137130000Y-192275000D01*
G37*
X139330000Y-186425000D02*
X137550000Y-186425000D01*
X137550000Y-184715000D01*
X139330000Y-184715000D01*
X139330000Y-186425000D01*
G36*
X139330000Y-186425000D02*
G01*
X137550000Y-186425000D01*
X137550000Y-184715000D01*
X139330000Y-184715000D01*
X139330000Y-186425000D01*
G37*
X139330000Y-190305000D02*
X137550000Y-190305000D01*
X137550000Y-188865000D01*
X139330000Y-188865000D01*
X139330000Y-190305000D01*
G36*
X139330000Y-190305000D02*
G01*
X137550000Y-190305000D01*
X137550000Y-188865000D01*
X139330000Y-188865000D01*
X139330000Y-190305000D01*
G37*
X139340000Y-188465000D02*
X137560000Y-188465000D01*
X137560000Y-186925000D01*
X139340000Y-186925000D01*
X139340000Y-188465000D01*
G36*
X139340000Y-188465000D02*
G01*
X137560000Y-188465000D01*
X137560000Y-186925000D01*
X139340000Y-186925000D01*
X139340000Y-188465000D01*
G37*
X139340000Y-192285000D02*
X137560000Y-192285000D01*
X137560000Y-190735000D01*
X139340000Y-190735000D01*
X139340000Y-192285000D01*
G36*
X139340000Y-192285000D02*
G01*
X137560000Y-192285000D01*
X137560000Y-190735000D01*
X139340000Y-190735000D01*
X139340000Y-192285000D01*
G37*
X141550000Y-192275000D02*
X139770000Y-192275000D01*
X139770000Y-190735000D01*
X141550000Y-190735000D01*
X141550000Y-192275000D01*
G36*
X141550000Y-192275000D02*
G01*
X139770000Y-192275000D01*
X139770000Y-190735000D01*
X141550000Y-190735000D01*
X141550000Y-192275000D01*
G37*
X141600000Y-188465000D02*
X139770000Y-188465000D01*
X139770000Y-186925000D01*
X141600000Y-186925000D01*
X141600000Y-188465000D01*
G36*
X141600000Y-188465000D02*
G01*
X139770000Y-188465000D01*
X139770000Y-186925000D01*
X141600000Y-186925000D01*
X141600000Y-188465000D01*
G37*
X141610000Y-186415000D02*
X139760000Y-186415000D01*
X139760000Y-184715000D01*
X141610000Y-184715000D01*
X141610000Y-186415000D01*
G36*
X141610000Y-186415000D02*
G01*
X139760000Y-186415000D01*
X139760000Y-184715000D01*
X141610000Y-184715000D01*
X141610000Y-186415000D01*
G37*
X141610000Y-190305000D02*
X139760000Y-190305000D01*
X139760000Y-188865000D01*
X141610000Y-188865000D01*
X141610000Y-190305000D01*
G36*
X141610000Y-190305000D02*
G01*
X139760000Y-190305000D01*
X139760000Y-188865000D01*
X141610000Y-188865000D01*
X141610000Y-190305000D01*
G37*
%TO.C,U74*%
X204390000Y-159425000D02*
X206210000Y-159425000D01*
X206210000Y-160865000D01*
X204390000Y-160865000D01*
X204390000Y-159425000D01*
G36*
X204390000Y-159425000D02*
G01*
X206210000Y-159425000D01*
X206210000Y-160865000D01*
X204390000Y-160865000D01*
X204390000Y-159425000D01*
G37*
X204380000Y-163295000D02*
X206220000Y-163295000D01*
X206220000Y-165035000D01*
X204380000Y-165035000D01*
X204380000Y-163295000D01*
G36*
X204380000Y-163295000D02*
G01*
X206220000Y-163295000D01*
X206220000Y-165035000D01*
X204380000Y-165035000D01*
X204380000Y-163295000D01*
G37*
X204380000Y-161265000D02*
X206200000Y-161265000D01*
X206200000Y-162815000D01*
X204380000Y-162815000D01*
X204380000Y-161265000D01*
G36*
X204380000Y-161265000D02*
G01*
X206200000Y-161265000D01*
X206200000Y-162815000D01*
X204380000Y-162815000D01*
X204380000Y-161265000D01*
G37*
X204380000Y-157465000D02*
X206210000Y-157465000D01*
X206210000Y-158995000D01*
X204380000Y-158995000D01*
X204380000Y-157465000D01*
G36*
X204380000Y-157465000D02*
G01*
X206210000Y-157465000D01*
X206210000Y-158995000D01*
X204380000Y-158995000D01*
X204380000Y-157465000D01*
G37*
X202180000Y-163315000D02*
X203960000Y-163315000D01*
X203960000Y-165025000D01*
X202180000Y-165025000D01*
X202180000Y-163315000D01*
G36*
X202180000Y-163315000D02*
G01*
X203960000Y-163315000D01*
X203960000Y-165025000D01*
X202180000Y-165025000D01*
X202180000Y-163315000D01*
G37*
X202180000Y-159435000D02*
X203960000Y-159435000D01*
X203960000Y-160875000D01*
X202180000Y-160875000D01*
X202180000Y-159435000D01*
G36*
X202180000Y-159435000D02*
G01*
X203960000Y-159435000D01*
X203960000Y-160875000D01*
X202180000Y-160875000D01*
X202180000Y-159435000D01*
G37*
X202170000Y-161275000D02*
X203950000Y-161275000D01*
X203950000Y-162815000D01*
X202170000Y-162815000D01*
X202170000Y-161275000D01*
G36*
X202170000Y-161275000D02*
G01*
X203950000Y-161275000D01*
X203950000Y-162815000D01*
X202170000Y-162815000D01*
X202170000Y-161275000D01*
G37*
X202170000Y-157455000D02*
X203950000Y-157455000D01*
X203950000Y-159005000D01*
X202170000Y-159005000D01*
X202170000Y-157455000D01*
G36*
X202170000Y-157455000D02*
G01*
X203950000Y-157455000D01*
X203950000Y-159005000D01*
X202170000Y-159005000D01*
X202170000Y-157455000D01*
G37*
X199960000Y-157465000D02*
X201740000Y-157465000D01*
X201740000Y-159005000D01*
X199960000Y-159005000D01*
X199960000Y-157465000D01*
G36*
X199960000Y-157465000D02*
G01*
X201740000Y-157465000D01*
X201740000Y-159005000D01*
X199960000Y-159005000D01*
X199960000Y-157465000D01*
G37*
X199910000Y-161275000D02*
X201740000Y-161275000D01*
X201740000Y-162815000D01*
X199910000Y-162815000D01*
X199910000Y-161275000D01*
G36*
X199910000Y-161275000D02*
G01*
X201740000Y-161275000D01*
X201740000Y-162815000D01*
X199910000Y-162815000D01*
X199910000Y-161275000D01*
G37*
X199900000Y-163325000D02*
X201750000Y-163325000D01*
X201750000Y-165025000D01*
X199900000Y-165025000D01*
X199900000Y-163325000D01*
G36*
X199900000Y-163325000D02*
G01*
X201750000Y-163325000D01*
X201750000Y-165025000D01*
X199900000Y-165025000D01*
X199900000Y-163325000D01*
G37*
X199900000Y-159435000D02*
X201750000Y-159435000D01*
X201750000Y-160875000D01*
X199900000Y-160875000D01*
X199900000Y-159435000D01*
G36*
X199900000Y-159435000D02*
G01*
X201750000Y-159435000D01*
X201750000Y-160875000D01*
X199900000Y-160875000D01*
X199900000Y-159435000D01*
G37*
%TO.C,U54*%
X161330000Y-186685000D02*
X163150000Y-186685000D01*
X163150000Y-188125000D01*
X161330000Y-188125000D01*
X161330000Y-186685000D01*
G36*
X161330000Y-186685000D02*
G01*
X163150000Y-186685000D01*
X163150000Y-188125000D01*
X161330000Y-188125000D01*
X161330000Y-186685000D01*
G37*
X161320000Y-190555000D02*
X163160000Y-190555000D01*
X163160000Y-192295000D01*
X161320000Y-192295000D01*
X161320000Y-190555000D01*
G36*
X161320000Y-190555000D02*
G01*
X163160000Y-190555000D01*
X163160000Y-192295000D01*
X161320000Y-192295000D01*
X161320000Y-190555000D01*
G37*
X161320000Y-188525000D02*
X163140000Y-188525000D01*
X163140000Y-190075000D01*
X161320000Y-190075000D01*
X161320000Y-188525000D01*
G36*
X161320000Y-188525000D02*
G01*
X163140000Y-188525000D01*
X163140000Y-190075000D01*
X161320000Y-190075000D01*
X161320000Y-188525000D01*
G37*
X161320000Y-184725000D02*
X163150000Y-184725000D01*
X163150000Y-186255000D01*
X161320000Y-186255000D01*
X161320000Y-184725000D01*
G36*
X161320000Y-184725000D02*
G01*
X163150000Y-184725000D01*
X163150000Y-186255000D01*
X161320000Y-186255000D01*
X161320000Y-184725000D01*
G37*
X159120000Y-190575000D02*
X160900000Y-190575000D01*
X160900000Y-192285000D01*
X159120000Y-192285000D01*
X159120000Y-190575000D01*
G36*
X159120000Y-190575000D02*
G01*
X160900000Y-190575000D01*
X160900000Y-192285000D01*
X159120000Y-192285000D01*
X159120000Y-190575000D01*
G37*
X159120000Y-186695000D02*
X160900000Y-186695000D01*
X160900000Y-188135000D01*
X159120000Y-188135000D01*
X159120000Y-186695000D01*
G36*
X159120000Y-186695000D02*
G01*
X160900000Y-186695000D01*
X160900000Y-188135000D01*
X159120000Y-188135000D01*
X159120000Y-186695000D01*
G37*
X159110000Y-188535000D02*
X160890000Y-188535000D01*
X160890000Y-190075000D01*
X159110000Y-190075000D01*
X159110000Y-188535000D01*
G36*
X159110000Y-188535000D02*
G01*
X160890000Y-188535000D01*
X160890000Y-190075000D01*
X159110000Y-190075000D01*
X159110000Y-188535000D01*
G37*
X159110000Y-184715000D02*
X160890000Y-184715000D01*
X160890000Y-186265000D01*
X159110000Y-186265000D01*
X159110000Y-184715000D01*
G36*
X159110000Y-184715000D02*
G01*
X160890000Y-184715000D01*
X160890000Y-186265000D01*
X159110000Y-186265000D01*
X159110000Y-184715000D01*
G37*
X156900000Y-184725000D02*
X158680000Y-184725000D01*
X158680000Y-186265000D01*
X156900000Y-186265000D01*
X156900000Y-184725000D01*
G36*
X156900000Y-184725000D02*
G01*
X158680000Y-184725000D01*
X158680000Y-186265000D01*
X156900000Y-186265000D01*
X156900000Y-184725000D01*
G37*
X156850000Y-188535000D02*
X158680000Y-188535000D01*
X158680000Y-190075000D01*
X156850000Y-190075000D01*
X156850000Y-188535000D01*
G36*
X156850000Y-188535000D02*
G01*
X158680000Y-188535000D01*
X158680000Y-190075000D01*
X156850000Y-190075000D01*
X156850000Y-188535000D01*
G37*
X156840000Y-190585000D02*
X158690000Y-190585000D01*
X158690000Y-192285000D01*
X156840000Y-192285000D01*
X156840000Y-190585000D01*
G36*
X156840000Y-190585000D02*
G01*
X158690000Y-190585000D01*
X158690000Y-192285000D01*
X156840000Y-192285000D01*
X156840000Y-190585000D01*
G37*
X156840000Y-186695000D02*
X158690000Y-186695000D01*
X158690000Y-188135000D01*
X156840000Y-188135000D01*
X156840000Y-186695000D01*
G36*
X156840000Y-186695000D02*
G01*
X158690000Y-186695000D01*
X158690000Y-188135000D01*
X156840000Y-188135000D01*
X156840000Y-186695000D01*
G37*
%TO.C,U46*%
X137120000Y-176635000D02*
X135300000Y-176635000D01*
X135300000Y-175195000D01*
X137120000Y-175195000D01*
X137120000Y-176635000D01*
G36*
X137120000Y-176635000D02*
G01*
X135300000Y-176635000D01*
X135300000Y-175195000D01*
X137120000Y-175195000D01*
X137120000Y-176635000D01*
G37*
X137130000Y-172765000D02*
X135290000Y-172765000D01*
X135290000Y-171025000D01*
X137130000Y-171025000D01*
X137130000Y-172765000D01*
G36*
X137130000Y-172765000D02*
G01*
X135290000Y-172765000D01*
X135290000Y-171025000D01*
X137130000Y-171025000D01*
X137130000Y-172765000D01*
G37*
X137130000Y-174795000D02*
X135310000Y-174795000D01*
X135310000Y-173245000D01*
X137130000Y-173245000D01*
X137130000Y-174795000D01*
G36*
X137130000Y-174795000D02*
G01*
X135310000Y-174795000D01*
X135310000Y-173245000D01*
X137130000Y-173245000D01*
X137130000Y-174795000D01*
G37*
X137130000Y-178595000D02*
X135300000Y-178595000D01*
X135300000Y-177065000D01*
X137130000Y-177065000D01*
X137130000Y-178595000D01*
G36*
X137130000Y-178595000D02*
G01*
X135300000Y-178595000D01*
X135300000Y-177065000D01*
X137130000Y-177065000D01*
X137130000Y-178595000D01*
G37*
X139330000Y-172745000D02*
X137550000Y-172745000D01*
X137550000Y-171035000D01*
X139330000Y-171035000D01*
X139330000Y-172745000D01*
G36*
X139330000Y-172745000D02*
G01*
X137550000Y-172745000D01*
X137550000Y-171035000D01*
X139330000Y-171035000D01*
X139330000Y-172745000D01*
G37*
X139330000Y-176625000D02*
X137550000Y-176625000D01*
X137550000Y-175185000D01*
X139330000Y-175185000D01*
X139330000Y-176625000D01*
G36*
X139330000Y-176625000D02*
G01*
X137550000Y-176625000D01*
X137550000Y-175185000D01*
X139330000Y-175185000D01*
X139330000Y-176625000D01*
G37*
X139340000Y-174785000D02*
X137560000Y-174785000D01*
X137560000Y-173245000D01*
X139340000Y-173245000D01*
X139340000Y-174785000D01*
G36*
X139340000Y-174785000D02*
G01*
X137560000Y-174785000D01*
X137560000Y-173245000D01*
X139340000Y-173245000D01*
X139340000Y-174785000D01*
G37*
X139340000Y-178605000D02*
X137560000Y-178605000D01*
X137560000Y-177055000D01*
X139340000Y-177055000D01*
X139340000Y-178605000D01*
G36*
X139340000Y-178605000D02*
G01*
X137560000Y-178605000D01*
X137560000Y-177055000D01*
X139340000Y-177055000D01*
X139340000Y-178605000D01*
G37*
X141550000Y-178595000D02*
X139770000Y-178595000D01*
X139770000Y-177055000D01*
X141550000Y-177055000D01*
X141550000Y-178595000D01*
G36*
X141550000Y-178595000D02*
G01*
X139770000Y-178595000D01*
X139770000Y-177055000D01*
X141550000Y-177055000D01*
X141550000Y-178595000D01*
G37*
X141600000Y-174785000D02*
X139770000Y-174785000D01*
X139770000Y-173245000D01*
X141600000Y-173245000D01*
X141600000Y-174785000D01*
G36*
X141600000Y-174785000D02*
G01*
X139770000Y-174785000D01*
X139770000Y-173245000D01*
X141600000Y-173245000D01*
X141600000Y-174785000D01*
G37*
X141610000Y-172735000D02*
X139760000Y-172735000D01*
X139760000Y-171035000D01*
X141610000Y-171035000D01*
X141610000Y-172735000D01*
G36*
X141610000Y-172735000D02*
G01*
X139760000Y-172735000D01*
X139760000Y-171035000D01*
X141610000Y-171035000D01*
X141610000Y-172735000D01*
G37*
X141610000Y-176625000D02*
X139760000Y-176625000D01*
X139760000Y-175185000D01*
X141610000Y-175185000D01*
X141610000Y-176625000D01*
G36*
X141610000Y-176625000D02*
G01*
X139760000Y-176625000D01*
X139760000Y-175185000D01*
X141610000Y-175185000D01*
X141610000Y-176625000D01*
G37*
%TO.C,U45*%
X137120000Y-162945000D02*
X135300000Y-162945000D01*
X135300000Y-161505000D01*
X137120000Y-161505000D01*
X137120000Y-162945000D01*
G36*
X137120000Y-162945000D02*
G01*
X135300000Y-162945000D01*
X135300000Y-161505000D01*
X137120000Y-161505000D01*
X137120000Y-162945000D01*
G37*
X137130000Y-159075000D02*
X135290000Y-159075000D01*
X135290000Y-157335000D01*
X137130000Y-157335000D01*
X137130000Y-159075000D01*
G36*
X137130000Y-159075000D02*
G01*
X135290000Y-159075000D01*
X135290000Y-157335000D01*
X137130000Y-157335000D01*
X137130000Y-159075000D01*
G37*
X137130000Y-161105000D02*
X135310000Y-161105000D01*
X135310000Y-159555000D01*
X137130000Y-159555000D01*
X137130000Y-161105000D01*
G36*
X137130000Y-161105000D02*
G01*
X135310000Y-161105000D01*
X135310000Y-159555000D01*
X137130000Y-159555000D01*
X137130000Y-161105000D01*
G37*
X137130000Y-164905000D02*
X135300000Y-164905000D01*
X135300000Y-163375000D01*
X137130000Y-163375000D01*
X137130000Y-164905000D01*
G36*
X137130000Y-164905000D02*
G01*
X135300000Y-164905000D01*
X135300000Y-163375000D01*
X137130000Y-163375000D01*
X137130000Y-164905000D01*
G37*
X139330000Y-159055000D02*
X137550000Y-159055000D01*
X137550000Y-157345000D01*
X139330000Y-157345000D01*
X139330000Y-159055000D01*
G36*
X139330000Y-159055000D02*
G01*
X137550000Y-159055000D01*
X137550000Y-157345000D01*
X139330000Y-157345000D01*
X139330000Y-159055000D01*
G37*
X139330000Y-162935000D02*
X137550000Y-162935000D01*
X137550000Y-161495000D01*
X139330000Y-161495000D01*
X139330000Y-162935000D01*
G36*
X139330000Y-162935000D02*
G01*
X137550000Y-162935000D01*
X137550000Y-161495000D01*
X139330000Y-161495000D01*
X139330000Y-162935000D01*
G37*
X139340000Y-161095000D02*
X137560000Y-161095000D01*
X137560000Y-159555000D01*
X139340000Y-159555000D01*
X139340000Y-161095000D01*
G36*
X139340000Y-161095000D02*
G01*
X137560000Y-161095000D01*
X137560000Y-159555000D01*
X139340000Y-159555000D01*
X139340000Y-161095000D01*
G37*
X139340000Y-164915000D02*
X137560000Y-164915000D01*
X137560000Y-163365000D01*
X139340000Y-163365000D01*
X139340000Y-164915000D01*
G36*
X139340000Y-164915000D02*
G01*
X137560000Y-164915000D01*
X137560000Y-163365000D01*
X139340000Y-163365000D01*
X139340000Y-164915000D01*
G37*
X141550000Y-164905000D02*
X139770000Y-164905000D01*
X139770000Y-163365000D01*
X141550000Y-163365000D01*
X141550000Y-164905000D01*
G36*
X141550000Y-164905000D02*
G01*
X139770000Y-164905000D01*
X139770000Y-163365000D01*
X141550000Y-163365000D01*
X141550000Y-164905000D01*
G37*
X141600000Y-161095000D02*
X139770000Y-161095000D01*
X139770000Y-159555000D01*
X141600000Y-159555000D01*
X141600000Y-161095000D01*
G36*
X141600000Y-161095000D02*
G01*
X139770000Y-161095000D01*
X139770000Y-159555000D01*
X141600000Y-159555000D01*
X141600000Y-161095000D01*
G37*
X141610000Y-159045000D02*
X139760000Y-159045000D01*
X139760000Y-157345000D01*
X141610000Y-157345000D01*
X141610000Y-159045000D01*
G36*
X141610000Y-159045000D02*
G01*
X139760000Y-159045000D01*
X139760000Y-157345000D01*
X141610000Y-157345000D01*
X141610000Y-159045000D01*
G37*
X141610000Y-162935000D02*
X139760000Y-162935000D01*
X139760000Y-161495000D01*
X141610000Y-161495000D01*
X141610000Y-162935000D01*
G36*
X141610000Y-162935000D02*
G01*
X139760000Y-162935000D01*
X139760000Y-161495000D01*
X141610000Y-161495000D01*
X141610000Y-162935000D01*
G37*
%TO.C,U72*%
X204390000Y-186795000D02*
X206210000Y-186795000D01*
X206210000Y-188235000D01*
X204390000Y-188235000D01*
X204390000Y-186795000D01*
G36*
X204390000Y-186795000D02*
G01*
X206210000Y-186795000D01*
X206210000Y-188235000D01*
X204390000Y-188235000D01*
X204390000Y-186795000D01*
G37*
X204380000Y-190665000D02*
X206220000Y-190665000D01*
X206220000Y-192405000D01*
X204380000Y-192405000D01*
X204380000Y-190665000D01*
G36*
X204380000Y-190665000D02*
G01*
X206220000Y-190665000D01*
X206220000Y-192405000D01*
X204380000Y-192405000D01*
X204380000Y-190665000D01*
G37*
X204380000Y-188635000D02*
X206200000Y-188635000D01*
X206200000Y-190185000D01*
X204380000Y-190185000D01*
X204380000Y-188635000D01*
G36*
X204380000Y-188635000D02*
G01*
X206200000Y-188635000D01*
X206200000Y-190185000D01*
X204380000Y-190185000D01*
X204380000Y-188635000D01*
G37*
X204380000Y-184835000D02*
X206210000Y-184835000D01*
X206210000Y-186365000D01*
X204380000Y-186365000D01*
X204380000Y-184835000D01*
G36*
X204380000Y-184835000D02*
G01*
X206210000Y-184835000D01*
X206210000Y-186365000D01*
X204380000Y-186365000D01*
X204380000Y-184835000D01*
G37*
X202180000Y-190685000D02*
X203960000Y-190685000D01*
X203960000Y-192395000D01*
X202180000Y-192395000D01*
X202180000Y-190685000D01*
G36*
X202180000Y-190685000D02*
G01*
X203960000Y-190685000D01*
X203960000Y-192395000D01*
X202180000Y-192395000D01*
X202180000Y-190685000D01*
G37*
X202180000Y-186805000D02*
X203960000Y-186805000D01*
X203960000Y-188245000D01*
X202180000Y-188245000D01*
X202180000Y-186805000D01*
G36*
X202180000Y-186805000D02*
G01*
X203960000Y-186805000D01*
X203960000Y-188245000D01*
X202180000Y-188245000D01*
X202180000Y-186805000D01*
G37*
X202170000Y-188645000D02*
X203950000Y-188645000D01*
X203950000Y-190185000D01*
X202170000Y-190185000D01*
X202170000Y-188645000D01*
G36*
X202170000Y-188645000D02*
G01*
X203950000Y-188645000D01*
X203950000Y-190185000D01*
X202170000Y-190185000D01*
X202170000Y-188645000D01*
G37*
X202170000Y-184825000D02*
X203950000Y-184825000D01*
X203950000Y-186375000D01*
X202170000Y-186375000D01*
X202170000Y-184825000D01*
G36*
X202170000Y-184825000D02*
G01*
X203950000Y-184825000D01*
X203950000Y-186375000D01*
X202170000Y-186375000D01*
X202170000Y-184825000D01*
G37*
X199960000Y-184835000D02*
X201740000Y-184835000D01*
X201740000Y-186375000D01*
X199960000Y-186375000D01*
X199960000Y-184835000D01*
G36*
X199960000Y-184835000D02*
G01*
X201740000Y-184835000D01*
X201740000Y-186375000D01*
X199960000Y-186375000D01*
X199960000Y-184835000D01*
G37*
X199910000Y-188645000D02*
X201740000Y-188645000D01*
X201740000Y-190185000D01*
X199910000Y-190185000D01*
X199910000Y-188645000D01*
G36*
X199910000Y-188645000D02*
G01*
X201740000Y-188645000D01*
X201740000Y-190185000D01*
X199910000Y-190185000D01*
X199910000Y-188645000D01*
G37*
X199900000Y-190695000D02*
X201750000Y-190695000D01*
X201750000Y-192395000D01*
X199900000Y-192395000D01*
X199900000Y-190695000D01*
G36*
X199900000Y-190695000D02*
G01*
X201750000Y-190695000D01*
X201750000Y-192395000D01*
X199900000Y-192395000D01*
X199900000Y-190695000D01*
G37*
X199900000Y-186805000D02*
X201750000Y-186805000D01*
X201750000Y-188245000D01*
X199900000Y-188245000D01*
X199900000Y-186805000D01*
G36*
X199900000Y-186805000D02*
G01*
X201750000Y-186805000D01*
X201750000Y-188245000D01*
X199900000Y-188245000D01*
X199900000Y-186805000D01*
G37*
%TO.C,U63*%
X180160000Y-162975000D02*
X178340000Y-162975000D01*
X178340000Y-161535000D01*
X180160000Y-161535000D01*
X180160000Y-162975000D01*
G36*
X180160000Y-162975000D02*
G01*
X178340000Y-162975000D01*
X178340000Y-161535000D01*
X180160000Y-161535000D01*
X180160000Y-162975000D01*
G37*
X180170000Y-159105000D02*
X178330000Y-159105000D01*
X178330000Y-157365000D01*
X180170000Y-157365000D01*
X180170000Y-159105000D01*
G36*
X180170000Y-159105000D02*
G01*
X178330000Y-159105000D01*
X178330000Y-157365000D01*
X180170000Y-157365000D01*
X180170000Y-159105000D01*
G37*
X180170000Y-161135000D02*
X178350000Y-161135000D01*
X178350000Y-159585000D01*
X180170000Y-159585000D01*
X180170000Y-161135000D01*
G36*
X180170000Y-161135000D02*
G01*
X178350000Y-161135000D01*
X178350000Y-159585000D01*
X180170000Y-159585000D01*
X180170000Y-161135000D01*
G37*
X180170000Y-164935000D02*
X178340000Y-164935000D01*
X178340000Y-163405000D01*
X180170000Y-163405000D01*
X180170000Y-164935000D01*
G36*
X180170000Y-164935000D02*
G01*
X178340000Y-164935000D01*
X178340000Y-163405000D01*
X180170000Y-163405000D01*
X180170000Y-164935000D01*
G37*
X182370000Y-159085000D02*
X180590000Y-159085000D01*
X180590000Y-157375000D01*
X182370000Y-157375000D01*
X182370000Y-159085000D01*
G36*
X182370000Y-159085000D02*
G01*
X180590000Y-159085000D01*
X180590000Y-157375000D01*
X182370000Y-157375000D01*
X182370000Y-159085000D01*
G37*
X182370000Y-162965000D02*
X180590000Y-162965000D01*
X180590000Y-161525000D01*
X182370000Y-161525000D01*
X182370000Y-162965000D01*
G36*
X182370000Y-162965000D02*
G01*
X180590000Y-162965000D01*
X180590000Y-161525000D01*
X182370000Y-161525000D01*
X182370000Y-162965000D01*
G37*
X182380000Y-161125000D02*
X180600000Y-161125000D01*
X180600000Y-159585000D01*
X182380000Y-159585000D01*
X182380000Y-161125000D01*
G36*
X182380000Y-161125000D02*
G01*
X180600000Y-161125000D01*
X180600000Y-159585000D01*
X182380000Y-159585000D01*
X182380000Y-161125000D01*
G37*
X182380000Y-164945000D02*
X180600000Y-164945000D01*
X180600000Y-163395000D01*
X182380000Y-163395000D01*
X182380000Y-164945000D01*
G36*
X182380000Y-164945000D02*
G01*
X180600000Y-164945000D01*
X180600000Y-163395000D01*
X182380000Y-163395000D01*
X182380000Y-164945000D01*
G37*
X184590000Y-164935000D02*
X182810000Y-164935000D01*
X182810000Y-163395000D01*
X184590000Y-163395000D01*
X184590000Y-164935000D01*
G36*
X184590000Y-164935000D02*
G01*
X182810000Y-164935000D01*
X182810000Y-163395000D01*
X184590000Y-163395000D01*
X184590000Y-164935000D01*
G37*
X184640000Y-161125000D02*
X182810000Y-161125000D01*
X182810000Y-159585000D01*
X184640000Y-159585000D01*
X184640000Y-161125000D01*
G36*
X184640000Y-161125000D02*
G01*
X182810000Y-161125000D01*
X182810000Y-159585000D01*
X184640000Y-159585000D01*
X184640000Y-161125000D01*
G37*
X184650000Y-159075000D02*
X182800000Y-159075000D01*
X182800000Y-157375000D01*
X184650000Y-157375000D01*
X184650000Y-159075000D01*
G36*
X184650000Y-159075000D02*
G01*
X182800000Y-159075000D01*
X182800000Y-157375000D01*
X184650000Y-157375000D01*
X184650000Y-159075000D01*
G37*
X184650000Y-162965000D02*
X182800000Y-162965000D01*
X182800000Y-161525000D01*
X184650000Y-161525000D01*
X184650000Y-162965000D01*
G36*
X184650000Y-162965000D02*
G01*
X182800000Y-162965000D01*
X182800000Y-161525000D01*
X184650000Y-161525000D01*
X184650000Y-162965000D01*
G37*
%TO.C,U64*%
X180160000Y-176655000D02*
X178340000Y-176655000D01*
X178340000Y-175215000D01*
X180160000Y-175215000D01*
X180160000Y-176655000D01*
G36*
X180160000Y-176655000D02*
G01*
X178340000Y-176655000D01*
X178340000Y-175215000D01*
X180160000Y-175215000D01*
X180160000Y-176655000D01*
G37*
X180170000Y-172785000D02*
X178330000Y-172785000D01*
X178330000Y-171045000D01*
X180170000Y-171045000D01*
X180170000Y-172785000D01*
G36*
X180170000Y-172785000D02*
G01*
X178330000Y-172785000D01*
X178330000Y-171045000D01*
X180170000Y-171045000D01*
X180170000Y-172785000D01*
G37*
X180170000Y-174815000D02*
X178350000Y-174815000D01*
X178350000Y-173265000D01*
X180170000Y-173265000D01*
X180170000Y-174815000D01*
G36*
X180170000Y-174815000D02*
G01*
X178350000Y-174815000D01*
X178350000Y-173265000D01*
X180170000Y-173265000D01*
X180170000Y-174815000D01*
G37*
X180170000Y-178615000D02*
X178340000Y-178615000D01*
X178340000Y-177085000D01*
X180170000Y-177085000D01*
X180170000Y-178615000D01*
G36*
X180170000Y-178615000D02*
G01*
X178340000Y-178615000D01*
X178340000Y-177085000D01*
X180170000Y-177085000D01*
X180170000Y-178615000D01*
G37*
X182370000Y-172765000D02*
X180590000Y-172765000D01*
X180590000Y-171055000D01*
X182370000Y-171055000D01*
X182370000Y-172765000D01*
G36*
X182370000Y-172765000D02*
G01*
X180590000Y-172765000D01*
X180590000Y-171055000D01*
X182370000Y-171055000D01*
X182370000Y-172765000D01*
G37*
X182370000Y-176645000D02*
X180590000Y-176645000D01*
X180590000Y-175205000D01*
X182370000Y-175205000D01*
X182370000Y-176645000D01*
G36*
X182370000Y-176645000D02*
G01*
X180590000Y-176645000D01*
X180590000Y-175205000D01*
X182370000Y-175205000D01*
X182370000Y-176645000D01*
G37*
X182380000Y-174805000D02*
X180600000Y-174805000D01*
X180600000Y-173265000D01*
X182380000Y-173265000D01*
X182380000Y-174805000D01*
G36*
X182380000Y-174805000D02*
G01*
X180600000Y-174805000D01*
X180600000Y-173265000D01*
X182380000Y-173265000D01*
X182380000Y-174805000D01*
G37*
X182380000Y-178625000D02*
X180600000Y-178625000D01*
X180600000Y-177075000D01*
X182380000Y-177075000D01*
X182380000Y-178625000D01*
G36*
X182380000Y-178625000D02*
G01*
X180600000Y-178625000D01*
X180600000Y-177075000D01*
X182380000Y-177075000D01*
X182380000Y-178625000D01*
G37*
X184590000Y-178615000D02*
X182810000Y-178615000D01*
X182810000Y-177075000D01*
X184590000Y-177075000D01*
X184590000Y-178615000D01*
G36*
X184590000Y-178615000D02*
G01*
X182810000Y-178615000D01*
X182810000Y-177075000D01*
X184590000Y-177075000D01*
X184590000Y-178615000D01*
G37*
X184640000Y-174805000D02*
X182810000Y-174805000D01*
X182810000Y-173265000D01*
X184640000Y-173265000D01*
X184640000Y-174805000D01*
G36*
X184640000Y-174805000D02*
G01*
X182810000Y-174805000D01*
X182810000Y-173265000D01*
X184640000Y-173265000D01*
X184640000Y-174805000D01*
G37*
X184650000Y-172755000D02*
X182800000Y-172755000D01*
X182800000Y-171055000D01*
X184650000Y-171055000D01*
X184650000Y-172755000D01*
G36*
X184650000Y-172755000D02*
G01*
X182800000Y-172755000D01*
X182800000Y-171055000D01*
X184650000Y-171055000D01*
X184650000Y-172755000D01*
G37*
X184650000Y-176645000D02*
X182800000Y-176645000D01*
X182800000Y-175205000D01*
X184650000Y-175205000D01*
X184650000Y-176645000D01*
G36*
X184650000Y-176645000D02*
G01*
X182800000Y-176645000D01*
X182800000Y-175205000D01*
X184650000Y-175205000D01*
X184650000Y-176645000D01*
G37*
%TO.C,U73*%
X204390000Y-173105000D02*
X206210000Y-173105000D01*
X206210000Y-174545000D01*
X204390000Y-174545000D01*
X204390000Y-173105000D01*
G36*
X204390000Y-173105000D02*
G01*
X206210000Y-173105000D01*
X206210000Y-174545000D01*
X204390000Y-174545000D01*
X204390000Y-173105000D01*
G37*
X204380000Y-176975000D02*
X206220000Y-176975000D01*
X206220000Y-178715000D01*
X204380000Y-178715000D01*
X204380000Y-176975000D01*
G36*
X204380000Y-176975000D02*
G01*
X206220000Y-176975000D01*
X206220000Y-178715000D01*
X204380000Y-178715000D01*
X204380000Y-176975000D01*
G37*
X204380000Y-174945000D02*
X206200000Y-174945000D01*
X206200000Y-176495000D01*
X204380000Y-176495000D01*
X204380000Y-174945000D01*
G36*
X204380000Y-174945000D02*
G01*
X206200000Y-174945000D01*
X206200000Y-176495000D01*
X204380000Y-176495000D01*
X204380000Y-174945000D01*
G37*
X204380000Y-171145000D02*
X206210000Y-171145000D01*
X206210000Y-172675000D01*
X204380000Y-172675000D01*
X204380000Y-171145000D01*
G36*
X204380000Y-171145000D02*
G01*
X206210000Y-171145000D01*
X206210000Y-172675000D01*
X204380000Y-172675000D01*
X204380000Y-171145000D01*
G37*
X202180000Y-176995000D02*
X203960000Y-176995000D01*
X203960000Y-178705000D01*
X202180000Y-178705000D01*
X202180000Y-176995000D01*
G36*
X202180000Y-176995000D02*
G01*
X203960000Y-176995000D01*
X203960000Y-178705000D01*
X202180000Y-178705000D01*
X202180000Y-176995000D01*
G37*
X202180000Y-173115000D02*
X203960000Y-173115000D01*
X203960000Y-174555000D01*
X202180000Y-174555000D01*
X202180000Y-173115000D01*
G36*
X202180000Y-173115000D02*
G01*
X203960000Y-173115000D01*
X203960000Y-174555000D01*
X202180000Y-174555000D01*
X202180000Y-173115000D01*
G37*
X202170000Y-174955000D02*
X203950000Y-174955000D01*
X203950000Y-176495000D01*
X202170000Y-176495000D01*
X202170000Y-174955000D01*
G36*
X202170000Y-174955000D02*
G01*
X203950000Y-174955000D01*
X203950000Y-176495000D01*
X202170000Y-176495000D01*
X202170000Y-174955000D01*
G37*
X202170000Y-171135000D02*
X203950000Y-171135000D01*
X203950000Y-172685000D01*
X202170000Y-172685000D01*
X202170000Y-171135000D01*
G36*
X202170000Y-171135000D02*
G01*
X203950000Y-171135000D01*
X203950000Y-172685000D01*
X202170000Y-172685000D01*
X202170000Y-171135000D01*
G37*
X199960000Y-171145000D02*
X201740000Y-171145000D01*
X201740000Y-172685000D01*
X199960000Y-172685000D01*
X199960000Y-171145000D01*
G36*
X199960000Y-171145000D02*
G01*
X201740000Y-171145000D01*
X201740000Y-172685000D01*
X199960000Y-172685000D01*
X199960000Y-171145000D01*
G37*
X199910000Y-174955000D02*
X201740000Y-174955000D01*
X201740000Y-176495000D01*
X199910000Y-176495000D01*
X199910000Y-174955000D01*
G36*
X199910000Y-174955000D02*
G01*
X201740000Y-174955000D01*
X201740000Y-176495000D01*
X199910000Y-176495000D01*
X199910000Y-174955000D01*
G37*
X199900000Y-177005000D02*
X201750000Y-177005000D01*
X201750000Y-178705000D01*
X199900000Y-178705000D01*
X199900000Y-177005000D01*
G36*
X199900000Y-177005000D02*
G01*
X201750000Y-177005000D01*
X201750000Y-178705000D01*
X199900000Y-178705000D01*
X199900000Y-177005000D01*
G37*
X199900000Y-173115000D02*
X201750000Y-173115000D01*
X201750000Y-174555000D01*
X199900000Y-174555000D01*
X199900000Y-173115000D01*
G36*
X199900000Y-173115000D02*
G01*
X201750000Y-173115000D01*
X201750000Y-174555000D01*
X199900000Y-174555000D01*
X199900000Y-173115000D01*
G37*
%TO.C,U56*%
X161350000Y-159335000D02*
X163170000Y-159335000D01*
X163170000Y-160775000D01*
X161350000Y-160775000D01*
X161350000Y-159335000D01*
G36*
X161350000Y-159335000D02*
G01*
X163170000Y-159335000D01*
X163170000Y-160775000D01*
X161350000Y-160775000D01*
X161350000Y-159335000D01*
G37*
X161340000Y-163205000D02*
X163180000Y-163205000D01*
X163180000Y-164945000D01*
X161340000Y-164945000D01*
X161340000Y-163205000D01*
G36*
X161340000Y-163205000D02*
G01*
X163180000Y-163205000D01*
X163180000Y-164945000D01*
X161340000Y-164945000D01*
X161340000Y-163205000D01*
G37*
X161340000Y-161175000D02*
X163160000Y-161175000D01*
X163160000Y-162725000D01*
X161340000Y-162725000D01*
X161340000Y-161175000D01*
G36*
X161340000Y-161175000D02*
G01*
X163160000Y-161175000D01*
X163160000Y-162725000D01*
X161340000Y-162725000D01*
X161340000Y-161175000D01*
G37*
X161340000Y-157375000D02*
X163170000Y-157375000D01*
X163170000Y-158905000D01*
X161340000Y-158905000D01*
X161340000Y-157375000D01*
G36*
X161340000Y-157375000D02*
G01*
X163170000Y-157375000D01*
X163170000Y-158905000D01*
X161340000Y-158905000D01*
X161340000Y-157375000D01*
G37*
X159140000Y-163225000D02*
X160920000Y-163225000D01*
X160920000Y-164935000D01*
X159140000Y-164935000D01*
X159140000Y-163225000D01*
G36*
X159140000Y-163225000D02*
G01*
X160920000Y-163225000D01*
X160920000Y-164935000D01*
X159140000Y-164935000D01*
X159140000Y-163225000D01*
G37*
X159140000Y-159345000D02*
X160920000Y-159345000D01*
X160920000Y-160785000D01*
X159140000Y-160785000D01*
X159140000Y-159345000D01*
G36*
X159140000Y-159345000D02*
G01*
X160920000Y-159345000D01*
X160920000Y-160785000D01*
X159140000Y-160785000D01*
X159140000Y-159345000D01*
G37*
X159130000Y-161185000D02*
X160910000Y-161185000D01*
X160910000Y-162725000D01*
X159130000Y-162725000D01*
X159130000Y-161185000D01*
G36*
X159130000Y-161185000D02*
G01*
X160910000Y-161185000D01*
X160910000Y-162725000D01*
X159130000Y-162725000D01*
X159130000Y-161185000D01*
G37*
X159130000Y-157365000D02*
X160910000Y-157365000D01*
X160910000Y-158915000D01*
X159130000Y-158915000D01*
X159130000Y-157365000D01*
G36*
X159130000Y-157365000D02*
G01*
X160910000Y-157365000D01*
X160910000Y-158915000D01*
X159130000Y-158915000D01*
X159130000Y-157365000D01*
G37*
X156920000Y-157375000D02*
X158700000Y-157375000D01*
X158700000Y-158915000D01*
X156920000Y-158915000D01*
X156920000Y-157375000D01*
G36*
X156920000Y-157375000D02*
G01*
X158700000Y-157375000D01*
X158700000Y-158915000D01*
X156920000Y-158915000D01*
X156920000Y-157375000D01*
G37*
X156870000Y-161185000D02*
X158700000Y-161185000D01*
X158700000Y-162725000D01*
X156870000Y-162725000D01*
X156870000Y-161185000D01*
G36*
X156870000Y-161185000D02*
G01*
X158700000Y-161185000D01*
X158700000Y-162725000D01*
X156870000Y-162725000D01*
X156870000Y-161185000D01*
G37*
X156860000Y-163235000D02*
X158710000Y-163235000D01*
X158710000Y-164935000D01*
X156860000Y-164935000D01*
X156860000Y-163235000D01*
G36*
X156860000Y-163235000D02*
G01*
X158710000Y-163235000D01*
X158710000Y-164935000D01*
X156860000Y-164935000D01*
X156860000Y-163235000D01*
G37*
X156860000Y-159345000D02*
X158710000Y-159345000D01*
X158710000Y-160785000D01*
X156860000Y-160785000D01*
X156860000Y-159345000D01*
G36*
X156860000Y-159345000D02*
G01*
X158710000Y-159345000D01*
X158710000Y-160785000D01*
X156860000Y-160785000D01*
X156860000Y-159345000D01*
G37*
D11*
%TO.C,Q4*%
G36*
X197279998Y-111395001D02*
G01*
X196869999Y-111395001D01*
X196869999Y-111170001D01*
X197279998Y-111170001D01*
X197279998Y-111395001D01*
G37*
G36*
X198550001Y-111395001D02*
G01*
X198140002Y-111395001D01*
X198140002Y-111170001D01*
X198550001Y-111170001D01*
X198550001Y-111395001D01*
G37*
G36*
X199819996Y-111395001D02*
G01*
X199409997Y-111395001D01*
X199409997Y-111170001D01*
X199819996Y-111170001D01*
X199819996Y-111395001D01*
G37*
G36*
X201089998Y-111395001D02*
G01*
X200679999Y-111395001D01*
X200679999Y-111170001D01*
X201089998Y-111170001D01*
X201089998Y-111395001D01*
G37*
G36*
X201172985Y-111356002D02*
G01*
X201182777Y-111358974D01*
X201191802Y-111363798D01*
X201199711Y-111370290D01*
X201206203Y-111378199D01*
X201211027Y-111387224D01*
X201213999Y-111397016D01*
X201214999Y-111407201D01*
X201214999Y-114782800D01*
X201213999Y-114792985D01*
X201211027Y-114802777D01*
X201206203Y-114811802D01*
X201199711Y-114819711D01*
X201191802Y-114826204D01*
X201182777Y-114831027D01*
X201172985Y-114833999D01*
X201162800Y-114835000D01*
X196797200Y-114835000D01*
X196787015Y-114833999D01*
X196777223Y-114831027D01*
X196768198Y-114826204D01*
X196760289Y-114819711D01*
X196753797Y-114811802D01*
X196748973Y-114802777D01*
X196746001Y-114792985D01*
X196745001Y-114782800D01*
X196745001Y-111407201D01*
X196746001Y-111397016D01*
X196748973Y-111387224D01*
X196753797Y-111378199D01*
X196760289Y-111370290D01*
X196768198Y-111363798D01*
X196777223Y-111358974D01*
X196787015Y-111356002D01*
X196797200Y-111354999D01*
X201162800Y-111354999D01*
X201172985Y-111356002D01*
G37*
%TO.C,Q2*%
G36*
X156194998Y-111430000D02*
G01*
X155784999Y-111430000D01*
X155784999Y-111205000D01*
X156194998Y-111205000D01*
X156194998Y-111430000D01*
G37*
G36*
X157465001Y-111430000D02*
G01*
X157055002Y-111430000D01*
X157055002Y-111205000D01*
X157465001Y-111205000D01*
X157465001Y-111430000D01*
G37*
G36*
X158734996Y-111430000D02*
G01*
X158324997Y-111430000D01*
X158324997Y-111205000D01*
X158734996Y-111205000D01*
X158734996Y-111430000D01*
G37*
G36*
X160004998Y-111430000D02*
G01*
X159594999Y-111430000D01*
X159594999Y-111205000D01*
X160004998Y-111205000D01*
X160004998Y-111430000D01*
G37*
G36*
X160087985Y-111391001D02*
G01*
X160097777Y-111393973D01*
X160106802Y-111398797D01*
X160114711Y-111405289D01*
X160121203Y-111413198D01*
X160126027Y-111422223D01*
X160128999Y-111432015D01*
X160129999Y-111442200D01*
X160129999Y-114817799D01*
X160128999Y-114827984D01*
X160126027Y-114837776D01*
X160121203Y-114846801D01*
X160114711Y-114854710D01*
X160106802Y-114861203D01*
X160097777Y-114866026D01*
X160087985Y-114868998D01*
X160077800Y-114869999D01*
X155712200Y-114869999D01*
X155702015Y-114868998D01*
X155692223Y-114866026D01*
X155683198Y-114861203D01*
X155675289Y-114854710D01*
X155668797Y-114846801D01*
X155663973Y-114837776D01*
X155661001Y-114827984D01*
X155660001Y-114817799D01*
X155660001Y-111442200D01*
X155661001Y-111432015D01*
X155663973Y-111422223D01*
X155668797Y-111413198D01*
X155675289Y-111405289D01*
X155683198Y-111398797D01*
X155692223Y-111393973D01*
X155702015Y-111391001D01*
X155712200Y-111389998D01*
X160077800Y-111389998D01*
X160087985Y-111391001D01*
G37*
%TO.C,Q3*%
G36*
X196898950Y-105083950D02*
G01*
X196673950Y-105083950D01*
X196673950Y-104673951D01*
X196898950Y-104673951D01*
X196898950Y-105083950D01*
G37*
G36*
X196898950Y-106353952D02*
G01*
X196673950Y-106353952D01*
X196673950Y-105943953D01*
X196898950Y-105943953D01*
X196898950Y-106353952D01*
G37*
G36*
X196898950Y-107623947D02*
G01*
X196673950Y-107623947D01*
X196673950Y-107213948D01*
X196898950Y-107213948D01*
X196898950Y-107623947D01*
G37*
G36*
X196898950Y-108893950D02*
G01*
X196673950Y-108893950D01*
X196673950Y-108483951D01*
X196898950Y-108483951D01*
X196898950Y-108893950D01*
G37*
G36*
X200296934Y-104549950D02*
G01*
X200306726Y-104552922D01*
X200315751Y-104557746D01*
X200323660Y-104564238D01*
X200330153Y-104572147D01*
X200334976Y-104581172D01*
X200337948Y-104590964D01*
X200338949Y-104601149D01*
X200338949Y-108966749D01*
X200337948Y-108976934D01*
X200334976Y-108986726D01*
X200330153Y-108995751D01*
X200323660Y-109003660D01*
X200315751Y-109010152D01*
X200306726Y-109014976D01*
X200296934Y-109017948D01*
X200286749Y-109018948D01*
X196911150Y-109018948D01*
X196900965Y-109017948D01*
X196891173Y-109014976D01*
X196882148Y-109010152D01*
X196874239Y-109003660D01*
X196867747Y-108995751D01*
X196862923Y-108986726D01*
X196859951Y-108976934D01*
X196858948Y-108966749D01*
X196858948Y-104601149D01*
X196859951Y-104590964D01*
X196862923Y-104581172D01*
X196867747Y-104572147D01*
X196874239Y-104564238D01*
X196882148Y-104557746D01*
X196891173Y-104552922D01*
X196900965Y-104549950D01*
X196911150Y-104548950D01*
X200286749Y-104548950D01*
X200296934Y-104549950D01*
G37*
%TO.C,Q1*%
G36*
X160273948Y-105173947D02*
G01*
X160048948Y-105173947D01*
X160048948Y-104763948D01*
X160273948Y-104763948D01*
X160273948Y-105173947D01*
G37*
G36*
X160273948Y-106443950D02*
G01*
X160048948Y-106443950D01*
X160048948Y-106033951D01*
X160273948Y-106033951D01*
X160273948Y-106443950D01*
G37*
G36*
X160273948Y-107713945D02*
G01*
X160048948Y-107713945D01*
X160048948Y-107303946D01*
X160273948Y-107303946D01*
X160273948Y-107713945D01*
G37*
G36*
X160273948Y-108983947D02*
G01*
X160048948Y-108983947D01*
X160048948Y-108573948D01*
X160273948Y-108573948D01*
X160273948Y-108983947D01*
G37*
G36*
X160046933Y-104639950D02*
G01*
X160056725Y-104642922D01*
X160065750Y-104647746D01*
X160073659Y-104654238D01*
X160080151Y-104662147D01*
X160084975Y-104671172D01*
X160087947Y-104680964D01*
X160088950Y-104691149D01*
X160088950Y-109056749D01*
X160087947Y-109066934D01*
X160084975Y-109076726D01*
X160080151Y-109085751D01*
X160073659Y-109093660D01*
X160065750Y-109100152D01*
X160056725Y-109104976D01*
X160046933Y-109107948D01*
X160036748Y-109108948D01*
X156661149Y-109108948D01*
X156650964Y-109107948D01*
X156641172Y-109104976D01*
X156632147Y-109100152D01*
X156624238Y-109093660D01*
X156617745Y-109085751D01*
X156612922Y-109076726D01*
X156609950Y-109066934D01*
X156608949Y-109056749D01*
X156608949Y-104691149D01*
X156609950Y-104680964D01*
X156612922Y-104671172D01*
X156617745Y-104662147D01*
X156624238Y-104654238D01*
X156632147Y-104647746D01*
X156641172Y-104642922D01*
X156650964Y-104639950D01*
X156661149Y-104638950D01*
X160036748Y-104638950D01*
X160046933Y-104639950D01*
G37*
%TD*%
D12*
%TO.C,C4*%
X173200000Y-111760000D03*
X180108800Y-111760000D03*
%TD*%
D13*
%TO.C,C1*%
X166300000Y-108457900D03*
X166300000Y-115366700D03*
%TD*%
D12*
%TO.C,C3*%
X173200000Y-102300000D03*
X180108800Y-102300000D03*
%TD*%
D14*
%TO.C,U55*%
X164050000Y-178410000D03*
X164050000Y-177760000D03*
X164050000Y-177110000D03*
X164050000Y-176460000D03*
X164050000Y-175810000D03*
X164050000Y-175160000D03*
X164050000Y-174510000D03*
X164050000Y-173860000D03*
X164050000Y-173210000D03*
X164050000Y-172560000D03*
X164050000Y-171910000D03*
X164050000Y-171260000D03*
X155990000Y-171260000D03*
X155990000Y-171910000D03*
X155990000Y-172560000D03*
X155990000Y-173210000D03*
X155990000Y-173860000D03*
X155990000Y-174510000D03*
X155990000Y-175160000D03*
X155990000Y-175810000D03*
X155990000Y-176460000D03*
X155990000Y-177110000D03*
X155990000Y-177760000D03*
X155990000Y-178410000D03*
D15*
X162910000Y-174685000D03*
X162908000Y-172815000D03*
X162078572Y-174685000D03*
X162076572Y-172815000D03*
X161250000Y-171945000D03*
X161247144Y-174685000D03*
X161245144Y-172815000D03*
X161230000Y-175595000D03*
X161220000Y-173805000D03*
X160415716Y-174685000D03*
X160413716Y-172815000D03*
X159584288Y-174685000D03*
X159582288Y-172815000D03*
X158760000Y-175595000D03*
X158760000Y-171955000D03*
X158752860Y-174685000D03*
X158750860Y-172815000D03*
X158750000Y-173825000D03*
X157921432Y-174685000D03*
X157919432Y-172815000D03*
X157090000Y-174685000D03*
X157088000Y-172815000D03*
%TD*%
D16*
%TO.C,U65*%
X177440000Y-184950000D03*
X177440000Y-185600000D03*
X177440000Y-186250000D03*
X177440000Y-186900000D03*
X177440000Y-187550000D03*
X177440000Y-188200000D03*
X177440000Y-188850000D03*
X177440000Y-189500000D03*
X177440000Y-190150000D03*
X177440000Y-190800000D03*
X177440000Y-191450000D03*
X177440000Y-192100000D03*
X185500000Y-192100000D03*
X185500000Y-191450000D03*
X185500000Y-190800000D03*
X185500000Y-190150000D03*
X185500000Y-189500000D03*
X185500000Y-188850000D03*
X185500000Y-188200000D03*
X185500000Y-187550000D03*
X185500000Y-186900000D03*
X185500000Y-186250000D03*
X185500000Y-185600000D03*
X185500000Y-184950000D03*
D15*
X178580000Y-188675000D03*
X178582000Y-190545000D03*
X179411428Y-188675000D03*
X179413428Y-190545000D03*
X180240000Y-191415000D03*
X180242856Y-188675000D03*
X180244856Y-190545000D03*
X180260000Y-187765000D03*
X180270000Y-189555000D03*
X181074284Y-188675000D03*
X181076284Y-190545000D03*
X181905712Y-188675000D03*
X181907712Y-190545000D03*
X182730000Y-187765000D03*
X182730000Y-191405000D03*
X182737140Y-188675000D03*
X182739140Y-190545000D03*
X182740000Y-189535000D03*
X183568568Y-188675000D03*
X183570568Y-190545000D03*
X184400000Y-188675000D03*
X184402000Y-190545000D03*
%TD*%
D16*
%TO.C,U47*%
X134400000Y-184920000D03*
X134400000Y-185570000D03*
X134400000Y-186220000D03*
X134400000Y-186870000D03*
X134400000Y-187520000D03*
X134400000Y-188170000D03*
X134400000Y-188820000D03*
X134400000Y-189470000D03*
X134400000Y-190120000D03*
X134400000Y-190770000D03*
X134400000Y-191420000D03*
X134400000Y-192070000D03*
X142460000Y-192070000D03*
X142460000Y-191420000D03*
X142460000Y-190770000D03*
X142460000Y-190120000D03*
X142460000Y-189470000D03*
X142460000Y-188820000D03*
X142460000Y-188170000D03*
X142460000Y-187520000D03*
X142460000Y-186870000D03*
X142460000Y-186220000D03*
X142460000Y-185570000D03*
X142460000Y-184920000D03*
D15*
X135540000Y-188645000D03*
X135542000Y-190515000D03*
X136371428Y-188645000D03*
X136373428Y-190515000D03*
X137200000Y-191385000D03*
X137202856Y-188645000D03*
X137204856Y-190515000D03*
X137220000Y-187735000D03*
X137230000Y-189525000D03*
X138034284Y-188645000D03*
X138036284Y-190515000D03*
X138865712Y-188645000D03*
X138867712Y-190515000D03*
X139690000Y-187735000D03*
X139690000Y-191375000D03*
X139697140Y-188645000D03*
X139699140Y-190515000D03*
X139700000Y-189505000D03*
X140528568Y-188645000D03*
X140530568Y-190515000D03*
X141360000Y-188645000D03*
X141362000Y-190515000D03*
%TD*%
D14*
%TO.C,U74*%
X207110000Y-164820000D03*
X207110000Y-164170000D03*
X207110000Y-163520000D03*
X207110000Y-162870000D03*
X207110000Y-162220000D03*
X207110000Y-161570000D03*
X207110000Y-160920000D03*
X207110000Y-160270000D03*
X207110000Y-159620000D03*
X207110000Y-158970000D03*
X207110000Y-158320000D03*
X207110000Y-157670000D03*
X199050000Y-157670000D03*
X199050000Y-158320000D03*
X199050000Y-158970000D03*
X199050000Y-159620000D03*
X199050000Y-160270000D03*
X199050000Y-160920000D03*
X199050000Y-161570000D03*
X199050000Y-162220000D03*
X199050000Y-162870000D03*
X199050000Y-163520000D03*
X199050000Y-164170000D03*
X199050000Y-164820000D03*
D15*
X205970000Y-161095000D03*
X205968000Y-159225000D03*
X205138572Y-161095000D03*
X205136572Y-159225000D03*
X204310000Y-158355000D03*
X204307144Y-161095000D03*
X204305144Y-159225000D03*
X204290000Y-162005000D03*
X204280000Y-160215000D03*
X203475716Y-161095000D03*
X203473716Y-159225000D03*
X202644288Y-161095000D03*
X202642288Y-159225000D03*
X201820000Y-162005000D03*
X201820000Y-158365000D03*
X201812860Y-161095000D03*
X201810860Y-159225000D03*
X201810000Y-160235000D03*
X200981432Y-161095000D03*
X200979432Y-159225000D03*
X200150000Y-161095000D03*
X200148000Y-159225000D03*
%TD*%
D14*
%TO.C,U54*%
X164050000Y-192080000D03*
X164050000Y-191430000D03*
X164050000Y-190780000D03*
X164050000Y-190130000D03*
X164050000Y-189480000D03*
X164050000Y-188830000D03*
X164050000Y-188180000D03*
X164050000Y-187530000D03*
X164050000Y-186880000D03*
X164050000Y-186230000D03*
X164050000Y-185580000D03*
X164050000Y-184930000D03*
X155990000Y-184930000D03*
X155990000Y-185580000D03*
X155990000Y-186230000D03*
X155990000Y-186880000D03*
X155990000Y-187530000D03*
X155990000Y-188180000D03*
X155990000Y-188830000D03*
X155990000Y-189480000D03*
X155990000Y-190130000D03*
X155990000Y-190780000D03*
X155990000Y-191430000D03*
X155990000Y-192080000D03*
D15*
X162910000Y-188355000D03*
X162908000Y-186485000D03*
X162078572Y-188355000D03*
X162076572Y-186485000D03*
X161250000Y-185615000D03*
X161247144Y-188355000D03*
X161245144Y-186485000D03*
X161230000Y-189265000D03*
X161220000Y-187475000D03*
X160415716Y-188355000D03*
X160413716Y-186485000D03*
X159584288Y-188355000D03*
X159582288Y-186485000D03*
X158760000Y-189265000D03*
X158760000Y-185625000D03*
X158752860Y-188355000D03*
X158750860Y-186485000D03*
X158750000Y-187495000D03*
X157921432Y-188355000D03*
X157919432Y-186485000D03*
X157090000Y-188355000D03*
X157088000Y-186485000D03*
%TD*%
D16*
%TO.C,U46*%
X134400000Y-171240000D03*
X134400000Y-171890000D03*
X134400000Y-172540000D03*
X134400000Y-173190000D03*
X134400000Y-173840000D03*
X134400000Y-174490000D03*
X134400000Y-175140000D03*
X134400000Y-175790000D03*
X134400000Y-176440000D03*
X134400000Y-177090000D03*
X134400000Y-177740000D03*
X134400000Y-178390000D03*
X142460000Y-178390000D03*
X142460000Y-177740000D03*
X142460000Y-177090000D03*
X142460000Y-176440000D03*
X142460000Y-175790000D03*
X142460000Y-175140000D03*
X142460000Y-174490000D03*
X142460000Y-173840000D03*
X142460000Y-173190000D03*
X142460000Y-172540000D03*
X142460000Y-171890000D03*
X142460000Y-171240000D03*
D15*
X135540000Y-174965000D03*
X135542000Y-176835000D03*
X136371428Y-174965000D03*
X136373428Y-176835000D03*
X137200000Y-177705000D03*
X137202856Y-174965000D03*
X137204856Y-176835000D03*
X137220000Y-174055000D03*
X137230000Y-175845000D03*
X138034284Y-174965000D03*
X138036284Y-176835000D03*
X138865712Y-174965000D03*
X138867712Y-176835000D03*
X139690000Y-174055000D03*
X139690000Y-177695000D03*
X139697140Y-174965000D03*
X139699140Y-176835000D03*
X139700000Y-175825000D03*
X140528568Y-174965000D03*
X140530568Y-176835000D03*
X141360000Y-174965000D03*
X141362000Y-176835000D03*
%TD*%
D16*
%TO.C,U45*%
X134400000Y-157550000D03*
X134400000Y-158200000D03*
X134400000Y-158850000D03*
X134400000Y-159500000D03*
X134400000Y-160150000D03*
X134400000Y-160800000D03*
X134400000Y-161450000D03*
X134400000Y-162100000D03*
X134400000Y-162750000D03*
X134400000Y-163400000D03*
X134400000Y-164050000D03*
X134400000Y-164700000D03*
X142460000Y-164700000D03*
X142460000Y-164050000D03*
X142460000Y-163400000D03*
X142460000Y-162750000D03*
X142460000Y-162100000D03*
X142460000Y-161450000D03*
X142460000Y-160800000D03*
X142460000Y-160150000D03*
X142460000Y-159500000D03*
X142460000Y-158850000D03*
X142460000Y-158200000D03*
X142460000Y-157550000D03*
D15*
X135540000Y-161275000D03*
X135542000Y-163145000D03*
X136371428Y-161275000D03*
X136373428Y-163145000D03*
X137200000Y-164015000D03*
X137202856Y-161275000D03*
X137204856Y-163145000D03*
X137220000Y-160365000D03*
X137230000Y-162155000D03*
X138034284Y-161275000D03*
X138036284Y-163145000D03*
X138865712Y-161275000D03*
X138867712Y-163145000D03*
X139690000Y-160365000D03*
X139690000Y-164005000D03*
X139697140Y-161275000D03*
X139699140Y-163145000D03*
X139700000Y-162135000D03*
X140528568Y-161275000D03*
X140530568Y-163145000D03*
X141360000Y-161275000D03*
X141362000Y-163145000D03*
%TD*%
D14*
%TO.C,U72*%
X207110000Y-192190000D03*
X207110000Y-191540000D03*
X207110000Y-190890000D03*
X207110000Y-190240000D03*
X207110000Y-189590000D03*
X207110000Y-188940000D03*
X207110000Y-188290000D03*
X207110000Y-187640000D03*
X207110000Y-186990000D03*
X207110000Y-186340000D03*
X207110000Y-185690000D03*
X207110000Y-185040000D03*
X199050000Y-185040000D03*
X199050000Y-185690000D03*
X199050000Y-186340000D03*
X199050000Y-186990000D03*
X199050000Y-187640000D03*
X199050000Y-188290000D03*
X199050000Y-188940000D03*
X199050000Y-189590000D03*
X199050000Y-190240000D03*
X199050000Y-190890000D03*
X199050000Y-191540000D03*
X199050000Y-192190000D03*
D15*
X205970000Y-188465000D03*
X205968000Y-186595000D03*
X205138572Y-188465000D03*
X205136572Y-186595000D03*
X204310000Y-185725000D03*
X204307144Y-188465000D03*
X204305144Y-186595000D03*
X204290000Y-189375000D03*
X204280000Y-187585000D03*
X203475716Y-188465000D03*
X203473716Y-186595000D03*
X202644288Y-188465000D03*
X202642288Y-186595000D03*
X201820000Y-189375000D03*
X201820000Y-185735000D03*
X201812860Y-188465000D03*
X201810860Y-186595000D03*
X201810000Y-187605000D03*
X200981432Y-188465000D03*
X200979432Y-186595000D03*
X200150000Y-188465000D03*
X200148000Y-186595000D03*
%TD*%
D16*
%TO.C,U63*%
X177440000Y-157580000D03*
X177440000Y-158230000D03*
X177440000Y-158880000D03*
X177440000Y-159530000D03*
X177440000Y-160180000D03*
X177440000Y-160830000D03*
X177440000Y-161480000D03*
X177440000Y-162130000D03*
X177440000Y-162780000D03*
X177440000Y-163430000D03*
X177440000Y-164080000D03*
X177440000Y-164730000D03*
X185500000Y-164730000D03*
X185500000Y-164080000D03*
X185500000Y-163430000D03*
X185500000Y-162780000D03*
X185500000Y-162130000D03*
X185500000Y-161480000D03*
X185500000Y-160830000D03*
X185500000Y-160180000D03*
X185500000Y-159530000D03*
X185500000Y-158880000D03*
X185500000Y-158230000D03*
X185500000Y-157580000D03*
D15*
X178580000Y-161305000D03*
X178582000Y-163175000D03*
X179411428Y-161305000D03*
X179413428Y-163175000D03*
X180240000Y-164045000D03*
X180242856Y-161305000D03*
X180244856Y-163175000D03*
X180260000Y-160395000D03*
X180270000Y-162185000D03*
X181074284Y-161305000D03*
X181076284Y-163175000D03*
X181905712Y-161305000D03*
X181907712Y-163175000D03*
X182730000Y-160395000D03*
X182730000Y-164035000D03*
X182737140Y-161305000D03*
X182739140Y-163175000D03*
X182740000Y-162165000D03*
X183568568Y-161305000D03*
X183570568Y-163175000D03*
X184400000Y-161305000D03*
X184402000Y-163175000D03*
%TD*%
D16*
%TO.C,U64*%
X177440000Y-171260000D03*
X177440000Y-171910000D03*
X177440000Y-172560000D03*
X177440000Y-173210000D03*
X177440000Y-173860000D03*
X177440000Y-174510000D03*
X177440000Y-175160000D03*
X177440000Y-175810000D03*
X177440000Y-176460000D03*
X177440000Y-177110000D03*
X177440000Y-177760000D03*
X177440000Y-178410000D03*
X185500000Y-178410000D03*
X185500000Y-177760000D03*
X185500000Y-177110000D03*
X185500000Y-176460000D03*
X185500000Y-175810000D03*
X185500000Y-175160000D03*
X185500000Y-174510000D03*
X185500000Y-173860000D03*
X185500000Y-173210000D03*
X185500000Y-172560000D03*
X185500000Y-171910000D03*
X185500000Y-171260000D03*
D15*
X178580000Y-174985000D03*
X178582000Y-176855000D03*
X179411428Y-174985000D03*
X179413428Y-176855000D03*
X180240000Y-177725000D03*
X180242856Y-174985000D03*
X180244856Y-176855000D03*
X180260000Y-174075000D03*
X180270000Y-175865000D03*
X181074284Y-174985000D03*
X181076284Y-176855000D03*
X181905712Y-174985000D03*
X181907712Y-176855000D03*
X182730000Y-174075000D03*
X182730000Y-177715000D03*
X182737140Y-174985000D03*
X182739140Y-176855000D03*
X182740000Y-175845000D03*
X183568568Y-174985000D03*
X183570568Y-176855000D03*
X184400000Y-174985000D03*
X184402000Y-176855000D03*
%TD*%
D14*
%TO.C,U73*%
X207110000Y-178500000D03*
X207110000Y-177850000D03*
X207110000Y-177200000D03*
X207110000Y-176550000D03*
X207110000Y-175900000D03*
X207110000Y-175250000D03*
X207110000Y-174600000D03*
X207110000Y-173950000D03*
X207110000Y-173300000D03*
X207110000Y-172650000D03*
X207110000Y-172000000D03*
X207110000Y-171350000D03*
X199050000Y-171350000D03*
X199050000Y-172000000D03*
X199050000Y-172650000D03*
X199050000Y-173300000D03*
X199050000Y-173950000D03*
X199050000Y-174600000D03*
X199050000Y-175250000D03*
X199050000Y-175900000D03*
X199050000Y-176550000D03*
X199050000Y-177200000D03*
X199050000Y-177850000D03*
X199050000Y-178500000D03*
D15*
X205970000Y-174775000D03*
X205968000Y-172905000D03*
X205138572Y-174775000D03*
X205136572Y-172905000D03*
X204310000Y-172035000D03*
X204307144Y-174775000D03*
X204305144Y-172905000D03*
X204290000Y-175685000D03*
X204280000Y-173895000D03*
X203475716Y-174775000D03*
X203473716Y-172905000D03*
X202644288Y-174775000D03*
X202642288Y-172905000D03*
X201820000Y-175685000D03*
X201820000Y-172045000D03*
X201812860Y-174775000D03*
X201810860Y-172905000D03*
X201810000Y-173915000D03*
X200981432Y-174775000D03*
X200979432Y-172905000D03*
X200150000Y-174775000D03*
X200148000Y-172905000D03*
%TD*%
D14*
%TO.C,U56*%
X164070000Y-164730000D03*
X164070000Y-164080000D03*
X164070000Y-163430000D03*
X164070000Y-162780000D03*
X164070000Y-162130000D03*
X164070000Y-161480000D03*
X164070000Y-160830000D03*
X164070000Y-160180000D03*
X164070000Y-159530000D03*
X164070000Y-158880000D03*
X164070000Y-158230000D03*
X164070000Y-157580000D03*
X156010000Y-157580000D03*
X156010000Y-158230000D03*
X156010000Y-158880000D03*
X156010000Y-159530000D03*
X156010000Y-160180000D03*
X156010000Y-160830000D03*
X156010000Y-161480000D03*
X156010000Y-162130000D03*
X156010000Y-162780000D03*
X156010000Y-163430000D03*
X156010000Y-164080000D03*
X156010000Y-164730000D03*
D15*
X162930000Y-161005000D03*
X162928000Y-159135000D03*
X162098572Y-161005000D03*
X162096572Y-159135000D03*
X161270000Y-158265000D03*
X161267144Y-161005000D03*
X161265144Y-159135000D03*
X161250000Y-161915000D03*
X161240000Y-160125000D03*
X160435716Y-161005000D03*
X160433716Y-159135000D03*
X159604288Y-161005000D03*
X159602288Y-159135000D03*
X158780000Y-161915000D03*
X158780000Y-158275000D03*
X158772860Y-161005000D03*
X158770860Y-159135000D03*
X158770000Y-160145000D03*
X157941432Y-161005000D03*
X157939432Y-159135000D03*
X157110000Y-161005000D03*
X157108000Y-159135000D03*
%TD*%
D17*
%TO.C,J6*%
X210660000Y-81265000D03*
D18*
X210660000Y-85445000D03*
D17*
X219300000Y-81265000D03*
D18*
X219300000Y-85445000D03*
D19*
X216730000Y-86020000D03*
X215730000Y-86020000D03*
X214230000Y-86020000D03*
X213230000Y-86020000D03*
D20*
X212580000Y-86020000D03*
D21*
X211780000Y-86045000D03*
D19*
X213730000Y-86020000D03*
X214730000Y-86020000D03*
X215230000Y-86020000D03*
X216230000Y-86020000D03*
D20*
X217380000Y-86020000D03*
D21*
X218180000Y-86045000D03*
D22*
X212090000Y-84945000D03*
X217870000Y-84945000D03*
%TD*%
D23*
%TO.C,C16*%
X157732600Y-130610000D03*
X164387400Y-130610000D03*
%TD*%
D24*
%TO.C,U4*%
X231350000Y-154435000D03*
X232000000Y-154435000D03*
X232650000Y-154435000D03*
X233300000Y-154435000D03*
X233950000Y-154435000D03*
X234600000Y-154435000D03*
X235250000Y-154435000D03*
X235900000Y-154435000D03*
X235900000Y-148710000D03*
X235250000Y-148710000D03*
X234600000Y-148710000D03*
X233950000Y-148710000D03*
X233300000Y-148710000D03*
X232650000Y-148710000D03*
X232000000Y-148710000D03*
X231350000Y-148710000D03*
%TD*%
D25*
%TO.C,R6*%
X148280000Y-98045000D03*
X148280000Y-96395000D03*
%TD*%
D26*
%TO.C,C11*%
X144790000Y-90030000D03*
X144790000Y-88130000D03*
%TD*%
D27*
%TO.C,D1*%
X126332400Y-99975000D03*
X128567600Y-99975000D03*
%TD*%
D28*
%TO.C,J16*%
X185295000Y-197370000D03*
%TD*%
D29*
%TO.C,R5*%
X134585000Y-98490000D03*
X132935000Y-98490000D03*
%TD*%
D30*
%TO.C,H6*%
X192930000Y-181770000D03*
%TD*%
D31*
%TO.C,R20*%
X206300000Y-100940000D03*
X205280000Y-100940000D03*
%TD*%
D32*
%TO.C,Q4*%
X197075000Y-116440003D03*
X198345000Y-116440003D03*
X199615000Y-116440003D03*
X200885000Y-116440003D03*
X200885000Y-110850001D03*
X199615000Y-110850001D03*
X198345000Y-110850001D03*
X197075000Y-110850001D03*
%TD*%
D26*
%TO.C,C15*%
X129350000Y-91060000D03*
X129350000Y-89160000D03*
%TD*%
D33*
%TO.C,C101*%
X220010000Y-94510000D03*
X219050000Y-94510000D03*
%TD*%
D26*
%TO.C,C7*%
X138600000Y-86110000D03*
X138600000Y-84210000D03*
%TD*%
D34*
%TO.C,C9*%
X136800000Y-98770000D03*
X136800000Y-100670000D03*
%TD*%
%TO.C,C5*%
X130600000Y-98130000D03*
X130600000Y-100030000D03*
%TD*%
D35*
%TO.C,JP1*%
X125640000Y-88430000D03*
X124340000Y-88430000D03*
X123040000Y-88430000D03*
%TD*%
D30*
%TO.C,H8*%
X170930000Y-181770000D03*
%TD*%
D36*
%TO.C,U27*%
X215200000Y-100377500D03*
D37*
X212600000Y-96940000D03*
X213000000Y-96940000D03*
X213400000Y-96940000D03*
X213800000Y-96940000D03*
X214200000Y-96940000D03*
X214600000Y-96940000D03*
X215000000Y-96940000D03*
X215400000Y-96940000D03*
X215800000Y-96940000D03*
X216200000Y-96940000D03*
X216600000Y-96940000D03*
X217000000Y-96940000D03*
X217400000Y-96940000D03*
X217800000Y-96940000D03*
D38*
X218637500Y-97777500D03*
X218637500Y-98177500D03*
X218637500Y-98577500D03*
X218637500Y-98977500D03*
X218637500Y-99377500D03*
X218637500Y-99777500D03*
X218637500Y-100177500D03*
X218637500Y-100577500D03*
X218637500Y-100977500D03*
X218637500Y-101377500D03*
X218637500Y-101777500D03*
X218637500Y-102177500D03*
X218637500Y-102577500D03*
X218637500Y-102977500D03*
D37*
X217800000Y-103815000D03*
X217400000Y-103815000D03*
X217000000Y-103815000D03*
X216600000Y-103815000D03*
X216200000Y-103815000D03*
X215800000Y-103815000D03*
X215400000Y-103815000D03*
X215000000Y-103815000D03*
X214600000Y-103815000D03*
X214200000Y-103815000D03*
X213800000Y-103815000D03*
X213400000Y-103815000D03*
X213000000Y-103815000D03*
X212600000Y-103815000D03*
D38*
X211762500Y-102977500D03*
X211762500Y-102577500D03*
X211762500Y-102177500D03*
X211762500Y-101777500D03*
X211762500Y-101377500D03*
X211762500Y-100977500D03*
X211762500Y-100577500D03*
X211762500Y-100177500D03*
X211762500Y-99777500D03*
X211762500Y-99377500D03*
X211762500Y-98977500D03*
X211762500Y-98577500D03*
X211762500Y-98177500D03*
X211762500Y-97777500D03*
%TD*%
D39*
%TO.C,R9*%
X134440000Y-84545000D03*
X134440000Y-86195000D03*
%TD*%
D40*
%TO.C,C22*%
X235600000Y-145990000D03*
X235600000Y-146950000D03*
%TD*%
D41*
%TO.C,C107*%
X208420000Y-100940000D03*
X209380000Y-100940000D03*
%TD*%
D42*
%TO.C,J4*%
X138460000Y-181660000D03*
%TD*%
%TO.C,J3*%
X138460000Y-167970000D03*
%TD*%
D43*
%TO.C,C17*%
X171484832Y-134109329D03*
X171484832Y-127454529D03*
%TD*%
D28*
%TO.C,J18*%
X134680000Y-152320000D03*
%TD*%
D44*
%TO.C,C20*%
X153760000Y-96730000D03*
X151860000Y-96730000D03*
%TD*%
D45*
%TO.C,R52*%
X208840000Y-83870000D03*
X208840000Y-82850000D03*
%TD*%
D46*
%TO.C,R53*%
X215630000Y-93140000D03*
X215630000Y-94160000D03*
%TD*%
D47*
%TO.C,U9*%
X231150000Y-80670000D03*
D48*
X229800000Y-80670000D03*
D49*
X228775000Y-80670000D03*
D47*
X227550000Y-80670000D03*
%TD*%
D29*
%TO.C,R4*%
X142455000Y-87920000D03*
X140805000Y-87920000D03*
%TD*%
D50*
%TO.C,C106*%
X219520000Y-106400000D03*
X219520000Y-105440000D03*
%TD*%
D41*
%TO.C,C99*%
X209240000Y-92850000D03*
X210200000Y-92850000D03*
%TD*%
D51*
%TO.C,U7*%
X232595000Y-178000000D03*
X233245000Y-178000000D03*
X233895000Y-178000000D03*
X234545000Y-178000000D03*
X234545000Y-173700000D03*
X233895000Y-173700000D03*
X233245000Y-173700000D03*
X232595000Y-173700000D03*
%TD*%
D42*
%TO.C,J11*%
X203050000Y-168080000D03*
%TD*%
D23*
%TO.C,C18*%
X199197400Y-130610000D03*
X192542600Y-130610000D03*
%TD*%
D42*
%TO.C,J10*%
X203050000Y-181770000D03*
%TD*%
D52*
%TO.C,J1*%
X164295549Y-81250000D03*
X164295549Y-88250000D03*
X169295549Y-81250000D03*
X169295549Y-88250000D03*
%TD*%
D30*
%TO.C,H5*%
X192930000Y-167770000D03*
%TD*%
D28*
%TO.C,J17*%
X199270000Y-197370000D03*
%TD*%
D42*
%TO.C,J9*%
X181500000Y-181680000D03*
%TD*%
D53*
%TO.C,D2*%
X129305000Y-87307600D03*
X129305000Y-85072400D03*
%TD*%
D28*
%TO.C,J12*%
X142210000Y-197340000D03*
%TD*%
D41*
%TO.C,C24*%
X120100000Y-172040000D03*
X121060000Y-172040000D03*
%TD*%
D54*
%TO.C,L1*%
X144898950Y-107098948D03*
X134468951Y-107098948D03*
D55*
X139683949Y-129173949D03*
%TD*%
D42*
%TO.C,J8*%
X181500000Y-167990000D03*
%TD*%
D41*
%TO.C,C100*%
X212400000Y-94150000D03*
X213360000Y-94150000D03*
%TD*%
D56*
%TO.C,U10*%
X229230000Y-91130000D03*
X226930000Y-91130000D03*
X224630000Y-91130000D03*
D57*
X226930000Y-96930000D03*
%TD*%
D39*
%TO.C,R7*%
X149990000Y-96395000D03*
X149990000Y-98045000D03*
%TD*%
D50*
%TO.C,C105*%
X218180000Y-106450000D03*
X218180000Y-105490000D03*
%TD*%
D40*
%TO.C,C90*%
X222680000Y-92710000D03*
X222680000Y-93670000D03*
%TD*%
%TO.C,C96*%
X216750000Y-108230000D03*
X216750000Y-109190000D03*
%TD*%
D41*
%TO.C,C25*%
X232250000Y-172010000D03*
X233210000Y-172010000D03*
%TD*%
D58*
%TO.C,U8*%
X207344400Y-94209998D03*
X207344400Y-94709999D03*
X207344400Y-95209999D03*
X207344400Y-95710000D03*
X210240000Y-95710000D03*
X210240000Y-95209999D03*
X210240000Y-94709999D03*
X210240000Y-94209998D03*
D59*
X208792200Y-94959999D03*
%TD*%
D40*
%TO.C,C21*%
X235600000Y-156180000D03*
X235600000Y-157140000D03*
%TD*%
D33*
%TO.C,C104*%
X222020000Y-97805000D03*
X221060000Y-97805000D03*
%TD*%
D32*
%TO.C,Q2*%
X155990000Y-116475002D03*
X157260000Y-116475002D03*
X158530000Y-116475002D03*
X159800000Y-116475002D03*
X159800000Y-110885000D03*
X158530000Y-110885000D03*
X157260000Y-110885000D03*
X155990000Y-110885000D03*
%TD*%
D33*
%TO.C,C108*%
X220010000Y-95570000D03*
X219050000Y-95570000D03*
%TD*%
D28*
%TO.C,J15*%
X163790000Y-152310000D03*
%TD*%
D45*
%TO.C,R51*%
X221220000Y-83860000D03*
X221220000Y-82840000D03*
%TD*%
D41*
%TO.C,C109*%
X208410000Y-97785000D03*
X209370000Y-97785000D03*
%TD*%
D28*
%TO.C,J13*%
X156210000Y-197350000D03*
%TD*%
D60*
%TO.C,R10*%
X198036600Y-121700000D03*
X188943400Y-121700000D03*
%TD*%
D42*
%TO.C,J5*%
X159990000Y-181670000D03*
%TD*%
D61*
%TO.C,R22*%
X223320000Y-99620000D03*
X224340000Y-99620000D03*
%TD*%
D62*
%TO.C,R3*%
X140805000Y-91610000D03*
X142455000Y-91610000D03*
%TD*%
D30*
%TO.C,H10*%
X148930000Y-181770000D03*
%TD*%
D44*
%TO.C,C2*%
X125690000Y-95810000D03*
X123790000Y-95810000D03*
%TD*%
D42*
%TO.C,J7*%
X160000000Y-167990000D03*
%TD*%
D44*
%TO.C,C10*%
X134920000Y-100450000D03*
X133020000Y-100450000D03*
%TD*%
D63*
%TO.C,Y1*%
X215250000Y-108715000D03*
X215250000Y-106415000D03*
X213450000Y-106415000D03*
X213450000Y-108715000D03*
%TD*%
D29*
%TO.C,R2*%
X125795000Y-92150000D03*
X124145000Y-92150000D03*
%TD*%
D34*
%TO.C,C13*%
X129313949Y-94574843D03*
X129313949Y-96474843D03*
%TD*%
D50*
%TO.C,C102*%
X218180000Y-109180000D03*
X218180000Y-108220000D03*
%TD*%
D30*
%TO.C,H7*%
X170930000Y-167770000D03*
%TD*%
D64*
%TO.C,U2*%
X150928949Y-93196051D03*
X151578949Y-93196051D03*
X152228949Y-93196051D03*
X152878949Y-93196051D03*
X152878949Y-88896051D03*
X152228949Y-88896051D03*
X151578949Y-88896051D03*
X150928949Y-88896051D03*
%TD*%
D41*
%TO.C,C110*%
X212400000Y-93150000D03*
X213360000Y-93150000D03*
%TD*%
D65*
%TO.C,U1*%
X132263950Y-95681349D03*
X132763949Y-95681349D03*
X133263948Y-95681349D03*
X133763949Y-95681349D03*
X134263949Y-95681349D03*
X134763950Y-95681349D03*
X135263949Y-95681349D03*
X135763948Y-95681349D03*
D66*
X136414249Y-95031048D03*
X136414249Y-94531049D03*
X136414249Y-94031050D03*
X136414249Y-93531049D03*
X136414249Y-93031049D03*
X136414249Y-92531048D03*
X136414249Y-92031049D03*
X136414249Y-91531050D03*
D65*
X135763948Y-90880749D03*
X135263949Y-90880749D03*
X134763950Y-90880749D03*
X134263949Y-90880749D03*
X133763949Y-90880749D03*
X133263948Y-90880749D03*
X132763949Y-90880749D03*
X132263950Y-90880749D03*
D66*
X131613649Y-91531050D03*
X131613649Y-92031049D03*
X131613649Y-92531048D03*
X131613649Y-93031049D03*
X131613649Y-93531049D03*
X131613649Y-94031050D03*
X131613649Y-94531049D03*
X131613649Y-95031048D03*
D67*
X134013949Y-93281049D03*
%TD*%
D31*
%TO.C,R19*%
X205280000Y-99810000D03*
X204260000Y-99810000D03*
%TD*%
D68*
%TO.C,C8*%
X140900000Y-89770000D03*
X142800000Y-89770000D03*
%TD*%
D44*
%TO.C,C12*%
X142815000Y-93450000D03*
X140915000Y-93450000D03*
%TD*%
D62*
%TO.C,R1*%
X124155000Y-93840000D03*
X125805000Y-93840000D03*
%TD*%
D60*
%TO.C,R8*%
X156803400Y-121990000D03*
X165896600Y-121990000D03*
%TD*%
D34*
%TO.C,C19*%
X147980000Y-90260000D03*
X147980000Y-92160000D03*
%TD*%
D26*
%TO.C,C6*%
X136460000Y-86110000D03*
X136460000Y-84210000D03*
%TD*%
D33*
%TO.C,C103*%
X222020000Y-101385000D03*
X221060000Y-101385000D03*
%TD*%
D46*
%TO.C,R54*%
X216730000Y-93140000D03*
X216730000Y-94160000D03*
%TD*%
D61*
%TO.C,R11*%
X153090000Y-87290000D03*
X154110000Y-87290000D03*
%TD*%
D34*
%TO.C,C14*%
X132440000Y-84190000D03*
X132440000Y-86090000D03*
%TD*%
D52*
%TO.C,J2*%
X185805549Y-81250000D03*
X185805549Y-88250000D03*
X190805549Y-81250000D03*
X190805549Y-88250000D03*
%TD*%
D69*
%TO.C,Q3*%
X201943952Y-108688949D03*
X201943952Y-107418949D03*
X201943952Y-106148949D03*
X201943952Y-104878949D03*
X196353950Y-104878949D03*
X196353950Y-106148949D03*
X196353950Y-107418949D03*
X196353950Y-108688949D03*
%TD*%
D61*
%TO.C,R21*%
X221060000Y-99620000D03*
X222080000Y-99620000D03*
%TD*%
D69*
%TO.C,Q1*%
X155003946Y-104968949D03*
X155003946Y-106238949D03*
X155003946Y-107508949D03*
X155003946Y-108778949D03*
X160593948Y-108778949D03*
X160593948Y-107508949D03*
X160593948Y-106238949D03*
X160593948Y-104968949D03*
%TD*%
D70*
%TO.C,U3*%
X160550549Y-91529849D03*
X159900549Y-91529849D03*
X159250549Y-91529849D03*
X158600549Y-91529849D03*
X157950549Y-91529849D03*
X157300549Y-91529849D03*
X156650549Y-91529849D03*
X156000549Y-91529849D03*
X156000549Y-97254849D03*
X156650549Y-97254849D03*
X157300549Y-97254849D03*
X157950549Y-97254849D03*
X158600549Y-97254849D03*
X159250549Y-97254849D03*
X159900549Y-97254849D03*
X160550549Y-97254849D03*
%TD*%
D50*
%TO.C,C98*%
X231170000Y-93670000D03*
X231170000Y-92710000D03*
%TD*%
D28*
%TO.C,J21*%
X199210000Y-152510000D03*
%TD*%
D30*
%TO.C,H9*%
X148930000Y-167770000D03*
%TD*%
D54*
%TO.C,L2*%
X212994999Y-135835001D03*
X223424998Y-135835001D03*
D55*
X218210000Y-113760000D03*
%TD*%
D61*
%TO.C,R50*%
X205730000Y-92850000D03*
X206750000Y-92850000D03*
%TD*%
D51*
%TO.C,U6*%
X120455000Y-178030000D03*
X121105000Y-178030000D03*
X121755000Y-178030000D03*
X122405000Y-178030000D03*
X122405000Y-173730000D03*
X121755000Y-173730000D03*
X121105000Y-173730000D03*
X120455000Y-173730000D03*
%TD*%
D50*
%TO.C,C97*%
X211980000Y-108045000D03*
X211980000Y-107085000D03*
%TD*%
D28*
%TO.C,J14*%
X177710000Y-152310000D03*
%TD*%
D71*
%TO.C,H3*%
X238000000Y-202000000D03*
%TD*%
%TO.C,H4*%
X119000000Y-106000000D03*
%TD*%
%TO.C,H1*%
X119000000Y-202000000D03*
%TD*%
%TO.C,H2*%
X238000000Y-106000000D03*
%TD*%
M02*
