M48
; DRILL file {KiCad 8.0.5} date 2024-10-21T15:52:13-0400
; FORMAT={-:-/ absolute / inch / decimal}
; #@! TF.CreationDate,2024-10-21T15:52:13-04:00
; #@! TF.GenerationSoftware,Kicad,Pcbnew,8.0.5
; #@! TF.FileFunction,Plated,1,4,PTH
FMAT,2
INCH
; #@! TA.AperFunction,Plated,PTH,ViaDrill
T1C0.0118
; #@! TA.AperFunction,Plated,PTH,ViaDrill
T2C0.0157
; #@! TA.AperFunction,Plated,PTH,ViaDrill
T3C0.0236
; #@! TA.AperFunction,Plated,PTH,ComponentDrill
T4C0.0315
; #@! TA.AperFunction,Plated,PTH,ComponentDrill
T5C0.0728
%
G90
G05
T1
X4.4091Y-2.5854
X4.448Y-2.5854
X5.272Y-4.0291
X5.2843Y-3.8988
X5.2969Y-4.0791
X5.3425Y-5.0051
X5.3547Y-3.8094
X5.6437Y-4.1181
X5.7441Y-4.1134
X6.2929Y-4.1287
X6.3165Y-3.5335
X6.3228Y-4.0476
X6.348Y-2.6193
X6.3715Y-2.6766
X6.3974Y-2.6785
X6.4083Y-2.7768
X6.4102Y-2.7374
X6.4228Y-2.6982
X6.5098Y-2.9765
X6.5138Y-2.7039
X6.5138Y-2.7882
X6.5142Y-2.7472
X6.5437Y-3.7445
X6.5492Y-2.5094
X6.5586Y-2.7041
X6.5586Y-2.7883
X6.559Y-2.7474
X6.6008Y-2.7039
X6.6008Y-2.7882
X6.6012Y-2.7472
X6.6083Y-2.8969
X6.6091Y-2.6126
X6.6516Y-3.1555
X6.6673Y-2.8795
X6.7142Y-2.9016
X6.7213Y-2.626
X6.7555Y-2.7583
X6.7571Y-2.6807
X6.7713Y-2.7083
X6.8024Y-2.7382
X6.828Y-3.0757
X6.8307Y-3.1012
X6.9173Y-2.4126
X7.1512Y-3.1878
T2
X4.3441Y-2.4543
X4.4193Y-2.4539
X4.5161Y-2.587
X4.5654Y-2.587
X4.5748Y-2.2138
X6.1276Y-2.6984
X6.1685Y-2.8543
X6.2028Y-2.5665
X6.4579Y-2.2874
X6.6579Y-2.3898
X6.8366Y-3.1992
X6.8882Y-3.0776
X6.9079Y-2.6236
X6.976Y-2.8437
X6.976Y-2.928
X7.0618Y-3.0453
X7.0795Y-3.2622
X7.1276Y-3.1236
T3
X4.0976Y-4.7445
X4.0976Y-4.7984
X4.0976Y-4.852
X4.0976Y-4.9067
X4.1575Y-4.7437
X4.1575Y-4.7976
X4.1575Y-4.8512
X4.1575Y-4.9059
X4.2201Y-4.7437
X4.2201Y-4.7976
X4.2201Y-4.8512
X4.2201Y-4.9059
X4.2799Y-4.7433
X4.2799Y-4.7972
X4.2799Y-4.8508
X4.2799Y-4.9055
X4.9305Y-3.3549
X4.9305Y-3.4175
X4.9622Y-4.7268
X4.9622Y-4.7815
X4.9844Y-3.3549
X4.9844Y-3.4175
X5.0248Y-4.7268
X5.0248Y-4.7815
X5.038Y-3.3549
X5.038Y-3.4175
X5.0927Y-3.3549
X5.0927Y-3.4175
X5.3228Y-3.5437
X5.323Y-3.5974
X5.323Y-3.6513
X5.323Y-3.7049
X5.3854Y-3.5437
X5.3856Y-3.5974
X5.3856Y-3.6513
X5.3856Y-3.7049
X5.9783Y-3.5689
X5.9783Y-3.6228
X5.9783Y-3.6764
X5.9783Y-3.7311
X6.0409Y-3.5689
X6.0409Y-3.6228
X6.0409Y-3.6764
X6.0409Y-3.7311
X6.3276Y-4.7531
X6.3276Y-4.8079
X6.3902Y-4.7531
X6.3902Y-4.8079
X7.0201Y-4.5256
X7.0201Y-4.5882
X7.0807Y-4.5252
X7.0807Y-4.5878
X7.1346Y-4.5252
X7.1346Y-4.5878
X7.1882Y-4.5252
X7.1882Y-4.5878
X7.2429Y-4.5252
X7.2429Y-4.5878
X7.3008Y-4.5268
X7.3008Y-4.5894
X7.3555Y-4.5268
X7.3555Y-4.5894
T4
X6.3594Y-2.0094
X6.3594Y-2.0882
X6.4382Y-2.0094
X6.4382Y-2.0882
X6.5169Y-2.0094
X6.5169Y-2.0882
X6.5957Y-2.0094
X6.5957Y-2.0882
X6.6744Y-2.0094
X6.6744Y-2.0882
X6.7531Y-2.0094
X6.7531Y-2.0882
X6.8319Y-2.0094
X6.8319Y-2.0882
X6.9106Y-2.0094
X6.9106Y-2.0882
X6.9894Y-2.0094
X6.9894Y-2.0882
T5
X4.8236Y-5.1142
X4.8236Y-5.3898
X4.8246Y-2.0065
X4.8246Y-2.282
X5.0205Y-5.1142
X5.0205Y-5.3898
X5.0214Y-2.0065
X5.0214Y-2.282
X5.5545Y-5.1179
X5.5545Y-5.3935
X5.6714Y-2.0065
X5.6714Y-2.282
X5.7513Y-5.1179
X5.7513Y-5.3935
X5.8683Y-2.0065
X5.8683Y-2.282
M30
