%TF.GenerationSoftware,KiCad,Pcbnew,8.0.5*%
%TF.CreationDate,2024-12-31T14:43:48-08:00*%
%TF.ProjectId,emberone,656d6265-726f-46e6-952e-6b696361645f,rev?*%
%TF.SameCoordinates,Original*%
%TF.FileFunction,Copper,L1,Top*%
%TF.FilePolarity,Positive*%
%FSLAX46Y46*%
G04 Gerber Fmt 4.6, Leading zero omitted, Abs format (unit mm)*
G04 Created by KiCad (PCBNEW 8.0.5) date 2024-12-31 14:43:48*
%MOMM*%
%LPD*%
G01*
G04 APERTURE LIST*
G04 Aperture macros list*
%AMRoundRect*
0 Rectangle with rounded corners*
0 $1 Rounding radius*
0 $2 $3 $4 $5 $6 $7 $8 $9 X,Y pos of 4 corners*
0 Add a 4 corners polygon primitive as box body*
4,1,4,$2,$3,$4,$5,$6,$7,$8,$9,$2,$3,0*
0 Add four circle primitives for the rounded corners*
1,1,$1+$1,$2,$3*
1,1,$1+$1,$4,$5*
1,1,$1+$1,$6,$7*
1,1,$1+$1,$8,$9*
0 Add four rect primitives between the rounded corners*
20,1,$1+$1,$2,$3,$4,$5,0*
20,1,$1+$1,$4,$5,$6,$7,0*
20,1,$1+$1,$6,$7,$8,$9,0*
20,1,$1+$1,$8,$9,$2,$3,0*%
G04 Aperture macros list end*
%TA.AperFunction,EtchedComponent*%
%ADD10C,0.000000*%
%TD*%
%TA.AperFunction,SMDPad,CuDef*%
%ADD11RoundRect,0.100000X0.400000X0.100000X-0.400000X0.100000X-0.400000X-0.100000X0.400000X-0.100000X0*%
%TD*%
%TA.AperFunction,SMDPad,CuDef*%
%ADD12R,6.440000X1.850000*%
%TD*%
%TA.AperFunction,ComponentPad*%
%ADD13C,0.540000*%
%TD*%
%TA.AperFunction,SMDPad,CuDef*%
%ADD14R,6.440000X5.490000*%
%TD*%
%TA.AperFunction,SMDPad,CuDef*%
%ADD15RoundRect,0.100000X-0.400000X-0.100000X0.400000X-0.100000X0.400000X0.100000X-0.400000X0.100000X0*%
%TD*%
%TA.AperFunction,SMDPad,CuDef*%
%ADD16RoundRect,0.112500X0.112500X-0.612500X0.112500X0.612500X-0.112500X0.612500X-0.112500X-0.612500X0*%
%TD*%
%TA.AperFunction,SMDPad,CuDef*%
%ADD17R,1.000000X1.200000*%
%TD*%
%TA.AperFunction,SMDPad,CuDef*%
%ADD18R,0.700000X1.200000*%
%TD*%
%TA.AperFunction,SMDPad,CuDef*%
%ADD19R,0.450000X1.200000*%
%TD*%
%TA.AperFunction,SMDPad,CuDef*%
%ADD20R,0.812800X0.254000*%
%TD*%
%TA.AperFunction,SMDPad,CuDef*%
%ADD21R,0.254000X1.651000*%
%TD*%
%TA.AperFunction,SMDPad,CuDef*%
%ADD22R,0.950000X2.150000*%
%TD*%
%TA.AperFunction,SMDPad,CuDef*%
%ADD23R,3.250000X2.150000*%
%TD*%
%TA.AperFunction,SMDPad,CuDef*%
%ADD24R,3.352800X1.905000*%
%TD*%
%TA.AperFunction,SMDPad,CuDef*%
%ADD25RoundRect,0.100000X0.100000X-0.637500X0.100000X0.637500X-0.100000X0.637500X-0.100000X-0.637500X0*%
%TD*%
%TA.AperFunction,SMDPad,CuDef*%
%ADD26RoundRect,0.200000X0.275000X-0.200000X0.275000X0.200000X-0.275000X0.200000X-0.275000X-0.200000X0*%
%TD*%
%TA.AperFunction,SMDPad,CuDef*%
%ADD27RoundRect,0.250000X0.475000X-0.250000X0.475000X0.250000X-0.475000X0.250000X-0.475000X-0.250000X0*%
%TD*%
%TA.AperFunction,SMDPad,CuDef*%
%ADD28R,1.168400X0.711200*%
%TD*%
%TA.AperFunction,SMDPad,CuDef*%
%ADD29R,6.440000X6.000000*%
%TD*%
%TA.AperFunction,SMDPad,CuDef*%
%ADD30R,14.000000X9.000000*%
%TD*%
%TA.AperFunction,SMDPad,CuDef*%
%ADD31RoundRect,0.200000X0.200000X0.275000X-0.200000X0.275000X-0.200000X-0.275000X0.200000X-0.275000X0*%
%TD*%
%TA.AperFunction,ComponentPad*%
%ADD32C,6.400000*%
%TD*%
%TA.AperFunction,SMDPad,CuDef*%
%ADD33RoundRect,0.135000X-0.135000X-0.185000X0.135000X-0.185000X0.135000X0.185000X-0.135000X0.185000X0*%
%TD*%
%TA.AperFunction,SMDPad,CuDef*%
%ADD34R,0.509999X0.910001*%
%TD*%
%TA.AperFunction,SMDPad,CuDef*%
%ADD35R,4.570001X4.490001*%
%TD*%
%TA.AperFunction,SMDPad,CuDef*%
%ADD36RoundRect,0.140000X0.140000X0.170000X-0.140000X0.170000X-0.140000X-0.170000X0.140000X-0.170000X0*%
%TD*%
%TA.AperFunction,SMDPad,CuDef*%
%ADD37RoundRect,0.250000X-0.475000X0.250000X-0.475000X-0.250000X0.475000X-0.250000X0.475000X0.250000X0*%
%TD*%
%TA.AperFunction,SMDPad,CuDef*%
%ADD38R,1.000000X1.500000*%
%TD*%
%TA.AperFunction,SMDPad,CuDef*%
%ADD39RoundRect,0.050000X-0.387500X-0.050000X0.387500X-0.050000X0.387500X0.050000X-0.387500X0.050000X0*%
%TD*%
%TA.AperFunction,SMDPad,CuDef*%
%ADD40RoundRect,0.050000X-0.050000X-0.387500X0.050000X-0.387500X0.050000X0.387500X-0.050000X0.387500X0*%
%TD*%
%TA.AperFunction,HeatsinkPad*%
%ADD41R,3.200000X3.200000*%
%TD*%
%TA.AperFunction,SMDPad,CuDef*%
%ADD42RoundRect,0.200000X-0.275000X0.200000X-0.275000X-0.200000X0.275000X-0.200000X0.275000X0.200000X0*%
%TD*%
%TA.AperFunction,SMDPad,CuDef*%
%ADD43RoundRect,0.140000X-0.170000X0.140000X-0.170000X-0.140000X0.170000X-0.140000X0.170000X0.140000X0*%
%TD*%
%TA.AperFunction,SMDPad,CuDef*%
%ADD44RoundRect,0.140000X-0.140000X-0.170000X0.140000X-0.170000X0.140000X0.170000X-0.140000X0.170000X0*%
%TD*%
%TA.AperFunction,SMDPad,CuDef*%
%ADD45R,9.000000X5.000000*%
%TD*%
%TA.AperFunction,SMDPad,CuDef*%
%ADD46R,1.905000X3.352800*%
%TD*%
%TA.AperFunction,SMDPad,CuDef*%
%ADD47RoundRect,0.250000X0.250000X0.475000X-0.250000X0.475000X-0.250000X-0.475000X0.250000X-0.475000X0*%
%TD*%
%TA.AperFunction,SMDPad,CuDef*%
%ADD48RoundRect,0.135000X0.185000X-0.135000X0.185000X0.135000X-0.185000X0.135000X-0.185000X-0.135000X0*%
%TD*%
%TA.AperFunction,SMDPad,CuDef*%
%ADD49RoundRect,0.135000X-0.185000X0.135000X-0.185000X-0.135000X0.185000X-0.135000X0.185000X0.135000X0*%
%TD*%
%TA.AperFunction,SMDPad,CuDef*%
%ADD50RoundRect,0.140000X0.170000X-0.140000X0.170000X0.140000X-0.170000X0.140000X-0.170000X-0.140000X0*%
%TD*%
%TA.AperFunction,ComponentPad*%
%ADD51C,3.200000*%
%TD*%
%TA.AperFunction,SMDPad,CuDef*%
%ADD52R,0.711200X1.168400*%
%TD*%
%TA.AperFunction,SMDPad,CuDef*%
%ADD53R,6.350000X5.283200*%
%TD*%
%TA.AperFunction,SMDPad,CuDef*%
%ADD54R,5.334000X5.588000*%
%TD*%
%TA.AperFunction,SMDPad,CuDef*%
%ADD55RoundRect,0.150000X0.150000X0.425000X-0.150000X0.425000X-0.150000X-0.425000X0.150000X-0.425000X0*%
%TD*%
%TA.AperFunction,SMDPad,CuDef*%
%ADD56RoundRect,0.075000X0.075000X0.500000X-0.075000X0.500000X-0.075000X-0.500000X0.075000X-0.500000X0*%
%TD*%
%TA.AperFunction,ComponentPad*%
%ADD57O,1.000000X2.100000*%
%TD*%
%TA.AperFunction,ComponentPad*%
%ADD58O,1.000000X1.800000*%
%TD*%
%TA.AperFunction,SMDPad,CuDef*%
%ADD59R,3.302000X1.498600*%
%TD*%
%TA.AperFunction,SMDPad,CuDef*%
%ADD60R,3.454400X5.588000*%
%TD*%
%TA.AperFunction,SMDPad,CuDef*%
%ADD61RoundRect,0.200000X-0.200000X-0.275000X0.200000X-0.275000X0.200000X0.275000X-0.200000X0.275000X0*%
%TD*%
%TA.AperFunction,SMDPad,CuDef*%
%ADD62R,1.498600X3.302000*%
%TD*%
%TA.AperFunction,SMDPad,CuDef*%
%ADD63R,1.100000X1.300000*%
%TD*%
%TA.AperFunction,SMDPad,CuDef*%
%ADD64R,0.400000X1.100000*%
%TD*%
%TA.AperFunction,SMDPad,CuDef*%
%ADD65R,0.254000X0.609600*%
%TD*%
%TA.AperFunction,SMDPad,CuDef*%
%ADD66R,0.609600X0.254000*%
%TD*%
%TA.AperFunction,SMDPad,CuDef*%
%ADD67R,3.098800X3.098800*%
%TD*%
%TA.AperFunction,SMDPad,CuDef*%
%ADD68RoundRect,0.135000X0.135000X0.185000X-0.135000X0.185000X-0.135000X-0.185000X0.135000X-0.185000X0*%
%TD*%
%TA.AperFunction,SMDPad,CuDef*%
%ADD69RoundRect,0.250000X-0.250000X-0.475000X0.250000X-0.475000X0.250000X0.475000X-0.250000X0.475000X0*%
%TD*%
%TA.AperFunction,SMDPad,CuDef*%
%ADD70R,0.910001X0.509999*%
%TD*%
%TA.AperFunction,SMDPad,CuDef*%
%ADD71R,4.490001X4.570001*%
%TD*%
%TA.AperFunction,SMDPad,CuDef*%
%ADD72RoundRect,0.100000X-0.100000X0.637500X-0.100000X-0.637500X0.100000X-0.637500X0.100000X0.637500X0*%
%TD*%
%TA.AperFunction,ViaPad*%
%ADD73C,0.500000*%
%TD*%
%TA.AperFunction,ViaPad*%
%ADD74C,0.800000*%
%TD*%
%TA.AperFunction,ViaPad*%
%ADD75C,1.000000*%
%TD*%
%TA.AperFunction,Conductor*%
%ADD76C,0.200000*%
%TD*%
%TA.AperFunction,Conductor*%
%ADD77C,0.508000*%
%TD*%
%TA.AperFunction,Conductor*%
%ADD78C,0.254000*%
%TD*%
%TA.AperFunction,Conductor*%
%ADD79C,1.500000*%
%TD*%
%TA.AperFunction,Conductor*%
%ADD80C,0.381000*%
%TD*%
%TA.AperFunction,Conductor*%
%ADD81C,0.628000*%
%TD*%
G04 APERTURE END LIST*
D10*
%TA.AperFunction,EtchedComponent*%
%TO.C,JP1*%
G36*
X125240000Y-88730000D02*
G01*
X124740000Y-88730000D01*
X124740000Y-88130000D01*
X125240000Y-88130000D01*
X125240000Y-88730000D01*
G37*
%TD.AperFunction*%
%TD*%
D11*
%TO.P,U55,1,VSS*%
%TO.N,/stack5/GND1*%
X164050000Y-178410000D03*
%TO.P,U55,2,CO*%
%TO.N,Net-(U55-CO)*%
X164050000Y-177760000D03*
%TO.P,U55,3,CLKO*%
%TO.N,Net-(U55-CLKO)*%
X164050000Y-177110000D03*
%TO.P,U55,4,RI*%
%TO.N,Net-(U55-RI)*%
X164050000Y-176460000D03*
%TO.P,U55,5,BO*%
%TO.N,Net-(U55-BO)*%
X164050000Y-175810000D03*
%TO.P,U55,6,NRSTO*%
%TO.N,Net-(U55-NRSTO)*%
X164050000Y-175160000D03*
%TO.P,U55,7,INV_CLKO*%
%TO.N,unconnected-(U55-INV_CLKO-Pad7)*%
X164050000Y-174510000D03*
%TO.P,U55,8,TEMP_P*%
%TO.N,unconnected-(U55-TEMP_P-Pad8)*%
X164050000Y-173860000D03*
%TO.P,U55,9,TEMP_N*%
%TO.N,unconnected-(U55-TEMP_N-Pad9)*%
X164050000Y-173210000D03*
%TO.P,U55,10,VSS*%
%TO.N,/stack5/GND1*%
X164050000Y-172560000D03*
%TO.P,U55,11,VDDIO_08_0*%
%TO.N,/stack5/0V8-1*%
X164050000Y-171910000D03*
%TO.P,U55,12,VDDIO_18_0*%
%TO.N,unconnected-(U55-VDDIO_18_0-Pad12)*%
X164050000Y-171260000D03*
%TO.P,U55,13,VDDIO_18_1*%
%TO.N,/stack5/1V2-1*%
X155990000Y-171260000D03*
%TO.P,U55,14,VDDIO_08_1*%
%TO.N,unconnected-(U55-VDDIO_08_1-Pad14)*%
X155990000Y-171910000D03*
%TO.P,U55,15,PLL_VSS*%
%TO.N,/stack5/GND1*%
X155990000Y-172560000D03*
%TO.P,U55,16,POR_EN*%
%TO.N,unconnected-(U55-POR_EN-Pad16)*%
X155990000Y-173210000D03*
%TO.P,U55,17,PIN_MODE*%
%TO.N,/stack5/GND1*%
X155990000Y-173860000D03*
%TO.P,U55,18,VSS*%
X155990000Y-174510000D03*
%TO.P,U55,19,NRSTI*%
%TO.N,Net-(U55-NRSTI)*%
X155990000Y-175160000D03*
%TO.P,U55,20,BI*%
%TO.N,Net-(U55-BI)*%
X155990000Y-175810000D03*
%TO.P,U55,21,RO*%
%TO.N,Net-(U55-RO)*%
X155990000Y-176460000D03*
%TO.P,U55,22,CLKI*%
%TO.N,Net-(U55-CLKI)*%
X155990000Y-177110000D03*
%TO.P,U55,23,CI*%
%TO.N,Net-(U55-CI)*%
X155990000Y-177760000D03*
%TO.P,U55,24,VSS*%
%TO.N,/stack5/GND1*%
X155990000Y-178410000D03*
D12*
%TO.P,U55,25,VDD*%
%TO.N,/stack5/GND0*%
X159990000Y-177760000D03*
D13*
%TO.P,U55,26,VSS*%
%TO.N,/stack5/GND1*%
X162910000Y-174685000D03*
X162908000Y-172815000D03*
X162328000Y-174685000D03*
X162326000Y-172815000D03*
X161746000Y-174685000D03*
X161744000Y-172815000D03*
X161164000Y-174685000D03*
X161162000Y-172815000D03*
X161110000Y-175915000D03*
X161110000Y-175295000D03*
X161110000Y-174061668D03*
X161110000Y-173445002D03*
X161110000Y-172211670D03*
X161110000Y-171595000D03*
X160582000Y-174685000D03*
X160580000Y-172815000D03*
X160000000Y-174685000D03*
X159998000Y-172815000D03*
D14*
X159990000Y-173730000D03*
D13*
X159418000Y-174685000D03*
X159416000Y-172815000D03*
X158890000Y-175305000D03*
X158890000Y-174071668D03*
X158890000Y-173455002D03*
X158890000Y-172221670D03*
X158890000Y-171605000D03*
X158880000Y-175925000D03*
X158836000Y-174685000D03*
X158834000Y-172815000D03*
X158254000Y-174685000D03*
X158252000Y-172815000D03*
X157672000Y-174685000D03*
X157670000Y-172815000D03*
X157090000Y-174685000D03*
X157088000Y-172815000D03*
%TD*%
D15*
%TO.P,U65,1,VSS*%
%TO.N,/stack6/GND2*%
X177440000Y-184950000D03*
%TO.P,U65,2,CO*%
%TO.N,Net-(U65-CO)*%
X177440000Y-185600000D03*
%TO.P,U65,3,CLKO*%
%TO.N,Net-(U65-CLKO)*%
X177440000Y-186250000D03*
%TO.P,U65,4,RI*%
%TO.N,Net-(U65-RI)*%
X177440000Y-186900000D03*
%TO.P,U65,5,BO*%
%TO.N,Net-(U65-BO)*%
X177440000Y-187550000D03*
%TO.P,U65,6,NRSTO*%
%TO.N,Net-(U65-NRSTO)*%
X177440000Y-188200000D03*
%TO.P,U65,7,INV_CLKO*%
%TO.N,unconnected-(U65-INV_CLKO-Pad7)*%
X177440000Y-188850000D03*
%TO.P,U65,8,TEMP_P*%
%TO.N,unconnected-(U65-TEMP_P-Pad8)*%
X177440000Y-189500000D03*
%TO.P,U65,9,TEMP_N*%
%TO.N,unconnected-(U65-TEMP_N-Pad9)*%
X177440000Y-190150000D03*
%TO.P,U65,10,VSS*%
%TO.N,/stack6/GND2*%
X177440000Y-190800000D03*
%TO.P,U65,11,VDDIO_08_0*%
%TO.N,/stack6/0V8-2*%
X177440000Y-191450000D03*
%TO.P,U65,12,VDDIO_18_0*%
%TO.N,/stack6/1V2-2*%
X177440000Y-192100000D03*
%TO.P,U65,13,VDDIO_18_1*%
%TO.N,unconnected-(U65-VDDIO_18_1-Pad13)*%
X185500000Y-192100000D03*
%TO.P,U65,14,VDDIO_08_1*%
%TO.N,unconnected-(U65-VDDIO_08_1-Pad14)*%
X185500000Y-191450000D03*
%TO.P,U65,15,PLL_VSS*%
%TO.N,/stack6/GND2*%
X185500000Y-190800000D03*
%TO.P,U65,16,POR_EN*%
%TO.N,unconnected-(U65-POR_EN-Pad16)*%
X185500000Y-190150000D03*
%TO.P,U65,17,PIN_MODE*%
%TO.N,unconnected-(U65-PIN_MODE-Pad17)*%
X185500000Y-189500000D03*
%TO.P,U65,18,VSS*%
%TO.N,/stack6/GND2*%
X185500000Y-188850000D03*
%TO.P,U65,19,NRSTI*%
%TO.N,/stack6/NRSTI*%
X185500000Y-188200000D03*
%TO.P,U65,20,BI*%
%TO.N,/stack6/BI*%
X185500000Y-187550000D03*
%TO.P,U65,21,RO*%
%TO.N,/stack6/RO*%
X185500000Y-186900000D03*
%TO.P,U65,22,CLKI*%
%TO.N,/stack6/CLKI*%
X185500000Y-186250000D03*
%TO.P,U65,23,CI*%
%TO.N,/stack6/CI*%
X185500000Y-185600000D03*
%TO.P,U65,24,VSS*%
%TO.N,/stack6/GND2*%
X185500000Y-184950000D03*
D12*
%TO.P,U65,25,VDD*%
%TO.N,/stack6/GND1*%
X181500000Y-185600000D03*
D13*
%TO.P,U65,26,VSS*%
%TO.N,/stack6/GND2*%
X178580000Y-188675000D03*
X178582000Y-190545000D03*
X179162000Y-188675000D03*
X179164000Y-190545000D03*
X179744000Y-188675000D03*
X179746000Y-190545000D03*
X180326000Y-188675000D03*
X180328000Y-190545000D03*
X180380000Y-187445000D03*
X180380000Y-188065000D03*
X180380000Y-189298332D03*
X180380000Y-189914998D03*
X180380000Y-191148330D03*
X180380000Y-191765000D03*
X180908000Y-188675000D03*
X180910000Y-190545000D03*
X181490000Y-188675000D03*
X181492000Y-190545000D03*
D14*
X181500000Y-189630000D03*
D13*
X182072000Y-188675000D03*
X182074000Y-190545000D03*
X182600000Y-188055000D03*
X182600000Y-189288332D03*
X182600000Y-189904998D03*
X182600000Y-191138330D03*
X182600000Y-191755000D03*
X182610000Y-187435000D03*
X182654000Y-188675000D03*
X182656000Y-190545000D03*
X183236000Y-188675000D03*
X183238000Y-190545000D03*
X183818000Y-188675000D03*
X183820000Y-190545000D03*
X184400000Y-188675000D03*
X184402000Y-190545000D03*
%TD*%
D15*
%TO.P,U47,1,VSS*%
%TO.N,/stack4/GND2*%
X134400000Y-184920000D03*
%TO.P,U47,2,CO*%
%TO.N,Net-(U47-CO)*%
X134400000Y-185570000D03*
%TO.P,U47,3,CLKO*%
%TO.N,Net-(U47-CLKO)*%
X134400000Y-186220000D03*
%TO.P,U47,4,RI*%
%TO.N,Net-(U47-RI)*%
X134400000Y-186870000D03*
%TO.P,U47,5,BO*%
%TO.N,Net-(U47-BO)*%
X134400000Y-187520000D03*
%TO.P,U47,6,NRSTO*%
%TO.N,Net-(U47-NRSTO)*%
X134400000Y-188170000D03*
%TO.P,U47,7,INV_CLKO*%
%TO.N,unconnected-(U47-INV_CLKO-Pad7)*%
X134400000Y-188820000D03*
%TO.P,U47,8,TEMP_P*%
%TO.N,unconnected-(U47-TEMP_P-Pad8)*%
X134400000Y-189470000D03*
%TO.P,U47,9,TEMP_N*%
%TO.N,unconnected-(U47-TEMP_N-Pad9)*%
X134400000Y-190120000D03*
%TO.P,U47,10,VSS*%
%TO.N,/stack4/GND2*%
X134400000Y-190770000D03*
%TO.P,U47,11,VDDIO_08_0*%
%TO.N,/stack4/0V8-2*%
X134400000Y-191420000D03*
%TO.P,U47,12,VDDIO_18_0*%
%TO.N,/stack4/1V2-2*%
X134400000Y-192070000D03*
%TO.P,U47,13,VDDIO_18_1*%
%TO.N,unconnected-(U47-VDDIO_18_1-Pad13)*%
X142460000Y-192070000D03*
%TO.P,U47,14,VDDIO_08_1*%
%TO.N,unconnected-(U47-VDDIO_08_1-Pad14)*%
X142460000Y-191420000D03*
%TO.P,U47,15,PLL_VSS*%
%TO.N,/stack4/GND2*%
X142460000Y-190770000D03*
%TO.P,U47,16,POR_EN*%
%TO.N,unconnected-(U47-POR_EN-Pad16)*%
X142460000Y-190120000D03*
%TO.P,U47,17,PIN_MODE*%
%TO.N,unconnected-(U47-PIN_MODE-Pad17)*%
X142460000Y-189470000D03*
%TO.P,U47,18,VSS*%
%TO.N,/stack4/GND2*%
X142460000Y-188820000D03*
%TO.P,U47,19,NRSTI*%
%TO.N,/stack4/NRSTI*%
X142460000Y-188170000D03*
%TO.P,U47,20,BI*%
%TO.N,/stack4/BI*%
X142460000Y-187520000D03*
%TO.P,U47,21,RO*%
%TO.N,/stack4/RO*%
X142460000Y-186870000D03*
%TO.P,U47,22,CLKI*%
%TO.N,/stack4/CLKI*%
X142460000Y-186220000D03*
%TO.P,U47,23,CI*%
%TO.N,/stack4/CI*%
X142460000Y-185570000D03*
%TO.P,U47,24,VSS*%
%TO.N,/stack4/GND2*%
X142460000Y-184920000D03*
D12*
%TO.P,U47,25,VDD*%
%TO.N,/stack4/GND1*%
X138460000Y-185570000D03*
D13*
%TO.P,U47,26,VSS*%
%TO.N,/stack4/GND2*%
X135540000Y-188645000D03*
X135542000Y-190515000D03*
X136122000Y-188645000D03*
X136124000Y-190515000D03*
X136704000Y-188645000D03*
X136706000Y-190515000D03*
X137286000Y-188645000D03*
X137288000Y-190515000D03*
X137340000Y-187415000D03*
X137340000Y-188035000D03*
X137340000Y-189268332D03*
X137340000Y-189884998D03*
X137340000Y-191118330D03*
X137340000Y-191735000D03*
X137868000Y-188645000D03*
X137870000Y-190515000D03*
X138450000Y-188645000D03*
X138452000Y-190515000D03*
D14*
X138460000Y-189600000D03*
D13*
X139032000Y-188645000D03*
X139034000Y-190515000D03*
X139560000Y-188025000D03*
X139560000Y-189258332D03*
X139560000Y-189874998D03*
X139560000Y-191108330D03*
X139560000Y-191725000D03*
X139570000Y-187405000D03*
X139614000Y-188645000D03*
X139616000Y-190515000D03*
X140196000Y-188645000D03*
X140198000Y-190515000D03*
X140778000Y-188645000D03*
X140780000Y-190515000D03*
X141360000Y-188645000D03*
X141362000Y-190515000D03*
%TD*%
D11*
%TO.P,U74,1,VSS*%
%TO.N,GND*%
X207110000Y-164820000D03*
%TO.P,U74,2,NRSTI*%
%TO.N,/stack7/RST_N*%
X207110000Y-164170000D03*
%TO.P,U74,3,BI*%
%TO.N,Net-(U74-BI)*%
X207110000Y-163520000D03*
%TO.P,U74,4,RO*%
%TO.N,/stack7/RO*%
X207110000Y-162870000D03*
%TO.P,U74,5,CLKI*%
%TO.N,/stack7/CLKI*%
X207110000Y-162220000D03*
%TO.P,U74,6,CI*%
%TO.N,/stack7/CI*%
X207110000Y-161570000D03*
%TO.P,U74,7,INV_CLKO*%
%TO.N,unconnected-(U74-INV_CLKO-Pad7)*%
X207110000Y-160920000D03*
%TO.P,U74,8,TEMP_P*%
%TO.N,unconnected-(U74-TEMP_P-Pad8)*%
X207110000Y-160270000D03*
%TO.P,U74,9,TEMP_N*%
%TO.N,unconnected-(U74-TEMP_N-Pad9)*%
X207110000Y-159620000D03*
%TO.P,U74,10,VSS*%
%TO.N,GND*%
X207110000Y-158970000D03*
%TO.P,U74,11,VDDIO_08_0*%
%TO.N,/stack7/0V8-2*%
X207110000Y-158320000D03*
%TO.P,U74,12,VDDIO_18_0*%
%TO.N,/stack7/1V2-2*%
X207110000Y-157670000D03*
%TO.P,U74,13,VDDIO_18_1*%
%TO.N,unconnected-(U74-VDDIO_18_1-Pad13)*%
X199050000Y-157670000D03*
%TO.P,U74,14,VDDIO_08_1*%
%TO.N,unconnected-(U74-VDDIO_08_1-Pad14)*%
X199050000Y-158320000D03*
%TO.P,U74,15,PLL_VSS*%
%TO.N,GND*%
X199050000Y-158970000D03*
%TO.P,U74,16,POR_EN*%
%TO.N,unconnected-(U74-POR_EN-Pad16)*%
X199050000Y-159620000D03*
%TO.P,U74,17,PIN_MODE*%
%TO.N,unconnected-(U74-PIN_MODE-Pad17)*%
X199050000Y-160270000D03*
%TO.P,U74,18,VSS*%
%TO.N,GND*%
X199050000Y-160920000D03*
%TO.P,U74,19,CO*%
%TO.N,Net-(U74-CO)*%
X199050000Y-161570000D03*
%TO.P,U74,20,CLKO*%
%TO.N,Net-(U74-CLKO)*%
X199050000Y-162220000D03*
%TO.P,U74,21,RI*%
%TO.N,Net-(U74-RI)*%
X199050000Y-162870000D03*
%TO.P,U74,22,BO*%
%TO.N,Net-(U74-BO)*%
X199050000Y-163520000D03*
%TO.P,U74,23,NRSTO*%
%TO.N,Net-(U74-NRSTO)*%
X199050000Y-164170000D03*
%TO.P,U74,24,VSS*%
%TO.N,GND*%
X199050000Y-164820000D03*
D12*
%TO.P,U74,25,VDD*%
%TO.N,/stack7/GND1*%
X203050000Y-164170000D03*
D13*
%TO.P,U74,26,VSS*%
%TO.N,GND*%
X205970000Y-161095000D03*
X205968000Y-159225000D03*
X205388000Y-161095000D03*
X205386000Y-159225000D03*
X204806000Y-161095000D03*
X204804000Y-159225000D03*
X204224000Y-161095000D03*
X204222000Y-159225000D03*
X204170000Y-162325000D03*
X204170000Y-161705000D03*
X204170000Y-160471668D03*
X204170000Y-159855002D03*
X204170000Y-158621670D03*
X204170000Y-158005000D03*
X203642000Y-161095000D03*
X203640000Y-159225000D03*
X203060000Y-161095000D03*
X203058000Y-159225000D03*
D14*
X203050000Y-160140000D03*
D13*
X202478000Y-161095000D03*
X202476000Y-159225000D03*
X201950000Y-161715000D03*
X201950000Y-160481668D03*
X201950000Y-159865002D03*
X201950000Y-158631670D03*
X201950000Y-158015000D03*
X201940000Y-162335000D03*
X201896000Y-161095000D03*
X201894000Y-159225000D03*
X201314000Y-161095000D03*
X201312000Y-159225000D03*
X200732000Y-161095000D03*
X200730000Y-159225000D03*
X200150000Y-161095000D03*
X200148000Y-159225000D03*
%TD*%
D11*
%TO.P,U54,1,VSS*%
%TO.N,/stack5/GND0*%
X164050000Y-192080000D03*
%TO.P,U54,2,NRSTI*%
%TO.N,Net-(U54-NRSTI)*%
X164050000Y-191430000D03*
%TO.P,U54,3,BI*%
%TO.N,Net-(U54-BI)*%
X164050000Y-190780000D03*
%TO.P,U54,4,RO*%
%TO.N,Net-(U54-RO)*%
X164050000Y-190130000D03*
%TO.P,U54,5,CLKI*%
%TO.N,Net-(U54-CLKI)*%
X164050000Y-189480000D03*
%TO.P,U54,6,CI*%
%TO.N,Net-(U54-CI)*%
X164050000Y-188830000D03*
%TO.P,U54,7,INV_CLKO*%
%TO.N,unconnected-(U54-INV_CLKO-Pad7)*%
X164050000Y-188180000D03*
%TO.P,U54,8,TEMP_P*%
%TO.N,unconnected-(U54-TEMP_P-Pad8)*%
X164050000Y-187530000D03*
%TO.P,U54,9,TEMP_N*%
%TO.N,unconnected-(U54-TEMP_N-Pad9)*%
X164050000Y-186880000D03*
%TO.P,U54,10,VSS*%
%TO.N,/stack5/GND0*%
X164050000Y-186230000D03*
%TO.P,U54,11,VDDIO_08_0*%
%TO.N,unconnected-(U54-VDDIO_08_0-Pad11)*%
X164050000Y-185580000D03*
%TO.P,U54,12,VDDIO_18_0*%
%TO.N,unconnected-(U54-VDDIO_18_0-Pad12)*%
X164050000Y-184930000D03*
%TO.P,U54,13,VDDIO_18_1*%
%TO.N,/stack5/1V2-0*%
X155990000Y-184930000D03*
%TO.P,U54,14,VDDIO_08_1*%
%TO.N,/stack5/0V8-0*%
X155990000Y-185580000D03*
%TO.P,U54,15,PLL_VSS*%
%TO.N,/stack5/GND0*%
X155990000Y-186230000D03*
%TO.P,U54,16,POR_EN*%
%TO.N,unconnected-(U54-POR_EN-Pad16)*%
X155990000Y-186880000D03*
%TO.P,U54,17,PIN_MODE*%
%TO.N,unconnected-(U54-PIN_MODE-Pad17)*%
X155990000Y-187530000D03*
%TO.P,U54,18,VSS*%
%TO.N,/stack5/GND0*%
X155990000Y-188180000D03*
%TO.P,U54,19,CO*%
%TO.N,Net-(U54-CO)*%
X155990000Y-188830000D03*
%TO.P,U54,20,CLKO*%
%TO.N,Net-(U54-CLKO)*%
X155990000Y-189480000D03*
%TO.P,U54,21,RI*%
%TO.N,Net-(U54-RI)*%
X155990000Y-190130000D03*
%TO.P,U54,22,BO*%
%TO.N,Net-(U54-BO)*%
X155990000Y-190780000D03*
%TO.P,U54,23,NRSTO*%
%TO.N,Net-(U54-NRSTO)*%
X155990000Y-191430000D03*
%TO.P,U54,24,VSS*%
%TO.N,/stack5/GND0*%
X155990000Y-192080000D03*
D12*
%TO.P,U54,25,VDD*%
%TO.N,/stack4/GND2*%
X159990000Y-191430000D03*
D13*
%TO.P,U54,26,VSS*%
%TO.N,/stack5/GND0*%
X162910000Y-188355000D03*
X162908000Y-186485000D03*
X162328000Y-188355000D03*
X162326000Y-186485000D03*
X161746000Y-188355000D03*
X161744000Y-186485000D03*
X161164000Y-188355000D03*
X161162000Y-186485000D03*
X161110000Y-189585000D03*
X161110000Y-188965000D03*
X161110000Y-187731668D03*
X161110000Y-187115002D03*
X161110000Y-185881670D03*
X161110000Y-185265000D03*
X160582000Y-188355000D03*
X160580000Y-186485000D03*
X160000000Y-188355000D03*
X159998000Y-186485000D03*
D14*
X159990000Y-187400000D03*
D13*
X159418000Y-188355000D03*
X159416000Y-186485000D03*
X158890000Y-188975000D03*
X158890000Y-187741668D03*
X158890000Y-187125002D03*
X158890000Y-185891670D03*
X158890000Y-185275000D03*
X158880000Y-189595000D03*
X158836000Y-188355000D03*
X158834000Y-186485000D03*
X158254000Y-188355000D03*
X158252000Y-186485000D03*
X157672000Y-188355000D03*
X157670000Y-186485000D03*
X157090000Y-188355000D03*
X157088000Y-186485000D03*
%TD*%
D15*
%TO.P,U46,1,VSS*%
%TO.N,/stack4/GND1*%
X134400000Y-171240000D03*
%TO.P,U46,2,NRSTI*%
%TO.N,Net-(U46-NRSTI)*%
X134400000Y-171890000D03*
%TO.P,U46,3,BI*%
%TO.N,Net-(U46-BI)*%
X134400000Y-172540000D03*
%TO.P,U46,4,RO*%
%TO.N,Net-(U46-RO)*%
X134400000Y-173190000D03*
%TO.P,U46,5,CLKI*%
%TO.N,Net-(U46-CLKI)*%
X134400000Y-173840000D03*
%TO.P,U46,6,CI*%
%TO.N,Net-(U46-CI)*%
X134400000Y-174490000D03*
%TO.P,U46,7,INV_CLKO*%
%TO.N,unconnected-(U46-INV_CLKO-Pad7)*%
X134400000Y-175140000D03*
%TO.P,U46,8,TEMP_P*%
%TO.N,unconnected-(U46-TEMP_P-Pad8)*%
X134400000Y-175790000D03*
%TO.P,U46,9,TEMP_N*%
%TO.N,unconnected-(U46-TEMP_N-Pad9)*%
X134400000Y-176440000D03*
%TO.P,U46,10,VSS*%
%TO.N,/stack4/GND1*%
X134400000Y-177090000D03*
%TO.P,U46,11,VDDIO_08_0*%
%TO.N,/stack4/0V8-1*%
X134400000Y-177740000D03*
%TO.P,U46,12,VDDIO_18_0*%
%TO.N,/stack4/1V2-1*%
X134400000Y-178390000D03*
%TO.P,U46,13,VDDIO_18_1*%
%TO.N,unconnected-(U46-VDDIO_18_1-Pad13)*%
X142460000Y-178390000D03*
%TO.P,U46,14,VDDIO_08_1*%
%TO.N,unconnected-(U46-VDDIO_08_1-Pad14)*%
X142460000Y-177740000D03*
%TO.P,U46,15,PLL_VSS*%
%TO.N,/stack4/GND1*%
X142460000Y-177090000D03*
%TO.P,U46,16,POR_EN*%
%TO.N,unconnected-(U46-POR_EN-Pad16)*%
X142460000Y-176440000D03*
%TO.P,U46,17,PIN_MODE*%
%TO.N,/stack4/GND1*%
X142460000Y-175790000D03*
%TO.P,U46,18,VSS*%
X142460000Y-175140000D03*
%TO.P,U46,19,CO*%
%TO.N,Net-(U46-CO)*%
X142460000Y-174490000D03*
%TO.P,U46,20,CLKO*%
%TO.N,Net-(U46-CLKO)*%
X142460000Y-173840000D03*
%TO.P,U46,21,RI*%
%TO.N,Net-(U46-RI)*%
X142460000Y-173190000D03*
%TO.P,U46,22,BO*%
%TO.N,Net-(U46-BO)*%
X142460000Y-172540000D03*
%TO.P,U46,23,NRSTO*%
%TO.N,Net-(U46-NRSTO)*%
X142460000Y-171890000D03*
%TO.P,U46,24,VSS*%
%TO.N,/stack4/GND1*%
X142460000Y-171240000D03*
D12*
%TO.P,U46,25,VDD*%
%TO.N,/stack4/GND0*%
X138460000Y-171890000D03*
D13*
%TO.P,U46,26,VSS*%
%TO.N,/stack4/GND1*%
X135540000Y-174965000D03*
X135542000Y-176835000D03*
X136122000Y-174965000D03*
X136124000Y-176835000D03*
X136704000Y-174965000D03*
X136706000Y-176835000D03*
X137286000Y-174965000D03*
X137288000Y-176835000D03*
X137340000Y-173735000D03*
X137340000Y-174355000D03*
X137340000Y-175588332D03*
X137340000Y-176204998D03*
X137340000Y-177438330D03*
X137340000Y-178055000D03*
X137868000Y-174965000D03*
X137870000Y-176835000D03*
X138450000Y-174965000D03*
X138452000Y-176835000D03*
D14*
X138460000Y-175920000D03*
D13*
X139032000Y-174965000D03*
X139034000Y-176835000D03*
X139560000Y-174345000D03*
X139560000Y-175578332D03*
X139560000Y-176194998D03*
X139560000Y-177428330D03*
X139560000Y-178045000D03*
X139570000Y-173725000D03*
X139614000Y-174965000D03*
X139616000Y-176835000D03*
X140196000Y-174965000D03*
X140198000Y-176835000D03*
X140778000Y-174965000D03*
X140780000Y-176835000D03*
X141360000Y-174965000D03*
X141362000Y-176835000D03*
%TD*%
D15*
%TO.P,U45,1,VSS*%
%TO.N,/stack4/GND0*%
X134400000Y-157550000D03*
%TO.P,U45,2,CO*%
%TO.N,Net-(U45-CO)*%
X134400000Y-158200000D03*
%TO.P,U45,3,CLKO*%
%TO.N,Net-(U45-CLKO)*%
X134400000Y-158850000D03*
%TO.P,U45,4,RI*%
%TO.N,Net-(U45-RI)*%
X134400000Y-159500000D03*
%TO.P,U45,5,BO*%
%TO.N,Net-(U45-BO)*%
X134400000Y-160150000D03*
%TO.P,U45,6,NRSTO*%
%TO.N,Net-(U45-NRSTO)*%
X134400000Y-160800000D03*
%TO.P,U45,7,INV_CLKO*%
%TO.N,unconnected-(U45-INV_CLKO-Pad7)*%
X134400000Y-161450000D03*
%TO.P,U45,8,TEMP_P*%
%TO.N,unconnected-(U45-TEMP_P-Pad8)*%
X134400000Y-162100000D03*
%TO.P,U45,9,TEMP_N*%
%TO.N,unconnected-(U45-TEMP_N-Pad9)*%
X134400000Y-162750000D03*
%TO.P,U45,10,VSS*%
%TO.N,/stack4/GND0*%
X134400000Y-163400000D03*
%TO.P,U45,11,VDDIO_08_0*%
%TO.N,/stack4/0V8-0*%
X134400000Y-164050000D03*
%TO.P,U45,12,VDDIO_18_0*%
%TO.N,/stack4/1V2-0*%
X134400000Y-164700000D03*
%TO.P,U45,13,VDDIO_18_1*%
%TO.N,unconnected-(U45-VDDIO_18_1-Pad13)*%
X142460000Y-164700000D03*
%TO.P,U45,14,VDDIO_08_1*%
%TO.N,unconnected-(U45-VDDIO_08_1-Pad14)*%
X142460000Y-164050000D03*
%TO.P,U45,15,PLL_VSS*%
%TO.N,/stack4/GND0*%
X142460000Y-163400000D03*
%TO.P,U45,16,POR_EN*%
%TO.N,unconnected-(U45-POR_EN-Pad16)*%
X142460000Y-162750000D03*
%TO.P,U45,17,PIN_MODE*%
%TO.N,unconnected-(U45-PIN_MODE-Pad17)*%
X142460000Y-162100000D03*
%TO.P,U45,18,VSS*%
%TO.N,/stack4/GND0*%
X142460000Y-161450000D03*
%TO.P,U45,19,NRSTI*%
%TO.N,Net-(U45-NRSTI)*%
X142460000Y-160800000D03*
%TO.P,U45,20,BI*%
%TO.N,Net-(U45-BI)*%
X142460000Y-160150000D03*
%TO.P,U45,21,RO*%
%TO.N,Net-(U45-RO)*%
X142460000Y-159500000D03*
%TO.P,U45,22,CLKI*%
%TO.N,Net-(U45-CLKI)*%
X142460000Y-158850000D03*
%TO.P,U45,23,CI*%
%TO.N,Net-(U45-CI)*%
X142460000Y-158200000D03*
%TO.P,U45,24,VSS*%
%TO.N,/stack4/GND0*%
X142460000Y-157550000D03*
D12*
%TO.P,U45,25,VDD*%
%TO.N,/3V6*%
X138460000Y-158200000D03*
D13*
%TO.P,U45,26,VSS*%
%TO.N,/stack4/GND0*%
X135540000Y-161275000D03*
X135542000Y-163145000D03*
X136122000Y-161275000D03*
X136124000Y-163145000D03*
X136704000Y-161275000D03*
X136706000Y-163145000D03*
X137286000Y-161275000D03*
X137288000Y-163145000D03*
X137340000Y-160045000D03*
X137340000Y-160665000D03*
X137340000Y-161898332D03*
X137340000Y-162514998D03*
X137340000Y-163748330D03*
X137340000Y-164365000D03*
X137868000Y-161275000D03*
X137870000Y-163145000D03*
X138450000Y-161275000D03*
X138452000Y-163145000D03*
D14*
X138460000Y-162230000D03*
D13*
X139032000Y-161275000D03*
X139034000Y-163145000D03*
X139560000Y-160655000D03*
X139560000Y-161888332D03*
X139560000Y-162504998D03*
X139560000Y-163738330D03*
X139560000Y-164355000D03*
X139570000Y-160035000D03*
X139614000Y-161275000D03*
X139616000Y-163145000D03*
X140196000Y-161275000D03*
X140198000Y-163145000D03*
X140778000Y-161275000D03*
X140780000Y-163145000D03*
X141360000Y-161275000D03*
X141362000Y-163145000D03*
%TD*%
D11*
%TO.P,U72,1,VSS*%
%TO.N,/stack7/GND0*%
X207110000Y-192190000D03*
%TO.P,U72,2,NRSTI*%
%TO.N,Net-(U72-NRSTI)*%
X207110000Y-191540000D03*
%TO.P,U72,3,BI*%
%TO.N,Net-(U72-BI)*%
X207110000Y-190890000D03*
%TO.P,U72,4,RO*%
%TO.N,Net-(U72-RO)*%
X207110000Y-190240000D03*
%TO.P,U72,5,CLKI*%
%TO.N,Net-(U72-CLKI)*%
X207110000Y-189590000D03*
%TO.P,U72,6,CI*%
%TO.N,Net-(U72-CI)*%
X207110000Y-188940000D03*
%TO.P,U72,7,INV_CLKO*%
%TO.N,unconnected-(U72-INV_CLKO-Pad7)*%
X207110000Y-188290000D03*
%TO.P,U72,8,TEMP_P*%
%TO.N,unconnected-(U72-TEMP_P-Pad8)*%
X207110000Y-187640000D03*
%TO.P,U72,9,TEMP_N*%
%TO.N,unconnected-(U72-TEMP_N-Pad9)*%
X207110000Y-186990000D03*
%TO.P,U72,10,VSS*%
%TO.N,/stack7/GND0*%
X207110000Y-186340000D03*
%TO.P,U72,11,VDDIO_08_0*%
%TO.N,/stack7/0V8-0*%
X207110000Y-185690000D03*
%TO.P,U72,12,VDDIO_18_0*%
%TO.N,/stack7/1V2-0*%
X207110000Y-185040000D03*
%TO.P,U72,13,VDDIO_18_1*%
%TO.N,unconnected-(U72-VDDIO_18_1-Pad13)*%
X199050000Y-185040000D03*
%TO.P,U72,14,VDDIO_08_1*%
%TO.N,unconnected-(U72-VDDIO_08_1-Pad14)*%
X199050000Y-185690000D03*
%TO.P,U72,15,PLL_VSS*%
%TO.N,/stack7/GND0*%
X199050000Y-186340000D03*
%TO.P,U72,16,POR_EN*%
%TO.N,unconnected-(U72-POR_EN-Pad16)*%
X199050000Y-186990000D03*
%TO.P,U72,17,PIN_MODE*%
%TO.N,unconnected-(U72-PIN_MODE-Pad17)*%
X199050000Y-187640000D03*
%TO.P,U72,18,VSS*%
%TO.N,/stack7/GND0*%
X199050000Y-188290000D03*
%TO.P,U72,19,CO*%
%TO.N,Net-(U72-CO)*%
X199050000Y-188940000D03*
%TO.P,U72,20,CLKO*%
%TO.N,Net-(U72-CLKO)*%
X199050000Y-189590000D03*
%TO.P,U72,21,RI*%
%TO.N,Net-(U72-RI)*%
X199050000Y-190240000D03*
%TO.P,U72,22,BO*%
%TO.N,Net-(U72-BO)*%
X199050000Y-190890000D03*
%TO.P,U72,23,NRSTO*%
%TO.N,Net-(U72-NRSTO)*%
X199050000Y-191540000D03*
%TO.P,U72,24,VSS*%
%TO.N,/stack7/GND0*%
X199050000Y-192190000D03*
D12*
%TO.P,U72,25,VDD*%
%TO.N,/stack6/GND2*%
X203050000Y-191540000D03*
D13*
%TO.P,U72,26,VSS*%
%TO.N,/stack7/GND0*%
X205970000Y-188465000D03*
X205968000Y-186595000D03*
X205388000Y-188465000D03*
X205386000Y-186595000D03*
X204806000Y-188465000D03*
X204804000Y-186595000D03*
X204224000Y-188465000D03*
X204222000Y-186595000D03*
X204170000Y-189695000D03*
X204170000Y-189075000D03*
X204170000Y-187841668D03*
X204170000Y-187225002D03*
X204170000Y-185991670D03*
X204170000Y-185375000D03*
X203642000Y-188465000D03*
X203640000Y-186595000D03*
X203060000Y-188465000D03*
X203058000Y-186595000D03*
D14*
X203050000Y-187510000D03*
D13*
X202478000Y-188465000D03*
X202476000Y-186595000D03*
X201950000Y-189085000D03*
X201950000Y-187851668D03*
X201950000Y-187235002D03*
X201950000Y-186001670D03*
X201950000Y-185385000D03*
X201940000Y-189705000D03*
X201896000Y-188465000D03*
X201894000Y-186595000D03*
X201314000Y-188465000D03*
X201312000Y-186595000D03*
X200732000Y-188465000D03*
X200730000Y-186595000D03*
X200150000Y-188465000D03*
X200148000Y-186595000D03*
%TD*%
D15*
%TO.P,U63,1,VSS*%
%TO.N,/stack6/GND0*%
X177440000Y-157580000D03*
%TO.P,U63,2,CO*%
%TO.N,Net-(U63-CO)*%
X177440000Y-158230000D03*
%TO.P,U63,3,CLKO*%
%TO.N,Net-(U63-CLKO)*%
X177440000Y-158880000D03*
%TO.P,U63,4,RI*%
%TO.N,Net-(U63-RI)*%
X177440000Y-159530000D03*
%TO.P,U63,5,BO*%
%TO.N,Net-(U63-BO)*%
X177440000Y-160180000D03*
%TO.P,U63,6,NRSTO*%
%TO.N,Net-(U63-NRSTO)*%
X177440000Y-160830000D03*
%TO.P,U63,7,INV_CLKO*%
%TO.N,unconnected-(U63-INV_CLKO-Pad7)*%
X177440000Y-161480000D03*
%TO.P,U63,8,TEMP_P*%
%TO.N,unconnected-(U63-TEMP_P-Pad8)*%
X177440000Y-162130000D03*
%TO.P,U63,9,TEMP_N*%
%TO.N,unconnected-(U63-TEMP_N-Pad9)*%
X177440000Y-162780000D03*
%TO.P,U63,10,VSS*%
%TO.N,/stack6/GND0*%
X177440000Y-163430000D03*
%TO.P,U63,11,VDDIO_08_0*%
%TO.N,/stack6/0V8-0*%
X177440000Y-164080000D03*
%TO.P,U63,12,VDDIO_18_0*%
%TO.N,unconnected-(U63-VDDIO_18_0-Pad12)*%
X177440000Y-164730000D03*
%TO.P,U63,13,VDDIO_18_1*%
%TO.N,/stack6/1V2-0*%
X185500000Y-164730000D03*
%TO.P,U63,14,VDDIO_08_1*%
%TO.N,unconnected-(U63-VDDIO_08_1-Pad14)*%
X185500000Y-164080000D03*
%TO.P,U63,15,PLL_VSS*%
%TO.N,/stack6/GND0*%
X185500000Y-163430000D03*
%TO.P,U63,16,POR_EN*%
%TO.N,unconnected-(U63-POR_EN-Pad16)*%
X185500000Y-162780000D03*
%TO.P,U63,17,PIN_MODE*%
%TO.N,unconnected-(U63-PIN_MODE-Pad17)*%
X185500000Y-162130000D03*
%TO.P,U63,18,VSS*%
%TO.N,/stack6/GND0*%
X185500000Y-161480000D03*
%TO.P,U63,19,NRSTI*%
%TO.N,Net-(U63-NRSTI)*%
X185500000Y-160830000D03*
%TO.P,U63,20,BI*%
%TO.N,Net-(U63-BI)*%
X185500000Y-160180000D03*
%TO.P,U63,21,RO*%
%TO.N,Net-(U63-RO)*%
X185500000Y-159530000D03*
%TO.P,U63,22,CLKI*%
%TO.N,Net-(U63-CLKI)*%
X185500000Y-158880000D03*
%TO.P,U63,23,CI*%
%TO.N,Net-(U63-CI)*%
X185500000Y-158230000D03*
%TO.P,U63,24,VSS*%
%TO.N,/stack6/GND0*%
X185500000Y-157580000D03*
D12*
%TO.P,U63,25,VDD*%
%TO.N,/stack5/GND2*%
X181500000Y-158230000D03*
D13*
%TO.P,U63,26,VSS*%
%TO.N,/stack6/GND0*%
X178580000Y-161305000D03*
X178582000Y-163175000D03*
X179162000Y-161305000D03*
X179164000Y-163175000D03*
X179744000Y-161305000D03*
X179746000Y-163175000D03*
X180326000Y-161305000D03*
X180328000Y-163175000D03*
X180380000Y-160075000D03*
X180380000Y-160695000D03*
X180380000Y-161928332D03*
X180380000Y-162544998D03*
X180380000Y-163778330D03*
X180380000Y-164395000D03*
X180908000Y-161305000D03*
X180910000Y-163175000D03*
X181490000Y-161305000D03*
X181492000Y-163175000D03*
D14*
X181500000Y-162260000D03*
D13*
X182072000Y-161305000D03*
X182074000Y-163175000D03*
X182600000Y-160685000D03*
X182600000Y-161918332D03*
X182600000Y-162534998D03*
X182600000Y-163768330D03*
X182600000Y-164385000D03*
X182610000Y-160065000D03*
X182654000Y-161305000D03*
X182656000Y-163175000D03*
X183236000Y-161305000D03*
X183238000Y-163175000D03*
X183818000Y-161305000D03*
X183820000Y-163175000D03*
X184400000Y-161305000D03*
X184402000Y-163175000D03*
%TD*%
D15*
%TO.P,U64,1,VSS*%
%TO.N,/stack6/GND1*%
X177440000Y-171260000D03*
%TO.P,U64,2,NRSTI*%
%TO.N,Net-(U64-NRSTI)*%
X177440000Y-171910000D03*
%TO.P,U64,3,BI*%
%TO.N,Net-(U64-BI)*%
X177440000Y-172560000D03*
%TO.P,U64,4,RO*%
%TO.N,Net-(U64-RO)*%
X177440000Y-173210000D03*
%TO.P,U64,5,CLKI*%
%TO.N,Net-(U64-CLKI)*%
X177440000Y-173860000D03*
%TO.P,U64,6,CI*%
%TO.N,Net-(U64-CI)*%
X177440000Y-174510000D03*
%TO.P,U64,7,INV_CLKO*%
%TO.N,unconnected-(U64-INV_CLKO-Pad7)*%
X177440000Y-175160000D03*
%TO.P,U64,8,TEMP_P*%
%TO.N,unconnected-(U64-TEMP_P-Pad8)*%
X177440000Y-175810000D03*
%TO.P,U64,9,TEMP_N*%
%TO.N,unconnected-(U64-TEMP_N-Pad9)*%
X177440000Y-176460000D03*
%TO.P,U64,10,VSS*%
%TO.N,/stack6/GND1*%
X177440000Y-177110000D03*
%TO.P,U64,11,VDDIO_08_0*%
%TO.N,unconnected-(U64-VDDIO_08_0-Pad11)*%
X177440000Y-177760000D03*
%TO.P,U64,12,VDDIO_18_0*%
%TO.N,/stack6/1V2-1*%
X177440000Y-178410000D03*
%TO.P,U64,13,VDDIO_18_1*%
%TO.N,unconnected-(U64-VDDIO_18_1-Pad13)*%
X185500000Y-178410000D03*
%TO.P,U64,14,VDDIO_08_1*%
%TO.N,/stack6/0V8-1*%
X185500000Y-177760000D03*
%TO.P,U64,15,PLL_VSS*%
%TO.N,/stack6/GND1*%
X185500000Y-177110000D03*
%TO.P,U64,16,POR_EN*%
%TO.N,unconnected-(U64-POR_EN-Pad16)*%
X185500000Y-176460000D03*
%TO.P,U64,17,PIN_MODE*%
%TO.N,/stack6/GND1*%
X185500000Y-175810000D03*
%TO.P,U64,18,VSS*%
X185500000Y-175160000D03*
%TO.P,U64,19,CO*%
%TO.N,Net-(U64-CO)*%
X185500000Y-174510000D03*
%TO.P,U64,20,CLKO*%
%TO.N,Net-(U64-CLKO)*%
X185500000Y-173860000D03*
%TO.P,U64,21,RI*%
%TO.N,Net-(U64-RI)*%
X185500000Y-173210000D03*
%TO.P,U64,22,BO*%
%TO.N,Net-(U64-BO)*%
X185500000Y-172560000D03*
%TO.P,U64,23,NRSTO*%
%TO.N,Net-(U64-NRSTO)*%
X185500000Y-171910000D03*
%TO.P,U64,24,VSS*%
%TO.N,/stack6/GND1*%
X185500000Y-171260000D03*
D12*
%TO.P,U64,25,VDD*%
%TO.N,/stack6/GND0*%
X181500000Y-171910000D03*
D13*
%TO.P,U64,26,VSS*%
%TO.N,/stack6/GND1*%
X178580000Y-174985000D03*
X178582000Y-176855000D03*
X179162000Y-174985000D03*
X179164000Y-176855000D03*
X179744000Y-174985000D03*
X179746000Y-176855000D03*
X180326000Y-174985000D03*
X180328000Y-176855000D03*
X180380000Y-173755000D03*
X180380000Y-174375000D03*
X180380000Y-175608332D03*
X180380000Y-176224998D03*
X180380000Y-177458330D03*
X180380000Y-178075000D03*
X180908000Y-174985000D03*
X180910000Y-176855000D03*
X181490000Y-174985000D03*
X181492000Y-176855000D03*
D14*
X181500000Y-175940000D03*
D13*
X182072000Y-174985000D03*
X182074000Y-176855000D03*
X182600000Y-174365000D03*
X182600000Y-175598332D03*
X182600000Y-176214998D03*
X182600000Y-177448330D03*
X182600000Y-178065000D03*
X182610000Y-173745000D03*
X182654000Y-174985000D03*
X182656000Y-176855000D03*
X183236000Y-174985000D03*
X183238000Y-176855000D03*
X183818000Y-174985000D03*
X183820000Y-176855000D03*
X184400000Y-174985000D03*
X184402000Y-176855000D03*
%TD*%
D11*
%TO.P,U73,1,VSS*%
%TO.N,/stack7/GND1*%
X207110000Y-178500000D03*
%TO.P,U73,2,CO*%
%TO.N,Net-(U73-CO)*%
X207110000Y-177850000D03*
%TO.P,U73,3,CLKO*%
%TO.N,Net-(U73-CLKO)*%
X207110000Y-177200000D03*
%TO.P,U73,4,RI*%
%TO.N,Net-(U73-RI)*%
X207110000Y-176550000D03*
%TO.P,U73,5,BO*%
%TO.N,Net-(U73-BO)*%
X207110000Y-175900000D03*
%TO.P,U73,6,NRSTO*%
%TO.N,Net-(U73-NRSTO)*%
X207110000Y-175250000D03*
%TO.P,U73,7,INV_CLKO*%
%TO.N,unconnected-(U73-INV_CLKO-Pad7)*%
X207110000Y-174600000D03*
%TO.P,U73,8,TEMP_P*%
%TO.N,unconnected-(U73-TEMP_P-Pad8)*%
X207110000Y-173950000D03*
%TO.P,U73,9,TEMP_N*%
%TO.N,unconnected-(U73-TEMP_N-Pad9)*%
X207110000Y-173300000D03*
%TO.P,U73,10,VSS*%
%TO.N,/stack7/GND1*%
X207110000Y-172650000D03*
%TO.P,U73,11,VDDIO_08_0*%
%TO.N,/stack7/0V8-1*%
X207110000Y-172000000D03*
%TO.P,U73,12,VDDIO_18_0*%
%TO.N,/stack7/1V2-1*%
X207110000Y-171350000D03*
%TO.P,U73,13,VDDIO_18_1*%
%TO.N,unconnected-(U73-VDDIO_18_1-Pad13)*%
X199050000Y-171350000D03*
%TO.P,U73,14,VDDIO_08_1*%
%TO.N,unconnected-(U73-VDDIO_08_1-Pad14)*%
X199050000Y-172000000D03*
%TO.P,U73,15,PLL_VSS*%
%TO.N,/stack7/GND1*%
X199050000Y-172650000D03*
%TO.P,U73,16,POR_EN*%
%TO.N,unconnected-(U73-POR_EN-Pad16)*%
X199050000Y-173300000D03*
%TO.P,U73,17,PIN_MODE*%
%TO.N,/stack7/GND1*%
X199050000Y-173950000D03*
%TO.P,U73,18,VSS*%
X199050000Y-174600000D03*
%TO.P,U73,19,NRSTI*%
%TO.N,Net-(U73-NRSTI)*%
X199050000Y-175250000D03*
%TO.P,U73,20,BI*%
%TO.N,Net-(U73-BI)*%
X199050000Y-175900000D03*
%TO.P,U73,21,RO*%
%TO.N,Net-(U73-RO)*%
X199050000Y-176550000D03*
%TO.P,U73,22,CLKI*%
%TO.N,Net-(U73-CLKI)*%
X199050000Y-177200000D03*
%TO.P,U73,23,CI*%
%TO.N,Net-(U73-CI)*%
X199050000Y-177850000D03*
%TO.P,U73,24,VSS*%
%TO.N,/stack7/GND1*%
X199050000Y-178500000D03*
D12*
%TO.P,U73,25,VDD*%
%TO.N,/stack7/GND0*%
X203050000Y-177850000D03*
D13*
%TO.P,U73,26,VSS*%
%TO.N,/stack7/GND1*%
X205970000Y-174775000D03*
X205968000Y-172905000D03*
X205388000Y-174775000D03*
X205386000Y-172905000D03*
X204806000Y-174775000D03*
X204804000Y-172905000D03*
X204224000Y-174775000D03*
X204222000Y-172905000D03*
X204170000Y-176005000D03*
X204170000Y-175385000D03*
X204170000Y-174151668D03*
X204170000Y-173535002D03*
X204170000Y-172301670D03*
X204170000Y-171685000D03*
X203642000Y-174775000D03*
X203640000Y-172905000D03*
X203060000Y-174775000D03*
X203058000Y-172905000D03*
D14*
X203050000Y-173820000D03*
D13*
X202478000Y-174775000D03*
X202476000Y-172905000D03*
X201950000Y-175395000D03*
X201950000Y-174161668D03*
X201950000Y-173545002D03*
X201950000Y-172311670D03*
X201950000Y-171695000D03*
X201940000Y-176015000D03*
X201896000Y-174775000D03*
X201894000Y-172905000D03*
X201314000Y-174775000D03*
X201312000Y-172905000D03*
X200732000Y-174775000D03*
X200730000Y-172905000D03*
X200150000Y-174775000D03*
X200148000Y-172905000D03*
%TD*%
D11*
%TO.P,U56,1,VSS*%
%TO.N,/stack5/GND2*%
X164070000Y-164730000D03*
%TO.P,U56,2,NRSTI*%
%TO.N,/stack5/NRSTI*%
X164070000Y-164080000D03*
%TO.P,U56,3,BI*%
%TO.N,/stack5/BI*%
X164070000Y-163430000D03*
%TO.P,U56,4,RO*%
%TO.N,/stack5/RO*%
X164070000Y-162780000D03*
%TO.P,U56,5,CLKI*%
%TO.N,/stack5/CLKI*%
X164070000Y-162130000D03*
%TO.P,U56,6,CI*%
%TO.N,/stack5/CI*%
X164070000Y-161480000D03*
%TO.P,U56,7,INV_CLKO*%
%TO.N,unconnected-(U56-INV_CLKO-Pad7)*%
X164070000Y-160830000D03*
%TO.P,U56,8,TEMP_P*%
%TO.N,unconnected-(U56-TEMP_P-Pad8)*%
X164070000Y-160180000D03*
%TO.P,U56,9,TEMP_N*%
%TO.N,unconnected-(U56-TEMP_N-Pad9)*%
X164070000Y-159530000D03*
%TO.P,U56,10,VSS*%
%TO.N,/stack5/GND2*%
X164070000Y-158880000D03*
%TO.P,U56,11,VDDIO_08_0*%
%TO.N,unconnected-(U56-VDDIO_08_0-Pad11)*%
X164070000Y-158230000D03*
%TO.P,U56,12,VDDIO_18_0*%
%TO.N,unconnected-(U56-VDDIO_18_0-Pad12)*%
X164070000Y-157580000D03*
%TO.P,U56,13,VDDIO_18_1*%
%TO.N,/stack5/1V2-2*%
X156010000Y-157580000D03*
%TO.P,U56,14,VDDIO_08_1*%
%TO.N,/stack5/0V8-2*%
X156010000Y-158230000D03*
%TO.P,U56,15,PLL_VSS*%
%TO.N,/stack5/GND2*%
X156010000Y-158880000D03*
%TO.P,U56,16,POR_EN*%
%TO.N,unconnected-(U56-POR_EN-Pad16)*%
X156010000Y-159530000D03*
%TO.P,U56,17,PIN_MODE*%
%TO.N,unconnected-(U56-PIN_MODE-Pad17)*%
X156010000Y-160180000D03*
%TO.P,U56,18,VSS*%
%TO.N,/stack5/GND2*%
X156010000Y-160830000D03*
%TO.P,U56,19,CO*%
%TO.N,Net-(U56-CO)*%
X156010000Y-161480000D03*
%TO.P,U56,20,CLKO*%
%TO.N,Net-(U56-CLKO)*%
X156010000Y-162130000D03*
%TO.P,U56,21,RI*%
%TO.N,Net-(U56-RI)*%
X156010000Y-162780000D03*
%TO.P,U56,22,BO*%
%TO.N,Net-(U56-BO)*%
X156010000Y-163430000D03*
%TO.P,U56,23,NRSTO*%
%TO.N,Net-(U56-NRSTO)*%
X156010000Y-164080000D03*
%TO.P,U56,24,VSS*%
%TO.N,/stack5/GND2*%
X156010000Y-164730000D03*
D12*
%TO.P,U56,25,VDD*%
%TO.N,/stack5/GND1*%
X160010000Y-164080000D03*
D13*
%TO.P,U56,26,VSS*%
%TO.N,/stack5/GND2*%
X162930000Y-161005000D03*
X162928000Y-159135000D03*
X162348000Y-161005000D03*
X162346000Y-159135000D03*
X161766000Y-161005000D03*
X161764000Y-159135000D03*
X161184000Y-161005000D03*
X161182000Y-159135000D03*
X161130000Y-162235000D03*
X161130000Y-161615000D03*
X161130000Y-160381668D03*
X161130000Y-159765002D03*
X161130000Y-158531670D03*
X161130000Y-157915000D03*
X160602000Y-161005000D03*
X160600000Y-159135000D03*
X160020000Y-161005000D03*
X160018000Y-159135000D03*
D14*
X160010000Y-160050000D03*
D13*
X159438000Y-161005000D03*
X159436000Y-159135000D03*
X158910000Y-161625000D03*
X158910000Y-160391668D03*
X158910000Y-159775002D03*
X158910000Y-158541670D03*
X158910000Y-157925000D03*
X158900000Y-162245000D03*
X158856000Y-161005000D03*
X158854000Y-159135000D03*
X158274000Y-161005000D03*
X158272000Y-159135000D03*
X157692000Y-161005000D03*
X157690000Y-159135000D03*
X157110000Y-161005000D03*
X157108000Y-159135000D03*
%TD*%
D16*
%TO.P,U7,1,SDA*%
%TO.N,/Data/SDA*%
X232595000Y-178000000D03*
%TO.P,U7,2,SCL*%
%TO.N,/Data/SCL*%
X233245000Y-178000000D03*
%TO.P,U7,3,ALERT*%
%TO.N,unconnected-(U7-ALERT-Pad3)*%
X233895000Y-178000000D03*
%TO.P,U7,4,GND*%
%TO.N,GND*%
X234545000Y-178000000D03*
%TO.P,U7,5,A2*%
X234545000Y-173700000D03*
%TO.P,U7,6,A1*%
%TO.N,/3V3*%
X233895000Y-173700000D03*
%TO.P,U7,7,A0*%
X233245000Y-173700000D03*
%TO.P,U7,8,V+*%
X232595000Y-173700000D03*
%TD*%
%TO.P,U6,1,SDA*%
%TO.N,/Data/SDA*%
X120455000Y-178030000D03*
%TO.P,U6,2,SCL*%
%TO.N,/Data/SCL*%
X121105000Y-178030000D03*
%TO.P,U6,3,ALERT*%
%TO.N,unconnected-(U6-ALERT-Pad3)*%
X121755000Y-178030000D03*
%TO.P,U6,4,GND*%
%TO.N,GND*%
X122405000Y-178030000D03*
%TO.P,U6,5,A2*%
X122405000Y-173730000D03*
%TO.P,U6,6,A1*%
%TO.N,/3V3*%
X121755000Y-173730000D03*
%TO.P,U6,7,A0*%
%TO.N,GND*%
X121105000Y-173730000D03*
%TO.P,U6,8,V+*%
%TO.N,/3V3*%
X120455000Y-173730000D03*
%TD*%
D17*
%TO.P,U9,1,DIN*%
%TO.N,Net-(U27-GPIO1)*%
X231650000Y-84670000D03*
D18*
%TO.P,U9,2,VDD*%
%TO.N,/5V*%
X230300000Y-84670000D03*
D19*
%TO.P,U9,3,DOUT*%
%TO.N,unconnected-(U9-DOUT-Pad3)*%
X229275000Y-84670000D03*
D17*
%TO.P,U9,4,GND*%
%TO.N,GND*%
X228050000Y-84670000D03*
%TD*%
D20*
%TO.P,U8,1,/CS*%
%TO.N,/Data/QSPI_SS*%
X207344400Y-94209998D03*
%TO.P,U8,2,DO(IO1)*%
%TO.N,/Data/QSPI_SD1*%
X207344400Y-94709999D03*
%TO.P,U8,3,/WP(IO2)*%
%TO.N,/Data/QSPI_SD2*%
X207344400Y-95209999D03*
%TO.P,U8,4,GND*%
%TO.N,GND*%
X207344400Y-95710000D03*
%TO.P,U8,5,DI(IO0)*%
%TO.N,/Data/QSPI_SD0*%
X210240000Y-95710000D03*
%TO.P,U8,6,CLK*%
%TO.N,/Data/QSPI_SCLK*%
X210240000Y-95209999D03*
%TO.P,U8,7,/HOLDOR/RESET(IO3)*%
%TO.N,/Data/QSPI_SD3*%
X210240000Y-94709999D03*
%TO.P,U8,8,VCC*%
%TO.N,/3V3*%
X210240000Y-94209998D03*
D21*
%TO.P,U8,9,EPAD*%
%TO.N,GND*%
X208792200Y-94959999D03*
%TD*%
D22*
%TO.P,U10,1,GND*%
%TO.N,GND*%
X229230000Y-91130000D03*
%TO.P,U10,2,VOUT*%
%TO.N,/3V3*%
X226930000Y-91130000D03*
%TO.P,U10,3,VIN*%
%TO.N,/5V*%
X224630000Y-91130000D03*
D23*
%TO.P,U10,4,VOUT*%
%TO.N,/3V3*%
X226930000Y-96930000D03*
%TD*%
D24*
%TO.P,C16,1*%
%TO.N,/3V6*%
X157732600Y-130610000D03*
%TO.P,C16,2*%
%TO.N,GND*%
X164387400Y-130610000D03*
%TD*%
D25*
%TO.P,U4,1,DIR1*%
%TO.N,GND*%
X231350000Y-154435000D03*
%TO.P,U4,2,DIR2*%
X232000000Y-154435000D03*
%TO.P,U4,3,A1*%
%TO.N,/stack7/RST_N*%
X232650000Y-154435000D03*
%TO.P,U4,4,A2*%
%TO.N,/stack7/CI*%
X233300000Y-154435000D03*
%TO.P,U4,5,A3*%
%TO.N,/stack7/RO*%
X233950000Y-154435000D03*
%TO.P,U4,6,A4*%
%TO.N,GND*%
X234600000Y-154435000D03*
%TO.P,U4,7,DIR3*%
%TO.N,/stack7/1V2-2*%
X235250000Y-154435000D03*
%TO.P,U4,8,DIR4*%
X235900000Y-154435000D03*
%TO.P,U4,9,OE*%
%TO.N,GND*%
X235900000Y-148710000D03*
%TO.P,U4,10,GND*%
X235250000Y-148710000D03*
%TO.P,U4,11,B4*%
%TO.N,unconnected-(U4-B4-Pad11)*%
X234600000Y-148710000D03*
%TO.P,U4,12,B3*%
%TO.N,/RX*%
X233950000Y-148710000D03*
%TO.P,U4,13,B2*%
%TO.N,/TX*%
X233300000Y-148710000D03*
%TO.P,U4,14,B1*%
%TO.N,/RST*%
X232650000Y-148710000D03*
%TO.P,U4,15,VCCB*%
%TO.N,/3V3*%
X232000000Y-148710000D03*
%TO.P,U4,16,VCCA*%
%TO.N,/stack7/1V2-2*%
X231350000Y-148710000D03*
%TD*%
D26*
%TO.P,R6,1*%
%TO.N,/3V6*%
X148280000Y-98045000D03*
%TO.P,R6,2*%
%TO.N,/Power/OUT0*%
X148280000Y-96395000D03*
%TD*%
D27*
%TO.P,C11,1*%
%TO.N,/Power/OUT0*%
X144790000Y-90030000D03*
%TO.P,C11,2*%
%TO.N,Net-(C11-Pad2)*%
X144790000Y-88130000D03*
%TD*%
D28*
%TO.P,D1,1,K*%
%TO.N,Net-(D1-K)*%
X126332400Y-99975000D03*
%TO.P,D1,2,A*%
%TO.N,Net-(D1-A)*%
X128567600Y-99975000D03*
%TD*%
D29*
%TO.P,J16,1,Pin_1*%
%TO.N,/stack6/GND2*%
X181505000Y-195370000D03*
D30*
X185295000Y-197370000D03*
%TD*%
D31*
%TO.P,R5,1*%
%TO.N,Net-(U1-RAMP1)*%
X134585000Y-98490000D03*
%TO.P,R5,2*%
%TO.N,/Power/SW1*%
X132935000Y-98490000D03*
%TD*%
D32*
%TO.P,H6,1,1*%
%TO.N,unconnected-(H6-Pad1)*%
X192930000Y-181770000D03*
%TD*%
D33*
%TO.P,R20,1*%
%TO.N,/Data/SCL*%
X206330000Y-103690000D03*
%TO.P,R20,2*%
%TO.N,/3V3*%
X207350000Y-103690000D03*
%TD*%
D34*
%TO.P,Q4,1,S*%
%TO.N,/Power/LOOP2*%
X197075000Y-116440003D03*
%TO.P,Q4,2,S*%
X198345000Y-116440003D03*
%TO.P,Q4,3,S*%
X199615000Y-116440003D03*
%TO.P,Q4,4,G*%
%TO.N,Net-(Q4-G)*%
X200885000Y-116440003D03*
%TO.P,Q4,5,D*%
%TO.N,/Power/SW2*%
X200885000Y-110850001D03*
%TO.P,Q4,6,D*%
X199615000Y-110850001D03*
%TO.P,Q4,7,D*%
X198345000Y-110850001D03*
D35*
%TO.P,Q4,8,D*%
X198980000Y-112640000D03*
D34*
X197075000Y-110850001D03*
%TD*%
D27*
%TO.P,C15,1*%
%TO.N,Net-(D2-K)*%
X129350000Y-91060000D03*
%TO.P,C15,2*%
%TO.N,/Power/SW2*%
X129350000Y-89160000D03*
%TD*%
D36*
%TO.P,C101,1*%
%TO.N,GND*%
X220010000Y-94510000D03*
%TO.P,C101,2*%
%TO.N,/Data/1V1*%
X219050000Y-94510000D03*
%TD*%
D27*
%TO.P,C7,1*%
%TO.N,Net-(U1-SS2)*%
X138600000Y-86110000D03*
%TO.P,C7,2*%
%TO.N,GND*%
X138600000Y-84210000D03*
%TD*%
D37*
%TO.P,C9,1*%
%TO.N,Net-(U1-SS1)*%
X136800000Y-98770000D03*
%TO.P,C9,2*%
%TO.N,GND*%
X136800000Y-100670000D03*
%TD*%
%TO.P,C5,1*%
%TO.N,Net-(D1-A)*%
X130600000Y-98130000D03*
%TO.P,C5,2*%
%TO.N,GND*%
X130600000Y-100030000D03*
%TD*%
D38*
%TO.P,JP1,1,A*%
%TO.N,/Data/PWR_EN*%
X125640000Y-88430000D03*
%TO.P,JP1,2,C*%
%TO.N,Net-(JP1-C)*%
X124340000Y-88430000D03*
%TO.P,JP1,3,B*%
%TO.N,Net-(JP1-B)*%
X123040000Y-88430000D03*
%TD*%
D32*
%TO.P,H8,1,1*%
%TO.N,unconnected-(H8-Pad1)*%
X170930000Y-181770000D03*
%TD*%
D39*
%TO.P,U27,1,IOVDD*%
%TO.N,/3V3*%
X211762500Y-97777500D03*
%TO.P,U27,2,GPIO0*%
%TO.N,/Data/PWR_EN*%
X211762500Y-98177500D03*
%TO.P,U27,3,GPIO1*%
%TO.N,Net-(U27-GPIO1)*%
X211762500Y-98577500D03*
%TO.P,U27,4,GPIO2*%
%TO.N,unconnected-(U27-GPIO2-Pad4)*%
X211762500Y-98977500D03*
%TO.P,U27,5,GPIO3*%
%TO.N,unconnected-(U27-GPIO3-Pad5)*%
X211762500Y-99377500D03*
%TO.P,U27,6,GPIO4*%
%TO.N,unconnected-(U27-GPIO4-Pad6)*%
X211762500Y-99777500D03*
%TO.P,U27,7,GPIO5*%
%TO.N,unconnected-(U27-GPIO5-Pad7)*%
X211762500Y-100177500D03*
%TO.P,U27,8,GPIO6*%
%TO.N,unconnected-(U27-GPIO6-Pad8)*%
X211762500Y-100577500D03*
%TO.P,U27,9,GPIO7*%
%TO.N,unconnected-(U27-GPIO7-Pad9)*%
X211762500Y-100977500D03*
%TO.P,U27,10,IOVDD*%
%TO.N,/3V3*%
X211762500Y-101377500D03*
%TO.P,U27,11,GPIO8*%
%TO.N,/TX*%
X211762500Y-101777500D03*
%TO.P,U27,12,GPIO9*%
%TO.N,/RX*%
X211762500Y-102177500D03*
%TO.P,U27,13,GPIO10*%
%TO.N,unconnected-(U27-GPIO10-Pad13)*%
X211762500Y-102577500D03*
%TO.P,U27,14,GPIO11*%
%TO.N,/RST*%
X211762500Y-102977500D03*
D40*
%TO.P,U27,15,GPIO12*%
%TO.N,unconnected-(U27-GPIO12-Pad15)*%
X212600000Y-103815000D03*
%TO.P,U27,16,GPIO13*%
%TO.N,unconnected-(U27-GPIO13-Pad16)*%
X213000000Y-103815000D03*
%TO.P,U27,17,GPIO14*%
%TO.N,/Data/SDA*%
X213400000Y-103815000D03*
%TO.P,U27,18,GPIO15*%
%TO.N,/Data/SCL*%
X213800000Y-103815000D03*
%TO.P,U27,19,TESTEN*%
%TO.N,GND*%
X214200000Y-103815000D03*
%TO.P,U27,20,XIN*%
%TO.N,/Data/XIN*%
X214600000Y-103815000D03*
%TO.P,U27,21,XOUT*%
%TO.N,/Data/XOUT*%
X215000000Y-103815000D03*
%TO.P,U27,22,IOVDD*%
%TO.N,/3V3*%
X215400000Y-103815000D03*
%TO.P,U27,23,DVDD*%
%TO.N,/Data/1V1*%
X215800000Y-103815000D03*
%TO.P,U27,24,SWCLK*%
%TO.N,/Data/SWCLK*%
X216200000Y-103815000D03*
%TO.P,U27,25,SWD*%
%TO.N,/Data/SWD*%
X216600000Y-103815000D03*
%TO.P,U27,26,RUN*%
%TO.N,/3V3*%
X217000000Y-103815000D03*
%TO.P,U27,27,GPIO16*%
%TO.N,unconnected-(U27-GPIO16-Pad27)*%
X217400000Y-103815000D03*
%TO.P,U27,28,GPIO17*%
%TO.N,unconnected-(U27-GPIO17-Pad28)*%
X217800000Y-103815000D03*
D39*
%TO.P,U27,29,GPIO18*%
%TO.N,unconnected-(U27-GPIO18-Pad29)*%
X218637500Y-102977500D03*
%TO.P,U27,30,GPIO19*%
%TO.N,unconnected-(U27-GPIO19-Pad30)*%
X218637500Y-102577500D03*
%TO.P,U27,31,GPIO20*%
%TO.N,unconnected-(U27-GPIO20-Pad31)*%
X218637500Y-102177500D03*
%TO.P,U27,32,GPIO21*%
%TO.N,unconnected-(U27-GPIO21-Pad32)*%
X218637500Y-101777500D03*
%TO.P,U27,33,IOVDD*%
%TO.N,/3V3*%
X218637500Y-101377500D03*
%TO.P,U27,34,GPIO22*%
%TO.N,unconnected-(U27-GPIO22-Pad34)*%
X218637500Y-100977500D03*
%TO.P,U27,35,GPIO23*%
%TO.N,unconnected-(U27-GPIO23-Pad35)*%
X218637500Y-100577500D03*
%TO.P,U27,36,GPIO24*%
%TO.N,unconnected-(U27-GPIO24-Pad36)*%
X218637500Y-100177500D03*
%TO.P,U27,37,GPIO25*%
%TO.N,unconnected-(U27-GPIO25-Pad37)*%
X218637500Y-99777500D03*
%TO.P,U27,38,GPIO26_ADC0*%
%TO.N,Net-(U27-GPIO26_ADC0)*%
X218637500Y-99377500D03*
%TO.P,U27,39,GPIO27_ADC1*%
%TO.N,unconnected-(U27-GPIO27_ADC1-Pad39)*%
X218637500Y-98977500D03*
%TO.P,U27,40,GPIO28_ADC2*%
%TO.N,unconnected-(U27-GPIO28_ADC2-Pad40)*%
X218637500Y-98577500D03*
%TO.P,U27,41,GPIO29_ADC3*%
%TO.N,unconnected-(U27-GPIO29_ADC3-Pad41)*%
X218637500Y-98177500D03*
%TO.P,U27,42,IOVDD*%
%TO.N,/3V3*%
X218637500Y-97777500D03*
D40*
%TO.P,U27,43,ADC_AVDD*%
X217800000Y-96940000D03*
%TO.P,U27,44,VREG_IN*%
X217400000Y-96940000D03*
%TO.P,U27,45,VREG_VOUT*%
%TO.N,/Data/1V1*%
X217000000Y-96940000D03*
%TO.P,U27,46,USB_DM*%
%TO.N,Net-(U27-USB_DM)*%
X216600000Y-96940000D03*
%TO.P,U27,47,USB_DP*%
%TO.N,Net-(U27-USB_DP)*%
X216200000Y-96940000D03*
%TO.P,U27,48,USB_VDD*%
%TO.N,/3V3*%
X215800000Y-96940000D03*
%TO.P,U27,49,IOVDD*%
X215400000Y-96940000D03*
%TO.P,U27,50,DVDD*%
%TO.N,/Data/1V1*%
X215000000Y-96940000D03*
%TO.P,U27,51,QSPI_SD3*%
%TO.N,/Data/QSPI_SD3*%
X214600000Y-96940000D03*
%TO.P,U27,52,QSPI_SCLK*%
%TO.N,/Data/QSPI_SCLK*%
X214200000Y-96940000D03*
%TO.P,U27,53,QSPI_SD0*%
%TO.N,/Data/QSPI_SD0*%
X213800000Y-96940000D03*
%TO.P,U27,54,QSPI_SD2*%
%TO.N,/Data/QSPI_SD2*%
X213400000Y-96940000D03*
%TO.P,U27,55,QSPI_SD1*%
%TO.N,/Data/QSPI_SD1*%
X213000000Y-96940000D03*
%TO.P,U27,56,QSPI_SS*%
%TO.N,/Data/QSPI_SS*%
X212600000Y-96940000D03*
D41*
%TO.P,U27,57,GND*%
%TO.N,GND*%
X215200000Y-100377500D03*
%TD*%
D42*
%TO.P,R9,1*%
%TO.N,/Power/SW2*%
X134440000Y-84545000D03*
%TO.P,R9,2*%
%TO.N,Net-(U1-RAMP2)*%
X134440000Y-86195000D03*
%TD*%
D43*
%TO.P,C22,1*%
%TO.N,/3V3*%
X235550000Y-145820000D03*
%TO.P,C22,2*%
%TO.N,GND*%
X235550000Y-146780000D03*
%TD*%
D44*
%TO.P,C107,1*%
%TO.N,GND*%
X208410000Y-100500000D03*
%TO.P,C107,2*%
%TO.N,/3V3*%
X209370000Y-100500000D03*
%TD*%
D29*
%TO.P,J4,1,Pin_1*%
%TO.N,/stack4/GND1*%
X138460000Y-181660000D03*
D45*
X138460000Y-181660000D03*
%TD*%
D29*
%TO.P,J3,1,Pin_1*%
%TO.N,/stack4/GND0*%
X138460000Y-167970000D03*
D45*
X138460000Y-167970000D03*
%TD*%
D46*
%TO.P,C17,1*%
%TO.N,/3V6*%
X171484832Y-134109329D03*
%TO.P,C17,2*%
%TO.N,GND*%
X171484832Y-127454529D03*
%TD*%
D29*
%TO.P,J18,1,Pin_1*%
%TO.N,/3V6*%
X138470000Y-154320000D03*
D30*
X134680000Y-152320000D03*
%TD*%
D47*
%TO.P,C20,1*%
%TO.N,/3V3*%
X153760000Y-96730000D03*
%TO.P,C20,2*%
%TO.N,GND*%
X151860000Y-96730000D03*
%TD*%
D48*
%TO.P,R52,1*%
%TO.N,GND*%
X208840000Y-87870000D03*
%TO.P,R52,2*%
%TO.N,Net-(J6-CC2)*%
X208840000Y-86850000D03*
%TD*%
D49*
%TO.P,R53,1*%
%TO.N,/Data/USB_DP*%
X215670000Y-93570000D03*
%TO.P,R53,2*%
%TO.N,Net-(U27-USB_DP)*%
X215670000Y-94590000D03*
%TD*%
D31*
%TO.P,R4,1*%
%TO.N,Net-(C11-Pad2)*%
X142455000Y-87920000D03*
%TO.P,R4,2*%
%TO.N,Net-(U1-COMP1)*%
X140805000Y-87920000D03*
%TD*%
D50*
%TO.P,C106,1*%
%TO.N,GND*%
X219520000Y-106400000D03*
%TO.P,C106,2*%
%TO.N,/3V3*%
X219520000Y-105440000D03*
%TD*%
D44*
%TO.P,C99,1*%
%TO.N,GND*%
X209240000Y-92850000D03*
%TO.P,C99,2*%
%TO.N,/3V3*%
X210200000Y-92850000D03*
%TD*%
D29*
%TO.P,J11,1,Pin_1*%
%TO.N,/stack7/GND1*%
X203050000Y-168080000D03*
D45*
X203050000Y-168080000D03*
%TD*%
D24*
%TO.P,C18,1*%
%TO.N,/3V6*%
X199197400Y-130610000D03*
%TO.P,C18,2*%
%TO.N,GND*%
X192542600Y-130610000D03*
%TD*%
D29*
%TO.P,J10,1,Pin_1*%
%TO.N,/stack7/GND0*%
X203050000Y-181770000D03*
D45*
X203050000Y-181770000D03*
%TD*%
D51*
%TO.P,J1,1,Pin_1*%
%TO.N,/Power/VIN*%
X164295549Y-85250000D03*
X164295549Y-92250000D03*
X169295549Y-85250000D03*
X169295549Y-92250000D03*
%TD*%
D32*
%TO.P,H5,1,1*%
%TO.N,unconnected-(H5-Pad1)*%
X192930000Y-167770000D03*
%TD*%
D30*
%TO.P,J17,1,Pin_1*%
%TO.N,/stack6/GND2*%
X199270000Y-197370000D03*
D29*
X203050000Y-195370000D03*
%TD*%
%TO.P,J9,1,Pin_1*%
%TO.N,/stack6/GND1*%
X181500000Y-181680000D03*
D45*
X181500000Y-181680000D03*
%TD*%
D52*
%TO.P,D2,1,K*%
%TO.N,Net-(D2-K)*%
X129305000Y-87307600D03*
%TO.P,D2,2,A*%
%TO.N,Net-(D2-A)*%
X129305000Y-85072400D03*
%TD*%
D29*
%TO.P,J12,1,Pin_1*%
%TO.N,/stack4/GND2*%
X138420000Y-195340000D03*
D30*
X142210000Y-197340000D03*
%TD*%
D44*
%TO.P,C24,1*%
%TO.N,/3V3*%
X120100000Y-172040000D03*
%TO.P,C24,2*%
%TO.N,GND*%
X121060000Y-172040000D03*
%TD*%
D53*
%TO.P,L1,3,NC*%
%TO.N,unconnected-(L1-NC-Pad3)*%
X139683949Y-129173949D03*
D54*
%TO.P,L1,2,2*%
%TO.N,/3V6*%
X134468951Y-107098948D03*
%TO.P,L1,1,1*%
%TO.N,/Power/SW1*%
X144898950Y-107098948D03*
%TD*%
D29*
%TO.P,J8,1,Pin_1*%
%TO.N,/stack6/GND0*%
X181500000Y-167990000D03*
D45*
X181500000Y-167990000D03*
%TD*%
D44*
%TO.P,C100,1*%
%TO.N,GND*%
X212430000Y-94770000D03*
%TO.P,C100,2*%
%TO.N,/Data/1V1*%
X213390000Y-94770000D03*
%TD*%
D42*
%TO.P,R7,1*%
%TO.N,/Power/OUT0*%
X149990000Y-96395000D03*
%TO.P,R7,2*%
%TO.N,GND*%
X149990000Y-98045000D03*
%TD*%
D50*
%TO.P,C105,1*%
%TO.N,GND*%
X218180000Y-106450000D03*
%TO.P,C105,2*%
%TO.N,/3V3*%
X218180000Y-105490000D03*
%TD*%
D55*
%TO.P,J6,A1B12,GND*%
%TO.N,GND*%
X218180000Y-90110000D03*
%TO.P,J6,A4B9,VBUS*%
%TO.N,/5V*%
X217380000Y-90110000D03*
D56*
%TO.P,J6,A5,CC1*%
%TO.N,Net-(J6-CC1)*%
X216230000Y-90110000D03*
%TO.P,J6,A6,D+*%
%TO.N,/Data/USB_DP*%
X215230000Y-90110000D03*
%TO.P,J6,A7,D-*%
%TO.N,/Data/USB_DN*%
X214730000Y-90110000D03*
%TO.P,J6,A8,SBU1*%
%TO.N,/Data/SWCLK*%
X213730000Y-90110000D03*
D55*
%TO.P,J6,B1A12,GND*%
%TO.N,GND*%
X211780000Y-90110000D03*
%TO.P,J6,B4A9,VBUS*%
%TO.N,/5V*%
X212580000Y-90110000D03*
D56*
%TO.P,J6,B5,CC2*%
%TO.N,Net-(J6-CC2)*%
X213230000Y-90110000D03*
%TO.P,J6,B6,D+*%
%TO.N,/Data/USB_DP*%
X214230000Y-90110000D03*
%TO.P,J6,B7,D-*%
%TO.N,/Data/USB_DN*%
X215730000Y-90110000D03*
%TO.P,J6,B8,SBU2*%
%TO.N,/Data/SWD*%
X216730000Y-90110000D03*
D57*
%TO.P,J6,S1,SHIELD*%
%TO.N,GND*%
X219300000Y-89535000D03*
D58*
X219300000Y-85355000D03*
D57*
X210660000Y-89535000D03*
D58*
X210660000Y-85355000D03*
%TD*%
D43*
%TO.P,C90,1*%
%TO.N,/5V*%
X222680000Y-92710000D03*
%TO.P,C90,2*%
%TO.N,GND*%
X222680000Y-93670000D03*
%TD*%
%TO.P,C96,1*%
%TO.N,GND*%
X216750000Y-108230000D03*
%TO.P,C96,2*%
%TO.N,/Data/XOUT*%
X216750000Y-109190000D03*
%TD*%
D44*
%TO.P,C25,1*%
%TO.N,/3V3*%
X232250000Y-172010000D03*
%TO.P,C25,2*%
%TO.N,GND*%
X233210000Y-172010000D03*
%TD*%
D43*
%TO.P,C21,1*%
%TO.N,/stack7/1V2-2*%
X235550000Y-156470000D03*
%TO.P,C21,2*%
%TO.N,GND*%
X235550000Y-157430000D03*
%TD*%
D36*
%TO.P,C104,1*%
%TO.N,GND*%
X222020000Y-97805000D03*
%TO.P,C104,2*%
%TO.N,/3V3*%
X221060000Y-97805000D03*
%TD*%
D34*
%TO.P,Q2,1,S*%
%TO.N,/Power/LOOP1*%
X155990000Y-116475002D03*
%TO.P,Q2,2,S*%
X157260000Y-116475002D03*
%TO.P,Q2,3,S*%
X158530000Y-116475002D03*
%TO.P,Q2,4,G*%
%TO.N,Net-(Q2-G)*%
X159800000Y-116475002D03*
%TO.P,Q2,5,D*%
%TO.N,/Power/SW1*%
X159800000Y-110885000D03*
%TO.P,Q2,6,D*%
X158530000Y-110885000D03*
%TO.P,Q2,7,D*%
X157260000Y-110885000D03*
D35*
%TO.P,Q2,8,D*%
X157895000Y-112674999D03*
D34*
X155990000Y-110885000D03*
%TD*%
D36*
%TO.P,C108,1*%
%TO.N,GND*%
X220010000Y-95570000D03*
%TO.P,C108,2*%
%TO.N,/3V3*%
X219050000Y-95570000D03*
%TD*%
D30*
%TO.P,J15,1,Pin_1*%
%TO.N,/stack5/GND2*%
X163790000Y-152310000D03*
D29*
X160010000Y-154310000D03*
%TD*%
D48*
%TO.P,R51,1*%
%TO.N,GND*%
X221220000Y-87860000D03*
%TO.P,R51,2*%
%TO.N,Net-(J6-CC1)*%
X221220000Y-86840000D03*
%TD*%
D44*
%TO.P,C109,1*%
%TO.N,GND*%
X208410000Y-97785000D03*
%TO.P,C109,2*%
%TO.N,/3V3*%
X209370000Y-97785000D03*
%TD*%
D59*
%TO.P,C4,1*%
%TO.N,/Power/VIN_M*%
X173200000Y-111760000D03*
%TO.P,C4,2*%
%TO.N,GND*%
X180108800Y-111760000D03*
%TD*%
D60*
%TO.P,R10,1*%
%TO.N,/Power/LOOP2*%
X198036600Y-121700000D03*
%TO.P,R10,2*%
%TO.N,GND*%
X188943400Y-121700000D03*
%TD*%
D29*
%TO.P,J5,1,Pin_1*%
%TO.N,/stack5/GND0*%
X159990000Y-181670000D03*
D45*
X159990000Y-181670000D03*
%TD*%
D33*
%TO.P,R22,1*%
%TO.N,Net-(U27-GPIO26_ADC0)*%
X223320000Y-99620000D03*
%TO.P,R22,2*%
%TO.N,GND*%
X224340000Y-99620000D03*
%TD*%
D61*
%TO.P,R3,1*%
%TO.N,Net-(U1-RT)*%
X140805000Y-91610000D03*
%TO.P,R3,2*%
%TO.N,GND*%
X142455000Y-91610000D03*
%TD*%
D32*
%TO.P,H10,1,1*%
%TO.N,unconnected-(H10-Pad1)*%
X148930000Y-181770000D03*
%TD*%
D47*
%TO.P,C2,1*%
%TO.N,/Power/VIN_M*%
X125690000Y-95810000D03*
%TO.P,C2,2*%
%TO.N,GND*%
X123790000Y-95810000D03*
%TD*%
D62*
%TO.P,C1,1*%
%TO.N,/Power/VIN_M*%
X166300000Y-108457900D03*
%TO.P,C1,2*%
%TO.N,GND*%
X166300000Y-115366700D03*
%TD*%
D29*
%TO.P,J7,1,Pin_1*%
%TO.N,/stack5/GND1*%
X160000000Y-167990000D03*
D45*
X160000000Y-167990000D03*
%TD*%
D47*
%TO.P,C10,1*%
%TO.N,Net-(U1-RAMP1)*%
X134920000Y-100450000D03*
%TO.P,C10,2*%
%TO.N,GND*%
X133020000Y-100450000D03*
%TD*%
D63*
%TO.P,Y1,1,1*%
%TO.N,/Data/XOUT*%
X215250000Y-108715000D03*
%TO.P,Y1,2,2*%
%TO.N,GND*%
X215250000Y-106415000D03*
%TO.P,Y1,3,3*%
%TO.N,/Data/XIN*%
X213450000Y-106415000D03*
%TO.P,Y1,4,4*%
%TO.N,GND*%
X213450000Y-108715000D03*
%TD*%
D31*
%TO.P,R2,1*%
%TO.N,Net-(JP1-B)*%
X125795000Y-92150000D03*
%TO.P,R2,2*%
%TO.N,GND*%
X124145000Y-92150000D03*
%TD*%
D37*
%TO.P,C13,1*%
%TO.N,Net-(D1-K)*%
X129313949Y-94574843D03*
%TO.P,C13,2*%
%TO.N,/Power/SW1*%
X129313949Y-96474843D03*
%TD*%
D50*
%TO.P,C102,1*%
%TO.N,GND*%
X218180000Y-109180000D03*
%TO.P,C102,2*%
%TO.N,/Data/1V1*%
X218180000Y-108220000D03*
%TD*%
D32*
%TO.P,H7,1,1*%
%TO.N,unconnected-(H7-Pad1)*%
X170930000Y-167770000D03*
%TD*%
D64*
%TO.P,U2,1,SDA*%
%TO.N,/Data/SDA*%
X150928949Y-93196051D03*
%TO.P,U2,2,SCL*%
%TO.N,/Data/SCL*%
X151578949Y-93196051D03*
%TO.P,U2,3,FS1*%
%TO.N,unconnected-(U2-FS1-Pad3)*%
X152228949Y-93196051D03*
%TO.P,U2,4,GND*%
%TO.N,GND*%
X152878949Y-93196051D03*
%TO.P,U2,5,FS0*%
%TO.N,Net-(U2-FS0)*%
X152878949Y-88896051D03*
%TO.P,U2,6,OUT0*%
%TO.N,/Power/OUT0*%
X152228949Y-88896051D03*
%TO.P,U2,7,OUT1*%
%TO.N,unconnected-(U2-OUT1-Pad7)*%
X151578949Y-88896051D03*
%TO.P,U2,8,VCC*%
%TO.N,/3V3*%
X150928949Y-88896051D03*
%TD*%
D44*
%TO.P,C110,1*%
%TO.N,GND*%
X212430000Y-93710000D03*
%TO.P,C110,2*%
%TO.N,/3V3*%
X213390000Y-93710000D03*
%TD*%
D65*
%TO.P,U1,1,VCC1*%
%TO.N,Net-(D1-A)*%
X132263950Y-95681349D03*
%TO.P,U1,2,LO1*%
%TO.N,Net-(Q2-G)*%
X132763949Y-95681349D03*
%TO.P,U1,3,PGND1*%
%TO.N,GND*%
X133263948Y-95681349D03*
%TO.P,U1,4,CSG1*%
X133763949Y-95681349D03*
%TO.P,U1,5,CS1*%
%TO.N,/Power/LOOP1*%
X134263949Y-95681349D03*
%TO.P,U1,6,RAMP1*%
%TO.N,Net-(U1-RAMP1)*%
X134763950Y-95681349D03*
%TO.P,U1,7,SS1*%
%TO.N,Net-(U1-SS1)*%
X135263949Y-95681349D03*
%TO.P,U1,8,VCCDIS*%
%TO.N,unconnected-(U1-VCCDIS-Pad8)*%
X135763948Y-95681349D03*
D66*
%TO.P,U1,9,FB1*%
%TO.N,/Power/OUT0*%
X136414249Y-95031048D03*
%TO.P,U1,10,COMP1*%
%TO.N,Net-(U1-COMP1)*%
X136414249Y-94531049D03*
%TO.P,U1,11,EN2*%
%TO.N,unconnected-(U1-EN2-Pad11)*%
X136414249Y-94031050D03*
%TO.P,U1,12,AGND*%
%TO.N,GND*%
X136414249Y-93531049D03*
%TO.P,U1,13,RT*%
%TO.N,Net-(U1-RT)*%
X136414249Y-93031049D03*
%TO.P,U1,14,RES*%
%TO.N,Net-(U1-RES)*%
X136414249Y-92531048D03*
%TO.P,U1,15,COMP2*%
%TO.N,Net-(U1-COMP1)*%
X136414249Y-92031049D03*
%TO.P,U1,16,FB2*%
%TO.N,Net-(D2-A)*%
X136414249Y-91531050D03*
D65*
%TO.P,U1,17,DEMB*%
%TO.N,Net-(D1-A)*%
X135763948Y-90880749D03*
%TO.P,U1,18,SS2*%
%TO.N,Net-(U1-SS2)*%
X135263949Y-90880749D03*
%TO.P,U1,19,RAMP2*%
%TO.N,Net-(U1-RAMP2)*%
X134763950Y-90880749D03*
%TO.P,U1,20,CS2*%
%TO.N,/Power/LOOP2*%
X134263949Y-90880749D03*
%TO.P,U1,21,CSG2*%
%TO.N,GND*%
X133763949Y-90880749D03*
%TO.P,U1,22,PGND2*%
X133263948Y-90880749D03*
%TO.P,U1,23,LO2*%
%TO.N,Net-(Q4-G)*%
X132763949Y-90880749D03*
%TO.P,U1,24,VCC2*%
%TO.N,Net-(D2-A)*%
X132263950Y-90880749D03*
D66*
%TO.P,U1,25,SW2*%
%TO.N,/Power/SW2*%
X131613649Y-91531050D03*
%TO.P,U1,26,HO2*%
%TO.N,Net-(Q3-G)*%
X131613649Y-92031049D03*
%TO.P,U1,27,HB2*%
%TO.N,Net-(D2-K)*%
X131613649Y-92531048D03*
%TO.P,U1,28,UVLO*%
%TO.N,Net-(JP1-C)*%
X131613649Y-93031049D03*
%TO.P,U1,29,VIN*%
%TO.N,/Power/VIN_M*%
X131613649Y-93531049D03*
%TO.P,U1,30,HB1*%
%TO.N,Net-(D1-K)*%
X131613649Y-94031050D03*
%TO.P,U1,31,HO1*%
%TO.N,Net-(Q1-G)*%
X131613649Y-94531049D03*
%TO.P,U1,32,SW1*%
%TO.N,/Power/SW1*%
X131613649Y-95031048D03*
D67*
%TO.P,U1,33,PAD*%
%TO.N,GND*%
X134013949Y-93281049D03*
%TD*%
D68*
%TO.P,R19,1*%
%TO.N,/3V3*%
X207350000Y-102530000D03*
%TO.P,R19,2*%
%TO.N,/Data/SDA*%
X206330000Y-102530000D03*
%TD*%
D69*
%TO.P,C8,1*%
%TO.N,Net-(U1-RES)*%
X140900000Y-89770000D03*
%TO.P,C8,2*%
%TO.N,GND*%
X142800000Y-89770000D03*
%TD*%
D47*
%TO.P,C12,1*%
%TO.N,/Power/OUT0*%
X142815000Y-93450000D03*
%TO.P,C12,2*%
%TO.N,Net-(U1-COMP1)*%
X140915000Y-93450000D03*
%TD*%
D61*
%TO.P,R1,1*%
%TO.N,/Power/VIN_M*%
X124155000Y-93840000D03*
%TO.P,R1,2*%
%TO.N,Net-(JP1-B)*%
X125805000Y-93840000D03*
%TD*%
D60*
%TO.P,R8,1*%
%TO.N,/Power/LOOP1*%
X156803400Y-121990000D03*
%TO.P,R8,2*%
%TO.N,GND*%
X165896600Y-121990000D03*
%TD*%
D37*
%TO.P,C19,1*%
%TO.N,/3V3*%
X147980000Y-90260000D03*
%TO.P,C19,2*%
%TO.N,GND*%
X147980000Y-92160000D03*
%TD*%
D27*
%TO.P,C6,1*%
%TO.N,Net-(U1-RAMP2)*%
X136460000Y-86110000D03*
%TO.P,C6,2*%
%TO.N,GND*%
X136460000Y-84210000D03*
%TD*%
D36*
%TO.P,C103,1*%
%TO.N,GND*%
X222020000Y-101385000D03*
%TO.P,C103,2*%
%TO.N,/3V3*%
X221060000Y-101385000D03*
%TD*%
D49*
%TO.P,R54,1*%
%TO.N,/Data/USB_DN*%
X216720000Y-93560000D03*
%TO.P,R54,2*%
%TO.N,Net-(U27-USB_DM)*%
X216720000Y-94580000D03*
%TD*%
D33*
%TO.P,R11,1*%
%TO.N,Net-(U2-FS0)*%
X153090000Y-87290000D03*
%TO.P,R11,2*%
%TO.N,GND*%
X154110000Y-87290000D03*
%TD*%
D37*
%TO.P,C14,1*%
%TO.N,GND*%
X132440000Y-84190000D03*
%TO.P,C14,2*%
%TO.N,Net-(D2-A)*%
X132440000Y-86090000D03*
%TD*%
D51*
%TO.P,J2,1,Pin_1*%
%TO.N,GND*%
X185805549Y-85250000D03*
X185805549Y-92250000D03*
X190805549Y-85250000D03*
X190805549Y-92250000D03*
%TD*%
D70*
%TO.P,Q3,1,S*%
%TO.N,/Power/SW2*%
X201943952Y-108688949D03*
%TO.P,Q3,2,S*%
X201943952Y-107418949D03*
%TO.P,Q3,3,S*%
X201943952Y-106148949D03*
%TO.P,Q3,4,G*%
%TO.N,Net-(Q3-G)*%
X201943952Y-104878949D03*
%TO.P,Q3,5,D*%
%TO.N,/Power/VIN_M*%
X196353950Y-104878949D03*
%TO.P,Q3,6,D*%
X196353950Y-106148949D03*
%TO.P,Q3,7,D*%
X196353950Y-107418949D03*
D71*
%TO.P,Q3,8,D*%
X198143949Y-106783949D03*
D70*
X196353950Y-108688949D03*
%TD*%
D33*
%TO.P,R21,2*%
%TO.N,Net-(U27-GPIO26_ADC0)*%
X222080000Y-99620000D03*
%TO.P,R21,1*%
%TO.N,/3V6*%
X221060000Y-99620000D03*
%TD*%
D70*
%TO.P,Q1,1,S*%
%TO.N,/Power/SW1*%
X155003946Y-104968949D03*
%TO.P,Q1,2,S*%
X155003946Y-106238949D03*
%TO.P,Q1,3,S*%
X155003946Y-107508949D03*
%TO.P,Q1,4,G*%
%TO.N,Net-(Q1-G)*%
X155003946Y-108778949D03*
%TO.P,Q1,5,D*%
%TO.N,/Power/VIN_M*%
X160593948Y-108778949D03*
%TO.P,Q1,6,D*%
X160593948Y-107508949D03*
%TO.P,Q1,7,D*%
X160593948Y-106238949D03*
D71*
%TO.P,Q1,8,D*%
X158803949Y-106873949D03*
D70*
X160593948Y-104968949D03*
%TD*%
D72*
%TO.P,U3,1,IN+*%
%TO.N,/Power/VIN*%
X160550549Y-91529849D03*
%TO.P,U3,2,IN+*%
X159900549Y-91529849D03*
%TO.P,U3,3,IN+*%
X159250549Y-91529849D03*
%TO.P,U3,4,A1*%
%TO.N,GND*%
X158600549Y-91529849D03*
%TO.P,U3,5,A0*%
X157950549Y-91529849D03*
%TO.P,U3,6,GND*%
X157300549Y-91529849D03*
%TO.P,U3,7,ALERT*%
%TO.N,unconnected-(U3-ALERT-Pad7)*%
X156650549Y-91529849D03*
%TO.P,U3,8,SDA*%
%TO.N,/Data/SDA*%
X156000549Y-91529849D03*
%TO.P,U3,9,SCL*%
%TO.N,/Data/SCL*%
X156000549Y-97254849D03*
%TO.P,U3,10,VS*%
%TO.N,/3V3*%
X156650549Y-97254849D03*
%TO.P,U3,11,GND*%
%TO.N,GND*%
X157300549Y-97254849D03*
%TO.P,U3,12,VBUS*%
%TO.N,/Power/VIN*%
X157950549Y-97254849D03*
%TO.P,U3,13,NC*%
%TO.N,unconnected-(U3-NC-Pad13)*%
X158600549Y-97254849D03*
%TO.P,U3,14,IN-*%
%TO.N,/Power/VIN_M*%
X159250549Y-97254849D03*
%TO.P,U3,15,IN-*%
X159900549Y-97254849D03*
%TO.P,U3,16,IN-*%
X160550549Y-97254849D03*
%TD*%
D50*
%TO.P,C98,1*%
%TO.N,/3V3*%
X231170000Y-93670000D03*
%TO.P,C98,2*%
%TO.N,GND*%
X231170000Y-92710000D03*
%TD*%
D29*
%TO.P,J21,1,Pin_1*%
%TO.N,GND*%
X203000000Y-154510000D03*
D30*
X199210000Y-152510000D03*
%TD*%
D59*
%TO.P,C3,1*%
%TO.N,/Power/VIN_M*%
X173200000Y-102300000D03*
%TO.P,C3,2*%
%TO.N,GND*%
X180108800Y-102300000D03*
%TD*%
D32*
%TO.P,H9,1,1*%
%TO.N,unconnected-(H9-Pad1)*%
X148930000Y-167770000D03*
%TD*%
D53*
%TO.P,L2,3,NC*%
%TO.N,unconnected-(L2-NC-Pad3)*%
X218210000Y-113760000D03*
D54*
%TO.P,L2,2,2*%
%TO.N,/3V6*%
X223424998Y-135835001D03*
%TO.P,L2,1,1*%
%TO.N,/Power/SW2*%
X212994999Y-135835001D03*
%TD*%
D33*
%TO.P,R50,1*%
%TO.N,/3V3*%
X205730000Y-92850000D03*
%TO.P,R50,2*%
%TO.N,/Data/QSPI_SS*%
X206750000Y-92850000D03*
%TD*%
D50*
%TO.P,C97,1*%
%TO.N,GND*%
X211980000Y-108045000D03*
%TO.P,C97,2*%
%TO.N,/Data/XIN*%
X211980000Y-107085000D03*
%TD*%
D29*
%TO.P,J14,1,Pin_1*%
%TO.N,/stack5/GND2*%
X181500000Y-154310000D03*
D30*
X177710000Y-152310000D03*
%TD*%
%TO.P,J13,1,Pin_1*%
%TO.N,/stack4/GND2*%
X156210000Y-197350000D03*
D29*
X159990000Y-195350000D03*
%TD*%
D73*
%TO.N,Net-(U72-NRSTI)*%
X211500000Y-190000000D03*
%TO.N,Net-(U45-CI)*%
X145800000Y-164950000D03*
%TO.N,Net-(U64-NRSTI)*%
X174000000Y-178725000D03*
%TO.N,/stack4/GND2*%
X164338000Y-196342000D03*
%TO.N,/stack6/GND2*%
X207518000Y-197104000D03*
%TO.N,/stack5/GND2*%
X185674000Y-152908000D03*
%TO.N,/stack5/0V8-2*%
X150512500Y-159000000D03*
%TO.N,Net-(U55-CI)*%
X151680000Y-158810000D03*
%TO.N,Net-(U55-CLKI)*%
X151700000Y-159810000D03*
%TO.N,Net-(U55-RO)*%
X151700000Y-160840000D03*
%TO.N,Net-(U55-BI)*%
X151660000Y-161870000D03*
%TO.N,Net-(U55-NRSTI)*%
X151640000Y-162870000D03*
%TO.N,Net-(U56-CO)*%
X154350000Y-158820000D03*
%TO.N,Net-(U56-CLKO)*%
X154820000Y-161820000D03*
%TO.N,Net-(U56-RI)*%
X154700000Y-163200000D03*
%TO.N,Net-(U56-BO)*%
X154040000Y-163980000D03*
%TO.N,Net-(U56-NRSTO)*%
X153140000Y-163840000D03*
%TO.N,Net-(U55-NRSTI)*%
X154620000Y-166260000D03*
%TO.N,Net-(U27-GPIO1)*%
X232800000Y-85070000D03*
D74*
%TO.N,GND*%
X222660000Y-94780000D03*
D75*
X230970000Y-91130000D03*
X232375000Y-91135000D03*
%TO.N,/3V3*%
X226930000Y-93330000D03*
X226930000Y-94930000D03*
D73*
%TO.N,GND*%
X225140000Y-99630000D03*
X132913949Y-93291049D03*
X135050000Y-92220000D03*
X214480000Y-99550000D03*
D74*
X154150000Y-88260000D03*
D73*
X208060000Y-96740000D03*
D74*
X157951600Y-89788400D03*
D73*
X215900000Y-99550000D03*
X132910000Y-94430000D03*
X198230000Y-165000000D03*
X132910000Y-92220000D03*
X122405000Y-179190000D03*
D74*
X157711600Y-99268400D03*
D73*
X135053949Y-93291049D03*
D74*
X131700000Y-101200000D03*
D73*
X207360000Y-97785000D03*
D74*
X138430000Y-100680000D03*
D73*
X143490000Y-91150000D03*
X220860000Y-94490000D03*
X216600000Y-107230000D03*
X213980000Y-102940000D03*
D74*
X122890000Y-92130000D03*
D73*
X219530000Y-107230000D03*
D74*
X122330000Y-95850000D03*
D73*
X215200000Y-100377500D03*
X218200000Y-109960000D03*
X214470000Y-101220000D03*
D74*
X152800000Y-94695200D03*
D73*
X134010000Y-92210000D03*
X212100000Y-108940000D03*
X135050000Y-94430000D03*
X134013949Y-93281049D03*
X211500000Y-93140000D03*
X228060000Y-86210000D03*
X215890000Y-101220000D03*
X222010000Y-102360000D03*
X230240000Y-150730000D03*
X204380000Y-146280000D03*
X220870000Y-95540000D03*
X234740000Y-179440000D03*
D74*
X147980000Y-93270000D03*
D73*
X122565000Y-170505000D03*
X218230000Y-107280000D03*
X151080000Y-98820000D03*
X134010000Y-94420000D03*
X222850000Y-97780000D03*
X209030000Y-164830000D03*
D74*
X140200000Y-84200000D03*
D73*
X208440000Y-99670000D03*
D74*
X130870000Y-84420000D03*
D73*
X208420000Y-92840000D03*
D75*
%TO.N,/Power/VIN_M*%
X167990000Y-103730000D03*
X194920000Y-108410000D03*
X199080000Y-102770000D03*
X169390000Y-102290000D03*
X193440000Y-102780000D03*
X165270000Y-102290000D03*
X166640000Y-102290000D03*
X162170000Y-102300000D03*
X169380000Y-103730000D03*
D73*
X146470000Y-99730000D03*
D75*
X165260000Y-103730000D03*
D73*
X127968951Y-93531049D03*
D75*
X163763949Y-106473949D03*
X194920000Y-102780000D03*
X196280000Y-101190000D03*
X162170000Y-105103949D03*
X193440000Y-101190000D03*
X168000000Y-102290000D03*
X197670000Y-102780000D03*
X166630000Y-103730000D03*
X193440000Y-104290000D03*
X199080000Y-101180000D03*
X193440000Y-108410000D03*
X197670000Y-101190000D03*
X163763949Y-102300000D03*
X163763949Y-105103949D03*
X194920000Y-107020000D03*
X194920000Y-105660000D03*
X193440000Y-107020000D03*
X194920000Y-101190000D03*
X162170000Y-103740000D03*
X194920000Y-104290000D03*
X162170000Y-106473949D03*
X196280000Y-102780000D03*
X163763949Y-103740000D03*
X193440000Y-105660000D03*
D73*
%TO.N,Net-(D1-A)*%
X137370000Y-90530000D03*
X131960000Y-96750000D03*
%TO.N,Net-(U1-COMP1)*%
X137810000Y-92030000D03*
X139833951Y-94531049D03*
%TO.N,Net-(D2-A)*%
X138230000Y-88970000D03*
X130400000Y-87860000D03*
X132320000Y-88248792D03*
D75*
%TO.N,/3V6*%
X132570000Y-135590000D03*
X228680000Y-137210000D03*
X134160000Y-134220000D03*
X218200000Y-134170000D03*
X218200000Y-132580000D03*
X219640000Y-134150000D03*
X221194284Y-140220000D03*
X134160000Y-135590000D03*
X129500000Y-136960000D03*
X135670000Y-139770000D03*
X129500000Y-135600000D03*
X126570000Y-134220000D03*
X228680000Y-141940000D03*
X169430000Y-135880000D03*
X222691426Y-140220000D03*
X228680000Y-138800000D03*
X134150000Y-139780000D03*
X218200000Y-138880000D03*
X228680000Y-135690000D03*
X129530000Y-132820000D03*
X218200000Y-142020000D03*
X168040000Y-135880000D03*
X202500000Y-129490000D03*
X199390000Y-128050000D03*
X227200000Y-135690000D03*
X227200000Y-132500000D03*
X127980000Y-136980000D03*
X227200000Y-137210000D03*
X218200000Y-140300000D03*
X135680000Y-134210000D03*
X128010000Y-132840000D03*
X135680000Y-135580000D03*
X227182852Y-141940000D03*
X126560000Y-141170000D03*
X202500000Y-128100000D03*
X135680000Y-136940000D03*
X132560000Y-139780000D03*
X155980000Y-133950000D03*
X155980000Y-132560000D03*
X127970000Y-139810000D03*
X227200000Y-138800000D03*
X154390000Y-133950000D03*
X129490000Y-141180000D03*
X225685710Y-141940000D03*
X227182852Y-140220000D03*
X135710000Y-132800000D03*
X132570000Y-136950000D03*
X132600000Y-132810000D03*
X126600000Y-132810000D03*
X219697142Y-142000000D03*
X222691426Y-141940000D03*
X126570000Y-136950000D03*
X134160000Y-136950000D03*
X228680000Y-134090000D03*
X224188568Y-140220000D03*
X218200000Y-137290000D03*
X134150000Y-141170000D03*
X127980000Y-134250000D03*
X129500000Y-138350000D03*
X154390000Y-132560000D03*
X127980000Y-138370000D03*
X131050000Y-138360000D03*
X126560000Y-139780000D03*
X132560000Y-141170000D03*
X169430000Y-137470000D03*
X131040000Y-141190000D03*
X219640000Y-135750000D03*
X221194284Y-141940000D03*
X168040000Y-137470000D03*
X135680000Y-138330000D03*
X129490000Y-139790000D03*
X225685710Y-140220000D03*
X131080000Y-132830000D03*
X218200000Y-135770000D03*
X202440000Y-130930000D03*
X127980000Y-135620000D03*
X135670000Y-141160000D03*
X219697142Y-140280000D03*
X131050000Y-136970000D03*
D73*
X142400000Y-153030000D03*
D75*
X219640000Y-137270000D03*
X131040000Y-139800000D03*
X134190000Y-132810000D03*
X126570000Y-138340000D03*
X228680000Y-132500000D03*
X228680000Y-140220000D03*
X227200000Y-134090000D03*
X131050000Y-135610000D03*
X132570000Y-138340000D03*
X219640000Y-138860000D03*
X200910000Y-128100000D03*
X219640000Y-132560000D03*
D73*
X224900000Y-107900000D03*
D75*
X127970000Y-141200000D03*
X132570000Y-134220000D03*
X134160000Y-138340000D03*
X126570000Y-135590000D03*
X129500000Y-134230000D03*
X131050000Y-134240000D03*
X224188568Y-141940000D03*
D73*
%TO.N,Net-(Q1-G)*%
X156110000Y-109770000D03*
X129000000Y-97770000D03*
%TO.N,Net-(Q2-G)*%
X159860000Y-117600000D03*
X132763949Y-96740000D03*
%TO.N,Net-(Q3-G)*%
X130590000Y-92010000D03*
X201940000Y-103890000D03*
%TO.N,Net-(Q4-G)*%
X133020000Y-87890000D03*
X200890000Y-117400000D03*
%TO.N,/3V3*%
X220560000Y-106230000D03*
X216690000Y-106220000D03*
X215390000Y-95410000D03*
X207350000Y-100480000D03*
D74*
X154390000Y-94680000D03*
D73*
X235560000Y-145110000D03*
D74*
X147990000Y-88810000D03*
D73*
X211380000Y-94220000D03*
X218000000Y-95855000D03*
X232200000Y-171100000D03*
D74*
X156461600Y-99268400D03*
D73*
X219870000Y-97785000D03*
X232000000Y-146130000D03*
X219960000Y-101385000D03*
X120100000Y-169750000D03*
D74*
X150900000Y-86900000D03*
D73*
X205260000Y-94055000D03*
X210680000Y-97785000D03*
X210250000Y-100470000D03*
%TO.N,/Data/1V1*%
X214990000Y-97995000D03*
X215350000Y-102765000D03*
X216930000Y-97995000D03*
%TO.N,/stack4/GND0*%
X133420000Y-157230000D03*
X143630000Y-157610000D03*
%TO.N,/stack4/GND1*%
X133350000Y-171210000D03*
X143440000Y-171040000D03*
%TO.N,/stack4/GND2*%
X143520000Y-184090000D03*
X133380000Y-184540000D03*
%TO.N,/stack4/1V2-0*%
X133120000Y-165470000D03*
%TO.N,/Power/SW1*%
X131940000Y-98140000D03*
X151290000Y-104650000D03*
%TO.N,/Power/SW2*%
X194730000Y-112020000D03*
X130930000Y-89160000D03*
%TO.N,/Power/LOOP1*%
X134710000Y-97470000D03*
X159200000Y-117590000D03*
%TO.N,/Power/LOOP2*%
X196065137Y-115084863D03*
X134040000Y-87900000D03*
%TO.N,/stack4/1V2-1*%
X132950000Y-179160000D03*
%TO.N,/stack4/1V2-2*%
X132790000Y-193870000D03*
%TO.N,/stack4/0V8-0*%
X132130000Y-165420000D03*
X128970000Y-160830000D03*
%TO.N,/stack4/0V8-1*%
X132850000Y-176370000D03*
X131930000Y-178570000D03*
%TO.N,/stack4/0V8-2*%
X128740000Y-187750000D03*
X131820000Y-193740000D03*
%TO.N,/stack5/GND0*%
X152730000Y-187110000D03*
X154970000Y-192060000D03*
X165240000Y-192140000D03*
%TO.N,/stack5/GND1*%
X165210000Y-178550000D03*
X154800000Y-178410000D03*
%TO.N,/stack5/GND2*%
X165002500Y-165607500D03*
X154770000Y-165410000D03*
X147722500Y-155955000D03*
X145720000Y-161820000D03*
%TO.N,/stack5/1V2-0*%
X152380000Y-184960000D03*
%TO.N,/stack5/1V2-1*%
X154880000Y-173920000D03*
%TO.N,/stack5/1V2-2*%
X150840000Y-157720000D03*
X154630000Y-156180000D03*
%TO.N,/stack5/0V8-0*%
X153800000Y-186575000D03*
%TO.N,/stack5/0V8-1*%
X165150000Y-171610000D03*
%TO.N,/stack5/0V8-2*%
X153560000Y-156200000D03*
%TO.N,/stack6/GND0*%
X186900000Y-156720000D03*
X176370000Y-157590000D03*
%TO.N,/stack6/GND1*%
X186710000Y-171070000D03*
X175800000Y-171100000D03*
%TO.N,/stack6/GND2*%
X186860000Y-184900000D03*
X176470000Y-184490000D03*
%TO.N,/stack6/1V2-0*%
X186660000Y-164720000D03*
%TO.N,/stack6/1V2-1*%
X176450000Y-178160000D03*
%TO.N,/stack6/1V2-2*%
X171480000Y-189320000D03*
X175650000Y-194370000D03*
%TO.N,/stack6/0V8-0*%
X175870000Y-163790000D03*
%TO.N,/stack6/0V8-1*%
X192528749Y-172053749D03*
X188425000Y-177750000D03*
%TO.N,/stack6/0V8-2*%
X174600000Y-194360000D03*
%TO.N,/stack7/GND0*%
X197820000Y-192140000D03*
X211600000Y-190930000D03*
%TO.N,/stack7/GND1*%
X197960000Y-179470000D03*
X208440000Y-178730000D03*
%TO.N,/stack7/1V2-0*%
X209080000Y-185050000D03*
X208200000Y-188330000D03*
%TO.N,/stack7/1V2-1*%
X213820000Y-175670000D03*
X210580000Y-172125000D03*
%TO.N,/stack7/1V2-2*%
X230195104Y-149850000D03*
X209520000Y-156990000D03*
X214600000Y-160960000D03*
X235570000Y-153120000D03*
%TO.N,/stack7/0V8-0*%
X209690000Y-185580000D03*
%TO.N,/stack7/0V8-1*%
X209560000Y-172150000D03*
%TO.N,/stack7/0V8-2*%
X210530000Y-156990000D03*
%TO.N,/Data/SWD*%
X216810000Y-102795000D03*
X217640000Y-93600000D03*
%TO.N,/Data/SWCLK*%
X213700000Y-92950000D03*
X216130000Y-102765000D03*
%TO.N,/Data/QSPI_SS*%
X205000960Y-95272707D03*
X210870000Y-96515000D03*
%TO.N,Net-(U46-NRSTO)*%
X143680000Y-171960000D03*
%TO.N,Net-(U46-CO)*%
X143738000Y-175488702D03*
%TO.N,Net-(U46-CLKO)*%
X143765000Y-174625000D03*
%TO.N,Net-(U46-RI)*%
X143759000Y-173741000D03*
%TO.N,Net-(U46-BO)*%
X143777000Y-172753000D03*
%TO.N,Net-(U45-BI)*%
X146620000Y-173760000D03*
%TO.N,Net-(U45-CO)*%
X132600000Y-157230000D03*
%TO.N,Net-(U46-CI)*%
X131500000Y-180030000D03*
%TO.N,Net-(U47-CO)*%
X131520000Y-182780000D03*
%TO.N,Net-(U46-CLKI)*%
X130490000Y-180010000D03*
%TO.N,Net-(U45-CLKO)*%
X132050000Y-157750000D03*
%TO.N,Net-(U47-CLKO)*%
X130540000Y-182780000D03*
%TO.N,Net-(U46-RO)*%
X129480000Y-180010000D03*
%TO.N,Net-(U45-RI)*%
X132120000Y-158840000D03*
%TO.N,Net-(U47-RI)*%
X129480000Y-182780000D03*
%TO.N,Net-(U46-BI)*%
X128490000Y-180010000D03*
%TO.N,Net-(U45-BO)*%
X131960000Y-160450000D03*
%TO.N,Net-(U47-BO)*%
X128530000Y-182780000D03*
%TO.N,Net-(U46-NRSTI)*%
X127500000Y-180010000D03*
%TO.N,Net-(U45-NRSTO)*%
X125000000Y-161500000D03*
%TO.N,Net-(U47-NRSTO)*%
X127470000Y-182780000D03*
%TO.N,Net-(U55-NRSTO)*%
X168190000Y-191270000D03*
%TO.N,Net-(U55-CO)*%
X168190000Y-187120000D03*
%TO.N,Net-(U55-CLKO)*%
X168190000Y-188140000D03*
%TO.N,Net-(U55-RI)*%
X168190000Y-189210000D03*
%TO.N,Net-(U55-BO)*%
X168190000Y-190200000D03*
%TO.N,Net-(U54-CO)*%
X146340000Y-185190000D03*
%TO.N,Net-(U54-CLKO)*%
X146350000Y-185990000D03*
%TO.N,Net-(U54-RI)*%
X146330000Y-186770000D03*
%TO.N,Net-(U54-BO)*%
X146350000Y-187570000D03*
%TO.N,Net-(U54-NRSTO)*%
X146340000Y-188290000D03*
%TO.N,Net-(U64-NRSTO)*%
X189920000Y-161070000D03*
%TO.N,Net-(U64-CO)*%
X190100000Y-157090000D03*
%TO.N,Net-(U64-CLKO)*%
X189890000Y-158110000D03*
%TO.N,Net-(U64-RI)*%
X189890000Y-159060000D03*
%TO.N,Net-(U64-BO)*%
X189890000Y-160050000D03*
%TO.N,Net-(U64-CI)*%
X173800000Y-186525000D03*
%TO.N,Net-(U63-CO)*%
X167780000Y-160730000D03*
%TO.N,Net-(U65-CO)*%
X176460000Y-185230000D03*
%TO.N,Net-(U63-CLKO)*%
X167780000Y-161720000D03*
%TO.N,Net-(U64-CLKI)*%
X173800000Y-187400000D03*
%TO.N,Net-(U65-CLKO)*%
X176460000Y-186120000D03*
%TO.N,Net-(U63-RI)*%
X167780000Y-162730000D03*
%TO.N,Net-(U64-RO)*%
X173800000Y-188400000D03*
%TO.N,Net-(U65-RI)*%
X176520000Y-186780000D03*
%TO.N,Net-(U64-BI)*%
X173800000Y-189325000D03*
%TO.N,Net-(U63-BO)*%
X167780000Y-163730000D03*
%TO.N,Net-(U65-BO)*%
X176570000Y-187510000D03*
%TO.N,Net-(U63-NRSTO)*%
X167780000Y-164740000D03*
%TO.N,Net-(U64-NRSTI)*%
X173800000Y-190250000D03*
%TO.N,Net-(U65-NRSTO)*%
X176520000Y-188670000D03*
%TO.N,Net-(U73-NRSTO)*%
X214940000Y-180240000D03*
%TO.N,Net-(U73-CO)*%
X210910000Y-180240000D03*
%TO.N,Net-(U73-CLKO)*%
X211920000Y-180240000D03*
%TO.N,Net-(U73-RI)*%
X212930000Y-180240000D03*
%TO.N,Net-(U73-BO)*%
X213920000Y-180230000D03*
%TO.N,Net-(U74-BI)*%
X209910000Y-163500000D03*
%TO.N,Net-(U72-CO)*%
X192260000Y-185660000D03*
%TO.N,Net-(U73-CI)*%
X198020000Y-178640000D03*
%TO.N,Net-(U72-CLKO)*%
X192260000Y-186610000D03*
%TO.N,Net-(U73-CLKI)*%
X198020000Y-177767500D03*
%TO.N,Net-(U72-RI)*%
X192280000Y-187570000D03*
%TO.N,Net-(U73-RO)*%
X198020000Y-176895000D03*
%TO.N,Net-(U73-BI)*%
X198020000Y-176022500D03*
%TO.N,Net-(U72-BO)*%
X192310000Y-188520000D03*
%TO.N,Net-(U73-NRSTI)*%
X198020000Y-175150000D03*
%TO.N,Net-(U72-NRSTO)*%
X192310000Y-189450000D03*
%TO.N,/stack4/RO*%
X143550000Y-186680000D03*
%TO.N,/stack4/CLKI*%
X143550000Y-185800000D03*
%TO.N,/stack4/CI*%
X143550000Y-184820000D03*
%TO.N,Net-(U74-NRSTO)*%
X195230000Y-174630000D03*
%TO.N,Net-(U74-BO)*%
X195230000Y-175567500D03*
%TO.N,Net-(U74-RI)*%
X195230000Y-176505000D03*
%TO.N,Net-(U74-CLKO)*%
X195230000Y-177442500D03*
%TO.N,Net-(U74-CO)*%
X195230000Y-178380000D03*
%TO.N,/Data/SCL*%
X205793263Y-99856737D03*
X213510000Y-105060000D03*
X151130000Y-94650000D03*
X226090000Y-107570000D03*
X155350000Y-100000000D03*
X122490000Y-116470000D03*
%TO.N,/Data/SDA*%
X123290000Y-116470000D03*
X154566600Y-100053400D03*
X206345000Y-101225000D03*
X150320000Y-94670000D03*
X211650000Y-105600000D03*
X226140000Y-108340000D03*
%TO.N,/Data/QSPI_SD1*%
X213023119Y-97878628D03*
X205650200Y-95241245D03*
%TO.N,/Data/QSPI_SD2*%
X213670000Y-97815000D03*
X206300000Y-95225000D03*
%TO.N,/RST*%
X236300000Y-141150000D03*
X210580000Y-102990000D03*
%TO.N,/RX*%
X235250000Y-142460000D03*
X209430000Y-103220000D03*
%TO.N,Net-(U27-GPIO1)*%
X210280000Y-99750000D03*
%TO.N,/TX*%
X235770000Y-141770000D03*
X209420000Y-102410000D03*
%TO.N,/stack6/CI*%
X189800000Y-185630000D03*
%TO.N,/stack6/CLKI*%
X189820000Y-186590000D03*
%TO.N,/stack6/RO*%
X189800000Y-187540000D03*
%TO.N,/stack6/BI*%
X189800000Y-188500000D03*
%TO.N,/stack6/NRSTI*%
X189770000Y-189480000D03*
%TO.N,Net-(U45-NRSTI)*%
X146600000Y-172760000D03*
%TO.N,Net-(U45-RO)*%
X146640000Y-174770000D03*
%TO.N,Net-(U45-CLKI)*%
X146650000Y-175780000D03*
%TO.N,Net-(U45-CI)*%
X146650000Y-176790000D03*
%TO.N,Net-(U54-NRSTI)*%
X165260000Y-191320000D03*
%TO.N,Net-(U54-BI)*%
X165260000Y-190500000D03*
%TO.N,Net-(U54-RO)*%
X165260000Y-189720000D03*
%TO.N,Net-(U54-CLKI)*%
X165260000Y-188950000D03*
%TO.N,Net-(U54-CI)*%
X165260000Y-188190000D03*
%TO.N,/stack4/BI*%
X143550000Y-187730000D03*
%TO.N,/stack4/NRSTI*%
X143550000Y-188750000D03*
%TO.N,Net-(U63-NRSTI)*%
X186860000Y-161170000D03*
%TO.N,/stack5/NRSTI*%
X165190000Y-164710000D03*
%TO.N,Net-(U63-BI)*%
X186880000Y-160260000D03*
%TO.N,/stack5/BI*%
X165190000Y-163710000D03*
%TO.N,Net-(U63-RO)*%
X186860000Y-159400000D03*
%TO.N,/stack5/RO*%
X165190000Y-162700000D03*
%TO.N,Net-(U63-CLKI)*%
X186860000Y-158530000D03*
%TO.N,/stack5/CLKI*%
X165190000Y-161750000D03*
%TO.N,Net-(U63-CI)*%
X186880000Y-157670000D03*
%TO.N,/stack5/CI*%
X165190000Y-160720000D03*
%TO.N,Net-(U72-NRSTI)*%
X214940000Y-183060000D03*
%TO.N,Net-(U72-BI)*%
X213930000Y-183060000D03*
%TO.N,Net-(U72-RO)*%
X212920000Y-183060000D03*
%TO.N,Net-(U72-CLKI)*%
X211930000Y-183040000D03*
%TO.N,Net-(U72-CI)*%
X210910000Y-183040000D03*
%TO.N,/stack7/RST_N*%
X232640000Y-155860000D03*
X227400000Y-164230000D03*
X232600000Y-159300000D03*
%TO.N,/stack7/RO*%
X227400000Y-162850000D03*
%TO.N,/stack7/CLKI*%
X219680000Y-162210000D03*
%TO.N,/stack7/CI*%
X227430000Y-161570000D03*
%TO.N,/5V*%
X218010000Y-173960000D03*
X218010000Y-160100000D03*
X126570000Y-169880000D03*
X218010000Y-192610000D03*
X126570000Y-188380000D03*
X126570000Y-183670000D03*
X218010000Y-187650000D03*
D75*
X177880000Y-94560000D03*
D73*
X190338749Y-176083749D03*
X126570000Y-175090000D03*
X149830000Y-192140000D03*
X126570000Y-156720000D03*
X147310000Y-192140000D03*
X144680000Y-157700000D03*
X218010000Y-178850000D03*
D75*
X217390000Y-91810000D03*
D73*
X126570000Y-160850000D03*
X144680000Y-171410000D03*
X174860000Y-157460000D03*
X193210000Y-163330000D03*
X170610000Y-174190000D03*
X170690000Y-190600000D03*
X170910000Y-185720000D03*
D75*
X212560000Y-91760000D03*
D73*
X218010000Y-164990000D03*
X148720000Y-153100000D03*
%TO.N,/Data/PWR_EN*%
X203180000Y-98910000D03*
X127780000Y-87090000D03*
%TD*%
D76*
%TO.N,/stack5/1V2-1*%
X155990000Y-171260000D02*
X155065000Y-171260000D01*
X155065000Y-171260000D02*
X154880000Y-171445000D01*
X154880000Y-171445000D02*
X154880000Y-173920000D01*
%TO.N,/stack4/NRSTI*%
X143550000Y-188750000D02*
X143550000Y-188475000D01*
X143550000Y-188475000D02*
X143245000Y-188170000D01*
X143245000Y-188170000D02*
X142460000Y-188170000D01*
%TO.N,/stack4/1V2-2*%
X134400000Y-192070000D02*
X133605000Y-192070000D01*
X133605000Y-192070000D02*
X132790000Y-192885000D01*
X132790000Y-192885000D02*
X132790000Y-193870000D01*
%TO.N,/stack4/0V8-2*%
X134400000Y-191420000D02*
X132705000Y-191420000D01*
X132705000Y-191420000D02*
X131820000Y-192305000D01*
X131820000Y-192305000D02*
X131820000Y-193740000D01*
%TO.N,/stack4/0V8-0*%
X128970000Y-163070000D02*
X131320000Y-165420000D01*
X131320000Y-165420000D02*
X132130000Y-165420000D01*
%TO.N,/stack6/0V8-1*%
X188415000Y-177760000D02*
X185500000Y-177760000D01*
X188425000Y-177750000D02*
X190850000Y-177750000D01*
X188425000Y-177750000D02*
X188415000Y-177760000D01*
X190850000Y-177750000D02*
X192525000Y-176075000D01*
X192525000Y-176075000D02*
X192525000Y-172057498D01*
X192525000Y-172057498D02*
X192528749Y-172053749D01*
%TO.N,/stack7/1V2-1*%
X210580000Y-172125000D02*
X209805000Y-171350000D01*
X209805000Y-171350000D02*
X207110000Y-171350000D01*
X210580000Y-172125000D02*
X211725000Y-172125000D01*
X211725000Y-172125000D02*
X213820000Y-174220000D01*
X213820000Y-174220000D02*
X213820000Y-175670000D01*
%TO.N,/stack7/0V8-1*%
X209560000Y-172150000D02*
X209410000Y-172000000D01*
X209410000Y-172000000D02*
X207110000Y-172000000D01*
%TO.N,/stack7/1V2-0*%
X209080000Y-185050000D02*
X209070000Y-185040000D01*
X209080000Y-185050000D02*
X209867107Y-185050000D01*
X209867107Y-185050000D02*
X210240000Y-185422893D01*
X210240000Y-185422893D02*
X210240000Y-186290000D01*
X209070000Y-185040000D02*
X207110000Y-185040000D01*
X210240000Y-186290000D02*
X208200000Y-188330000D01*
%TO.N,Net-(U72-NRSTI)*%
X214940000Y-186560000D02*
X211500000Y-190000000D01*
X211500000Y-190000000D02*
X209960000Y-191540000D01*
%TO.N,Net-(U45-CI)*%
X145800000Y-164950000D02*
X145750000Y-164900000D01*
X144723200Y-168896512D02*
X144723200Y-164900000D01*
X144723200Y-164900000D02*
X144723200Y-159023200D01*
X145750000Y-164900000D02*
X144723200Y-164900000D01*
%TO.N,Net-(U64-CI)*%
X173800000Y-186525000D02*
X173800000Y-186244419D01*
X173800000Y-186244419D02*
X175868400Y-184176019D01*
X175868400Y-184176019D02*
X175868400Y-175231600D01*
X175868400Y-175231600D02*
X176590000Y-174510000D01*
X176590000Y-174510000D02*
X177440000Y-174510000D01*
%TO.N,Net-(U64-NRSTI)*%
X173800000Y-190250000D02*
X172248400Y-188698400D01*
X172248400Y-188698400D02*
X172248400Y-186089915D01*
X172248400Y-186089915D02*
X174662000Y-183676315D01*
X174662000Y-183676315D02*
X174662000Y-178725000D01*
%TO.N,Net-(U64-BI)*%
X173800000Y-189325000D02*
X172550000Y-188075000D01*
X174963600Y-183801241D02*
X174963600Y-173336400D01*
X172550000Y-188075000D02*
X172550000Y-186214841D01*
X172550000Y-186214841D02*
X174963600Y-183801241D01*
X174963600Y-173336400D02*
X175740000Y-172560000D01*
X175740000Y-172560000D02*
X177440000Y-172560000D01*
%TO.N,Net-(U64-RO)*%
X172875000Y-186316367D02*
X175265200Y-183926167D01*
X175265200Y-174034800D02*
X176090000Y-173210000D01*
X176090000Y-173210000D02*
X177440000Y-173210000D01*
X172875000Y-187475000D02*
X172875000Y-186316367D01*
X175265200Y-183926167D02*
X175265200Y-174034800D01*
X173800000Y-188400000D02*
X172875000Y-187475000D01*
%TO.N,Net-(U64-CLKI)*%
X173800000Y-187400000D02*
X173200000Y-186800000D01*
X173200000Y-186417893D02*
X175566800Y-184051093D01*
X175566800Y-184051093D02*
X175566800Y-174533200D01*
X173200000Y-186800000D02*
X173200000Y-186417893D01*
X175566800Y-174533200D02*
X176240000Y-173860000D01*
X176240000Y-173860000D02*
X177440000Y-173860000D01*
%TO.N,Net-(U64-NRSTI)*%
X174000000Y-178725000D02*
X174662000Y-178725000D01*
X174662000Y-178725000D02*
X174662000Y-172738000D01*
%TO.N,Net-(U54-CO)*%
X146340000Y-185190000D02*
X146540000Y-185190000D01*
X146540000Y-185190000D02*
X150180000Y-188830000D01*
X150180000Y-188830000D02*
X155990000Y-188830000D01*
%TO.N,Net-(U54-NRSTO)*%
X155990000Y-191430000D02*
X149305000Y-191430000D01*
X146340000Y-188465000D02*
X146340000Y-188290000D01*
X149305000Y-191430000D02*
X146340000Y-188465000D01*
%TO.N,Net-(U54-BO)*%
X155990000Y-190780000D02*
X149560000Y-190780000D01*
X149560000Y-190780000D02*
X146350000Y-187570000D01*
%TO.N,Net-(U54-RI)*%
X146330000Y-186770000D02*
X149690000Y-190130000D01*
X149690000Y-190130000D02*
X155990000Y-190130000D01*
%TO.N,Net-(U54-CLKO)*%
X146350000Y-185990000D02*
X149850000Y-189490000D01*
X149850000Y-189490000D02*
X155980000Y-189490000D01*
X155980000Y-189490000D02*
X155990000Y-189480000D01*
%TO.N,/stack5/GND0*%
X152730000Y-187110000D02*
X152780000Y-187160000D01*
X152780000Y-187160000D02*
X154115000Y-187160000D01*
X154115000Y-187160000D02*
X155045000Y-186230000D01*
X155045000Y-186230000D02*
X155990000Y-186230000D01*
%TO.N,/stack5/0V8-0*%
X153800000Y-186575000D02*
X154795000Y-185580000D01*
X154795000Y-185580000D02*
X155990000Y-185580000D01*
%TO.N,/stack4/GND2*%
X160982000Y-196342000D02*
X159990000Y-195350000D01*
X164338000Y-196342000D02*
X160982000Y-196342000D01*
%TO.N,/stack6/GND2*%
X205784000Y-195370000D02*
X203050000Y-195370000D01*
X207518000Y-197104000D02*
X205784000Y-195370000D01*
%TO.N,/stack5/GND2*%
X185674000Y-152908000D02*
X182902000Y-152908000D01*
X182902000Y-152908000D02*
X181500000Y-154310000D01*
%TO.N,Net-(U55-CI)*%
X155990000Y-177760000D02*
X154060000Y-177760000D01*
X152826800Y-166086379D02*
X150038400Y-163297979D01*
X150038400Y-160451600D02*
X151680000Y-158810000D01*
X150038400Y-163297979D02*
X150038400Y-160451600D01*
X152826800Y-176526800D02*
X152826800Y-166086379D01*
X154060000Y-177760000D02*
X152826800Y-176526800D01*
%TO.N,Net-(U55-CLKI)*%
X151700000Y-159810000D02*
X150340000Y-161170000D01*
X153128400Y-165961453D02*
X153128400Y-175928400D01*
X150340000Y-161170000D02*
X150340000Y-163173053D01*
X154310000Y-177110000D02*
X155990000Y-177110000D01*
X150340000Y-163173053D02*
X153128400Y-165961453D01*
X153128400Y-175928400D02*
X154310000Y-177110000D01*
%TO.N,Net-(U55-RO)*%
X153430000Y-165836527D02*
X153430000Y-175230000D01*
X151592657Y-160840000D02*
X150688400Y-161744257D01*
X150688400Y-163094927D02*
X153430000Y-165836527D01*
X150688400Y-161744257D02*
X150688400Y-163094927D01*
X151700000Y-160840000D02*
X151592657Y-160840000D01*
X153430000Y-175230000D02*
X154660000Y-176460000D01*
X154660000Y-176460000D02*
X155990000Y-176460000D01*
%TO.N,Net-(U55-BI)*%
X151660000Y-161870000D02*
X151222893Y-161870000D01*
X151222893Y-161870000D02*
X150990000Y-162102893D01*
X150990000Y-162970000D02*
X153750000Y-165730000D01*
X153750000Y-174750000D02*
X154810000Y-175810000D01*
X153750000Y-165730000D02*
X153750000Y-174750000D01*
X150990000Y-162102893D02*
X150990000Y-162970000D01*
X154810000Y-175810000D02*
X155990000Y-175810000D01*
%TO.N,Net-(U55-NRSTI)*%
X151640000Y-162870000D02*
X151640000Y-163050000D01*
X154080000Y-165490000D02*
X154080000Y-174380000D01*
X151640000Y-163050000D02*
X154080000Y-165490000D01*
X154080000Y-174380000D02*
X154860000Y-175160000D01*
X154860000Y-175160000D02*
X155990000Y-175160000D01*
X154620000Y-166260000D02*
X154110000Y-166260000D01*
X154110000Y-166260000D02*
X154080000Y-166230000D01*
%TO.N,Net-(U56-CO)*%
X154350000Y-158820000D02*
X154660000Y-159130000D01*
X154660000Y-160910000D02*
X155230000Y-161480000D01*
X154660000Y-159130000D02*
X154660000Y-160910000D01*
X155230000Y-161480000D02*
X156010000Y-161480000D01*
%TO.N,Net-(U56-CLKO)*%
X154820000Y-161820000D02*
X155130000Y-162130000D01*
X155130000Y-162130000D02*
X156010000Y-162130000D01*
%TO.N,Net-(U56-RI)*%
X154700000Y-163200000D02*
X154700000Y-163115000D01*
X155035000Y-162780000D02*
X156010000Y-162780000D01*
X154700000Y-163115000D02*
X155035000Y-162780000D01*
%TO.N,Net-(U56-BO)*%
X154040000Y-163980000D02*
X154750000Y-163980000D01*
X154750000Y-163980000D02*
X155300000Y-163430000D01*
X155300000Y-163430000D02*
X156010000Y-163430000D01*
%TO.N,Net-(U56-NRSTO)*%
X153140000Y-163840000D02*
X153810000Y-164510000D01*
X155020000Y-164510000D02*
X155450000Y-164080000D01*
X153810000Y-164510000D02*
X155020000Y-164510000D01*
X155450000Y-164080000D02*
X156010000Y-164080000D01*
%TO.N,/stack5/0V8-2*%
X154800000Y-158230000D02*
X151282500Y-158230000D01*
X151282500Y-158230000D02*
X150512500Y-159000000D01*
%TO.N,/stack5/GND2*%
X145720000Y-161820000D02*
X147720000Y-159820000D01*
X147720000Y-159820000D02*
X147720000Y-155957500D01*
X147720000Y-155957500D02*
X147722500Y-155955000D01*
%TO.N,Net-(U27-GPIO1)*%
X210280000Y-99396526D02*
X211099026Y-98577500D01*
X210280000Y-99750000D02*
X210280000Y-99396526D01*
X211099026Y-98577500D02*
X211762500Y-98577500D01*
%TO.N,GND*%
X207360000Y-97785000D02*
X208410000Y-97785000D01*
%TO.N,/3V3*%
X210680000Y-97785000D02*
X209370000Y-97785000D01*
%TO.N,GND*%
X212430000Y-93710000D02*
X212070000Y-93710000D01*
X212070000Y-93710000D02*
X211500000Y-93140000D01*
X212430000Y-94770000D02*
X212430000Y-93710000D01*
%TO.N,/3V3*%
X213690000Y-93710000D02*
X213390000Y-93710000D01*
X215390000Y-95410000D02*
X213690000Y-93710000D01*
%TO.N,/Data/1V1*%
X219050000Y-94510000D02*
X218110000Y-94510000D01*
X218110000Y-94510000D02*
X217000000Y-95620000D01*
X217000000Y-95620000D02*
X217000000Y-96940000D01*
%TO.N,GND*%
X220840000Y-94510000D02*
X220010000Y-94510000D01*
X220860000Y-94490000D02*
X220840000Y-94510000D01*
%TO.N,Net-(J6-CC2)*%
X208840000Y-86850000D02*
X211810000Y-86850000D01*
X211810000Y-86850000D02*
X213230000Y-88270000D01*
X213230000Y-88270000D02*
X213230000Y-90110000D01*
%TO.N,Net-(J6-CC1)*%
X221220000Y-86840000D02*
X221210000Y-86850000D01*
X217800000Y-86850000D02*
X216230000Y-88420000D01*
X221210000Y-86850000D02*
X217800000Y-86850000D01*
X216230000Y-88420000D02*
X216230000Y-90110000D01*
%TO.N,GND*%
X221220000Y-87860000D02*
X220975000Y-87860000D01*
X220975000Y-87860000D02*
X219300000Y-89535000D01*
%TO.N,Net-(U1-RAMP2)*%
X134525000Y-86110000D02*
X134440000Y-86195000D01*
%TO.N,/Power/SW2*%
X134440000Y-84545000D02*
X133785000Y-85200000D01*
X130930000Y-85310000D02*
X130930000Y-89160000D01*
%TO.N,Net-(U1-RAMP2)*%
X134763950Y-86788950D02*
X134440000Y-86465000D01*
X134440000Y-86465000D02*
X134440000Y-86195000D01*
%TO.N,/Power/SW2*%
X133785000Y-85200000D02*
X131040000Y-85200000D01*
X131040000Y-85200000D02*
X130930000Y-85310000D01*
%TO.N,Net-(U1-RAMP2)*%
X134763950Y-90880749D02*
X134763950Y-86788950D01*
X136460000Y-86110000D02*
X134525000Y-86110000D01*
%TO.N,/Data/PWR_EN*%
X127780000Y-87090000D02*
X126440000Y-88430000D01*
X126440000Y-88430000D02*
X125640000Y-88430000D01*
%TO.N,/Data/SDA*%
X123290000Y-116470000D02*
X124470000Y-117650000D01*
X124470000Y-179430000D02*
X123548400Y-180351600D01*
X124470000Y-117650000D02*
X124470000Y-179430000D01*
X123548400Y-180351600D02*
X121845074Y-180351600D01*
X121845074Y-180351600D02*
X120455000Y-178961526D01*
X120455000Y-178961526D02*
X120455000Y-178030000D01*
%TO.N,/Data/SCL*%
X121970000Y-180050000D02*
X121105000Y-179185000D01*
X122490000Y-116470000D02*
X124130000Y-118110000D01*
X124130000Y-118110000D02*
X124130000Y-179260000D01*
X124130000Y-179260000D02*
X123340000Y-180050000D01*
X123340000Y-180050000D02*
X121970000Y-180050000D01*
X121105000Y-179185000D02*
X121105000Y-178030000D01*
D77*
%TO.N,GND*%
X151860000Y-96730000D02*
X151860000Y-95635200D01*
X151860000Y-95635200D02*
X152800000Y-94695200D01*
D78*
%TO.N,/3V3*%
X154390000Y-94680000D02*
X153760000Y-95310000D01*
X153760000Y-95310000D02*
X153760000Y-96730000D01*
D76*
%TO.N,/Power/OUT0*%
X152228949Y-89596051D02*
X149820000Y-92005000D01*
X149820000Y-92005000D02*
X149820000Y-96225000D01*
X149820000Y-96225000D02*
X149990000Y-96395000D01*
X152228949Y-88896051D02*
X152228949Y-89596051D01*
%TO.N,/Data/SCL*%
X151578949Y-93946051D02*
X151578949Y-93196051D01*
X151130000Y-94650000D02*
X151130000Y-94395000D01*
X151130000Y-94395000D02*
X151578949Y-93946051D01*
%TO.N,/Data/SDA*%
X150928949Y-93931051D02*
X150928949Y-93196051D01*
X150320000Y-94670000D02*
X150320000Y-94540000D01*
X150320000Y-94540000D02*
X150928949Y-93931051D01*
%TO.N,Net-(JP1-C)*%
X131613649Y-93031049D02*
X128531049Y-93031049D01*
X125420000Y-89920000D02*
X124770000Y-89920000D01*
X124340000Y-89490000D02*
X124340000Y-88430000D01*
X128531049Y-93031049D02*
X125420000Y-89920000D01*
X124770000Y-89920000D02*
X124340000Y-89490000D01*
%TO.N,/Power/LOOP2*%
X134263949Y-89736051D02*
X134263949Y-90880749D01*
X134040000Y-87900000D02*
X134040000Y-89512102D01*
X134040000Y-89512102D02*
X134263949Y-89736051D01*
%TO.N,Net-(JP1-B)*%
X125795000Y-92150000D02*
X125795000Y-91345000D01*
X123820000Y-90530000D02*
X123040000Y-89750000D01*
X125795000Y-91345000D02*
X124980000Y-90530000D01*
X124980000Y-90530000D02*
X123820000Y-90530000D01*
X123040000Y-89750000D02*
X123040000Y-88430000D01*
%TO.N,Net-(D2-A)*%
X130400000Y-87860000D02*
X130400000Y-85550000D01*
X130400000Y-85550000D02*
X129922400Y-85072400D01*
X129922400Y-85072400D02*
X129305000Y-85072400D01*
%TO.N,Net-(Q1-G)*%
X129000000Y-97770000D02*
X128670000Y-97770000D01*
X128040000Y-95710000D02*
X128250000Y-95500000D01*
X128670000Y-97770000D02*
X128040000Y-97140000D01*
X131128951Y-94531049D02*
X131613649Y-94531049D01*
X128040000Y-97140000D02*
X128040000Y-95710000D01*
X130160000Y-95500000D02*
X131128951Y-94531049D01*
X128250000Y-95500000D02*
X130160000Y-95500000D01*
%TO.N,Net-(D1-A)*%
X131960000Y-96750000D02*
X131960000Y-97030000D01*
X132170000Y-97240000D02*
X132960000Y-97240000D01*
X133780000Y-98890000D02*
X133280000Y-99390000D01*
X133780000Y-98060000D02*
X133780000Y-98890000D01*
X131960000Y-97030000D02*
X132170000Y-97240000D01*
X132960000Y-97240000D02*
X133780000Y-98060000D01*
X133280000Y-99390000D02*
X132390000Y-99390000D01*
X132390000Y-99390000D02*
X131130000Y-98130000D01*
X131130000Y-98130000D02*
X130600000Y-98130000D01*
X131960000Y-96750000D02*
X132263950Y-96446050D01*
X132263950Y-96446050D02*
X132263950Y-95681349D01*
%TO.N,/Power/SW1*%
X131940000Y-98140000D02*
X131940000Y-97769686D01*
X132290000Y-98490000D02*
X132935000Y-98490000D01*
X131940000Y-97769686D02*
X130645157Y-96474843D01*
X131940000Y-98140000D02*
X132290000Y-98490000D01*
%TO.N,Net-(U1-RAMP1)*%
X134585000Y-98490000D02*
X134585000Y-100115000D01*
X134585000Y-100115000D02*
X134920000Y-100450000D01*
%TO.N,GND*%
X133020000Y-100450000D02*
X132450000Y-100450000D01*
X132450000Y-100450000D02*
X131700000Y-101200000D01*
%TO.N,Net-(C11-Pad2)*%
X142455000Y-87920000D02*
X144580000Y-87920000D01*
X144580000Y-87920000D02*
X144790000Y-88130000D01*
%TO.N,/Power/OUT0*%
X142815000Y-93450000D02*
X144050000Y-93450000D01*
X144050000Y-93450000D02*
X144790000Y-92710000D01*
X144790000Y-92710000D02*
X144790000Y-90030000D01*
%TO.N,GND*%
X143030000Y-91610000D02*
X142455000Y-91610000D01*
X143490000Y-91150000D02*
X143030000Y-91610000D01*
X143490000Y-90460000D02*
X142800000Y-89770000D01*
X143490000Y-91150000D02*
X143490000Y-90460000D01*
%TO.N,Net-(U1-COMP1)*%
X140805000Y-87920000D02*
X140610000Y-87920000D01*
X138860000Y-89670000D02*
X138860000Y-91470000D01*
X140610000Y-87920000D02*
X138860000Y-89670000D01*
X138300000Y-92030000D02*
X137810000Y-92030000D01*
X138860000Y-91470000D02*
X138300000Y-92030000D01*
%TO.N,Net-(U1-RES)*%
X136414249Y-92531048D02*
X138372426Y-92531048D01*
X140900000Y-90003474D02*
X140900000Y-89770000D01*
X138372426Y-92531048D02*
X140900000Y-90003474D01*
%TO.N,Net-(U1-RT)*%
X136414249Y-93031049D02*
X138298951Y-93031049D01*
X138298951Y-93031049D02*
X139720000Y-91610000D01*
X139720000Y-91610000D02*
X140985000Y-91610000D01*
%TO.N,Net-(U1-RAMP1)*%
X134763950Y-95681349D02*
X134763950Y-96703950D01*
X134763950Y-96703950D02*
X135300000Y-97240000D01*
X135300000Y-97240000D02*
X135300000Y-97775000D01*
X135300000Y-97775000D02*
X134585000Y-98490000D01*
%TO.N,GND*%
X138430000Y-100680000D02*
X138420000Y-100670000D01*
X138420000Y-100670000D02*
X136800000Y-100670000D01*
%TO.N,Net-(U1-SS1)*%
X135263949Y-96143949D02*
X136800000Y-97680000D01*
X135263949Y-95681349D02*
X135263949Y-96143949D01*
X136800000Y-97680000D02*
X136800000Y-98770000D01*
D78*
%TO.N,GND*%
X132440000Y-84190000D02*
X131100000Y-84190000D01*
X131100000Y-84190000D02*
X130870000Y-84420000D01*
D76*
%TO.N,Net-(D2-A)*%
X132320000Y-88248792D02*
X132440000Y-88128792D01*
X132440000Y-88128792D02*
X132440000Y-86090000D01*
D78*
%TO.N,GND*%
X122890000Y-92130000D02*
X124125000Y-92130000D01*
X124125000Y-92130000D02*
X124145000Y-92150000D01*
D76*
%TO.N,Net-(JP1-B)*%
X125805000Y-92160000D02*
X125805000Y-93840000D01*
X125795000Y-92150000D02*
X125805000Y-92160000D01*
%TO.N,/Power/VIN_M*%
X124155000Y-93840000D02*
X124155000Y-94275000D01*
X124155000Y-94275000D02*
X125690000Y-95810000D01*
%TO.N,Net-(U27-GPIO1)*%
X232800000Y-85070000D02*
X232400000Y-84670000D01*
X232400000Y-84670000D02*
X231650000Y-84670000D01*
D77*
%TO.N,/5V*%
X228230000Y-88550000D02*
X225510000Y-88550000D01*
X225510000Y-88550000D02*
X225480000Y-88520000D01*
X230300000Y-84670000D02*
X230300000Y-86480000D01*
X230300000Y-86480000D02*
X228230000Y-88550000D01*
X225480000Y-88520000D02*
X224630000Y-89370000D01*
X224630000Y-89370000D02*
X224630000Y-91130000D01*
%TO.N,GND*%
X231170000Y-92710000D02*
X231170000Y-91330000D01*
X231170000Y-91330000D02*
X230970000Y-91130000D01*
%TO.N,/3V3*%
X231170000Y-93670000D02*
X231170000Y-95820000D01*
X231170000Y-95820000D02*
X230060000Y-96930000D01*
X230060000Y-96930000D02*
X226930000Y-96930000D01*
D76*
%TO.N,/Data/SWD*%
X217640000Y-93600000D02*
X217640000Y-93370000D01*
X216120000Y-92230000D02*
X216120000Y-91450000D01*
X216730000Y-90840000D02*
X216730000Y-90110000D01*
X217640000Y-93370000D02*
X217358400Y-93088400D01*
X216120000Y-91450000D02*
X216730000Y-90840000D01*
X217358400Y-93088400D02*
X216978400Y-93088400D01*
X216978400Y-93088400D02*
X216120000Y-92230000D01*
%TO.N,/3V6*%
X221060000Y-99620000D02*
X221060000Y-99960000D01*
X224900000Y-102620000D02*
X224900000Y-107900000D01*
X221060000Y-99960000D02*
X221570000Y-100470000D01*
X221570000Y-100470000D02*
X222750000Y-100470000D01*
X222750000Y-100470000D02*
X224900000Y-102620000D01*
%TO.N,Net-(U27-GPIO26_ADC0)*%
X218637500Y-99377500D02*
X220017734Y-99377500D01*
X220017734Y-99377500D02*
X220296834Y-99098400D01*
X220296834Y-99098400D02*
X220296834Y-99093166D01*
X220296834Y-99093166D02*
X220550000Y-98840000D01*
X220550000Y-98840000D02*
X221920000Y-98840000D01*
X221920000Y-98840000D02*
X222080000Y-99000000D01*
X222080000Y-99000000D02*
X222080000Y-99620000D01*
%TO.N,GND*%
X222850000Y-97780000D02*
X222045000Y-97780000D01*
X222045000Y-97780000D02*
X222020000Y-97805000D01*
D77*
X222680000Y-93670000D02*
X222680000Y-94760000D01*
X231280000Y-91440000D02*
X230970000Y-91130000D01*
D79*
X230970000Y-91130000D02*
X232370000Y-91130000D01*
X232375000Y-91135000D02*
X232390000Y-91150000D01*
X232370000Y-91130000D02*
X232375000Y-91135000D01*
X229230000Y-91130000D02*
X230970000Y-91130000D01*
%TO.N,/3V3*%
X226930000Y-93330000D02*
X226930000Y-94930000D01*
X226930000Y-94930000D02*
X226930000Y-96930000D01*
X226930000Y-91130000D02*
X226930000Y-93330000D01*
D76*
%TO.N,GND*%
X216750000Y-108230000D02*
X216750000Y-108050000D01*
D77*
X121060000Y-172040000D02*
X121060000Y-172010000D01*
D78*
X157300549Y-98857349D02*
X157711600Y-99268400D01*
D76*
X219530000Y-107230000D02*
X219530000Y-106410000D01*
D78*
X131700000Y-101200000D02*
X130600000Y-100100000D01*
D76*
X234600000Y-154435000D02*
X234600000Y-156480000D01*
X208410000Y-99700000D02*
X208440000Y-99670000D01*
X232607501Y-153090000D02*
X232000000Y-153697501D01*
D77*
X231460000Y-150730000D02*
X234650000Y-150730000D01*
D80*
X208060000Y-95725000D02*
X208735000Y-95725000D01*
D76*
X218180000Y-109180000D02*
X218180000Y-109940000D01*
X234545000Y-172975001D02*
X233579999Y-172010000D01*
X122099999Y-172700000D02*
X122405000Y-173005001D01*
X208800000Y-95790000D02*
X208800000Y-94975000D01*
X234545000Y-173700000D02*
X234545000Y-172975001D01*
X218180000Y-109940000D02*
X218200000Y-109960000D01*
X231350000Y-154435000D02*
X231350000Y-150840000D01*
X133763949Y-90880749D02*
X133763949Y-91963949D01*
X214200000Y-103160000D02*
X214200000Y-103815000D01*
X231350000Y-150840000D02*
X231460000Y-150730000D01*
X133763949Y-95681349D02*
X133763949Y-94666051D01*
X133763949Y-91963949D02*
X134010000Y-92210000D01*
X215230000Y-106465000D02*
X215995000Y-107230000D01*
X234600000Y-154435000D02*
X234600000Y-153370000D01*
D78*
X130600000Y-100100000D02*
X130600000Y-100030000D01*
D76*
X121060000Y-172349999D02*
X121060000Y-172040000D01*
X220010000Y-95570000D02*
X220840000Y-95570000D01*
X224340000Y-99620000D02*
X225130000Y-99620000D01*
X222020000Y-102350000D02*
X222010000Y-102360000D01*
X149990000Y-98045000D02*
X150305000Y-98045000D01*
X133763949Y-94666051D02*
X134010000Y-94420000D01*
D77*
X234740000Y-179440000D02*
X234564000Y-179264000D01*
D76*
X133263948Y-94783948D02*
X132910000Y-94430000D01*
D80*
X152878949Y-93196051D02*
X152878949Y-94616251D01*
D78*
X157950549Y-89789451D02*
X157951600Y-89788400D01*
D76*
X133263948Y-92531048D02*
X134013949Y-93281049D01*
X232000000Y-154435000D02*
X231350000Y-154435000D01*
X216750000Y-108230000D02*
X216750000Y-107380000D01*
X218180000Y-106450000D02*
X218180000Y-107230000D01*
D77*
X234650000Y-150730000D02*
X235580000Y-149800000D01*
D76*
X199050000Y-160920000D02*
X199975000Y-160920000D01*
D77*
X235580000Y-149800000D02*
X235580000Y-148710000D01*
D78*
X122405000Y-179190000D02*
X122405000Y-178030000D01*
D76*
X121410001Y-172700000D02*
X122099999Y-172700000D01*
X213470000Y-108665000D02*
X213195000Y-108940000D01*
X209020000Y-164820000D02*
X209030000Y-164830000D01*
X209240000Y-92850000D02*
X208430000Y-92850000D01*
D78*
X157300549Y-97254849D02*
X157300549Y-98857349D01*
X140190000Y-84210000D02*
X140200000Y-84200000D01*
D76*
X219530000Y-106410000D02*
X219520000Y-106400000D01*
X234600000Y-156480000D02*
X235550000Y-157430000D01*
X234600000Y-153370000D02*
X234320000Y-153090000D01*
X208995000Y-87870000D02*
X210660000Y-89535000D01*
X198410000Y-164820000D02*
X198230000Y-165000000D01*
X233579999Y-172010000D02*
X233210000Y-172010000D01*
X207110000Y-158970000D02*
X206223000Y-158970000D01*
D78*
X122370000Y-95810000D02*
X122330000Y-95850000D01*
D76*
X199893000Y-158970000D02*
X200148000Y-159225000D01*
D78*
X157300549Y-91529849D02*
X157300549Y-90439451D01*
D76*
X199975000Y-160920000D02*
X200150000Y-161095000D01*
X208840000Y-87870000D02*
X208995000Y-87870000D01*
X208430000Y-92850000D02*
X208420000Y-92840000D01*
D77*
X234564000Y-179264000D02*
X234564000Y-178000000D01*
D76*
X211980000Y-108820000D02*
X212100000Y-108940000D01*
D77*
X121060000Y-172010000D02*
X122565000Y-170505000D01*
D76*
X133263948Y-90880749D02*
X133263948Y-92531048D01*
X234545000Y-173700000D02*
X234545000Y-178000000D01*
X122405000Y-173005001D02*
X122405000Y-173730000D01*
X232000000Y-153697501D02*
X232000000Y-154435000D01*
D78*
X154110000Y-88220000D02*
X154150000Y-88260000D01*
D77*
X230240000Y-150730000D02*
X231460000Y-150730000D01*
D80*
X152878949Y-94616251D02*
X152800000Y-94695200D01*
D76*
X150305000Y-98045000D02*
X151080000Y-98820000D01*
D78*
X147980000Y-93270000D02*
X147980000Y-92160000D01*
D76*
X121105000Y-173730000D02*
X121105000Y-173005001D01*
D77*
X235580000Y-148710000D02*
X235550000Y-148680000D01*
D76*
X199050000Y-164820000D02*
X198410000Y-164820000D01*
X215995000Y-107230000D02*
X216600000Y-107230000D01*
D77*
X228050000Y-84670000D02*
X228050000Y-86200000D01*
D76*
X208410000Y-100500000D02*
X208410000Y-99700000D01*
X213195000Y-108940000D02*
X212100000Y-108940000D01*
D78*
X123790000Y-95810000D02*
X122370000Y-95810000D01*
D76*
X235900000Y-148710000D02*
X235250000Y-148710000D01*
X222020000Y-101385000D02*
X222020000Y-102350000D01*
D78*
X138600000Y-84210000D02*
X140190000Y-84210000D01*
X154110000Y-87290000D02*
X154110000Y-88220000D01*
D76*
X121105000Y-173005001D02*
X121410001Y-172700000D01*
D78*
X157300549Y-90439451D02*
X157951600Y-89788400D01*
D77*
X235550000Y-148680000D02*
X235550000Y-146780000D01*
D76*
X206223000Y-158970000D02*
X205968000Y-159225000D01*
D80*
X208060000Y-95725000D02*
X208060000Y-96740000D01*
D76*
X211980000Y-108045000D02*
X211980000Y-108820000D01*
X234320000Y-153090000D02*
X232607501Y-153090000D01*
X207110000Y-164820000D02*
X209020000Y-164820000D01*
X121410001Y-172700000D02*
X121060000Y-172349999D01*
X216750000Y-107380000D02*
X216600000Y-107230000D01*
D78*
X158600549Y-90437349D02*
X157951600Y-89788400D01*
D76*
X208735000Y-95725000D02*
X208800000Y-95790000D01*
X213980000Y-102940000D02*
X214200000Y-103160000D01*
X136460000Y-84210000D02*
X138600000Y-84210000D01*
D78*
X158600549Y-91529849D02*
X158600549Y-90437349D01*
X157950549Y-91529849D02*
X157950549Y-89789451D01*
D76*
X218180000Y-107230000D02*
X218230000Y-107280000D01*
D80*
X207380000Y-95725000D02*
X208060000Y-95725000D01*
D76*
X133263948Y-95681349D02*
X133263948Y-94783948D01*
X220840000Y-95570000D02*
X220870000Y-95540000D01*
D77*
X228050000Y-86200000D02*
X228060000Y-86210000D01*
D76*
X136414249Y-93531049D02*
X135293949Y-93531049D01*
X135293949Y-93531049D02*
X135053949Y-93291049D01*
X199050000Y-158970000D02*
X199893000Y-158970000D01*
%TO.N,/Power/VIN_M*%
X159250549Y-98580242D02*
X159250549Y-97254849D01*
X131613649Y-93531049D02*
X127968951Y-93531049D01*
X157277391Y-100553400D02*
X159250549Y-98580242D01*
X127500000Y-94000000D02*
X125690000Y-95810000D01*
X127968951Y-93531049D02*
X127500000Y-94000000D01*
X146470000Y-99730000D02*
X147293400Y-100553400D01*
X147293400Y-100553400D02*
X157277391Y-100553400D01*
%TO.N,Net-(D1-A)*%
X137019251Y-90880749D02*
X137370000Y-90530000D01*
X128567600Y-99975000D02*
X128755000Y-99975000D01*
X128755000Y-99975000D02*
X130600000Y-98130000D01*
X135763948Y-90880749D02*
X137019251Y-90880749D01*
%TO.N,Net-(U1-SS2)*%
X135263949Y-90176051D02*
X138600000Y-86840000D01*
X135263949Y-90880749D02*
X135263949Y-90176051D01*
X138600000Y-86840000D02*
X138600000Y-86110000D01*
%TO.N,/Power/OUT0*%
X136414249Y-95031048D02*
X142108952Y-95031048D01*
X149990000Y-96395000D02*
X148280000Y-96395000D01*
X142815000Y-94325000D02*
X142815000Y-93450000D01*
X142815000Y-95115000D02*
X142815000Y-94325000D01*
X144095000Y-96395000D02*
X142815000Y-95115000D01*
X148280000Y-96395000D02*
X144095000Y-96395000D01*
X142108952Y-95031048D02*
X142815000Y-94325000D01*
%TO.N,Net-(U1-COMP1)*%
X137808951Y-92031049D02*
X137810000Y-92030000D01*
X136414249Y-92031049D02*
X137808951Y-92031049D01*
X139833951Y-94531049D02*
X136414249Y-94531049D01*
X140915000Y-93450000D02*
X139833951Y-94531049D01*
%TO.N,Net-(D1-K)*%
X127200000Y-95963792D02*
X127200000Y-97770000D01*
X126332400Y-98637600D02*
X126332400Y-99975000D01*
X130918950Y-94031050D02*
X131613649Y-94031050D01*
X127200000Y-97770000D02*
X126332400Y-98637600D01*
X129313949Y-94574843D02*
X128588949Y-94574843D01*
X129313949Y-94574843D02*
X130375157Y-94574843D01*
X130375157Y-94574843D02*
X130918950Y-94031050D01*
X128588949Y-94574843D02*
X127200000Y-95963792D01*
%TO.N,Net-(D2-A)*%
X138230000Y-88970000D02*
X138230000Y-90790000D01*
X132263950Y-88304842D02*
X132263950Y-90880749D01*
X137488950Y-91531050D02*
X136414249Y-91531050D01*
X132320000Y-88248792D02*
X132263950Y-88304842D01*
X138230000Y-90790000D02*
X137488950Y-91531050D01*
%TO.N,Net-(D2-K)*%
X129350000Y-91060000D02*
X128760000Y-91060000D01*
X128120000Y-90420000D02*
X128120000Y-88020000D01*
X128832400Y-87307600D02*
X129305000Y-87307600D01*
X131613649Y-92531048D02*
X129861048Y-92531048D01*
X128760000Y-91060000D02*
X128120000Y-90420000D01*
X128120000Y-88020000D02*
X128832400Y-87307600D01*
X129861048Y-92531048D02*
X129350000Y-92020000D01*
X129350000Y-92020000D02*
X129350000Y-91060000D01*
%TO.N,/3V6*%
X124900000Y-157200000D02*
X125400000Y-157700000D01*
X139640000Y-153030000D02*
X138420000Y-154250000D01*
X124900000Y-110600000D02*
X124900000Y-157200000D01*
X148280000Y-98045000D02*
X145485000Y-98045000D01*
X140310000Y-103220000D02*
X130380000Y-103220000D01*
X125400000Y-157700000D02*
X130900000Y-157700000D01*
X131800000Y-155200000D02*
X134680000Y-152320000D01*
X128000000Y-105600000D02*
X128000000Y-107500000D01*
X140860000Y-156710000D02*
X138440000Y-154290000D01*
X142400000Y-153030000D02*
X139640000Y-153030000D01*
X145485000Y-98045000D02*
X140310000Y-103220000D01*
X128000000Y-107500000D02*
X124900000Y-110600000D01*
X130380000Y-103220000D02*
X128000000Y-105600000D01*
X131800000Y-156800000D02*
X131800000Y-155200000D01*
X130900000Y-157700000D02*
X131800000Y-156800000D01*
%TO.N,/Power/VIN*%
X157950549Y-97254849D02*
X157950549Y-95029451D01*
X157950549Y-95029451D02*
X159301600Y-93678400D01*
%TO.N,Net-(Q1-G)*%
X155628949Y-108778949D02*
X155003946Y-108778949D01*
X156110000Y-109260000D02*
X155628949Y-108778949D01*
X156110000Y-109770000D02*
X156110000Y-109260000D01*
%TO.N,Net-(Q2-G)*%
X132763949Y-96740000D02*
X132763949Y-95681349D01*
X159860000Y-116535002D02*
X159800000Y-116475002D01*
X159860000Y-117600000D02*
X159860000Y-116535002D01*
%TO.N,Net-(Q3-G)*%
X131613649Y-92031049D02*
X130611049Y-92031049D01*
X201940000Y-104874997D02*
X201943952Y-104878949D01*
X130611049Y-92031049D02*
X130590000Y-92010000D01*
X201940000Y-103890000D02*
X201940000Y-104874997D01*
%TO.N,Net-(Q4-G)*%
X132763949Y-89903158D02*
X132763949Y-90880749D01*
X200894997Y-116450000D02*
X200885000Y-116440003D01*
X133020000Y-87890000D02*
X133020000Y-89647107D01*
X200890000Y-117400000D02*
X200885000Y-117395000D01*
X133020000Y-89647107D02*
X132763949Y-89903158D01*
X200885000Y-117395000D02*
X200885000Y-116440003D01*
%TO.N,Net-(U2-FS0)*%
X152878949Y-87501051D02*
X153090000Y-87290000D01*
X152878949Y-88896051D02*
X152878949Y-87501051D01*
%TO.N,/3V3*%
X209370000Y-100500000D02*
X210220000Y-100500000D01*
X219952500Y-101377500D02*
X219960000Y-101385000D01*
D77*
X235560000Y-145810000D02*
X235550000Y-145820000D01*
D78*
X147990000Y-88810000D02*
X147990000Y-89250000D01*
D76*
X218637500Y-101377500D02*
X219952500Y-101377500D01*
X218000000Y-95855000D02*
X217800000Y-95905000D01*
X217000000Y-103815000D02*
X217000000Y-104780000D01*
X215390000Y-96144766D02*
X215400000Y-96154766D01*
X120455000Y-174454999D02*
X120750001Y-174750000D01*
X205730000Y-92850000D02*
X205730000Y-93585000D01*
X210687500Y-97777500D02*
X211762500Y-97777500D01*
X215400000Y-96940000D02*
X215400000Y-96154766D01*
D77*
X232250000Y-173355000D02*
X232595000Y-173700000D01*
D76*
X232000000Y-148710000D02*
X232000000Y-146130000D01*
X218265000Y-95590000D02*
X219030000Y-95590000D01*
D77*
X120100000Y-173394000D02*
X120436000Y-173730000D01*
D78*
X156461600Y-99268400D02*
X156650549Y-99079451D01*
D76*
X120455000Y-173730000D02*
X120455000Y-174454999D01*
X219890000Y-97805000D02*
X219870000Y-97785000D01*
X211762500Y-101377500D02*
X211157500Y-101377500D01*
X207350000Y-102530000D02*
X207350000Y-100480000D01*
X233895000Y-173700000D02*
X232595000Y-173700000D01*
X215730000Y-96255000D02*
X215500234Y-96255000D01*
X215400000Y-104530000D02*
X215400000Y-103815000D01*
X219862500Y-97777500D02*
X219870000Y-97785000D01*
X215800000Y-96325000D02*
X215730000Y-96255000D01*
X210220000Y-100500000D02*
X210250000Y-100470000D01*
D78*
X147980000Y-89260000D02*
X147980000Y-90260000D01*
D77*
X120100000Y-172040000D02*
X120100000Y-169750000D01*
D76*
X121459999Y-174750000D02*
X121755000Y-174454999D01*
X217000000Y-104780000D02*
X217710000Y-105490000D01*
X218637500Y-97777500D02*
X219862500Y-97777500D01*
X219470000Y-105490000D02*
X219520000Y-105440000D01*
D77*
X232200000Y-171100000D02*
X232200000Y-171960000D01*
D80*
X210200000Y-92850000D02*
X210200000Y-94169998D01*
D78*
X147990000Y-89250000D02*
X147980000Y-89260000D01*
D76*
X218180000Y-105490000D02*
X218290000Y-105380000D01*
X216690000Y-106220000D02*
X216690000Y-105820000D01*
X217645000Y-95855000D02*
X217400000Y-96100000D01*
D80*
X150928949Y-86928949D02*
X150928949Y-88896051D01*
D76*
X221090000Y-97805000D02*
X219890000Y-97805000D01*
X210680000Y-97785000D02*
X210687500Y-97777500D01*
D77*
X232250000Y-172010000D02*
X232250000Y-173355000D01*
X120100000Y-172040000D02*
X120100000Y-173394000D01*
D76*
X120750001Y-174750000D02*
X121459999Y-174750000D01*
D80*
X210250002Y-94220000D02*
X211380000Y-94220000D01*
D76*
X207310000Y-102490000D02*
X207350000Y-102530000D01*
X215800000Y-96940000D02*
X215800000Y-96325000D01*
D77*
X232200000Y-171960000D02*
X232250000Y-172010000D01*
D76*
X121755000Y-174454999D02*
X121755000Y-173730000D01*
X220070000Y-105440000D02*
X219520000Y-105440000D01*
X205730000Y-93585000D02*
X205260000Y-94055000D01*
X217400000Y-96100000D02*
X217400000Y-96940000D01*
D78*
X156650549Y-99079451D02*
X156650549Y-97254849D01*
D76*
X217710000Y-105490000D02*
X218180000Y-105490000D01*
D77*
X235560000Y-145110000D02*
X235560000Y-145810000D01*
D76*
X218000000Y-95855000D02*
X217645000Y-95855000D01*
X220560000Y-105930000D02*
X220070000Y-105440000D01*
D80*
X210200000Y-94169998D02*
X210250002Y-94220000D01*
D76*
X221080000Y-101385000D02*
X219960000Y-101385000D01*
X207350000Y-102530000D02*
X207350000Y-103690000D01*
X215390000Y-95410000D02*
X215390000Y-96144766D01*
X220560000Y-106230000D02*
X220560000Y-105930000D01*
X219030000Y-95590000D02*
X219050000Y-95570000D01*
X211157500Y-101377500D02*
X210250000Y-100470000D01*
X216690000Y-105820000D02*
X215400000Y-104530000D01*
X217800000Y-95905000D02*
X217800000Y-96940000D01*
D80*
X150900000Y-86900000D02*
X150928949Y-86928949D01*
D76*
X215500234Y-96255000D02*
X215400000Y-96154766D01*
X218180000Y-105490000D02*
X219470000Y-105490000D01*
X218000000Y-95855000D02*
X218265000Y-95590000D01*
%TO.N,/Data/XOUT*%
X216750000Y-109190000D02*
X215755000Y-109190000D01*
X215000000Y-103815000D02*
X215000000Y-104991800D01*
X214300000Y-107735000D02*
X215230000Y-108665000D01*
X215755000Y-109190000D02*
X215230000Y-108665000D01*
X215000000Y-104991800D02*
X214300000Y-105691800D01*
X214300000Y-105691800D02*
X214300000Y-107735000D01*
%TO.N,/Data/XIN*%
X214600000Y-103815000D02*
X214600000Y-104765000D01*
X214600000Y-104765000D02*
X213470000Y-105895000D01*
X212850000Y-107085000D02*
X213470000Y-106465000D01*
X211980000Y-107085000D02*
X212850000Y-107085000D01*
X213470000Y-105895000D02*
X213470000Y-106465000D01*
%TO.N,/Data/1V1*%
X213764580Y-94770000D02*
X215000000Y-96005420D01*
X215800000Y-103815000D02*
X215800000Y-104209702D01*
X215800000Y-103215000D02*
X215800000Y-103815000D01*
X213390000Y-94770000D02*
X213764580Y-94770000D01*
X217320000Y-107360000D02*
X218180000Y-108220000D01*
X215000000Y-97985000D02*
X215000000Y-96940000D01*
X217000000Y-97925000D02*
X216930000Y-97995000D01*
X215800000Y-104209702D02*
X217320000Y-105729702D01*
X215000000Y-96005420D02*
X215000000Y-96940000D01*
X214990000Y-97995000D02*
X215000000Y-97985000D01*
X217320000Y-105729702D02*
X217320000Y-107360000D01*
X215350000Y-102765000D02*
X215800000Y-103215000D01*
X217000000Y-96940000D02*
X217000000Y-97925000D01*
%TO.N,/stack4/GND0*%
X142460000Y-163400000D02*
X141617000Y-163400000D01*
X141535000Y-161450000D02*
X141360000Y-161275000D01*
X141500000Y-167970000D02*
X138460000Y-167970000D01*
X135287000Y-163400000D02*
X135542000Y-163145000D01*
X133740000Y-157550000D02*
X133420000Y-157230000D01*
X134400000Y-163400000D02*
X135287000Y-163400000D01*
X134400000Y-157550000D02*
X133740000Y-157550000D01*
X142460000Y-161450000D02*
X141535000Y-161450000D01*
X141617000Y-163400000D02*
X141362000Y-163145000D01*
X142460000Y-157550000D02*
X143570000Y-157550000D01*
X143570000Y-157550000D02*
X143630000Y-157610000D01*
%TO.N,/stack4/GND1*%
X142460000Y-175790000D02*
X138590000Y-175790000D01*
X133380000Y-171240000D02*
X133350000Y-171210000D01*
X143240000Y-171240000D02*
X143440000Y-171040000D01*
X134400000Y-171240000D02*
X133380000Y-171240000D01*
X142460000Y-177090000D02*
X141617000Y-177090000D01*
X141617000Y-177090000D02*
X141362000Y-176835000D01*
X141535000Y-175140000D02*
X141360000Y-174965000D01*
X134400000Y-177090000D02*
X135287000Y-177090000D01*
X142460000Y-171240000D02*
X143240000Y-171240000D01*
X138590000Y-175790000D02*
X138460000Y-175920000D01*
X142460000Y-175140000D02*
X141535000Y-175140000D01*
X135287000Y-177090000D02*
X135542000Y-176835000D01*
%TO.N,/stack4/GND2*%
X142460000Y-190770000D02*
X141617000Y-190770000D01*
X142460000Y-188820000D02*
X141535000Y-188820000D01*
X134400000Y-184920000D02*
X133760000Y-184920000D01*
X142690000Y-184920000D02*
X143520000Y-184090000D01*
X142460000Y-184920000D02*
X142690000Y-184920000D01*
X135287000Y-190770000D02*
X135542000Y-190515000D01*
X133760000Y-184920000D02*
X133380000Y-184540000D01*
X141617000Y-190770000D02*
X141362000Y-190515000D01*
X134400000Y-190770000D02*
X135287000Y-190770000D01*
X141535000Y-188820000D02*
X141360000Y-188645000D01*
%TO.N,/stack4/1V2-0*%
X134400000Y-164700000D02*
X133890000Y-164700000D01*
X133890000Y-164700000D02*
X133120000Y-165470000D01*
%TO.N,/Power/SW1*%
X131613649Y-95506351D02*
X130645157Y-96474843D01*
X130645157Y-96474843D02*
X129313949Y-96474843D01*
X131613649Y-95031048D02*
X131613649Y-95506351D01*
%TO.N,/Power/SW2*%
X131081050Y-91531050D02*
X130630000Y-91080000D01*
X131613649Y-91531050D02*
X131081050Y-91531050D01*
X196979999Y-110850001D02*
X197190001Y-110850001D01*
X194730000Y-112020000D02*
X195899999Y-110850001D01*
X197190001Y-110850001D02*
X198980000Y-112640000D01*
X130930000Y-89160000D02*
X129350000Y-89160000D01*
X195899999Y-110850001D02*
X197075000Y-110850001D01*
X130630000Y-89460000D02*
X130930000Y-89160000D01*
X130630000Y-91080000D02*
X130630000Y-89460000D01*
%TO.N,/Power/LOOP1*%
X159200000Y-117590000D02*
X158520000Y-117590000D01*
X134710000Y-97470000D02*
X134263949Y-97023949D01*
X134263949Y-97023949D02*
X134263949Y-95681349D01*
%TO.N,/Power/LOOP2*%
X196065137Y-115084863D02*
X196065137Y-115435137D01*
X196065137Y-115435137D02*
X197070003Y-116440003D01*
X198816600Y-121123400D02*
X198816600Y-121590000D01*
X197070003Y-116440003D02*
X197075000Y-116440003D01*
%TO.N,/stack4/1V2-1*%
X134400000Y-178390000D02*
X133720000Y-178390000D01*
X133720000Y-178390000D02*
X132950000Y-179160000D01*
%TO.N,/stack4/0V8-0*%
X133500000Y-164050000D02*
X132130000Y-165420000D01*
X128970000Y-163070000D02*
X128970000Y-160830000D01*
X134400000Y-164050000D02*
X133500000Y-164050000D01*
%TO.N,/stack4/0V8-1*%
X134400000Y-177740000D02*
X132760000Y-177740000D01*
X132850000Y-176370000D02*
X132850000Y-177650000D01*
X132760000Y-177740000D02*
X131930000Y-178570000D01*
X132850000Y-177650000D02*
X132760000Y-177740000D01*
%TO.N,/stack4/0V8-2*%
X128740000Y-191640000D02*
X128740000Y-187750000D01*
X131820000Y-193740000D02*
X130840000Y-193740000D01*
X130840000Y-193740000D02*
X128740000Y-191640000D01*
%TO.N,/stack5/GND0*%
X156915000Y-188180000D02*
X157090000Y-188355000D01*
X156833000Y-186230000D02*
X157088000Y-186485000D01*
X163163000Y-186230000D02*
X162908000Y-186485000D01*
X155990000Y-186230000D02*
X156833000Y-186230000D01*
X155990000Y-192080000D02*
X154990000Y-192080000D01*
X154990000Y-192080000D02*
X154970000Y-192060000D01*
X164050000Y-192080000D02*
X165180000Y-192080000D01*
X155990000Y-188180000D02*
X156915000Y-188180000D01*
X165180000Y-192080000D02*
X165240000Y-192140000D01*
X164050000Y-186230000D02*
X163163000Y-186230000D01*
%TO.N,/stack5/GND1*%
X164050000Y-178410000D02*
X165070000Y-178410000D01*
X156580000Y-167990000D02*
X160000000Y-167990000D01*
X155990000Y-178410000D02*
X154800000Y-178410000D01*
X155990000Y-174510000D02*
X156915000Y-174510000D01*
X164050000Y-172560000D02*
X163163000Y-172560000D01*
X158678332Y-173860000D02*
X158890000Y-174071668D01*
X155990000Y-172560000D02*
X156833000Y-172560000D01*
X165070000Y-178410000D02*
X165210000Y-178550000D01*
X155990000Y-173860000D02*
X158678332Y-173860000D01*
X156833000Y-172560000D02*
X157088000Y-172815000D01*
X156915000Y-174510000D02*
X157090000Y-174685000D01*
X163163000Y-172560000D02*
X162908000Y-172815000D01*
%TO.N,/stack5/GND2*%
X155450000Y-164730000D02*
X154770000Y-165410000D01*
X164125000Y-164730000D02*
X165002500Y-165607500D01*
X156010000Y-158880000D02*
X156853000Y-158880000D01*
X156010000Y-160830000D02*
X156935000Y-160830000D01*
X163183000Y-158880000D02*
X162928000Y-159135000D01*
X164070000Y-158880000D02*
X163183000Y-158880000D01*
X156010000Y-164730000D02*
X155450000Y-164730000D01*
X156935000Y-160830000D02*
X157110000Y-161005000D01*
X156853000Y-158880000D02*
X157108000Y-159135000D01*
X164070000Y-164730000D02*
X164125000Y-164730000D01*
%TO.N,/stack5/1V2-0*%
X155990000Y-184930000D02*
X152410000Y-184930000D01*
X152410000Y-184930000D02*
X152380000Y-184960000D01*
%TO.N,/stack5/1V2-1*%
X155930000Y-171320000D02*
X155990000Y-171260000D01*
%TO.N,/stack5/1V2-2*%
X152860000Y-155700000D02*
X150840000Y-157720000D01*
X154630000Y-156890000D02*
X155320000Y-157580000D01*
X154630000Y-156180000D02*
X154630000Y-156890000D01*
X154630000Y-156180000D02*
X154150000Y-155700000D01*
X154150000Y-155700000D02*
X152860000Y-155700000D01*
X155320000Y-157580000D02*
X156010000Y-157580000D01*
%TO.N,/stack5/0V8-1*%
X164850000Y-171910000D02*
X164050000Y-171910000D01*
X165150000Y-171610000D02*
X164850000Y-171910000D01*
%TO.N,/stack5/0V8-2*%
X153560000Y-156200000D02*
X153560000Y-156990000D01*
X153560000Y-156990000D02*
X154800000Y-158230000D01*
X154800000Y-158230000D02*
X156010000Y-158230000D01*
%TO.N,/stack6/GND0*%
X185500000Y-163430000D02*
X184657000Y-163430000D01*
X184575000Y-161480000D02*
X184400000Y-161305000D01*
X184657000Y-163430000D02*
X184402000Y-163175000D01*
X185500000Y-161480000D02*
X184575000Y-161480000D01*
X178327000Y-163430000D02*
X178582000Y-163175000D01*
X177440000Y-163430000D02*
X178327000Y-163430000D01*
X176380000Y-157580000D02*
X176370000Y-157590000D01*
X186040000Y-157580000D02*
X186900000Y-156720000D01*
X185500000Y-157580000D02*
X186040000Y-157580000D01*
X177440000Y-157580000D02*
X176380000Y-157580000D01*
%TO.N,/stack6/GND1*%
X175960000Y-171260000D02*
X175800000Y-171100000D01*
X185500000Y-175160000D02*
X184575000Y-175160000D01*
X181630000Y-175810000D02*
X181500000Y-175940000D01*
X185500000Y-171260000D02*
X186520000Y-171260000D01*
X186520000Y-171260000D02*
X186710000Y-171070000D01*
X178327000Y-177110000D02*
X178582000Y-176855000D01*
X177440000Y-177110000D02*
X178327000Y-177110000D01*
X185500000Y-175810000D02*
X181630000Y-175810000D01*
X184657000Y-177110000D02*
X184402000Y-176855000D01*
X177440000Y-171260000D02*
X175960000Y-171260000D01*
X184575000Y-175160000D02*
X184400000Y-174985000D01*
X178410000Y-181680000D02*
X181500000Y-181680000D01*
X185500000Y-177110000D02*
X184657000Y-177110000D01*
X177430000Y-177100000D02*
X177440000Y-177110000D01*
%TO.N,/stack6/GND2*%
X184657000Y-190800000D02*
X184402000Y-190545000D01*
X185500000Y-190800000D02*
X184657000Y-190800000D01*
X177440000Y-190800000D02*
X178327000Y-190800000D01*
X186810000Y-184950000D02*
X186860000Y-184900000D01*
X177440000Y-184950000D02*
X176930000Y-184950000D01*
X184575000Y-188850000D02*
X184400000Y-188675000D01*
X176930000Y-184950000D02*
X176470000Y-184490000D01*
X178327000Y-190800000D02*
X178582000Y-190545000D01*
X185500000Y-184950000D02*
X186810000Y-184950000D01*
X185500000Y-188850000D02*
X184575000Y-188850000D01*
%TO.N,/stack6/1V2-0*%
X186660000Y-164720000D02*
X186009999Y-164720000D01*
X185999999Y-164730000D02*
X185500000Y-164730000D01*
X186009999Y-164720000D02*
X185999999Y-164730000D01*
%TO.N,/stack6/1V2-1*%
X177440000Y-178410000D02*
X176700000Y-178410000D01*
X177420000Y-178390000D02*
X177440000Y-178410000D01*
X176700000Y-178410000D02*
X176450000Y-178160000D01*
%TO.N,/stack6/1V2-2*%
X175650000Y-194370000D02*
X175160000Y-194860000D01*
X173160000Y-194860000D02*
X171480000Y-193180000D01*
X176280000Y-192100000D02*
X175650000Y-192730000D01*
X171480000Y-193180000D02*
X171480000Y-189320000D01*
X175650000Y-192730000D02*
X175650000Y-194370000D01*
X177440000Y-192100000D02*
X176280000Y-192100000D01*
X175160000Y-194860000D02*
X173160000Y-194860000D01*
%TO.N,/stack6/0V8-0*%
X177440000Y-164080000D02*
X176160000Y-164080000D01*
X176160000Y-164080000D02*
X175870000Y-163790000D01*
%TO.N,/stack6/0V8-2*%
X174590000Y-194350000D02*
X174600000Y-194360000D01*
X174590000Y-192570000D02*
X174590000Y-194350000D01*
X175710000Y-191450000D02*
X174590000Y-192570000D01*
X176940001Y-191450000D02*
X177440000Y-191450000D01*
X176940001Y-191450000D02*
X175710000Y-191450000D01*
%TO.N,/stack7/GND0*%
X199975000Y-188290000D02*
X200150000Y-188465000D01*
X210340000Y-192190000D02*
X207110000Y-192190000D01*
X199050000Y-186340000D02*
X199893000Y-186340000D01*
X199893000Y-186340000D02*
X200148000Y-186595000D01*
X211600000Y-190930000D02*
X210340000Y-192190000D01*
X207110000Y-186340000D02*
X206223000Y-186340000D01*
X199050000Y-192190000D02*
X197870000Y-192190000D01*
X199050000Y-188290000D02*
X199975000Y-188290000D01*
X206223000Y-186340000D02*
X205968000Y-186595000D01*
X197870000Y-192190000D02*
X197820000Y-192140000D01*
%TO.N,/stack7/GND1*%
X202620000Y-168510000D02*
X203050000Y-168080000D01*
X199050000Y-173950000D02*
X201738332Y-173950000D01*
X199050000Y-172650000D02*
X199893000Y-172650000D01*
X199050000Y-174600000D02*
X201721000Y-174600000D01*
X206223000Y-172650000D02*
X205968000Y-172905000D01*
X199050000Y-178500000D02*
X198930000Y-178500000D01*
X207110000Y-178500000D02*
X208210000Y-178500000D01*
X198930000Y-178500000D02*
X197960000Y-179470000D01*
X208210000Y-178500000D02*
X208440000Y-178730000D01*
X199893000Y-172650000D02*
X200148000Y-172905000D01*
X201738332Y-173950000D02*
X201950000Y-174161668D01*
X207110000Y-172650000D02*
X206223000Y-172650000D01*
X201721000Y-174600000D02*
X201896000Y-174775000D01*
%TO.N,/stack7/1V2-2*%
X214600000Y-160290000D02*
X210800000Y-156490000D01*
X207110000Y-157670000D02*
X208840000Y-157670000D01*
X210020000Y-156490000D02*
X209520000Y-156990000D01*
D77*
X235570000Y-154415000D02*
X235550000Y-154435000D01*
D76*
X210800000Y-156490000D02*
X210020000Y-156490000D01*
D77*
X231350000Y-149630000D02*
X231350000Y-148710000D01*
D76*
X235550000Y-154435000D02*
X235900000Y-154435000D01*
X235570000Y-153120000D02*
X235570000Y-154415000D01*
D77*
X231130000Y-149850000D02*
X231350000Y-149630000D01*
D76*
X214600000Y-160960000D02*
X214600000Y-160290000D01*
X208840000Y-157670000D02*
X209520000Y-156990000D01*
D77*
X230195104Y-149850000D02*
X231130000Y-149850000D01*
D76*
X235250000Y-154435000D02*
X235550000Y-154435000D01*
X235550000Y-156470000D02*
X235550000Y-154435000D01*
%TO.N,/stack7/0V8-0*%
X209580000Y-185690000D02*
X207110000Y-185690000D01*
X209690000Y-185580000D02*
X209580000Y-185690000D01*
%TO.N,/stack7/0V8-2*%
X209200000Y-158320000D02*
X210530000Y-156990000D01*
X207110000Y-158320000D02*
X209200000Y-158320000D01*
%TO.N,/Data/USB_DN*%
X214730000Y-90900000D02*
X214730000Y-90110000D01*
X215514999Y-90900000D02*
X214730000Y-90900000D01*
X215730000Y-90684999D02*
X215514999Y-90900000D01*
X215730000Y-90110000D02*
X215730000Y-90684999D01*
X214740000Y-90910000D02*
X214730000Y-90900000D01*
X216720000Y-93560000D02*
X216720000Y-93410000D01*
X216720000Y-93410000D02*
X214740000Y-91430000D01*
X214740000Y-91430000D02*
X214740000Y-90910000D01*
%TO.N,/Data/SWD*%
X216810000Y-102795000D02*
X216600000Y-103005000D01*
X216600000Y-103005000D02*
X216600000Y-103815000D01*
%TO.N,/Data/USB_DP*%
X214230000Y-90110000D02*
X214230000Y-91490000D01*
X214230000Y-89590000D02*
X214230000Y-90110000D01*
X215670000Y-92930000D02*
X215670000Y-93570000D01*
X215028399Y-89333400D02*
X214486600Y-89333400D01*
X214486600Y-89333400D02*
X214230000Y-89590000D01*
X215230000Y-89535001D02*
X215028399Y-89333400D01*
X214230000Y-91490000D02*
X215670000Y-92930000D01*
X215230000Y-90110000D02*
X215230000Y-89535001D01*
%TO.N,/Data/SWCLK*%
X216130000Y-102765000D02*
X216200000Y-102835000D01*
X213730000Y-92920000D02*
X213730000Y-90110000D01*
X213700000Y-92950000D02*
X213730000Y-92920000D01*
X216200000Y-102835000D02*
X216200000Y-103815000D01*
%TO.N,/Data/QSPI_SS*%
X205000960Y-95272707D02*
X205000960Y-95183378D01*
X212600000Y-96940000D02*
X212165000Y-96505000D01*
X210980000Y-96505000D02*
X210880000Y-96505000D01*
X206860000Y-92960000D02*
X206860000Y-94225000D01*
X205959338Y-94225000D02*
X206860000Y-94225000D01*
X206860000Y-94225000D02*
X207380000Y-94225000D01*
X206750000Y-92850000D02*
X206860000Y-92960000D01*
X205000960Y-95183378D02*
X205959338Y-94225000D01*
X210880000Y-96505000D02*
X210870000Y-96515000D01*
X212165000Y-96505000D02*
X210980000Y-96505000D01*
%TO.N,Net-(U27-USB_DP)*%
X216200000Y-95120000D02*
X215670000Y-94590000D01*
X216200000Y-96940000D02*
X216200000Y-95120000D01*
%TO.N,Net-(U27-USB_DM)*%
X216600000Y-94700000D02*
X216720000Y-94580000D01*
X216600000Y-96940000D02*
X216600000Y-94700000D01*
%TO.N,Net-(U46-NRSTO)*%
X143680000Y-171960000D02*
X143610000Y-171890000D01*
X143610000Y-171890000D02*
X142460000Y-171890000D01*
%TO.N,Net-(U46-CO)*%
X143738000Y-175488702D02*
X142739298Y-174490000D01*
X142739298Y-174490000D02*
X142460000Y-174490000D01*
%TO.N,Net-(U46-CLKO)*%
X143765000Y-174625000D02*
X142980000Y-173840000D01*
X142980000Y-173840000D02*
X142460000Y-173840000D01*
%TO.N,Net-(U46-RI)*%
X143759000Y-173741000D02*
X143208000Y-173190000D01*
X143208000Y-173190000D02*
X142460000Y-173190000D01*
%TO.N,Net-(U46-BO)*%
X143777000Y-172753000D02*
X143564000Y-172540000D01*
X143564000Y-172540000D02*
X142460000Y-172540000D01*
%TO.N,Net-(U45-BI)*%
X146620000Y-173760000D02*
X147100000Y-173280000D01*
X147100000Y-173280000D02*
X147100000Y-172552893D01*
X143800000Y-169252891D02*
X143800000Y-160640000D01*
X146807108Y-172259999D02*
X143800000Y-169252891D01*
X143310000Y-160150000D02*
X142460000Y-160150000D01*
X147100000Y-172552893D02*
X146807108Y-172259999D01*
X143800000Y-160640000D02*
X143310000Y-160150000D01*
%TO.N,Net-(U45-CO)*%
X133570000Y-158200000D02*
X134400000Y-158200000D01*
X132600000Y-157230000D02*
X133570000Y-158200000D01*
%TO.N,Net-(U46-CI)*%
X131388400Y-175111600D02*
X132010000Y-174490000D01*
X131388400Y-179918400D02*
X131388400Y-175111600D01*
X131500000Y-180030000D02*
X131388400Y-179918400D01*
X132010000Y-174490000D02*
X134400000Y-174490000D01*
%TO.N,Net-(U47-CO)*%
X134400000Y-185570000D02*
X133420000Y-185570000D01*
X131520000Y-183670000D02*
X131520000Y-182780000D01*
X133420000Y-185570000D02*
X131520000Y-183670000D01*
%TO.N,Net-(U46-CLKI)*%
X130496000Y-175104000D02*
X131760000Y-173840000D01*
X130496000Y-180004000D02*
X130496000Y-175104000D01*
X131760000Y-173840000D02*
X134400000Y-173840000D01*
X130490000Y-180010000D02*
X130496000Y-180004000D01*
%TO.N,Net-(U45-CLKO)*%
X133150000Y-158850000D02*
X134400000Y-158850000D01*
X132050000Y-157750000D02*
X133150000Y-158850000D01*
%TO.N,Net-(U47-CLKO)*%
X130540000Y-183530000D02*
X130540000Y-182780000D01*
X133230000Y-186220000D02*
X130540000Y-183530000D01*
X134400000Y-186220000D02*
X133230000Y-186220000D01*
%TO.N,Net-(U46-RO)*%
X129492000Y-175008000D02*
X131310000Y-173190000D01*
X129480000Y-180010000D02*
X129492000Y-179998000D01*
X129492000Y-179998000D02*
X129492000Y-175008000D01*
X131310000Y-173190000D02*
X134400000Y-173190000D01*
%TO.N,Net-(U45-RI)*%
X132120000Y-158840000D02*
X132780000Y-159500000D01*
X132780000Y-159500000D02*
X134400000Y-159500000D01*
%TO.N,Net-(U47-RI)*%
X129480000Y-183360000D02*
X129480000Y-182780000D01*
X132990000Y-186870000D02*
X129480000Y-183360000D01*
X134400000Y-186870000D02*
X132990000Y-186870000D01*
%TO.N,Net-(U46-BI)*%
X128490000Y-180010000D02*
X128488000Y-180008000D01*
X131060000Y-172540000D02*
X134400000Y-172540000D01*
X128488000Y-180008000D02*
X128488000Y-175112000D01*
X128488000Y-175112000D02*
X131060000Y-172540000D01*
%TO.N,Net-(U45-BO)*%
X132260000Y-160150000D02*
X134400000Y-160150000D01*
X131960000Y-160450000D02*
X132260000Y-160150000D01*
%TO.N,Net-(U47-BO)*%
X134400000Y-187520000D02*
X132850000Y-187520000D01*
X128530000Y-183200000D02*
X128530000Y-182780000D01*
X132850000Y-187520000D02*
X128530000Y-183200000D01*
%TO.N,Net-(U46-NRSTI)*%
X130710000Y-171890000D02*
X134400000Y-171890000D01*
X127484000Y-179994000D02*
X127484000Y-175116000D01*
X127500000Y-180010000D02*
X127484000Y-179994000D01*
X127484000Y-175116000D02*
X130710000Y-171890000D01*
%TO.N,Net-(U45-NRSTO)*%
X131050000Y-160950000D02*
X134250000Y-160950000D01*
X130200000Y-160100000D02*
X131050000Y-160950000D01*
X126400000Y-160100000D02*
X130200000Y-160100000D01*
X134250000Y-160950000D02*
X134400000Y-160800000D01*
X125000000Y-161500000D02*
X126400000Y-160100000D01*
%TO.N,Net-(U47-NRSTO)*%
X132770000Y-188170000D02*
X127470000Y-182870000D01*
X127470000Y-182870000D02*
X127470000Y-182820000D01*
X134400000Y-188170000D02*
X132770000Y-188170000D01*
%TO.N,Net-(U55-NRSTO)*%
X169624800Y-189835200D02*
X169624800Y-186538112D01*
X169624800Y-186538112D02*
X167170000Y-184083312D01*
X165960000Y-175160000D02*
X164050000Y-175160000D01*
X164050000Y-175160000D02*
X164388234Y-175160000D01*
X167170000Y-184083312D02*
X167170000Y-176370000D01*
X167170000Y-176370000D02*
X165960000Y-175160000D01*
X168190000Y-191270000D02*
X169624800Y-189835200D01*
%TO.N,Net-(U55-CO)*%
X168220000Y-186839419D02*
X165918400Y-184537819D01*
X168220000Y-187120000D02*
X168220000Y-186839419D01*
X165580000Y-177760000D02*
X164050000Y-177760000D01*
X165918400Y-178098400D02*
X165580000Y-177760000D01*
X165918400Y-184537819D02*
X165918400Y-178098400D01*
%TO.N,Net-(U55-CLKO)*%
X165690000Y-177110000D02*
X164050000Y-177110000D01*
X168427107Y-186619999D02*
X166220000Y-184412892D01*
X168200000Y-188140000D02*
X168720000Y-187620000D01*
X168720000Y-187620000D02*
X168720000Y-186912893D01*
X166220000Y-177640000D02*
X165690000Y-177110000D01*
X166220000Y-184412892D02*
X166220000Y-177640000D01*
X168720000Y-186912893D02*
X168427107Y-186619999D01*
%TO.N,Net-(U55-RI)*%
X168552034Y-186318399D02*
X166530000Y-184296365D01*
X169021600Y-186787966D02*
X168552034Y-186318399D01*
X166530000Y-184296365D02*
X166530000Y-177140000D01*
X168220000Y-189210000D02*
X169021600Y-188408400D01*
X169021600Y-188408400D02*
X169021600Y-186787966D01*
X166530000Y-177140000D02*
X165850000Y-176460000D01*
X165850000Y-176460000D02*
X164050000Y-176460000D01*
%TO.N,Net-(U55-BO)*%
X165893474Y-175810000D02*
X164050000Y-175810000D01*
X168220000Y-190200000D02*
X169323200Y-189096800D01*
X169323200Y-189096800D02*
X169323200Y-186663039D01*
X169323200Y-186663039D02*
X166840000Y-184179839D01*
X166840000Y-176756526D02*
X165893474Y-175810000D01*
X166840000Y-184179839D02*
X166840000Y-176756526D01*
%TO.N,Net-(U64-NRSTO)*%
X187446673Y-163926800D02*
X187270000Y-164103473D01*
X187270000Y-164103473D02*
X187270000Y-171540000D01*
X186900000Y-171910000D02*
X185500000Y-171910000D01*
X189920000Y-161070000D02*
X189920000Y-161453474D01*
X189920000Y-161453474D02*
X187446673Y-163926800D01*
X187270000Y-171540000D02*
X186900000Y-171910000D01*
%TO.N,Net-(U64-CO)*%
X190100000Y-157090000D02*
X191324800Y-158314800D01*
X191324800Y-158314800D02*
X191324800Y-161798254D01*
X188476400Y-164646654D02*
X188476400Y-173623600D01*
X187590000Y-174510000D02*
X185500000Y-174510000D01*
X188476400Y-173623600D02*
X187590000Y-174510000D01*
X191324800Y-161798254D02*
X188476400Y-164646654D01*
%TO.N,Net-(U64-CLKO)*%
X191023200Y-161673327D02*
X188174800Y-164521727D01*
X189890000Y-158110000D02*
X191023200Y-159243200D01*
X191023200Y-159243200D02*
X191023200Y-161673327D01*
X187140000Y-173860000D02*
X185500000Y-173860000D01*
X188174800Y-172825200D02*
X187140000Y-173860000D01*
X188174800Y-164521727D02*
X188174800Y-172825200D01*
%TO.N,Net-(U64-RI)*%
X186990000Y-173210000D02*
X187873200Y-172326800D01*
X190721600Y-159891600D02*
X189890000Y-159060000D01*
X187873200Y-172326800D02*
X187873200Y-164396800D01*
X190721600Y-161548400D02*
X190721600Y-159891600D01*
X187873200Y-164396800D02*
X190721600Y-161548400D01*
X185500000Y-173210000D02*
X186990000Y-173210000D01*
%TO.N,Net-(U64-BO)*%
X187571600Y-171808400D02*
X186820000Y-172560000D01*
X189890000Y-160050000D02*
X190420000Y-160580000D01*
X186820000Y-172560000D02*
X185500000Y-172560000D01*
X187571600Y-164228400D02*
X187571600Y-171808400D01*
X190420000Y-160580000D02*
X190420000Y-161380000D01*
X190420000Y-161380000D02*
X187571600Y-164228400D01*
%TO.N,Net-(U63-CO)*%
X170270000Y-158230000D02*
X177440000Y-158230000D01*
X167780000Y-160720000D02*
X170270000Y-158230000D01*
X167780000Y-160730000D02*
X167780000Y-160720000D01*
%TO.N,Net-(U65-CO)*%
X176460000Y-185230000D02*
X176830000Y-185600000D01*
X176830000Y-185600000D02*
X177440000Y-185600000D01*
%TO.N,Net-(U63-CLKO)*%
X167800000Y-161720000D02*
X167810000Y-161720000D01*
X167810000Y-161720000D02*
X170650000Y-158880000D01*
X170650000Y-158880000D02*
X177440000Y-158880000D01*
%TO.N,Net-(U65-CLKO)*%
X176460000Y-186120000D02*
X177310000Y-186120000D01*
X177310000Y-186120000D02*
X177440000Y-186250000D01*
%TO.N,Net-(U63-RI)*%
X167810000Y-162730000D02*
X167870000Y-162730000D01*
X171070000Y-159530000D02*
X177440000Y-159530000D01*
X167870000Y-162730000D02*
X171070000Y-159530000D01*
%TO.N,Net-(U65-RI)*%
X177320000Y-186780000D02*
X177440000Y-186900000D01*
X176520000Y-186780000D02*
X177320000Y-186780000D01*
%TO.N,Net-(U63-BO)*%
X167830000Y-163730000D02*
X171380000Y-160180000D01*
X171380000Y-160180000D02*
X177440000Y-160180000D01*
%TO.N,Net-(U65-BO)*%
X177400000Y-187510000D02*
X177440000Y-187550000D01*
X176570000Y-187510000D02*
X177400000Y-187510000D01*
%TO.N,Net-(U63-NRSTO)*%
X167870000Y-164740000D02*
X171780000Y-160830000D01*
X171780000Y-160830000D02*
X177440000Y-160830000D01*
%TO.N,Net-(U64-NRSTI)*%
X174662000Y-172738000D02*
X175490000Y-171910000D01*
X175490000Y-171910000D02*
X177440000Y-171910000D01*
%TO.N,Net-(U65-NRSTO)*%
X176990000Y-188200000D02*
X177440000Y-188200000D01*
X176520000Y-188670000D02*
X176990000Y-188200000D01*
%TO.N,Net-(U73-NRSTO)*%
X211250000Y-175250000D02*
X207110000Y-175250000D01*
X214940000Y-178940000D02*
X211250000Y-175250000D01*
X214940000Y-180240000D02*
X214940000Y-178940000D01*
%TO.N,Net-(U73-CO)*%
X210910000Y-179710000D02*
X209050000Y-177850000D01*
X209050000Y-177850000D02*
X207110000Y-177850000D01*
X210910000Y-180240000D02*
X210910000Y-179710000D01*
%TO.N,Net-(U73-CLKO)*%
X211920000Y-179420000D02*
X209700000Y-177200000D01*
X209700000Y-177200000D02*
X207110000Y-177200000D01*
X211920000Y-180240000D02*
X211920000Y-179420000D01*
%TO.N,Net-(U73-RI)*%
X212930000Y-180240000D02*
X212930000Y-179230000D01*
X212930000Y-179230000D02*
X210250000Y-176550000D01*
X210250000Y-176550000D02*
X207110000Y-176550000D01*
%TO.N,Net-(U73-BO)*%
X213920000Y-180230000D02*
X213920000Y-179020000D01*
X210800000Y-175900000D02*
X207110000Y-175900000D01*
X213920000Y-179020000D02*
X210800000Y-175900000D01*
%TO.N,Net-(U74-BI)*%
X209890000Y-163520000D02*
X207110000Y-163520000D01*
X209910000Y-163500000D02*
X209890000Y-163520000D01*
%TO.N,Net-(U72-CO)*%
X192260000Y-185660000D02*
X195540000Y-188940000D01*
X195540000Y-188940000D02*
X199050000Y-188940000D01*
%TO.N,Net-(U73-CI)*%
X198750000Y-177850000D02*
X199050000Y-177850000D01*
X197960000Y-178640000D02*
X198750000Y-177850000D01*
%TO.N,Net-(U72-CLKO)*%
X192260000Y-186610000D02*
X195240000Y-189590000D01*
X195240000Y-189590000D02*
X199050000Y-189590000D01*
%TO.N,Net-(U73-CLKI)*%
X198570000Y-177200000D02*
X199050000Y-177200000D01*
X197970000Y-177800000D02*
X198570000Y-177200000D01*
%TO.N,Net-(U72-RI)*%
X194950000Y-190240000D02*
X199050000Y-190240000D01*
X192280000Y-187570000D02*
X194950000Y-190240000D01*
%TO.N,Net-(U73-RO)*%
X197970000Y-176810000D02*
X198230000Y-176550000D01*
X198954000Y-176646000D02*
X199050000Y-176550000D01*
X198230000Y-176550000D02*
X199050000Y-176550000D01*
%TO.N,Net-(U73-BI)*%
X198980000Y-175970000D02*
X199050000Y-175900000D01*
X197960000Y-175970000D02*
X198980000Y-175970000D01*
%TO.N,Net-(U72-BO)*%
X194680000Y-190890000D02*
X199050000Y-190890000D01*
X192310000Y-188520000D02*
X194680000Y-190890000D01*
%TO.N,Net-(U73-NRSTI)*%
X198020000Y-175150000D02*
X198950000Y-175150000D01*
X198950000Y-175150000D02*
X199050000Y-175250000D01*
%TO.N,Net-(U72-NRSTO)*%
X192310000Y-189450000D02*
X194400000Y-191540000D01*
X194400000Y-191540000D02*
X199050000Y-191540000D01*
%TO.N,/stack4/RO*%
X143570000Y-186680000D02*
X143380000Y-186870000D01*
X143380000Y-186870000D02*
X142460000Y-186870000D01*
%TO.N,/stack4/CLKI*%
X143610000Y-185800000D02*
X143190000Y-186220000D01*
X143190000Y-186220000D02*
X142460000Y-186220000D01*
%TO.N,/stack4/CI*%
X143452893Y-184820000D02*
X143170000Y-185102893D01*
X143610000Y-184820000D02*
X143452893Y-184820000D01*
X143170000Y-185102893D02*
X143170000Y-185383474D01*
X142983474Y-185570000D02*
X142460000Y-185570000D01*
X143170000Y-185383474D02*
X142983474Y-185570000D01*
%TO.N,Net-(U74-NRSTO)*%
X195250000Y-174630000D02*
X195250000Y-172756104D01*
X198150000Y-164170000D02*
X199050000Y-164170000D01*
X197730000Y-170276104D02*
X197730000Y-164590000D01*
X197730000Y-164590000D02*
X198150000Y-164170000D01*
X195250000Y-172756104D02*
X197730000Y-170276104D01*
%TO.N,Net-(U74-BO)*%
X194700000Y-172879578D02*
X197410000Y-170169578D01*
X194700000Y-175080000D02*
X194700000Y-172879578D01*
X198100000Y-163520000D02*
X199050000Y-163520000D01*
X197410000Y-170169578D02*
X197410000Y-164210000D01*
X195250000Y-175630000D02*
X194700000Y-175080000D01*
X197410000Y-164210000D02*
X198100000Y-163520000D01*
%TO.N,Net-(U74-RI)*%
X194398400Y-175718400D02*
X194398400Y-172754652D01*
X195250000Y-176570000D02*
X194398400Y-175718400D01*
X194398400Y-172754652D02*
X197093200Y-170059852D01*
X197093200Y-170059852D02*
X197093200Y-163796800D01*
X198020000Y-162870000D02*
X199050000Y-162870000D01*
X197093200Y-163796800D02*
X198020000Y-162870000D01*
%TO.N,Net-(U74-CLKO)*%
X196614927Y-170111600D02*
X196791600Y-169934927D01*
X196614926Y-170111600D02*
X196614927Y-170111600D01*
X195270000Y-177520000D02*
X194096800Y-176346800D01*
X197690000Y-162220000D02*
X199050000Y-162220000D01*
X196791600Y-163118400D02*
X197690000Y-162220000D01*
X194096800Y-172629726D02*
X196614926Y-170111600D01*
X194096800Y-176346800D02*
X194096800Y-172629726D01*
X196791600Y-169934927D02*
X196791600Y-163118400D01*
%TO.N,Net-(U74-CO)*%
X195230000Y-178380000D02*
X193795200Y-176945200D01*
X193795200Y-176945200D02*
X193795200Y-172504800D01*
X197400000Y-161570000D02*
X199050000Y-161570000D01*
X193795200Y-172504800D02*
X196490000Y-169810000D01*
X196490000Y-162480000D02*
X197400000Y-161570000D01*
X196490000Y-169810000D02*
X196490000Y-162480000D01*
%TO.N,/Data/SCL*%
X230613474Y-108840000D02*
X225932893Y-108840000D01*
X230200000Y-179200000D02*
X230200000Y-165340000D01*
X205500000Y-100150000D02*
X205500000Y-103300000D01*
X213510000Y-105060000D02*
X213800000Y-104770000D01*
X237088400Y-115314926D02*
X230613474Y-108840000D01*
X232586526Y-180000000D02*
X231000000Y-180000000D01*
X233245000Y-178000000D02*
X233245000Y-179341526D01*
X213800000Y-104770000D02*
X213800000Y-103815000D01*
X205500000Y-103300000D02*
X205890000Y-103690000D01*
X231000000Y-180000000D02*
X230200000Y-179200000D01*
X156000549Y-98878660D02*
X156000549Y-97254849D01*
X205793263Y-99856737D02*
X205500000Y-100150000D01*
X233245000Y-179341526D02*
X232586526Y-180000000D01*
X225932893Y-108840000D02*
X225640000Y-108547107D01*
X225640000Y-108020000D02*
X226090000Y-107570000D01*
X230200000Y-165340000D02*
X237088400Y-158451600D01*
X225640000Y-108547107D02*
X225640000Y-108020000D01*
X155350000Y-99529209D02*
X156000549Y-98878660D01*
X205890000Y-103690000D02*
X206330000Y-103690000D01*
X155350000Y-100000000D02*
X155350000Y-99529209D01*
X237088400Y-158451600D02*
X237088400Y-115314926D01*
%TO.N,/Data/SDA*%
X230540000Y-108340000D02*
X226140000Y-108340000D01*
X156000549Y-94089451D02*
X156000549Y-91529849D01*
X232595000Y-178000000D02*
X232595000Y-179205000D01*
X155101600Y-99351082D02*
X155101600Y-94988400D01*
X232300000Y-179500000D02*
X231200000Y-179500000D01*
X154566600Y-99886082D02*
X155101600Y-99351082D01*
X213400000Y-103815000D02*
X213400000Y-104447893D01*
X213400000Y-104447893D02*
X212827893Y-105020000D01*
X231200000Y-179500000D02*
X230600000Y-178900000D01*
X230600000Y-178900000D02*
X230600000Y-165410000D01*
X212827893Y-105020000D02*
X212230000Y-105020000D01*
X206345000Y-101225000D02*
X206345000Y-102515000D01*
X155101600Y-94988400D02*
X156000549Y-94089451D01*
X232595000Y-179205000D02*
X232300000Y-179500000D01*
X237390000Y-115190000D02*
X230540000Y-108340000D01*
X230600000Y-165410000D02*
X237390000Y-158620000D01*
X206345000Y-102515000D02*
X206330000Y-102530000D01*
X212230000Y-105020000D02*
X211650000Y-105600000D01*
X237390000Y-158620000D02*
X237390000Y-115190000D01*
X154566600Y-100053400D02*
X154566600Y-99886082D01*
%TO.N,/Data/QSPI_SD1*%
X205650200Y-95241245D02*
X205650200Y-95167693D01*
X213000000Y-97855509D02*
X213023119Y-97878628D01*
X213000000Y-96940000D02*
X213000000Y-97855509D01*
X206092893Y-94725000D02*
X207380000Y-94725000D01*
X205650200Y-95167693D02*
X206092893Y-94725000D01*
%TO.N,/Data/QSPI_SD0*%
X213775000Y-96060000D02*
X211130000Y-96060000D01*
X211130000Y-96060000D02*
X210790000Y-95720000D01*
X210785000Y-95725000D02*
X210220000Y-95725000D01*
X213800000Y-96940000D02*
X213800000Y-96085000D01*
X210790000Y-95720000D02*
X210785000Y-95725000D01*
X213800000Y-96085000D02*
X213775000Y-96060000D01*
%TO.N,/Data/QSPI_SD3*%
X214024854Y-95456800D02*
X211536800Y-95456800D01*
X211536800Y-95456800D02*
X210805000Y-94725000D01*
X214600000Y-96940000D02*
X214600000Y-96031946D01*
X210805000Y-94725000D02*
X210220000Y-94725000D01*
X214600000Y-96031946D02*
X214024854Y-95456800D01*
%TO.N,/Data/QSPI_SD2*%
X213400000Y-97545000D02*
X213670000Y-97815000D01*
X206300000Y-95225000D02*
X207380000Y-95225000D01*
X213400000Y-96940000D02*
X213400000Y-97545000D01*
%TO.N,/Data/QSPI_SCLK*%
X211348400Y-95758400D02*
X210815000Y-95225000D01*
X214200000Y-96940000D02*
X214200000Y-96058473D01*
X213899927Y-95758400D02*
X211348400Y-95758400D01*
X210815000Y-95225000D02*
X210220000Y-95225000D01*
X214200000Y-96058473D02*
X213899927Y-95758400D01*
%TO.N,/RST*%
X232650000Y-143290000D02*
X232650000Y-148710000D01*
X236300000Y-141150000D02*
X234790000Y-141150000D01*
X211750000Y-102990000D02*
X211762500Y-102977500D01*
X210580000Y-102990000D02*
X211750000Y-102990000D01*
X234790000Y-141150000D02*
X232650000Y-143290000D01*
%TO.N,/RX*%
X233950000Y-143450000D02*
X233950000Y-148710000D01*
X234940000Y-142460000D02*
X233950000Y-143450000D01*
X209430000Y-103220000D02*
X210472500Y-102177500D01*
X210472500Y-102177500D02*
X211762500Y-102177500D01*
X235250000Y-142460000D02*
X234940000Y-142460000D01*
%TO.N,/TX*%
X209420000Y-102410000D02*
X210052500Y-101777500D01*
X235770000Y-141770000D02*
X234810000Y-141770000D01*
X233300000Y-143280000D02*
X233300000Y-148710000D01*
X210052500Y-101777500D02*
X211762500Y-101777500D01*
X234810000Y-141770000D02*
X233300000Y-143280000D01*
%TO.N,/stack6/CI*%
X189770000Y-185600000D02*
X185500000Y-185600000D01*
X185540000Y-185640000D02*
X185500000Y-185600000D01*
X189800000Y-185630000D02*
X189770000Y-185600000D01*
%TO.N,/stack6/CLKI*%
X189820000Y-186590000D02*
X189480000Y-186250000D01*
X189480000Y-186250000D02*
X185500000Y-186250000D01*
%TO.N,/stack6/RO*%
X185500000Y-186900000D02*
X189160000Y-186900000D01*
X189160000Y-186900000D02*
X189800000Y-187540000D01*
%TO.N,/stack6/BI*%
X188850000Y-187550000D02*
X189800000Y-188500000D01*
X185500000Y-187550000D02*
X188850000Y-187550000D01*
X189800000Y-188300000D02*
X189800000Y-188500000D01*
%TO.N,/stack6/NRSTI*%
X189740000Y-189480000D02*
X189770000Y-189480000D01*
X185500000Y-188200000D02*
X188490000Y-188200000D01*
X188490000Y-188200000D02*
X189770000Y-189480000D01*
%TO.N,Net-(U45-NRSTI)*%
X143300000Y-160800000D02*
X142460000Y-160800000D01*
X143440000Y-160940000D02*
X143300000Y-160800000D01*
X146600000Y-172760000D02*
X146600000Y-172479418D01*
X146600000Y-172479418D02*
X143440000Y-169319418D01*
X143440000Y-169319418D02*
X143440000Y-160940000D01*
%TO.N,Net-(U45-RO)*%
X146640000Y-174770000D02*
X147401600Y-174008400D01*
X144120000Y-169146365D02*
X144120000Y-160310000D01*
X147401600Y-172427966D02*
X146932034Y-171958399D01*
X147401600Y-174008400D02*
X147401600Y-172427966D01*
X146932034Y-171958399D02*
X144120000Y-169146365D01*
X144120000Y-160310000D02*
X143310000Y-159500000D01*
X143310000Y-159500000D02*
X142460000Y-159500000D01*
%TO.N,Net-(U45-CLKI)*%
X146650000Y-175780000D02*
X147703200Y-174726800D01*
X144421600Y-159618126D02*
X143653474Y-158850000D01*
X143653474Y-158850000D02*
X142460000Y-158850000D01*
X144421600Y-169021439D02*
X144421600Y-159618126D01*
X147703200Y-172303039D02*
X144421600Y-169021439D01*
X147703200Y-174726800D02*
X147703200Y-172303039D01*
%TO.N,Net-(U45-CI)*%
X143900000Y-158200000D02*
X142460000Y-158200000D01*
X146650000Y-176790000D02*
X148004800Y-175435200D01*
X148004800Y-172178112D02*
X144723200Y-168896512D01*
X148004800Y-175435200D02*
X148004800Y-172178112D01*
X144723200Y-159023200D02*
X143900000Y-158200000D01*
%TO.N,Net-(U54-NRSTI)*%
X164050000Y-191430000D02*
X165170000Y-191430000D01*
X165170000Y-191430000D02*
X165280000Y-191320000D01*
%TO.N,Net-(U54-BI)*%
X164050000Y-190780000D02*
X164980000Y-190780000D01*
X164980000Y-190780000D02*
X165260000Y-190500000D01*
%TO.N,Net-(U54-RO)*%
X164850000Y-190130000D02*
X165260000Y-189720000D01*
X164050000Y-190130000D02*
X164850000Y-190130000D01*
%TO.N,Net-(U54-CLKI)*%
X164700000Y-189480000D02*
X165230000Y-188950000D01*
X164050000Y-189480000D02*
X164700000Y-189480000D01*
%TO.N,Net-(U54-CI)*%
X164050000Y-188830000D02*
X164590000Y-188830000D01*
X164590000Y-188830000D02*
X165230000Y-188190000D01*
%TO.N,/stack4/BI*%
X143570000Y-187730000D02*
X143390000Y-187730000D01*
X143180000Y-187520000D02*
X142460000Y-187520000D01*
X143390000Y-187730000D02*
X143180000Y-187520000D01*
%TO.N,Net-(U63-NRSTI)*%
X185500000Y-160830000D02*
X186520000Y-160830000D01*
X186520000Y-160830000D02*
X186860000Y-161170000D01*
%TO.N,/stack5/NRSTI*%
X164540000Y-164080000D02*
X164070000Y-164080000D01*
X165170000Y-164710000D02*
X164540000Y-164080000D01*
%TO.N,Net-(U63-BI)*%
X185500000Y-160180000D02*
X186800000Y-160180000D01*
X186800000Y-160180000D02*
X186880000Y-160260000D01*
%TO.N,/stack5/BI*%
X165200000Y-163710000D02*
X164920000Y-163430000D01*
X164920000Y-163430000D02*
X164070000Y-163430000D01*
%TO.N,Net-(U63-RO)*%
X186730000Y-159530000D02*
X186860000Y-159400000D01*
X185500000Y-159530000D02*
X186730000Y-159530000D01*
%TO.N,/stack5/RO*%
X165190000Y-162700000D02*
X164150000Y-162700000D01*
X164150000Y-162700000D02*
X164070000Y-162780000D01*
%TO.N,Net-(U63-CLKI)*%
X186510000Y-158880000D02*
X186860000Y-158530000D01*
X185500000Y-158880000D02*
X186510000Y-158880000D01*
%TO.N,/stack5/CLKI*%
X165190000Y-161750000D02*
X164810000Y-162130000D01*
X164810000Y-162130000D02*
X164070000Y-162130000D01*
%TO.N,Net-(U63-CI)*%
X185500000Y-158230000D02*
X186320000Y-158230000D01*
X186320000Y-158230000D02*
X186880000Y-157670000D01*
%TO.N,/stack5/CI*%
X164640000Y-161480000D02*
X164070000Y-161480000D01*
X165200000Y-160920000D02*
X164640000Y-161480000D01*
X165200000Y-160720000D02*
X165200000Y-160920000D01*
%TO.N,Net-(U72-NRSTI)*%
X209960000Y-191540000D02*
X207110000Y-191540000D01*
X214940000Y-183060000D02*
X214940000Y-186560000D01*
%TO.N,Net-(U72-BI)*%
X209710000Y-190890000D02*
X207110000Y-190890000D01*
X213930000Y-186670000D02*
X209710000Y-190890000D01*
X213930000Y-183060000D02*
X213930000Y-186670000D01*
%TO.N,Net-(U72-RO)*%
X212920000Y-183060000D02*
X212920000Y-186680000D01*
X212920000Y-186680000D02*
X209360000Y-190240000D01*
X209360000Y-190240000D02*
X207110000Y-190240000D01*
%TO.N,Net-(U72-CLKI)*%
X211930000Y-183040000D02*
X211930000Y-186758474D01*
X209098474Y-189590000D02*
X207110000Y-189590000D01*
X211930000Y-186758474D02*
X209098474Y-189590000D01*
%TO.N,Net-(U72-CI)*%
X208760000Y-188940000D02*
X207110000Y-188940000D01*
X210910000Y-186790000D02*
X208760000Y-188940000D01*
X210910000Y-183040000D02*
X210910000Y-186790000D01*
%TO.N,/stack7/RST_N*%
X232600000Y-159300000D02*
X232550000Y-159300000D01*
X232550000Y-159300000D02*
X227620000Y-164230000D01*
X227620000Y-164230000D02*
X227400000Y-164230000D01*
X232640000Y-155860000D02*
X232640000Y-154445000D01*
X227400000Y-164230000D02*
X207170000Y-164230000D01*
X207170000Y-164230000D02*
X207110000Y-164170000D01*
X232640000Y-154445000D02*
X232650000Y-154435000D01*
%TO.N,/stack7/RO*%
X227400000Y-162850000D02*
X227756526Y-162850000D01*
X227756526Y-162850000D02*
X233950000Y-156656526D01*
X207130000Y-162850000D02*
X207110000Y-162870000D01*
X227400000Y-162850000D02*
X207130000Y-162850000D01*
X233950000Y-156656526D02*
X233950000Y-154435000D01*
%TO.N,/stack7/CLKI*%
X207110000Y-162220000D02*
X219670000Y-162220000D01*
X219670000Y-162220000D02*
X219680000Y-162210000D01*
%TO.N,/stack7/CI*%
X207110000Y-161570000D02*
X227430000Y-161570000D01*
X233300000Y-156000000D02*
X233300000Y-154435000D01*
X227730000Y-161570000D02*
X233300000Y-156000000D01*
X227430000Y-161570000D02*
X227730000Y-161570000D01*
D81*
%TO.N,/5V*%
X212580000Y-90110000D02*
X212580000Y-91740000D01*
X217390000Y-91810000D02*
X217390000Y-90120000D01*
X217390000Y-90120000D02*
X217380000Y-90110000D01*
D77*
X217400000Y-90130000D02*
X217380000Y-90110000D01*
D81*
X212580000Y-91740000D02*
X212560000Y-91760000D01*
D76*
%TO.N,/Data/PWR_EN*%
X203180000Y-98910000D02*
X203520000Y-98570000D01*
X211072500Y-98177500D02*
X211762500Y-98177500D01*
X203520000Y-98570000D02*
X210680000Y-98570000D01*
X210680000Y-98570000D02*
X211072500Y-98177500D01*
%TO.N,Net-(U27-GPIO26_ADC0)*%
X222080000Y-99620000D02*
X223320000Y-99620000D01*
D79*
%TO.N,/5V*%
X224630000Y-91130000D02*
X223950000Y-91810000D01*
X223950000Y-91810000D02*
X217390000Y-91810000D01*
%TD*%
%TA.AperFunction,Conductor*%
%TO.N,/3V6*%
G36*
X159281655Y-129614550D02*
G01*
X159348500Y-129634885D01*
X159393740Y-129688132D01*
X159404448Y-129739284D01*
X159375916Y-134523127D01*
X159355832Y-134590047D01*
X159302756Y-134635487D01*
X159252559Y-134646385D01*
X153703549Y-134675087D01*
X153636409Y-134655750D01*
X153590382Y-134603183D01*
X153578962Y-134547440D01*
X153579678Y-134523127D01*
X153722192Y-129682060D01*
X153743840Y-129615631D01*
X153797968Y-129571450D01*
X153847338Y-129561717D01*
X159281655Y-129614550D01*
G37*
%TD.AperFunction*%
%TD*%
%TA.AperFunction,Conductor*%
%TO.N,/Power/VIN_M*%
G36*
X200332189Y-100409917D02*
G01*
X200378155Y-100462537D01*
X200389567Y-100514930D01*
X200360424Y-108927422D01*
X200340508Y-108994392D01*
X200287545Y-109039964D01*
X200237425Y-109050988D01*
X193038840Y-109109052D01*
X192971644Y-109089909D01*
X192925465Y-109037476D01*
X192913840Y-108985116D01*
X192910055Y-100543557D01*
X192929710Y-100476510D01*
X192982493Y-100430732D01*
X193033555Y-100419504D01*
X200265071Y-100390501D01*
X200332189Y-100409917D01*
G37*
%TD.AperFunction*%
%TD*%
%TA.AperFunction,Conductor*%
%TO.N,/Power/LOOP2*%
G36*
X199865830Y-115924245D02*
G01*
X199912137Y-115976565D01*
X199923890Y-116029317D01*
X199920056Y-124199736D01*
X199900340Y-124266766D01*
X199847515Y-124312497D01*
X199799791Y-124323622D01*
X194737435Y-124476160D01*
X194669833Y-124458503D01*
X194622508Y-124407101D01*
X194609700Y-124352510D01*
X194590288Y-116082988D01*
X194609815Y-116015906D01*
X194662512Y-115970027D01*
X194712982Y-115958707D01*
X199798588Y-115905266D01*
X199865830Y-115924245D01*
G37*
%TD.AperFunction*%
%TD*%
%TA.AperFunction,Conductor*%
%TO.N,/3V6*%
G36*
X137285665Y-104314228D02*
G01*
X137331955Y-104366564D01*
X137343691Y-104419475D01*
X137299692Y-125908103D01*
X137279870Y-125975102D01*
X137226972Y-126020749D01*
X137175692Y-126031849D01*
X136461078Y-126031849D01*
X136461072Y-126031850D01*
X136401465Y-126038257D01*
X136266620Y-126088551D01*
X136266613Y-126088555D01*
X136151404Y-126174801D01*
X136151401Y-126174804D01*
X136065155Y-126290013D01*
X136065151Y-126290020D01*
X136014857Y-126424866D01*
X136008450Y-126484465D01*
X136008449Y-126484484D01*
X136008449Y-131863419D01*
X136008450Y-131863425D01*
X136014857Y-131923032D01*
X136065151Y-132057877D01*
X136065155Y-132057884D01*
X136151401Y-132173093D01*
X136151404Y-132173096D01*
X136266613Y-132259342D01*
X136266620Y-132259346D01*
X136401466Y-132309640D01*
X136401465Y-132309640D01*
X136408393Y-132310384D01*
X136461076Y-132316049D01*
X137162320Y-132316048D01*
X137229356Y-132335732D01*
X137275111Y-132388536D01*
X137286317Y-132440302D01*
X137236662Y-156691364D01*
X137216840Y-156758363D01*
X137163942Y-156804010D01*
X137111937Y-156815108D01*
X134099496Y-156797490D01*
X134032573Y-156777414D01*
X134012540Y-156761173D01*
X133890890Y-156639523D01*
X133890884Y-156639518D01*
X133747697Y-156549547D01*
X133747694Y-156549545D01*
X133588056Y-156493685D01*
X133420003Y-156474751D01*
X133419997Y-156474751D01*
X133251943Y-156493685D01*
X133092306Y-156549545D01*
X133075970Y-156559810D01*
X133008733Y-156578809D01*
X132944030Y-156559810D01*
X132927693Y-156549545D01*
X132927694Y-156549545D01*
X132768056Y-156493685D01*
X132600003Y-156474751D01*
X132599997Y-156474751D01*
X132431943Y-156493685D01*
X132272305Y-156549545D01*
X132272302Y-156549547D01*
X132129115Y-156639518D01*
X132020136Y-156748497D01*
X131958813Y-156781981D01*
X131931730Y-156784813D01*
X127439680Y-156758545D01*
X127372757Y-156738469D01*
X127327311Y-156685398D01*
X127317185Y-156648430D01*
X127306314Y-156551944D01*
X127250454Y-156392305D01*
X127250452Y-156392302D01*
X127160481Y-156249115D01*
X127160476Y-156249109D01*
X127040890Y-156129523D01*
X127040884Y-156129518D01*
X126897697Y-156039547D01*
X126897694Y-156039545D01*
X126738056Y-155983685D01*
X126570003Y-155964751D01*
X126569997Y-155964751D01*
X126401943Y-155983685D01*
X126242305Y-156039545D01*
X126242302Y-156039547D01*
X126099115Y-156129518D01*
X126099109Y-156129523D01*
X125979523Y-156249109D01*
X125979518Y-156249115D01*
X125889547Y-156392302D01*
X125889545Y-156392305D01*
X125833686Y-156551943D01*
X125823960Y-156638258D01*
X125796893Y-156702671D01*
X125739298Y-156742226D01*
X125700015Y-156748371D01*
X125428735Y-156746785D01*
X125361812Y-156726709D01*
X125316366Y-156673638D01*
X125305460Y-156622832D01*
X125290017Y-110573566D01*
X125309679Y-110506524D01*
X125328988Y-110483273D01*
X131804713Y-104383239D01*
X131867008Y-104351601D01*
X131888468Y-104349506D01*
X137218428Y-104295227D01*
X137285665Y-104314228D01*
G37*
%TD.AperFunction*%
%TD*%
%TA.AperFunction,Conductor*%
%TO.N,/3V6*%
G36*
X229378420Y-131115470D02*
G01*
X229445452Y-131135180D01*
X229491187Y-131188001D01*
X229502373Y-131239495D01*
X229500025Y-142736264D01*
X229480327Y-142803300D01*
X229427513Y-142849044D01*
X229376265Y-142860239D01*
X217325765Y-142883548D01*
X217258687Y-142863993D01*
X217212830Y-142811278D01*
X217201527Y-142760190D01*
X217142000Y-131235529D01*
X217161338Y-131168390D01*
X217213905Y-131122363D01*
X217266044Y-131110890D01*
X229378420Y-131115470D01*
G37*
%TD.AperFunction*%
%TD*%
%TA.AperFunction,Conductor*%
%TO.N,/3V6*%
G36*
X203241918Y-126789882D02*
G01*
X203287853Y-126842530D01*
X203299233Y-126895185D01*
X203270180Y-131640146D01*
X203250085Y-131707064D01*
X203197002Y-131752495D01*
X203144357Y-131763374D01*
X197601179Y-131681783D01*
X197534437Y-131661113D01*
X197489464Y-131607642D01*
X197479008Y-131558813D01*
X197441019Y-126914586D01*
X197460155Y-126847389D01*
X197512583Y-126801204D01*
X197564588Y-126789574D01*
X203174812Y-126770427D01*
X203241918Y-126789882D01*
G37*
%TD.AperFunction*%
%TD*%
%TA.AperFunction,Conductor*%
%TO.N,/Power/VIN*%
G36*
X171641024Y-82830875D02*
G01*
X171686816Y-82883647D01*
X171698057Y-82934884D01*
X171733074Y-95235570D01*
X171713581Y-95302665D01*
X171660907Y-95348570D01*
X171609258Y-95359923D01*
X159185767Y-95378217D01*
X159118698Y-95358631D01*
X159072866Y-95305894D01*
X159061584Y-95254233D01*
X159061582Y-95235570D01*
X159060015Y-82943926D01*
X159079691Y-82876887D01*
X159132489Y-82831125D01*
X159183926Y-82819913D01*
X171573973Y-82811237D01*
X171641024Y-82830875D01*
G37*
%TD.AperFunction*%
%TD*%
%TA.AperFunction,Conductor*%
%TO.N,GND*%
G36*
X192292497Y-82892695D02*
G01*
X192359328Y-82913070D01*
X192404536Y-82966343D01*
X192415209Y-83015401D01*
X192592033Y-100054589D01*
X192573045Y-100121829D01*
X192561790Y-100137036D01*
X192504338Y-100203399D01*
X192444621Y-100334311D01*
X192444620Y-100334315D01*
X192425611Y-100399160D01*
X192425102Y-100400784D01*
X192424968Y-100401352D01*
X192404554Y-100543786D01*
X192408340Y-108985346D01*
X192420354Y-109094667D01*
X192420358Y-109094691D01*
X192431979Y-109147036D01*
X192431982Y-109147045D01*
X192467353Y-109251168D01*
X192467356Y-109251174D01*
X192546113Y-109371574D01*
X192546119Y-109371582D01*
X192589920Y-109421315D01*
X192591833Y-109423618D01*
X192647166Y-109470788D01*
X192685413Y-109529259D01*
X192690715Y-109563866D01*
X192867679Y-126616418D01*
X192870000Y-126840000D01*
X195232051Y-131550000D01*
X196220000Y-133520000D01*
X196220000Y-133520001D01*
X206246396Y-140562350D01*
X206289942Y-140616990D01*
X206299114Y-140665497D01*
X206201061Y-147921485D01*
X206180472Y-147988252D01*
X206128568Y-148032610D01*
X192485422Y-154261002D01*
X192416262Y-154270936D01*
X192352711Y-154241903D01*
X192339307Y-154228346D01*
X173129999Y-131549999D01*
X173130000Y-131549999D01*
X162924394Y-131510481D01*
X162857431Y-131490537D01*
X162811881Y-131437556D01*
X162800877Y-131385608D01*
X162832926Y-126839998D01*
X162919140Y-114611974D01*
X162939296Y-114545079D01*
X162992421Y-114499697D01*
X163041973Y-114488857D01*
X175581763Y-114371355D01*
X175568141Y-94560000D01*
X176874659Y-94560000D01*
X176893975Y-94756129D01*
X176951188Y-94944733D01*
X177044086Y-95118532D01*
X177044090Y-95118539D01*
X177169116Y-95270883D01*
X177321460Y-95395909D01*
X177321467Y-95395913D01*
X177495266Y-95488811D01*
X177495269Y-95488811D01*
X177495273Y-95488814D01*
X177683868Y-95546024D01*
X177880000Y-95565341D01*
X178076132Y-95546024D01*
X178264727Y-95488814D01*
X178438538Y-95395910D01*
X178590883Y-95270883D01*
X178715910Y-95118538D01*
X178792633Y-94975000D01*
X178808811Y-94944733D01*
X178808811Y-94944732D01*
X178808814Y-94944727D01*
X178866024Y-94756132D01*
X178885341Y-94560000D01*
X178866024Y-94363868D01*
X178808814Y-94175273D01*
X178808811Y-94175269D01*
X178808811Y-94175266D01*
X178715913Y-94001467D01*
X178715909Y-94001460D01*
X178590883Y-93849116D01*
X178438539Y-93724090D01*
X178438532Y-93724086D01*
X178264733Y-93631188D01*
X178264727Y-93631186D01*
X178076132Y-93573976D01*
X178076129Y-93573975D01*
X177880000Y-93554659D01*
X177683870Y-93573975D01*
X177495266Y-93631188D01*
X177321467Y-93724086D01*
X177321460Y-93724090D01*
X177169116Y-93849116D01*
X177044090Y-94001460D01*
X177044086Y-94001467D01*
X176951188Y-94175266D01*
X176893975Y-94363870D01*
X176874659Y-94560000D01*
X175568141Y-94560000D01*
X175560086Y-82845370D01*
X175579724Y-82778318D01*
X175632497Y-82732527D01*
X175685361Y-82721293D01*
X192292497Y-82892695D01*
G37*
%TD.AperFunction*%
%TD*%
%TA.AperFunction,Conductor*%
%TO.N,/3V6*%
G36*
X171978985Y-132215931D02*
G01*
X172045829Y-132236263D01*
X172091071Y-132289507D01*
X172101765Y-132337815D01*
X172197854Y-137984243D01*
X172179313Y-138051608D01*
X172127295Y-138098255D01*
X172073930Y-138110353D01*
X167674011Y-138112427D01*
X167606963Y-138092774D01*
X167561183Y-138039992D01*
X167549953Y-137988430D01*
X167549999Y-132298274D01*
X167569684Y-132231236D01*
X167622488Y-132185481D01*
X167675196Y-132174282D01*
X171978985Y-132215931D01*
G37*
%TD.AperFunction*%
%TD*%
%TA.AperFunction,Conductor*%
%TO.N,/Power/VIN_M*%
G36*
X174655931Y-96352829D02*
G01*
X174701710Y-96405612D01*
X174712940Y-96457353D01*
X174690175Y-112386862D01*
X174670395Y-112453873D01*
X174617525Y-112499553D01*
X174566863Y-112510683D01*
X162153292Y-112579537D01*
X162086144Y-112560225D01*
X162040097Y-112507675D01*
X162038074Y-112503067D01*
X160630000Y-109110001D01*
X160630000Y-109110000D01*
X156721156Y-104648390D01*
X156691784Y-104584994D01*
X156700175Y-104518477D01*
X159057973Y-98930000D01*
X159064241Y-96464080D01*
X159084096Y-96397094D01*
X159137016Y-96351473D01*
X159188182Y-96340398D01*
X174588882Y-96333176D01*
X174655931Y-96352829D01*
G37*
%TD.AperFunction*%
%TD*%
%TA.AperFunction,Conductor*%
%TO.N,/Power/LOOP1*%
G36*
X158735153Y-115964098D02*
G01*
X158781324Y-116016539D01*
X158792936Y-116069936D01*
X158720986Y-125027189D01*
X158700764Y-125094068D01*
X158647594Y-125139397D01*
X158597185Y-125150193D01*
X152495474Y-125159802D01*
X152428404Y-125140223D01*
X152382566Y-125087491D01*
X152371286Y-125034531D01*
X152371361Y-125027189D01*
X152462701Y-116115708D01*
X152483070Y-116048878D01*
X152536340Y-116003667D01*
X152585713Y-115992987D01*
X158667961Y-115944944D01*
X158735153Y-115964098D01*
G37*
%TD.AperFunction*%
%TD*%
%TA.AperFunction,Conductor*%
%TO.N,/Power/SW2*%
G36*
X209653976Y-104589749D02*
G01*
X209699860Y-104642440D01*
X209706187Y-104659354D01*
X215765120Y-125333351D01*
X215770122Y-125367347D01*
X215863068Y-138489699D01*
X215843859Y-138556876D01*
X215791380Y-138603004D01*
X215739696Y-138614575D01*
X204864625Y-138669372D01*
X204797487Y-138650026D01*
X204751467Y-138597453D01*
X204740000Y-138545374D01*
X204740000Y-126559999D01*
X202010000Y-114940000D01*
X196895349Y-114934122D01*
X196828333Y-114914360D01*
X196782639Y-114861504D01*
X196778452Y-114851080D01*
X196770271Y-114827700D01*
X196764270Y-114771374D01*
X196907821Y-113622968D01*
X196935668Y-113558889D01*
X196952100Y-113542577D01*
X201540000Y-109770000D01*
X201524513Y-105758926D01*
X201543938Y-105691812D01*
X201596565Y-105645853D01*
X201648508Y-105634448D01*
X202446825Y-105634448D01*
X202506436Y-105628040D01*
X202641284Y-105577745D01*
X202756499Y-105491495D01*
X202842749Y-105376280D01*
X202893044Y-105241432D01*
X202899453Y-105181822D01*
X202899452Y-104710313D01*
X202919136Y-104643275D01*
X202971940Y-104597520D01*
X203023139Y-104586315D01*
X209586888Y-104570228D01*
X209653976Y-104589749D01*
G37*
%TD.AperFunction*%
%TD*%
%TA.AperFunction,Conductor*%
%TO.N,/Power/SW1*%
G36*
X155383203Y-104280027D02*
G01*
X155429276Y-104332554D01*
X155440792Y-104383954D01*
X155463249Y-107898657D01*
X155443994Y-107965821D01*
X155391483Y-108011912D01*
X155339252Y-108023449D01*
X154501074Y-108023449D01*
X154501068Y-108023450D01*
X154441461Y-108029857D01*
X154306616Y-108080151D01*
X154306609Y-108080155D01*
X154191400Y-108166401D01*
X154191397Y-108166404D01*
X154105151Y-108281613D01*
X154105147Y-108281620D01*
X154076208Y-108359212D01*
X154054854Y-108416466D01*
X154048445Y-108476076D01*
X154048445Y-108476083D01*
X154048445Y-108476084D01*
X154048445Y-109081819D01*
X154048446Y-109081825D01*
X154054853Y-109141432D01*
X154105147Y-109276277D01*
X154105151Y-109276284D01*
X154191397Y-109391493D01*
X154191400Y-109391496D01*
X154306609Y-109477742D01*
X154306616Y-109477746D01*
X154441462Y-109528040D01*
X154441461Y-109528040D01*
X154448389Y-109528784D01*
X154501072Y-109534449D01*
X155242535Y-109534448D01*
X155309574Y-109554132D01*
X155355329Y-109606936D01*
X155365755Y-109672331D01*
X155354751Y-109769996D01*
X155354751Y-109770002D01*
X155373685Y-109938056D01*
X155429545Y-110097692D01*
X155459014Y-110144592D01*
X155478017Y-110209772D01*
X155479999Y-110519999D01*
X155479999Y-110520000D01*
X155530977Y-110520437D01*
X160017066Y-110558944D01*
X160083932Y-110579203D01*
X160129232Y-110632398D01*
X160140000Y-110682939D01*
X160140000Y-114616276D01*
X160120315Y-114683315D01*
X160067511Y-114729070D01*
X160016277Y-114740276D01*
X149447621Y-114763893D01*
X149380538Y-114744358D01*
X149378688Y-114743152D01*
X142314642Y-110046331D01*
X142269715Y-109992821D01*
X142259305Y-109944387D01*
X142201318Y-104464556D01*
X142220292Y-104397313D01*
X142272609Y-104351002D01*
X142324560Y-104339247D01*
X155316049Y-104260748D01*
X155383203Y-104280027D01*
G37*
%TD.AperFunction*%
%TD*%
%TA.AperFunction,Conductor*%
%TO.N,GND*%
G36*
X211139756Y-88754494D02*
G01*
X211483066Y-89068654D01*
X211519127Y-89128037D01*
X211553719Y-89257135D01*
X211629485Y-89388365D01*
X211736635Y-89495515D01*
X211867865Y-89571281D01*
X211871164Y-89572165D01*
X211873636Y-89573672D01*
X211875377Y-89574393D01*
X211875264Y-89574664D01*
X211930826Y-89608528D01*
X211961357Y-89671374D01*
X211955394Y-89734905D01*
X211644532Y-90576509D01*
X211602838Y-90632576D01*
X211537452Y-90657200D01*
X211511270Y-90656382D01*
X210859769Y-90566519D01*
X210796048Y-90537859D01*
X210757937Y-90479298D01*
X210753486Y-90429851D01*
X210849476Y-89574664D01*
X210932820Y-88832140D01*
X210959859Y-88767717D01*
X211017438Y-88728138D01*
X211087274Y-88725971D01*
X211139756Y-88754494D01*
G37*
%TD.AperFunction*%
%TD*%
%TA.AperFunction,Conductor*%
%TO.N,GND*%
G36*
X218932399Y-88733292D02*
G01*
X218986597Y-88777387D01*
X219006823Y-88827846D01*
X219268957Y-90449798D01*
X219260220Y-90519120D01*
X219215393Y-90572713D01*
X219158749Y-90592980D01*
X218473325Y-90660769D01*
X218404674Y-90647778D01*
X218353944Y-90599734D01*
X218345708Y-90582712D01*
X218320725Y-90519120D01*
X218012806Y-89735326D01*
X218006615Y-89665732D01*
X218039032Y-89603838D01*
X218085488Y-89576481D01*
X218084623Y-89574393D01*
X218092129Y-89571282D01*
X218092135Y-89571281D01*
X218223365Y-89495515D01*
X218330515Y-89388365D01*
X218406281Y-89257135D01*
X218445500Y-89110766D01*
X218445500Y-89110763D01*
X218445812Y-89109599D01*
X218481517Y-89050543D01*
X218777675Y-88777387D01*
X218800342Y-88756480D01*
X218862966Y-88725499D01*
X218932399Y-88733292D01*
G37*
%TD.AperFunction*%
%TD*%
M02*
