%TF.GenerationSoftware,KiCad,Pcbnew,9.0.0*%
%TF.CreationDate,2025-06-11T14:13:21-04:00*%
%TF.ProjectId,emberone,656d6265-726f-46e6-952e-6b696361645f,rev?*%
%TF.SameCoordinates,Original*%
%TF.FileFunction,Copper,L3,Inr*%
%TF.FilePolarity,Positive*%
%FSLAX46Y46*%
G04 Gerber Fmt 4.6, Leading zero omitted, Abs format (unit mm)*
G04 Created by KiCad (PCBNEW 9.0.0) date 2025-06-11 14:13:21*
%MOMM*%
%LPD*%
G01*
G04 APERTURE LIST*
%TA.AperFunction,ComponentPad*%
%ADD10C,0.540000*%
%TD*%
%TA.AperFunction,HeatsinkPad*%
%ADD11C,0.540000*%
%TD*%
%TA.AperFunction,ComponentPad*%
%ADD12C,6.400000*%
%TD*%
%TA.AperFunction,ComponentPad*%
%ADD13C,2.850000*%
%TD*%
%TA.AperFunction,ComponentPad*%
%ADD14O,1.000000X2.100000*%
%TD*%
%TA.AperFunction,ComponentPad*%
%ADD15O,1.000000X1.800000*%
%TD*%
%TA.AperFunction,ComponentPad*%
%ADD16C,1.348000*%
%TD*%
%TA.AperFunction,ViaPad*%
%ADD17C,0.500000*%
%TD*%
%TA.AperFunction,ViaPad*%
%ADD18C,0.800000*%
%TD*%
%TA.AperFunction,ViaPad*%
%ADD19C,1.000000*%
%TD*%
%TA.AperFunction,Conductor*%
%ADD20C,0.508000*%
%TD*%
%TA.AperFunction,Conductor*%
%ADD21C,1.000000*%
%TD*%
%TA.AperFunction,Conductor*%
%ADD22C,0.200000*%
%TD*%
%TA.AperFunction,Conductor*%
%ADD23C,1.500000*%
%TD*%
G04 APERTURE END LIST*
D10*
%TO.N,/stack5/GND1*%
%TO.C,U55*%
X162235712Y-174725000D03*
X162230000Y-172755000D03*
X161130000Y-171735000D03*
X161122856Y-174725000D03*
X161117144Y-172755000D03*
X161100000Y-175765000D03*
X161100000Y-173805000D03*
X159945712Y-174725000D03*
X159940000Y-172755000D03*
X158900000Y-172775000D03*
X158890000Y-171745000D03*
D11*
X158880000Y-175765000D03*
D10*
X158880000Y-173825000D03*
X158878572Y-174725000D03*
X157685712Y-174725000D03*
X157680000Y-172755000D03*
%TD*%
D12*
%TO.N,unconnected-(H6-Pad1)*%
%TO.C,H6*%
X192930000Y-181770000D03*
%TD*%
D10*
%TO.N,/stack6/GND2*%
%TO.C,U65*%
X179254288Y-188635000D03*
X179260000Y-190605000D03*
X180360000Y-191625000D03*
X180367144Y-188635000D03*
X180372856Y-190605000D03*
X180390000Y-187595000D03*
X180390000Y-189555000D03*
X181544288Y-188635000D03*
X181550000Y-190605000D03*
X182590000Y-190585000D03*
X182600000Y-191615000D03*
D11*
X182610000Y-187595000D03*
D10*
X182610000Y-189535000D03*
X182611428Y-188635000D03*
X183804288Y-188635000D03*
X183810000Y-190605000D03*
%TD*%
%TO.N,/stack4/GND2*%
%TO.C,U47*%
X136214288Y-188605000D03*
X136220000Y-190575000D03*
X137320000Y-191595000D03*
X137327144Y-188605000D03*
X137332856Y-190575000D03*
X137350000Y-187565000D03*
X137350000Y-189525000D03*
X138504288Y-188605000D03*
X138510000Y-190575000D03*
X139550000Y-190555000D03*
X139560000Y-191585000D03*
D11*
X139570000Y-187565000D03*
D10*
X139570000Y-189505000D03*
X139571428Y-188605000D03*
X140764288Y-188605000D03*
X140770000Y-190575000D03*
%TD*%
D12*
%TO.N,unconnected-(H8-Pad1)*%
%TO.C,H8*%
X170930000Y-181770000D03*
%TD*%
D10*
%TO.N,GND*%
%TO.C,U74*%
X205295712Y-161135000D03*
X205290000Y-159165000D03*
X204190000Y-158145000D03*
X204182856Y-161135000D03*
X204177144Y-159165000D03*
X204160000Y-162175000D03*
X204160000Y-160215000D03*
X203005712Y-161135000D03*
X203000000Y-159165000D03*
X201960000Y-159185000D03*
X201950000Y-158155000D03*
D11*
X201940000Y-162175000D03*
D10*
X201940000Y-160235000D03*
X201938572Y-161135000D03*
X200745712Y-161135000D03*
X200740000Y-159165000D03*
%TD*%
%TO.N,/stack5/GND0*%
%TO.C,U54*%
X162235712Y-188395000D03*
X162230000Y-186425000D03*
X161130000Y-185405000D03*
X161122856Y-188395000D03*
X161117144Y-186425000D03*
X161100000Y-189435000D03*
X161100000Y-187475000D03*
X159945712Y-188395000D03*
X159940000Y-186425000D03*
X158900000Y-186445000D03*
X158890000Y-185415000D03*
D11*
X158880000Y-189435000D03*
D10*
X158880000Y-187495000D03*
X158878572Y-188395000D03*
X157685712Y-188395000D03*
X157680000Y-186425000D03*
%TD*%
%TO.N,/stack4/GND1*%
%TO.C,U46*%
X136214288Y-174925000D03*
X136220000Y-176895000D03*
X137320000Y-177915000D03*
X137327144Y-174925000D03*
X137332856Y-176895000D03*
X137350000Y-173885000D03*
X137350000Y-175845000D03*
X138504288Y-174925000D03*
X138510000Y-176895000D03*
X139550000Y-176875000D03*
X139560000Y-177905000D03*
D11*
X139570000Y-173885000D03*
D10*
X139570000Y-175825000D03*
X139571428Y-174925000D03*
X140764288Y-174925000D03*
X140770000Y-176895000D03*
%TD*%
%TO.N,/stack4/GND0*%
%TO.C,U45*%
X136214288Y-161235000D03*
X136220000Y-163205000D03*
X137320000Y-164225000D03*
X137327144Y-161235000D03*
X137332856Y-163205000D03*
X137350000Y-160195000D03*
X137350000Y-162155000D03*
X138504288Y-161235000D03*
X138510000Y-163205000D03*
X139550000Y-163185000D03*
X139560000Y-164215000D03*
D11*
X139570000Y-160195000D03*
D10*
X139570000Y-162135000D03*
X139571428Y-161235000D03*
X140764288Y-161235000D03*
X140770000Y-163205000D03*
%TD*%
D13*
%TO.N,/Power/VIN*%
%TO.C,J1*%
X170200000Y-83500000D03*
X162700000Y-83500000D03*
X170200000Y-88500000D03*
X162700000Y-88500000D03*
%TD*%
D12*
%TO.N,unconnected-(H5-Pad1)*%
%TO.C,H5*%
X192930000Y-167770000D03*
%TD*%
D10*
%TO.N,/stack7/GND0*%
%TO.C,U72*%
X205295712Y-188505000D03*
X205290000Y-186535000D03*
X204190000Y-185515000D03*
X204182856Y-188505000D03*
X204177144Y-186535000D03*
X204160000Y-189545000D03*
X204160000Y-187585000D03*
X203005712Y-188505000D03*
X203000000Y-186535000D03*
X201960000Y-186555000D03*
X201950000Y-185525000D03*
D11*
X201940000Y-189545000D03*
D10*
X201940000Y-187605000D03*
X201938572Y-188505000D03*
X200745712Y-188505000D03*
X200740000Y-186535000D03*
%TD*%
%TO.N,/stack6/GND0*%
%TO.C,U63*%
X179254288Y-161265000D03*
X179260000Y-163235000D03*
X180360000Y-164255000D03*
X180367144Y-161265000D03*
X180372856Y-163235000D03*
X180390000Y-160225000D03*
X180390000Y-162185000D03*
X181544288Y-161265000D03*
X181550000Y-163235000D03*
X182590000Y-163215000D03*
X182600000Y-164245000D03*
D11*
X182610000Y-160225000D03*
D10*
X182610000Y-162165000D03*
X182611428Y-161265000D03*
X183804288Y-161265000D03*
X183810000Y-163235000D03*
%TD*%
%TO.N,/stack6/GND1*%
%TO.C,U64*%
X179254288Y-174945000D03*
X179260000Y-176915000D03*
X180360000Y-177935000D03*
X180367144Y-174945000D03*
X180372856Y-176915000D03*
X180390000Y-173905000D03*
X180390000Y-175865000D03*
X181544288Y-174945000D03*
X181550000Y-176915000D03*
X182590000Y-176895000D03*
X182600000Y-177925000D03*
D11*
X182610000Y-173905000D03*
D10*
X182610000Y-175845000D03*
X182611428Y-174945000D03*
X183804288Y-174945000D03*
X183810000Y-176915000D03*
%TD*%
D14*
%TO.N,GND*%
%TO.C,J6*%
X226268700Y-85495000D03*
D15*
X226268700Y-81315000D03*
D14*
X217628700Y-85495000D03*
D15*
X217628700Y-81315000D03*
%TD*%
D16*
%TO.N,/3V6*%
%TO.C,J19*%
X155350000Y-133490000D03*
%TO.N,GND*%
X154080000Y-134760000D03*
X156620000Y-134760000D03*
X154080000Y-132220000D03*
X156620000Y-132220000D03*
%TD*%
D10*
%TO.N,/stack7/GND1*%
%TO.C,U73*%
X205295712Y-174815000D03*
X205290000Y-172845000D03*
X204190000Y-171825000D03*
X204182856Y-174815000D03*
X204177144Y-172845000D03*
X204160000Y-175855000D03*
X204160000Y-173895000D03*
X203005712Y-174815000D03*
X203000000Y-172845000D03*
X201960000Y-172865000D03*
X201950000Y-171835000D03*
D11*
X201940000Y-175855000D03*
D10*
X201940000Y-173915000D03*
X201938572Y-174815000D03*
X200745712Y-174815000D03*
X200740000Y-172845000D03*
%TD*%
%TO.N,/stack5/GND2*%
%TO.C,U56*%
X162255712Y-161045000D03*
X162250000Y-159075000D03*
X161150000Y-158055000D03*
X161142856Y-161045000D03*
X161137144Y-159075000D03*
X161120000Y-162085000D03*
X161120000Y-160125000D03*
X159965712Y-161045000D03*
X159960000Y-159075000D03*
X158920000Y-159095000D03*
X158910000Y-158065000D03*
D11*
X158900000Y-162085000D03*
D10*
X158900000Y-160145000D03*
X158898572Y-161045000D03*
X157705712Y-161045000D03*
X157700000Y-159075000D03*
%TD*%
D12*
%TO.N,unconnected-(H10-Pad1)*%
%TO.C,H10*%
X148930000Y-181770000D03*
%TD*%
%TO.N,unconnected-(H7-Pad1)*%
%TO.C,H7*%
X170930000Y-167770000D03*
%TD*%
D13*
%TO.N,GND*%
%TO.C,J2*%
X190766378Y-83500000D03*
X183266378Y-83500000D03*
X190766378Y-88500000D03*
X183266378Y-88500000D03*
%TD*%
D12*
%TO.N,unconnected-(H9-Pad1)*%
%TO.C,H9*%
X148930000Y-167770000D03*
%TD*%
D17*
%TO.N,GND*%
X133250000Y-102700000D03*
D18*
X163420000Y-122337500D03*
X200270000Y-145960000D03*
D17*
X128700000Y-106060000D03*
D18*
X162300000Y-119982500D03*
D17*
X212210000Y-83990000D03*
D18*
X198600000Y-120052500D03*
X205920000Y-147360000D03*
X163870000Y-128107500D03*
D17*
X230630000Y-96780000D03*
D18*
X163420000Y-118805000D03*
D17*
X144550000Y-98950000D03*
X132913949Y-93291049D03*
X135050000Y-92220000D03*
X228850000Y-145800000D03*
X205320000Y-83980000D03*
D18*
X166505000Y-110380000D03*
D17*
X221400807Y-96170000D03*
D18*
X163870000Y-126930000D03*
D17*
X218900807Y-104665000D03*
D18*
X201690000Y-144550000D03*
D17*
X229843700Y-93510000D03*
D18*
X154150000Y-88260000D03*
X174615000Y-110380000D03*
X201680000Y-147380000D03*
X168460000Y-123650000D03*
D17*
X215570807Y-93370000D03*
D18*
X194095000Y-144555000D03*
X157890000Y-91420000D03*
D17*
X121660000Y-118660000D03*
X123990000Y-153280000D03*
D18*
X169650000Y-126930000D03*
D17*
X222820807Y-96170000D03*
D18*
X162300000Y-121160000D03*
D17*
X132910000Y-94430000D03*
X237790000Y-149840000D03*
X124020000Y-111710000D03*
X138300000Y-104350000D03*
D18*
X169310000Y-115422500D03*
D17*
X140375605Y-96360000D03*
D18*
X204510000Y-147380000D03*
X197652500Y-110310000D03*
D17*
X198140000Y-164650000D03*
D18*
X168460000Y-121295000D03*
X162300000Y-123515000D03*
D17*
X121510000Y-152340000D03*
X132910000Y-92220000D03*
X182475000Y-141600000D03*
X141450000Y-101750000D03*
D18*
X198830000Y-110310000D03*
D17*
X235650000Y-138610000D03*
D18*
X157650000Y-100900000D03*
X192220000Y-123585000D03*
D17*
X123840000Y-108180000D03*
X135053949Y-93291049D03*
D18*
X131225000Y-100725000D03*
X236180000Y-90580000D03*
X195605000Y-147365000D03*
D17*
X121700000Y-156000000D03*
D18*
X192220000Y-120052500D03*
X163420000Y-123515000D03*
D17*
X215330807Y-94405000D03*
X222170807Y-103035000D03*
X121440000Y-145360000D03*
X143490000Y-89770000D03*
D18*
X172950000Y-129285000D03*
X192220000Y-122407500D03*
D17*
X121680000Y-125180000D03*
D18*
X163420000Y-119982500D03*
X193420000Y-120112500D03*
D17*
X226198700Y-91325000D03*
D18*
X132980000Y-101440000D03*
X205920000Y-145970000D03*
X203100000Y-147350000D03*
D17*
X223670807Y-104850000D03*
X140200000Y-100600000D03*
X220915382Y-99500000D03*
X154300000Y-101950000D03*
D18*
X123450000Y-92130000D03*
D17*
X138200000Y-102600000D03*
X142721041Y-98046399D03*
D18*
X236970000Y-87510000D03*
D17*
X226790000Y-103410000D03*
D18*
X203110000Y-144520000D03*
X124110000Y-96900000D03*
X172950000Y-126930000D03*
X198600000Y-118875000D03*
D17*
X222120807Y-96997500D03*
X232041360Y-146876335D03*
D18*
X198725000Y-144525000D03*
D17*
X133250000Y-104350000D03*
D18*
X200280000Y-144520000D03*
D17*
X225100807Y-105800000D03*
D18*
X194085000Y-145995000D03*
D17*
X221390807Y-97840000D03*
D18*
X192220000Y-118875000D03*
X204520000Y-144550000D03*
X162300000Y-122337500D03*
D17*
X134010000Y-92210000D03*
D18*
X193420000Y-122467500D03*
X192545000Y-144545000D03*
D17*
X220370807Y-105335000D03*
D18*
X169650000Y-129285000D03*
X236170000Y-91450000D03*
D17*
X135050000Y-94430000D03*
D18*
X168860000Y-110380000D03*
X169650000Y-128107500D03*
D17*
X227900000Y-93870000D03*
D18*
X198600000Y-121230000D03*
D17*
X134013949Y-93281049D03*
X162275000Y-91425000D03*
X219320807Y-89770000D03*
X230880000Y-83880000D03*
D18*
X168460000Y-122472500D03*
X168460000Y-118940000D03*
X201680000Y-145990000D03*
X192220000Y-121230000D03*
D17*
X222810807Y-97840000D03*
D18*
X193420000Y-123645000D03*
D17*
X124020000Y-134240000D03*
X124000000Y-125100000D03*
D18*
X200270000Y-147350000D03*
D17*
X227850000Y-98630000D03*
D18*
X176970000Y-110380000D03*
X169310000Y-114245000D03*
X204510000Y-145990000D03*
X205930000Y-144530000D03*
X197020000Y-115480000D03*
D17*
X121640000Y-134210000D03*
D18*
X163870000Y-129285000D03*
D17*
X123860000Y-145350000D03*
X124690000Y-109750000D03*
X227323700Y-92400000D03*
D18*
X197020000Y-114302500D03*
X198715000Y-145965000D03*
X192535000Y-147375000D03*
X168460000Y-120117500D03*
X147980000Y-92930000D03*
D17*
X145250000Y-103700000D03*
D18*
X198330000Y-116580000D03*
X175792500Y-110380000D03*
X235690000Y-87510000D03*
D17*
X123980000Y-118560000D03*
D18*
X193420000Y-121290000D03*
D17*
X175135000Y-142445000D03*
D18*
X197195000Y-147365000D03*
D17*
X225450000Y-103460000D03*
X150680000Y-97660000D03*
X134010000Y-94420000D03*
X127540000Y-104410000D03*
D18*
X192535000Y-145985000D03*
D17*
X234700000Y-146560000D03*
X121770000Y-111060000D03*
D18*
X197205000Y-144535000D03*
D17*
X227700000Y-143290000D03*
D18*
X194085000Y-147385000D03*
X196475000Y-110310000D03*
D17*
X196220000Y-117990000D03*
D18*
X198600000Y-123585000D03*
X197195000Y-145975000D03*
X198600000Y-122407500D03*
X203100000Y-145960000D03*
D17*
X209030000Y-164830000D03*
D18*
X195615000Y-144535000D03*
X163420000Y-121160000D03*
X237440000Y-90600000D03*
D17*
X219624180Y-88972959D03*
D18*
X139580000Y-84210000D03*
D17*
X230300000Y-137960000D03*
X215340807Y-97560000D03*
D18*
X198715000Y-147355000D03*
X162300000Y-118805000D03*
X237451300Y-91460000D03*
X131400000Y-84190000D03*
X172950000Y-128107500D03*
X151860000Y-97710000D03*
X193420000Y-118935000D03*
D17*
X217090000Y-89550000D03*
D18*
X169310000Y-116600000D03*
D17*
X124600000Y-158500000D03*
X224860000Y-89070000D03*
D18*
X195605000Y-145975000D03*
X167682500Y-110380000D03*
%TO.N,/Power/VIN_M*%
X168388000Y-99280000D03*
X168370000Y-103730000D03*
X202420000Y-103560000D03*
X162140000Y-99280000D03*
X208220000Y-102260000D03*
X199450000Y-99690000D03*
X169930000Y-102290000D03*
X202410000Y-100960000D03*
X205350000Y-103530000D03*
X205340000Y-100930000D03*
X169950000Y-99280000D03*
X202420000Y-104930000D03*
X165274000Y-102290000D03*
X200950000Y-102280000D03*
X206810000Y-103570000D03*
X169910000Y-100800000D03*
X206770000Y-99700000D03*
X199490000Y-102260000D03*
X166808000Y-105130000D03*
X162170000Y-102300000D03*
X160690000Y-102300000D03*
X169920000Y-103730000D03*
X162150000Y-100800000D03*
X203820000Y-100950000D03*
X165264000Y-99280000D03*
X160670000Y-100810000D03*
X198060000Y-103550000D03*
X165270000Y-103730000D03*
X199490000Y-103560000D03*
D17*
X127968951Y-93950000D03*
D18*
X159220000Y-102290000D03*
X200940000Y-100980000D03*
X203790000Y-99680000D03*
X159200000Y-100800000D03*
X205310000Y-99660000D03*
X168354000Y-105130000D03*
X163763949Y-106473949D03*
X166826000Y-99280000D03*
X162170000Y-105103949D03*
X208220000Y-103560000D03*
X165262000Y-105130000D03*
X168378000Y-102290000D03*
X206810000Y-102270000D03*
X208180000Y-98320000D03*
X166820000Y-103730000D03*
X199450000Y-98320000D03*
X208210000Y-100960000D03*
X208180000Y-99690000D03*
X203830000Y-102250000D03*
X199490000Y-104930000D03*
X206800000Y-100970000D03*
D17*
X147450000Y-103420000D03*
D18*
X205310000Y-98290000D03*
X168358000Y-100800000D03*
X206770000Y-98330000D03*
X200950000Y-104950000D03*
X163722000Y-102300000D03*
X163716000Y-105103949D03*
X200910000Y-98340000D03*
X202380000Y-98320000D03*
X199480000Y-100960000D03*
X169900000Y-105130000D03*
X200910000Y-99710000D03*
X160675000Y-99275000D03*
X203790000Y-98310000D03*
X163702000Y-99280000D03*
X200950000Y-103580000D03*
X162170000Y-103740000D03*
X203830000Y-103550000D03*
X160750000Y-103750000D03*
X205350000Y-102230000D03*
X198020000Y-98310000D03*
X163702000Y-100800000D03*
X202380000Y-99690000D03*
X165254000Y-100800000D03*
X198060000Y-104920000D03*
X202420000Y-102260000D03*
X163720000Y-103740000D03*
D17*
%TO.N,Net-(D1-A)*%
X137370000Y-90530000D03*
X131960000Y-96750000D03*
%TO.N,Net-(U1-COMP1)*%
X138240000Y-91660000D03*
X138280000Y-93630000D03*
%TO.N,Net-(D2-A)*%
X136880000Y-88310000D03*
X130400000Y-87860000D03*
X132320000Y-88248792D03*
D18*
%TO.N,/3V6*%
X131235000Y-141275000D03*
X215293700Y-135720000D03*
X132825000Y-139905000D03*
X150960000Y-132170000D03*
X132825000Y-141275000D03*
D17*
X138720000Y-155620000D03*
D18*
X138720000Y-145450000D03*
X218340000Y-138730000D03*
X176690000Y-135180000D03*
X128165000Y-142645000D03*
X134335000Y-145455000D03*
X212260000Y-135710000D03*
X128165000Y-141285000D03*
D17*
X137785000Y-154810000D03*
D18*
X176690000Y-133605000D03*
X135900000Y-139890000D03*
X140140000Y-141290000D03*
X168800000Y-133310000D03*
X213800000Y-142140000D03*
X215293700Y-137310000D03*
X210776300Y-138880000D03*
X132815000Y-145465000D03*
X149440000Y-132190000D03*
X216846558Y-134030000D03*
X215293700Y-134200000D03*
X128195000Y-138505000D03*
X212256300Y-140500000D03*
X209320000Y-134190000D03*
X164535000Y-133310000D03*
X140140000Y-142650000D03*
X216846558Y-137170000D03*
X147890000Y-133550000D03*
X176690000Y-132015000D03*
X167410000Y-133310000D03*
X140170000Y-138510000D03*
X149470000Y-130780000D03*
D17*
X136830000Y-155620000D03*
D18*
X213813700Y-134200000D03*
X218330000Y-141980000D03*
X213813700Y-131010000D03*
X137310000Y-142650000D03*
X164535000Y-134900000D03*
X213813700Y-135720000D03*
X141540000Y-145460000D03*
X146630000Y-132160000D03*
X215290000Y-138890000D03*
X216846558Y-135450000D03*
X134345000Y-139895000D03*
X137340000Y-138510000D03*
D17*
X139675000Y-154810000D03*
D18*
X134345000Y-141265000D03*
D17*
X140620000Y-154810000D03*
D18*
X135890000Y-146840000D03*
X210780000Y-135710000D03*
X134345000Y-142625000D03*
X209320000Y-131000000D03*
X131225000Y-145465000D03*
X165925000Y-133310000D03*
X138720000Y-146840000D03*
X216842858Y-138750000D03*
X146630000Y-133530000D03*
X218340000Y-140350000D03*
X140130000Y-145480000D03*
X216832858Y-142000000D03*
X137300000Y-145480000D03*
X138730000Y-141260000D03*
X212260000Y-131000000D03*
X213813700Y-137310000D03*
X128155000Y-146865000D03*
X210780000Y-132590000D03*
X213810000Y-138890000D03*
X134375000Y-138485000D03*
X131235000Y-142635000D03*
D17*
X134940000Y-155630000D03*
D18*
X147890000Y-134910000D03*
X131265000Y-138495000D03*
X135930000Y-138480000D03*
X141540000Y-146850000D03*
X167410000Y-136500000D03*
D17*
X137775000Y-155620000D03*
D18*
X218343700Y-137150000D03*
X135900000Y-142620000D03*
X132825000Y-142635000D03*
X209320000Y-135710000D03*
X140140000Y-139920000D03*
X140130000Y-146870000D03*
X149440000Y-133560000D03*
D17*
X135895000Y-154810000D03*
D18*
X147920000Y-130770000D03*
D17*
X135885000Y-155620000D03*
D18*
X216842858Y-140370000D03*
X215293700Y-132600000D03*
X164535000Y-136500000D03*
X146630000Y-134890000D03*
X215290000Y-140510000D03*
D17*
X138730000Y-154810000D03*
D18*
X216846558Y-132440000D03*
D17*
X136840000Y-154810000D03*
D18*
X132815000Y-146855000D03*
X137310000Y-139920000D03*
X141550000Y-142630000D03*
X128165000Y-144035000D03*
X210780000Y-134190000D03*
X141550000Y-144020000D03*
X141550000Y-141270000D03*
X150960000Y-134900000D03*
X137310000Y-144040000D03*
X129715000Y-144045000D03*
X135890000Y-145450000D03*
X131225000Y-146855000D03*
X209320000Y-137300000D03*
X168800000Y-134900000D03*
X129705000Y-146875000D03*
X218286558Y-130900000D03*
X210780000Y-137300000D03*
X138730000Y-142620000D03*
X167410000Y-134900000D03*
X134345000Y-144015000D03*
X138760000Y-138480000D03*
X128155000Y-145475000D03*
X129745000Y-138515000D03*
X149440000Y-134920000D03*
X216846558Y-130920000D03*
X137310000Y-141290000D03*
X134335000Y-146845000D03*
X138730000Y-139890000D03*
X218343700Y-135430000D03*
X140140000Y-144040000D03*
X209320000Y-132590000D03*
X129715000Y-142655000D03*
D17*
X142400000Y-153030000D03*
D18*
X212260000Y-137300000D03*
X141580000Y-138490000D03*
X218286558Y-132420000D03*
X212260000Y-134190000D03*
X215280000Y-142140000D03*
X129705000Y-145485000D03*
X132855000Y-138495000D03*
X212260000Y-132590000D03*
X165925000Y-136500000D03*
X210780000Y-131000000D03*
X135900000Y-144010000D03*
X215293700Y-131010000D03*
X146660000Y-130750000D03*
D17*
X134950000Y-154810000D03*
X140610000Y-155620000D03*
D18*
X213813700Y-132600000D03*
X129715000Y-141295000D03*
X165925000Y-134900000D03*
X150960000Y-133540000D03*
D17*
X139665000Y-155620000D03*
D18*
X168800000Y-136500000D03*
X213810000Y-140510000D03*
X131235000Y-144025000D03*
X218286558Y-134010000D03*
X150990000Y-130760000D03*
X137300000Y-146870000D03*
X138730000Y-144010000D03*
X131235000Y-139905000D03*
X132825000Y-144025000D03*
X147890000Y-132180000D03*
X212256300Y-138880000D03*
X135900000Y-141260000D03*
X128165000Y-139915000D03*
X141550000Y-139900000D03*
X129715000Y-139925000D03*
%TO.N,/Power/VIN*%
X168475000Y-91450000D03*
X167450000Y-91450000D03*
X168475000Y-90450000D03*
X166450000Y-90450000D03*
X166450000Y-91450000D03*
X167450000Y-90450000D03*
D17*
%TO.N,Net-(Q1-G)*%
X143485000Y-96410000D03*
X157040000Y-109910000D03*
%TO.N,Net-(Q2-G)*%
X159800000Y-117390000D03*
X148330773Y-99829227D03*
%TO.N,Net-(Q3-G)*%
X146210000Y-93290000D03*
X211140000Y-103930000D03*
%TO.N,Net-(Q4-G)*%
X207858700Y-117450000D03*
X144600000Y-93950000D03*
%TO.N,/3V3*%
X213543591Y-100566409D03*
X226790000Y-102450000D03*
X207380000Y-90580000D03*
X223380404Y-102420000D03*
X222560807Y-91580000D03*
D18*
X233890000Y-94030000D03*
D17*
X225750000Y-143750000D03*
D18*
X147980000Y-89450000D03*
X233898700Y-96980000D03*
D17*
X218030807Y-90795000D03*
X224920807Y-92475000D03*
D18*
X156400000Y-100900000D03*
D17*
X226940000Y-93870000D03*
D18*
X233890000Y-92940000D03*
X153730000Y-97700000D03*
D17*
X232100000Y-138460000D03*
X226890000Y-98630000D03*
X175135000Y-143405000D03*
D18*
X150928949Y-87930000D03*
D17*
X212630000Y-89560000D03*
X216290807Y-94405000D03*
X216300807Y-97560000D03*
%TO.N,/Data/1V1*%
X221910807Y-94615000D03*
X222270807Y-99385000D03*
X223850807Y-94615000D03*
%TO.N,/stack4/GND0*%
X137243333Y-168470000D03*
X139076667Y-169270000D03*
X139090000Y-168470000D03*
X138153333Y-169270000D03*
X140013333Y-168470000D03*
X136306667Y-169270000D03*
X133360000Y-157380000D03*
X136320000Y-168470000D03*
X138166666Y-168470000D03*
X135383333Y-169270000D03*
X134460000Y-169270000D03*
X134473333Y-168470000D03*
X143630000Y-157610000D03*
X135396666Y-168470000D03*
X140000000Y-169270000D03*
X137230000Y-169270000D03*
%TO.N,/stack4/GND1*%
X134300000Y-182980000D03*
X135340000Y-182980000D03*
X139513333Y-182170000D03*
X140540000Y-182980000D03*
X135353333Y-182170000D03*
X137433333Y-182170000D03*
X139500000Y-182980000D03*
X138473333Y-182170000D03*
X136380000Y-182980000D03*
X137420000Y-182980000D03*
X136393333Y-182170000D03*
X140553333Y-182170000D03*
X132890000Y-171260000D03*
X143440000Y-171040000D03*
X134313333Y-182170000D03*
X138460000Y-182980000D03*
%TO.N,/stack4/GND2*%
X156720000Y-194960000D03*
X159545000Y-194960000D03*
X157655000Y-194100000D03*
X160486667Y-194960000D03*
X164338000Y-196342000D03*
X158603333Y-194960000D03*
X160480000Y-194100000D03*
X161428333Y-194960000D03*
X159538333Y-194100000D03*
X158596666Y-194100000D03*
X162370000Y-194950000D03*
X143620000Y-183930000D03*
X133380000Y-184540000D03*
X156713333Y-194100000D03*
X161421666Y-194100000D03*
X162363333Y-194090000D03*
X157661667Y-194960000D03*
%TO.N,/stack4/1V2-0*%
X133120000Y-165470000D03*
D18*
%TO.N,/Power/SW1*%
X152550000Y-105080000D03*
X153620000Y-109825000D03*
X148967500Y-113450000D03*
X148962500Y-112380000D03*
X153680000Y-112120000D03*
X151337500Y-112380000D03*
X153680000Y-110932500D03*
X150150000Y-112380000D03*
X152525000Y-112380000D03*
X153620000Y-108637500D03*
X153620000Y-105075000D03*
X152550000Y-109830000D03*
X153680000Y-114495000D03*
X150155000Y-113450000D03*
X153680000Y-113307500D03*
D17*
X132935000Y-98490000D03*
D18*
X152550000Y-106267500D03*
X147775000Y-112380000D03*
X153620000Y-106262500D03*
X151342500Y-113450000D03*
X154750000Y-114490000D03*
X152550000Y-107455000D03*
X152550000Y-108642500D03*
X153620000Y-107450000D03*
X154750000Y-110927500D03*
X154750000Y-112115000D03*
X154750000Y-113302500D03*
X147780000Y-113450000D03*
X152530000Y-113450000D03*
%TO.N,/Power/SW2*%
X209000000Y-112090000D03*
X212870000Y-109800000D03*
D17*
X200486984Y-115814228D03*
D18*
X211650000Y-107435000D03*
X214222500Y-113470000D03*
X209000000Y-110902500D03*
X215410000Y-113470000D03*
X215405000Y-112400000D03*
X213035000Y-113470000D03*
X213030000Y-112400000D03*
X214217500Y-112400000D03*
X209000000Y-113277500D03*
X212870000Y-105050000D03*
X212870000Y-108612500D03*
X209000000Y-114465000D03*
D17*
X131110000Y-88410000D03*
D18*
X212870000Y-106237500D03*
X211650000Y-109810000D03*
X211650000Y-106247500D03*
X211650000Y-108622500D03*
X211847500Y-113470000D03*
X212870000Y-107425000D03*
X210660000Y-113470000D03*
X210655000Y-112400000D03*
X211842500Y-112400000D03*
%TO.N,/Power/LOOP1*%
X154260000Y-122252500D03*
X154260000Y-118900000D03*
X159120000Y-123460000D03*
X159120000Y-122282500D03*
X154260000Y-119897500D03*
X160050000Y-123450000D03*
X160050000Y-119917500D03*
X158455000Y-117430000D03*
X157277500Y-117430000D03*
X156100000Y-117430000D03*
X160050000Y-121095000D03*
X154260000Y-121075000D03*
D17*
X148475000Y-101250000D03*
D18*
X159120000Y-121105000D03*
D17*
X155150000Y-117110000D03*
D18*
X154260000Y-123430000D03*
X159580000Y-118980000D03*
X159120000Y-119927500D03*
X160050000Y-122272500D03*
D17*
%TO.N,Net-(U1-CS2)*%
X134400000Y-87140000D03*
X152550000Y-98600000D03*
%TO.N,/stack4/1V2-1*%
X132950000Y-179160000D03*
%TO.N,/stack4/1V2-2*%
X132790000Y-193870000D03*
%TO.N,/stack4/0V8-0*%
X132130000Y-165420000D03*
X128970000Y-160830000D03*
%TO.N,/stack4/0V8-1*%
X132850000Y-176370000D03*
X131580000Y-178390000D03*
%TO.N,/stack4/0V8-2*%
X128740000Y-187750000D03*
X131820000Y-193740000D03*
%TO.N,/stack5/GND0*%
X160835000Y-181180000D03*
X161810000Y-181180000D03*
X149930000Y-187660000D03*
X157923333Y-180320000D03*
X155070000Y-192060000D03*
X160848333Y-180320000D03*
X159860000Y-181180000D03*
X158885000Y-181180000D03*
X156948333Y-180320000D03*
X159873333Y-180320000D03*
X155973333Y-180330000D03*
X161823333Y-180320000D03*
X157910000Y-181180000D03*
X156935000Y-181180000D03*
X165540000Y-192030000D03*
X158898333Y-180320000D03*
X155960000Y-181190000D03*
%TO.N,/stack5/GND1*%
X155973333Y-166760000D03*
X160798333Y-166750000D03*
X157890000Y-167610000D03*
X161750000Y-167610000D03*
X159820000Y-167610000D03*
X158868333Y-166750000D03*
X159833333Y-166750000D03*
X158855000Y-167610000D03*
X161763333Y-166750000D03*
X155960000Y-167620000D03*
X156938333Y-166750000D03*
X160785000Y-167610000D03*
X164930000Y-178410000D03*
X156925000Y-167610000D03*
X157903333Y-166750000D03*
X154800000Y-178410000D03*
%TO.N,/stack5/GND2*%
X179483333Y-155620000D03*
X177310000Y-155620000D03*
X183830000Y-155620000D03*
X181836667Y-154760000D03*
X178396667Y-155620000D03*
X185674000Y-152908000D03*
X165002500Y-165607500D03*
X182743333Y-155620000D03*
X179580000Y-154760000D03*
X181656667Y-155620000D03*
X180708333Y-154760000D03*
X154770000Y-165410000D03*
X180570000Y-155620000D03*
X182965000Y-154760000D03*
X147722500Y-155955000D03*
X178451666Y-154760000D03*
X177323333Y-154760000D03*
X146362500Y-161820000D03*
%TO.N,/stack5/1V2-0*%
X152930000Y-186570000D03*
X154225000Y-184125000D03*
%TO.N,/stack5/1V2-1*%
X154880000Y-173920000D03*
%TO.N,/stack5/1V2-2*%
X150840000Y-157720000D03*
X154630000Y-156180000D03*
%TO.N,/stack5/0V8-0*%
X153800000Y-186900000D03*
%TO.N,/stack5/0V8-1*%
X165150000Y-171610000D03*
%TO.N,/stack5/0V8-2*%
X150691091Y-159021091D03*
X153560000Y-156200000D03*
%TO.N,/stack6/GND0*%
X181680000Y-169310000D03*
X182750000Y-169310000D03*
X178470000Y-168470000D03*
X180610000Y-168470000D03*
X179540000Y-169310000D03*
X181680000Y-168470000D03*
X180610000Y-169310000D03*
X186900000Y-156720000D03*
X178470000Y-169310000D03*
X183820000Y-168470000D03*
X177400000Y-169310000D03*
X182750000Y-168470000D03*
X179540000Y-168470000D03*
X183820000Y-169310000D03*
X177400000Y-168470000D03*
X176000000Y-157680000D03*
%TO.N,/stack6/GND1*%
X179333333Y-182090000D03*
X182373333Y-183030000D03*
X179323333Y-183030000D03*
X186710000Y-171070000D03*
X178316667Y-182090000D03*
X176020000Y-171340000D03*
X177300000Y-182100000D03*
X182383333Y-182090000D03*
X180350000Y-182090000D03*
X181356667Y-183030000D03*
X180340000Y-183030000D03*
X183400000Y-182090000D03*
X183390000Y-183030000D03*
X181366667Y-182090000D03*
X178306667Y-183030000D03*
X177290000Y-183040000D03*
%TO.N,/stack6/GND2*%
X204406666Y-194190000D03*
X203340000Y-194190000D03*
X186860000Y-184900000D03*
X207518000Y-197104000D03*
X199020000Y-195110000D03*
X203286667Y-195100000D03*
X202220000Y-195100000D03*
X205420000Y-195100000D03*
X205473333Y-194190000D03*
X176280000Y-184700000D03*
X200086667Y-195100000D03*
X202273333Y-194190000D03*
X201153333Y-195100000D03*
X199073333Y-194200000D03*
X201206666Y-194190000D03*
X204353333Y-195100000D03*
X200140000Y-194190000D03*
%TO.N,/stack6/1V2-0*%
X186660000Y-164720000D03*
%TO.N,/stack6/1V2-1*%
X176300000Y-178050000D03*
%TO.N,/stack6/1V2-2*%
X171480000Y-189320000D03*
X175650000Y-194370000D03*
%TO.N,/stack6/0V8-0*%
X175810000Y-163790000D03*
%TO.N,/stack6/0V8-1*%
X192528749Y-172053749D03*
X188425000Y-177750000D03*
%TO.N,/stack6/0V8-2*%
X174600000Y-194360000D03*
%TO.N,/stack7/GND0*%
X198900000Y-181340000D03*
X200930000Y-181320000D03*
X197820000Y-192140000D03*
X204990000Y-181320000D03*
X203975000Y-181320000D03*
X202960000Y-181320000D03*
X200953333Y-180440000D03*
X201945000Y-181320000D03*
X199915000Y-181320000D03*
X201968333Y-180440000D03*
X198923333Y-180460000D03*
X211600000Y-190930000D03*
X205013333Y-180440000D03*
X199938333Y-180440000D03*
X202983333Y-180440000D03*
X203998333Y-180440000D03*
%TO.N,/stack7/GND1*%
X197764455Y-178982768D03*
X204960000Y-167660000D03*
X198980000Y-167680000D03*
X202980000Y-166780000D03*
X200986666Y-166780000D03*
X201983333Y-166780000D03*
X200973333Y-167660000D03*
X199976667Y-167660000D03*
X202966667Y-167660000D03*
X201970000Y-167660000D03*
X208730000Y-178560000D03*
X204973333Y-166780000D03*
X199990000Y-166780000D03*
X203963333Y-167660000D03*
X198993333Y-166800000D03*
X203976666Y-166780000D03*
%TO.N,/stack7/1V2-0*%
X209080000Y-185050000D03*
X208200000Y-188330000D03*
%TO.N,/stack7/1V2-1*%
X213820000Y-175670000D03*
X210580000Y-172125000D03*
%TO.N,/stack7/1V2-2*%
X230295104Y-140910000D03*
X209520000Y-157460000D03*
X211840000Y-158980000D03*
X235700000Y-146570000D03*
%TO.N,/stack7/0V8-0*%
X209690000Y-185580000D03*
%TO.N,/stack7/0V8-1*%
X209560000Y-172150000D03*
%TO.N,/stack7/0V8-2*%
X210530000Y-157460000D03*
%TO.N,/Data/SWD*%
X223930807Y-99415000D03*
X224670000Y-90470000D03*
%TO.N,/Data/SWCLK*%
X223170807Y-99330000D03*
X220927206Y-89295908D03*
%TO.N,/Data/QSPI_SS*%
X211430807Y-91880000D03*
X217533835Y-93314305D03*
%TO.N,Net-(U46-NRSTO)*%
X143610000Y-171890000D03*
%TO.N,Net-(U46-CO)*%
X143526091Y-175413909D03*
%TO.N,Net-(U46-CLKO)*%
X143550000Y-174320000D03*
%TO.N,Net-(U46-RI)*%
X143549000Y-173531000D03*
%TO.N,Net-(U46-BO)*%
X143550000Y-172710000D03*
%TO.N,Net-(U45-BI)*%
X146620000Y-173760000D03*
%TO.N,Net-(U45-CO)*%
X132570000Y-157450000D03*
%TO.N,Net-(U46-CI)*%
X131620000Y-180330000D03*
%TO.N,Net-(U47-CO)*%
X131520000Y-182590000D03*
%TO.N,Net-(U46-CLKI)*%
X130490000Y-180200000D03*
%TO.N,Net-(U45-CLKO)*%
X131990000Y-157940000D03*
%TO.N,Net-(U47-CLKO)*%
X130540000Y-182580000D03*
%TO.N,Net-(U46-RO)*%
X129480000Y-180200000D03*
%TO.N,Net-(U45-RI)*%
X131920000Y-159470000D03*
X124639999Y-161557817D03*
%TO.N,Net-(U47-RI)*%
X129480000Y-182500000D03*
%TO.N,Net-(U46-BI)*%
X128490000Y-180200000D03*
%TO.N,Net-(U45-BO)*%
X131960000Y-160450000D03*
%TO.N,Net-(U47-BO)*%
X128530000Y-182610000D03*
%TO.N,Net-(U46-NRSTI)*%
X127630000Y-180180000D03*
%TO.N,Net-(U45-NRSTO)*%
X125520000Y-161250000D03*
%TO.N,Net-(U47-NRSTO)*%
X132770000Y-188170000D03*
X127670000Y-182610000D03*
%TO.N,Net-(U55-NRSTO)*%
X168190000Y-191270000D03*
X167275000Y-177375000D03*
%TO.N,Net-(U55-CO)*%
X168190000Y-187120000D03*
%TO.N,Net-(U55-CLKO)*%
X168190000Y-188140000D03*
%TO.N,Net-(U55-RI)*%
X168190000Y-189210000D03*
%TO.N,Net-(U55-BO)*%
X168190000Y-190200000D03*
%TO.N,Net-(U55-CI)*%
X151680000Y-158810000D03*
%TO.N,Net-(U54-CO)*%
X146462909Y-185587091D03*
%TO.N,Net-(U56-CO)*%
X154350000Y-158820000D03*
%TO.N,Net-(U54-CLKO)*%
X146350000Y-186390000D03*
%TO.N,Net-(U55-CLKI)*%
X151700000Y-159810000D03*
%TO.N,Net-(U56-CLKO)*%
X154853858Y-161636039D03*
%TO.N,Net-(U55-RO)*%
X151700000Y-160840000D03*
%TO.N,Net-(U54-RI)*%
X146310000Y-187330000D03*
X152400000Y-184150000D03*
%TO.N,Net-(U56-RI)*%
X154700000Y-163200000D03*
%TO.N,Net-(U55-BI)*%
X151660000Y-161870000D03*
%TO.N,Net-(U54-BO)*%
X146320000Y-188410000D03*
%TO.N,Net-(U56-BO)*%
X154040000Y-163980000D03*
%TO.N,Net-(U54-NRSTO)*%
X146310000Y-189360000D03*
%TO.N,Net-(U55-NRSTI)*%
X151940000Y-162856000D03*
%TO.N,Net-(U56-NRSTO)*%
X153370000Y-163610000D03*
%TO.N,Net-(U64-NRSTO)*%
X186625000Y-171910000D03*
X189920000Y-161070000D03*
%TO.N,Net-(U64-CO)*%
X190100000Y-157090000D03*
%TO.N,Net-(U64-CLKO)*%
X189890000Y-158110000D03*
%TO.N,Net-(U64-RI)*%
X189890000Y-159060000D03*
%TO.N,Net-(U64-BO)*%
X189890000Y-160050000D03*
%TO.N,Net-(U64-CI)*%
X173713954Y-186860313D03*
%TO.N,Net-(U63-CO)*%
X167780000Y-160730000D03*
%TO.N,Net-(U65-CO)*%
X176400000Y-185470000D03*
%TO.N,Net-(U63-CLKO)*%
X167780000Y-161720000D03*
%TO.N,Net-(U64-CLKI)*%
X173760000Y-187650000D03*
%TO.N,Net-(U65-CLKO)*%
X176430000Y-186240000D03*
%TO.N,Net-(U63-RI)*%
X167800000Y-159450000D03*
X167780000Y-162730000D03*
%TO.N,Net-(U64-RO)*%
X173800000Y-188400000D03*
%TO.N,Net-(U65-RI)*%
X176390000Y-187130000D03*
%TO.N,Net-(U64-BI)*%
X173800000Y-189325000D03*
%TO.N,Net-(U63-BO)*%
X167780000Y-163730000D03*
%TO.N,Net-(U65-BO)*%
X176370000Y-187940000D03*
%TO.N,Net-(U63-NRSTO)*%
X167775000Y-164750000D03*
%TO.N,Net-(U64-NRSTI)*%
X173800000Y-190250000D03*
%TO.N,Net-(U65-NRSTO)*%
X176196545Y-189791783D03*
%TO.N,Net-(U73-NRSTO)*%
X214940000Y-180240000D03*
X211450000Y-175450000D03*
%TO.N,Net-(U73-CO)*%
X210910000Y-180240000D03*
%TO.N,Net-(U73-CLKO)*%
X211920000Y-180240000D03*
%TO.N,Net-(U73-RI)*%
X212930000Y-180240000D03*
%TO.N,Net-(U73-BO)*%
X213920000Y-180230000D03*
%TO.N,Net-(U74-BI)*%
X209910000Y-163500000D03*
%TO.N,Net-(U72-CO)*%
X192260000Y-185660000D03*
%TO.N,Net-(U73-CI)*%
X197991091Y-177971091D03*
%TO.N,Net-(U72-CLKO)*%
X192260000Y-186610000D03*
%TO.N,Net-(U73-CLKI)*%
X197679096Y-177249096D03*
%TO.N,Net-(U72-RI)*%
X192280000Y-187570000D03*
%TO.N,Net-(U73-RO)*%
X197980000Y-176550000D03*
%TO.N,Net-(U73-BI)*%
X197690000Y-175850000D03*
%TO.N,Net-(U72-BO)*%
X192310000Y-188520000D03*
%TO.N,Net-(U73-NRSTI)*%
X197980000Y-175130000D03*
%TO.N,Net-(U72-NRSTO)*%
X192310000Y-189450000D03*
%TO.N,/stack4/RO*%
X143550000Y-186680000D03*
%TO.N,/stack4/CLKI*%
X143550000Y-185800000D03*
%TO.N,/stack4/CI*%
X143530000Y-184980000D03*
%TO.N,Net-(U74-NRSTO)*%
X195250000Y-174630000D03*
X197240686Y-164316752D03*
%TO.N,Net-(U74-BO)*%
X195230000Y-175567500D03*
%TO.N,Net-(U74-RI)*%
X195230000Y-176505000D03*
%TO.N,Net-(U74-CLKO)*%
X195230000Y-177442500D03*
%TO.N,Net-(U74-CO)*%
X195230000Y-178380000D03*
%TO.N,/Data/SCL*%
X231610000Y-106340000D03*
X181879641Y-142397365D03*
X217628909Y-103091091D03*
X229510000Y-143210000D03*
X215170000Y-100510000D03*
X151130000Y-94650000D03*
X155350000Y-92190000D03*
%TO.N,/Data/SDA*%
X229490000Y-144950000D03*
X155180000Y-92940000D03*
X232589293Y-106330000D03*
X212530000Y-99430000D03*
X150320000Y-94670000D03*
X216660000Y-102900000D03*
X181875000Y-143300000D03*
%TO.N,/Data/QSPI_SD1*%
X219850807Y-94590000D03*
X212269696Y-91863644D03*
%TO.N,/Data/QSPI_SD2*%
X220690807Y-94590000D03*
X213220807Y-91845000D03*
%TO.N,/RST*%
X236740000Y-141350000D03*
X217030807Y-99430000D03*
%TO.N,/RX*%
X235320000Y-141900000D03*
X215710000Y-99079530D03*
%TO.N,/TX*%
X235910000Y-141350000D03*
X216265404Y-98515404D03*
%TO.N,/stack6/1V2-0B*%
X166225000Y-158400000D03*
%TO.N,/stack7/1V2-0B*%
X196725000Y-185325000D03*
%TO.N,/stack6/CI*%
X189800000Y-185630000D03*
%TO.N,/stack6/CLKI*%
X189820000Y-186590000D03*
%TO.N,/stack6/RO*%
X189800000Y-187540000D03*
%TO.N,/stack6/BI*%
X189800000Y-188500000D03*
%TO.N,/stack6/NRSTI*%
X189770000Y-189480000D03*
%TO.N,Net-(U45-NRSTI)*%
X146410000Y-173030000D03*
%TO.N,Net-(U45-RO)*%
X146640000Y-174770000D03*
%TO.N,Net-(U45-CLKI)*%
X146650000Y-175780000D03*
%TO.N,Net-(U45-CI)*%
X146650000Y-176790000D03*
%TO.N,Net-(U54-NRSTI)*%
X165260000Y-191320000D03*
%TO.N,Net-(U54-BI)*%
X165260000Y-190500000D03*
%TO.N,Net-(U54-RO)*%
X165260000Y-189720000D03*
%TO.N,Net-(U54-CLKI)*%
X165260000Y-188950000D03*
%TO.N,Net-(U54-CI)*%
X165260000Y-188190000D03*
%TO.N,/stack4/BI*%
X143550000Y-187730000D03*
%TO.N,/stack4/NRSTI*%
X143570000Y-189020000D03*
%TO.N,Net-(U63-NRSTI)*%
X187370000Y-161170000D03*
%TO.N,/stack5/NRSTI*%
X165190000Y-164710000D03*
%TO.N,Net-(U63-BI)*%
X186880000Y-160260000D03*
%TO.N,/stack5/BI*%
X165190000Y-163710000D03*
%TO.N,Net-(U63-RO)*%
X187400000Y-159300000D03*
%TO.N,/stack5/RO*%
X165190000Y-162700000D03*
%TO.N,Net-(U63-CLKI)*%
X186860000Y-158530000D03*
%TO.N,/stack5/CLKI*%
X165190000Y-161750000D03*
%TO.N,Net-(U63-CI)*%
X187400000Y-157550000D03*
%TO.N,/stack5/CI*%
X165190000Y-160720000D03*
%TO.N,Net-(U72-NRSTI)*%
X214940000Y-183060000D03*
%TO.N,Net-(U72-BI)*%
X213930000Y-183060000D03*
%TO.N,Net-(U72-RO)*%
X212920000Y-183060000D03*
%TO.N,Net-(U72-CLKI)*%
X211930000Y-183040000D03*
%TO.N,Net-(U72-CI)*%
X210910000Y-183040000D03*
%TO.N,/stack7/RST_N*%
X226800000Y-164400000D03*
X232740000Y-146390000D03*
X234650000Y-149250000D03*
%TO.N,/stack7/RO*%
X226850000Y-163100000D03*
%TO.N,/stack7/CI*%
X226850000Y-161750000D03*
%TO.N,/5V*%
X218010000Y-173960000D03*
X218010000Y-160100000D03*
X126570000Y-169880000D03*
X218010000Y-192610000D03*
X126570000Y-188380000D03*
X126570000Y-183670000D03*
X218010000Y-187650000D03*
D19*
X208100000Y-94060000D03*
D17*
X190338749Y-176083749D03*
X126570000Y-175090000D03*
X149830000Y-192140000D03*
X126700000Y-155760000D03*
D19*
X225530000Y-87770000D03*
D17*
X144584719Y-171505281D03*
X147310000Y-192140000D03*
X144680000Y-157700000D03*
X218010000Y-178850000D03*
X233130000Y-83880000D03*
X126570000Y-161220000D03*
X174860000Y-157460000D03*
X191670000Y-163360000D03*
X170610000Y-174190000D03*
X170690000Y-190600000D03*
X170910000Y-185720000D03*
D19*
X219548700Y-87520000D03*
D17*
X215950000Y-165800000D03*
X148720000Y-153100000D03*
%TO.N,/Data/PWR_EN*%
X146440000Y-92430000D03*
X124150000Y-90450000D03*
X211000000Y-96900000D03*
%TO.N,Net-(U1-HO1)*%
X141835000Y-96410000D03*
X130541091Y-95801091D03*
%TO.N,Net-(U1-LO1)*%
X147239012Y-98760988D03*
X132763949Y-96740000D03*
%TO.N,Net-(U1-LO2)*%
X138130000Y-88180000D03*
X132990000Y-87096874D03*
%TO.N,Net-(U1-HO2)*%
X130560000Y-91820000D03*
X145782864Y-93968227D03*
%TO.N,Net-(U1-CSG2)*%
X152625000Y-101200000D03*
X133650000Y-89420595D03*
%TO.N,Net-(U1-CS1)*%
X135058909Y-97491091D03*
X144900000Y-100250000D03*
%TO.N,Net-(U1-CSG1)*%
X144900000Y-102091000D03*
X134250000Y-97460000D03*
D18*
%TO.N,/Power/LOOP2*%
X204160000Y-117420000D03*
X205302500Y-117420000D03*
X202770000Y-119962500D03*
D17*
X203260000Y-116900000D03*
D18*
X207810000Y-123360000D03*
X207810000Y-122217500D03*
X201710000Y-119952500D03*
X207810000Y-119932500D03*
X207810000Y-121075000D03*
X201710000Y-118810000D03*
X202770000Y-118820000D03*
X201710000Y-121095000D03*
X206445000Y-117420000D03*
X202770000Y-123390000D03*
X202770000Y-121105000D03*
X207810000Y-118790000D03*
X201710000Y-123380000D03*
X201710000Y-122237500D03*
X202770000Y-122247500D03*
D17*
X154250000Y-99370000D03*
%TO.N,Net-(U74-NRSTI)*%
X224750000Y-164400000D03*
%TO.N,Net-(U74-RO)*%
X224750000Y-163100000D03*
%TO.N,Net-(U74-CLKI)*%
X219680000Y-162210000D03*
%TO.N,Net-(U74-CI)*%
X224750000Y-161750000D03*
%TO.N,Net-(U27-GPIO1)*%
X234480000Y-83880000D03*
X216860000Y-95610000D03*
%TO.N,Net-(U27-RUN)*%
X213160000Y-96320000D03*
X224520000Y-101870000D03*
%TO.N,/Data/THERM*%
X226310000Y-141320000D03*
X225180000Y-145730000D03*
X216740000Y-103820000D03*
%TO.N,/Data/GPIO27*%
X229843625Y-95311000D03*
%TO.N,/Data/GPIO26*%
X229280000Y-95860000D03*
%TO.N,/Data/GPIO25*%
X229250000Y-98250000D03*
%TO.N,/Data/GPIO28*%
X229330000Y-94489000D03*
%TO.N,Net-(U7-VCP)*%
X174100000Y-96775000D03*
X170150000Y-92250000D03*
%TO.N,Net-(U7-GATE)*%
X171850000Y-95880000D03*
X164825000Y-91350000D03*
%TD*%
D20*
%TO.N,/3V3*%
X156500000Y-96300000D02*
X156500000Y-100800000D01*
D21*
X186250000Y-94930000D02*
X154640000Y-94930000D01*
D20*
X229350000Y-105340000D02*
X229350000Y-104880000D01*
X154390000Y-90400000D02*
X154390000Y-94680000D01*
X230080000Y-144210000D02*
X226210000Y-144210000D01*
D21*
X186250000Y-94930000D02*
X186250000Y-134470000D01*
D20*
X154390000Y-94680000D02*
X154390000Y-97040000D01*
D21*
X208230000Y-91890000D02*
X207380000Y-91890000D01*
D20*
X232150000Y-138510000D02*
X232100000Y-138460000D01*
D21*
X211733786Y-93180000D02*
X209520000Y-93180000D01*
X204340000Y-94930000D02*
X186250000Y-94930000D01*
D22*
X212630000Y-89560000D02*
X212540000Y-89470000D01*
D21*
X177315000Y-143405000D02*
X175135000Y-143405000D01*
D20*
X233670000Y-138510000D02*
X233670000Y-109660000D01*
X150928949Y-87930000D02*
X150900000Y-87901051D01*
X154880000Y-94680000D02*
X156500000Y-96300000D01*
X156500000Y-100800000D02*
X156400000Y-100900000D01*
X211743786Y-93190000D02*
X211780000Y-93190000D01*
X154390000Y-94680000D02*
X154880000Y-94680000D01*
D21*
X209520000Y-93180000D02*
X208230000Y-91890000D01*
D20*
X149500000Y-87930000D02*
X150928949Y-87930000D01*
D21*
X211743786Y-93190000D02*
X211733786Y-93180000D01*
D20*
X151920000Y-87930000D02*
X154390000Y-90400000D01*
X154390000Y-97040000D02*
X153730000Y-97700000D01*
D21*
X154640000Y-94930000D02*
X154390000Y-94680000D01*
X186250000Y-134470000D02*
X177315000Y-143405000D01*
D20*
X151920000Y-87930000D02*
X150928949Y-87930000D01*
X233670000Y-138510000D02*
X232150000Y-138510000D01*
D21*
X207380000Y-91890000D02*
X204340000Y-94930000D01*
D20*
X233670000Y-109660000D02*
X229350000Y-105340000D01*
X233670000Y-140620000D02*
X230080000Y-144210000D01*
X233670000Y-138510000D02*
X233670000Y-140620000D01*
D22*
X207380000Y-90580000D02*
X207380000Y-91890000D01*
D20*
X147980000Y-89450000D02*
X149500000Y-87930000D01*
X226210000Y-144210000D02*
X225750000Y-143750000D01*
%TO.N,/5V*%
X170690000Y-190600000D02*
X171315000Y-191225000D01*
X170910000Y-185720000D02*
X172995104Y-185720000D01*
D21*
X218010000Y-160100000D02*
X218010000Y-154390000D01*
X126570000Y-169880000D02*
X126570000Y-161220000D01*
X218010000Y-173960000D02*
X218010000Y-178850000D01*
D23*
X192880000Y-96490000D02*
X188910000Y-100460000D01*
D21*
X179660000Y-151440000D02*
X188850000Y-151440000D01*
X126570000Y-175090000D02*
X126570000Y-169880000D01*
X174860000Y-174190000D02*
X170610000Y-174190000D01*
X144680000Y-157700000D02*
X144680000Y-171410000D01*
D23*
X205910000Y-96490000D02*
X192880000Y-96490000D01*
D21*
X150380000Y-151440000D02*
X148720000Y-153100000D01*
X174920000Y-184980000D02*
X174920000Y-190580000D01*
X144680000Y-157700000D02*
X144680000Y-157140000D01*
D20*
X172995104Y-185720000D02*
X173735104Y-184980000D01*
D21*
X174860000Y-157460000D02*
X174860000Y-174190000D01*
D20*
X191670000Y-163360000D02*
X191360000Y-163670000D01*
D23*
X188910000Y-151380000D02*
X188850000Y-151440000D01*
D21*
X126700000Y-155760000D02*
X126700000Y-155710000D01*
X146600000Y-192140000D02*
X147310000Y-192140000D01*
X188870000Y-151420000D02*
X188870000Y-163660000D01*
X215950000Y-162250000D02*
X215950000Y-165800000D01*
X218010000Y-187650000D02*
X218010000Y-192610000D01*
X174860000Y-157460000D02*
X174860000Y-155550000D01*
X218010000Y-160190000D02*
X215950000Y-162250000D01*
X130970000Y-151440000D02*
X150610000Y-151440000D01*
X144680000Y-190220000D02*
X146600000Y-192140000D01*
X218010000Y-178850000D02*
X218010000Y-187650000D01*
X126570000Y-161220000D02*
X126570000Y-155890000D01*
D23*
X208100000Y-94060000D02*
X208100000Y-94300000D01*
D21*
X144680000Y-171410000D02*
X144680000Y-190220000D01*
X150610000Y-151440000D02*
X150380000Y-151440000D01*
X218010000Y-160100000D02*
X218010000Y-160190000D01*
X215950000Y-165800000D02*
X215950000Y-171900000D01*
X150610000Y-151440000D02*
X179660000Y-151440000D01*
X147310000Y-192140000D02*
X149830000Y-192140000D01*
X126570000Y-175090000D02*
X126570000Y-183670000D01*
D20*
X191360000Y-163670000D02*
X188880000Y-163670000D01*
X174275000Y-191225000D02*
X174920000Y-190580000D01*
D23*
X208100000Y-94300000D02*
X205910000Y-96490000D01*
D20*
X173735104Y-184980000D02*
X174920000Y-184980000D01*
D21*
X174920000Y-174250000D02*
X174920000Y-184980000D01*
X218010000Y-154390000D02*
X215040000Y-151420000D01*
D20*
X171315000Y-191225000D02*
X174275000Y-191225000D01*
D21*
X215040000Y-151420000D02*
X188870000Y-151420000D01*
X174860000Y-174190000D02*
X174920000Y-174250000D01*
X126700000Y-155710000D02*
X130970000Y-151440000D01*
X144680000Y-157140000D02*
X148720000Y-153100000D01*
X174860000Y-155550000D02*
X178970000Y-151440000D01*
X126570000Y-155890000D02*
X126700000Y-155760000D01*
D20*
X188880000Y-163670000D02*
X188870000Y-163660000D01*
D21*
X215950000Y-171900000D02*
X218010000Y-173960000D01*
X188870000Y-163660000D02*
X188870000Y-174615000D01*
X178970000Y-151440000D02*
X179660000Y-151440000D01*
D23*
X188910000Y-100460000D02*
X188910000Y-151380000D01*
D21*
X188870000Y-174615000D02*
X190338749Y-176083749D01*
X126570000Y-183670000D02*
X126570000Y-188380000D01*
X188850000Y-151440000D02*
X188870000Y-151420000D01*
%TD*%
%TA.AperFunction,Conductor*%
%TO.N,/3V3*%
G36*
X239918471Y-78675695D02*
G01*
X239933599Y-78676544D01*
X240170748Y-78689862D01*
X240178672Y-78690565D01*
X240234831Y-78697384D01*
X240240584Y-78698222D01*
X240460507Y-78735588D01*
X240469385Y-78737433D01*
X240518198Y-78749465D01*
X240522840Y-78750705D01*
X240744020Y-78814426D01*
X240753616Y-78817622D01*
X240788580Y-78830882D01*
X240791875Y-78832189D01*
X241017176Y-78925511D01*
X241027321Y-78930262D01*
X241036998Y-78935342D01*
X241039191Y-78936523D01*
X241242462Y-79048866D01*
X241270640Y-79064440D01*
X241282414Y-79071838D01*
X241505141Y-79229871D01*
X241516013Y-79238541D01*
X241719647Y-79420519D01*
X241729480Y-79430352D01*
X241911458Y-79633986D01*
X241920128Y-79644858D01*
X242078161Y-79867585D01*
X242085559Y-79879359D01*
X242213439Y-80110740D01*
X242214693Y-80113068D01*
X242218743Y-80120785D01*
X242219728Y-80122662D01*
X242224490Y-80132830D01*
X242317778Y-80358046D01*
X242319143Y-80361488D01*
X242332366Y-80396353D01*
X242335577Y-80405995D01*
X242399293Y-80627160D01*
X242400536Y-80631811D01*
X242412561Y-80680597D01*
X242414412Y-80689502D01*
X242451771Y-80909381D01*
X242452619Y-80915205D01*
X242459429Y-80971288D01*
X242460138Y-80979282D01*
X242474305Y-81231527D01*
X242474500Y-81238480D01*
X242474500Y-106848227D01*
X242454815Y-106915266D01*
X242402011Y-106961021D01*
X242350827Y-106972227D01*
X232997889Y-106996899D01*
X232930798Y-106977391D01*
X232884904Y-106924708D01*
X232874778Y-106855576D01*
X232903635Y-106791944D01*
X232922078Y-106774522D01*
X232927303Y-106770511D01*
X232927308Y-106770509D01*
X233029802Y-106668015D01*
X233102277Y-106542485D01*
X233139793Y-106402475D01*
X233139793Y-106257525D01*
X233102277Y-106117515D01*
X233053581Y-106033172D01*
X233029804Y-105991988D01*
X233029799Y-105991982D01*
X232927310Y-105889493D01*
X232927304Y-105889488D01*
X232801781Y-105817017D01*
X232801782Y-105817017D01*
X232790299Y-105813940D01*
X232661768Y-105779500D01*
X232516818Y-105779500D01*
X232388286Y-105813940D01*
X232376804Y-105817017D01*
X232251281Y-105889488D01*
X232182327Y-105958442D01*
X232121003Y-105991926D01*
X232051312Y-105986941D01*
X232006965Y-105958441D01*
X231948017Y-105899493D01*
X231948011Y-105899488D01*
X231822488Y-105827017D01*
X231822489Y-105827017D01*
X231811006Y-105823940D01*
X231682475Y-105789500D01*
X231537525Y-105789500D01*
X231408993Y-105823940D01*
X231397511Y-105827017D01*
X231271988Y-105899488D01*
X231271982Y-105899493D01*
X231169493Y-106001982D01*
X231169488Y-106001988D01*
X231097017Y-106127511D01*
X231094202Y-106138017D01*
X231059500Y-106267525D01*
X231059500Y-106412475D01*
X231097016Y-106552485D01*
X231097017Y-106552488D01*
X231169488Y-106678011D01*
X231169493Y-106678017D01*
X231277732Y-106786256D01*
X231276428Y-106787559D01*
X231311585Y-106835707D01*
X231315739Y-106905453D01*
X231281526Y-106966373D01*
X231219808Y-106999126D01*
X231195222Y-107001654D01*
X220170961Y-107030735D01*
X220103870Y-107011227D01*
X220090598Y-107001446D01*
X218032842Y-105262525D01*
X219820307Y-105262525D01*
X219820307Y-105407475D01*
X219834914Y-105461988D01*
X219857824Y-105547488D01*
X219930295Y-105673011D01*
X219930297Y-105673013D01*
X219930298Y-105673015D01*
X220032792Y-105775509D01*
X220032793Y-105775510D01*
X220032795Y-105775511D01*
X220158318Y-105847982D01*
X220158319Y-105847982D01*
X220158322Y-105847984D01*
X220298332Y-105885500D01*
X220298335Y-105885500D01*
X220443279Y-105885500D01*
X220443282Y-105885500D01*
X220583292Y-105847984D01*
X220708822Y-105775509D01*
X220756806Y-105727525D01*
X224550307Y-105727525D01*
X224550307Y-105872475D01*
X224587823Y-106012485D01*
X224587824Y-106012488D01*
X224660295Y-106138011D01*
X224660297Y-106138013D01*
X224660298Y-106138015D01*
X224762792Y-106240509D01*
X224762793Y-106240510D01*
X224762795Y-106240511D01*
X224888318Y-106312982D01*
X224888319Y-106312982D01*
X224888322Y-106312984D01*
X225028332Y-106350500D01*
X225028335Y-106350500D01*
X225173279Y-106350500D01*
X225173282Y-106350500D01*
X225313292Y-106312984D01*
X225438822Y-106240509D01*
X225541316Y-106138015D01*
X225613791Y-106012485D01*
X225651307Y-105872475D01*
X225651307Y-105727525D01*
X225613791Y-105587515D01*
X225590681Y-105547488D01*
X225541318Y-105461988D01*
X225541313Y-105461982D01*
X225438824Y-105359493D01*
X225438818Y-105359488D01*
X225313295Y-105287017D01*
X225313296Y-105287017D01*
X225301813Y-105283940D01*
X225173282Y-105249500D01*
X225028332Y-105249500D01*
X224899800Y-105283940D01*
X224888318Y-105287017D01*
X224762795Y-105359488D01*
X224762789Y-105359493D01*
X224660300Y-105461982D01*
X224660295Y-105461988D01*
X224587824Y-105587511D01*
X224587823Y-105587515D01*
X224550307Y-105727525D01*
X220756806Y-105727525D01*
X220811316Y-105673015D01*
X220883791Y-105547485D01*
X220921307Y-105407475D01*
X220921307Y-105262525D01*
X220883791Y-105122515D01*
X220849134Y-105062488D01*
X220811318Y-104996988D01*
X220811313Y-104996982D01*
X220708824Y-104894493D01*
X220708822Y-104894491D01*
X220678153Y-104876784D01*
X220678152Y-104876783D01*
X220583295Y-104822017D01*
X220583296Y-104822017D01*
X220571813Y-104818940D01*
X220443282Y-104784500D01*
X220298332Y-104784500D01*
X220169800Y-104818940D01*
X220158318Y-104822017D01*
X220032795Y-104894488D01*
X220032789Y-104894493D01*
X219930300Y-104996982D01*
X219930295Y-104996988D01*
X219857824Y-105122511D01*
X219857823Y-105122515D01*
X219820307Y-105262525D01*
X218032842Y-105262525D01*
X217342455Y-104679109D01*
X217239996Y-104592525D01*
X218350307Y-104592525D01*
X218350307Y-104737475D01*
X218387823Y-104877485D01*
X218387824Y-104877488D01*
X218460295Y-105003011D01*
X218460297Y-105003013D01*
X218460298Y-105003015D01*
X218562792Y-105105509D01*
X218562793Y-105105510D01*
X218562795Y-105105511D01*
X218688318Y-105177982D01*
X218688319Y-105177982D01*
X218688322Y-105177984D01*
X218828332Y-105215500D01*
X218828335Y-105215500D01*
X218973279Y-105215500D01*
X218973282Y-105215500D01*
X219113292Y-105177984D01*
X219238822Y-105105509D01*
X219341316Y-105003015D01*
X219413791Y-104877485D01*
X219440576Y-104777525D01*
X223120307Y-104777525D01*
X223120307Y-104922475D01*
X223157823Y-105062485D01*
X223157824Y-105062488D01*
X223230295Y-105188011D01*
X223230297Y-105188013D01*
X223230298Y-105188015D01*
X223332792Y-105290509D01*
X223332793Y-105290510D01*
X223332795Y-105290511D01*
X223458318Y-105362982D01*
X223458319Y-105362982D01*
X223458322Y-105362984D01*
X223598332Y-105400500D01*
X223598335Y-105400500D01*
X223743279Y-105400500D01*
X223743282Y-105400500D01*
X223883292Y-105362984D01*
X224008822Y-105290509D01*
X224111316Y-105188015D01*
X224183791Y-105062485D01*
X224221307Y-104922475D01*
X224221307Y-104777525D01*
X224183791Y-104637515D01*
X224111316Y-104511985D01*
X224008822Y-104409491D01*
X224008820Y-104409490D01*
X224008818Y-104409488D01*
X223883295Y-104337017D01*
X223883296Y-104337017D01*
X223871813Y-104333940D01*
X223743282Y-104299500D01*
X223598332Y-104299500D01*
X223469800Y-104333940D01*
X223458318Y-104337017D01*
X223332795Y-104409488D01*
X223332789Y-104409493D01*
X223230300Y-104511982D01*
X223230295Y-104511988D01*
X223157824Y-104637511D01*
X223157823Y-104637515D01*
X223120307Y-104777525D01*
X219440576Y-104777525D01*
X219451307Y-104737475D01*
X219451307Y-104592525D01*
X219413791Y-104452515D01*
X219408288Y-104442984D01*
X219341318Y-104326988D01*
X219341313Y-104326982D01*
X219238824Y-104224493D01*
X219238818Y-104224488D01*
X219113295Y-104152017D01*
X219113296Y-104152017D01*
X219077722Y-104142485D01*
X218973282Y-104114500D01*
X218828332Y-104114500D01*
X218723892Y-104142485D01*
X218688318Y-104152017D01*
X218562795Y-104224488D01*
X218562789Y-104224493D01*
X218460300Y-104326982D01*
X218460295Y-104326988D01*
X218387824Y-104452511D01*
X218387823Y-104452515D01*
X218350307Y-104592525D01*
X217239996Y-104592525D01*
X217074580Y-104452739D01*
X217036080Y-104394433D01*
X217035216Y-104324569D01*
X217072259Y-104265328D01*
X217077643Y-104260880D01*
X217078012Y-104260510D01*
X217078015Y-104260509D01*
X217180509Y-104158015D01*
X217252984Y-104032485D01*
X217290500Y-103892475D01*
X217290500Y-103747525D01*
X217290500Y-103739398D01*
X217291860Y-103739398D01*
X217301306Y-103678814D01*
X217347684Y-103626556D01*
X217414952Y-103607669D01*
X217445566Y-103611883D01*
X217556434Y-103641591D01*
X217556437Y-103641591D01*
X217701381Y-103641591D01*
X217701384Y-103641591D01*
X217841394Y-103604075D01*
X217966924Y-103531600D01*
X218069418Y-103429106D01*
X218141893Y-103303576D01*
X218179409Y-103163566D01*
X218179409Y-103018616D01*
X218164379Y-102962525D01*
X221620307Y-102962525D01*
X221620307Y-103107475D01*
X221655286Y-103238017D01*
X221657824Y-103247488D01*
X221730295Y-103373011D01*
X221730297Y-103373013D01*
X221730298Y-103373015D01*
X221832792Y-103475509D01*
X221832793Y-103475510D01*
X221832795Y-103475511D01*
X221958318Y-103547982D01*
X221958319Y-103547982D01*
X221958322Y-103547984D01*
X222098332Y-103585500D01*
X222098335Y-103585500D01*
X222243279Y-103585500D01*
X222243282Y-103585500D01*
X222383292Y-103547984D01*
X222508822Y-103475509D01*
X222596806Y-103387525D01*
X224899500Y-103387525D01*
X224899500Y-103532475D01*
X224928738Y-103641591D01*
X224937017Y-103672488D01*
X225009488Y-103798011D01*
X225009490Y-103798013D01*
X225009491Y-103798015D01*
X225111985Y-103900509D01*
X225111986Y-103900510D01*
X225111988Y-103900511D01*
X225237511Y-103972982D01*
X225237512Y-103972982D01*
X225237515Y-103972984D01*
X225377525Y-104010500D01*
X225377528Y-104010500D01*
X225522472Y-104010500D01*
X225522475Y-104010500D01*
X225662485Y-103972984D01*
X225788015Y-103900509D01*
X225890509Y-103798015D01*
X225962984Y-103672485D01*
X226000500Y-103532475D01*
X226000500Y-103387525D01*
X225987102Y-103337525D01*
X226239500Y-103337525D01*
X226239500Y-103482475D01*
X226276565Y-103620802D01*
X226277017Y-103622488D01*
X226349488Y-103748011D01*
X226349490Y-103748013D01*
X226349491Y-103748015D01*
X226451985Y-103850509D01*
X226451986Y-103850510D01*
X226451988Y-103850511D01*
X226577511Y-103922982D01*
X226577512Y-103922982D01*
X226577515Y-103922984D01*
X226717525Y-103960500D01*
X226717528Y-103960500D01*
X226862472Y-103960500D01*
X226862475Y-103960500D01*
X227002485Y-103922984D01*
X227128015Y-103850509D01*
X227230509Y-103748015D01*
X227302984Y-103622485D01*
X227340500Y-103482475D01*
X227340500Y-103337525D01*
X227302984Y-103197515D01*
X227283383Y-103163566D01*
X227230511Y-103071988D01*
X227230506Y-103071982D01*
X227128017Y-102969493D01*
X227128011Y-102969488D01*
X227002488Y-102897017D01*
X227002489Y-102897017D01*
X226991006Y-102893940D01*
X226862475Y-102859500D01*
X226717525Y-102859500D01*
X226588993Y-102893940D01*
X226577511Y-102897017D01*
X226451988Y-102969488D01*
X226451982Y-102969493D01*
X226349493Y-103071982D01*
X226349488Y-103071988D01*
X226277017Y-103197511D01*
X226277016Y-103197515D01*
X226239500Y-103337525D01*
X225987102Y-103337525D01*
X225962984Y-103247515D01*
X225962968Y-103247488D01*
X225890511Y-103121988D01*
X225890506Y-103121982D01*
X225788017Y-103019493D01*
X225788011Y-103019488D01*
X225662488Y-102947017D01*
X225662489Y-102947017D01*
X225651006Y-102943940D01*
X225522475Y-102909500D01*
X225377525Y-102909500D01*
X225248993Y-102943940D01*
X225237511Y-102947017D01*
X225111988Y-103019488D01*
X225111982Y-103019493D01*
X225009493Y-103121982D01*
X225009488Y-103121988D01*
X224937017Y-103247511D01*
X224937016Y-103247515D01*
X224899500Y-103387525D01*
X222596806Y-103387525D01*
X222611316Y-103373015D01*
X222683791Y-103247485D01*
X222721307Y-103107475D01*
X222721307Y-102962525D01*
X222683791Y-102822515D01*
X222643700Y-102753076D01*
X222611318Y-102696988D01*
X222611313Y-102696982D01*
X222508824Y-102594493D01*
X222508818Y-102594488D01*
X222383295Y-102522017D01*
X222383296Y-102522017D01*
X222371813Y-102518940D01*
X222243282Y-102484500D01*
X222098332Y-102484500D01*
X221969800Y-102518940D01*
X221958318Y-102522017D01*
X221832795Y-102594488D01*
X221832789Y-102594493D01*
X221730300Y-102696982D01*
X221730295Y-102696988D01*
X221657824Y-102822511D01*
X221657823Y-102822515D01*
X221620307Y-102962525D01*
X218164379Y-102962525D01*
X218141893Y-102878606D01*
X218112402Y-102827527D01*
X218069420Y-102753079D01*
X218069415Y-102753073D01*
X217966926Y-102650584D01*
X217966920Y-102650579D01*
X217841397Y-102578108D01*
X217841398Y-102578108D01*
X217829915Y-102575031D01*
X217701384Y-102540591D01*
X217556434Y-102540591D01*
X217416424Y-102578107D01*
X217293854Y-102648872D01*
X217225957Y-102665345D01*
X217159929Y-102642493D01*
X217124469Y-102603485D01*
X217100509Y-102561985D01*
X216998015Y-102459491D01*
X216998013Y-102459490D01*
X216998011Y-102459488D01*
X216872488Y-102387017D01*
X216872489Y-102387017D01*
X216861006Y-102383940D01*
X216732475Y-102349500D01*
X216587525Y-102349500D01*
X216458993Y-102383940D01*
X216447511Y-102387017D01*
X216321988Y-102459488D01*
X216321982Y-102459493D01*
X216219493Y-102561982D01*
X216219488Y-102561988D01*
X216147017Y-102687511D01*
X216147016Y-102687515D01*
X216109500Y-102827525D01*
X216109500Y-102972475D01*
X216136164Y-103071985D01*
X216147017Y-103112488D01*
X216219488Y-103238011D01*
X216219493Y-103238017D01*
X216293794Y-103312318D01*
X216327279Y-103373641D01*
X216322295Y-103443333D01*
X216312388Y-103463887D01*
X216304548Y-103476927D01*
X216299491Y-103481985D01*
X216250583Y-103566695D01*
X216250004Y-103567659D01*
X216225071Y-103590604D01*
X216200548Y-103613987D01*
X216199430Y-103614202D01*
X216198592Y-103614974D01*
X216165181Y-103620802D01*
X216131940Y-103627209D01*
X216130884Y-103626786D01*
X216129762Y-103626982D01*
X216098494Y-103613818D01*
X216067076Y-103601240D01*
X216065432Y-103599899D01*
X216065366Y-103599872D01*
X216065325Y-103599812D01*
X216063693Y-103598482D01*
X214539563Y-102310506D01*
X213932526Y-101797525D01*
X223969500Y-101797525D01*
X223969500Y-101942475D01*
X224007016Y-102082485D01*
X224007017Y-102082488D01*
X224079488Y-102208011D01*
X224079490Y-102208013D01*
X224079491Y-102208015D01*
X224181985Y-102310509D01*
X224181986Y-102310510D01*
X224181988Y-102310511D01*
X224307511Y-102382982D01*
X224307512Y-102382982D01*
X224307515Y-102382984D01*
X224447525Y-102420500D01*
X224447528Y-102420500D01*
X224592472Y-102420500D01*
X224592475Y-102420500D01*
X224732485Y-102382984D01*
X224858015Y-102310509D01*
X224960509Y-102208015D01*
X225032984Y-102082485D01*
X225070500Y-101942475D01*
X225070500Y-101872149D01*
X236049500Y-101872149D01*
X236049500Y-102127850D01*
X236060055Y-102208017D01*
X236082874Y-102381340D01*
X236149050Y-102628312D01*
X236149053Y-102628322D01*
X236246894Y-102864531D01*
X236246899Y-102864542D01*
X236374734Y-103085957D01*
X236374745Y-103085973D01*
X236530388Y-103288811D01*
X236530394Y-103288818D01*
X236711181Y-103469605D01*
X236711188Y-103469611D01*
X236718877Y-103475511D01*
X236914035Y-103625261D01*
X236914042Y-103625265D01*
X237135457Y-103753100D01*
X237135462Y-103753102D01*
X237135465Y-103753104D01*
X237371687Y-103850950D01*
X237618660Y-103917126D01*
X237872157Y-103950500D01*
X237872164Y-103950500D01*
X238127836Y-103950500D01*
X238127843Y-103950500D01*
X238381340Y-103917126D01*
X238628313Y-103850950D01*
X238864535Y-103753104D01*
X239085965Y-103625261D01*
X239288813Y-103469610D01*
X239469610Y-103288813D01*
X239625261Y-103085965D01*
X239753104Y-102864535D01*
X239850950Y-102628313D01*
X239917126Y-102381340D01*
X239950500Y-102127843D01*
X239950500Y-101872157D01*
X239917126Y-101618660D01*
X239850950Y-101371687D01*
X239753104Y-101135465D01*
X239753102Y-101135462D01*
X239753100Y-101135457D01*
X239625265Y-100914042D01*
X239625261Y-100914035D01*
X239469610Y-100711187D01*
X239469605Y-100711181D01*
X239288818Y-100530394D01*
X239288811Y-100530388D01*
X239085973Y-100374745D01*
X239085971Y-100374743D01*
X239085965Y-100374739D01*
X239085960Y-100374736D01*
X239085957Y-100374734D01*
X238864542Y-100246899D01*
X238864531Y-100246894D01*
X238628322Y-100149053D01*
X238628315Y-100149051D01*
X238628313Y-100149050D01*
X238381340Y-100082874D01*
X238325007Y-100075457D01*
X238127850Y-100049500D01*
X238127843Y-100049500D01*
X237872157Y-100049500D01*
X237872149Y-100049500D01*
X237646826Y-100079165D01*
X237618660Y-100082874D01*
X237371687Y-100149050D01*
X237371677Y-100149053D01*
X237135468Y-100246894D01*
X237135457Y-100246899D01*
X236914042Y-100374734D01*
X236914026Y-100374745D01*
X236711188Y-100530388D01*
X236711181Y-100530394D01*
X236530394Y-100711181D01*
X236530388Y-100711188D01*
X236374745Y-100914026D01*
X236374734Y-100914042D01*
X236246899Y-101135457D01*
X236246894Y-101135468D01*
X236149053Y-101371677D01*
X236149050Y-101371687D01*
X236106099Y-101531985D01*
X236082874Y-101618661D01*
X236049500Y-101872149D01*
X225070500Y-101872149D01*
X225070500Y-101797525D01*
X225032984Y-101657515D01*
X224960509Y-101531985D01*
X224858015Y-101429491D01*
X224858013Y-101429490D01*
X224858011Y-101429488D01*
X224732488Y-101357017D01*
X224732489Y-101357017D01*
X224721006Y-101353940D01*
X224592475Y-101319500D01*
X224447525Y-101319500D01*
X224318993Y-101353940D01*
X224307511Y-101357017D01*
X224181988Y-101429488D01*
X224181982Y-101429493D01*
X224079493Y-101531982D01*
X224079488Y-101531988D01*
X224007017Y-101657511D01*
X224007016Y-101657515D01*
X223969500Y-101797525D01*
X213932526Y-101797525D01*
X212323167Y-100437525D01*
X214619500Y-100437525D01*
X214619500Y-100582475D01*
X214653987Y-100711181D01*
X214657017Y-100722488D01*
X214729488Y-100848011D01*
X214729490Y-100848013D01*
X214729491Y-100848015D01*
X214831985Y-100950509D01*
X214831986Y-100950510D01*
X214831988Y-100950511D01*
X214957511Y-101022982D01*
X214957512Y-101022982D01*
X214957515Y-101022984D01*
X215097525Y-101060500D01*
X215097528Y-101060500D01*
X215242472Y-101060500D01*
X215242475Y-101060500D01*
X215382485Y-101022984D01*
X215508015Y-100950509D01*
X215610509Y-100848015D01*
X215682984Y-100722485D01*
X215720500Y-100582475D01*
X215720500Y-100437525D01*
X215682984Y-100297515D01*
X215610509Y-100171985D01*
X215508015Y-100069491D01*
X215508013Y-100069490D01*
X215508011Y-100069488D01*
X215382488Y-99997017D01*
X215382489Y-99997017D01*
X215371006Y-99993940D01*
X215242475Y-99959500D01*
X215097525Y-99959500D01*
X214968993Y-99993940D01*
X214957511Y-99997017D01*
X214831988Y-100069488D01*
X214831982Y-100069493D01*
X214729493Y-100171982D01*
X214729488Y-100171988D01*
X214657017Y-100297511D01*
X214657016Y-100297515D01*
X214619500Y-100437525D01*
X212323167Y-100437525D01*
X211360138Y-99623711D01*
X211359756Y-99623132D01*
X211359124Y-99622845D01*
X211340518Y-99593997D01*
X211321640Y-99565406D01*
X211321505Y-99564518D01*
X211321255Y-99564129D01*
X211316175Y-99529208D01*
X211315897Y-99357525D01*
X211979500Y-99357525D01*
X211979500Y-99502475D01*
X212012997Y-99627485D01*
X212017017Y-99642488D01*
X212089488Y-99768011D01*
X212089490Y-99768013D01*
X212089491Y-99768015D01*
X212191985Y-99870509D01*
X212191986Y-99870510D01*
X212191988Y-99870511D01*
X212317511Y-99942982D01*
X212317512Y-99942982D01*
X212317515Y-99942984D01*
X212457525Y-99980500D01*
X212457528Y-99980500D01*
X212602472Y-99980500D01*
X212602475Y-99980500D01*
X212742485Y-99942984D01*
X212868015Y-99870509D01*
X212970509Y-99768015D01*
X213042984Y-99642485D01*
X213080500Y-99502475D01*
X213080500Y-99357525D01*
X213042984Y-99217515D01*
X213034321Y-99202511D01*
X212970511Y-99091988D01*
X212970506Y-99091982D01*
X212868017Y-98989493D01*
X212868011Y-98989488D01*
X212742488Y-98917017D01*
X212742489Y-98917017D01*
X212731006Y-98913940D01*
X212602475Y-98879500D01*
X212457525Y-98879500D01*
X212328993Y-98913940D01*
X212317511Y-98917017D01*
X212191988Y-98989488D01*
X212191982Y-98989493D01*
X212089493Y-99091982D01*
X212089488Y-99091988D01*
X212017017Y-99217511D01*
X212017016Y-99217515D01*
X211979500Y-99357525D01*
X211315897Y-99357525D01*
X211312869Y-97487525D01*
X214790307Y-97487525D01*
X214790307Y-97632475D01*
X214827823Y-97772485D01*
X214827824Y-97772488D01*
X214900295Y-97898011D01*
X214900297Y-97898013D01*
X214900298Y-97898015D01*
X215002792Y-98000509D01*
X215002793Y-98000510D01*
X215002795Y-98000511D01*
X215128318Y-98072982D01*
X215128319Y-98072982D01*
X215128322Y-98072984D01*
X215268332Y-98110500D01*
X215268335Y-98110500D01*
X215413279Y-98110500D01*
X215413282Y-98110500D01*
X215553292Y-98072984D01*
X215553294Y-98072982D01*
X215553296Y-98072982D01*
X215553297Y-98072981D01*
X215650338Y-98016953D01*
X215718238Y-98000480D01*
X215784265Y-98023332D01*
X215827456Y-98078253D01*
X215834098Y-98147806D01*
X215819726Y-98186340D01*
X215752421Y-98302915D01*
X215714563Y-98444201D01*
X215678197Y-98503862D01*
X215626882Y-98531881D01*
X215607494Y-98537077D01*
X215497511Y-98566547D01*
X215371988Y-98639018D01*
X215371982Y-98639023D01*
X215269493Y-98741512D01*
X215269488Y-98741518D01*
X215197017Y-98867041D01*
X215197016Y-98867045D01*
X215159500Y-99007055D01*
X215159500Y-99152005D01*
X215177054Y-99217515D01*
X215197017Y-99292018D01*
X215269488Y-99417541D01*
X215269490Y-99417543D01*
X215269491Y-99417545D01*
X215371985Y-99520039D01*
X215371986Y-99520040D01*
X215371988Y-99520041D01*
X215497511Y-99592512D01*
X215497512Y-99592512D01*
X215497515Y-99592514D01*
X215637525Y-99630030D01*
X215637528Y-99630030D01*
X215782472Y-99630030D01*
X215782475Y-99630030D01*
X215922485Y-99592514D01*
X216048015Y-99520039D01*
X216150509Y-99417545D01*
X216222984Y-99292015D01*
X216260500Y-99152005D01*
X216260500Y-99152000D01*
X216260840Y-99150732D01*
X216267088Y-99140480D01*
X216269079Y-99128645D01*
X216284933Y-99111203D01*
X216297205Y-99091072D01*
X216309177Y-99084534D01*
X216316077Y-99076945D01*
X216348514Y-99063054D01*
X216368055Y-99057818D01*
X216437902Y-99059481D01*
X216495764Y-99098644D01*
X216523268Y-99162872D01*
X216519920Y-99209686D01*
X216492365Y-99312525D01*
X216480307Y-99357525D01*
X216480307Y-99502475D01*
X216513804Y-99627485D01*
X216517824Y-99642488D01*
X216590295Y-99768011D01*
X216590297Y-99768013D01*
X216590298Y-99768015D01*
X216692792Y-99870509D01*
X216692793Y-99870510D01*
X216692795Y-99870511D01*
X216818318Y-99942982D01*
X216818319Y-99942982D01*
X216818322Y-99942984D01*
X216958332Y-99980500D01*
X216958335Y-99980500D01*
X217103279Y-99980500D01*
X217103282Y-99980500D01*
X217243292Y-99942984D01*
X217368822Y-99870509D01*
X217471316Y-99768015D01*
X217543791Y-99642485D01*
X217581307Y-99502475D01*
X217581307Y-99427525D01*
X220364882Y-99427525D01*
X220364882Y-99572475D01*
X220392652Y-99676112D01*
X220402399Y-99712488D01*
X220474870Y-99838011D01*
X220474872Y-99838013D01*
X220474873Y-99838015D01*
X220577367Y-99940509D01*
X220577368Y-99940510D01*
X220577370Y-99940511D01*
X220702893Y-100012982D01*
X220702894Y-100012982D01*
X220702897Y-100012984D01*
X220842907Y-100050500D01*
X220842910Y-100050500D01*
X220987854Y-100050500D01*
X220987857Y-100050500D01*
X221127867Y-100012984D01*
X221253397Y-99940509D01*
X221355891Y-99838015D01*
X221428366Y-99712485D01*
X221465882Y-99572475D01*
X221465882Y-99427525D01*
X221435067Y-99312525D01*
X221720307Y-99312525D01*
X221720307Y-99457475D01*
X221757823Y-99597485D01*
X221757824Y-99597488D01*
X221830295Y-99723011D01*
X221830297Y-99723013D01*
X221830298Y-99723015D01*
X221932792Y-99825509D01*
X221932793Y-99825510D01*
X221932795Y-99825511D01*
X222058318Y-99897982D01*
X222058319Y-99897982D01*
X222058322Y-99897984D01*
X222198332Y-99935500D01*
X222198335Y-99935500D01*
X222343279Y-99935500D01*
X222343282Y-99935500D01*
X222483292Y-99897984D01*
X222608822Y-99825509D01*
X222660626Y-99773705D01*
X222721949Y-99740220D01*
X222791641Y-99745204D01*
X222825345Y-99766865D01*
X222826346Y-99765562D01*
X222832795Y-99770511D01*
X222958318Y-99842982D01*
X222958319Y-99842982D01*
X222958322Y-99842984D01*
X223098332Y-99880500D01*
X223098335Y-99880500D01*
X223243279Y-99880500D01*
X223243282Y-99880500D01*
X223383292Y-99842984D01*
X223425767Y-99818460D01*
X223493666Y-99801987D01*
X223559693Y-99824838D01*
X223575449Y-99838166D01*
X223592792Y-99855509D01*
X223592793Y-99855510D01*
X223592795Y-99855511D01*
X223718318Y-99927982D01*
X223718319Y-99927982D01*
X223718322Y-99927984D01*
X223858332Y-99965500D01*
X223858335Y-99965500D01*
X224003279Y-99965500D01*
X224003282Y-99965500D01*
X224143292Y-99927984D01*
X224268822Y-99855509D01*
X224371316Y-99753015D01*
X224443791Y-99627485D01*
X224481307Y-99487475D01*
X224481307Y-99342525D01*
X224443791Y-99202515D01*
X224426470Y-99172515D01*
X224371318Y-99076988D01*
X224371313Y-99076982D01*
X224268824Y-98974493D01*
X224268818Y-98974488D01*
X224143295Y-98902017D01*
X224143296Y-98902017D01*
X224131813Y-98898940D01*
X224003282Y-98864500D01*
X223858332Y-98864500D01*
X223778385Y-98885922D01*
X223718320Y-98902016D01*
X223718317Y-98902018D01*
X223675843Y-98926540D01*
X223607943Y-98943011D01*
X223541916Y-98920158D01*
X223526164Y-98906833D01*
X223508824Y-98889493D01*
X223508818Y-98889488D01*
X223383295Y-98817017D01*
X223383296Y-98817017D01*
X223368028Y-98812926D01*
X223243282Y-98779500D01*
X223098332Y-98779500D01*
X222973586Y-98812926D01*
X222958318Y-98817017D01*
X222832795Y-98889488D01*
X222832792Y-98889491D01*
X222780986Y-98941296D01*
X222719662Y-98974780D01*
X222649970Y-98969794D01*
X222616268Y-98948134D01*
X222615268Y-98949438D01*
X222608818Y-98944488D01*
X222483295Y-98872017D01*
X222483296Y-98872017D01*
X222455242Y-98864500D01*
X222343282Y-98834500D01*
X222198332Y-98834500D01*
X222086372Y-98864500D01*
X222058318Y-98872017D01*
X221932795Y-98944488D01*
X221932789Y-98944493D01*
X221830300Y-99046982D01*
X221830295Y-99046988D01*
X221757824Y-99172511D01*
X221757823Y-99172515D01*
X221720307Y-99312525D01*
X221435067Y-99312525D01*
X221428366Y-99287515D01*
X221387951Y-99217515D01*
X221355893Y-99161988D01*
X221355888Y-99161982D01*
X221253399Y-99059493D01*
X221253393Y-99059488D01*
X221127870Y-98987017D01*
X221127871Y-98987017D01*
X221116388Y-98983940D01*
X220987857Y-98949500D01*
X220842907Y-98949500D01*
X220714375Y-98983940D01*
X220702893Y-98987017D01*
X220577370Y-99059488D01*
X220577364Y-99059493D01*
X220474875Y-99161982D01*
X220474870Y-99161988D01*
X220402399Y-99287511D01*
X220402398Y-99287515D01*
X220364882Y-99427525D01*
X217581307Y-99427525D01*
X217581307Y-99357525D01*
X217543791Y-99217515D01*
X217535128Y-99202511D01*
X217471318Y-99091988D01*
X217471313Y-99091982D01*
X217368824Y-98989493D01*
X217368818Y-98989488D01*
X217243295Y-98917017D01*
X217243296Y-98917017D01*
X217231813Y-98913940D01*
X217103282Y-98879500D01*
X216958332Y-98879500D01*
X216958330Y-98879500D01*
X216928157Y-98887585D01*
X216926133Y-98887536D01*
X216924372Y-98888536D01*
X216891358Y-98886708D01*
X216858307Y-98885922D01*
X216856629Y-98884786D01*
X216854609Y-98884675D01*
X216827827Y-98865292D01*
X216800445Y-98846758D01*
X216799648Y-98844897D01*
X216798008Y-98843710D01*
X216785957Y-98812926D01*
X216772942Y-98782530D01*
X216773044Y-98779937D01*
X216772540Y-98778648D01*
X216773555Y-98767019D01*
X216774490Y-98743408D01*
X216777187Y-98729968D01*
X216778388Y-98727889D01*
X216815904Y-98587879D01*
X216815904Y-98557525D01*
X227299500Y-98557525D01*
X227299500Y-98702475D01*
X227337016Y-98842485D01*
X227337017Y-98842488D01*
X227409488Y-98968011D01*
X227409490Y-98968013D01*
X227409491Y-98968015D01*
X227511985Y-99070509D01*
X227511986Y-99070510D01*
X227511988Y-99070511D01*
X227637511Y-99142982D01*
X227637512Y-99142982D01*
X227637515Y-99142984D01*
X227777525Y-99180500D01*
X227777528Y-99180500D01*
X227922472Y-99180500D01*
X227922475Y-99180500D01*
X228062485Y-99142984D01*
X228188015Y-99070509D01*
X228290509Y-98968015D01*
X228362984Y-98842485D01*
X228400500Y-98702475D01*
X228400500Y-98557525D01*
X228362984Y-98417515D01*
X228308112Y-98322475D01*
X228290511Y-98291988D01*
X228290506Y-98291982D01*
X228188017Y-98189493D01*
X228188011Y-98189488D01*
X228167291Y-98177525D01*
X228699500Y-98177525D01*
X228699500Y-98322475D01*
X228732117Y-98444201D01*
X228737017Y-98462488D01*
X228809488Y-98588011D01*
X228809490Y-98588013D01*
X228809491Y-98588015D01*
X228911985Y-98690509D01*
X228911986Y-98690510D01*
X228911988Y-98690511D01*
X229037511Y-98762982D01*
X229037512Y-98762982D01*
X229037515Y-98762984D01*
X229177525Y-98800500D01*
X229177528Y-98800500D01*
X229322472Y-98800500D01*
X229322475Y-98800500D01*
X229462485Y-98762984D01*
X229588015Y-98690509D01*
X229690509Y-98588015D01*
X229762984Y-98462485D01*
X229800500Y-98322475D01*
X229800500Y-98177525D01*
X229762984Y-98037515D01*
X229754795Y-98023332D01*
X229690511Y-97911988D01*
X229690506Y-97911982D01*
X229588017Y-97809493D01*
X229588011Y-97809488D01*
X229462488Y-97737017D01*
X229462489Y-97737017D01*
X229451006Y-97733940D01*
X229322475Y-97699500D01*
X229177525Y-97699500D01*
X229048993Y-97733940D01*
X229037511Y-97737017D01*
X228911988Y-97809488D01*
X228911982Y-97809493D01*
X228809493Y-97911982D01*
X228809488Y-97911988D01*
X228737017Y-98037511D01*
X228737016Y-98037515D01*
X228699500Y-98177525D01*
X228167291Y-98177525D01*
X228062488Y-98117017D01*
X228062489Y-98117017D01*
X228038167Y-98110500D01*
X227922475Y-98079500D01*
X227777525Y-98079500D01*
X227661833Y-98110500D01*
X227637511Y-98117017D01*
X227511988Y-98189488D01*
X227511982Y-98189493D01*
X227409493Y-98291982D01*
X227409488Y-98291988D01*
X227337017Y-98417511D01*
X227337016Y-98417515D01*
X227299500Y-98557525D01*
X216815904Y-98557525D01*
X216815904Y-98442929D01*
X216778388Y-98302919D01*
X216772075Y-98291985D01*
X216705915Y-98177392D01*
X216705910Y-98177386D01*
X216603421Y-98074897D01*
X216603415Y-98074892D01*
X216477892Y-98002421D01*
X216477893Y-98002421D01*
X216463752Y-97998632D01*
X216337879Y-97964904D01*
X216192929Y-97964904D01*
X216067056Y-97998632D01*
X216052915Y-98002421D01*
X215955871Y-98058450D01*
X215923596Y-98066280D01*
X215891604Y-98075042D01*
X215889805Y-98074477D01*
X215887971Y-98074923D01*
X215856609Y-98064068D01*
X215824936Y-98054136D01*
X215823725Y-98052686D01*
X215821944Y-98052070D01*
X215801429Y-98025983D01*
X215780154Y-98000504D01*
X215779919Y-97998632D01*
X215778753Y-97997149D01*
X215775598Y-97964106D01*
X215771476Y-97931175D01*
X215772247Y-97929011D01*
X215772112Y-97927596D01*
X215782037Y-97897498D01*
X215784093Y-97893203D01*
X215853791Y-97772485D01*
X215855120Y-97767525D01*
X220840307Y-97767525D01*
X220840307Y-97912475D01*
X220870722Y-98025983D01*
X220877824Y-98052488D01*
X220950295Y-98178011D01*
X220950297Y-98178013D01*
X220950298Y-98178015D01*
X221052792Y-98280509D01*
X221052793Y-98280510D01*
X221052795Y-98280511D01*
X221178318Y-98352982D01*
X221178319Y-98352982D01*
X221178322Y-98352984D01*
X221318332Y-98390500D01*
X221318335Y-98390500D01*
X221463279Y-98390500D01*
X221463282Y-98390500D01*
X221603292Y-98352984D01*
X221728822Y-98280509D01*
X221831316Y-98178015D01*
X221903791Y-98052485D01*
X221941307Y-97912475D01*
X221941307Y-97767525D01*
X221924310Y-97704092D01*
X221924905Y-97679098D01*
X221921347Y-97654353D01*
X221925722Y-97644772D01*
X221925973Y-97634244D01*
X221939985Y-97613539D01*
X221950372Y-97590797D01*
X221959231Y-97585103D01*
X221965135Y-97576381D01*
X221988118Y-97566539D01*
X222009150Y-97553023D01*
X222025005Y-97550743D01*
X222029364Y-97548877D01*
X222044085Y-97548000D01*
X222157529Y-97548000D01*
X222224568Y-97567685D01*
X222270323Y-97620489D01*
X222280267Y-97689647D01*
X222277305Y-97704085D01*
X222260307Y-97767525D01*
X222260307Y-97912475D01*
X222290722Y-98025983D01*
X222297824Y-98052488D01*
X222370295Y-98178011D01*
X222370297Y-98178013D01*
X222370298Y-98178015D01*
X222472792Y-98280509D01*
X222472793Y-98280510D01*
X222472795Y-98280511D01*
X222598318Y-98352982D01*
X222598319Y-98352982D01*
X222598322Y-98352984D01*
X222738332Y-98390500D01*
X222738335Y-98390500D01*
X222883279Y-98390500D01*
X222883282Y-98390500D01*
X223023292Y-98352984D01*
X223148822Y-98280509D01*
X223251316Y-98178015D01*
X223323791Y-98052485D01*
X223361307Y-97912475D01*
X223361307Y-97767525D01*
X223323791Y-97627515D01*
X223299304Y-97585103D01*
X223251318Y-97501988D01*
X223251313Y-97501982D01*
X223148824Y-97399493D01*
X223148818Y-97399488D01*
X223023295Y-97327017D01*
X223023296Y-97327017D01*
X223011813Y-97323940D01*
X222883282Y-97289500D01*
X222774085Y-97289500D01*
X222707046Y-97269815D01*
X222661291Y-97217011D01*
X222651347Y-97147853D01*
X222654308Y-97133414D01*
X222671307Y-97069975D01*
X222671307Y-96925025D01*
X222658329Y-96876591D01*
X222659992Y-96806744D01*
X222699154Y-96748882D01*
X222763382Y-96721377D01*
X222778104Y-96720500D01*
X222893279Y-96720500D01*
X222893282Y-96720500D01*
X222941705Y-96707525D01*
X230079500Y-96707525D01*
X230079500Y-96852475D01*
X230117016Y-96992485D01*
X230117017Y-96992488D01*
X230189488Y-97118011D01*
X230189490Y-97118013D01*
X230189491Y-97118015D01*
X230291985Y-97220509D01*
X230291986Y-97220510D01*
X230291988Y-97220511D01*
X230417511Y-97292982D01*
X230417512Y-97292982D01*
X230417515Y-97292984D01*
X230557525Y-97330500D01*
X230557528Y-97330500D01*
X230702472Y-97330500D01*
X230702475Y-97330500D01*
X230842485Y-97292984D01*
X230968015Y-97220509D01*
X231070509Y-97118015D01*
X231142984Y-96992485D01*
X231180500Y-96852475D01*
X231180500Y-96707525D01*
X231142984Y-96567515D01*
X231139791Y-96561985D01*
X231070511Y-96441988D01*
X231070506Y-96441982D01*
X230968017Y-96339493D01*
X230968011Y-96339488D01*
X230842488Y-96267017D01*
X230842489Y-96267017D01*
X230831006Y-96263940D01*
X230702475Y-96229500D01*
X230557525Y-96229500D01*
X230428993Y-96263940D01*
X230417511Y-96267017D01*
X230291988Y-96339488D01*
X230291982Y-96339493D01*
X230189493Y-96441982D01*
X230189488Y-96441988D01*
X230117017Y-96567511D01*
X230117016Y-96567515D01*
X230079500Y-96707525D01*
X222941705Y-96707525D01*
X223033292Y-96682984D01*
X223158822Y-96610509D01*
X223261316Y-96508015D01*
X223333791Y-96382485D01*
X223371307Y-96242475D01*
X223371307Y-96097525D01*
X223333791Y-95957515D01*
X223333789Y-95957511D01*
X223266751Y-95841398D01*
X223264876Y-95838152D01*
X223261316Y-95831985D01*
X223216856Y-95787525D01*
X228729500Y-95787525D01*
X228729500Y-95932475D01*
X228761128Y-96050511D01*
X228767017Y-96072488D01*
X228839488Y-96198011D01*
X228839490Y-96198013D01*
X228839491Y-96198015D01*
X228941985Y-96300509D01*
X228941986Y-96300510D01*
X228941988Y-96300511D01*
X229067511Y-96372982D01*
X229067512Y-96372982D01*
X229067515Y-96372984D01*
X229207525Y-96410500D01*
X229207528Y-96410500D01*
X229352472Y-96410500D01*
X229352475Y-96410500D01*
X229492485Y-96372984D01*
X229618015Y-96300509D01*
X229720509Y-96198015D01*
X229792984Y-96072485D01*
X229825839Y-95949867D01*
X229862202Y-95890211D01*
X229913519Y-95862190D01*
X229916094Y-95861500D01*
X229916100Y-95861500D01*
X230056110Y-95823984D01*
X230181640Y-95751509D01*
X230284134Y-95649015D01*
X230356609Y-95523485D01*
X230394125Y-95383475D01*
X230394125Y-95238525D01*
X230356609Y-95098515D01*
X230331779Y-95055509D01*
X230284136Y-94972988D01*
X230284131Y-94972982D01*
X230181642Y-94870493D01*
X230181636Y-94870488D01*
X230056114Y-94798017D01*
X230006534Y-94784732D01*
X229952900Y-94770360D01*
X229893241Y-94733995D01*
X229862713Y-94671148D01*
X229865222Y-94618491D01*
X229865492Y-94617485D01*
X229880500Y-94561475D01*
X229880500Y-94416525D01*
X229842984Y-94276515D01*
X229842982Y-94276511D01*
X229842982Y-94276510D01*
X229842981Y-94276509D01*
X229825038Y-94245431D01*
X229808564Y-94177531D01*
X229831416Y-94111504D01*
X229886336Y-94068313D01*
X229914767Y-94060876D01*
X229916170Y-94060500D01*
X229916175Y-94060500D01*
X230056185Y-94022984D01*
X230181715Y-93950509D01*
X230284209Y-93848015D01*
X230356684Y-93722485D01*
X230394200Y-93582475D01*
X230394200Y-93437525D01*
X230356684Y-93297515D01*
X230324535Y-93241832D01*
X230284211Y-93171988D01*
X230284206Y-93171982D01*
X230181717Y-93069493D01*
X230181711Y-93069488D01*
X230056188Y-92997017D01*
X230056189Y-92997017D01*
X230044706Y-92993940D01*
X229916175Y-92959500D01*
X229771225Y-92959500D01*
X229642693Y-92993940D01*
X229631211Y-92997017D01*
X229505688Y-93069488D01*
X229505682Y-93069493D01*
X229403193Y-93171982D01*
X229403188Y-93171988D01*
X229330717Y-93297511D01*
X229330716Y-93297515D01*
X229293200Y-93437525D01*
X229293200Y-93582475D01*
X229330716Y-93722485D01*
X229330717Y-93722486D01*
X229348662Y-93753568D01*
X229365135Y-93821469D01*
X229342283Y-93887496D01*
X229287362Y-93930686D01*
X229258765Y-93938168D01*
X229257526Y-93938500D01*
X229257525Y-93938500D01*
X229212700Y-93950511D01*
X229117511Y-93976017D01*
X228991988Y-94048488D01*
X228991982Y-94048493D01*
X228889493Y-94150982D01*
X228889488Y-94150988D01*
X228817017Y-94276511D01*
X228817016Y-94276515D01*
X228779500Y-94416525D01*
X228779500Y-94561475D01*
X228808887Y-94671148D01*
X228817017Y-94701488D01*
X228889488Y-94827011D01*
X228889490Y-94827013D01*
X228889491Y-94827015D01*
X228991985Y-94929509D01*
X228991986Y-94929510D01*
X228991988Y-94929511D01*
X229117511Y-95001982D01*
X229117512Y-95001982D01*
X229117515Y-95001984D01*
X229220723Y-95029638D01*
X229228451Y-95034349D01*
X229237440Y-95035424D01*
X229257818Y-95052249D01*
X229280382Y-95066003D01*
X229284337Y-95074145D01*
X229291318Y-95079909D01*
X229299364Y-95105081D01*
X229310911Y-95128850D01*
X229310399Y-95139597D01*
X229312593Y-95146461D01*
X229308403Y-95181505D01*
X229297787Y-95221126D01*
X229261423Y-95280787D01*
X229210106Y-95308809D01*
X229207527Y-95309500D01*
X229207525Y-95309500D01*
X229083104Y-95342838D01*
X229067511Y-95347017D01*
X228941988Y-95419488D01*
X228941982Y-95419493D01*
X228839493Y-95521982D01*
X228839488Y-95521988D01*
X228767017Y-95647511D01*
X228764470Y-95657016D01*
X228729500Y-95787525D01*
X223216856Y-95787525D01*
X223158822Y-95729491D01*
X223158820Y-95729490D01*
X223158818Y-95729488D01*
X223033295Y-95657017D01*
X223033296Y-95657017D01*
X223021813Y-95653940D01*
X222893282Y-95619500D01*
X222748332Y-95619500D01*
X222619800Y-95653940D01*
X222608318Y-95657017D01*
X222482795Y-95729488D01*
X222482789Y-95729493D01*
X222380300Y-95831982D01*
X222380295Y-95831988D01*
X222307824Y-95957511D01*
X222307823Y-95957515D01*
X222270307Y-96097525D01*
X222270307Y-96242475D01*
X222283284Y-96290908D01*
X222282689Y-96315901D01*
X222286248Y-96340647D01*
X222281872Y-96350227D01*
X222281622Y-96360756D01*
X222267609Y-96381459D01*
X222257223Y-96404203D01*
X222248362Y-96409897D01*
X222242460Y-96418618D01*
X222219479Y-96428459D01*
X222198445Y-96441977D01*
X222182590Y-96444256D01*
X222178232Y-96446123D01*
X222163510Y-96447000D01*
X222058104Y-96447000D01*
X221991065Y-96427315D01*
X221945310Y-96374511D01*
X221935366Y-96305353D01*
X221938326Y-96290918D01*
X221951307Y-96242475D01*
X221951307Y-96097525D01*
X221913791Y-95957515D01*
X221909378Y-95949872D01*
X221841318Y-95831988D01*
X221841313Y-95831982D01*
X221738824Y-95729493D01*
X221738818Y-95729488D01*
X221613295Y-95657017D01*
X221613296Y-95657017D01*
X221601813Y-95653940D01*
X221473282Y-95619500D01*
X221328332Y-95619500D01*
X221199800Y-95653940D01*
X221188318Y-95657017D01*
X221062795Y-95729488D01*
X221062789Y-95729493D01*
X220960300Y-95831982D01*
X220960295Y-95831988D01*
X220887824Y-95957511D01*
X220887823Y-95957515D01*
X220850307Y-96097525D01*
X220850307Y-96242475D01*
X220887533Y-96381401D01*
X220887824Y-96382488D01*
X220960295Y-96508011D01*
X220960297Y-96508013D01*
X220960298Y-96508015D01*
X221062792Y-96610509D01*
X221062793Y-96610510D01*
X221062795Y-96610511D01*
X221188318Y-96682982D01*
X221188319Y-96682982D01*
X221188322Y-96682984D01*
X221328332Y-96720500D01*
X221328335Y-96720500D01*
X221463510Y-96720500D01*
X221530549Y-96740185D01*
X221576304Y-96792989D01*
X221586248Y-96862147D01*
X221583287Y-96876581D01*
X221570307Y-96925025D01*
X221570307Y-97069975D01*
X221587303Y-97133407D01*
X221585641Y-97203256D01*
X221546479Y-97261119D01*
X221482250Y-97288623D01*
X221467529Y-97289500D01*
X221463282Y-97289500D01*
X221318332Y-97289500D01*
X221189800Y-97323940D01*
X221178318Y-97327017D01*
X221052795Y-97399488D01*
X221052789Y-97399493D01*
X220950300Y-97501982D01*
X220950295Y-97501988D01*
X220877824Y-97627511D01*
X220877823Y-97627515D01*
X220840307Y-97767525D01*
X215855120Y-97767525D01*
X215891307Y-97632475D01*
X215891307Y-97487525D01*
X215853791Y-97347515D01*
X215843967Y-97330500D01*
X215781318Y-97221988D01*
X215781313Y-97221982D01*
X215678824Y-97119493D01*
X215678818Y-97119488D01*
X215553295Y-97047017D01*
X215553296Y-97047017D01*
X215541813Y-97043940D01*
X215413282Y-97009500D01*
X215268332Y-97009500D01*
X215139800Y-97043940D01*
X215128318Y-97047017D01*
X215002795Y-97119488D01*
X215002789Y-97119493D01*
X214900300Y-97221982D01*
X214900295Y-97221988D01*
X214827824Y-97347511D01*
X214827823Y-97347515D01*
X214790307Y-97487525D01*
X211312869Y-97487525D01*
X211312755Y-97417328D01*
X211332330Y-97350262D01*
X211349073Y-97329451D01*
X211389901Y-97288623D01*
X211440509Y-97238015D01*
X211512984Y-97112485D01*
X211550500Y-96972475D01*
X211550500Y-96827525D01*
X211512984Y-96687515D01*
X211495953Y-96658017D01*
X211440511Y-96561988D01*
X211440510Y-96561987D01*
X211440509Y-96561985D01*
X211347394Y-96468870D01*
X211332736Y-96442025D01*
X211316156Y-96416317D01*
X211315232Y-96409968D01*
X211313910Y-96407546D01*
X211311077Y-96381401D01*
X211310860Y-96247525D01*
X212609500Y-96247525D01*
X212609500Y-96392475D01*
X212640460Y-96508017D01*
X212647017Y-96532488D01*
X212719488Y-96658011D01*
X212719490Y-96658013D01*
X212719491Y-96658015D01*
X212821985Y-96760509D01*
X212821986Y-96760510D01*
X212821988Y-96760511D01*
X212947511Y-96832982D01*
X212947512Y-96832982D01*
X212947515Y-96832984D01*
X213087525Y-96870500D01*
X213087528Y-96870500D01*
X213232472Y-96870500D01*
X213232475Y-96870500D01*
X213372485Y-96832984D01*
X213498015Y-96760509D01*
X213600509Y-96658015D01*
X213672984Y-96532485D01*
X213710500Y-96392475D01*
X213710500Y-96247525D01*
X213672984Y-96107515D01*
X213667217Y-96097527D01*
X213600511Y-95981988D01*
X213600506Y-95981982D01*
X213498017Y-95879493D01*
X213498011Y-95879488D01*
X213372488Y-95807017D01*
X213372489Y-95807017D01*
X213361006Y-95803940D01*
X213232475Y-95769500D01*
X213087525Y-95769500D01*
X212958993Y-95803940D01*
X212947511Y-95807017D01*
X212821988Y-95879488D01*
X212821982Y-95879493D01*
X212719493Y-95981982D01*
X212719488Y-95981988D01*
X212647017Y-96107511D01*
X212647016Y-96107515D01*
X212609500Y-96247525D01*
X211310860Y-96247525D01*
X211309710Y-95537525D01*
X216309500Y-95537525D01*
X216309500Y-95682475D01*
X216347016Y-95822485D01*
X216347017Y-95822488D01*
X216419488Y-95948011D01*
X216419490Y-95948013D01*
X216419491Y-95948015D01*
X216521985Y-96050509D01*
X216521986Y-96050510D01*
X216521988Y-96050511D01*
X216647511Y-96122982D01*
X216647512Y-96122982D01*
X216647515Y-96122984D01*
X216787525Y-96160500D01*
X216787528Y-96160500D01*
X216932472Y-96160500D01*
X216932475Y-96160500D01*
X217072485Y-96122984D01*
X217198015Y-96050509D01*
X217300509Y-95948015D01*
X217372984Y-95822485D01*
X217410500Y-95682475D01*
X217410500Y-95537525D01*
X217372984Y-95397515D01*
X217364876Y-95383472D01*
X217300511Y-95271988D01*
X217300506Y-95271982D01*
X217198017Y-95169493D01*
X217198011Y-95169488D01*
X217072488Y-95097017D01*
X217072489Y-95097017D01*
X217061006Y-95093940D01*
X216932475Y-95059500D01*
X216787525Y-95059500D01*
X216658993Y-95093940D01*
X216647511Y-95097017D01*
X216521988Y-95169488D01*
X216521982Y-95169493D01*
X216419493Y-95271982D01*
X216419488Y-95271988D01*
X216347017Y-95397511D01*
X216347016Y-95397515D01*
X216309500Y-95537525D01*
X211309710Y-95537525D01*
X211307758Y-94332525D01*
X214780307Y-94332525D01*
X214780307Y-94477475D01*
X214817823Y-94617485D01*
X214817824Y-94617488D01*
X214890295Y-94743011D01*
X214890297Y-94743013D01*
X214890298Y-94743015D01*
X214992792Y-94845509D01*
X214992793Y-94845510D01*
X214992795Y-94845511D01*
X215118318Y-94917982D01*
X215118319Y-94917982D01*
X215118322Y-94917984D01*
X215258332Y-94955500D01*
X215258335Y-94955500D01*
X215403279Y-94955500D01*
X215403282Y-94955500D01*
X215543292Y-94917984D01*
X215668822Y-94845509D01*
X215771316Y-94743015D01*
X215843791Y-94617485D01*
X215870576Y-94517525D01*
X219300307Y-94517525D01*
X219300307Y-94662475D01*
X219329523Y-94771509D01*
X219337824Y-94802488D01*
X219410295Y-94928011D01*
X219410297Y-94928013D01*
X219410298Y-94928015D01*
X219512792Y-95030509D01*
X219512793Y-95030510D01*
X219512795Y-95030511D01*
X219638318Y-95102982D01*
X219638319Y-95102982D01*
X219638322Y-95102984D01*
X219778332Y-95140500D01*
X219778335Y-95140500D01*
X219923279Y-95140500D01*
X219923282Y-95140500D01*
X220063292Y-95102984D01*
X220188822Y-95030509D01*
X220188826Y-95030504D01*
X220195268Y-95025562D01*
X220197438Y-95028389D01*
X220244449Y-95002720D01*
X220314141Y-95007704D01*
X220344886Y-95027463D01*
X220346346Y-95025562D01*
X220352795Y-95030511D01*
X220478318Y-95102982D01*
X220478319Y-95102982D01*
X220478322Y-95102984D01*
X220618332Y-95140500D01*
X220618335Y-95140500D01*
X220763279Y-95140500D01*
X220763282Y-95140500D01*
X220903292Y-95102984D01*
X221028822Y-95030509D01*
X221131316Y-94928015D01*
X221186203Y-94832947D01*
X221236770Y-94784732D01*
X221305377Y-94771509D01*
X221370242Y-94797477D01*
X221400977Y-94832948D01*
X221470298Y-94953015D01*
X221572792Y-95055509D01*
X221572793Y-95055510D01*
X221572795Y-95055511D01*
X221698318Y-95127982D01*
X221698319Y-95127982D01*
X221698322Y-95127984D01*
X221838332Y-95165500D01*
X221838335Y-95165500D01*
X221983279Y-95165500D01*
X221983282Y-95165500D01*
X222123292Y-95127984D01*
X222248822Y-95055509D01*
X222351316Y-94953015D01*
X222423791Y-94827485D01*
X222461307Y-94687475D01*
X222461307Y-94542525D01*
X223300307Y-94542525D01*
X223300307Y-94687475D01*
X223329927Y-94798016D01*
X223337824Y-94827488D01*
X223410295Y-94953011D01*
X223410297Y-94953013D01*
X223410298Y-94953015D01*
X223512792Y-95055509D01*
X223512793Y-95055510D01*
X223512795Y-95055511D01*
X223638318Y-95127982D01*
X223638319Y-95127982D01*
X223638322Y-95127984D01*
X223778332Y-95165500D01*
X223778335Y-95165500D01*
X223923279Y-95165500D01*
X223923282Y-95165500D01*
X224063292Y-95127984D01*
X224188822Y-95055509D01*
X224291316Y-94953015D01*
X224363791Y-94827485D01*
X224401307Y-94687475D01*
X224401307Y-94542525D01*
X224363791Y-94402515D01*
X224349357Y-94377515D01*
X224291318Y-94276988D01*
X224291313Y-94276982D01*
X224188824Y-94174493D01*
X224188818Y-94174488D01*
X224063295Y-94102017D01*
X224063296Y-94102017D01*
X224051813Y-94098940D01*
X223923282Y-94064500D01*
X223778332Y-94064500D01*
X223649800Y-94098940D01*
X223638318Y-94102017D01*
X223512795Y-94174488D01*
X223512789Y-94174493D01*
X223410300Y-94276982D01*
X223410295Y-94276988D01*
X223337824Y-94402511D01*
X223337823Y-94402515D01*
X223300307Y-94542525D01*
X222461307Y-94542525D01*
X222423791Y-94402515D01*
X222409357Y-94377515D01*
X222351318Y-94276988D01*
X222351313Y-94276982D01*
X222248824Y-94174493D01*
X222248818Y-94174488D01*
X222123295Y-94102017D01*
X222123296Y-94102017D01*
X222111813Y-94098940D01*
X221983282Y-94064500D01*
X221838332Y-94064500D01*
X221709800Y-94098940D01*
X221698318Y-94102017D01*
X221572795Y-94174488D01*
X221572789Y-94174493D01*
X221470300Y-94276982D01*
X221470293Y-94276991D01*
X221415409Y-94372052D01*
X221364842Y-94420267D01*
X221296235Y-94433489D01*
X221231370Y-94407521D01*
X221200636Y-94372051D01*
X221177817Y-94332527D01*
X221131316Y-94251985D01*
X221028822Y-94149491D01*
X221028820Y-94149490D01*
X221028818Y-94149488D01*
X220903295Y-94077017D01*
X220903296Y-94077017D01*
X220865856Y-94066985D01*
X220763282Y-94039500D01*
X220618332Y-94039500D01*
X220515758Y-94066985D01*
X220478318Y-94077017D01*
X220352795Y-94149488D01*
X220346346Y-94154438D01*
X220344175Y-94151610D01*
X220297165Y-94177280D01*
X220227473Y-94172296D01*
X220196727Y-94152536D01*
X220195268Y-94154438D01*
X220188818Y-94149488D01*
X220063295Y-94077017D01*
X220063296Y-94077017D01*
X220025856Y-94066985D01*
X219923282Y-94039500D01*
X219778332Y-94039500D01*
X219675758Y-94066985D01*
X219638318Y-94077017D01*
X219512795Y-94149488D01*
X219512789Y-94149493D01*
X219410300Y-94251982D01*
X219410295Y-94251988D01*
X219337824Y-94377511D01*
X219337823Y-94377515D01*
X219300307Y-94517525D01*
X215870576Y-94517525D01*
X215881307Y-94477475D01*
X215881307Y-94332525D01*
X215843791Y-94192515D01*
X215820174Y-94151610D01*
X215771318Y-94066988D01*
X215766369Y-94060539D01*
X215768014Y-94059276D01*
X215739831Y-94007662D01*
X215744815Y-93937970D01*
X215786687Y-93882037D01*
X215798997Y-93873917D01*
X215820216Y-93861665D01*
X215908822Y-93810509D01*
X216011316Y-93708015D01*
X216083791Y-93582485D01*
X216121307Y-93442475D01*
X216121307Y-93297525D01*
X216106383Y-93241830D01*
X216983335Y-93241830D01*
X216983335Y-93386780D01*
X216996933Y-93437527D01*
X217020852Y-93526793D01*
X217093323Y-93652316D01*
X217093325Y-93652318D01*
X217093326Y-93652320D01*
X217195820Y-93754814D01*
X217195821Y-93754815D01*
X217195823Y-93754816D01*
X217321346Y-93827287D01*
X217321347Y-93827287D01*
X217321350Y-93827289D01*
X217461360Y-93864805D01*
X217461363Y-93864805D01*
X217606307Y-93864805D01*
X217606310Y-93864805D01*
X217746320Y-93827289D01*
X217797873Y-93797525D01*
X227349500Y-93797525D01*
X227349500Y-93942475D01*
X227377908Y-94048493D01*
X227387017Y-94082488D01*
X227459488Y-94208011D01*
X227459490Y-94208013D01*
X227459491Y-94208015D01*
X227561985Y-94310509D01*
X227561986Y-94310510D01*
X227561988Y-94310511D01*
X227687511Y-94382982D01*
X227687512Y-94382982D01*
X227687515Y-94382984D01*
X227827525Y-94420500D01*
X227827528Y-94420500D01*
X227972472Y-94420500D01*
X227972475Y-94420500D01*
X228112485Y-94382984D01*
X228238015Y-94310509D01*
X228340509Y-94208015D01*
X228412984Y-94082485D01*
X228450500Y-93942475D01*
X228450500Y-93797525D01*
X228412984Y-93657515D01*
X228409982Y-93652316D01*
X228340511Y-93531988D01*
X228340506Y-93531982D01*
X228238017Y-93429493D01*
X228238011Y-93429488D01*
X228112488Y-93357017D01*
X228112489Y-93357017D01*
X228101006Y-93353940D01*
X227972475Y-93319500D01*
X227827525Y-93319500D01*
X227698993Y-93353940D01*
X227687511Y-93357017D01*
X227561988Y-93429488D01*
X227561982Y-93429493D01*
X227459493Y-93531982D01*
X227459488Y-93531988D01*
X227387017Y-93657511D01*
X227387016Y-93657515D01*
X227349500Y-93797525D01*
X217797873Y-93797525D01*
X217871850Y-93754814D01*
X217974344Y-93652320D01*
X218046819Y-93526790D01*
X218084335Y-93386780D01*
X218084335Y-93241830D01*
X218046819Y-93101820D01*
X218006501Y-93031988D01*
X217974346Y-92976293D01*
X217974341Y-92976287D01*
X217871852Y-92873798D01*
X217871846Y-92873793D01*
X217746323Y-92801322D01*
X217746324Y-92801322D01*
X217734841Y-92798245D01*
X217606310Y-92763805D01*
X217461360Y-92763805D01*
X217332828Y-92798245D01*
X217321346Y-92801322D01*
X217195823Y-92873793D01*
X217195817Y-92873798D01*
X217093328Y-92976287D01*
X217093323Y-92976293D01*
X217020852Y-93101816D01*
X217020851Y-93101820D01*
X216983335Y-93241830D01*
X216106383Y-93241830D01*
X216083791Y-93157515D01*
X216051635Y-93101820D01*
X216011318Y-93031988D01*
X216011313Y-93031982D01*
X215908824Y-92929493D01*
X215908818Y-92929488D01*
X215783295Y-92857017D01*
X215783296Y-92857017D01*
X215771813Y-92853940D01*
X215643282Y-92819500D01*
X215498332Y-92819500D01*
X215369800Y-92853940D01*
X215358318Y-92857017D01*
X215232795Y-92929488D01*
X215232789Y-92929493D01*
X215130300Y-93031982D01*
X215130295Y-93031988D01*
X215057824Y-93157511D01*
X215057823Y-93157515D01*
X215020307Y-93297525D01*
X215020307Y-93442475D01*
X215057823Y-93582485D01*
X215057824Y-93582488D01*
X215130295Y-93708011D01*
X215135245Y-93714461D01*
X215133599Y-93715723D01*
X215161782Y-93767337D01*
X215156798Y-93837029D01*
X215114926Y-93892962D01*
X215102617Y-93901081D01*
X214992798Y-93964486D01*
X214992789Y-93964493D01*
X214890300Y-94066982D01*
X214890295Y-94066988D01*
X214817824Y-94192511D01*
X214817823Y-94192515D01*
X214780307Y-94332525D01*
X211307758Y-94332525D01*
X211304878Y-92554697D01*
X211324454Y-92487630D01*
X211377184Y-92441789D01*
X211428878Y-92430500D01*
X211503279Y-92430500D01*
X211503282Y-92430500D01*
X211643292Y-92392984D01*
X211768822Y-92320509D01*
X211771883Y-92317447D01*
X211775108Y-92315686D01*
X211775273Y-92315560D01*
X211775292Y-92315585D01*
X211833200Y-92283957D01*
X211902892Y-92288933D01*
X211924253Y-92300762D01*
X211924642Y-92300089D01*
X212057207Y-92376626D01*
X212057208Y-92376626D01*
X212057211Y-92376628D01*
X212197221Y-92414144D01*
X212197224Y-92414144D01*
X212342168Y-92414144D01*
X212342171Y-92414144D01*
X212482181Y-92376628D01*
X212607711Y-92304153D01*
X212666895Y-92244968D01*
X212728214Y-92211486D01*
X212797906Y-92216470D01*
X212842254Y-92244971D01*
X212882792Y-92285509D01*
X212882793Y-92285510D01*
X212882795Y-92285511D01*
X213008318Y-92357982D01*
X213008319Y-92357982D01*
X213008322Y-92357984D01*
X213148332Y-92395500D01*
X213148335Y-92395500D01*
X213293279Y-92395500D01*
X213293282Y-92395500D01*
X213433292Y-92357984D01*
X213486048Y-92327525D01*
X226773200Y-92327525D01*
X226773200Y-92472475D01*
X226795232Y-92554697D01*
X226810717Y-92612488D01*
X226883188Y-92738011D01*
X226883190Y-92738013D01*
X226883191Y-92738015D01*
X226985685Y-92840509D01*
X226985686Y-92840510D01*
X226985688Y-92840511D01*
X227111211Y-92912982D01*
X227111212Y-92912982D01*
X227111215Y-92912984D01*
X227251225Y-92950500D01*
X227251228Y-92950500D01*
X227396172Y-92950500D01*
X227396175Y-92950500D01*
X227536185Y-92912984D01*
X227661715Y-92840509D01*
X227764209Y-92738015D01*
X227836684Y-92612485D01*
X227874200Y-92472475D01*
X227874200Y-92327525D01*
X227836684Y-92187515D01*
X227815313Y-92150500D01*
X227764211Y-92061988D01*
X227764206Y-92061982D01*
X227661717Y-91959493D01*
X227661711Y-91959488D01*
X227536188Y-91887017D01*
X227536189Y-91887017D01*
X227524706Y-91883940D01*
X227396175Y-91849500D01*
X227251225Y-91849500D01*
X227122693Y-91883940D01*
X227111211Y-91887017D01*
X226985688Y-91959488D01*
X226985682Y-91959493D01*
X226883193Y-92061982D01*
X226883188Y-92061988D01*
X226810717Y-92187511D01*
X226810716Y-92187515D01*
X226773200Y-92327525D01*
X213486048Y-92327525D01*
X213558822Y-92285509D01*
X213661316Y-92183015D01*
X213733791Y-92057485D01*
X213771307Y-91917475D01*
X213771307Y-91772525D01*
X213733791Y-91632515D01*
X213701744Y-91577009D01*
X213661318Y-91506988D01*
X213661313Y-91506982D01*
X213558824Y-91404493D01*
X213558822Y-91404491D01*
X213467533Y-91351785D01*
X213467531Y-91351783D01*
X213433295Y-91332017D01*
X213433296Y-91332017D01*
X213421813Y-91328940D01*
X213293282Y-91294500D01*
X213148332Y-91294500D01*
X213019800Y-91328940D01*
X213008318Y-91332017D01*
X212882795Y-91404488D01*
X212823610Y-91463673D01*
X212762286Y-91497157D01*
X212692595Y-91492172D01*
X212648248Y-91463672D01*
X212607713Y-91423137D01*
X212607707Y-91423132D01*
X212482184Y-91350661D01*
X212482185Y-91350661D01*
X212470702Y-91347584D01*
X212342171Y-91313144D01*
X212197221Y-91313144D01*
X212057211Y-91350660D01*
X211963979Y-91404488D01*
X211931676Y-91423138D01*
X211928606Y-91426209D01*
X211925377Y-91427971D01*
X211925231Y-91428084D01*
X211925213Y-91428061D01*
X211867281Y-91459691D01*
X211797590Y-91454702D01*
X211776248Y-91442883D01*
X211775861Y-91443555D01*
X211643295Y-91367017D01*
X211643296Y-91367017D01*
X211631813Y-91363940D01*
X211503282Y-91329500D01*
X211426693Y-91329500D01*
X211359654Y-91309815D01*
X211313899Y-91257011D01*
X211312919Y-91252525D01*
X225648200Y-91252525D01*
X225648200Y-91397475D01*
X225679086Y-91512742D01*
X225685717Y-91537488D01*
X225758188Y-91663011D01*
X225758190Y-91663013D01*
X225758191Y-91663015D01*
X225860685Y-91765509D01*
X225860686Y-91765510D01*
X225860688Y-91765511D01*
X225986211Y-91837982D01*
X225986212Y-91837982D01*
X225986215Y-91837984D01*
X226126225Y-91875500D01*
X226126228Y-91875500D01*
X226271172Y-91875500D01*
X226271175Y-91875500D01*
X226411185Y-91837984D01*
X226536715Y-91765509D01*
X226639209Y-91663015D01*
X226711684Y-91537485D01*
X226716638Y-91518995D01*
X235469499Y-91518995D01*
X235496418Y-91654322D01*
X235496421Y-91654332D01*
X235549221Y-91781804D01*
X235549228Y-91781817D01*
X235625885Y-91896541D01*
X235625888Y-91896545D01*
X235723454Y-91994111D01*
X235723458Y-91994114D01*
X235838182Y-92070771D01*
X235838195Y-92070778D01*
X235965667Y-92123578D01*
X235965672Y-92123580D01*
X235965676Y-92123580D01*
X235965677Y-92123581D01*
X236101004Y-92150500D01*
X236101007Y-92150500D01*
X236238995Y-92150500D01*
X236333838Y-92131634D01*
X236374328Y-92123580D01*
X236501811Y-92070775D01*
X236616542Y-91994114D01*
X236658181Y-91952475D01*
X236718422Y-91892235D01*
X236720307Y-91894120D01*
X236768494Y-91861273D01*
X236838338Y-91859380D01*
X236898119Y-91895547D01*
X236903155Y-91901970D01*
X236903322Y-91901834D01*
X236907188Y-91906545D01*
X237004754Y-92004111D01*
X237004758Y-92004114D01*
X237119482Y-92080771D01*
X237119495Y-92080778D01*
X237222832Y-92123581D01*
X237246972Y-92133580D01*
X237246976Y-92133580D01*
X237246977Y-92133581D01*
X237382304Y-92160500D01*
X237382307Y-92160500D01*
X237520295Y-92160500D01*
X237611341Y-92142389D01*
X237655628Y-92133580D01*
X237783111Y-92080775D01*
X237897842Y-92004114D01*
X237995414Y-91906542D01*
X238072075Y-91791811D01*
X238080064Y-91772525D01*
X238124878Y-91664332D01*
X238124880Y-91664328D01*
X238149216Y-91541985D01*
X238151800Y-91528995D01*
X238151800Y-91391004D01*
X238124881Y-91255677D01*
X238124880Y-91255676D01*
X238124880Y-91255672D01*
X238123577Y-91252527D01*
X238072078Y-91128195D01*
X238072071Y-91128182D01*
X238046849Y-91090435D01*
X238025971Y-91023758D01*
X238044455Y-90956378D01*
X238046850Y-90952652D01*
X238060770Y-90931819D01*
X238060771Y-90931816D01*
X238060775Y-90931811D01*
X238113580Y-90804328D01*
X238137816Y-90682488D01*
X238140500Y-90668995D01*
X238140500Y-90531004D01*
X238113581Y-90395677D01*
X238113580Y-90395676D01*
X238113580Y-90395672D01*
X238082443Y-90320500D01*
X238060778Y-90268195D01*
X238060771Y-90268182D01*
X237984114Y-90153458D01*
X237984111Y-90153454D01*
X237886545Y-90055888D01*
X237886541Y-90055885D01*
X237771817Y-89979228D01*
X237771804Y-89979221D01*
X237644332Y-89926421D01*
X237644322Y-89926418D01*
X237508995Y-89899500D01*
X237508993Y-89899500D01*
X237371007Y-89899500D01*
X237371005Y-89899500D01*
X237235677Y-89926418D01*
X237235667Y-89926421D01*
X237108195Y-89979221D01*
X237108182Y-89979228D01*
X236993458Y-90055885D01*
X236907297Y-90142046D01*
X236845973Y-90175530D01*
X236776282Y-90170546D01*
X236729241Y-90136945D01*
X236728422Y-90137765D01*
X236626545Y-90035888D01*
X236626541Y-90035885D01*
X236511817Y-89959228D01*
X236511804Y-89959221D01*
X236384332Y-89906421D01*
X236384322Y-89906418D01*
X236248995Y-89879500D01*
X236248993Y-89879500D01*
X236111007Y-89879500D01*
X236111005Y-89879500D01*
X235975677Y-89906418D01*
X235975667Y-89906421D01*
X235848195Y-89959221D01*
X235848182Y-89959228D01*
X235733458Y-90035885D01*
X235733454Y-90035888D01*
X235635888Y-90133454D01*
X235635885Y-90133458D01*
X235559228Y-90248182D01*
X235559221Y-90248195D01*
X235506421Y-90375667D01*
X235506418Y-90375677D01*
X235479500Y-90511004D01*
X235479500Y-90511007D01*
X235479500Y-90648993D01*
X235479500Y-90648995D01*
X235479499Y-90648995D01*
X235506418Y-90784322D01*
X235506421Y-90784332D01*
X235559221Y-90911804D01*
X235559228Y-90911817D01*
X235577141Y-90938625D01*
X235598019Y-91005302D01*
X235579535Y-91072683D01*
X235577143Y-91076404D01*
X235549229Y-91118182D01*
X235549223Y-91118192D01*
X235496420Y-91245671D01*
X235496418Y-91245677D01*
X235469500Y-91381004D01*
X235469500Y-91381007D01*
X235469500Y-91518993D01*
X235469500Y-91518995D01*
X235469499Y-91518995D01*
X226716638Y-91518995D01*
X226749200Y-91397475D01*
X226749200Y-91252525D01*
X226711684Y-91112515D01*
X226690835Y-91076404D01*
X226639211Y-90986988D01*
X226639206Y-90986982D01*
X226536717Y-90884493D01*
X226536711Y-90884488D01*
X226411188Y-90812017D01*
X226411189Y-90812017D01*
X226382471Y-90804322D01*
X226271175Y-90774500D01*
X226126225Y-90774500D01*
X226014929Y-90804322D01*
X225986211Y-90812017D01*
X225860688Y-90884488D01*
X225860682Y-90884493D01*
X225758193Y-90986982D01*
X225758188Y-90986988D01*
X225685717Y-91112511D01*
X225684196Y-91118189D01*
X225648200Y-91252525D01*
X211312919Y-91252525D01*
X211302693Y-91205704D01*
X211301384Y-90397525D01*
X224119500Y-90397525D01*
X224119500Y-90542475D01*
X224157016Y-90682485D01*
X224157017Y-90682488D01*
X224229488Y-90808011D01*
X224229490Y-90808013D01*
X224229491Y-90808015D01*
X224331985Y-90910509D01*
X224331986Y-90910510D01*
X224331988Y-90910511D01*
X224457511Y-90982982D01*
X224457512Y-90982982D01*
X224457515Y-90982984D01*
X224597525Y-91020500D01*
X224597528Y-91020500D01*
X224742472Y-91020500D01*
X224742475Y-91020500D01*
X224882485Y-90982984D01*
X225008015Y-90910509D01*
X225110509Y-90808015D01*
X225182984Y-90682485D01*
X225220500Y-90542475D01*
X225220500Y-90397525D01*
X225182984Y-90257515D01*
X225155843Y-90210506D01*
X225110511Y-90131988D01*
X225110506Y-90131982D01*
X225008017Y-90029493D01*
X225008011Y-90029488D01*
X224882488Y-89957017D01*
X224882489Y-89957017D01*
X224871006Y-89953940D01*
X224742475Y-89919500D01*
X224597525Y-89919500D01*
X224468993Y-89953940D01*
X224457511Y-89957017D01*
X224331988Y-90029488D01*
X224331982Y-90029493D01*
X224229493Y-90131982D01*
X224229488Y-90131988D01*
X224157017Y-90257511D01*
X224157016Y-90257515D01*
X224119500Y-90397525D01*
X211301384Y-90397525D01*
X211299894Y-89477525D01*
X216539500Y-89477525D01*
X216539500Y-89622475D01*
X216570031Y-89736417D01*
X216577017Y-89762488D01*
X216649488Y-89888011D01*
X216649490Y-89888013D01*
X216649491Y-89888015D01*
X216751985Y-89990509D01*
X216751986Y-89990510D01*
X216751988Y-89990511D01*
X216877511Y-90062982D01*
X216877512Y-90062982D01*
X216877515Y-90062984D01*
X217017525Y-90100500D01*
X217017528Y-90100500D01*
X217162472Y-90100500D01*
X217162475Y-90100500D01*
X217302485Y-90062984D01*
X217428015Y-89990509D01*
X217530509Y-89888015D01*
X217602984Y-89762485D01*
X217640500Y-89622475D01*
X217640500Y-89477525D01*
X217602984Y-89337515D01*
X217598352Y-89329493D01*
X217530511Y-89211988D01*
X217530506Y-89211982D01*
X217428017Y-89109493D01*
X217428011Y-89109488D01*
X217302488Y-89037017D01*
X217302489Y-89037017D01*
X217291006Y-89033940D01*
X217162475Y-88999500D01*
X217017525Y-88999500D01*
X216888993Y-89033940D01*
X216877511Y-89037017D01*
X216751988Y-89109488D01*
X216751982Y-89109493D01*
X216649493Y-89211982D01*
X216649488Y-89211988D01*
X216577017Y-89337511D01*
X216577016Y-89337515D01*
X216539500Y-89477525D01*
X211299894Y-89477525D01*
X211296596Y-87441153D01*
X218748200Y-87441153D01*
X218748200Y-87598846D01*
X218778961Y-87753489D01*
X218778964Y-87753501D01*
X218839302Y-87899172D01*
X218839309Y-87899185D01*
X218926910Y-88030288D01*
X218926913Y-88030292D01*
X219038407Y-88141786D01*
X219038411Y-88141789D01*
X219169514Y-88229390D01*
X219169527Y-88229397D01*
X219310765Y-88287899D01*
X219365169Y-88331740D01*
X219387234Y-88398034D01*
X219369955Y-88465733D01*
X219325315Y-88509846D01*
X219286168Y-88532448D01*
X219286162Y-88532452D01*
X219183673Y-88634941D01*
X219183668Y-88634947D01*
X219111197Y-88760470D01*
X219111196Y-88760474D01*
X219073680Y-88900484D01*
X219073680Y-89045434D01*
X219090844Y-89109491D01*
X219102793Y-89154084D01*
X219101130Y-89223933D01*
X219061968Y-89281796D01*
X219045019Y-89293564D01*
X218982792Y-89329491D01*
X218982789Y-89329493D01*
X218880300Y-89431982D01*
X218880295Y-89431988D01*
X218807824Y-89557511D01*
X218807823Y-89557515D01*
X218770307Y-89697525D01*
X218770307Y-89842475D01*
X218806950Y-89979228D01*
X218807824Y-89982488D01*
X218880295Y-90108011D01*
X218880297Y-90108013D01*
X218880298Y-90108015D01*
X218982792Y-90210509D01*
X218982793Y-90210510D01*
X218982795Y-90210511D01*
X219108318Y-90282982D01*
X219108319Y-90282982D01*
X219108322Y-90282984D01*
X219248332Y-90320500D01*
X219248335Y-90320500D01*
X219393279Y-90320500D01*
X219393282Y-90320500D01*
X219533292Y-90282984D01*
X219534977Y-90282011D01*
X219534978Y-90282011D01*
X219577412Y-90257511D01*
X219658822Y-90210509D01*
X219761316Y-90108015D01*
X219833791Y-89982485D01*
X219871307Y-89842475D01*
X219871307Y-89697525D01*
X219842193Y-89588871D01*
X219843856Y-89519025D01*
X219883018Y-89461163D01*
X219899957Y-89449400D01*
X219962195Y-89413468D01*
X220064689Y-89310974D01*
X220115231Y-89223433D01*
X220376706Y-89223433D01*
X220376706Y-89368383D01*
X220414222Y-89508393D01*
X220414223Y-89508396D01*
X220486694Y-89633919D01*
X220486696Y-89633921D01*
X220486697Y-89633923D01*
X220589191Y-89736417D01*
X220589192Y-89736418D01*
X220589194Y-89736419D01*
X220714717Y-89808890D01*
X220714718Y-89808890D01*
X220714721Y-89808892D01*
X220854731Y-89846408D01*
X220854734Y-89846408D01*
X220999678Y-89846408D01*
X220999681Y-89846408D01*
X221139691Y-89808892D01*
X221265221Y-89736417D01*
X221367715Y-89633923D01*
X221440190Y-89508393D01*
X221477706Y-89368383D01*
X221477706Y-89223433D01*
X221440190Y-89083423D01*
X221438188Y-89079955D01*
X221421702Y-89051400D01*
X221421701Y-89051399D01*
X221405715Y-89023711D01*
X221390597Y-88997525D01*
X224309500Y-88997525D01*
X224309500Y-89142475D01*
X224347016Y-89282485D01*
X224347017Y-89282488D01*
X224419488Y-89408011D01*
X224419490Y-89408013D01*
X224419491Y-89408015D01*
X224521985Y-89510509D01*
X224521986Y-89510510D01*
X224521988Y-89510511D01*
X224647511Y-89582982D01*
X224647512Y-89582982D01*
X224647515Y-89582984D01*
X224787525Y-89620500D01*
X224787528Y-89620500D01*
X224932472Y-89620500D01*
X224932475Y-89620500D01*
X225072485Y-89582984D01*
X225198015Y-89510509D01*
X225300509Y-89408015D01*
X225372984Y-89282485D01*
X225410500Y-89142475D01*
X225410500Y-88997525D01*
X225372984Y-88857515D01*
X225372982Y-88857511D01*
X225312471Y-88752703D01*
X225295998Y-88684803D01*
X225318850Y-88618776D01*
X225373772Y-88575585D01*
X225443325Y-88568944D01*
X225444016Y-88569079D01*
X225446669Y-88569607D01*
X225451157Y-88570500D01*
X225451158Y-88570500D01*
X225608844Y-88570500D01*
X225608845Y-88570499D01*
X225763497Y-88539737D01*
X225909179Y-88479394D01*
X226040289Y-88391789D01*
X226151789Y-88280289D01*
X226239394Y-88149179D01*
X226299737Y-88003497D01*
X226330500Y-87848842D01*
X226330500Y-87691158D01*
X226330500Y-87691155D01*
X226330499Y-87691153D01*
X226308189Y-87578995D01*
X234989499Y-87578995D01*
X235016418Y-87714322D01*
X235016421Y-87714332D01*
X235069221Y-87841804D01*
X235069228Y-87841817D01*
X235145885Y-87956541D01*
X235145888Y-87956545D01*
X235243454Y-88054111D01*
X235243458Y-88054114D01*
X235358182Y-88130771D01*
X235358195Y-88130778D01*
X235485667Y-88183578D01*
X235485672Y-88183580D01*
X235485676Y-88183580D01*
X235485677Y-88183581D01*
X235621004Y-88210500D01*
X235621007Y-88210500D01*
X235758995Y-88210500D01*
X235850041Y-88192389D01*
X235894328Y-88183580D01*
X236021811Y-88130775D01*
X236136542Y-88054114D01*
X236234114Y-87956542D01*
X236234116Y-87956538D01*
X236234143Y-87956507D01*
X236234164Y-87956492D01*
X236238422Y-87952235D01*
X236239229Y-87953042D01*
X236291886Y-87917170D01*
X236361731Y-87915296D01*
X236421501Y-87951480D01*
X236425857Y-87956507D01*
X236425889Y-87956546D01*
X236523454Y-88054111D01*
X236523458Y-88054114D01*
X236638182Y-88130771D01*
X236638195Y-88130778D01*
X236765667Y-88183578D01*
X236765672Y-88183580D01*
X236765676Y-88183580D01*
X236765677Y-88183581D01*
X236901004Y-88210500D01*
X236901007Y-88210500D01*
X237038995Y-88210500D01*
X237130041Y-88192389D01*
X237174328Y-88183580D01*
X237301811Y-88130775D01*
X237416542Y-88054114D01*
X237514114Y-87956542D01*
X237590775Y-87841811D01*
X237643580Y-87714328D01*
X237666551Y-87598846D01*
X237670500Y-87578995D01*
X237670500Y-87441004D01*
X237643581Y-87305677D01*
X237643580Y-87305676D01*
X237643580Y-87305672D01*
X237635638Y-87286498D01*
X237590778Y-87178195D01*
X237590771Y-87178182D01*
X237514114Y-87063458D01*
X237514111Y-87063454D01*
X237416545Y-86965888D01*
X237416541Y-86965885D01*
X237301817Y-86889228D01*
X237301804Y-86889221D01*
X237174332Y-86836421D01*
X237174322Y-86836418D01*
X237038995Y-86809500D01*
X237038993Y-86809500D01*
X236901007Y-86809500D01*
X236901005Y-86809500D01*
X236765677Y-86836418D01*
X236765667Y-86836421D01*
X236638195Y-86889221D01*
X236638182Y-86889228D01*
X236523458Y-86965885D01*
X236523454Y-86965888D01*
X236425885Y-87063457D01*
X236425849Y-87063502D01*
X236425823Y-87063519D01*
X236421578Y-87067765D01*
X236420772Y-87066959D01*
X236368101Y-87102833D01*
X236298257Y-87104700D01*
X236238490Y-87068510D01*
X236234151Y-87063502D01*
X236234114Y-87063457D01*
X236136545Y-86965888D01*
X236136541Y-86965885D01*
X236021817Y-86889228D01*
X236021804Y-86889221D01*
X235894332Y-86836421D01*
X235894322Y-86836418D01*
X235758995Y-86809500D01*
X235758993Y-86809500D01*
X235621007Y-86809500D01*
X235621005Y-86809500D01*
X235485677Y-86836418D01*
X235485667Y-86836421D01*
X235358195Y-86889221D01*
X235358182Y-86889228D01*
X235243458Y-86965885D01*
X235243454Y-86965888D01*
X235145888Y-87063454D01*
X235145885Y-87063458D01*
X235069228Y-87178182D01*
X235069221Y-87178195D01*
X235016421Y-87305667D01*
X235016418Y-87305677D01*
X234989500Y-87441004D01*
X234989500Y-87441007D01*
X234989500Y-87578993D01*
X234989500Y-87578995D01*
X234989499Y-87578995D01*
X226308189Y-87578995D01*
X226299738Y-87536510D01*
X226299737Y-87536503D01*
X226299735Y-87536498D01*
X226277314Y-87482367D01*
X226239395Y-87390823D01*
X226239390Y-87390814D01*
X226151789Y-87259711D01*
X226151786Y-87259707D01*
X226040292Y-87148213D01*
X226040288Y-87148210D01*
X225909185Y-87060609D01*
X225909172Y-87060602D01*
X225763501Y-87000264D01*
X225763489Y-87000261D01*
X225608845Y-86969500D01*
X225608842Y-86969500D01*
X225451158Y-86969500D01*
X225451155Y-86969500D01*
X225296510Y-87000261D01*
X225296498Y-87000264D01*
X225150827Y-87060602D01*
X225150814Y-87060609D01*
X225019711Y-87148210D01*
X225019707Y-87148213D01*
X224908213Y-87259707D01*
X224908210Y-87259711D01*
X224820609Y-87390814D01*
X224820602Y-87390827D01*
X224760264Y-87536498D01*
X224760261Y-87536510D01*
X224729500Y-87691153D01*
X224729500Y-87848846D01*
X224760261Y-88003489D01*
X224760264Y-88003501D01*
X224820602Y-88149172D01*
X224820609Y-88149185D01*
X224908210Y-88280288D01*
X224908213Y-88280292D01*
X224935740Y-88307819D01*
X224969225Y-88369142D01*
X224964241Y-88438834D01*
X224922369Y-88494767D01*
X224856905Y-88519184D01*
X224848059Y-88519500D01*
X224787525Y-88519500D01*
X224658993Y-88553940D01*
X224647511Y-88557017D01*
X224521988Y-88629488D01*
X224521982Y-88629493D01*
X224419493Y-88731982D01*
X224419488Y-88731988D01*
X224347017Y-88857511D01*
X224347016Y-88857515D01*
X224309500Y-88997525D01*
X221390597Y-88997525D01*
X221367715Y-88957893D01*
X221265221Y-88855399D01*
X221265219Y-88855398D01*
X221265217Y-88855396D01*
X221139694Y-88782925D01*
X221139695Y-88782925D01*
X221128212Y-88779848D01*
X220999681Y-88745408D01*
X220854731Y-88745408D01*
X220726199Y-88779848D01*
X220714717Y-88782925D01*
X220589194Y-88855396D01*
X220589188Y-88855401D01*
X220486699Y-88957890D01*
X220486694Y-88957896D01*
X220416223Y-89079955D01*
X220416222Y-89079958D01*
X220414222Y-89083423D01*
X220376706Y-89223433D01*
X220115231Y-89223433D01*
X220121839Y-89211988D01*
X220135162Y-89188912D01*
X220135162Y-89188911D01*
X220137164Y-89185444D01*
X220174680Y-89045434D01*
X220174680Y-88900484D01*
X220137164Y-88760474D01*
X220132677Y-88752703D01*
X220064691Y-88634947D01*
X220064686Y-88634941D01*
X219962197Y-88532452D01*
X219962195Y-88532450D01*
X219859984Y-88473438D01*
X219811769Y-88422870D01*
X219798547Y-88354263D01*
X219824515Y-88289399D01*
X219874530Y-88251491D01*
X219927879Y-88229394D01*
X220058989Y-88141789D01*
X220170489Y-88030289D01*
X220258094Y-87899179D01*
X220318437Y-87753497D01*
X220349200Y-87598842D01*
X220349200Y-87441158D01*
X220349200Y-87441155D01*
X220349199Y-87441153D01*
X220318438Y-87286510D01*
X220318437Y-87286503D01*
X220318435Y-87286498D01*
X220258097Y-87140827D01*
X220258090Y-87140814D01*
X220170489Y-87009711D01*
X220170486Y-87009707D01*
X220058992Y-86898213D01*
X220058988Y-86898210D01*
X219927885Y-86810609D01*
X219927872Y-86810602D01*
X219782201Y-86750264D01*
X219782189Y-86750261D01*
X219627545Y-86719500D01*
X219627542Y-86719500D01*
X219469858Y-86719500D01*
X219469855Y-86719500D01*
X219315210Y-86750261D01*
X219315198Y-86750264D01*
X219169527Y-86810602D01*
X219169514Y-86810609D01*
X219038411Y-86898210D01*
X219038407Y-86898213D01*
X218926913Y-87009707D01*
X218926910Y-87009711D01*
X218839309Y-87140814D01*
X218839302Y-87140827D01*
X218778964Y-87286498D01*
X218778961Y-87286510D01*
X218748200Y-87441153D01*
X211296596Y-87441153D01*
X211293104Y-85285294D01*
X211292426Y-84866153D01*
X216828200Y-84866153D01*
X216828200Y-86123846D01*
X216858961Y-86278489D01*
X216858964Y-86278501D01*
X216919302Y-86424172D01*
X216919309Y-86424185D01*
X217006910Y-86555288D01*
X217006913Y-86555292D01*
X217118407Y-86666786D01*
X217118411Y-86666789D01*
X217249514Y-86754390D01*
X217249527Y-86754397D01*
X217385220Y-86810602D01*
X217395203Y-86814737D01*
X217549853Y-86845499D01*
X217549856Y-86845500D01*
X217549858Y-86845500D01*
X217707544Y-86845500D01*
X217707545Y-86845499D01*
X217862197Y-86814737D01*
X218007879Y-86754394D01*
X218138989Y-86666789D01*
X218250489Y-86555289D01*
X218338094Y-86424179D01*
X218398437Y-86278497D01*
X218429200Y-86123842D01*
X218429200Y-85408032D01*
X218448885Y-85340993D01*
X218501689Y-85295238D01*
X218570847Y-85285294D01*
X218634403Y-85314319D01*
X218640881Y-85320351D01*
X218736035Y-85415505D01*
X218855864Y-85484688D01*
X218989517Y-85520500D01*
X218989519Y-85520500D01*
X219127881Y-85520500D01*
X219127883Y-85520500D01*
X219261536Y-85484688D01*
X219381365Y-85415505D01*
X219479205Y-85317665D01*
X219548388Y-85197836D01*
X219584200Y-85064183D01*
X219584200Y-84925817D01*
X224313200Y-84925817D01*
X224313200Y-85064182D01*
X224349012Y-85197835D01*
X224349013Y-85197838D01*
X224418192Y-85317661D01*
X224418194Y-85317664D01*
X224418195Y-85317665D01*
X224516035Y-85415505D01*
X224635864Y-85484688D01*
X224769517Y-85520500D01*
X224769519Y-85520500D01*
X224907881Y-85520500D01*
X224907883Y-85520500D01*
X225041536Y-85484688D01*
X225161365Y-85415505D01*
X225256519Y-85320351D01*
X225317842Y-85286866D01*
X225387534Y-85291850D01*
X225443467Y-85333722D01*
X225467884Y-85399186D01*
X225468200Y-85408032D01*
X225468200Y-86123846D01*
X225498961Y-86278489D01*
X225498964Y-86278501D01*
X225559302Y-86424172D01*
X225559309Y-86424185D01*
X225646910Y-86555288D01*
X225646913Y-86555292D01*
X225758407Y-86666786D01*
X225758411Y-86666789D01*
X225889514Y-86754390D01*
X225889527Y-86754397D01*
X226025220Y-86810602D01*
X226035203Y-86814737D01*
X226189853Y-86845499D01*
X226189856Y-86845500D01*
X226189858Y-86845500D01*
X226347544Y-86845500D01*
X226347545Y-86845499D01*
X226502197Y-86814737D01*
X226647879Y-86754394D01*
X226778989Y-86666789D01*
X226890489Y-86555289D01*
X226978094Y-86424179D01*
X227038437Y-86278497D01*
X227069200Y-86123842D01*
X227069200Y-84866158D01*
X227069200Y-84866155D01*
X227069199Y-84866153D01*
X227068028Y-84860267D01*
X227038437Y-84711503D01*
X227022216Y-84672341D01*
X226978097Y-84565827D01*
X226978090Y-84565814D01*
X226890489Y-84434711D01*
X226890486Y-84434707D01*
X226778992Y-84323213D01*
X226778988Y-84323210D01*
X226647885Y-84235609D01*
X226647872Y-84235602D01*
X226502201Y-84175264D01*
X226502189Y-84175261D01*
X226347545Y-84144500D01*
X226347542Y-84144500D01*
X226189858Y-84144500D01*
X226189855Y-84144500D01*
X226035210Y-84175261D01*
X226035198Y-84175264D01*
X225889527Y-84235602D01*
X225889514Y-84235609D01*
X225758411Y-84323210D01*
X225758407Y-84323213D01*
X225646913Y-84434707D01*
X225646910Y-84434711D01*
X225559309Y-84565814D01*
X225559302Y-84565827D01*
X225504478Y-84698187D01*
X225460637Y-84752591D01*
X225394343Y-84774656D01*
X225326644Y-84757377D01*
X225282530Y-84712734D01*
X225259209Y-84672341D01*
X225259206Y-84672337D01*
X225259205Y-84672335D01*
X225161365Y-84574495D01*
X225161364Y-84574494D01*
X225161361Y-84574492D01*
X225041538Y-84505313D01*
X225041537Y-84505312D01*
X225041536Y-84505312D01*
X224907883Y-84469500D01*
X224769517Y-84469500D01*
X224635864Y-84505312D01*
X224635861Y-84505313D01*
X224516038Y-84574492D01*
X224516033Y-84574496D01*
X224418196Y-84672333D01*
X224418192Y-84672338D01*
X224349013Y-84792161D01*
X224349012Y-84792164D01*
X224313200Y-84925817D01*
X219584200Y-84925817D01*
X219548388Y-84792164D01*
X219513796Y-84732249D01*
X219479207Y-84672338D01*
X219479206Y-84672336D01*
X219479205Y-84672335D01*
X219381365Y-84574495D01*
X219381364Y-84574494D01*
X219381361Y-84574492D01*
X219261538Y-84505313D01*
X219261537Y-84505312D01*
X219261536Y-84505312D01*
X219127883Y-84469500D01*
X218989517Y-84469500D01*
X218855864Y-84505312D01*
X218855861Y-84505313D01*
X218736038Y-84574492D01*
X218736033Y-84574496D01*
X218638196Y-84672333D01*
X218638194Y-84672336D01*
X218614869Y-84712736D01*
X218564301Y-84760951D01*
X218495694Y-84774173D01*
X218430829Y-84748205D01*
X218392921Y-84698187D01*
X218338097Y-84565826D01*
X218338090Y-84565814D01*
X218250489Y-84434711D01*
X218250486Y-84434707D01*
X218138992Y-84323213D01*
X218138988Y-84323210D01*
X218007885Y-84235609D01*
X218007872Y-84235602D01*
X217862201Y-84175264D01*
X217862189Y-84175261D01*
X217707545Y-84144500D01*
X217707542Y-84144500D01*
X217549858Y-84144500D01*
X217549855Y-84144500D01*
X217395210Y-84175261D01*
X217395198Y-84175264D01*
X217249527Y-84235602D01*
X217249514Y-84235609D01*
X217118411Y-84323210D01*
X217118407Y-84323213D01*
X217006913Y-84434707D01*
X217006910Y-84434711D01*
X216919309Y-84565814D01*
X216919302Y-84565827D01*
X216858964Y-84711498D01*
X216858961Y-84711510D01*
X216828200Y-84866153D01*
X211292426Y-84866153D01*
X211292416Y-84860267D01*
X211290889Y-83917525D01*
X211659500Y-83917525D01*
X211659500Y-84062475D01*
X211689722Y-84175263D01*
X211697017Y-84202488D01*
X211769488Y-84328011D01*
X211769490Y-84328013D01*
X211769491Y-84328015D01*
X211871985Y-84430509D01*
X211871986Y-84430510D01*
X211871988Y-84430511D01*
X211997511Y-84502982D01*
X211997512Y-84502982D01*
X211997515Y-84502984D01*
X212137525Y-84540500D01*
X212137528Y-84540500D01*
X212282472Y-84540500D01*
X212282475Y-84540500D01*
X212422485Y-84502984D01*
X212548015Y-84430509D01*
X212650509Y-84328015D01*
X212722984Y-84202485D01*
X212760500Y-84062475D01*
X212760500Y-83917525D01*
X212731025Y-83807525D01*
X230329500Y-83807525D01*
X230329500Y-83952475D01*
X230358974Y-84062472D01*
X230367017Y-84092488D01*
X230439488Y-84218011D01*
X230439490Y-84218013D01*
X230439491Y-84218015D01*
X230541985Y-84320509D01*
X230541986Y-84320510D01*
X230541988Y-84320511D01*
X230667511Y-84392982D01*
X230667512Y-84392982D01*
X230667515Y-84392984D01*
X230807525Y-84430500D01*
X230807528Y-84430500D01*
X230952472Y-84430500D01*
X230952475Y-84430500D01*
X231092485Y-84392984D01*
X231218015Y-84320509D01*
X231320509Y-84218015D01*
X231392984Y-84092485D01*
X231430500Y-83952475D01*
X231430500Y-83807525D01*
X232579500Y-83807525D01*
X232579500Y-83952475D01*
X232608974Y-84062472D01*
X232617017Y-84092488D01*
X232689488Y-84218011D01*
X232689490Y-84218013D01*
X232689491Y-84218015D01*
X232791985Y-84320509D01*
X232791986Y-84320510D01*
X232791988Y-84320511D01*
X232917511Y-84392982D01*
X232917512Y-84392982D01*
X232917515Y-84392984D01*
X233057525Y-84430500D01*
X233057528Y-84430500D01*
X233202472Y-84430500D01*
X233202475Y-84430500D01*
X233342485Y-84392984D01*
X233468015Y-84320509D01*
X233570509Y-84218015D01*
X233642984Y-84092485D01*
X233680500Y-83952475D01*
X233680500Y-83807525D01*
X233929500Y-83807525D01*
X233929500Y-83952475D01*
X233958974Y-84062472D01*
X233967017Y-84092488D01*
X234039488Y-84218011D01*
X234039490Y-84218013D01*
X234039491Y-84218015D01*
X234141985Y-84320509D01*
X234141986Y-84320510D01*
X234141988Y-84320511D01*
X234267511Y-84392982D01*
X234267512Y-84392982D01*
X234267515Y-84392984D01*
X234407525Y-84430500D01*
X234407528Y-84430500D01*
X234552472Y-84430500D01*
X234552475Y-84430500D01*
X234692485Y-84392984D01*
X234818015Y-84320509D01*
X234920509Y-84218015D01*
X234992984Y-84092485D01*
X235030500Y-83952475D01*
X235030500Y-83807525D01*
X234992984Y-83667515D01*
X234984019Y-83651988D01*
X234920511Y-83541988D01*
X234920506Y-83541982D01*
X234818017Y-83439493D01*
X234818011Y-83439488D01*
X234692488Y-83367017D01*
X234692489Y-83367017D01*
X234681006Y-83363940D01*
X234552475Y-83329500D01*
X234407525Y-83329500D01*
X234278993Y-83363940D01*
X234267511Y-83367017D01*
X234141988Y-83439488D01*
X234141982Y-83439493D01*
X234039493Y-83541982D01*
X234039488Y-83541988D01*
X233967017Y-83667511D01*
X233967016Y-83667515D01*
X233929500Y-83807525D01*
X233680500Y-83807525D01*
X233642984Y-83667515D01*
X233634019Y-83651988D01*
X233570511Y-83541988D01*
X233570506Y-83541982D01*
X233468017Y-83439493D01*
X233468011Y-83439488D01*
X233342488Y-83367017D01*
X233342489Y-83367017D01*
X233331006Y-83363940D01*
X233202475Y-83329500D01*
X233057525Y-83329500D01*
X232928993Y-83363940D01*
X232917511Y-83367017D01*
X232791988Y-83439488D01*
X232791982Y-83439493D01*
X232689493Y-83541982D01*
X232689488Y-83541988D01*
X232617017Y-83667511D01*
X232617016Y-83667515D01*
X232579500Y-83807525D01*
X231430500Y-83807525D01*
X231392984Y-83667515D01*
X231384019Y-83651988D01*
X231320511Y-83541988D01*
X231320506Y-83541982D01*
X231218017Y-83439493D01*
X231218011Y-83439488D01*
X231092488Y-83367017D01*
X231092489Y-83367017D01*
X231081006Y-83363940D01*
X230952475Y-83329500D01*
X230807525Y-83329500D01*
X230678993Y-83363940D01*
X230667511Y-83367017D01*
X230541988Y-83439488D01*
X230541982Y-83439493D01*
X230439493Y-83541982D01*
X230439488Y-83541988D01*
X230367017Y-83667511D01*
X230367016Y-83667515D01*
X230329500Y-83807525D01*
X212731025Y-83807525D01*
X212722984Y-83777515D01*
X212659475Y-83667515D01*
X212650511Y-83651988D01*
X212650506Y-83651982D01*
X212548017Y-83549493D01*
X212548011Y-83549488D01*
X212422488Y-83477017D01*
X212422489Y-83477017D01*
X212411006Y-83473940D01*
X212282475Y-83439500D01*
X212137525Y-83439500D01*
X212008993Y-83473940D01*
X211997511Y-83477017D01*
X211871988Y-83549488D01*
X211871982Y-83549493D01*
X211769493Y-83651982D01*
X211769488Y-83651988D01*
X211697017Y-83777511D01*
X211697016Y-83777515D01*
X211659500Y-83917525D01*
X211290889Y-83917525D01*
X211290876Y-83909599D01*
X211285898Y-80836153D01*
X216828200Y-80836153D01*
X216828200Y-81793846D01*
X216858961Y-81948489D01*
X216858964Y-81948501D01*
X216919302Y-82094172D01*
X216919309Y-82094185D01*
X217006910Y-82225288D01*
X217006913Y-82225292D01*
X217118407Y-82336786D01*
X217118411Y-82336789D01*
X217249514Y-82424390D01*
X217249527Y-82424397D01*
X217395198Y-82484735D01*
X217395203Y-82484737D01*
X217549853Y-82515499D01*
X217549856Y-82515500D01*
X217549858Y-82515500D01*
X217707544Y-82515500D01*
X217707545Y-82515499D01*
X217862197Y-82484737D01*
X218007879Y-82424394D01*
X218138989Y-82336789D01*
X218250489Y-82225289D01*
X218338094Y-82094179D01*
X218398437Y-81948497D01*
X218429200Y-81793842D01*
X218429200Y-80836158D01*
X218429200Y-80836155D01*
X218429199Y-80836153D01*
X225468200Y-80836153D01*
X225468200Y-81793846D01*
X225498961Y-81948489D01*
X225498964Y-81948501D01*
X225559302Y-82094172D01*
X225559309Y-82094185D01*
X225646910Y-82225288D01*
X225646913Y-82225292D01*
X225758407Y-82336786D01*
X225758411Y-82336789D01*
X225889514Y-82424390D01*
X225889527Y-82424397D01*
X226035198Y-82484735D01*
X226035203Y-82484737D01*
X226189853Y-82515499D01*
X226189856Y-82515500D01*
X226189858Y-82515500D01*
X226347544Y-82515500D01*
X226347545Y-82515499D01*
X226502197Y-82484737D01*
X226647879Y-82424394D01*
X226778989Y-82336789D01*
X226890489Y-82225289D01*
X226978094Y-82094179D01*
X227038437Y-81948497D01*
X227069200Y-81793842D01*
X227069200Y-80836158D01*
X227069200Y-80836155D01*
X227069199Y-80836153D01*
X227038438Y-80681510D01*
X227038437Y-80681503D01*
X227015928Y-80627160D01*
X226978097Y-80535827D01*
X226978090Y-80535814D01*
X226890489Y-80404711D01*
X226890486Y-80404707D01*
X226778992Y-80293213D01*
X226778988Y-80293210D01*
X226647885Y-80205609D01*
X226647872Y-80205602D01*
X226502201Y-80145264D01*
X226502189Y-80145261D01*
X226347545Y-80114500D01*
X226347542Y-80114500D01*
X226189858Y-80114500D01*
X226189855Y-80114500D01*
X226035210Y-80145261D01*
X226035198Y-80145264D01*
X225889527Y-80205602D01*
X225889514Y-80205609D01*
X225758411Y-80293210D01*
X225758407Y-80293213D01*
X225646913Y-80404707D01*
X225646910Y-80404711D01*
X225559309Y-80535814D01*
X225559302Y-80535827D01*
X225498964Y-80681498D01*
X225498961Y-80681510D01*
X225468200Y-80836153D01*
X218429199Y-80836153D01*
X218398438Y-80681510D01*
X218398437Y-80681503D01*
X218375928Y-80627160D01*
X218338097Y-80535827D01*
X218338090Y-80535814D01*
X218250489Y-80404711D01*
X218250486Y-80404707D01*
X218138992Y-80293213D01*
X218138988Y-80293210D01*
X218007885Y-80205609D01*
X218007872Y-80205602D01*
X217862201Y-80145264D01*
X217862189Y-80145261D01*
X217707545Y-80114500D01*
X217707542Y-80114500D01*
X217549858Y-80114500D01*
X217549855Y-80114500D01*
X217395210Y-80145261D01*
X217395198Y-80145264D01*
X217249527Y-80205602D01*
X217249514Y-80205609D01*
X217118411Y-80293210D01*
X217118407Y-80293213D01*
X217006913Y-80404707D01*
X217006910Y-80404711D01*
X216919309Y-80535814D01*
X216919302Y-80535827D01*
X216858964Y-80681498D01*
X216858961Y-80681510D01*
X216828200Y-80836153D01*
X211285898Y-80836153D01*
X211285888Y-80830267D01*
X211282599Y-78799701D01*
X211302175Y-78732630D01*
X211354905Y-78686789D01*
X211406599Y-78675500D01*
X239911519Y-78675500D01*
X239918471Y-78675695D01*
G37*
%TD.AperFunction*%
%TD*%
M02*
