%TF.GenerationSoftware,KiCad,Pcbnew,8.0.5*%
%TF.CreationDate,2024-10-21T15:52:06-04:00*%
%TF.ProjectId,emberone,656d6265-726f-46e6-952e-6b696361645f,rev?*%
%TF.SameCoordinates,Original*%
%TF.FileFunction,Copper,L3,Inr*%
%TF.FilePolarity,Positive*%
%FSLAX46Y46*%
G04 Gerber Fmt 4.6, Leading zero omitted, Abs format (unit mm)*
G04 Created by KiCad (PCBNEW 8.0.5) date 2024-10-21 15:52:06*
%MOMM*%
%LPD*%
G01*
G04 APERTURE LIST*
%TA.AperFunction,ComponentPad*%
%ADD10C,1.300000*%
%TD*%
%TA.AperFunction,ComponentPad*%
%ADD11C,3.200000*%
%TD*%
%TA.AperFunction,ViaPad*%
%ADD12C,0.800000*%
%TD*%
%TA.AperFunction,ViaPad*%
%ADD13C,0.500000*%
%TD*%
%TA.AperFunction,ViaPad*%
%ADD14C,1.000000*%
%TD*%
G04 APERTURE END LIST*
D10*
%TO.N,GND*%
%TO.C,J3*%
X177530000Y-53040000D03*
X177530000Y-51040000D03*
%TO.N,/ASICs/SDA*%
X175530000Y-53040000D03*
%TO.N,/ASICs/SCL*%
X175530000Y-51040000D03*
%TO.N,/ASICs/PLUG*%
X173530000Y-53040000D03*
%TO.N,/ASICs/A2*%
X173530000Y-51040000D03*
%TO.N,/ASICs/A1*%
X171530000Y-53040000D03*
%TO.N,/ASICs/A0*%
X171530000Y-51040000D03*
%TO.N,GND*%
X169530000Y-53040000D03*
X169530000Y-51040000D03*
%TO.N,/ASICs/TXD*%
X167530000Y-53040000D03*
%TO.N,/ASICs/RXD*%
X167530000Y-51040000D03*
%TO.N,GND*%
X165530000Y-53040000D03*
X165530000Y-51040000D03*
%TO.N,/ASICs/RST*%
X163530000Y-53040000D03*
%TO.N,/ASICs/3V3*%
X163530000Y-51040000D03*
%TO.N,unconnected-(J3-Pin_17-Pad17)*%
X161530000Y-53040000D03*
%TO.N,unconnected-(J3-Pin_18-Pad18)*%
X161530000Y-51040000D03*
%TD*%
D11*
%TO.N,GND*%
%TO.C,J4*%
X146083949Y-136993949D03*
X146083949Y-129993949D03*
X141083949Y-136993949D03*
X141083949Y-129993949D03*
%TD*%
%TO.N,/Power/VIN*%
%TO.C,J1*%
X122543949Y-50963949D03*
X122543949Y-57963949D03*
X127543949Y-50963949D03*
X127543949Y-57963949D03*
%TD*%
%TO.N,/Power/VOUT*%
%TO.C,J5*%
X127520000Y-136900000D03*
X127520000Y-129900000D03*
X122520000Y-136900000D03*
X122520000Y-129900000D03*
%TD*%
%TO.N,GND*%
%TO.C,J2*%
X144053949Y-50963949D03*
X144053949Y-57963949D03*
X149053949Y-50963949D03*
X149053949Y-57963949D03*
%TD*%
D12*
%TO.N,GND*%
X115960000Y-65710000D03*
X116200000Y-56230000D03*
X110340000Y-62340000D03*
X179820000Y-82860000D03*
X173650000Y-81260000D03*
X174960000Y-78170000D03*
X177191600Y-74370000D03*
X177191600Y-72230000D03*
X175460000Y-66640000D03*
X156680000Y-72500000D03*
X155640000Y-68540000D03*
X157550000Y-65190000D03*
X169110000Y-60700000D03*
X164030000Y-58100000D03*
%TO.N,/ASICs/3V3*%
X112250000Y-62330000D03*
X114710000Y-65710000D03*
X179370000Y-77350000D03*
X181040000Y-79340000D03*
D13*
%TO.N,/ASICs/SDA*%
X173430753Y-78123697D03*
%TO.N,/ASICs/SCL*%
X173500000Y-78770000D03*
%TO.N,/ASICs/SDA*%
X111990000Y-65670000D03*
%TO.N,/ASICs/SCL*%
X112980000Y-65670000D03*
D14*
%TO.N,/Power/VOUT*%
X107190000Y-120490000D03*
X107190000Y-121860000D03*
X107190000Y-123220000D03*
X105600000Y-124610000D03*
X107190000Y-124610000D03*
X105600000Y-123220000D03*
X105600000Y-121860000D03*
X105600000Y-120490000D03*
X178310000Y-114950000D03*
X178310000Y-116540000D03*
X185440000Y-114980000D03*
X186830000Y-114980000D03*
X186830000Y-116570000D03*
X185440000Y-116570000D03*
D13*
%TO.N,Net-(D2-A)*%
X175700000Y-61280000D03*
%TO.N,Net-(D1-A)*%
X162493471Y-68033950D03*
X169350000Y-73140000D03*
%TO.N,Net-(Q3-G)*%
X160440000Y-89750000D03*
X167870000Y-66360000D03*
%TO.N,/Power/VIN_M*%
X166348951Y-63738951D03*
%TO.N,/Power/SW2*%
X166210000Y-95110000D03*
X170720000Y-66700000D03*
%TO.N,/Power/SW1*%
X134220000Y-99030000D03*
X161835157Y-67985157D03*
%TO.N,GND*%
X168950000Y-80150000D03*
%TO.N,/Power/OUT0*%
X181640000Y-80970000D03*
X135700000Y-127130000D03*
%TO.N,Net-(Q2-G)*%
X133910000Y-102340000D03*
X163140000Y-68533949D03*
%TO.N,Net-(Q4-G)*%
X160600000Y-102810000D03*
X171990000Y-68790000D03*
%TO.N,GND*%
X165450000Y-68680000D03*
X166588951Y-68683949D03*
X167660000Y-68680000D03*
X165450000Y-70820000D03*
X166588951Y-70823949D03*
X167660000Y-70820000D03*
X165460000Y-69780000D03*
X167670000Y-69780000D03*
X166598951Y-69783949D03*
X145900000Y-104480000D03*
X143350000Y-104600000D03*
X162820000Y-69530000D03*
X172780000Y-69550000D03*
D14*
%TO.N,/Power/VIN_M*%
X127963949Y-86803949D03*
X153440000Y-94770000D03*
X129353949Y-85213949D03*
X125233949Y-85213949D03*
X126603949Y-85213949D03*
X136793949Y-94103949D03*
X129353949Y-86803949D03*
X125233949Y-86803949D03*
X136793949Y-92743949D03*
X135203949Y-91373949D03*
X127963949Y-85213949D03*
X126603949Y-86803949D03*
X151850000Y-90650000D03*
X151850000Y-94770000D03*
X135203949Y-94103949D03*
X136793949Y-91373949D03*
X153440000Y-93380000D03*
X153440000Y-92020000D03*
X151850000Y-93380000D03*
X135200000Y-90010000D03*
X153440000Y-90650000D03*
X135203949Y-92743949D03*
X136790000Y-90010000D03*
X151850000Y-92020000D03*
D13*
%TO.N,Net-(U1-COMP1)*%
X167850000Y-73580000D03*
X165348951Y-75603951D03*
%TO.N,Net-(D2-A)*%
X170540000Y-73700000D03*
X171631208Y-68090000D03*
D14*
%TO.N,/Power/VOUT*%
X162310000Y-122120000D03*
X108710000Y-120480000D03*
X108710000Y-121850000D03*
X162310000Y-120730000D03*
X108710000Y-123210000D03*
X182580000Y-116530000D03*
X127630000Y-121450000D03*
X183970000Y-116530000D03*
X127630000Y-120060000D03*
X126040000Y-121450000D03*
X181220000Y-114940000D03*
X183970000Y-114940000D03*
X181220000Y-116530000D03*
X126040000Y-120060000D03*
X179850000Y-114940000D03*
X104080000Y-124630000D03*
X108710000Y-124600000D03*
X160720000Y-122120000D03*
X104080000Y-123240000D03*
X179850000Y-116530000D03*
X104080000Y-121880000D03*
X160720000Y-120730000D03*
X182580000Y-114940000D03*
X104080000Y-120510000D03*
D13*
%TO.N,Net-(Q1-G)*%
X136010000Y-96760000D03*
X161240000Y-66530000D03*
%TO.N,/Power/LOOP1*%
X162770000Y-70530000D03*
X134540000Y-103610000D03*
%TO.N,/Power/LOOP2*%
X159840000Y-104870000D03*
X171590000Y-70060000D03*
%TD*%
%TA.AperFunction,Conductor*%
%TO.N,/ASICs/3V3*%
G36*
X163130000Y-51092661D02*
G01*
X163157259Y-51194394D01*
X163209920Y-51285606D01*
X163284394Y-51360080D01*
X163375606Y-51412741D01*
X163477339Y-51440000D01*
X163483553Y-51440000D01*
X162904700Y-52018851D01*
X162898395Y-52055558D01*
X162852328Y-52106412D01*
X162833701Y-52117945D01*
X162676126Y-52261594D01*
X162628953Y-52324061D01*
X162572844Y-52365696D01*
X162503132Y-52370387D01*
X162441950Y-52336644D01*
X162431047Y-52324061D01*
X162383871Y-52261591D01*
X162241318Y-52131637D01*
X162205036Y-52071926D01*
X162206797Y-52002078D01*
X162241318Y-51948363D01*
X162383870Y-51818409D01*
X162383872Y-51818407D01*
X162465936Y-51709737D01*
X162522043Y-51668103D01*
X162552721Y-51663725D01*
X163130000Y-51086446D01*
X163130000Y-51092661D01*
G37*
%TD.AperFunction*%
%TA.AperFunction,Conductor*%
G36*
X164509326Y-51665773D02*
G01*
X164554771Y-51675761D01*
X164594065Y-51709739D01*
X164676127Y-51818406D01*
X164818682Y-51948363D01*
X164854963Y-52008075D01*
X164853202Y-52077922D01*
X164818682Y-52131637D01*
X164676126Y-52261594D01*
X164628953Y-52324061D01*
X164572844Y-52365696D01*
X164503132Y-52370387D01*
X164441950Y-52336644D01*
X164431047Y-52324061D01*
X164383873Y-52261594D01*
X164226299Y-52117945D01*
X164207670Y-52106411D01*
X164161035Y-52054383D01*
X164155090Y-52018642D01*
X163576448Y-51440000D01*
X163582661Y-51440000D01*
X163684394Y-51412741D01*
X163775606Y-51360080D01*
X163850080Y-51285606D01*
X163902741Y-51194394D01*
X163930000Y-51092661D01*
X163930000Y-51086447D01*
X164509326Y-51665773D01*
G37*
%TD.AperFunction*%
%TA.AperFunction,Conductor*%
G36*
X190460927Y-45000013D02*
G01*
X190606957Y-45002218D01*
X190619998Y-45003105D01*
X190910834Y-45038419D01*
X190925531Y-45041112D01*
X191209072Y-45110999D01*
X191223362Y-45115453D01*
X191496390Y-45218998D01*
X191510045Y-45225144D01*
X191768595Y-45360842D01*
X191781409Y-45368588D01*
X192021731Y-45534470D01*
X192033514Y-45543702D01*
X192252078Y-45737333D01*
X192262666Y-45747921D01*
X192456297Y-45966485D01*
X192465532Y-45978272D01*
X192631411Y-46218590D01*
X192639157Y-46231404D01*
X192774855Y-46489954D01*
X192781001Y-46503609D01*
X192884546Y-46776637D01*
X192889001Y-46790932D01*
X192958883Y-47074450D01*
X192961582Y-47089179D01*
X192996892Y-47379983D01*
X192997782Y-47393058D01*
X192999986Y-47539071D01*
X193000000Y-47540943D01*
X193000000Y-84627642D01*
X192980315Y-84694681D01*
X192927511Y-84740436D01*
X192876172Y-84751642D01*
X130362167Y-84838406D01*
X130295100Y-84818814D01*
X130252637Y-84772859D01*
X130189862Y-84655416D01*
X130189858Y-84655409D01*
X130064832Y-84503065D01*
X129912488Y-84378039D01*
X129912481Y-84378035D01*
X129738682Y-84285137D01*
X129738676Y-84285135D01*
X129550081Y-84227925D01*
X129550078Y-84227924D01*
X129353949Y-84208608D01*
X129157819Y-84227924D01*
X128969215Y-84285137D01*
X128795416Y-84378035D01*
X128795410Y-84378039D01*
X128737613Y-84425472D01*
X128673303Y-84452784D01*
X128604436Y-84440993D01*
X128580285Y-84425472D01*
X128522487Y-84378039D01*
X128522481Y-84378035D01*
X128348682Y-84285137D01*
X128348676Y-84285135D01*
X128160081Y-84227925D01*
X128160078Y-84227924D01*
X127963949Y-84208608D01*
X127767819Y-84227924D01*
X127579215Y-84285137D01*
X127405416Y-84378035D01*
X127405409Y-84378040D01*
X127362614Y-84413161D01*
X127298304Y-84440474D01*
X127229436Y-84428683D01*
X127205284Y-84413161D01*
X127162488Y-84378040D01*
X127162481Y-84378035D01*
X126988682Y-84285137D01*
X126988676Y-84285135D01*
X126800081Y-84227925D01*
X126800078Y-84227924D01*
X126603949Y-84208608D01*
X126407819Y-84227924D01*
X126219215Y-84285137D01*
X126045416Y-84378035D01*
X126045410Y-84378039D01*
X125997613Y-84417265D01*
X125933303Y-84444577D01*
X125864436Y-84432786D01*
X125840285Y-84417265D01*
X125792487Y-84378039D01*
X125792481Y-84378035D01*
X125618682Y-84285137D01*
X125618676Y-84285135D01*
X125430081Y-84227925D01*
X125430078Y-84227924D01*
X125233949Y-84208608D01*
X125037819Y-84227924D01*
X124849215Y-84285137D01*
X124675416Y-84378035D01*
X124675409Y-84378039D01*
X124523065Y-84503065D01*
X124398039Y-84655409D01*
X124398037Y-84655413D01*
X124330704Y-84781383D01*
X124281741Y-84831227D01*
X124221518Y-84846929D01*
X95124172Y-84887314D01*
X95057105Y-84867722D01*
X95011277Y-84814982D01*
X95000000Y-84763314D01*
X95000000Y-82860000D01*
X178914540Y-82860000D01*
X178934326Y-83048256D01*
X178934327Y-83048259D01*
X178992818Y-83228277D01*
X178992821Y-83228284D01*
X179087467Y-83392216D01*
X179214129Y-83532888D01*
X179367265Y-83644148D01*
X179367270Y-83644151D01*
X179540192Y-83721142D01*
X179540197Y-83721144D01*
X179725354Y-83760500D01*
X179725355Y-83760500D01*
X179914644Y-83760500D01*
X179914646Y-83760500D01*
X180099803Y-83721144D01*
X180272730Y-83644151D01*
X180425871Y-83532888D01*
X180552533Y-83392216D01*
X180647179Y-83228284D01*
X180705674Y-83048256D01*
X180725460Y-82860000D01*
X180705674Y-82671744D01*
X180647179Y-82491716D01*
X180552533Y-82327784D01*
X180425871Y-82187112D01*
X180389243Y-82160500D01*
X180272734Y-82075851D01*
X180272729Y-82075848D01*
X180099807Y-81998857D01*
X180099802Y-81998855D01*
X179954001Y-81967865D01*
X179914646Y-81959500D01*
X179725354Y-81959500D01*
X179692897Y-81966398D01*
X179540197Y-81998855D01*
X179540192Y-81998857D01*
X179367270Y-82075848D01*
X179367265Y-82075851D01*
X179214129Y-82187111D01*
X179087466Y-82327785D01*
X178992821Y-82491715D01*
X178992818Y-82491722D01*
X178934327Y-82671740D01*
X178934326Y-82671744D01*
X178914540Y-82860000D01*
X95000000Y-82860000D01*
X95000000Y-81260000D01*
X172744540Y-81260000D01*
X172764326Y-81448256D01*
X172764327Y-81448259D01*
X172822818Y-81628277D01*
X172822821Y-81628284D01*
X172917467Y-81792216D01*
X173044129Y-81932888D01*
X173197265Y-82044148D01*
X173197270Y-82044151D01*
X173370192Y-82121142D01*
X173370197Y-82121144D01*
X173555354Y-82160500D01*
X173555355Y-82160500D01*
X173744644Y-82160500D01*
X173744646Y-82160500D01*
X173929803Y-82121144D01*
X174102730Y-82044151D01*
X174255871Y-81932888D01*
X174382533Y-81792216D01*
X174477179Y-81628284D01*
X174535674Y-81448256D01*
X174555460Y-81260000D01*
X174535674Y-81071744D01*
X174502614Y-80969997D01*
X180884751Y-80969997D01*
X180884751Y-80970002D01*
X180903685Y-81138056D01*
X180959545Y-81297694D01*
X180959547Y-81297697D01*
X181049518Y-81440884D01*
X181049523Y-81440890D01*
X181169109Y-81560476D01*
X181169115Y-81560481D01*
X181312302Y-81650452D01*
X181312305Y-81650454D01*
X181312309Y-81650455D01*
X181312310Y-81650456D01*
X181384913Y-81675860D01*
X181471943Y-81706314D01*
X181639997Y-81725249D01*
X181640000Y-81725249D01*
X181640003Y-81725249D01*
X181808056Y-81706314D01*
X181808059Y-81706313D01*
X181967690Y-81650456D01*
X181967692Y-81650454D01*
X181967694Y-81650454D01*
X181967697Y-81650452D01*
X182110884Y-81560481D01*
X182110885Y-81560480D01*
X182110890Y-81560477D01*
X182230477Y-81440890D01*
X182320452Y-81297697D01*
X182320454Y-81297694D01*
X182320454Y-81297692D01*
X182320456Y-81297690D01*
X182376313Y-81138059D01*
X182376313Y-81138058D01*
X182376314Y-81138056D01*
X182395249Y-80970002D01*
X182395249Y-80969997D01*
X182376314Y-80801943D01*
X182320454Y-80642305D01*
X182320452Y-80642302D01*
X182230481Y-80499115D01*
X182230476Y-80499109D01*
X182110890Y-80379523D01*
X182110884Y-80379518D01*
X181967697Y-80289547D01*
X181967694Y-80289545D01*
X181808056Y-80233685D01*
X181640003Y-80214751D01*
X181639997Y-80214751D01*
X181471943Y-80233685D01*
X181312305Y-80289545D01*
X181312302Y-80289547D01*
X181169115Y-80379518D01*
X181169109Y-80379523D01*
X181049523Y-80499109D01*
X181049518Y-80499115D01*
X180959547Y-80642302D01*
X180959545Y-80642305D01*
X180903685Y-80801943D01*
X180884751Y-80969997D01*
X174502614Y-80969997D01*
X174477179Y-80891716D01*
X174382533Y-80727784D01*
X174255871Y-80587112D01*
X174255870Y-80587111D01*
X174102734Y-80475851D01*
X174102729Y-80475848D01*
X173929807Y-80398857D01*
X173929802Y-80398855D01*
X173784001Y-80367865D01*
X173744646Y-80359500D01*
X173555354Y-80359500D01*
X173522897Y-80366398D01*
X173370197Y-80398855D01*
X173370192Y-80398857D01*
X173197270Y-80475848D01*
X173197265Y-80475851D01*
X173044129Y-80587111D01*
X172917466Y-80727785D01*
X172822821Y-80891715D01*
X172822818Y-80891722D01*
X172764327Y-81071740D01*
X172764326Y-81071744D01*
X172744540Y-81260000D01*
X95000000Y-81260000D01*
X95000000Y-80149997D01*
X168194751Y-80149997D01*
X168194751Y-80150002D01*
X168213685Y-80318056D01*
X168269545Y-80477694D01*
X168269547Y-80477697D01*
X168359518Y-80620884D01*
X168359523Y-80620890D01*
X168479109Y-80740476D01*
X168479115Y-80740481D01*
X168622302Y-80830452D01*
X168622305Y-80830454D01*
X168622309Y-80830455D01*
X168622310Y-80830456D01*
X168694913Y-80855860D01*
X168781943Y-80886314D01*
X168949997Y-80905249D01*
X168950000Y-80905249D01*
X168950003Y-80905249D01*
X169118056Y-80886314D01*
X169118059Y-80886313D01*
X169277690Y-80830456D01*
X169277692Y-80830454D01*
X169277694Y-80830454D01*
X169277697Y-80830452D01*
X169420884Y-80740481D01*
X169420885Y-80740480D01*
X169420890Y-80740477D01*
X169540477Y-80620890D01*
X169540481Y-80620884D01*
X169630452Y-80477697D01*
X169630454Y-80477694D01*
X169630454Y-80477692D01*
X169630456Y-80477690D01*
X169686313Y-80318059D01*
X169686313Y-80318058D01*
X169686314Y-80318056D01*
X169705249Y-80150002D01*
X169705249Y-80149997D01*
X169686314Y-79981943D01*
X169630454Y-79822305D01*
X169630452Y-79822302D01*
X169540481Y-79679115D01*
X169540476Y-79679109D01*
X169420890Y-79559523D01*
X169420884Y-79559518D01*
X169277697Y-79469547D01*
X169277694Y-79469545D01*
X169118056Y-79413685D01*
X168950003Y-79394751D01*
X168949997Y-79394751D01*
X168781943Y-79413685D01*
X168622305Y-79469545D01*
X168622302Y-79469547D01*
X168479115Y-79559518D01*
X168479109Y-79559523D01*
X168359523Y-79679109D01*
X168359518Y-79679115D01*
X168269547Y-79822302D01*
X168269545Y-79822305D01*
X168213685Y-79981943D01*
X168194751Y-80149997D01*
X95000000Y-80149997D01*
X95000000Y-78123694D01*
X172675504Y-78123694D01*
X172675504Y-78123699D01*
X172694438Y-78291753D01*
X172750297Y-78451387D01*
X172760964Y-78468363D01*
X172779964Y-78535600D01*
X172773013Y-78575287D01*
X172763686Y-78601943D01*
X172744751Y-78769997D01*
X172744751Y-78770002D01*
X172763685Y-78938056D01*
X172819545Y-79097694D01*
X172819547Y-79097697D01*
X172909518Y-79240884D01*
X172909523Y-79240890D01*
X173029109Y-79360476D01*
X173029115Y-79360481D01*
X173172302Y-79450452D01*
X173172305Y-79450454D01*
X173172309Y-79450455D01*
X173172310Y-79450456D01*
X173226861Y-79469544D01*
X173331943Y-79506314D01*
X173499997Y-79525249D01*
X173500000Y-79525249D01*
X173500003Y-79525249D01*
X173668056Y-79506314D01*
X173668059Y-79506313D01*
X173827690Y-79450456D01*
X173827692Y-79450454D01*
X173827694Y-79450454D01*
X173827697Y-79450452D01*
X173970884Y-79360481D01*
X173970885Y-79360480D01*
X173970890Y-79360477D01*
X174090477Y-79240890D01*
X174180454Y-79097694D01*
X174180455Y-79097691D01*
X174180456Y-79097690D01*
X174231686Y-78951281D01*
X174272408Y-78894506D01*
X174337361Y-78868758D01*
X174405922Y-78882214D01*
X174421613Y-78891918D01*
X174507265Y-78954148D01*
X174507270Y-78954151D01*
X174680192Y-79031142D01*
X174680197Y-79031144D01*
X174865354Y-79070500D01*
X174865355Y-79070500D01*
X175054644Y-79070500D01*
X175054646Y-79070500D01*
X175239803Y-79031144D01*
X175412730Y-78954151D01*
X175565871Y-78842888D01*
X175692533Y-78702216D01*
X175787179Y-78538284D01*
X175845674Y-78358256D01*
X175865460Y-78170000D01*
X175845674Y-77981744D01*
X175787179Y-77801716D01*
X175692533Y-77637784D01*
X175565871Y-77497112D01*
X175565870Y-77497111D01*
X175412734Y-77385851D01*
X175412729Y-77385848D01*
X175239807Y-77308857D01*
X175239802Y-77308855D01*
X175094001Y-77277865D01*
X175054646Y-77269500D01*
X174865354Y-77269500D01*
X174832897Y-77276398D01*
X174680197Y-77308855D01*
X174680192Y-77308857D01*
X174507270Y-77385848D01*
X174507265Y-77385851D01*
X174354129Y-77497111D01*
X174227465Y-77637785D01*
X174227463Y-77637788D01*
X174226760Y-77639007D01*
X174226168Y-77639570D01*
X174223645Y-77643044D01*
X174223009Y-77642582D01*
X174176190Y-77687219D01*
X174107582Y-77700438D01*
X174042719Y-77674465D01*
X174022427Y-77654309D01*
X174021233Y-77652811D01*
X174021230Y-77652807D01*
X173901643Y-77533220D01*
X173901637Y-77533215D01*
X173758450Y-77443244D01*
X173758447Y-77443242D01*
X173598809Y-77387382D01*
X173430756Y-77368448D01*
X173430750Y-77368448D01*
X173262696Y-77387382D01*
X173103058Y-77443242D01*
X173103055Y-77443244D01*
X172959868Y-77533215D01*
X172959862Y-77533220D01*
X172840276Y-77652806D01*
X172840271Y-77652812D01*
X172750300Y-77795999D01*
X172750298Y-77796002D01*
X172694438Y-77955640D01*
X172675504Y-78123694D01*
X95000000Y-78123694D01*
X95000000Y-75603948D01*
X164593702Y-75603948D01*
X164593702Y-75603953D01*
X164612636Y-75772007D01*
X164668496Y-75931645D01*
X164668498Y-75931648D01*
X164758469Y-76074835D01*
X164758474Y-76074841D01*
X164878060Y-76194427D01*
X164878066Y-76194432D01*
X165021253Y-76284403D01*
X165021256Y-76284405D01*
X165021260Y-76284406D01*
X165021261Y-76284407D01*
X165093864Y-76309811D01*
X165180894Y-76340265D01*
X165348948Y-76359200D01*
X165348951Y-76359200D01*
X165348954Y-76359200D01*
X165517007Y-76340265D01*
X165517010Y-76340264D01*
X165676641Y-76284407D01*
X165676643Y-76284405D01*
X165676645Y-76284405D01*
X165676648Y-76284403D01*
X165819835Y-76194432D01*
X165819836Y-76194431D01*
X165819841Y-76194428D01*
X165939428Y-76074841D01*
X166029403Y-75931648D01*
X166029405Y-75931645D01*
X166029405Y-75931643D01*
X166029407Y-75931641D01*
X166085264Y-75772010D01*
X166085264Y-75772009D01*
X166085265Y-75772007D01*
X166104200Y-75603953D01*
X166104200Y-75603948D01*
X166085265Y-75435894D01*
X166029405Y-75276256D01*
X166029403Y-75276253D01*
X165939432Y-75133066D01*
X165939427Y-75133060D01*
X165819841Y-75013474D01*
X165819835Y-75013469D01*
X165676648Y-74923498D01*
X165676645Y-74923496D01*
X165517007Y-74867636D01*
X165348954Y-74848702D01*
X165348948Y-74848702D01*
X165180894Y-74867636D01*
X165021256Y-74923496D01*
X165021253Y-74923498D01*
X164878066Y-75013469D01*
X164878060Y-75013474D01*
X164758474Y-75133060D01*
X164758469Y-75133066D01*
X164668498Y-75276253D01*
X164668496Y-75276256D01*
X164612636Y-75435894D01*
X164593702Y-75603948D01*
X95000000Y-75603948D01*
X95000000Y-73579997D01*
X167094751Y-73579997D01*
X167094751Y-73580002D01*
X167113685Y-73748056D01*
X167169545Y-73907694D01*
X167169547Y-73907697D01*
X167259518Y-74050884D01*
X167259523Y-74050890D01*
X167379109Y-74170476D01*
X167379115Y-74170481D01*
X167522302Y-74260452D01*
X167522305Y-74260454D01*
X167522309Y-74260455D01*
X167522310Y-74260456D01*
X167594913Y-74285860D01*
X167681943Y-74316314D01*
X167849997Y-74335249D01*
X167850000Y-74335249D01*
X167850003Y-74335249D01*
X168018056Y-74316314D01*
X168018059Y-74316313D01*
X168177690Y-74260456D01*
X168177692Y-74260454D01*
X168177694Y-74260454D01*
X168177697Y-74260452D01*
X168320884Y-74170481D01*
X168320885Y-74170480D01*
X168320890Y-74170477D01*
X168440477Y-74050890D01*
X168455052Y-74027694D01*
X168530452Y-73907697D01*
X168530454Y-73907694D01*
X168530454Y-73907692D01*
X168530456Y-73907690D01*
X168586313Y-73748059D01*
X168586313Y-73748057D01*
X168586314Y-73748055D01*
X168588914Y-73724980D01*
X168615980Y-73660566D01*
X168673575Y-73621011D01*
X168743412Y-73618873D01*
X168799815Y-73651182D01*
X168879109Y-73730476D01*
X168879115Y-73730481D01*
X169022302Y-73820452D01*
X169022305Y-73820454D01*
X169022309Y-73820455D01*
X169022310Y-73820456D01*
X169041941Y-73827325D01*
X169181943Y-73876314D01*
X169349997Y-73895249D01*
X169350000Y-73895249D01*
X169350003Y-73895249D01*
X169518059Y-73876313D01*
X169518061Y-73876313D01*
X169658061Y-73827325D01*
X169727840Y-73823763D01*
X169788467Y-73858491D01*
X169816056Y-73903410D01*
X169817556Y-73907694D01*
X169859544Y-74027692D01*
X169859547Y-74027697D01*
X169949518Y-74170884D01*
X169949523Y-74170890D01*
X170069109Y-74290476D01*
X170069115Y-74290481D01*
X170212302Y-74380452D01*
X170212305Y-74380454D01*
X170212309Y-74380455D01*
X170212310Y-74380456D01*
X170284913Y-74405860D01*
X170371943Y-74436314D01*
X170539997Y-74455249D01*
X170540000Y-74455249D01*
X170540003Y-74455249D01*
X170708056Y-74436314D01*
X170708059Y-74436313D01*
X170867690Y-74380456D01*
X170867692Y-74380454D01*
X170867694Y-74380454D01*
X170867697Y-74380452D01*
X170884331Y-74370000D01*
X176286140Y-74370000D01*
X176305926Y-74558256D01*
X176305927Y-74558259D01*
X176364418Y-74738277D01*
X176364421Y-74738284D01*
X176459067Y-74902216D01*
X176585729Y-75042888D01*
X176738865Y-75154148D01*
X176738870Y-75154151D01*
X176911792Y-75231142D01*
X176911797Y-75231144D01*
X177096954Y-75270500D01*
X177096955Y-75270500D01*
X177286244Y-75270500D01*
X177286246Y-75270500D01*
X177471403Y-75231144D01*
X177644330Y-75154151D01*
X177797471Y-75042888D01*
X177924133Y-74902216D01*
X178018779Y-74738284D01*
X178077274Y-74558256D01*
X178097060Y-74370000D01*
X178077274Y-74181744D01*
X178018779Y-74001716D01*
X177924133Y-73837784D01*
X177797471Y-73697112D01*
X177734254Y-73651182D01*
X177644334Y-73585851D01*
X177644329Y-73585848D01*
X177471407Y-73508857D01*
X177471402Y-73508855D01*
X177325601Y-73477865D01*
X177286246Y-73469500D01*
X177096954Y-73469500D01*
X177064497Y-73476398D01*
X176911797Y-73508855D01*
X176911792Y-73508857D01*
X176738870Y-73585848D01*
X176738865Y-73585851D01*
X176585729Y-73697111D01*
X176459066Y-73837785D01*
X176364421Y-74001715D01*
X176364418Y-74001722D01*
X176305927Y-74181740D01*
X176305926Y-74181744D01*
X176286140Y-74370000D01*
X170884331Y-74370000D01*
X171010884Y-74290481D01*
X171010885Y-74290480D01*
X171010890Y-74290477D01*
X171130477Y-74170890D01*
X171130737Y-74170476D01*
X171220452Y-74027697D01*
X171220454Y-74027694D01*
X171220454Y-74027692D01*
X171220456Y-74027690D01*
X171276313Y-73868059D01*
X171276313Y-73868058D01*
X171276314Y-73868056D01*
X171295249Y-73700002D01*
X171295249Y-73699997D01*
X171276314Y-73531943D01*
X171220454Y-73372305D01*
X171220452Y-73372302D01*
X171130481Y-73229115D01*
X171130476Y-73229109D01*
X171010890Y-73109523D01*
X171010884Y-73109518D01*
X170867697Y-73019547D01*
X170867694Y-73019545D01*
X170708056Y-72963685D01*
X170540003Y-72944751D01*
X170539997Y-72944751D01*
X170371942Y-72963686D01*
X170231938Y-73012675D01*
X170162159Y-73016236D01*
X170101532Y-72981507D01*
X170073942Y-72936587D01*
X170060981Y-72899547D01*
X170030456Y-72812310D01*
X170030453Y-72812305D01*
X170030452Y-72812302D01*
X169940481Y-72669115D01*
X169940476Y-72669109D01*
X169820890Y-72549523D01*
X169820884Y-72549518D01*
X169677697Y-72459547D01*
X169677694Y-72459545D01*
X169518056Y-72403685D01*
X169350003Y-72384751D01*
X169349997Y-72384751D01*
X169181943Y-72403685D01*
X169022305Y-72459545D01*
X169022302Y-72459547D01*
X168879115Y-72549518D01*
X168879109Y-72549523D01*
X168759523Y-72669109D01*
X168759518Y-72669115D01*
X168669547Y-72812302D01*
X168669545Y-72812305D01*
X168613686Y-72971943D01*
X168611085Y-72995023D01*
X168584016Y-73059436D01*
X168526420Y-73098990D01*
X168456583Y-73101125D01*
X168400184Y-73068817D01*
X168320890Y-72989523D01*
X168320884Y-72989518D01*
X168177697Y-72899547D01*
X168177694Y-72899545D01*
X168018056Y-72843685D01*
X167850003Y-72824751D01*
X167849997Y-72824751D01*
X167681943Y-72843685D01*
X167522305Y-72899545D01*
X167522302Y-72899547D01*
X167379115Y-72989518D01*
X167379109Y-72989523D01*
X167259523Y-73109109D01*
X167259518Y-73109115D01*
X167169547Y-73252302D01*
X167169545Y-73252305D01*
X167113685Y-73411943D01*
X167094751Y-73579997D01*
X95000000Y-73579997D01*
X95000000Y-72500000D01*
X155774540Y-72500000D01*
X155794326Y-72688256D01*
X155794327Y-72688259D01*
X155852818Y-72868277D01*
X155852821Y-72868284D01*
X155947467Y-73032216D01*
X156074129Y-73172888D01*
X156227265Y-73284148D01*
X156227270Y-73284151D01*
X156400192Y-73361142D01*
X156400197Y-73361144D01*
X156585354Y-73400500D01*
X156585355Y-73400500D01*
X156774644Y-73400500D01*
X156774646Y-73400500D01*
X156959803Y-73361144D01*
X157132730Y-73284151D01*
X157285871Y-73172888D01*
X157412533Y-73032216D01*
X157507179Y-72868284D01*
X157565674Y-72688256D01*
X157585460Y-72500000D01*
X157565674Y-72311744D01*
X157539114Y-72230000D01*
X176286140Y-72230000D01*
X176305926Y-72418256D01*
X176305927Y-72418259D01*
X176364418Y-72598277D01*
X176364421Y-72598284D01*
X176459067Y-72762216D01*
X176582718Y-72899544D01*
X176585729Y-72902888D01*
X176738865Y-73014148D01*
X176738870Y-73014151D01*
X176911792Y-73091142D01*
X176911797Y-73091144D01*
X177096954Y-73130500D01*
X177096955Y-73130500D01*
X177286244Y-73130500D01*
X177286246Y-73130500D01*
X177471403Y-73091144D01*
X177644330Y-73014151D01*
X177797471Y-72902888D01*
X177924133Y-72762216D01*
X178018779Y-72598284D01*
X178077274Y-72418256D01*
X178097060Y-72230000D01*
X178077274Y-72041744D01*
X178018779Y-71861716D01*
X177924133Y-71697784D01*
X177797471Y-71557112D01*
X177796373Y-71556314D01*
X177644334Y-71445851D01*
X177644329Y-71445848D01*
X177471407Y-71368857D01*
X177471402Y-71368855D01*
X177325601Y-71337865D01*
X177286246Y-71329500D01*
X177096954Y-71329500D01*
X177064497Y-71336398D01*
X176911797Y-71368855D01*
X176911792Y-71368857D01*
X176738870Y-71445848D01*
X176738865Y-71445851D01*
X176585729Y-71557111D01*
X176459066Y-71697785D01*
X176364421Y-71861715D01*
X176364418Y-71861722D01*
X176305927Y-72041740D01*
X176305926Y-72041744D01*
X176286140Y-72230000D01*
X157539114Y-72230000D01*
X157507179Y-72131716D01*
X157412533Y-71967784D01*
X157285871Y-71827112D01*
X157285870Y-71827111D01*
X157132734Y-71715851D01*
X157132729Y-71715848D01*
X156959807Y-71638857D01*
X156959802Y-71638855D01*
X156814001Y-71607865D01*
X156774646Y-71599500D01*
X156585354Y-71599500D01*
X156552897Y-71606398D01*
X156400197Y-71638855D01*
X156400192Y-71638857D01*
X156227270Y-71715848D01*
X156227265Y-71715851D01*
X156074129Y-71827111D01*
X155947466Y-71967785D01*
X155852821Y-72131715D01*
X155852818Y-72131722D01*
X155820886Y-72230000D01*
X155794326Y-72311744D01*
X155774540Y-72500000D01*
X95000000Y-72500000D01*
X95000000Y-68540000D01*
X154734540Y-68540000D01*
X154754326Y-68728256D01*
X154754327Y-68728259D01*
X154812818Y-68908277D01*
X154812821Y-68908284D01*
X154907467Y-69072216D01*
X155029563Y-69207817D01*
X155034129Y-69212888D01*
X155187265Y-69324148D01*
X155187270Y-69324151D01*
X155360192Y-69401142D01*
X155360197Y-69401144D01*
X155545354Y-69440500D01*
X155545355Y-69440500D01*
X155734644Y-69440500D01*
X155734646Y-69440500D01*
X155919803Y-69401144D01*
X156092730Y-69324151D01*
X156245871Y-69212888D01*
X156372533Y-69072216D01*
X156467179Y-68908284D01*
X156525674Y-68728256D01*
X156545460Y-68540000D01*
X156525674Y-68351744D01*
X156467179Y-68171716D01*
X156372533Y-68007784D01*
X156245871Y-67867112D01*
X156245870Y-67867111D01*
X156092734Y-67755851D01*
X156092729Y-67755848D01*
X155919807Y-67678857D01*
X155919802Y-67678855D01*
X155774001Y-67647865D01*
X155734646Y-67639500D01*
X155545354Y-67639500D01*
X155512897Y-67646398D01*
X155360197Y-67678855D01*
X155360192Y-67678857D01*
X155187270Y-67755848D01*
X155187265Y-67755851D01*
X155034129Y-67867111D01*
X154907466Y-68007785D01*
X154812821Y-68171715D01*
X154812818Y-68171722D01*
X154754327Y-68351740D01*
X154754326Y-68351744D01*
X154734540Y-68540000D01*
X95000000Y-68540000D01*
X95000000Y-65669997D01*
X111234751Y-65669997D01*
X111234751Y-65670002D01*
X111253685Y-65838056D01*
X111309545Y-65997694D01*
X111309547Y-65997697D01*
X111399518Y-66140884D01*
X111399523Y-66140890D01*
X111519109Y-66260476D01*
X111519115Y-66260481D01*
X111662302Y-66350452D01*
X111662305Y-66350454D01*
X111662309Y-66350455D01*
X111662310Y-66350456D01*
X111734913Y-66375860D01*
X111821943Y-66406314D01*
X111989997Y-66425249D01*
X111990000Y-66425249D01*
X111990003Y-66425249D01*
X112158056Y-66406314D01*
X112158059Y-66406313D01*
X112317690Y-66350456D01*
X112419028Y-66286780D01*
X112486264Y-66267780D01*
X112550971Y-66286780D01*
X112595695Y-66314882D01*
X112652306Y-66350454D01*
X112652307Y-66350454D01*
X112652310Y-66350456D01*
X112744996Y-66382888D01*
X112811943Y-66406314D01*
X112979997Y-66425249D01*
X112980000Y-66425249D01*
X112980003Y-66425249D01*
X113148056Y-66406314D01*
X113148059Y-66406313D01*
X113307690Y-66350456D01*
X113307692Y-66350454D01*
X113307694Y-66350454D01*
X113307697Y-66350452D01*
X113450884Y-66260481D01*
X113450885Y-66260480D01*
X113450890Y-66260477D01*
X113570477Y-66140890D01*
X113570481Y-66140884D01*
X113660452Y-65997697D01*
X113660454Y-65997694D01*
X113660454Y-65997692D01*
X113660456Y-65997690D01*
X113716313Y-65838059D01*
X113716313Y-65838058D01*
X113716314Y-65838056D01*
X113730742Y-65710000D01*
X115054540Y-65710000D01*
X115074326Y-65898256D01*
X115074327Y-65898259D01*
X115132818Y-66078277D01*
X115132821Y-66078284D01*
X115227467Y-66242216D01*
X115354129Y-66382888D01*
X115507265Y-66494148D01*
X115507270Y-66494151D01*
X115680192Y-66571142D01*
X115680197Y-66571144D01*
X115865354Y-66610500D01*
X115865355Y-66610500D01*
X116054644Y-66610500D01*
X116054646Y-66610500D01*
X116239803Y-66571144D01*
X116332220Y-66529997D01*
X160484751Y-66529997D01*
X160484751Y-66530002D01*
X160503685Y-66698056D01*
X160559545Y-66857694D01*
X160559547Y-66857697D01*
X160649518Y-67000884D01*
X160649523Y-67000890D01*
X160769109Y-67120476D01*
X160769115Y-67120481D01*
X160912302Y-67210452D01*
X160912305Y-67210454D01*
X160912309Y-67210455D01*
X160912310Y-67210456D01*
X161071941Y-67266313D01*
X161071944Y-67266314D01*
X161153581Y-67275511D01*
X161194164Y-67280084D01*
X161258577Y-67307150D01*
X161298132Y-67364745D01*
X161300270Y-67434582D01*
X161267963Y-67490984D01*
X161244675Y-67514272D01*
X161154704Y-67657459D01*
X161154702Y-67657462D01*
X161098842Y-67817100D01*
X161079908Y-67985154D01*
X161079908Y-67985159D01*
X161098842Y-68153213D01*
X161154702Y-68312851D01*
X161154704Y-68312854D01*
X161244675Y-68456041D01*
X161244680Y-68456047D01*
X161364266Y-68575633D01*
X161364272Y-68575638D01*
X161507459Y-68665609D01*
X161507462Y-68665611D01*
X161507466Y-68665612D01*
X161507467Y-68665613D01*
X161549946Y-68680477D01*
X161667100Y-68721471D01*
X161835154Y-68740406D01*
X161835157Y-68740406D01*
X161835160Y-68740406D01*
X162003213Y-68721471D01*
X162031297Y-68711644D01*
X162058489Y-68702128D01*
X162128268Y-68698567D01*
X162159391Y-68711644D01*
X162159515Y-68711388D01*
X162164538Y-68713807D01*
X162165414Y-68714175D01*
X162165781Y-68714406D01*
X162240085Y-68740406D01*
X162282081Y-68755101D01*
X162338857Y-68795823D01*
X162364605Y-68860775D01*
X162351149Y-68929337D01*
X162328809Y-68959824D01*
X162229518Y-69059115D01*
X162139547Y-69202302D01*
X162139545Y-69202305D01*
X162083685Y-69361943D01*
X162064751Y-69529997D01*
X162064751Y-69530002D01*
X162083685Y-69698056D01*
X162139545Y-69857693D01*
X162181360Y-69924240D01*
X162200361Y-69991477D01*
X162181361Y-70056185D01*
X162089545Y-70202307D01*
X162033685Y-70361943D01*
X162014751Y-70529997D01*
X162014751Y-70530002D01*
X162033685Y-70698056D01*
X162089545Y-70857694D01*
X162089547Y-70857697D01*
X162179518Y-71000884D01*
X162179523Y-71000890D01*
X162299109Y-71120476D01*
X162299115Y-71120481D01*
X162442302Y-71210452D01*
X162442305Y-71210454D01*
X162442309Y-71210455D01*
X162442310Y-71210456D01*
X162514913Y-71235860D01*
X162601943Y-71266314D01*
X162769997Y-71285249D01*
X162770000Y-71285249D01*
X162770003Y-71285249D01*
X162938056Y-71266314D01*
X162938059Y-71266313D01*
X163097690Y-71210456D01*
X163097692Y-71210454D01*
X163097694Y-71210454D01*
X163097697Y-71210452D01*
X163240884Y-71120481D01*
X163240885Y-71120480D01*
X163240890Y-71120477D01*
X163360477Y-71000890D01*
X163360481Y-71000884D01*
X163450452Y-70857697D01*
X163450454Y-70857694D01*
X163450454Y-70857692D01*
X163450456Y-70857690D01*
X163506313Y-70698059D01*
X163506313Y-70698058D01*
X163506314Y-70698056D01*
X163525249Y-70530002D01*
X163525249Y-70529997D01*
X163506314Y-70361943D01*
X163467557Y-70251182D01*
X163450456Y-70202310D01*
X163450454Y-70202307D01*
X163450454Y-70202306D01*
X163408639Y-70135759D01*
X163389638Y-70068522D01*
X163408639Y-70003813D01*
X163410473Y-70000893D01*
X163410477Y-70000890D01*
X163500456Y-69857690D01*
X163556313Y-69698059D01*
X163556313Y-69698058D01*
X163556314Y-69698056D01*
X163575249Y-69530002D01*
X163575249Y-69529997D01*
X163556313Y-69361940D01*
X163556313Y-69361938D01*
X163530680Y-69288684D01*
X163527118Y-69218905D01*
X163561846Y-69158278D01*
X163581749Y-69142735D01*
X163610890Y-69124426D01*
X163730477Y-69004839D01*
X163758951Y-68959523D01*
X163820452Y-68861646D01*
X163820454Y-68861643D01*
X163820454Y-68861641D01*
X163820456Y-68861639D01*
X163876313Y-68702008D01*
X163876313Y-68702007D01*
X163876314Y-68702005D01*
X163878794Y-68679997D01*
X164694751Y-68679997D01*
X164694751Y-68680002D01*
X164713685Y-68848056D01*
X164769545Y-69007694D01*
X164769547Y-69007697D01*
X164859518Y-69150884D01*
X164863864Y-69156333D01*
X164862089Y-69157748D01*
X164890411Y-69209616D01*
X164885427Y-69279308D01*
X164872244Y-69302596D01*
X164873227Y-69303214D01*
X164779547Y-69452302D01*
X164779545Y-69452305D01*
X164723685Y-69611943D01*
X164704751Y-69779997D01*
X164704751Y-69780002D01*
X164723685Y-69948056D01*
X164779545Y-70107693D01*
X164853927Y-70226069D01*
X164872928Y-70293306D01*
X164853928Y-70358014D01*
X164769545Y-70492307D01*
X164713685Y-70651943D01*
X164694751Y-70819997D01*
X164694751Y-70820002D01*
X164713685Y-70988056D01*
X164769545Y-71147694D01*
X164769547Y-71147697D01*
X164859518Y-71290884D01*
X164859523Y-71290890D01*
X164979109Y-71410476D01*
X164979115Y-71410481D01*
X165122302Y-71500452D01*
X165122305Y-71500454D01*
X165122309Y-71500455D01*
X165122310Y-71500456D01*
X165133596Y-71504405D01*
X165281943Y-71556314D01*
X165449997Y-71575249D01*
X165450000Y-71575249D01*
X165450003Y-71575249D01*
X165618056Y-71556314D01*
X165618059Y-71556313D01*
X165777690Y-71500456D01*
X165777692Y-71500454D01*
X165777694Y-71500454D01*
X165777697Y-71500452D01*
X165920884Y-71410481D01*
X165920885Y-71410480D01*
X165920890Y-71410477D01*
X165929820Y-71401547D01*
X165991143Y-71368062D01*
X166060835Y-71373046D01*
X166105182Y-71401547D01*
X166118060Y-71414425D01*
X166118066Y-71414430D01*
X166261253Y-71504401D01*
X166261256Y-71504403D01*
X166261260Y-71504404D01*
X166261261Y-71504405D01*
X166333864Y-71529809D01*
X166420894Y-71560263D01*
X166588948Y-71579198D01*
X166588951Y-71579198D01*
X166588954Y-71579198D01*
X166757007Y-71560263D01*
X166766015Y-71557111D01*
X166916641Y-71504405D01*
X167059841Y-71414426D01*
X167059843Y-71414423D01*
X167061644Y-71413292D01*
X167128880Y-71394291D01*
X167193590Y-71413292D01*
X167332307Y-71500454D01*
X167332305Y-71500454D01*
X167332309Y-71500455D01*
X167332310Y-71500456D01*
X167343596Y-71504405D01*
X167491943Y-71556314D01*
X167659997Y-71575249D01*
X167660000Y-71575249D01*
X167660003Y-71575249D01*
X167828056Y-71556314D01*
X167828059Y-71556313D01*
X167987690Y-71500456D01*
X167987692Y-71500454D01*
X167987694Y-71500454D01*
X167987697Y-71500452D01*
X168130884Y-71410481D01*
X168130885Y-71410480D01*
X168130890Y-71410477D01*
X168250477Y-71290890D01*
X168250481Y-71290884D01*
X168340452Y-71147697D01*
X168340454Y-71147694D01*
X168340454Y-71147692D01*
X168340456Y-71147690D01*
X168396313Y-70988059D01*
X168396313Y-70988058D01*
X168396314Y-70988056D01*
X168415249Y-70820002D01*
X168415249Y-70819997D01*
X168396314Y-70651943D01*
X168377694Y-70598730D01*
X168340456Y-70492310D01*
X168340454Y-70492307D01*
X168340454Y-70492306D01*
X168274719Y-70387691D01*
X168266071Y-70373928D01*
X168247071Y-70306693D01*
X168266071Y-70241987D01*
X168350456Y-70107690D01*
X168406313Y-69948059D01*
X168406313Y-69948058D01*
X168406314Y-69948056D01*
X168425249Y-69780002D01*
X168425249Y-69779997D01*
X168406314Y-69611943D01*
X168350454Y-69452305D01*
X168350452Y-69452302D01*
X168260481Y-69309115D01*
X168256136Y-69303667D01*
X168257910Y-69302251D01*
X168229588Y-69250383D01*
X168234572Y-69180691D01*
X168247763Y-69157408D01*
X168246773Y-69156786D01*
X168340452Y-69007697D01*
X168340454Y-69007694D01*
X168340454Y-69007692D01*
X168340456Y-69007690D01*
X168396313Y-68848059D01*
X168396313Y-68848058D01*
X168396314Y-68848056D01*
X168415249Y-68680002D01*
X168415249Y-68679997D01*
X168396314Y-68511943D01*
X168363333Y-68417690D01*
X168340456Y-68352310D01*
X168340455Y-68352309D01*
X168340454Y-68352305D01*
X168340452Y-68352302D01*
X168250481Y-68209115D01*
X168250476Y-68209109D01*
X168130890Y-68089523D01*
X168130884Y-68089518D01*
X167987697Y-67999547D01*
X167987694Y-67999545D01*
X167828056Y-67943685D01*
X167660003Y-67924751D01*
X167659997Y-67924751D01*
X167491943Y-67943685D01*
X167332307Y-67999545D01*
X167187305Y-68090657D01*
X167120069Y-68109657D01*
X167055361Y-68090657D01*
X166916643Y-68003494D01*
X166916642Y-68003493D01*
X166916641Y-68003493D01*
X166864245Y-67985159D01*
X166757007Y-67947634D01*
X166588954Y-67928700D01*
X166588948Y-67928700D01*
X166420894Y-67947634D01*
X166261256Y-68003494D01*
X166261253Y-68003496D01*
X166118066Y-68093467D01*
X166118060Y-68093472D01*
X166109131Y-68102402D01*
X166047808Y-68135887D01*
X165978116Y-68130903D01*
X165933769Y-68102402D01*
X165920890Y-68089523D01*
X165920884Y-68089518D01*
X165777697Y-67999547D01*
X165777694Y-67999545D01*
X165618056Y-67943685D01*
X165450003Y-67924751D01*
X165449997Y-67924751D01*
X165281943Y-67943685D01*
X165122305Y-67999545D01*
X165122302Y-67999547D01*
X164979115Y-68089518D01*
X164979109Y-68089523D01*
X164859523Y-68209109D01*
X164859518Y-68209115D01*
X164769547Y-68352302D01*
X164769545Y-68352305D01*
X164713685Y-68511943D01*
X164694751Y-68679997D01*
X163878794Y-68679997D01*
X163895249Y-68533951D01*
X163895249Y-68533946D01*
X163876314Y-68365892D01*
X163845860Y-68278862D01*
X163820456Y-68206259D01*
X163820455Y-68206258D01*
X163820454Y-68206254D01*
X163820452Y-68206251D01*
X163730481Y-68063064D01*
X163730476Y-68063058D01*
X163610890Y-67943472D01*
X163610884Y-67943467D01*
X163467697Y-67853496D01*
X163467692Y-67853493D01*
X163361269Y-67816255D01*
X163308059Y-67797636D01*
X163292569Y-67795890D01*
X163279129Y-67794376D01*
X163214716Y-67767307D01*
X163175974Y-67712111D01*
X163173925Y-67706255D01*
X163173923Y-67706252D01*
X163083952Y-67563065D01*
X163083947Y-67563059D01*
X162964361Y-67443473D01*
X162964355Y-67443468D01*
X162821168Y-67353497D01*
X162821165Y-67353495D01*
X162661527Y-67297635D01*
X162493474Y-67278701D01*
X162493468Y-67278701D01*
X162325412Y-67297636D01*
X162325408Y-67297637D01*
X162270135Y-67316977D01*
X162200356Y-67320538D01*
X162169246Y-67307466D01*
X162169123Y-67307723D01*
X162164088Y-67305298D01*
X162163216Y-67304932D01*
X162162851Y-67304702D01*
X162003213Y-67248842D01*
X161880992Y-67235072D01*
X161816578Y-67208006D01*
X161777023Y-67150411D01*
X161774886Y-67080574D01*
X161807193Y-67024173D01*
X161830477Y-67000890D01*
X161830481Y-67000884D01*
X161920452Y-66857697D01*
X161920454Y-66857694D01*
X161920454Y-66857692D01*
X161920456Y-66857690D01*
X161976313Y-66698059D01*
X161976313Y-66698058D01*
X161976314Y-66698056D01*
X161995249Y-66530002D01*
X161995249Y-66529997D01*
X161976314Y-66361943D01*
X161975633Y-66359997D01*
X167114751Y-66359997D01*
X167114751Y-66360002D01*
X167133685Y-66528056D01*
X167189545Y-66687694D01*
X167189547Y-66687697D01*
X167279518Y-66830884D01*
X167279523Y-66830890D01*
X167399109Y-66950476D01*
X167399115Y-66950481D01*
X167542302Y-67040452D01*
X167542305Y-67040454D01*
X167542309Y-67040455D01*
X167542310Y-67040456D01*
X167614913Y-67065860D01*
X167701943Y-67096314D01*
X167869997Y-67115249D01*
X167870000Y-67115249D01*
X167870003Y-67115249D01*
X168038056Y-67096314D01*
X168038059Y-67096313D01*
X168197690Y-67040456D01*
X168197692Y-67040454D01*
X168197694Y-67040454D01*
X168197697Y-67040452D01*
X168340884Y-66950481D01*
X168340885Y-66950480D01*
X168340890Y-66950477D01*
X168460477Y-66830890D01*
X168542723Y-66699997D01*
X169964751Y-66699997D01*
X169964751Y-66700002D01*
X169983685Y-66868056D01*
X170039545Y-67027694D01*
X170039547Y-67027697D01*
X170129518Y-67170884D01*
X170129523Y-67170890D01*
X170249109Y-67290476D01*
X170249115Y-67290481D01*
X170392302Y-67380452D01*
X170392305Y-67380454D01*
X170392309Y-67380455D01*
X170392310Y-67380456D01*
X170432960Y-67394680D01*
X170551943Y-67436314D01*
X170719997Y-67455249D01*
X170720000Y-67455249D01*
X170720003Y-67455249D01*
X170824558Y-67443468D01*
X170888059Y-67436313D01*
X170896498Y-67433359D01*
X170966276Y-67429796D01*
X171026905Y-67464522D01*
X171059135Y-67526514D01*
X171052732Y-67596090D01*
X171042451Y-67616372D01*
X170950753Y-67762307D01*
X170894893Y-67921943D01*
X170875959Y-68089997D01*
X170875959Y-68090002D01*
X170894893Y-68258056D01*
X170950753Y-68417694D01*
X170950755Y-68417697D01*
X171040726Y-68560884D01*
X171040731Y-68560890D01*
X171160318Y-68680477D01*
X171176722Y-68690784D01*
X171223013Y-68743116D01*
X171231970Y-68783305D01*
X171233971Y-68783080D01*
X171253685Y-68958056D01*
X171309545Y-69117693D01*
X171353182Y-69187139D01*
X171372183Y-69254376D01*
X171351816Y-69321211D01*
X171298548Y-69366425D01*
X171289146Y-69370153D01*
X171262308Y-69379544D01*
X171262302Y-69379547D01*
X171119115Y-69469518D01*
X171119109Y-69469523D01*
X170999523Y-69589109D01*
X170999518Y-69589115D01*
X170909547Y-69732302D01*
X170909545Y-69732305D01*
X170853685Y-69891943D01*
X170834751Y-70059997D01*
X170834751Y-70060002D01*
X170853685Y-70228056D01*
X170909545Y-70387694D01*
X170909547Y-70387697D01*
X170999518Y-70530884D01*
X170999523Y-70530890D01*
X171119109Y-70650476D01*
X171119115Y-70650481D01*
X171262302Y-70740452D01*
X171262305Y-70740454D01*
X171262309Y-70740455D01*
X171262310Y-70740456D01*
X171334913Y-70765860D01*
X171421943Y-70796314D01*
X171589997Y-70815249D01*
X171590000Y-70815249D01*
X171590003Y-70815249D01*
X171758056Y-70796314D01*
X171758059Y-70796313D01*
X171917690Y-70740456D01*
X171917692Y-70740454D01*
X171917694Y-70740454D01*
X171917697Y-70740452D01*
X172060884Y-70650481D01*
X172060885Y-70650480D01*
X172060890Y-70650477D01*
X172180477Y-70530890D01*
X172204719Y-70492310D01*
X172270452Y-70387697D01*
X172270455Y-70387691D01*
X172270456Y-70387690D01*
X172298355Y-70307957D01*
X172339077Y-70251182D01*
X172404029Y-70225434D01*
X172456350Y-70231869D01*
X172511542Y-70251182D01*
X172611943Y-70286314D01*
X172779997Y-70305249D01*
X172780000Y-70305249D01*
X172780003Y-70305249D01*
X172948056Y-70286314D01*
X172948059Y-70286313D01*
X173107690Y-70230456D01*
X173107692Y-70230454D01*
X173107694Y-70230454D01*
X173107697Y-70230452D01*
X173250884Y-70140481D01*
X173250885Y-70140480D01*
X173250890Y-70140477D01*
X173370477Y-70020890D01*
X173370481Y-70020884D01*
X173460452Y-69877697D01*
X173460454Y-69877694D01*
X173460454Y-69877692D01*
X173460456Y-69877690D01*
X173516313Y-69718059D01*
X173516313Y-69718058D01*
X173516314Y-69718056D01*
X173535249Y-69550002D01*
X173535249Y-69549997D01*
X173516314Y-69381943D01*
X173460454Y-69222305D01*
X173460452Y-69222302D01*
X173370481Y-69079115D01*
X173370476Y-69079109D01*
X173250890Y-68959523D01*
X173250884Y-68959518D01*
X173107697Y-68869547D01*
X173107694Y-68869545D01*
X172948055Y-68813685D01*
X172843608Y-68801917D01*
X172779194Y-68774850D01*
X172739639Y-68717255D01*
X172734272Y-68692579D01*
X172726314Y-68621944D01*
X172710111Y-68575638D01*
X172670456Y-68462310D01*
X172670455Y-68462309D01*
X172670454Y-68462305D01*
X172670452Y-68462302D01*
X172580481Y-68319115D01*
X172580476Y-68319109D01*
X172460890Y-68199523D01*
X172460887Y-68199521D01*
X172444484Y-68189214D01*
X172398193Y-68136879D01*
X172389237Y-68096694D01*
X172387237Y-68096920D01*
X172367522Y-67921944D01*
X172367521Y-67921941D01*
X172311664Y-67762310D01*
X172311663Y-67762309D01*
X172311662Y-67762305D01*
X172311660Y-67762302D01*
X172221689Y-67619115D01*
X172221684Y-67619109D01*
X172102098Y-67499523D01*
X172102092Y-67499518D01*
X171958905Y-67409547D01*
X171958902Y-67409545D01*
X171799264Y-67353685D01*
X171631211Y-67334751D01*
X171631205Y-67334751D01*
X171463148Y-67353686D01*
X171463146Y-67353686D01*
X171454700Y-67356642D01*
X171384921Y-67360201D01*
X171324295Y-67325470D01*
X171292070Y-67263475D01*
X171298478Y-67193900D01*
X171308757Y-67173626D01*
X171310474Y-67170892D01*
X171310477Y-67170890D01*
X171400456Y-67027690D01*
X171456313Y-66868059D01*
X171456313Y-66868058D01*
X171456314Y-66868056D01*
X171475249Y-66700002D01*
X171475249Y-66699997D01*
X171468489Y-66640000D01*
X174554540Y-66640000D01*
X174574326Y-66828256D01*
X174574327Y-66828259D01*
X174632818Y-67008277D01*
X174632821Y-67008284D01*
X174727467Y-67172216D01*
X174823347Y-67278701D01*
X174854129Y-67312888D01*
X175007265Y-67424148D01*
X175007270Y-67424151D01*
X175180192Y-67501142D01*
X175180197Y-67501144D01*
X175365354Y-67540500D01*
X175365355Y-67540500D01*
X175554644Y-67540500D01*
X175554646Y-67540500D01*
X175739803Y-67501144D01*
X175912730Y-67424151D01*
X176065871Y-67312888D01*
X176192533Y-67172216D01*
X176287179Y-67008284D01*
X176345674Y-66828256D01*
X176365460Y-66640000D01*
X176345674Y-66451744D01*
X176287179Y-66271716D01*
X176192533Y-66107784D01*
X176065871Y-65967112D01*
X176061157Y-65963687D01*
X175912734Y-65855851D01*
X175912729Y-65855848D01*
X175739807Y-65778857D01*
X175739802Y-65778855D01*
X175594001Y-65747865D01*
X175554646Y-65739500D01*
X175365354Y-65739500D01*
X175332897Y-65746398D01*
X175180197Y-65778855D01*
X175180192Y-65778857D01*
X175007270Y-65855848D01*
X175007265Y-65855851D01*
X174854129Y-65967111D01*
X174727466Y-66107785D01*
X174632821Y-66271715D01*
X174632818Y-66271722D01*
X174574327Y-66451740D01*
X174574326Y-66451744D01*
X174554540Y-66640000D01*
X171468489Y-66640000D01*
X171456314Y-66531943D01*
X171400454Y-66372305D01*
X171400452Y-66372302D01*
X171310481Y-66229115D01*
X171310476Y-66229109D01*
X171190890Y-66109523D01*
X171190884Y-66109518D01*
X171047697Y-66019547D01*
X171047694Y-66019545D01*
X170888056Y-65963685D01*
X170720003Y-65944751D01*
X170719997Y-65944751D01*
X170551943Y-65963685D01*
X170392305Y-66019545D01*
X170392302Y-66019547D01*
X170249115Y-66109518D01*
X170249109Y-66109523D01*
X170129523Y-66229109D01*
X170129518Y-66229115D01*
X170039547Y-66372302D01*
X170039545Y-66372305D01*
X169983685Y-66531943D01*
X169964751Y-66699997D01*
X168542723Y-66699997D01*
X168550452Y-66687697D01*
X168550454Y-66687694D01*
X168550454Y-66687692D01*
X168550456Y-66687690D01*
X168606313Y-66528059D01*
X168606313Y-66528058D01*
X168606314Y-66528056D01*
X168625249Y-66360002D01*
X168625249Y-66359997D01*
X168606314Y-66191943D01*
X168557046Y-66051144D01*
X168550456Y-66032310D01*
X168550455Y-66032309D01*
X168550454Y-66032305D01*
X168550452Y-66032302D01*
X168460481Y-65889115D01*
X168460476Y-65889109D01*
X168340890Y-65769523D01*
X168340884Y-65769518D01*
X168197697Y-65679547D01*
X168197694Y-65679545D01*
X168038056Y-65623685D01*
X167870003Y-65604751D01*
X167869997Y-65604751D01*
X167701943Y-65623685D01*
X167542305Y-65679545D01*
X167542302Y-65679547D01*
X167399115Y-65769518D01*
X167399109Y-65769523D01*
X167279523Y-65889109D01*
X167279518Y-65889115D01*
X167189547Y-66032302D01*
X167189545Y-66032305D01*
X167133685Y-66191943D01*
X167114751Y-66359997D01*
X161975633Y-66359997D01*
X161920454Y-66202305D01*
X161920452Y-66202302D01*
X161830481Y-66059115D01*
X161830476Y-66059109D01*
X161710890Y-65939523D01*
X161710884Y-65939518D01*
X161567697Y-65849547D01*
X161567694Y-65849545D01*
X161408056Y-65793685D01*
X161240003Y-65774751D01*
X161239997Y-65774751D01*
X161071943Y-65793685D01*
X160912305Y-65849545D01*
X160912302Y-65849547D01*
X160769115Y-65939518D01*
X160769109Y-65939523D01*
X160649523Y-66059109D01*
X160649518Y-66059115D01*
X160559547Y-66202302D01*
X160559545Y-66202305D01*
X160503685Y-66361943D01*
X160484751Y-66529997D01*
X116332220Y-66529997D01*
X116412730Y-66494151D01*
X116565871Y-66382888D01*
X116692533Y-66242216D01*
X116787179Y-66078284D01*
X116845674Y-65898256D01*
X116865460Y-65710000D01*
X116845674Y-65521744D01*
X116787179Y-65341716D01*
X116699586Y-65190000D01*
X156644540Y-65190000D01*
X156664326Y-65378256D01*
X156664327Y-65378259D01*
X156722818Y-65558277D01*
X156722821Y-65558284D01*
X156817467Y-65722216D01*
X156881820Y-65793687D01*
X156944129Y-65862888D01*
X157097265Y-65974148D01*
X157097270Y-65974151D01*
X157270192Y-66051142D01*
X157270197Y-66051144D01*
X157455354Y-66090500D01*
X157455355Y-66090500D01*
X157644644Y-66090500D01*
X157644646Y-66090500D01*
X157829803Y-66051144D01*
X158002730Y-65974151D01*
X158155871Y-65862888D01*
X158282533Y-65722216D01*
X158377179Y-65558284D01*
X158435674Y-65378256D01*
X158455460Y-65190000D01*
X158435674Y-65001744D01*
X158377179Y-64821716D01*
X158282533Y-64657784D01*
X158155871Y-64517112D01*
X158155870Y-64517111D01*
X158002734Y-64405851D01*
X158002729Y-64405848D01*
X157829807Y-64328857D01*
X157829802Y-64328855D01*
X157684001Y-64297865D01*
X157644646Y-64289500D01*
X157455354Y-64289500D01*
X157422897Y-64296398D01*
X157270197Y-64328855D01*
X157270192Y-64328857D01*
X157097270Y-64405848D01*
X157097265Y-64405851D01*
X156944129Y-64517111D01*
X156817466Y-64657785D01*
X156722824Y-64821711D01*
X156722818Y-64821722D01*
X156668289Y-64989547D01*
X156664326Y-65001744D01*
X156644540Y-65190000D01*
X116699586Y-65190000D01*
X116692533Y-65177784D01*
X116565871Y-65037112D01*
X116565870Y-65037111D01*
X116412734Y-64925851D01*
X116412729Y-64925848D01*
X116239807Y-64848857D01*
X116239802Y-64848855D01*
X116094001Y-64817865D01*
X116054646Y-64809500D01*
X115865354Y-64809500D01*
X115832897Y-64816398D01*
X115680197Y-64848855D01*
X115680192Y-64848857D01*
X115507270Y-64925848D01*
X115507265Y-64925851D01*
X115354129Y-65037111D01*
X115227466Y-65177785D01*
X115132821Y-65341715D01*
X115132818Y-65341722D01*
X115074327Y-65521740D01*
X115074326Y-65521744D01*
X115054540Y-65710000D01*
X113730742Y-65710000D01*
X113735249Y-65670002D01*
X113735249Y-65669997D01*
X113716314Y-65501943D01*
X113660454Y-65342305D01*
X113660452Y-65342302D01*
X113570481Y-65199115D01*
X113570476Y-65199109D01*
X113450890Y-65079523D01*
X113450884Y-65079518D01*
X113307697Y-64989547D01*
X113307694Y-64989545D01*
X113148056Y-64933685D01*
X112980003Y-64914751D01*
X112979997Y-64914751D01*
X112811943Y-64933685D01*
X112652307Y-64989545D01*
X112550972Y-65053219D01*
X112483736Y-65072219D01*
X112419028Y-65053219D01*
X112317692Y-64989545D01*
X112317691Y-64989544D01*
X112317690Y-64989544D01*
X112279370Y-64976135D01*
X112158056Y-64933685D01*
X111990003Y-64914751D01*
X111989997Y-64914751D01*
X111821943Y-64933685D01*
X111662305Y-64989545D01*
X111662302Y-64989547D01*
X111519115Y-65079518D01*
X111519109Y-65079523D01*
X111399523Y-65199109D01*
X111399518Y-65199115D01*
X111309547Y-65342302D01*
X111309545Y-65342305D01*
X111253685Y-65501943D01*
X111234751Y-65669997D01*
X95000000Y-65669997D01*
X95000000Y-63738948D01*
X165593702Y-63738948D01*
X165593702Y-63738953D01*
X165612636Y-63907007D01*
X165668496Y-64066645D01*
X165668498Y-64066648D01*
X165758469Y-64209835D01*
X165758474Y-64209841D01*
X165878060Y-64329427D01*
X165878066Y-64329432D01*
X166021253Y-64419403D01*
X166021256Y-64419405D01*
X166021260Y-64419406D01*
X166021261Y-64419407D01*
X166093864Y-64444811D01*
X166180894Y-64475265D01*
X166348948Y-64494200D01*
X166348951Y-64494200D01*
X166348954Y-64494200D01*
X166517007Y-64475265D01*
X166517010Y-64475264D01*
X166676641Y-64419407D01*
X166676643Y-64419405D01*
X166676645Y-64419405D01*
X166676648Y-64419403D01*
X166819835Y-64329432D01*
X166819836Y-64329431D01*
X166819841Y-64329428D01*
X166939428Y-64209841D01*
X167029403Y-64066648D01*
X167029405Y-64066645D01*
X167029405Y-64066643D01*
X167029407Y-64066641D01*
X167085264Y-63907010D01*
X167085264Y-63907009D01*
X167085265Y-63907007D01*
X167104200Y-63738953D01*
X167104200Y-63738948D01*
X167085265Y-63570894D01*
X167029405Y-63411256D01*
X167029403Y-63411253D01*
X166939432Y-63268066D01*
X166939427Y-63268060D01*
X166819841Y-63148474D01*
X166819835Y-63148469D01*
X166676648Y-63058498D01*
X166676645Y-63058496D01*
X166517007Y-63002636D01*
X166348954Y-62983702D01*
X166348948Y-62983702D01*
X166180894Y-63002636D01*
X166021256Y-63058496D01*
X166021253Y-63058498D01*
X165878066Y-63148469D01*
X165878060Y-63148474D01*
X165758474Y-63268060D01*
X165758469Y-63268066D01*
X165668498Y-63411253D01*
X165668496Y-63411256D01*
X165612636Y-63570894D01*
X165593702Y-63738948D01*
X95000000Y-63738948D01*
X95000000Y-62340000D01*
X109434540Y-62340000D01*
X109454326Y-62528256D01*
X109454327Y-62528259D01*
X109512818Y-62708277D01*
X109512821Y-62708284D01*
X109607467Y-62872216D01*
X109707850Y-62983702D01*
X109734129Y-63012888D01*
X109887265Y-63124148D01*
X109887270Y-63124151D01*
X110060192Y-63201142D01*
X110060197Y-63201144D01*
X110245354Y-63240500D01*
X110245355Y-63240500D01*
X110434644Y-63240500D01*
X110434646Y-63240500D01*
X110619803Y-63201144D01*
X110792730Y-63124151D01*
X110945871Y-63012888D01*
X111072533Y-62872216D01*
X111167179Y-62708284D01*
X111225674Y-62528256D01*
X111245460Y-62340000D01*
X111225674Y-62151744D01*
X111167179Y-61971716D01*
X111072533Y-61807784D01*
X110945871Y-61667112D01*
X110945870Y-61667111D01*
X110792734Y-61555851D01*
X110792729Y-61555848D01*
X110619807Y-61478857D01*
X110619802Y-61478855D01*
X110474001Y-61447865D01*
X110434646Y-61439500D01*
X110245354Y-61439500D01*
X110212897Y-61446398D01*
X110060197Y-61478855D01*
X110060192Y-61478857D01*
X109887270Y-61555848D01*
X109887265Y-61555851D01*
X109734129Y-61667111D01*
X109607466Y-61807785D01*
X109512821Y-61971715D01*
X109512818Y-61971722D01*
X109454327Y-62151740D01*
X109454326Y-62151744D01*
X109434540Y-62340000D01*
X95000000Y-62340000D01*
X95000000Y-60700000D01*
X168204540Y-60700000D01*
X168224326Y-60888256D01*
X168224327Y-60888259D01*
X168282818Y-61068277D01*
X168282821Y-61068284D01*
X168377467Y-61232216D01*
X168420494Y-61280002D01*
X168504129Y-61372888D01*
X168657265Y-61484148D01*
X168657270Y-61484151D01*
X168830192Y-61561142D01*
X168830197Y-61561144D01*
X169015354Y-61600500D01*
X169015355Y-61600500D01*
X169204644Y-61600500D01*
X169204646Y-61600500D01*
X169389803Y-61561144D01*
X169562730Y-61484151D01*
X169715871Y-61372888D01*
X169799511Y-61279997D01*
X174944751Y-61279997D01*
X174944751Y-61280002D01*
X174963685Y-61448056D01*
X175019545Y-61607694D01*
X175019547Y-61607697D01*
X175109518Y-61750884D01*
X175109523Y-61750890D01*
X175229109Y-61870476D01*
X175229115Y-61870481D01*
X175372302Y-61960452D01*
X175372305Y-61960454D01*
X175372309Y-61960455D01*
X175372310Y-61960456D01*
X175404507Y-61971722D01*
X175531943Y-62016314D01*
X175699997Y-62035249D01*
X175700000Y-62035249D01*
X175700003Y-62035249D01*
X175868056Y-62016314D01*
X175868059Y-62016313D01*
X176027690Y-61960456D01*
X176027692Y-61960454D01*
X176027694Y-61960454D01*
X176027697Y-61960452D01*
X176170884Y-61870481D01*
X176170885Y-61870480D01*
X176170890Y-61870477D01*
X176290477Y-61750890D01*
X176290481Y-61750884D01*
X176380452Y-61607697D01*
X176380454Y-61607694D01*
X176380454Y-61607692D01*
X176380456Y-61607690D01*
X176436313Y-61448059D01*
X176436313Y-61448058D01*
X176436314Y-61448056D01*
X176455249Y-61280002D01*
X176455249Y-61279997D01*
X176436314Y-61111943D01*
X176380454Y-60952305D01*
X176380452Y-60952302D01*
X176290481Y-60809115D01*
X176290476Y-60809109D01*
X176170890Y-60689523D01*
X176170884Y-60689518D01*
X176027697Y-60599547D01*
X176027694Y-60599545D01*
X175868056Y-60543685D01*
X175700003Y-60524751D01*
X175699997Y-60524751D01*
X175531943Y-60543685D01*
X175372305Y-60599545D01*
X175372302Y-60599547D01*
X175229115Y-60689518D01*
X175229109Y-60689523D01*
X175109523Y-60809109D01*
X175109518Y-60809115D01*
X175019547Y-60952302D01*
X175019545Y-60952305D01*
X174963685Y-61111943D01*
X174944751Y-61279997D01*
X169799511Y-61279997D01*
X169842533Y-61232216D01*
X169937179Y-61068284D01*
X169995674Y-60888256D01*
X170015460Y-60700000D01*
X169995674Y-60511744D01*
X169937179Y-60331716D01*
X169842533Y-60167784D01*
X169715871Y-60027112D01*
X169713405Y-60025320D01*
X169562734Y-59915851D01*
X169562729Y-59915848D01*
X169389807Y-59838857D01*
X169389802Y-59838855D01*
X169244001Y-59807865D01*
X169204646Y-59799500D01*
X169015354Y-59799500D01*
X168982897Y-59806398D01*
X168830197Y-59838855D01*
X168830192Y-59838857D01*
X168657270Y-59915848D01*
X168657265Y-59915851D01*
X168504129Y-60027111D01*
X168377466Y-60167785D01*
X168282821Y-60331715D01*
X168282818Y-60331722D01*
X168224327Y-60511740D01*
X168224326Y-60511744D01*
X168204540Y-60700000D01*
X95000000Y-60700000D01*
X95000000Y-57963949D01*
X120438541Y-57963949D01*
X120458150Y-58250629D01*
X120516615Y-58531983D01*
X120516616Y-58531986D01*
X120612843Y-58802742D01*
X120612842Y-58802742D01*
X120745047Y-59057884D01*
X120910761Y-59292649D01*
X120995872Y-59383780D01*
X121106896Y-59502657D01*
X121329802Y-59684004D01*
X121575331Y-59833314D01*
X121762186Y-59914475D01*
X121838891Y-59947793D01*
X122115591Y-60025320D01*
X122365869Y-60059720D01*
X122400270Y-60064449D01*
X122400271Y-60064449D01*
X122687628Y-60064449D01*
X122718319Y-60060230D01*
X122972307Y-60025320D01*
X123249007Y-59947793D01*
X123361964Y-59898728D01*
X123512566Y-59833314D01*
X123512569Y-59833312D01*
X123512574Y-59833310D01*
X123758096Y-59684004D01*
X123981002Y-59502657D01*
X124177138Y-59292647D01*
X124342850Y-59057885D01*
X124475053Y-58802746D01*
X124571283Y-58531981D01*
X124629747Y-58250635D01*
X124649357Y-57963949D01*
X125438541Y-57963949D01*
X125458150Y-58250629D01*
X125516615Y-58531983D01*
X125516616Y-58531986D01*
X125612843Y-58802742D01*
X125612842Y-58802742D01*
X125745047Y-59057884D01*
X125910761Y-59292649D01*
X125995872Y-59383780D01*
X126106896Y-59502657D01*
X126329802Y-59684004D01*
X126575331Y-59833314D01*
X126762186Y-59914475D01*
X126838891Y-59947793D01*
X127115591Y-60025320D01*
X127365869Y-60059720D01*
X127400270Y-60064449D01*
X127400271Y-60064449D01*
X127687628Y-60064449D01*
X127718319Y-60060230D01*
X127972307Y-60025320D01*
X128249007Y-59947793D01*
X128361964Y-59898728D01*
X128512566Y-59833314D01*
X128512569Y-59833312D01*
X128512574Y-59833310D01*
X128758096Y-59684004D01*
X128981002Y-59502657D01*
X129177138Y-59292647D01*
X129342850Y-59057885D01*
X129475053Y-58802746D01*
X129571283Y-58531981D01*
X129629747Y-58250635D01*
X129649357Y-57963949D01*
X141948541Y-57963949D01*
X141968150Y-58250629D01*
X142026615Y-58531983D01*
X142026616Y-58531986D01*
X142122843Y-58802742D01*
X142122842Y-58802742D01*
X142255047Y-59057884D01*
X142420761Y-59292649D01*
X142505872Y-59383780D01*
X142616896Y-59502657D01*
X142839802Y-59684004D01*
X143085331Y-59833314D01*
X143272186Y-59914475D01*
X143348891Y-59947793D01*
X143625591Y-60025320D01*
X143875869Y-60059720D01*
X143910270Y-60064449D01*
X143910271Y-60064449D01*
X144197628Y-60064449D01*
X144228319Y-60060230D01*
X144482307Y-60025320D01*
X144759007Y-59947793D01*
X144871964Y-59898728D01*
X145022566Y-59833314D01*
X145022569Y-59833312D01*
X145022574Y-59833310D01*
X145268096Y-59684004D01*
X145491002Y-59502657D01*
X145687138Y-59292647D01*
X145852850Y-59057885D01*
X145985053Y-58802746D01*
X146081283Y-58531981D01*
X146139747Y-58250635D01*
X146159357Y-57963949D01*
X146948541Y-57963949D01*
X146968150Y-58250629D01*
X147026615Y-58531983D01*
X147026616Y-58531986D01*
X147122843Y-58802742D01*
X147122842Y-58802742D01*
X147255047Y-59057884D01*
X147420761Y-59292649D01*
X147505872Y-59383780D01*
X147616896Y-59502657D01*
X147839802Y-59684004D01*
X148085331Y-59833314D01*
X148272186Y-59914475D01*
X148348891Y-59947793D01*
X148625591Y-60025320D01*
X148875869Y-60059720D01*
X148910270Y-60064449D01*
X148910271Y-60064449D01*
X149197628Y-60064449D01*
X149228319Y-60060230D01*
X149482307Y-60025320D01*
X149759007Y-59947793D01*
X149871964Y-59898728D01*
X150022566Y-59833314D01*
X150022569Y-59833312D01*
X150022574Y-59833310D01*
X150268096Y-59684004D01*
X150491002Y-59502657D01*
X150687138Y-59292647D01*
X150852850Y-59057885D01*
X150985053Y-58802746D01*
X151081283Y-58531981D01*
X151139747Y-58250635D01*
X151150051Y-58100000D01*
X163124540Y-58100000D01*
X163144326Y-58288256D01*
X163144327Y-58288259D01*
X163202818Y-58468277D01*
X163202821Y-58468284D01*
X163297467Y-58632216D01*
X163424129Y-58772888D01*
X163577265Y-58884148D01*
X163577270Y-58884151D01*
X163750192Y-58961142D01*
X163750197Y-58961144D01*
X163935354Y-59000500D01*
X163935355Y-59000500D01*
X164124644Y-59000500D01*
X164124646Y-59000500D01*
X164309803Y-58961144D01*
X164482730Y-58884151D01*
X164635871Y-58772888D01*
X164762533Y-58632216D01*
X164857179Y-58468284D01*
X164915674Y-58288256D01*
X164935460Y-58100000D01*
X164915674Y-57911744D01*
X164857179Y-57731716D01*
X164762533Y-57567784D01*
X164635871Y-57427112D01*
X164592935Y-57395917D01*
X164482734Y-57315851D01*
X164482729Y-57315848D01*
X164309807Y-57238857D01*
X164309802Y-57238855D01*
X164164001Y-57207865D01*
X164124646Y-57199500D01*
X163935354Y-57199500D01*
X163902897Y-57206398D01*
X163750197Y-57238855D01*
X163750192Y-57238857D01*
X163577270Y-57315848D01*
X163577265Y-57315851D01*
X163424129Y-57427111D01*
X163297466Y-57567785D01*
X163202821Y-57731715D01*
X163202818Y-57731722D01*
X163144327Y-57911740D01*
X163144326Y-57911744D01*
X163124540Y-58100000D01*
X151150051Y-58100000D01*
X151159357Y-57963949D01*
X151139747Y-57677263D01*
X151081283Y-57395917D01*
X151052826Y-57315848D01*
X150985054Y-57125155D01*
X150985055Y-57125155D01*
X150852850Y-56870013D01*
X150687136Y-56635248D01*
X150608503Y-56551054D01*
X150491002Y-56425241D01*
X150268096Y-56243894D01*
X150268095Y-56243893D01*
X150022566Y-56094583D01*
X149759012Y-55980107D01*
X149759010Y-55980106D01*
X149759007Y-55980105D01*
X149629527Y-55943826D01*
X149482313Y-55902579D01*
X149482308Y-55902578D01*
X149482307Y-55902578D01*
X149339967Y-55883013D01*
X149197628Y-55863449D01*
X149197627Y-55863449D01*
X148910271Y-55863449D01*
X148910270Y-55863449D01*
X148625591Y-55902578D01*
X148625584Y-55902579D01*
X148417810Y-55960794D01*
X148348891Y-55980105D01*
X148348888Y-55980105D01*
X148348885Y-55980107D01*
X148348884Y-55980107D01*
X148085331Y-56094583D01*
X147839802Y-56243893D01*
X147616899Y-56425238D01*
X147420761Y-56635248D01*
X147255047Y-56870013D01*
X147122843Y-57125155D01*
X147026616Y-57395911D01*
X147026615Y-57395914D01*
X146968150Y-57677268D01*
X146948541Y-57963949D01*
X146159357Y-57963949D01*
X146139747Y-57677263D01*
X146081283Y-57395917D01*
X146052826Y-57315848D01*
X145985054Y-57125155D01*
X145985055Y-57125155D01*
X145852850Y-56870013D01*
X145687136Y-56635248D01*
X145608503Y-56551054D01*
X145491002Y-56425241D01*
X145268096Y-56243894D01*
X145268095Y-56243893D01*
X145022566Y-56094583D01*
X144759012Y-55980107D01*
X144759010Y-55980106D01*
X144759007Y-55980105D01*
X144629527Y-55943826D01*
X144482313Y-55902579D01*
X144482308Y-55902578D01*
X144482307Y-55902578D01*
X144339967Y-55883013D01*
X144197628Y-55863449D01*
X144197627Y-55863449D01*
X143910271Y-55863449D01*
X143910270Y-55863449D01*
X143625591Y-55902578D01*
X143625584Y-55902579D01*
X143417810Y-55960794D01*
X143348891Y-55980105D01*
X143348888Y-55980105D01*
X143348885Y-55980107D01*
X143348884Y-55980107D01*
X143085331Y-56094583D01*
X142839802Y-56243893D01*
X142616899Y-56425238D01*
X142420761Y-56635248D01*
X142255047Y-56870013D01*
X142122843Y-57125155D01*
X142026616Y-57395911D01*
X142026615Y-57395914D01*
X141968150Y-57677268D01*
X141948541Y-57963949D01*
X129649357Y-57963949D01*
X129629747Y-57677263D01*
X129571283Y-57395917D01*
X129542826Y-57315848D01*
X129475054Y-57125155D01*
X129475055Y-57125155D01*
X129342850Y-56870013D01*
X129177136Y-56635248D01*
X129098503Y-56551054D01*
X128981002Y-56425241D01*
X128758096Y-56243894D01*
X128758095Y-56243893D01*
X128512566Y-56094583D01*
X128249012Y-55980107D01*
X128249010Y-55980106D01*
X128249007Y-55980105D01*
X128119527Y-55943826D01*
X127972313Y-55902579D01*
X127972308Y-55902578D01*
X127972307Y-55902578D01*
X127829967Y-55883013D01*
X127687628Y-55863449D01*
X127687627Y-55863449D01*
X127400271Y-55863449D01*
X127400270Y-55863449D01*
X127115591Y-55902578D01*
X127115584Y-55902579D01*
X126907810Y-55960794D01*
X126838891Y-55980105D01*
X126838888Y-55980105D01*
X126838885Y-55980107D01*
X126838884Y-55980107D01*
X126575331Y-56094583D01*
X126329802Y-56243893D01*
X126106899Y-56425238D01*
X125910761Y-56635248D01*
X125745047Y-56870013D01*
X125612843Y-57125155D01*
X125516616Y-57395911D01*
X125516615Y-57395914D01*
X125458150Y-57677268D01*
X125438541Y-57963949D01*
X124649357Y-57963949D01*
X124629747Y-57677263D01*
X124571283Y-57395917D01*
X124542826Y-57315848D01*
X124475054Y-57125155D01*
X124475055Y-57125155D01*
X124342850Y-56870013D01*
X124177136Y-56635248D01*
X124098503Y-56551054D01*
X123981002Y-56425241D01*
X123758096Y-56243894D01*
X123758095Y-56243893D01*
X123512566Y-56094583D01*
X123249012Y-55980107D01*
X123249010Y-55980106D01*
X123249007Y-55980105D01*
X123119527Y-55943826D01*
X122972313Y-55902579D01*
X122972308Y-55902578D01*
X122972307Y-55902578D01*
X122829967Y-55883013D01*
X122687628Y-55863449D01*
X122687627Y-55863449D01*
X122400271Y-55863449D01*
X122400270Y-55863449D01*
X122115591Y-55902578D01*
X122115584Y-55902579D01*
X121907810Y-55960794D01*
X121838891Y-55980105D01*
X121838888Y-55980105D01*
X121838885Y-55980107D01*
X121838884Y-55980107D01*
X121575331Y-56094583D01*
X121329802Y-56243893D01*
X121106899Y-56425238D01*
X120910761Y-56635248D01*
X120745047Y-56870013D01*
X120612843Y-57125155D01*
X120516616Y-57395911D01*
X120516615Y-57395914D01*
X120458150Y-57677268D01*
X120438541Y-57963949D01*
X95000000Y-57963949D01*
X95000000Y-56230000D01*
X115294540Y-56230000D01*
X115314326Y-56418256D01*
X115314327Y-56418259D01*
X115372818Y-56598277D01*
X115372821Y-56598284D01*
X115467467Y-56762216D01*
X115564528Y-56870013D01*
X115594129Y-56902888D01*
X115747265Y-57014148D01*
X115747270Y-57014151D01*
X115920192Y-57091142D01*
X115920197Y-57091144D01*
X116105354Y-57130500D01*
X116105355Y-57130500D01*
X116294644Y-57130500D01*
X116294646Y-57130500D01*
X116479803Y-57091144D01*
X116652730Y-57014151D01*
X116805871Y-56902888D01*
X116932533Y-56762216D01*
X117027179Y-56598284D01*
X117085674Y-56418256D01*
X117105460Y-56230000D01*
X117085674Y-56041744D01*
X117027179Y-55861716D01*
X116932533Y-55697784D01*
X116805871Y-55557112D01*
X116805870Y-55557111D01*
X116652734Y-55445851D01*
X116652729Y-55445848D01*
X116479807Y-55368857D01*
X116479802Y-55368855D01*
X116334001Y-55337865D01*
X116294646Y-55329500D01*
X116105354Y-55329500D01*
X116072897Y-55336398D01*
X115920197Y-55368855D01*
X115920192Y-55368857D01*
X115747270Y-55445848D01*
X115747265Y-55445851D01*
X115594129Y-55557111D01*
X115467466Y-55697785D01*
X115372821Y-55861715D01*
X115372818Y-55861722D01*
X115334353Y-55980107D01*
X115314326Y-56041744D01*
X115294540Y-56230000D01*
X95000000Y-56230000D01*
X95000000Y-48868872D01*
X96999500Y-48868872D01*
X96999500Y-49131127D01*
X97014347Y-49243893D01*
X97033730Y-49391116D01*
X97101602Y-49644418D01*
X97101605Y-49644428D01*
X97201953Y-49886690D01*
X97201958Y-49886700D01*
X97333075Y-50113803D01*
X97492718Y-50321851D01*
X97492726Y-50321860D01*
X97678140Y-50507274D01*
X97678148Y-50507281D01*
X97886196Y-50666924D01*
X98113299Y-50798041D01*
X98113309Y-50798046D01*
X98324698Y-50885606D01*
X98355581Y-50898398D01*
X98608884Y-50966270D01*
X98868880Y-51000500D01*
X98868887Y-51000500D01*
X99131113Y-51000500D01*
X99131120Y-51000500D01*
X99391116Y-50966270D01*
X99399778Y-50963949D01*
X120438541Y-50963949D01*
X120458150Y-51250629D01*
X120516615Y-51531983D01*
X120516616Y-51531986D01*
X120612843Y-51802742D01*
X120612842Y-51802742D01*
X120745047Y-52057884D01*
X120910761Y-52292649D01*
X120951850Y-52336644D01*
X121106896Y-52502657D01*
X121329802Y-52684004D01*
X121566082Y-52827690D01*
X121575331Y-52833314D01*
X121762186Y-52914475D01*
X121838891Y-52947793D01*
X122115591Y-53025320D01*
X122365869Y-53059720D01*
X122400270Y-53064449D01*
X122400271Y-53064449D01*
X122687628Y-53064449D01*
X122718319Y-53060230D01*
X122972307Y-53025320D01*
X123249007Y-52947793D01*
X123361964Y-52898728D01*
X123512566Y-52833314D01*
X123512569Y-52833312D01*
X123512574Y-52833310D01*
X123758096Y-52684004D01*
X123981002Y-52502657D01*
X124177138Y-52292647D01*
X124342850Y-52057885D01*
X124475053Y-51802746D01*
X124571283Y-51531981D01*
X124629747Y-51250635D01*
X124649357Y-50963949D01*
X125438541Y-50963949D01*
X125458150Y-51250629D01*
X125516615Y-51531983D01*
X125516616Y-51531986D01*
X125612843Y-51802742D01*
X125612842Y-51802742D01*
X125745047Y-52057884D01*
X125910761Y-52292649D01*
X125951850Y-52336644D01*
X126106896Y-52502657D01*
X126329802Y-52684004D01*
X126566082Y-52827690D01*
X126575331Y-52833314D01*
X126762186Y-52914475D01*
X126838891Y-52947793D01*
X127115591Y-53025320D01*
X127365869Y-53059720D01*
X127400270Y-53064449D01*
X127400271Y-53064449D01*
X127687628Y-53064449D01*
X127718319Y-53060230D01*
X127972307Y-53025320D01*
X128249007Y-52947793D01*
X128361964Y-52898728D01*
X128512566Y-52833314D01*
X128512569Y-52833312D01*
X128512574Y-52833310D01*
X128758096Y-52684004D01*
X128981002Y-52502657D01*
X129177138Y-52292647D01*
X129342850Y-52057885D01*
X129475053Y-51802746D01*
X129571283Y-51531981D01*
X129629747Y-51250635D01*
X129649357Y-50963949D01*
X141948541Y-50963949D01*
X141968150Y-51250629D01*
X142026615Y-51531983D01*
X142026616Y-51531986D01*
X142122843Y-51802742D01*
X142122842Y-51802742D01*
X142255047Y-52057884D01*
X142420761Y-52292649D01*
X142461850Y-52336644D01*
X142616896Y-52502657D01*
X142839802Y-52684004D01*
X143076082Y-52827690D01*
X143085331Y-52833314D01*
X143272186Y-52914475D01*
X143348891Y-52947793D01*
X143625591Y-53025320D01*
X143875869Y-53059720D01*
X143910270Y-53064449D01*
X143910271Y-53064449D01*
X144197628Y-53064449D01*
X144228319Y-53060230D01*
X144482307Y-53025320D01*
X144759007Y-52947793D01*
X144871964Y-52898728D01*
X145022566Y-52833314D01*
X145022569Y-52833312D01*
X145022574Y-52833310D01*
X145268096Y-52684004D01*
X145491002Y-52502657D01*
X145687138Y-52292647D01*
X145852850Y-52057885D01*
X145985053Y-51802746D01*
X146081283Y-51531981D01*
X146139747Y-51250635D01*
X146159357Y-50963949D01*
X146948541Y-50963949D01*
X146968150Y-51250629D01*
X147026615Y-51531983D01*
X147026616Y-51531986D01*
X147122843Y-51802742D01*
X147122842Y-51802742D01*
X147255047Y-52057884D01*
X147420761Y-52292649D01*
X147461850Y-52336644D01*
X147616896Y-52502657D01*
X147839802Y-52684004D01*
X148076082Y-52827690D01*
X148085331Y-52833314D01*
X148272186Y-52914475D01*
X148348891Y-52947793D01*
X148625591Y-53025320D01*
X148875869Y-53059720D01*
X148910270Y-53064449D01*
X148910271Y-53064449D01*
X149197628Y-53064449D01*
X149228319Y-53060230D01*
X149482307Y-53025320D01*
X149759007Y-52947793D01*
X149871964Y-52898728D01*
X150022566Y-52833314D01*
X150022569Y-52833312D01*
X150022574Y-52833310D01*
X150268096Y-52684004D01*
X150491002Y-52502657D01*
X150687138Y-52292647D01*
X150852850Y-52057885D01*
X150985053Y-51802746D01*
X151081283Y-51531981D01*
X151139747Y-51250635D01*
X151154155Y-51039999D01*
X160374571Y-51039999D01*
X160374571Y-51040000D01*
X160394244Y-51252310D01*
X160452596Y-51457392D01*
X160452596Y-51457394D01*
X160547632Y-51648253D01*
X160676127Y-51818406D01*
X160818682Y-51948363D01*
X160854963Y-52008075D01*
X160853202Y-52077922D01*
X160818682Y-52131637D01*
X160676127Y-52261593D01*
X160547632Y-52431746D01*
X160452596Y-52622605D01*
X160452596Y-52622607D01*
X160394244Y-52827689D01*
X160374571Y-53039999D01*
X160374571Y-53040000D01*
X160394244Y-53252310D01*
X160452596Y-53457392D01*
X160452596Y-53457394D01*
X160547632Y-53648253D01*
X160619450Y-53743354D01*
X160676128Y-53818407D01*
X160833698Y-53962052D01*
X161014981Y-54074298D01*
X161213802Y-54151321D01*
X161423390Y-54190500D01*
X161423392Y-54190500D01*
X161636608Y-54190500D01*
X161636610Y-54190500D01*
X161846198Y-54151321D01*
X162045019Y-54074298D01*
X162226302Y-53962052D01*
X162383872Y-53818407D01*
X162431046Y-53755938D01*
X162487155Y-53714303D01*
X162556867Y-53709612D01*
X162618049Y-53743354D01*
X162628953Y-53755938D01*
X162676128Y-53818407D01*
X162833698Y-53962052D01*
X163014981Y-54074298D01*
X163213802Y-54151321D01*
X163423390Y-54190500D01*
X163423392Y-54190500D01*
X163636608Y-54190500D01*
X163636610Y-54190500D01*
X163846198Y-54151321D01*
X164045019Y-54074298D01*
X164226302Y-53962052D01*
X164383872Y-53818407D01*
X164431046Y-53755938D01*
X164487155Y-53714303D01*
X164556867Y-53709612D01*
X164618049Y-53743354D01*
X164628953Y-53755938D01*
X164676128Y-53818407D01*
X164833698Y-53962052D01*
X165014981Y-54074298D01*
X165213802Y-54151321D01*
X165423390Y-54190500D01*
X165423392Y-54190500D01*
X165636608Y-54190500D01*
X165636610Y-54190500D01*
X165846198Y-54151321D01*
X166045019Y-54074298D01*
X166226302Y-53962052D01*
X166383872Y-53818407D01*
X166431046Y-53755938D01*
X166487155Y-53714303D01*
X166556867Y-53709612D01*
X166618049Y-53743354D01*
X166628953Y-53755938D01*
X166676128Y-53818407D01*
X166833698Y-53962052D01*
X167014981Y-54074298D01*
X167213802Y-54151321D01*
X167423390Y-54190500D01*
X167423392Y-54190500D01*
X167636608Y-54190500D01*
X167636610Y-54190500D01*
X167846198Y-54151321D01*
X168045019Y-54074298D01*
X168226302Y-53962052D01*
X168383872Y-53818407D01*
X168431046Y-53755938D01*
X168487155Y-53714303D01*
X168556867Y-53709612D01*
X168618049Y-53743354D01*
X168628953Y-53755938D01*
X168676128Y-53818407D01*
X168833698Y-53962052D01*
X169014981Y-54074298D01*
X169213802Y-54151321D01*
X169423390Y-54190500D01*
X169423392Y-54190500D01*
X169636608Y-54190500D01*
X169636610Y-54190500D01*
X169846198Y-54151321D01*
X170045019Y-54074298D01*
X170226302Y-53962052D01*
X170383872Y-53818407D01*
X170431046Y-53755938D01*
X170487155Y-53714303D01*
X170556867Y-53709612D01*
X170618049Y-53743354D01*
X170628953Y-53755938D01*
X170676128Y-53818407D01*
X170833698Y-53962052D01*
X171014981Y-54074298D01*
X171213802Y-54151321D01*
X171423390Y-54190500D01*
X171423392Y-54190500D01*
X171636608Y-54190500D01*
X171636610Y-54190500D01*
X171846198Y-54151321D01*
X172045019Y-54074298D01*
X172226302Y-53962052D01*
X172383872Y-53818407D01*
X172431046Y-53755938D01*
X172487155Y-53714303D01*
X172556867Y-53709612D01*
X172618049Y-53743354D01*
X172628953Y-53755938D01*
X172676128Y-53818407D01*
X172833698Y-53962052D01*
X173014981Y-54074298D01*
X173213802Y-54151321D01*
X173423390Y-54190500D01*
X173423392Y-54190500D01*
X173636608Y-54190500D01*
X173636610Y-54190500D01*
X173846198Y-54151321D01*
X174045019Y-54074298D01*
X174226302Y-53962052D01*
X174383872Y-53818407D01*
X174431046Y-53755938D01*
X174487155Y-53714303D01*
X174556867Y-53709612D01*
X174618049Y-53743354D01*
X174628953Y-53755938D01*
X174676128Y-53818407D01*
X174833698Y-53962052D01*
X175014981Y-54074298D01*
X175213802Y-54151321D01*
X175423390Y-54190500D01*
X175423392Y-54190500D01*
X175636608Y-54190500D01*
X175636610Y-54190500D01*
X175846198Y-54151321D01*
X176045019Y-54074298D01*
X176226302Y-53962052D01*
X176383872Y-53818407D01*
X176431046Y-53755938D01*
X176487155Y-53714303D01*
X176556867Y-53709612D01*
X176618049Y-53743354D01*
X176628953Y-53755938D01*
X176676128Y-53818407D01*
X176833698Y-53962052D01*
X177014981Y-54074298D01*
X177213802Y-54151321D01*
X177423390Y-54190500D01*
X177423392Y-54190500D01*
X177636608Y-54190500D01*
X177636610Y-54190500D01*
X177846198Y-54151321D01*
X178045019Y-54074298D01*
X178226302Y-53962052D01*
X178383872Y-53818407D01*
X178512366Y-53648255D01*
X178607405Y-53457389D01*
X178665756Y-53252310D01*
X178685429Y-53040000D01*
X178665756Y-52827690D01*
X178607405Y-52622611D01*
X178607403Y-52622606D01*
X178607403Y-52622605D01*
X178512367Y-52431746D01*
X178431046Y-52324061D01*
X178383872Y-52261593D01*
X178241317Y-52131636D01*
X178205036Y-52071926D01*
X178206797Y-52002078D01*
X178241318Y-51948363D01*
X178305887Y-51889500D01*
X178383872Y-51818407D01*
X178512366Y-51648255D01*
X178530000Y-51612840D01*
X178607403Y-51457394D01*
X178607403Y-51457393D01*
X178607405Y-51457389D01*
X178665756Y-51252310D01*
X178685429Y-51040000D01*
X178665756Y-50827690D01*
X178607405Y-50622611D01*
X178607403Y-50622606D01*
X178607403Y-50622605D01*
X178512367Y-50431746D01*
X178383872Y-50261593D01*
X178226302Y-50117948D01*
X178045019Y-50005702D01*
X178045017Y-50005701D01*
X177847447Y-49929163D01*
X177846198Y-49928679D01*
X177636610Y-49889500D01*
X177423390Y-49889500D01*
X177213802Y-49928679D01*
X177213799Y-49928679D01*
X177213799Y-49928680D01*
X177014982Y-50005701D01*
X177014980Y-50005702D01*
X176833699Y-50117947D01*
X176676126Y-50261594D01*
X176628953Y-50324061D01*
X176572844Y-50365696D01*
X176503132Y-50370387D01*
X176441950Y-50336644D01*
X176431047Y-50324061D01*
X176383873Y-50261594D01*
X176383872Y-50261593D01*
X176226302Y-50117948D01*
X176045019Y-50005702D01*
X176045017Y-50005701D01*
X175847447Y-49929163D01*
X175846198Y-49928679D01*
X175636610Y-49889500D01*
X175423390Y-49889500D01*
X175213802Y-49928679D01*
X175213799Y-49928679D01*
X175213799Y-49928680D01*
X175014982Y-50005701D01*
X175014980Y-50005702D01*
X174833699Y-50117947D01*
X174676126Y-50261594D01*
X174628953Y-50324061D01*
X174572844Y-50365696D01*
X174503132Y-50370387D01*
X174441950Y-50336644D01*
X174431047Y-50324061D01*
X174383873Y-50261594D01*
X174383872Y-50261593D01*
X174226302Y-50117948D01*
X174045019Y-50005702D01*
X174045017Y-50005701D01*
X173847447Y-49929163D01*
X173846198Y-49928679D01*
X173636610Y-49889500D01*
X173423390Y-49889500D01*
X173213802Y-49928679D01*
X173213799Y-49928679D01*
X173213799Y-49928680D01*
X173014982Y-50005701D01*
X173014980Y-50005702D01*
X172833699Y-50117947D01*
X172676126Y-50261594D01*
X172628953Y-50324061D01*
X172572844Y-50365696D01*
X172503132Y-50370387D01*
X172441950Y-50336644D01*
X172431047Y-50324061D01*
X172383873Y-50261594D01*
X172383872Y-50261593D01*
X172226302Y-50117948D01*
X172045019Y-50005702D01*
X172045017Y-50005701D01*
X171847447Y-49929163D01*
X171846198Y-49928679D01*
X171636610Y-49889500D01*
X171423390Y-49889500D01*
X171213802Y-49928679D01*
X171213799Y-49928679D01*
X171213799Y-49928680D01*
X171014982Y-50005701D01*
X171014980Y-50005702D01*
X170833699Y-50117947D01*
X170676126Y-50261594D01*
X170628953Y-50324061D01*
X170572844Y-50365696D01*
X170503132Y-50370387D01*
X170441950Y-50336644D01*
X170431047Y-50324061D01*
X170383873Y-50261594D01*
X170383872Y-50261593D01*
X170226302Y-50117948D01*
X170045019Y-50005702D01*
X170045017Y-50005701D01*
X169847447Y-49929163D01*
X169846198Y-49928679D01*
X169636610Y-49889500D01*
X169423390Y-49889500D01*
X169213802Y-49928679D01*
X169213799Y-49928679D01*
X169213799Y-49928680D01*
X169014982Y-50005701D01*
X169014980Y-50005702D01*
X168833699Y-50117947D01*
X168676126Y-50261594D01*
X168628953Y-50324061D01*
X168572844Y-50365696D01*
X168503132Y-50370387D01*
X168441950Y-50336644D01*
X168431047Y-50324061D01*
X168383873Y-50261594D01*
X168383872Y-50261593D01*
X168226302Y-50117948D01*
X168045019Y-50005702D01*
X168045017Y-50005701D01*
X167847447Y-49929163D01*
X167846198Y-49928679D01*
X167636610Y-49889500D01*
X167423390Y-49889500D01*
X167213802Y-49928679D01*
X167213799Y-49928679D01*
X167213799Y-49928680D01*
X167014982Y-50005701D01*
X167014980Y-50005702D01*
X166833699Y-50117947D01*
X166676126Y-50261594D01*
X166628953Y-50324061D01*
X166572844Y-50365696D01*
X166503132Y-50370387D01*
X166441950Y-50336644D01*
X166431047Y-50324061D01*
X166383873Y-50261594D01*
X166383872Y-50261593D01*
X166226302Y-50117948D01*
X166045019Y-50005702D01*
X166045017Y-50005701D01*
X165847447Y-49929163D01*
X165846198Y-49928679D01*
X165636610Y-49889500D01*
X165423390Y-49889500D01*
X165213802Y-49928679D01*
X165213799Y-49928679D01*
X165213799Y-49928680D01*
X165014982Y-50005701D01*
X165014980Y-50005702D01*
X164833699Y-50117947D01*
X164676127Y-50261593D01*
X164594066Y-50370259D01*
X164537956Y-50411895D01*
X164507278Y-50416273D01*
X163930000Y-50993551D01*
X163930000Y-50987339D01*
X163902741Y-50885606D01*
X163850080Y-50794394D01*
X163775606Y-50719920D01*
X163684394Y-50667259D01*
X163582661Y-50640000D01*
X163576448Y-50640000D01*
X164147007Y-50069439D01*
X164044793Y-50006151D01*
X164044789Y-50006149D01*
X163846063Y-49929163D01*
X163846058Y-49929162D01*
X163636561Y-49890000D01*
X163423439Y-49890000D01*
X163213941Y-49929162D01*
X163213936Y-49929163D01*
X163015210Y-50006149D01*
X163015201Y-50006154D01*
X162912992Y-50069438D01*
X162912991Y-50069439D01*
X163483553Y-50640000D01*
X163477339Y-50640000D01*
X163375606Y-50667259D01*
X163284394Y-50719920D01*
X163209920Y-50794394D01*
X163157259Y-50885606D01*
X163130000Y-50987339D01*
X163130000Y-50993552D01*
X162550670Y-50414222D01*
X162505230Y-50404237D01*
X162465933Y-50370258D01*
X162383872Y-50261593D01*
X162226302Y-50117948D01*
X162045019Y-50005702D01*
X162045017Y-50005701D01*
X161847447Y-49929163D01*
X161846198Y-49928679D01*
X161636610Y-49889500D01*
X161423390Y-49889500D01*
X161213802Y-49928679D01*
X161213799Y-49928679D01*
X161213799Y-49928680D01*
X161014982Y-50005701D01*
X161014980Y-50005702D01*
X160833699Y-50117947D01*
X160676127Y-50261593D01*
X160547632Y-50431746D01*
X160452596Y-50622605D01*
X160452596Y-50622607D01*
X160394244Y-50827689D01*
X160374571Y-51039999D01*
X151154155Y-51039999D01*
X151159357Y-50963949D01*
X151139747Y-50677263D01*
X151081283Y-50395917D01*
X151070542Y-50365696D01*
X150985054Y-50125155D01*
X150985055Y-50125155D01*
X150852850Y-49870013D01*
X150687136Y-49635248D01*
X150608503Y-49551054D01*
X150491002Y-49425241D01*
X150268096Y-49243894D01*
X150268095Y-49243893D01*
X150022566Y-49094583D01*
X149759012Y-48980107D01*
X149759010Y-48980106D01*
X149759007Y-48980105D01*
X149629527Y-48943826D01*
X149482313Y-48902579D01*
X149482308Y-48902578D01*
X149482307Y-48902578D01*
X149339967Y-48883013D01*
X149237083Y-48868872D01*
X186999500Y-48868872D01*
X186999500Y-49131127D01*
X187014347Y-49243893D01*
X187033730Y-49391116D01*
X187101602Y-49644418D01*
X187101605Y-49644428D01*
X187201953Y-49886690D01*
X187201958Y-49886700D01*
X187333075Y-50113803D01*
X187492718Y-50321851D01*
X187492726Y-50321860D01*
X187678140Y-50507274D01*
X187678148Y-50507281D01*
X187886196Y-50666924D01*
X188113299Y-50798041D01*
X188113309Y-50798046D01*
X188324698Y-50885606D01*
X188355581Y-50898398D01*
X188608884Y-50966270D01*
X188868880Y-51000500D01*
X188868887Y-51000500D01*
X189131113Y-51000500D01*
X189131120Y-51000500D01*
X189391116Y-50966270D01*
X189644419Y-50898398D01*
X189886697Y-50798043D01*
X190113803Y-50666924D01*
X190321851Y-50507282D01*
X190321855Y-50507277D01*
X190321860Y-50507274D01*
X190507274Y-50321860D01*
X190507277Y-50321855D01*
X190507282Y-50321851D01*
X190666924Y-50113803D01*
X190798043Y-49886697D01*
X190898398Y-49644419D01*
X190966270Y-49391116D01*
X191000500Y-49131120D01*
X191000500Y-48868880D01*
X190966270Y-48608884D01*
X190898398Y-48355581D01*
X190898394Y-48355571D01*
X190798046Y-48113309D01*
X190798041Y-48113299D01*
X190666924Y-47886196D01*
X190507281Y-47678148D01*
X190507274Y-47678140D01*
X190321860Y-47492726D01*
X190321851Y-47492718D01*
X190113803Y-47333075D01*
X189886700Y-47201958D01*
X189886690Y-47201953D01*
X189644428Y-47101605D01*
X189644421Y-47101603D01*
X189644419Y-47101602D01*
X189391116Y-47033730D01*
X189333339Y-47026123D01*
X189131127Y-46999500D01*
X189131120Y-46999500D01*
X188868880Y-46999500D01*
X188868872Y-46999500D01*
X188637772Y-47029926D01*
X188608884Y-47033730D01*
X188355581Y-47101602D01*
X188355571Y-47101605D01*
X188113309Y-47201953D01*
X188113299Y-47201958D01*
X187886196Y-47333075D01*
X187678148Y-47492718D01*
X187492718Y-47678148D01*
X187333075Y-47886196D01*
X187201958Y-48113299D01*
X187201953Y-48113309D01*
X187101605Y-48355571D01*
X187101602Y-48355581D01*
X187033730Y-48608885D01*
X186999500Y-48868872D01*
X149237083Y-48868872D01*
X149197628Y-48863449D01*
X149197627Y-48863449D01*
X148910271Y-48863449D01*
X148910270Y-48863449D01*
X148625591Y-48902578D01*
X148625584Y-48902579D01*
X148417810Y-48960794D01*
X148348891Y-48980105D01*
X148348888Y-48980105D01*
X148348885Y-48980107D01*
X148348884Y-48980107D01*
X148085331Y-49094583D01*
X147839802Y-49243893D01*
X147616899Y-49425238D01*
X147420761Y-49635248D01*
X147255047Y-49870013D01*
X147122843Y-50125155D01*
X147026616Y-50395911D01*
X147026615Y-50395914D01*
X146968150Y-50677268D01*
X146948541Y-50963949D01*
X146159357Y-50963949D01*
X146139747Y-50677263D01*
X146081283Y-50395917D01*
X146070542Y-50365696D01*
X145985054Y-50125155D01*
X145985055Y-50125155D01*
X145852850Y-49870013D01*
X145687136Y-49635248D01*
X145608503Y-49551054D01*
X145491002Y-49425241D01*
X145268096Y-49243894D01*
X145268095Y-49243893D01*
X145022566Y-49094583D01*
X144759012Y-48980107D01*
X144759010Y-48980106D01*
X144759007Y-48980105D01*
X144629527Y-48943826D01*
X144482313Y-48902579D01*
X144482308Y-48902578D01*
X144482307Y-48902578D01*
X144339967Y-48883013D01*
X144197628Y-48863449D01*
X144197627Y-48863449D01*
X143910271Y-48863449D01*
X143910270Y-48863449D01*
X143625591Y-48902578D01*
X143625584Y-48902579D01*
X143417810Y-48960794D01*
X143348891Y-48980105D01*
X143348888Y-48980105D01*
X143348885Y-48980107D01*
X143348884Y-48980107D01*
X143085331Y-49094583D01*
X142839802Y-49243893D01*
X142616899Y-49425238D01*
X142420761Y-49635248D01*
X142255047Y-49870013D01*
X142122843Y-50125155D01*
X142026616Y-50395911D01*
X142026615Y-50395914D01*
X141968150Y-50677268D01*
X141948541Y-50963949D01*
X129649357Y-50963949D01*
X129629747Y-50677263D01*
X129571283Y-50395917D01*
X129560542Y-50365696D01*
X129475054Y-50125155D01*
X129475055Y-50125155D01*
X129342850Y-49870013D01*
X129177136Y-49635248D01*
X129098503Y-49551054D01*
X128981002Y-49425241D01*
X128758096Y-49243894D01*
X128758095Y-49243893D01*
X128512566Y-49094583D01*
X128249012Y-48980107D01*
X128249010Y-48980106D01*
X128249007Y-48980105D01*
X128119527Y-48943826D01*
X127972313Y-48902579D01*
X127972308Y-48902578D01*
X127972307Y-48902578D01*
X127829967Y-48883013D01*
X127687628Y-48863449D01*
X127687627Y-48863449D01*
X127400271Y-48863449D01*
X127400270Y-48863449D01*
X127115591Y-48902578D01*
X127115584Y-48902579D01*
X126907810Y-48960794D01*
X126838891Y-48980105D01*
X126838888Y-48980105D01*
X126838885Y-48980107D01*
X126838884Y-48980107D01*
X126575331Y-49094583D01*
X126329802Y-49243893D01*
X126106899Y-49425238D01*
X125910761Y-49635248D01*
X125745047Y-49870013D01*
X125612843Y-50125155D01*
X125516616Y-50395911D01*
X125516615Y-50395914D01*
X125458150Y-50677268D01*
X125438541Y-50963949D01*
X124649357Y-50963949D01*
X124629747Y-50677263D01*
X124571283Y-50395917D01*
X124560542Y-50365696D01*
X124475054Y-50125155D01*
X124475055Y-50125155D01*
X124342850Y-49870013D01*
X124177136Y-49635248D01*
X124098503Y-49551054D01*
X123981002Y-49425241D01*
X123758096Y-49243894D01*
X123758095Y-49243893D01*
X123512566Y-49094583D01*
X123249012Y-48980107D01*
X123249010Y-48980106D01*
X123249007Y-48980105D01*
X123119527Y-48943826D01*
X122972313Y-48902579D01*
X122972308Y-48902578D01*
X122972307Y-48902578D01*
X122829967Y-48883013D01*
X122687628Y-48863449D01*
X122687627Y-48863449D01*
X122400271Y-48863449D01*
X122400270Y-48863449D01*
X122115591Y-48902578D01*
X122115584Y-48902579D01*
X121907810Y-48960794D01*
X121838891Y-48980105D01*
X121838888Y-48980105D01*
X121838885Y-48980107D01*
X121838884Y-48980107D01*
X121575331Y-49094583D01*
X121329802Y-49243893D01*
X121106899Y-49425238D01*
X120910761Y-49635248D01*
X120745047Y-49870013D01*
X120612843Y-50125155D01*
X120516616Y-50395911D01*
X120516615Y-50395914D01*
X120458150Y-50677268D01*
X120438541Y-50963949D01*
X99399778Y-50963949D01*
X99644419Y-50898398D01*
X99886697Y-50798043D01*
X100113803Y-50666924D01*
X100321851Y-50507282D01*
X100321855Y-50507277D01*
X100321860Y-50507274D01*
X100507274Y-50321860D01*
X100507277Y-50321855D01*
X100507282Y-50321851D01*
X100666924Y-50113803D01*
X100798043Y-49886697D01*
X100898398Y-49644419D01*
X100966270Y-49391116D01*
X101000500Y-49131120D01*
X101000500Y-48868880D01*
X100966270Y-48608884D01*
X100898398Y-48355581D01*
X100898394Y-48355571D01*
X100798046Y-48113309D01*
X100798041Y-48113299D01*
X100666924Y-47886196D01*
X100507281Y-47678148D01*
X100507274Y-47678140D01*
X100321860Y-47492726D01*
X100321851Y-47492718D01*
X100113803Y-47333075D01*
X99886700Y-47201958D01*
X99886690Y-47201953D01*
X99644428Y-47101605D01*
X99644421Y-47101603D01*
X99644419Y-47101602D01*
X99391116Y-47033730D01*
X99333339Y-47026123D01*
X99131127Y-46999500D01*
X99131120Y-46999500D01*
X98868880Y-46999500D01*
X98868872Y-46999500D01*
X98637772Y-47029926D01*
X98608884Y-47033730D01*
X98355581Y-47101602D01*
X98355571Y-47101605D01*
X98113309Y-47201953D01*
X98113299Y-47201958D01*
X97886196Y-47333075D01*
X97678148Y-47492718D01*
X97492718Y-47678148D01*
X97333075Y-47886196D01*
X97201958Y-48113299D01*
X97201953Y-48113309D01*
X97101605Y-48355571D01*
X97101602Y-48355581D01*
X97033730Y-48608885D01*
X96999500Y-48868872D01*
X95000000Y-48868872D01*
X95000000Y-47540943D01*
X95000014Y-47539072D01*
X95000014Y-47539071D01*
X95002218Y-47393040D01*
X95003105Y-47380002D01*
X95038420Y-47089162D01*
X95041112Y-47074471D01*
X95111001Y-46790922D01*
X95115453Y-46776637D01*
X95218998Y-46503609D01*
X95225140Y-46489961D01*
X95360845Y-46231398D01*
X95368584Y-46218596D01*
X95534476Y-45978259D01*
X95543692Y-45966496D01*
X95737336Y-45747917D01*
X95747917Y-45737336D01*
X95966496Y-45543692D01*
X95978259Y-45534476D01*
X96218596Y-45368584D01*
X96231398Y-45360845D01*
X96489961Y-45225140D01*
X96503602Y-45219001D01*
X96776643Y-45115451D01*
X96790922Y-45111001D01*
X97074471Y-45041112D01*
X97089162Y-45038420D01*
X97380002Y-45003105D01*
X97393040Y-45002218D01*
X97539072Y-45000013D01*
X97540943Y-45000000D01*
X190459057Y-45000000D01*
X190460927Y-45000013D01*
G37*
%TD.AperFunction*%
%TD*%
M02*
