%TF.GenerationSoftware,KiCad,Pcbnew,8.0.7*%
%TF.CreationDate,2025-01-15T12:36:27-05:00*%
%TF.ProjectId,emberone,656d6265-726f-46e6-952e-6b696361645f,rev?*%
%TF.SameCoordinates,Original*%
%TF.FileFunction,Copper,L2,Inr*%
%TF.FilePolarity,Positive*%
%FSLAX46Y46*%
G04 Gerber Fmt 4.6, Leading zero omitted, Abs format (unit mm)*
G04 Created by KiCad (PCBNEW 8.0.7) date 2025-01-15 12:36:27*
%MOMM*%
%LPD*%
G01*
G04 APERTURE LIST*
%TA.AperFunction,ComponentPad*%
%ADD10C,0.540000*%
%TD*%
%TA.AperFunction,HeatsinkPad*%
%ADD11C,0.540000*%
%TD*%
%TA.AperFunction,ComponentPad*%
%ADD12O,1.000000X1.800000*%
%TD*%
%TA.AperFunction,ComponentPad*%
%ADD13O,1.000000X2.100000*%
%TD*%
%TA.AperFunction,ComponentPad*%
%ADD14C,6.400000*%
%TD*%
%TA.AperFunction,ComponentPad*%
%ADD15C,3.200000*%
%TD*%
%TA.AperFunction,ViaPad*%
%ADD16C,0.500000*%
%TD*%
%TA.AperFunction,ViaPad*%
%ADD17C,0.800000*%
%TD*%
%TA.AperFunction,ViaPad*%
%ADD18C,1.000000*%
%TD*%
G04 APERTURE END LIST*
D10*
%TO.N,/stack5/GND1*%
%TO.C,U55*%
X162910000Y-174685000D03*
X162908000Y-172815000D03*
X162078572Y-174685000D03*
X162076572Y-172815000D03*
X161250000Y-171945000D03*
X161247144Y-174685000D03*
X161245144Y-172815000D03*
X161230000Y-175595000D03*
X161220000Y-173805000D03*
X160415716Y-174685000D03*
X160413716Y-172815000D03*
X159584288Y-174685000D03*
X159582288Y-172815000D03*
D11*
X158760000Y-175595000D03*
D10*
X158760000Y-171955000D03*
X158752860Y-174685000D03*
X158750860Y-172815000D03*
X158750000Y-173825000D03*
X157921432Y-174685000D03*
X157919432Y-172815000D03*
X157090000Y-174685000D03*
X157088000Y-172815000D03*
%TD*%
%TO.N,/stack6/GND2*%
%TO.C,U65*%
X178580000Y-188675000D03*
X178582000Y-190545000D03*
X179411428Y-188675000D03*
X179413428Y-190545000D03*
X180240000Y-191415000D03*
X180242856Y-188675000D03*
X180244856Y-190545000D03*
X180260000Y-187765000D03*
X180270000Y-189555000D03*
X181074284Y-188675000D03*
X181076284Y-190545000D03*
X181905712Y-188675000D03*
X181907712Y-190545000D03*
D11*
X182730000Y-187765000D03*
D10*
X182730000Y-191405000D03*
X182737140Y-188675000D03*
X182739140Y-190545000D03*
X182740000Y-189535000D03*
X183568568Y-188675000D03*
X183570568Y-190545000D03*
X184400000Y-188675000D03*
X184402000Y-190545000D03*
%TD*%
%TO.N,/stack4/GND2*%
%TO.C,U47*%
X135540000Y-188645000D03*
X135542000Y-190515000D03*
X136371428Y-188645000D03*
X136373428Y-190515000D03*
X137200000Y-191385000D03*
X137202856Y-188645000D03*
X137204856Y-190515000D03*
X137220000Y-187735000D03*
X137230000Y-189525000D03*
X138034284Y-188645000D03*
X138036284Y-190515000D03*
X138865712Y-188645000D03*
X138867712Y-190515000D03*
D11*
X139690000Y-187735000D03*
D10*
X139690000Y-191375000D03*
X139697140Y-188645000D03*
X139699140Y-190515000D03*
X139700000Y-189505000D03*
X140528568Y-188645000D03*
X140530568Y-190515000D03*
X141360000Y-188645000D03*
X141362000Y-190515000D03*
%TD*%
%TO.N,GND*%
%TO.C,U74*%
X205970000Y-161095000D03*
X205968000Y-159225000D03*
X205138572Y-161095000D03*
X205136572Y-159225000D03*
X204310000Y-158355000D03*
X204307144Y-161095000D03*
X204305144Y-159225000D03*
X204290000Y-162005000D03*
X204280000Y-160215000D03*
X203475716Y-161095000D03*
X203473716Y-159225000D03*
X202644288Y-161095000D03*
X202642288Y-159225000D03*
D11*
X201820000Y-162005000D03*
D10*
X201820000Y-158365000D03*
X201812860Y-161095000D03*
X201810860Y-159225000D03*
X201810000Y-160235000D03*
X200981432Y-161095000D03*
X200979432Y-159225000D03*
X200150000Y-161095000D03*
X200148000Y-159225000D03*
%TD*%
%TO.N,/stack5/GND0*%
%TO.C,U54*%
X162910000Y-188355000D03*
X162908000Y-186485000D03*
X162078572Y-188355000D03*
X162076572Y-186485000D03*
X161250000Y-185615000D03*
X161247144Y-188355000D03*
X161245144Y-186485000D03*
X161230000Y-189265000D03*
X161220000Y-187475000D03*
X160415716Y-188355000D03*
X160413716Y-186485000D03*
X159584288Y-188355000D03*
X159582288Y-186485000D03*
D11*
X158760000Y-189265000D03*
D10*
X158760000Y-185625000D03*
X158752860Y-188355000D03*
X158750860Y-186485000D03*
X158750000Y-187495000D03*
X157921432Y-188355000D03*
X157919432Y-186485000D03*
X157090000Y-188355000D03*
X157088000Y-186485000D03*
%TD*%
%TO.N,/stack4/GND1*%
%TO.C,U46*%
X135540000Y-174965000D03*
X135542000Y-176835000D03*
X136371428Y-174965000D03*
X136373428Y-176835000D03*
X137200000Y-177705000D03*
X137202856Y-174965000D03*
X137204856Y-176835000D03*
X137220000Y-174055000D03*
X137230000Y-175845000D03*
X138034284Y-174965000D03*
X138036284Y-176835000D03*
X138865712Y-174965000D03*
X138867712Y-176835000D03*
D11*
X139690000Y-174055000D03*
D10*
X139690000Y-177695000D03*
X139697140Y-174965000D03*
X139699140Y-176835000D03*
X139700000Y-175825000D03*
X140528568Y-174965000D03*
X140530568Y-176835000D03*
X141360000Y-174965000D03*
X141362000Y-176835000D03*
%TD*%
%TO.N,/stack4/GND0*%
%TO.C,U45*%
X135540000Y-161275000D03*
X135542000Y-163145000D03*
X136371428Y-161275000D03*
X136373428Y-163145000D03*
X137200000Y-164015000D03*
X137202856Y-161275000D03*
X137204856Y-163145000D03*
X137220000Y-160365000D03*
X137230000Y-162155000D03*
X138034284Y-161275000D03*
X138036284Y-163145000D03*
X138865712Y-161275000D03*
X138867712Y-163145000D03*
D11*
X139690000Y-160365000D03*
D10*
X139690000Y-164005000D03*
X139697140Y-161275000D03*
X139699140Y-163145000D03*
X139700000Y-162135000D03*
X140528568Y-161275000D03*
X140530568Y-163145000D03*
X141360000Y-161275000D03*
X141362000Y-163145000D03*
%TD*%
%TO.N,/stack7/GND0*%
%TO.C,U72*%
X205970000Y-188465000D03*
X205968000Y-186595000D03*
X205138572Y-188465000D03*
X205136572Y-186595000D03*
X204310000Y-185725000D03*
X204307144Y-188465000D03*
X204305144Y-186595000D03*
X204290000Y-189375000D03*
X204280000Y-187585000D03*
X203475716Y-188465000D03*
X203473716Y-186595000D03*
X202644288Y-188465000D03*
X202642288Y-186595000D03*
D11*
X201820000Y-189375000D03*
D10*
X201820000Y-185735000D03*
X201812860Y-188465000D03*
X201810860Y-186595000D03*
X201810000Y-187605000D03*
X200981432Y-188465000D03*
X200979432Y-186595000D03*
X200150000Y-188465000D03*
X200148000Y-186595000D03*
%TD*%
%TO.N,/stack6/GND0*%
%TO.C,U63*%
X178580000Y-161305000D03*
X178582000Y-163175000D03*
X179411428Y-161305000D03*
X179413428Y-163175000D03*
X180240000Y-164045000D03*
X180242856Y-161305000D03*
X180244856Y-163175000D03*
X180260000Y-160395000D03*
X180270000Y-162185000D03*
X181074284Y-161305000D03*
X181076284Y-163175000D03*
X181905712Y-161305000D03*
X181907712Y-163175000D03*
D11*
X182730000Y-160395000D03*
D10*
X182730000Y-164035000D03*
X182737140Y-161305000D03*
X182739140Y-163175000D03*
X182740000Y-162165000D03*
X183568568Y-161305000D03*
X183570568Y-163175000D03*
X184400000Y-161305000D03*
X184402000Y-163175000D03*
%TD*%
%TO.N,/stack6/GND1*%
%TO.C,U64*%
X178580000Y-174985000D03*
X178582000Y-176855000D03*
X179411428Y-174985000D03*
X179413428Y-176855000D03*
X180240000Y-177725000D03*
X180242856Y-174985000D03*
X180244856Y-176855000D03*
X180260000Y-174075000D03*
X180270000Y-175865000D03*
X181074284Y-174985000D03*
X181076284Y-176855000D03*
X181905712Y-174985000D03*
X181907712Y-176855000D03*
D11*
X182730000Y-174075000D03*
D10*
X182730000Y-177715000D03*
X182737140Y-174985000D03*
X182739140Y-176855000D03*
X182740000Y-175845000D03*
X183568568Y-174985000D03*
X183570568Y-176855000D03*
X184400000Y-174985000D03*
X184402000Y-176855000D03*
%TD*%
%TO.N,/stack7/GND1*%
%TO.C,U73*%
X205970000Y-174775000D03*
X205968000Y-172905000D03*
X205138572Y-174775000D03*
X205136572Y-172905000D03*
X204310000Y-172035000D03*
X204307144Y-174775000D03*
X204305144Y-172905000D03*
X204290000Y-175685000D03*
X204280000Y-173895000D03*
X203475716Y-174775000D03*
X203473716Y-172905000D03*
X202644288Y-174775000D03*
X202642288Y-172905000D03*
D11*
X201820000Y-175685000D03*
D10*
X201820000Y-172045000D03*
X201812860Y-174775000D03*
X201810860Y-172905000D03*
X201810000Y-173915000D03*
X200981432Y-174775000D03*
X200979432Y-172905000D03*
X200150000Y-174775000D03*
X200148000Y-172905000D03*
%TD*%
%TO.N,/stack5/GND2*%
%TO.C,U56*%
X162930000Y-161005000D03*
X162928000Y-159135000D03*
X162098572Y-161005000D03*
X162096572Y-159135000D03*
X161270000Y-158265000D03*
X161267144Y-161005000D03*
X161265144Y-159135000D03*
X161250000Y-161915000D03*
X161240000Y-160125000D03*
X160435716Y-161005000D03*
X160433716Y-159135000D03*
X159604288Y-161005000D03*
X159602288Y-159135000D03*
D11*
X158780000Y-161915000D03*
D10*
X158780000Y-158275000D03*
X158772860Y-161005000D03*
X158770860Y-159135000D03*
X158770000Y-160145000D03*
X157941432Y-161005000D03*
X157939432Y-159135000D03*
X157110000Y-161005000D03*
X157108000Y-159135000D03*
%TD*%
D12*
%TO.N,GND*%
%TO.C,J6*%
X210660000Y-81265000D03*
D13*
X210660000Y-85445000D03*
D12*
X219300000Y-81265000D03*
D13*
X219300000Y-85445000D03*
%TD*%
D14*
%TO.N,unconnected-(H6-Pad1)*%
%TO.C,H6*%
X192930000Y-181770000D03*
%TD*%
%TO.N,unconnected-(H8-Pad1)*%
%TO.C,H8*%
X170930000Y-181770000D03*
%TD*%
D15*
%TO.N,/Power/VIN*%
%TO.C,J1*%
X164295549Y-81250000D03*
X164295549Y-88250000D03*
X169295549Y-81250000D03*
X169295549Y-88250000D03*
%TD*%
D14*
%TO.N,unconnected-(H5-Pad1)*%
%TO.C,H5*%
X192930000Y-167770000D03*
%TD*%
%TO.N,unconnected-(H10-Pad1)*%
%TO.C,H10*%
X148930000Y-181770000D03*
%TD*%
%TO.N,unconnected-(H7-Pad1)*%
%TO.C,H7*%
X170930000Y-167770000D03*
%TD*%
D15*
%TO.N,GND*%
%TO.C,J2*%
X185805549Y-81250000D03*
X185805549Y-88250000D03*
X190805549Y-81250000D03*
X190805549Y-88250000D03*
%TD*%
D14*
%TO.N,unconnected-(H9-Pad1)*%
%TO.C,H9*%
X148930000Y-167770000D03*
%TD*%
D16*
%TO.N,GND*%
X236380000Y-146880000D03*
X199770000Y-96740000D03*
%TO.N,/3V3*%
X204570000Y-100940000D03*
%TO.N,/Data/SCL*%
X206900000Y-100890000D03*
%TO.N,/5V*%
X144584719Y-171505281D03*
%TO.N,Net-(U55-NRSTI)*%
X154790000Y-167440000D03*
%TO.N,/Data/SWCLK*%
X213715000Y-91545000D03*
%TO.N,GND*%
X224970000Y-99620000D03*
X132913949Y-93291049D03*
X135050000Y-92220000D03*
X214480000Y-99550000D03*
D17*
X154150000Y-88260000D03*
D16*
X208650000Y-96750000D03*
D17*
X157951600Y-89788400D03*
D16*
X215900000Y-99550000D03*
X132910000Y-94430000D03*
X198140000Y-164650000D03*
X132910000Y-92220000D03*
X122405000Y-179190000D03*
D17*
X157711600Y-99268400D03*
X222660000Y-94780000D03*
D16*
X135053949Y-93291049D03*
D17*
X131700000Y-101200000D03*
D16*
X207760000Y-97785000D03*
D17*
X138430000Y-100680000D03*
D16*
X143490000Y-91150000D03*
X220660000Y-94510000D03*
X216750000Y-107480000D03*
X213994575Y-102880000D03*
D17*
X122890000Y-92130000D03*
D16*
X219530000Y-107230000D03*
D17*
X122330000Y-95850000D03*
D16*
X215200000Y-100377500D03*
X218200000Y-109960000D03*
X214470000Y-101220000D03*
D17*
X152800000Y-94695200D03*
D16*
X134010000Y-92210000D03*
X212100000Y-108940000D03*
X135050000Y-94430000D03*
X134013949Y-93281049D03*
X211790000Y-93150000D03*
X227550000Y-82230000D03*
X215890000Y-101220000D03*
X222650000Y-101390000D03*
X230240000Y-150730000D03*
X205420000Y-146280000D03*
X220650000Y-95570000D03*
X234740000Y-179440000D03*
D17*
X148500000Y-93450000D03*
D16*
X122565000Y-170505000D03*
X218230000Y-107280000D03*
X150970000Y-98210000D03*
X134010000Y-94420000D03*
X222660000Y-97780000D03*
X209030000Y-164830000D03*
D18*
X230970000Y-91130000D03*
D17*
X140200000Y-84200000D03*
D16*
X207770000Y-100940000D03*
D18*
X232375000Y-91135000D03*
D17*
X130870000Y-84420000D03*
D16*
X208610000Y-92850000D03*
D18*
%TO.N,/Power/VIN_M*%
X167990000Y-103730000D03*
X194920000Y-108410000D03*
X199080000Y-102770000D03*
X169390000Y-102290000D03*
X193440000Y-102780000D03*
X165270000Y-102290000D03*
X166640000Y-102290000D03*
X162170000Y-102300000D03*
X169380000Y-103730000D03*
D16*
X145750000Y-99710000D03*
D18*
X165260000Y-103730000D03*
D16*
X127968951Y-93531049D03*
D18*
X163763949Y-106473949D03*
X194920000Y-102780000D03*
X196280000Y-101190000D03*
X162170000Y-105103949D03*
X193440000Y-101190000D03*
X168000000Y-102290000D03*
X197670000Y-102780000D03*
X166630000Y-103730000D03*
X193440000Y-104290000D03*
X199080000Y-101180000D03*
X193440000Y-108410000D03*
X197670000Y-101190000D03*
X163763949Y-102300000D03*
X163763949Y-105103949D03*
X194920000Y-107020000D03*
X194920000Y-105660000D03*
X193440000Y-107020000D03*
X194920000Y-101190000D03*
X162170000Y-103740000D03*
X194920000Y-104290000D03*
X162170000Y-106473949D03*
X196280000Y-102780000D03*
X163763949Y-103740000D03*
X193440000Y-105660000D03*
D16*
%TO.N,Net-(D1-A)*%
X137370000Y-90530000D03*
X131960000Y-96750000D03*
%TO.N,Net-(U1-COMP1)*%
X138240000Y-91660000D03*
X139833951Y-94531049D03*
%TO.N,Net-(D2-A)*%
X138080000Y-89160000D03*
X130400000Y-87860000D03*
X132320000Y-88248792D03*
D18*
%TO.N,/3V6*%
X132570000Y-135590000D03*
X228680000Y-137210000D03*
X134160000Y-134220000D03*
X218200000Y-134170000D03*
X218200000Y-132580000D03*
X219640000Y-134150000D03*
X221194284Y-140220000D03*
X134160000Y-135590000D03*
X129500000Y-136960000D03*
X135670000Y-139770000D03*
X129500000Y-135600000D03*
X126570000Y-134220000D03*
X228680000Y-141940000D03*
X169430000Y-135880000D03*
X222691426Y-140220000D03*
X228680000Y-138800000D03*
X134150000Y-139780000D03*
X218200000Y-138880000D03*
X228680000Y-135690000D03*
X129530000Y-132820000D03*
X218200000Y-142020000D03*
X168040000Y-135880000D03*
X202500000Y-129490000D03*
X199390000Y-128050000D03*
X227200000Y-135690000D03*
X227200000Y-132500000D03*
X127980000Y-136980000D03*
X227200000Y-137210000D03*
X218200000Y-140300000D03*
X135680000Y-134210000D03*
X128010000Y-132840000D03*
X135680000Y-135580000D03*
X227182852Y-141940000D03*
X126560000Y-141170000D03*
X202500000Y-128100000D03*
X135680000Y-136940000D03*
X132560000Y-139780000D03*
X155980000Y-133950000D03*
X155980000Y-132560000D03*
X127970000Y-139810000D03*
X227200000Y-138800000D03*
X154390000Y-133950000D03*
X129490000Y-141180000D03*
X225685710Y-141940000D03*
X227182852Y-140220000D03*
X135710000Y-132800000D03*
X132570000Y-136950000D03*
X132600000Y-132810000D03*
X126600000Y-132810000D03*
X219697142Y-142000000D03*
X222691426Y-141940000D03*
X126570000Y-136950000D03*
X134160000Y-136950000D03*
X228680000Y-134090000D03*
X224188568Y-140220000D03*
X218200000Y-137290000D03*
X134150000Y-141170000D03*
X127980000Y-134250000D03*
X129500000Y-138350000D03*
X154390000Y-132560000D03*
X127980000Y-138370000D03*
X131050000Y-138360000D03*
X126560000Y-139780000D03*
X132560000Y-141170000D03*
X169430000Y-137470000D03*
X131040000Y-141190000D03*
X219640000Y-135750000D03*
X221194284Y-141940000D03*
X168040000Y-137470000D03*
X135680000Y-138330000D03*
X129490000Y-139790000D03*
X225685710Y-140220000D03*
X131080000Y-132830000D03*
X218200000Y-135770000D03*
X202440000Y-130930000D03*
X127980000Y-135620000D03*
X135670000Y-141160000D03*
X219697142Y-140280000D03*
X131050000Y-136970000D03*
D16*
X142400000Y-153030000D03*
D18*
X219640000Y-137270000D03*
X131040000Y-139800000D03*
X134190000Y-132810000D03*
X126570000Y-138340000D03*
X228680000Y-132500000D03*
X228680000Y-140220000D03*
X227200000Y-134090000D03*
X131050000Y-135610000D03*
X132570000Y-138340000D03*
X219640000Y-138860000D03*
X200910000Y-128100000D03*
X219640000Y-132560000D03*
D16*
X224900000Y-107900000D03*
D18*
X127970000Y-141200000D03*
X132570000Y-134220000D03*
X134160000Y-138340000D03*
X126570000Y-135590000D03*
X129500000Y-134230000D03*
X131050000Y-134240000D03*
X224188568Y-141940000D03*
D16*
%TO.N,Net-(Q1-G)*%
X156110000Y-109770000D03*
X129000000Y-97770000D03*
%TO.N,Net-(Q2-G)*%
X159800000Y-117390000D03*
X132763949Y-96740000D03*
%TO.N,Net-(Q3-G)*%
X130560000Y-91820000D03*
X201940000Y-103890000D03*
%TO.N,Net-(Q4-G)*%
X133020000Y-87890000D03*
X200890000Y-117400000D03*
%TO.N,/3V3*%
X220730000Y-106730000D03*
X216720000Y-106710000D03*
X215640000Y-94960000D03*
D17*
X154390000Y-94680000D03*
D16*
X235560000Y-145110000D03*
D17*
X147990000Y-88810000D03*
D18*
X226930000Y-94930000D03*
D16*
X211110000Y-94175000D03*
X218000000Y-95855000D03*
X232200000Y-171100000D03*
D17*
X156461600Y-99268400D03*
D16*
X219870000Y-97785000D03*
D18*
X226930000Y-93330000D03*
D16*
X232000000Y-146130000D03*
X219960000Y-101385000D03*
X120100000Y-169750000D03*
D17*
X150900000Y-86900000D03*
D16*
X205040000Y-92890000D03*
X210430000Y-97770000D03*
X210100000Y-100940000D03*
%TO.N,/Data/1V1*%
X214990000Y-97995000D03*
X215350000Y-102765000D03*
X216930000Y-97995000D03*
%TO.N,/stack4/GND0*%
X133360000Y-157380000D03*
X143630000Y-157610000D03*
%TO.N,/stack4/GND1*%
X133350000Y-171210000D03*
X143440000Y-171040000D03*
%TO.N,/stack4/GND2*%
X164338000Y-196342000D03*
X143620000Y-183930000D03*
X133380000Y-184540000D03*
%TO.N,/stack4/1V2-0*%
X133120000Y-165470000D03*
%TO.N,/Power/SW1*%
X131940000Y-98140000D03*
X151290000Y-104650000D03*
%TO.N,/Power/SW2*%
X194730000Y-112020000D03*
X130930000Y-89160000D03*
%TO.N,/Power/LOOP1*%
X134710000Y-97470000D03*
X154820000Y-116460000D03*
%TO.N,/Power/LOOP2*%
X196060000Y-116440000D03*
X134040000Y-87900000D03*
%TO.N,/stack4/1V2-1*%
X132950000Y-179160000D03*
%TO.N,/stack4/1V2-2*%
X132790000Y-193870000D03*
%TO.N,/stack4/0V8-0*%
X132130000Y-165420000D03*
X128970000Y-160830000D03*
%TO.N,/stack4/0V8-1*%
X132850000Y-176370000D03*
X131930000Y-178570000D03*
%TO.N,/stack4/0V8-2*%
X128740000Y-187750000D03*
X131820000Y-193740000D03*
%TO.N,/stack5/GND0*%
X149930000Y-187660000D03*
X155070000Y-192060000D03*
X165240000Y-192140000D03*
%TO.N,/stack5/GND1*%
X164930000Y-178410000D03*
X154800000Y-178410000D03*
%TO.N,/stack5/GND2*%
X185674000Y-152908000D03*
X165002500Y-165607500D03*
X154770000Y-165410000D03*
X147722500Y-155955000D03*
X146362500Y-161820000D03*
%TO.N,/stack5/1V2-0*%
X152930000Y-186570000D03*
%TO.N,/stack5/1V2-1*%
X154880000Y-173920000D03*
%TO.N,/stack5/1V2-2*%
X150840000Y-157720000D03*
X154630000Y-156180000D03*
%TO.N,/stack5/0V8-0*%
X153800000Y-186900000D03*
%TO.N,/stack5/0V8-1*%
X165150000Y-171610000D03*
%TO.N,/stack5/0V8-2*%
X150691091Y-159021091D03*
X153560000Y-156200000D03*
%TO.N,/stack6/GND0*%
X186900000Y-156720000D03*
X176370000Y-157590000D03*
%TO.N,/stack6/GND1*%
X186710000Y-171070000D03*
X176210000Y-171100000D03*
%TO.N,/stack6/GND2*%
X186860000Y-184900000D03*
X207518000Y-197104000D03*
X176280000Y-184700000D03*
%TO.N,/stack6/1V2-0*%
X186660000Y-164720000D03*
%TO.N,/stack6/1V2-1*%
X176300000Y-178050000D03*
%TO.N,/stack6/1V2-2*%
X171480000Y-189320000D03*
X175650000Y-194370000D03*
%TO.N,/stack6/0V8-0*%
X175870000Y-163790000D03*
%TO.N,/stack6/0V8-1*%
X192528749Y-172053749D03*
X188425000Y-177750000D03*
%TO.N,/stack6/0V8-2*%
X174600000Y-194360000D03*
%TO.N,/stack7/GND0*%
X197820000Y-192140000D03*
X211600000Y-190930000D03*
%TO.N,/stack7/GND1*%
X198010000Y-178730000D03*
X208440000Y-178730000D03*
%TO.N,/stack7/1V2-0*%
X209080000Y-185050000D03*
X208200000Y-188330000D03*
%TO.N,/stack7/1V2-1*%
X213820000Y-175670000D03*
X210580000Y-172125000D03*
%TO.N,/stack7/1V2-2*%
X230195104Y-149850000D03*
X209520000Y-156990000D03*
X215026522Y-160913133D03*
X235570000Y-153120000D03*
%TO.N,/stack7/0V8-0*%
X209690000Y-185580000D03*
%TO.N,/stack7/0V8-1*%
X209560000Y-172150000D03*
%TO.N,/stack7/0V8-2*%
X210530000Y-156990000D03*
%TO.N,/Data/SWD*%
X217010000Y-102795000D03*
X216620000Y-91550000D03*
%TO.N,/Data/SWCLK*%
X216250000Y-102710000D03*
%TO.N,/Data/QSPI_SS*%
X204510000Y-95260000D03*
X210613028Y-96694305D03*
%TO.N,Net-(U46-NRSTO)*%
X143610000Y-171890000D03*
%TO.N,Net-(U46-CO)*%
X143526091Y-175413909D03*
%TO.N,Net-(U46-CLKO)*%
X143550000Y-174320000D03*
%TO.N,Net-(U46-RI)*%
X143549000Y-173531000D03*
%TO.N,Net-(U46-BO)*%
X143550000Y-172710000D03*
%TO.N,Net-(U45-BI)*%
X146620000Y-173760000D03*
%TO.N,Net-(U45-CO)*%
X132570000Y-157450000D03*
%TO.N,Net-(U46-CI)*%
X131500000Y-180200000D03*
%TO.N,Net-(U47-CO)*%
X131520000Y-182590000D03*
%TO.N,Net-(U46-CLKI)*%
X130490000Y-180200000D03*
%TO.N,Net-(U45-CLKO)*%
X131990000Y-157940000D03*
%TO.N,Net-(U47-CLKO)*%
X130540000Y-182580000D03*
%TO.N,Net-(U46-RO)*%
X129480000Y-180200000D03*
%TO.N,Net-(U45-RI)*%
X131920000Y-159470000D03*
%TO.N,Net-(U47-RI)*%
X129480000Y-182500000D03*
%TO.N,Net-(U46-BI)*%
X128490000Y-180200000D03*
%TO.N,Net-(U45-BO)*%
X131960000Y-160450000D03*
%TO.N,Net-(U47-BO)*%
X128530000Y-182610000D03*
%TO.N,Net-(U46-NRSTI)*%
X127630000Y-180180000D03*
%TO.N,Net-(U45-NRSTO)*%
X125520000Y-161250000D03*
%TO.N,Net-(U47-NRSTO)*%
X127670000Y-182610000D03*
%TO.N,Net-(U55-NRSTO)*%
X168190000Y-191270000D03*
%TO.N,Net-(U55-CO)*%
X168190000Y-187120000D03*
%TO.N,Net-(U55-CLKO)*%
X168190000Y-188140000D03*
%TO.N,Net-(U55-RI)*%
X168190000Y-189210000D03*
%TO.N,Net-(U55-BO)*%
X168190000Y-190200000D03*
%TO.N,Net-(U55-CI)*%
X151680000Y-158810000D03*
%TO.N,Net-(U54-CO)*%
X146340000Y-185190000D03*
%TO.N,Net-(U56-CO)*%
X154350000Y-158820000D03*
%TO.N,Net-(U54-CLKO)*%
X146350000Y-186390000D03*
%TO.N,Net-(U55-CLKI)*%
X151700000Y-159810000D03*
%TO.N,Net-(U56-CLKO)*%
X154871091Y-161558909D03*
%TO.N,Net-(U55-RO)*%
X151700000Y-160840000D03*
%TO.N,Net-(U54-RI)*%
X146310000Y-187330000D03*
%TO.N,Net-(U56-RI)*%
X154700000Y-163200000D03*
%TO.N,Net-(U55-BI)*%
X151660000Y-161870000D03*
%TO.N,Net-(U54-BO)*%
X146320000Y-188410000D03*
%TO.N,Net-(U56-BO)*%
X154040000Y-163980000D03*
%TO.N,Net-(U54-NRSTO)*%
X146310000Y-189360000D03*
%TO.N,Net-(U55-NRSTI)*%
X151940000Y-162856000D03*
%TO.N,Net-(U56-NRSTO)*%
X153370000Y-163610000D03*
%TO.N,Net-(U64-NRSTO)*%
X189920000Y-161070000D03*
%TO.N,Net-(U64-CO)*%
X190100000Y-157090000D03*
%TO.N,Net-(U64-CLKO)*%
X189890000Y-158110000D03*
%TO.N,Net-(U64-RI)*%
X189890000Y-159060000D03*
%TO.N,Net-(U64-BO)*%
X189890000Y-160050000D03*
%TO.N,Net-(U64-CI)*%
X173713954Y-186860313D03*
%TO.N,Net-(U63-CO)*%
X167780000Y-160730000D03*
%TO.N,Net-(U65-CO)*%
X176400000Y-185470000D03*
%TO.N,Net-(U63-CLKO)*%
X167780000Y-161720000D03*
%TO.N,Net-(U64-CLKI)*%
X173760000Y-187650000D03*
%TO.N,Net-(U65-CLKO)*%
X176430000Y-186240000D03*
%TO.N,Net-(U63-RI)*%
X167780000Y-162730000D03*
%TO.N,Net-(U64-RO)*%
X173800000Y-188400000D03*
%TO.N,Net-(U65-RI)*%
X176390000Y-187130000D03*
%TO.N,Net-(U64-BI)*%
X173800000Y-189325000D03*
%TO.N,Net-(U63-BO)*%
X167780000Y-163730000D03*
%TO.N,Net-(U65-BO)*%
X176370000Y-187940000D03*
%TO.N,Net-(U63-NRSTO)*%
X167780000Y-164740000D03*
%TO.N,Net-(U64-NRSTI)*%
X173800000Y-190250000D03*
X173970000Y-179310000D03*
%TO.N,Net-(U65-NRSTO)*%
X176196545Y-189791783D03*
%TO.N,Net-(U73-NRSTO)*%
X214940000Y-180240000D03*
%TO.N,Net-(U73-CO)*%
X210910000Y-180240000D03*
%TO.N,Net-(U73-CLKO)*%
X211920000Y-180240000D03*
%TO.N,Net-(U73-RI)*%
X212930000Y-180240000D03*
%TO.N,Net-(U73-BO)*%
X213920000Y-180230000D03*
%TO.N,Net-(U74-BI)*%
X209910000Y-163500000D03*
%TO.N,Net-(U72-CO)*%
X192260000Y-185660000D03*
%TO.N,Net-(U73-CI)*%
X198010000Y-177740000D03*
%TO.N,Net-(U72-CLKO)*%
X192260000Y-186610000D03*
%TO.N,Net-(U73-CLKI)*%
X198010000Y-176988286D03*
%TO.N,Net-(U72-RI)*%
X192280000Y-187570000D03*
%TO.N,Net-(U73-RO)*%
X198010000Y-176213909D03*
%TO.N,Net-(U73-BI)*%
X198010000Y-175430000D03*
%TO.N,Net-(U72-BO)*%
X192310000Y-188520000D03*
%TO.N,Net-(U73-NRSTI)*%
X198010000Y-174650000D03*
%TO.N,Net-(U72-NRSTO)*%
X192310000Y-189450000D03*
%TO.N,/stack4/RO*%
X143550000Y-186680000D03*
%TO.N,/stack4/CLKI*%
X143550000Y-185800000D03*
%TO.N,/stack4/CI*%
X143530000Y-184980000D03*
%TO.N,Net-(U74-NRSTO)*%
X195460000Y-174630000D03*
%TO.N,Net-(U74-BO)*%
X195230000Y-175567500D03*
%TO.N,Net-(U74-RI)*%
X195230000Y-176505000D03*
%TO.N,Net-(U74-CLKO)*%
X195230000Y-177442500D03*
%TO.N,Net-(U74-CO)*%
X195230000Y-178380000D03*
%TO.N,/Data/SCL*%
X211200000Y-105590000D03*
X151130000Y-94650000D03*
X225993909Y-107416091D03*
X155350000Y-100000000D03*
X122490000Y-116470000D03*
%TO.N,/Data/SDA*%
X123290000Y-116470000D03*
X154566600Y-100053400D03*
X204275000Y-99170000D03*
X150320000Y-94670000D03*
X210650000Y-106180000D03*
X226488051Y-108027648D03*
%TO.N,/Data/QSPI_SD1*%
X212930000Y-97970000D03*
X205348889Y-95243644D03*
%TO.N,/Data/QSPI_SD2*%
X213770000Y-97970000D03*
X206300000Y-95225000D03*
%TO.N,/RST*%
X236460000Y-140720000D03*
X210110000Y-102810000D03*
%TO.N,/RX*%
X235320000Y-141910000D03*
X208860000Y-103220000D03*
%TO.N,Net-(U27-GPIO1)*%
X232810000Y-81080000D03*
X210280000Y-99396526D03*
%TO.N,/TX*%
X235910000Y-141360000D03*
X208850000Y-102390000D03*
%TO.N,/stack6/CI*%
X189800000Y-185630000D03*
%TO.N,/stack6/CLKI*%
X189820000Y-186590000D03*
%TO.N,/stack6/RO*%
X189800000Y-187540000D03*
%TO.N,/stack6/BI*%
X189800000Y-188500000D03*
%TO.N,/stack6/NRSTI*%
X189770000Y-189480000D03*
%TO.N,Net-(U45-NRSTI)*%
X146410000Y-173030000D03*
%TO.N,Net-(U45-RO)*%
X146640000Y-174770000D03*
%TO.N,Net-(U45-CLKI)*%
X146650000Y-175780000D03*
%TO.N,Net-(U45-CI)*%
X146650000Y-176790000D03*
X145680000Y-164810000D03*
%TO.N,Net-(U54-NRSTI)*%
X165260000Y-191320000D03*
%TO.N,Net-(U54-BI)*%
X165260000Y-190500000D03*
%TO.N,Net-(U54-RO)*%
X165260000Y-189720000D03*
%TO.N,Net-(U54-CLKI)*%
X165260000Y-188950000D03*
%TO.N,Net-(U54-CI)*%
X165260000Y-188190000D03*
%TO.N,/stack4/BI*%
X143550000Y-187730000D03*
%TO.N,/stack4/NRSTI*%
X143570000Y-189020000D03*
%TO.N,Net-(U63-NRSTI)*%
X186860000Y-161170000D03*
%TO.N,/stack5/NRSTI*%
X165190000Y-164710000D03*
%TO.N,Net-(U63-BI)*%
X186880000Y-160260000D03*
%TO.N,/stack5/BI*%
X165190000Y-163710000D03*
%TO.N,Net-(U63-RO)*%
X186860000Y-159400000D03*
%TO.N,/stack5/RO*%
X165190000Y-162700000D03*
%TO.N,Net-(U63-CLKI)*%
X186860000Y-158530000D03*
%TO.N,/stack5/CLKI*%
X165190000Y-161750000D03*
%TO.N,Net-(U63-CI)*%
X186880000Y-157670000D03*
%TO.N,/stack5/CI*%
X165190000Y-160720000D03*
%TO.N,Net-(U72-NRSTI)*%
X211500000Y-190000000D03*
X214940000Y-183060000D03*
%TO.N,Net-(U72-BI)*%
X213930000Y-183060000D03*
%TO.N,Net-(U72-RO)*%
X212920000Y-183060000D03*
%TO.N,Net-(U72-CLKI)*%
X211930000Y-183040000D03*
%TO.N,Net-(U72-CI)*%
X210910000Y-183040000D03*
%TO.N,/stack7/RST_N*%
X232640000Y-155860000D03*
X227400000Y-164230000D03*
X232600000Y-159300000D03*
%TO.N,/stack7/RO*%
X227400000Y-162850000D03*
%TO.N,/stack7/CLKI*%
X219680000Y-162210000D03*
%TO.N,/stack7/CI*%
X227430000Y-161570000D03*
%TO.N,/5V*%
X218010000Y-173960000D03*
X218010000Y-160100000D03*
X126570000Y-169880000D03*
X218010000Y-192610000D03*
X126570000Y-188380000D03*
X126570000Y-183670000D03*
X218010000Y-187650000D03*
D18*
X177880000Y-96600000D03*
D16*
X190338749Y-176083749D03*
X126570000Y-175090000D03*
X149830000Y-192140000D03*
X126570000Y-156720000D03*
X147310000Y-192140000D03*
X144680000Y-157700000D03*
X218010000Y-178850000D03*
D18*
X217320000Y-88220000D03*
D16*
X126570000Y-161220000D03*
X174860000Y-157460000D03*
X191670000Y-163360000D03*
X170610000Y-174190000D03*
X170690000Y-190600000D03*
X170910000Y-185720000D03*
D18*
X212550000Y-88250000D03*
D16*
X218010000Y-164990000D03*
X148720000Y-153100000D03*
%TO.N,/Data/PWR_EN*%
X203180000Y-98910000D03*
X127780000Y-87090000D03*
%TD*%
%TA.AperFunction,Conductor*%
%TO.N,GND*%
G36*
X239915927Y-78675014D02*
G01*
X239917316Y-78675034D01*
X240063164Y-78677236D01*
X240076206Y-78678123D01*
X240369443Y-78713729D01*
X240384143Y-78716423D01*
X240670024Y-78786886D01*
X240684317Y-78791340D01*
X240959604Y-78895743D01*
X240973254Y-78901887D01*
X241233957Y-79038715D01*
X241246771Y-79046461D01*
X241489067Y-79213706D01*
X241500855Y-79222940D01*
X241721238Y-79418182D01*
X241731822Y-79428766D01*
X241927059Y-79649145D01*
X241936293Y-79660932D01*
X242103538Y-79903228D01*
X242111284Y-79916042D01*
X242248112Y-80176745D01*
X242254258Y-80190400D01*
X242358658Y-80465681D01*
X242363113Y-80479977D01*
X242433573Y-80765842D01*
X242436271Y-80780569D01*
X242460346Y-80978839D01*
X242471874Y-81073775D01*
X242472764Y-81086851D01*
X242474986Y-81234072D01*
X242475000Y-81235943D01*
X242475000Y-110717561D01*
X242455315Y-110784600D01*
X242402511Y-110830355D01*
X242350746Y-110841561D01*
X212412193Y-110780188D01*
X212345194Y-110760366D01*
X212299547Y-110707468D01*
X212293628Y-110691657D01*
X211658481Y-108563977D01*
X211460273Y-107900000D01*
X224344750Y-107900000D01*
X224361555Y-108027648D01*
X224363670Y-108043708D01*
X224363671Y-108043712D01*
X224419137Y-108177622D01*
X224419138Y-108177624D01*
X224419139Y-108177625D01*
X224507379Y-108292621D01*
X224622375Y-108380861D01*
X224756291Y-108436330D01*
X224883280Y-108453048D01*
X224899999Y-108455250D01*
X224900000Y-108455250D01*
X224900001Y-108455250D01*
X224914977Y-108453278D01*
X225043709Y-108436330D01*
X225177625Y-108380861D01*
X225292621Y-108292621D01*
X225380861Y-108177625D01*
X225436330Y-108043709D01*
X225451531Y-107928245D01*
X225479798Y-107864350D01*
X225538122Y-107825879D01*
X225607987Y-107825048D01*
X225649956Y-107846056D01*
X225670164Y-107861562D01*
X225716282Y-107896951D01*
X225716283Y-107896951D01*
X225716284Y-107896952D01*
X225791836Y-107928246D01*
X225857708Y-107955531D01*
X225856693Y-107957979D01*
X225905172Y-107987519D01*
X225935710Y-108050362D01*
X225936369Y-108054755D01*
X225951721Y-108171356D01*
X225951722Y-108171360D01*
X226007188Y-108305270D01*
X226007189Y-108305272D01*
X226007190Y-108305273D01*
X226095430Y-108420269D01*
X226210426Y-108508509D01*
X226344342Y-108563978D01*
X226471331Y-108580696D01*
X226488050Y-108582898D01*
X226488051Y-108582898D01*
X226488052Y-108582898D01*
X226503028Y-108580926D01*
X226631760Y-108563978D01*
X226765676Y-108508509D01*
X226880672Y-108420269D01*
X226968912Y-108305273D01*
X227024381Y-108171357D01*
X227043301Y-108027648D01*
X227024381Y-107883939D01*
X226968912Y-107750023D01*
X226880672Y-107635027D01*
X226765676Y-107546787D01*
X226765675Y-107546786D01*
X226765673Y-107546785D01*
X226624252Y-107488208D01*
X226625264Y-107485762D01*
X226576774Y-107456206D01*
X226546245Y-107393359D01*
X226545595Y-107389026D01*
X226530239Y-107272382D01*
X226474770Y-107138466D01*
X226386530Y-107023470D01*
X226271534Y-106935230D01*
X226271533Y-106935229D01*
X226271531Y-106935228D01*
X226137621Y-106879762D01*
X226137619Y-106879761D01*
X226137618Y-106879761D01*
X226065763Y-106870301D01*
X225993910Y-106860841D01*
X225993908Y-106860841D01*
X225850200Y-106879761D01*
X225850196Y-106879762D01*
X225716286Y-106935228D01*
X225601288Y-107023470D01*
X225513046Y-107138468D01*
X225457580Y-107272378D01*
X225457579Y-107272382D01*
X225442377Y-107387845D01*
X225414110Y-107451741D01*
X225355785Y-107490211D01*
X225285920Y-107491042D01*
X225243951Y-107470033D01*
X225177626Y-107419139D01*
X225177623Y-107419138D01*
X225043712Y-107363671D01*
X225043710Y-107363670D01*
X225043709Y-107363670D01*
X224971854Y-107354210D01*
X224900001Y-107344750D01*
X224899999Y-107344750D01*
X224756291Y-107363670D01*
X224756287Y-107363671D01*
X224622377Y-107419137D01*
X224507379Y-107507379D01*
X224419137Y-107622377D01*
X224363671Y-107756287D01*
X224363670Y-107756291D01*
X224346865Y-107883939D01*
X224344750Y-107900000D01*
X211460273Y-107900000D01*
X211105038Y-106709999D01*
X216164750Y-106709999D01*
X216164750Y-106710000D01*
X216183670Y-106853708D01*
X216183671Y-106853712D01*
X216239137Y-106987622D01*
X216239138Y-106987624D01*
X216239139Y-106987625D01*
X216327379Y-107102621D01*
X216442375Y-107190861D01*
X216576291Y-107246330D01*
X216703280Y-107263048D01*
X216719999Y-107265250D01*
X216720000Y-107265250D01*
X216720001Y-107265250D01*
X216734977Y-107263278D01*
X216863709Y-107246330D01*
X216997625Y-107190861D01*
X217112621Y-107102621D01*
X217200861Y-106987625D01*
X217256330Y-106853709D01*
X217272617Y-106729999D01*
X220174750Y-106729999D01*
X220174750Y-106730000D01*
X220193670Y-106873708D01*
X220193671Y-106873712D01*
X220249137Y-107007622D01*
X220249138Y-107007624D01*
X220249139Y-107007625D01*
X220337379Y-107122621D01*
X220452375Y-107210861D01*
X220586291Y-107266330D01*
X220713280Y-107283048D01*
X220729999Y-107285250D01*
X220730000Y-107285250D01*
X220730001Y-107285250D01*
X220744977Y-107283278D01*
X220873709Y-107266330D01*
X221007625Y-107210861D01*
X221122621Y-107122621D01*
X221210861Y-107007625D01*
X221266330Y-106873709D01*
X221285250Y-106730000D01*
X221266330Y-106586291D01*
X221210861Y-106452375D01*
X221122621Y-106337379D01*
X221007625Y-106249139D01*
X221007624Y-106249138D01*
X221007622Y-106249137D01*
X220873712Y-106193671D01*
X220873710Y-106193670D01*
X220873709Y-106193670D01*
X220769877Y-106180000D01*
X220730001Y-106174750D01*
X220729999Y-106174750D01*
X220586291Y-106193670D01*
X220586287Y-106193671D01*
X220452377Y-106249137D01*
X220337379Y-106337379D01*
X220249137Y-106452377D01*
X220193671Y-106586287D01*
X220193670Y-106586291D01*
X220174750Y-106729999D01*
X217272617Y-106729999D01*
X217275250Y-106710000D01*
X217256330Y-106566291D01*
X217211320Y-106457625D01*
X217200862Y-106432377D01*
X217200861Y-106432376D01*
X217200861Y-106432375D01*
X217112621Y-106317379D01*
X216997625Y-106229139D01*
X216997624Y-106229138D01*
X216997622Y-106229137D01*
X216863712Y-106173671D01*
X216863710Y-106173670D01*
X216863709Y-106173670D01*
X216777058Y-106162262D01*
X216720001Y-106154750D01*
X216719999Y-106154750D01*
X216576291Y-106173670D01*
X216576287Y-106173671D01*
X216442377Y-106229137D01*
X216327379Y-106317379D01*
X216239137Y-106432377D01*
X216183671Y-106566287D01*
X216183670Y-106566291D01*
X216164750Y-106709999D01*
X211105038Y-106709999D01*
X211076151Y-106613231D01*
X211075838Y-106543365D01*
X211096593Y-106502283D01*
X211130861Y-106457625D01*
X211186330Y-106323709D01*
X211197579Y-106238264D01*
X211225844Y-106174371D01*
X211284168Y-106135899D01*
X211304325Y-106131514D01*
X211343709Y-106126330D01*
X211477625Y-106070861D01*
X211592621Y-105982621D01*
X211677390Y-105872149D01*
X236049500Y-105872149D01*
X236049500Y-106127850D01*
X236065469Y-106249137D01*
X236082874Y-106381340D01*
X236145009Y-106613231D01*
X236149050Y-106628312D01*
X236149053Y-106628322D01*
X236246894Y-106864531D01*
X236246899Y-106864542D01*
X236374734Y-107085957D01*
X236374745Y-107085973D01*
X236530388Y-107288811D01*
X236530394Y-107288818D01*
X236711181Y-107469605D01*
X236711188Y-107469611D01*
X236739477Y-107491318D01*
X236914035Y-107625261D01*
X236914042Y-107625265D01*
X237135457Y-107753100D01*
X237135462Y-107753102D01*
X237135465Y-107753104D01*
X237371687Y-107850950D01*
X237618660Y-107917126D01*
X237872157Y-107950500D01*
X237872164Y-107950500D01*
X238127836Y-107950500D01*
X238127843Y-107950500D01*
X238381340Y-107917126D01*
X238628313Y-107850950D01*
X238864535Y-107753104D01*
X239085965Y-107625261D01*
X239288813Y-107469610D01*
X239469610Y-107288813D01*
X239625261Y-107085965D01*
X239753104Y-106864535D01*
X239850950Y-106628313D01*
X239917126Y-106381340D01*
X239950500Y-106127843D01*
X239950500Y-105872157D01*
X239917126Y-105618660D01*
X239850950Y-105371687D01*
X239842418Y-105351090D01*
X239782010Y-105205250D01*
X239753104Y-105135465D01*
X239753102Y-105135462D01*
X239753100Y-105135457D01*
X239625265Y-104914042D01*
X239625261Y-104914035D01*
X239580452Y-104855638D01*
X239469611Y-104711188D01*
X239469605Y-104711181D01*
X239288818Y-104530394D01*
X239288811Y-104530388D01*
X239085973Y-104374745D01*
X239085971Y-104374743D01*
X239085965Y-104374739D01*
X239085960Y-104374736D01*
X239085957Y-104374734D01*
X238864542Y-104246899D01*
X238864531Y-104246894D01*
X238628322Y-104149053D01*
X238628315Y-104149051D01*
X238628313Y-104149050D01*
X238381340Y-104082874D01*
X238325007Y-104075457D01*
X238127850Y-104049500D01*
X238127843Y-104049500D01*
X237872157Y-104049500D01*
X237872149Y-104049500D01*
X237646826Y-104079165D01*
X237618660Y-104082874D01*
X237448299Y-104128522D01*
X237371687Y-104149050D01*
X237371677Y-104149053D01*
X237135468Y-104246894D01*
X237135457Y-104246899D01*
X236914042Y-104374734D01*
X236914026Y-104374745D01*
X236711188Y-104530388D01*
X236711181Y-104530394D01*
X236530394Y-104711181D01*
X236530388Y-104711188D01*
X236374745Y-104914026D01*
X236374734Y-104914042D01*
X236246899Y-105135457D01*
X236246894Y-105135468D01*
X236149053Y-105371677D01*
X236149050Y-105371687D01*
X236090554Y-105590000D01*
X236082874Y-105618661D01*
X236049500Y-105872149D01*
X211677390Y-105872149D01*
X211680861Y-105867625D01*
X211736330Y-105733709D01*
X211755250Y-105590000D01*
X211736330Y-105446291D01*
X211680861Y-105312375D01*
X211592621Y-105197379D01*
X211477625Y-105109139D01*
X211477624Y-105109138D01*
X211477622Y-105109137D01*
X211343712Y-105053671D01*
X211343710Y-105053670D01*
X211343709Y-105053670D01*
X211259785Y-105042621D01*
X211200001Y-105034750D01*
X211199999Y-105034750D01*
X211056291Y-105053670D01*
X211056287Y-105053671D01*
X210922376Y-105109138D01*
X210922374Y-105109139D01*
X210824989Y-105183866D01*
X210759820Y-105209060D01*
X210691375Y-105195022D01*
X210641386Y-105146208D01*
X210630684Y-105120959D01*
X210627156Y-105109139D01*
X210148322Y-103505095D01*
X210148009Y-103435231D01*
X210185519Y-103376284D01*
X210248943Y-103346974D01*
X210250959Y-103346692D01*
X210253709Y-103346330D01*
X210387625Y-103290861D01*
X210502621Y-103202621D01*
X210590861Y-103087625D01*
X210646330Y-102953709D01*
X210665250Y-102810000D01*
X210659326Y-102765000D01*
X214794750Y-102765000D01*
X214800674Y-102810000D01*
X214813670Y-102908708D01*
X214813671Y-102908712D01*
X214869137Y-103042622D01*
X214869138Y-103042624D01*
X214869139Y-103042625D01*
X214957379Y-103157621D01*
X215072375Y-103245861D01*
X215072376Y-103245861D01*
X215072377Y-103245862D01*
X215073507Y-103246330D01*
X215206291Y-103301330D01*
X215333280Y-103318048D01*
X215349999Y-103320250D01*
X215350000Y-103320250D01*
X215350001Y-103320250D01*
X215364977Y-103318278D01*
X215493709Y-103301330D01*
X215627625Y-103245861D01*
X215742621Y-103157621D01*
X215742624Y-103157616D01*
X215746667Y-103153574D01*
X215807989Y-103120086D01*
X215877681Y-103125067D01*
X215909840Y-103142876D01*
X215972373Y-103190860D01*
X215972374Y-103190860D01*
X215972375Y-103190861D01*
X216106291Y-103246330D01*
X216233280Y-103263048D01*
X216249999Y-103265250D01*
X216250000Y-103265250D01*
X216250001Y-103265250D01*
X216264977Y-103263278D01*
X216393709Y-103246330D01*
X216522517Y-103192976D01*
X216591982Y-103185508D01*
X216645453Y-103209163D01*
X216732373Y-103275860D01*
X216732374Y-103275860D01*
X216732375Y-103275861D01*
X216866291Y-103331330D01*
X216982975Y-103346692D01*
X217009999Y-103350250D01*
X217010000Y-103350250D01*
X217010001Y-103350250D01*
X217034883Y-103346974D01*
X217153709Y-103331330D01*
X217287625Y-103275861D01*
X217402621Y-103187621D01*
X217490861Y-103072625D01*
X217546330Y-102938709D01*
X217565250Y-102795000D01*
X217546330Y-102651291D01*
X217490861Y-102517375D01*
X217402621Y-102402379D01*
X217287625Y-102314139D01*
X217287624Y-102314138D01*
X217287622Y-102314137D01*
X217153712Y-102258671D01*
X217153710Y-102258670D01*
X217153709Y-102258670D01*
X217059683Y-102246291D01*
X217010001Y-102239750D01*
X217009999Y-102239750D01*
X216866291Y-102258670D01*
X216866287Y-102258671D01*
X216737485Y-102312022D01*
X216668016Y-102319491D01*
X216614548Y-102295838D01*
X216527625Y-102229139D01*
X216527624Y-102229138D01*
X216527622Y-102229137D01*
X216393712Y-102173671D01*
X216393710Y-102173670D01*
X216393709Y-102173670D01*
X216321854Y-102164210D01*
X216250001Y-102154750D01*
X216249999Y-102154750D01*
X216106291Y-102173670D01*
X216106287Y-102173671D01*
X215972377Y-102229137D01*
X215933888Y-102258671D01*
X215861602Y-102314139D01*
X215857369Y-102317387D01*
X215853318Y-102321438D01*
X215791992Y-102354917D01*
X215722301Y-102349925D01*
X215690162Y-102332125D01*
X215627625Y-102284139D01*
X215627624Y-102284138D01*
X215627622Y-102284137D01*
X215493712Y-102228671D01*
X215493710Y-102228670D01*
X215493709Y-102228670D01*
X215421854Y-102219210D01*
X215350001Y-102209750D01*
X215349999Y-102209750D01*
X215206291Y-102228670D01*
X215206287Y-102228671D01*
X215072377Y-102284137D01*
X214957379Y-102372379D01*
X214869137Y-102487377D01*
X214813671Y-102621287D01*
X214813670Y-102621291D01*
X214807746Y-102666291D01*
X214794750Y-102765000D01*
X210659326Y-102765000D01*
X210646330Y-102666291D01*
X210590861Y-102532375D01*
X210502621Y-102417379D01*
X210387625Y-102329139D01*
X210387624Y-102329138D01*
X210387622Y-102329137D01*
X210253712Y-102273671D01*
X210253710Y-102273670D01*
X210253709Y-102273670D01*
X210181854Y-102264210D01*
X210110001Y-102254750D01*
X210109999Y-102254750D01*
X209966291Y-102273670D01*
X209966287Y-102273671D01*
X209928102Y-102289487D01*
X209858632Y-102296954D01*
X209796154Y-102265678D01*
X209761834Y-102210395D01*
X209633179Y-101779414D01*
X209402538Y-101779307D01*
X202607715Y-101776172D01*
X202540684Y-101756456D01*
X202524626Y-101744165D01*
X201634986Y-100939999D01*
X204014750Y-100939999D01*
X204014750Y-100940000D01*
X204033670Y-101083708D01*
X204033671Y-101083712D01*
X204089137Y-101217622D01*
X204089138Y-101217624D01*
X204089139Y-101217625D01*
X204177379Y-101332621D01*
X204292375Y-101420861D01*
X204292376Y-101420861D01*
X204292377Y-101420862D01*
X204337013Y-101439350D01*
X204426291Y-101476330D01*
X204553280Y-101493048D01*
X204569999Y-101495250D01*
X204570000Y-101495250D01*
X204570001Y-101495250D01*
X204584977Y-101493278D01*
X204713709Y-101476330D01*
X204847625Y-101420861D01*
X204962621Y-101332621D01*
X205050861Y-101217625D01*
X205106330Y-101083709D01*
X205125250Y-100940000D01*
X205118667Y-100889999D01*
X206344750Y-100889999D01*
X206344750Y-100890000D01*
X206363670Y-101033708D01*
X206363671Y-101033712D01*
X206419137Y-101167622D01*
X206419138Y-101167624D01*
X206419139Y-101167625D01*
X206507379Y-101282621D01*
X206622375Y-101370861D01*
X206756291Y-101426330D01*
X206883280Y-101443048D01*
X206899999Y-101445250D01*
X206900000Y-101445250D01*
X206900001Y-101445250D01*
X206914977Y-101443278D01*
X207043709Y-101426330D01*
X207177625Y-101370861D01*
X207292621Y-101282621D01*
X207380861Y-101167625D01*
X207436330Y-101033709D01*
X207448667Y-100939999D01*
X209544750Y-100939999D01*
X209544750Y-100940000D01*
X209563670Y-101083708D01*
X209563671Y-101083712D01*
X209619137Y-101217622D01*
X209619138Y-101217624D01*
X209619139Y-101217625D01*
X209707379Y-101332621D01*
X209822375Y-101420861D01*
X209822376Y-101420861D01*
X209822377Y-101420862D01*
X209867013Y-101439350D01*
X209956291Y-101476330D01*
X210083280Y-101493048D01*
X210099999Y-101495250D01*
X210100000Y-101495250D01*
X210100001Y-101495250D01*
X210114977Y-101493278D01*
X210243709Y-101476330D01*
X210377625Y-101420861D01*
X210424361Y-101384999D01*
X219404750Y-101384999D01*
X219404750Y-101385000D01*
X219423670Y-101528708D01*
X219423671Y-101528712D01*
X219479137Y-101662622D01*
X219479138Y-101662624D01*
X219479139Y-101662625D01*
X219567379Y-101777621D01*
X219682375Y-101865861D01*
X219682376Y-101865861D01*
X219682377Y-101865862D01*
X219727013Y-101884350D01*
X219816291Y-101921330D01*
X219943280Y-101938048D01*
X219959999Y-101940250D01*
X219960000Y-101940250D01*
X219960001Y-101940250D01*
X219974977Y-101938278D01*
X220103709Y-101921330D01*
X220237625Y-101865861D01*
X220352621Y-101777621D01*
X220440861Y-101662625D01*
X220496330Y-101528709D01*
X220515250Y-101385000D01*
X220496330Y-101241291D01*
X220440861Y-101107375D01*
X220352621Y-100992379D01*
X220237625Y-100904139D01*
X220237624Y-100904138D01*
X220237622Y-100904137D01*
X220103712Y-100848671D01*
X220103710Y-100848670D01*
X220103709Y-100848670D01*
X220031854Y-100839210D01*
X219960001Y-100829750D01*
X219959999Y-100829750D01*
X219816291Y-100848670D01*
X219816287Y-100848671D01*
X219682377Y-100904137D01*
X219567379Y-100992379D01*
X219479137Y-101107377D01*
X219423671Y-101241287D01*
X219423670Y-101241291D01*
X219404750Y-101384999D01*
X210424361Y-101384999D01*
X210492621Y-101332621D01*
X210580861Y-101217625D01*
X210636330Y-101083709D01*
X210655250Y-100940000D01*
X210636330Y-100796291D01*
X210591367Y-100687738D01*
X210580862Y-100662377D01*
X210580861Y-100662376D01*
X210580861Y-100662375D01*
X210492621Y-100547379D01*
X210377625Y-100459139D01*
X210377624Y-100459138D01*
X210377622Y-100459137D01*
X210243712Y-100403671D01*
X210243710Y-100403670D01*
X210243709Y-100403670D01*
X210159785Y-100392621D01*
X210100001Y-100384750D01*
X210099999Y-100384750D01*
X209956291Y-100403670D01*
X209956287Y-100403671D01*
X209822377Y-100459137D01*
X209707379Y-100547379D01*
X209619137Y-100662377D01*
X209563671Y-100796287D01*
X209563670Y-100796291D01*
X209544750Y-100939999D01*
X207448667Y-100939999D01*
X207455250Y-100890000D01*
X207436330Y-100746291D01*
X207380861Y-100612375D01*
X207292621Y-100497379D01*
X207177625Y-100409139D01*
X207177624Y-100409138D01*
X207177622Y-100409137D01*
X207043712Y-100353671D01*
X207043710Y-100353670D01*
X207043709Y-100353670D01*
X206971854Y-100344210D01*
X206900001Y-100334750D01*
X206899999Y-100334750D01*
X206756291Y-100353670D01*
X206756287Y-100353671D01*
X206622377Y-100409137D01*
X206507379Y-100497379D01*
X206419137Y-100612377D01*
X206363671Y-100746287D01*
X206363670Y-100746291D01*
X206344750Y-100889999D01*
X205118667Y-100889999D01*
X205106330Y-100796291D01*
X205061367Y-100687738D01*
X205050862Y-100662377D01*
X205050861Y-100662376D01*
X205050861Y-100662375D01*
X204962621Y-100547379D01*
X204847625Y-100459139D01*
X204847624Y-100459138D01*
X204847622Y-100459137D01*
X204713712Y-100403671D01*
X204713710Y-100403670D01*
X204713709Y-100403670D01*
X204629785Y-100392621D01*
X204570001Y-100384750D01*
X204569999Y-100384750D01*
X204426291Y-100403670D01*
X204426287Y-100403671D01*
X204292377Y-100459137D01*
X204177379Y-100547379D01*
X204089137Y-100662377D01*
X204033671Y-100796287D01*
X204033670Y-100796291D01*
X204014750Y-100939999D01*
X201634986Y-100939999D01*
X200590000Y-99995413D01*
X200589999Y-99995412D01*
X161327356Y-99978063D01*
X161310000Y-99978056D01*
X161309999Y-99978056D01*
X159917249Y-101709974D01*
X159859897Y-101749881D01*
X159820561Y-101756267D01*
X114598943Y-101735560D01*
X114531913Y-101715845D01*
X114486182Y-101663020D01*
X114475000Y-101611560D01*
X114475000Y-99709999D01*
X145194750Y-99709999D01*
X145194750Y-99710000D01*
X145213670Y-99853708D01*
X145213671Y-99853712D01*
X145269137Y-99987622D01*
X145269138Y-99987624D01*
X145269139Y-99987625D01*
X145357379Y-100102621D01*
X145472375Y-100190861D01*
X145606291Y-100246330D01*
X145733280Y-100263048D01*
X145749999Y-100265250D01*
X145750000Y-100265250D01*
X145750001Y-100265250D01*
X145764977Y-100263278D01*
X145893709Y-100246330D01*
X146027625Y-100190861D01*
X146142621Y-100102621D01*
X146180390Y-100053400D01*
X154011350Y-100053400D01*
X154029447Y-100190861D01*
X154030270Y-100197108D01*
X154030271Y-100197112D01*
X154085737Y-100331022D01*
X154085738Y-100331024D01*
X154085739Y-100331025D01*
X154173979Y-100446021D01*
X154288975Y-100534261D01*
X154288976Y-100534261D01*
X154288977Y-100534262D01*
X154293970Y-100536330D01*
X154422891Y-100589730D01*
X154549880Y-100606448D01*
X154566599Y-100608650D01*
X154566600Y-100608650D01*
X154566601Y-100608650D01*
X154581577Y-100606678D01*
X154710309Y-100589730D01*
X154844225Y-100534261D01*
X154917609Y-100477950D01*
X154982778Y-100452756D01*
X155051223Y-100466794D01*
X155068574Y-100477945D01*
X155072375Y-100480861D01*
X155206291Y-100536330D01*
X155333280Y-100553048D01*
X155349999Y-100555250D01*
X155350000Y-100555250D01*
X155350001Y-100555250D01*
X155364977Y-100553278D01*
X155493709Y-100536330D01*
X155627625Y-100480861D01*
X155742621Y-100392621D01*
X155830861Y-100277625D01*
X155886330Y-100143709D01*
X155905250Y-100000000D01*
X155903591Y-99987402D01*
X155914355Y-99918369D01*
X155960734Y-99866112D01*
X156028002Y-99847225D01*
X156084156Y-99861420D01*
X156176121Y-99909687D01*
X156211375Y-99928190D01*
X156376544Y-99968900D01*
X156546656Y-99968900D01*
X156711825Y-99928190D01*
X156808621Y-99877387D01*
X156862449Y-99849136D01*
X156862450Y-99849134D01*
X156862452Y-99849134D01*
X156989783Y-99736329D01*
X157086418Y-99596330D01*
X157146740Y-99437272D01*
X157167245Y-99268400D01*
X157146740Y-99099528D01*
X157129364Y-99053712D01*
X157086417Y-98940468D01*
X157065385Y-98909999D01*
X202624750Y-98909999D01*
X202624750Y-98910000D01*
X202643670Y-99053708D01*
X202643671Y-99053712D01*
X202699137Y-99187622D01*
X202699138Y-99187624D01*
X202699139Y-99187625D01*
X202787379Y-99302621D01*
X202902375Y-99390861D01*
X202902376Y-99390861D01*
X202902377Y-99390862D01*
X202947013Y-99409350D01*
X203036291Y-99446330D01*
X203163280Y-99463048D01*
X203179999Y-99465250D01*
X203180000Y-99465250D01*
X203180001Y-99465250D01*
X203194977Y-99463278D01*
X203323709Y-99446330D01*
X203457625Y-99390861D01*
X203566932Y-99306986D01*
X203632099Y-99281792D01*
X203700544Y-99295830D01*
X203750534Y-99344643D01*
X203756978Y-99357910D01*
X203794137Y-99447622D01*
X203794138Y-99447624D01*
X203794139Y-99447625D01*
X203882379Y-99562621D01*
X203997375Y-99650861D01*
X203997376Y-99650861D01*
X203997377Y-99650862D01*
X204042013Y-99669350D01*
X204131291Y-99706330D01*
X204253163Y-99722375D01*
X204274999Y-99725250D01*
X204275000Y-99725250D01*
X204275001Y-99725250D01*
X204296837Y-99722375D01*
X204418709Y-99706330D01*
X204552625Y-99650861D01*
X204667621Y-99562621D01*
X204755861Y-99447625D01*
X204777027Y-99396526D01*
X209724750Y-99396526D01*
X209740892Y-99519138D01*
X209743670Y-99540234D01*
X209743671Y-99540238D01*
X209799137Y-99674148D01*
X209799138Y-99674150D01*
X209799139Y-99674151D01*
X209887379Y-99789147D01*
X210002375Y-99877387D01*
X210136291Y-99932856D01*
X210263280Y-99949574D01*
X210279999Y-99951776D01*
X210280000Y-99951776D01*
X210280001Y-99951776D01*
X210294977Y-99949804D01*
X210423709Y-99932856D01*
X210557625Y-99877387D01*
X210672621Y-99789147D01*
X210760861Y-99674151D01*
X210816330Y-99540235D01*
X210835250Y-99396526D01*
X210816330Y-99252817D01*
X210760861Y-99118901D01*
X210672621Y-99003905D01*
X210557625Y-98915665D01*
X210557624Y-98915664D01*
X210557622Y-98915663D01*
X210423712Y-98860197D01*
X210423710Y-98860196D01*
X210423709Y-98860196D01*
X210351854Y-98850736D01*
X210280001Y-98841276D01*
X210279999Y-98841276D01*
X210136291Y-98860196D01*
X210136287Y-98860197D01*
X210002377Y-98915663D01*
X209887379Y-99003905D01*
X209799137Y-99118903D01*
X209743671Y-99252813D01*
X209743670Y-99252817D01*
X209724750Y-99396526D01*
X204777027Y-99396526D01*
X204811330Y-99313709D01*
X204830250Y-99170000D01*
X204811330Y-99026291D01*
X204765507Y-98915663D01*
X204755862Y-98892377D01*
X204755861Y-98892376D01*
X204755861Y-98892375D01*
X204667621Y-98777379D01*
X204552625Y-98689139D01*
X204552624Y-98689138D01*
X204552622Y-98689137D01*
X204418712Y-98633671D01*
X204418710Y-98633670D01*
X204418709Y-98633670D01*
X204346854Y-98624210D01*
X204275001Y-98614750D01*
X204274999Y-98614750D01*
X204131291Y-98633670D01*
X204131287Y-98633671D01*
X203997376Y-98689138D01*
X203997374Y-98689139D01*
X203888068Y-98773013D01*
X203822899Y-98798207D01*
X203754454Y-98784169D01*
X203704465Y-98735355D01*
X203698028Y-98722105D01*
X203660861Y-98632375D01*
X203572621Y-98517379D01*
X203457625Y-98429139D01*
X203457624Y-98429138D01*
X203457622Y-98429137D01*
X203323712Y-98373671D01*
X203323710Y-98373670D01*
X203323709Y-98373670D01*
X203239785Y-98362621D01*
X203180001Y-98354750D01*
X203179999Y-98354750D01*
X203036291Y-98373670D01*
X203036287Y-98373671D01*
X202902377Y-98429137D01*
X202787379Y-98517379D01*
X202699137Y-98632377D01*
X202643671Y-98766287D01*
X202643670Y-98766291D01*
X202624750Y-98909999D01*
X157065385Y-98909999D01*
X157031008Y-98860196D01*
X156989783Y-98800471D01*
X156864114Y-98689138D01*
X156862449Y-98687663D01*
X156711826Y-98608610D01*
X156546656Y-98567900D01*
X156376544Y-98567900D01*
X156211373Y-98608610D01*
X156060750Y-98687663D01*
X155933416Y-98800472D01*
X155836782Y-98940468D01*
X155776460Y-99099525D01*
X155776459Y-99099530D01*
X155757847Y-99252817D01*
X155755955Y-99268400D01*
X155761457Y-99313709D01*
X155769219Y-99377637D01*
X155757759Y-99446561D01*
X155710855Y-99498347D01*
X155643399Y-99516554D01*
X155598672Y-99507146D01*
X155543856Y-99484441D01*
X155493709Y-99463670D01*
X155421854Y-99454210D01*
X155350001Y-99444750D01*
X155349999Y-99444750D01*
X155206291Y-99463670D01*
X155206287Y-99463671D01*
X155072376Y-99519138D01*
X155072374Y-99519139D01*
X154998990Y-99575449D01*
X154933821Y-99600643D01*
X154865376Y-99586605D01*
X154848019Y-99575450D01*
X154846858Y-99574559D01*
X154844225Y-99572539D01*
X154844223Y-99572538D01*
X154844225Y-99572538D01*
X154710312Y-99517071D01*
X154710310Y-99517070D01*
X154710309Y-99517070D01*
X154634930Y-99507146D01*
X154566601Y-99498150D01*
X154566599Y-99498150D01*
X154422891Y-99517070D01*
X154422887Y-99517071D01*
X154288977Y-99572537D01*
X154173979Y-99660779D01*
X154085737Y-99775777D01*
X154030271Y-99909687D01*
X154030270Y-99909691D01*
X154020039Y-99987405D01*
X154011350Y-100053400D01*
X146180390Y-100053400D01*
X146230861Y-99987625D01*
X146286330Y-99853709D01*
X146305250Y-99710000D01*
X146286330Y-99566291D01*
X146237178Y-99447625D01*
X146230862Y-99432377D01*
X146230861Y-99432376D01*
X146230861Y-99432375D01*
X146142621Y-99317379D01*
X146027625Y-99229139D01*
X146027624Y-99229138D01*
X146027622Y-99229137D01*
X145893712Y-99173671D01*
X145893710Y-99173670D01*
X145893709Y-99173670D01*
X145821854Y-99164210D01*
X145750001Y-99154750D01*
X145749999Y-99154750D01*
X145606291Y-99173670D01*
X145606287Y-99173671D01*
X145472377Y-99229137D01*
X145357379Y-99317379D01*
X145269137Y-99432377D01*
X145213671Y-99566287D01*
X145213670Y-99566291D01*
X145194750Y-99709999D01*
X114475000Y-99709999D01*
X114475000Y-97770000D01*
X128444750Y-97770000D01*
X128452160Y-97826287D01*
X128463670Y-97913708D01*
X128463671Y-97913712D01*
X128519137Y-98047622D01*
X128519138Y-98047624D01*
X128519139Y-98047625D01*
X128607379Y-98162621D01*
X128722375Y-98250861D01*
X128856291Y-98306330D01*
X128983280Y-98323048D01*
X128999999Y-98325250D01*
X129000000Y-98325250D01*
X129000001Y-98325250D01*
X129014977Y-98323278D01*
X129143709Y-98306330D01*
X129277625Y-98250861D01*
X129392621Y-98162621D01*
X129409979Y-98140000D01*
X131384750Y-98140000D01*
X131399345Y-98250861D01*
X131403670Y-98283708D01*
X131403671Y-98283712D01*
X131459137Y-98417622D01*
X131459138Y-98417624D01*
X131459139Y-98417625D01*
X131547379Y-98532621D01*
X131662375Y-98620861D01*
X131662376Y-98620861D01*
X131662377Y-98620862D01*
X131707013Y-98639350D01*
X131796291Y-98676330D01*
X131923280Y-98693048D01*
X131939999Y-98695250D01*
X131940000Y-98695250D01*
X131940001Y-98695250D01*
X131954977Y-98693278D01*
X132083709Y-98676330D01*
X132217625Y-98620861D01*
X132332621Y-98532621D01*
X132420861Y-98417625D01*
X132476330Y-98283709D01*
X132495250Y-98140000D01*
X132495080Y-98138712D01*
X132491789Y-98113709D01*
X132476330Y-97996291D01*
X132420963Y-97862621D01*
X132420862Y-97862377D01*
X132420861Y-97862376D01*
X132420861Y-97862375D01*
X132332621Y-97747379D01*
X132217625Y-97659139D01*
X132217624Y-97659138D01*
X132217622Y-97659137D01*
X132083712Y-97603671D01*
X132083710Y-97603670D01*
X132083709Y-97603670D01*
X132011854Y-97594210D01*
X131940001Y-97584750D01*
X131939999Y-97584750D01*
X131796291Y-97603670D01*
X131796287Y-97603671D01*
X131662377Y-97659137D01*
X131547379Y-97747379D01*
X131459137Y-97862377D01*
X131403671Y-97996287D01*
X131403670Y-97996291D01*
X131384920Y-98138712D01*
X131384750Y-98140000D01*
X129409979Y-98140000D01*
X129480861Y-98047625D01*
X129536330Y-97913709D01*
X129555250Y-97770000D01*
X129536330Y-97626291D01*
X129480861Y-97492375D01*
X129463692Y-97470000D01*
X134154750Y-97470000D01*
X134173584Y-97613059D01*
X134173670Y-97613708D01*
X134173671Y-97613712D01*
X134229137Y-97747622D01*
X134229138Y-97747624D01*
X134229139Y-97747625D01*
X134317379Y-97862621D01*
X134432375Y-97950861D01*
X134566291Y-98006330D01*
X134693280Y-98023048D01*
X134709999Y-98025250D01*
X134710000Y-98025250D01*
X134710001Y-98025250D01*
X134724977Y-98023278D01*
X134853709Y-98006330D01*
X134987625Y-97950861D01*
X135102621Y-97862621D01*
X135173692Y-97770000D01*
X209874750Y-97770000D01*
X209882160Y-97826287D01*
X209893670Y-97913708D01*
X209893671Y-97913712D01*
X209949137Y-98047622D01*
X209949138Y-98047624D01*
X209949139Y-98047625D01*
X210037379Y-98162621D01*
X210152375Y-98250861D01*
X210286291Y-98306330D01*
X210413280Y-98323048D01*
X210429999Y-98325250D01*
X210430000Y-98325250D01*
X210430001Y-98325250D01*
X210444977Y-98323278D01*
X210573709Y-98306330D01*
X210707625Y-98250861D01*
X210822621Y-98162621D01*
X210910861Y-98047625D01*
X210943014Y-97969999D01*
X212374750Y-97969999D01*
X212374750Y-97970000D01*
X212393670Y-98113708D01*
X212393671Y-98113712D01*
X212449137Y-98247622D01*
X212449138Y-98247623D01*
X212449139Y-98247625D01*
X212537379Y-98362621D01*
X212652375Y-98450861D01*
X212786291Y-98506330D01*
X212913280Y-98523048D01*
X212929999Y-98525250D01*
X212930000Y-98525250D01*
X212930001Y-98525250D01*
X212944977Y-98523278D01*
X213073709Y-98506330D01*
X213207625Y-98450861D01*
X213274516Y-98399533D01*
X213339681Y-98374340D01*
X213408126Y-98388378D01*
X213425475Y-98399527D01*
X213492375Y-98450861D01*
X213626291Y-98506330D01*
X213753280Y-98523048D01*
X213769999Y-98525250D01*
X213770000Y-98525250D01*
X213770001Y-98525250D01*
X213784977Y-98523278D01*
X213913709Y-98506330D01*
X214047625Y-98450861D01*
X214162621Y-98362621D01*
X214250861Y-98247625D01*
X214260261Y-98224930D01*
X214304099Y-98170528D01*
X214370393Y-98148461D01*
X214438093Y-98165739D01*
X214485705Y-98216875D01*
X214489383Y-98224930D01*
X214509137Y-98272621D01*
X214509139Y-98272625D01*
X214597379Y-98387621D01*
X214712375Y-98475861D01*
X214846291Y-98531330D01*
X214973280Y-98548048D01*
X214989999Y-98550250D01*
X214990000Y-98550250D01*
X214990001Y-98550250D01*
X215004977Y-98548278D01*
X215133709Y-98531330D01*
X215267625Y-98475861D01*
X215382621Y-98387621D01*
X215470861Y-98272625D01*
X215526330Y-98138709D01*
X215545250Y-97995000D01*
X216374750Y-97995000D01*
X216390378Y-98113708D01*
X216393670Y-98138708D01*
X216393671Y-98138712D01*
X216449137Y-98272622D01*
X216449138Y-98272624D01*
X216449139Y-98272625D01*
X216537379Y-98387621D01*
X216652375Y-98475861D01*
X216786291Y-98531330D01*
X216913280Y-98548048D01*
X216929999Y-98550250D01*
X216930000Y-98550250D01*
X216930001Y-98550250D01*
X216944977Y-98548278D01*
X217073709Y-98531330D01*
X217207625Y-98475861D01*
X217322621Y-98387621D01*
X217410861Y-98272625D01*
X217466330Y-98138709D01*
X217485250Y-97995000D01*
X217466330Y-97851291D01*
X217438871Y-97784999D01*
X219314750Y-97784999D01*
X219314750Y-97785000D01*
X219333670Y-97928708D01*
X219333671Y-97928712D01*
X219389137Y-98062622D01*
X219389138Y-98062624D01*
X219389139Y-98062625D01*
X219477379Y-98177621D01*
X219592375Y-98265861D01*
X219592376Y-98265861D01*
X219592377Y-98265862D01*
X219608705Y-98272625D01*
X219726291Y-98321330D01*
X219853280Y-98338048D01*
X219869999Y-98340250D01*
X219870000Y-98340250D01*
X219870001Y-98340250D01*
X219884977Y-98338278D01*
X220013709Y-98321330D01*
X220147625Y-98265861D01*
X220262621Y-98177621D01*
X220350861Y-98062625D01*
X220406330Y-97928709D01*
X220425250Y-97785000D01*
X220406330Y-97641291D01*
X220350861Y-97507375D01*
X220262621Y-97392379D01*
X220147625Y-97304139D01*
X220147624Y-97304138D01*
X220147622Y-97304137D01*
X220013712Y-97248671D01*
X220013710Y-97248670D01*
X220013709Y-97248670D01*
X219941854Y-97239210D01*
X219870001Y-97229750D01*
X219869999Y-97229750D01*
X219726291Y-97248670D01*
X219726287Y-97248671D01*
X219592377Y-97304137D01*
X219477379Y-97392379D01*
X219389137Y-97507377D01*
X219333671Y-97641287D01*
X219333670Y-97641291D01*
X219314750Y-97784999D01*
X217438871Y-97784999D01*
X217410861Y-97717375D01*
X217322621Y-97602379D01*
X217207625Y-97514139D01*
X217207624Y-97514138D01*
X217207622Y-97514137D01*
X217073712Y-97458671D01*
X217073710Y-97458670D01*
X217073709Y-97458670D01*
X217001854Y-97449210D01*
X216930001Y-97439750D01*
X216929999Y-97439750D01*
X216786291Y-97458670D01*
X216786287Y-97458671D01*
X216652377Y-97514137D01*
X216537379Y-97602379D01*
X216449137Y-97717377D01*
X216393671Y-97851287D01*
X216393670Y-97851291D01*
X216378042Y-97969999D01*
X216374750Y-97995000D01*
X215545250Y-97995000D01*
X215526330Y-97851291D01*
X215470861Y-97717375D01*
X215382621Y-97602379D01*
X215267625Y-97514139D01*
X215267624Y-97514138D01*
X215267622Y-97514137D01*
X215133712Y-97458671D01*
X215133710Y-97458670D01*
X215133709Y-97458670D01*
X215061854Y-97449210D01*
X214990001Y-97439750D01*
X214989999Y-97439750D01*
X214846291Y-97458670D01*
X214846287Y-97458671D01*
X214712377Y-97514137D01*
X214597379Y-97602379D01*
X214509136Y-97717378D01*
X214499737Y-97740071D01*
X214455896Y-97794474D01*
X214389601Y-97816538D01*
X214321902Y-97799258D01*
X214274292Y-97748120D01*
X214270623Y-97740086D01*
X214250861Y-97692375D01*
X214162621Y-97577379D01*
X214047625Y-97489139D01*
X214047624Y-97489138D01*
X214047622Y-97489137D01*
X213913712Y-97433671D01*
X213913710Y-97433670D01*
X213913709Y-97433670D01*
X213841854Y-97424210D01*
X213770001Y-97414750D01*
X213769999Y-97414750D01*
X213626291Y-97433670D01*
X213626287Y-97433671D01*
X213492377Y-97489137D01*
X213468607Y-97507377D01*
X213425484Y-97540465D01*
X213360318Y-97565659D01*
X213291873Y-97551621D01*
X213274519Y-97540468D01*
X213207625Y-97489139D01*
X213207624Y-97489138D01*
X213207622Y-97489137D01*
X213073712Y-97433671D01*
X213073710Y-97433670D01*
X213073709Y-97433670D01*
X213001854Y-97424210D01*
X212930001Y-97414750D01*
X212929999Y-97414750D01*
X212786291Y-97433670D01*
X212786287Y-97433671D01*
X212652377Y-97489137D01*
X212537379Y-97577379D01*
X212449137Y-97692377D01*
X212393671Y-97826287D01*
X212393670Y-97826291D01*
X212374750Y-97969999D01*
X210943014Y-97969999D01*
X210966330Y-97913709D01*
X210985250Y-97770000D01*
X210966330Y-97626291D01*
X210910861Y-97492375D01*
X210822621Y-97377379D01*
X210822619Y-97377377D01*
X210819663Y-97373525D01*
X210794469Y-97308356D01*
X210808507Y-97239911D01*
X210857321Y-97189921D01*
X210870586Y-97183477D01*
X210890653Y-97175166D01*
X211005649Y-97086926D01*
X211093889Y-96971930D01*
X211149358Y-96838014D01*
X211168278Y-96694305D01*
X211149358Y-96550596D01*
X211093889Y-96416680D01*
X211005649Y-96301684D01*
X210890653Y-96213444D01*
X210890652Y-96213443D01*
X210890650Y-96213442D01*
X210756740Y-96157976D01*
X210756738Y-96157975D01*
X210756737Y-96157975D01*
X210684882Y-96148515D01*
X210613029Y-96139055D01*
X210613027Y-96139055D01*
X210469319Y-96157975D01*
X210469315Y-96157976D01*
X210335405Y-96213442D01*
X210220407Y-96301684D01*
X210132165Y-96416682D01*
X210076699Y-96550592D01*
X210076698Y-96550596D01*
X210057778Y-96694304D01*
X210057778Y-96694305D01*
X210076698Y-96838013D01*
X210076699Y-96838017D01*
X210132165Y-96971927D01*
X210132166Y-96971929D01*
X210132167Y-96971930D01*
X210220406Y-97086925D01*
X210223364Y-97090779D01*
X210248558Y-97155949D01*
X210234520Y-97224393D01*
X210185706Y-97274383D01*
X210172442Y-97280826D01*
X210152378Y-97289136D01*
X210037379Y-97377379D01*
X209949137Y-97492377D01*
X209893671Y-97626287D01*
X209893670Y-97626291D01*
X209877631Y-97748120D01*
X209874750Y-97770000D01*
X135173692Y-97770000D01*
X135190861Y-97747625D01*
X135246330Y-97613709D01*
X135265250Y-97470000D01*
X135263758Y-97458671D01*
X135257976Y-97414750D01*
X135246330Y-97326291D01*
X135190861Y-97192375D01*
X135102621Y-97077379D01*
X134987625Y-96989139D01*
X134987624Y-96989138D01*
X134987622Y-96989137D01*
X134853712Y-96933671D01*
X134853710Y-96933670D01*
X134853709Y-96933670D01*
X134781854Y-96924210D01*
X134710001Y-96914750D01*
X134709999Y-96914750D01*
X134566291Y-96933670D01*
X134566287Y-96933671D01*
X134432377Y-96989137D01*
X134317379Y-97077379D01*
X134229137Y-97192377D01*
X134173671Y-97326287D01*
X134173670Y-97326291D01*
X134156242Y-97458671D01*
X134154750Y-97470000D01*
X129463692Y-97470000D01*
X129392621Y-97377379D01*
X129277625Y-97289139D01*
X129277624Y-97289138D01*
X129277622Y-97289137D01*
X129143712Y-97233671D01*
X129143710Y-97233670D01*
X129143709Y-97233670D01*
X129071854Y-97224210D01*
X129000001Y-97214750D01*
X128999999Y-97214750D01*
X128856291Y-97233670D01*
X128856287Y-97233671D01*
X128722377Y-97289137D01*
X128607379Y-97377379D01*
X128519137Y-97492377D01*
X128463671Y-97626287D01*
X128463670Y-97626291D01*
X128447631Y-97748120D01*
X128444750Y-97770000D01*
X114475000Y-97770000D01*
X114475000Y-96750000D01*
X131404750Y-96750000D01*
X131422353Y-96883709D01*
X131423670Y-96893708D01*
X131423671Y-96893712D01*
X131479137Y-97027622D01*
X131479138Y-97027624D01*
X131479139Y-97027625D01*
X131567379Y-97142621D01*
X131682375Y-97230861D01*
X131682376Y-97230861D01*
X131682377Y-97230862D01*
X131689159Y-97233671D01*
X131816291Y-97286330D01*
X131943280Y-97303048D01*
X131959999Y-97305250D01*
X131960000Y-97305250D01*
X131960001Y-97305250D01*
X131974977Y-97303278D01*
X132103709Y-97286330D01*
X132237625Y-97230861D01*
X132293005Y-97188365D01*
X132358171Y-97163172D01*
X132426616Y-97177210D01*
X132443970Y-97188361D01*
X132486324Y-97220861D01*
X132486325Y-97220861D01*
X132486326Y-97220862D01*
X132530962Y-97239350D01*
X132620240Y-97276330D01*
X132747229Y-97293048D01*
X132763948Y-97295250D01*
X132763949Y-97295250D01*
X132763950Y-97295250D01*
X132778926Y-97293278D01*
X132907658Y-97276330D01*
X133041574Y-97220861D01*
X133156570Y-97132621D01*
X133244810Y-97017625D01*
X133300279Y-96883709D01*
X133319199Y-96740000D01*
X133300767Y-96599996D01*
X177074435Y-96599996D01*
X177074435Y-96600003D01*
X177094630Y-96779249D01*
X177094631Y-96779254D01*
X177154211Y-96949523D01*
X177203286Y-97027625D01*
X177250184Y-97102262D01*
X177377738Y-97229816D01*
X177448666Y-97274383D01*
X177502733Y-97308356D01*
X177530478Y-97325789D01*
X177531913Y-97326291D01*
X177700745Y-97385368D01*
X177700750Y-97385369D01*
X177879996Y-97405565D01*
X177880000Y-97405565D01*
X177880004Y-97405565D01*
X178059249Y-97385369D01*
X178059252Y-97385368D01*
X178059255Y-97385368D01*
X178229522Y-97325789D01*
X178382262Y-97229816D01*
X178509816Y-97102262D01*
X178605789Y-96949522D01*
X178665368Y-96779255D01*
X178665369Y-96779249D01*
X178685565Y-96600003D01*
X178685565Y-96599996D01*
X178665369Y-96420750D01*
X178665368Y-96420745D01*
X178655075Y-96391329D01*
X178605789Y-96250478D01*
X178509816Y-96097738D01*
X178382262Y-95970184D01*
X178229523Y-95874211D01*
X178174619Y-95854999D01*
X217444750Y-95854999D01*
X217444750Y-95855000D01*
X217463670Y-95998708D01*
X217463671Y-95998712D01*
X217519137Y-96132622D01*
X217519138Y-96132624D01*
X217519139Y-96132625D01*
X217607379Y-96247621D01*
X217722375Y-96335861D01*
X217856291Y-96391330D01*
X217983280Y-96408048D01*
X217999999Y-96410250D01*
X218000000Y-96410250D01*
X218000001Y-96410250D01*
X218014977Y-96408278D01*
X218143709Y-96391330D01*
X218277625Y-96335861D01*
X218392621Y-96247621D01*
X218480861Y-96132625D01*
X218536330Y-95998709D01*
X218555250Y-95855000D01*
X218536330Y-95711291D01*
X218480861Y-95577375D01*
X218392621Y-95462379D01*
X218277625Y-95374139D01*
X218277624Y-95374138D01*
X218277622Y-95374137D01*
X218143712Y-95318671D01*
X218143710Y-95318670D01*
X218143709Y-95318670D01*
X218071854Y-95309210D01*
X218000001Y-95299750D01*
X217999999Y-95299750D01*
X217856291Y-95318670D01*
X217856287Y-95318671D01*
X217722377Y-95374137D01*
X217607379Y-95462379D01*
X217519137Y-95577377D01*
X217463671Y-95711287D01*
X217463670Y-95711291D01*
X217444750Y-95854999D01*
X178174619Y-95854999D01*
X178059254Y-95814631D01*
X178059249Y-95814630D01*
X177880004Y-95794435D01*
X177879996Y-95794435D01*
X177700750Y-95814630D01*
X177700745Y-95814631D01*
X177530476Y-95874211D01*
X177377737Y-95970184D01*
X177250184Y-96097737D01*
X177154211Y-96250476D01*
X177094631Y-96420745D01*
X177094630Y-96420750D01*
X177074435Y-96599996D01*
X133300767Y-96599996D01*
X133300279Y-96596291D01*
X133244810Y-96462375D01*
X133156570Y-96347379D01*
X133041574Y-96259139D01*
X133041573Y-96259138D01*
X133041571Y-96259137D01*
X132907661Y-96203671D01*
X132907659Y-96203670D01*
X132907658Y-96203670D01*
X132835803Y-96194210D01*
X132763950Y-96184750D01*
X132763948Y-96184750D01*
X132620240Y-96203670D01*
X132620236Y-96203671D01*
X132486325Y-96259138D01*
X132486323Y-96259139D01*
X132430944Y-96301633D01*
X132365775Y-96326827D01*
X132297330Y-96312788D01*
X132279972Y-96301633D01*
X132237625Y-96269139D01*
X132237623Y-96269138D01*
X132103712Y-96213671D01*
X132103710Y-96213670D01*
X132103709Y-96213670D01*
X132031854Y-96204210D01*
X131960001Y-96194750D01*
X131959999Y-96194750D01*
X131816291Y-96213670D01*
X131816287Y-96213671D01*
X131682377Y-96269137D01*
X131567379Y-96357379D01*
X131479137Y-96472377D01*
X131423671Y-96606287D01*
X131423670Y-96606291D01*
X131406067Y-96740000D01*
X131404750Y-96750000D01*
X114475000Y-96750000D01*
X114475000Y-94531049D01*
X139278701Y-94531049D01*
X139296994Y-94669999D01*
X139297621Y-94674757D01*
X139297622Y-94674761D01*
X139353088Y-94808671D01*
X139353089Y-94808673D01*
X139353090Y-94808674D01*
X139441330Y-94923670D01*
X139556326Y-95011910D01*
X139690242Y-95067379D01*
X139817231Y-95084097D01*
X139833950Y-95086299D01*
X139833951Y-95086299D01*
X139833952Y-95086299D01*
X139848928Y-95084327D01*
X139977660Y-95067379D01*
X140111576Y-95011910D01*
X140226572Y-94923670D01*
X140314812Y-94808674D01*
X140370281Y-94674758D01*
X140370907Y-94670000D01*
X149764750Y-94670000D01*
X149779118Y-94779137D01*
X149783670Y-94813708D01*
X149783671Y-94813712D01*
X149839137Y-94947622D01*
X149839138Y-94947624D01*
X149839139Y-94947625D01*
X149927379Y-95062621D01*
X150042375Y-95150861D01*
X150176291Y-95206330D01*
X150303280Y-95223048D01*
X150319999Y-95225250D01*
X150320000Y-95225250D01*
X150320001Y-95225250D01*
X150334977Y-95223278D01*
X150463709Y-95206330D01*
X150597625Y-95150861D01*
X150662547Y-95101044D01*
X150727714Y-95075851D01*
X150796159Y-95089889D01*
X150813519Y-95101045D01*
X150852375Y-95130861D01*
X150986291Y-95186330D01*
X151113280Y-95203048D01*
X151129999Y-95205250D01*
X151130000Y-95205250D01*
X151130001Y-95205250D01*
X151144977Y-95203278D01*
X151273709Y-95186330D01*
X151407625Y-95130861D01*
X151522621Y-95042621D01*
X151610861Y-94927625D01*
X151666330Y-94793709D01*
X151681300Y-94680000D01*
X153684355Y-94680000D01*
X153704859Y-94848869D01*
X153704860Y-94848874D01*
X153765182Y-95007931D01*
X153821755Y-95089889D01*
X153861817Y-95147929D01*
X153948813Y-95225000D01*
X153989150Y-95260736D01*
X154139773Y-95339789D01*
X154139775Y-95339790D01*
X154304944Y-95380500D01*
X154475056Y-95380500D01*
X154640225Y-95339790D01*
X154755055Y-95279522D01*
X154790849Y-95260736D01*
X154790850Y-95260734D01*
X154790852Y-95260734D01*
X154791681Y-95260000D01*
X203954750Y-95260000D01*
X203970614Y-95380500D01*
X203973670Y-95403708D01*
X203973671Y-95403712D01*
X204029137Y-95537622D01*
X204029138Y-95537624D01*
X204029139Y-95537625D01*
X204117379Y-95652621D01*
X204232375Y-95740861D01*
X204366291Y-95796330D01*
X204493280Y-95813048D01*
X204509999Y-95815250D01*
X204510000Y-95815250D01*
X204510001Y-95815250D01*
X204524977Y-95813278D01*
X204653709Y-95796330D01*
X204787625Y-95740861D01*
X204864615Y-95681783D01*
X204929784Y-95656589D01*
X204998229Y-95670627D01*
X205015582Y-95681778D01*
X205071264Y-95724505D01*
X205071265Y-95724505D01*
X205071266Y-95724506D01*
X205110749Y-95740860D01*
X205205180Y-95779974D01*
X205329399Y-95796328D01*
X205348888Y-95798894D01*
X205348889Y-95798894D01*
X205348890Y-95798894D01*
X205368364Y-95796330D01*
X205492598Y-95779974D01*
X205626514Y-95724505D01*
X205741510Y-95636265D01*
X205741513Y-95636260D01*
X205747177Y-95630597D01*
X205808499Y-95597109D01*
X205878190Y-95602090D01*
X205910344Y-95619896D01*
X206022375Y-95705861D01*
X206156291Y-95761330D01*
X206283280Y-95778048D01*
X206299999Y-95780250D01*
X206300000Y-95780250D01*
X206300001Y-95780250D01*
X206314977Y-95778278D01*
X206443709Y-95761330D01*
X206577625Y-95705861D01*
X206692621Y-95617621D01*
X206780861Y-95502625D01*
X206836330Y-95368709D01*
X206855250Y-95225000D01*
X206836330Y-95081291D01*
X206786090Y-94960000D01*
X215084750Y-94960000D01*
X215098260Y-95062620D01*
X215103670Y-95103708D01*
X215103671Y-95103712D01*
X215159137Y-95237622D01*
X215159138Y-95237624D01*
X215159139Y-95237625D01*
X215247379Y-95352621D01*
X215362375Y-95440861D01*
X215496291Y-95496330D01*
X215623280Y-95513048D01*
X215639999Y-95515250D01*
X215640000Y-95515250D01*
X215640001Y-95515250D01*
X215654977Y-95513278D01*
X215783709Y-95496330D01*
X215917625Y-95440861D01*
X216032621Y-95352621D01*
X216120861Y-95237625D01*
X216176330Y-95103709D01*
X216195250Y-94960000D01*
X216176330Y-94816291D01*
X216123469Y-94688671D01*
X216120862Y-94682377D01*
X216120861Y-94682376D01*
X216120861Y-94682375D01*
X216032621Y-94567379D01*
X215917625Y-94479139D01*
X215917624Y-94479138D01*
X215917622Y-94479137D01*
X215783712Y-94423671D01*
X215783710Y-94423670D01*
X215783709Y-94423670D01*
X215711854Y-94414210D01*
X215640001Y-94404750D01*
X215639999Y-94404750D01*
X215496291Y-94423670D01*
X215496287Y-94423671D01*
X215362377Y-94479137D01*
X215247379Y-94567379D01*
X215159137Y-94682377D01*
X215103671Y-94816287D01*
X215103670Y-94816291D01*
X215093419Y-94894157D01*
X215084750Y-94960000D01*
X206786090Y-94960000D01*
X206780861Y-94947375D01*
X206692621Y-94832379D01*
X206577625Y-94744139D01*
X206577624Y-94744138D01*
X206577622Y-94744137D01*
X206443712Y-94688671D01*
X206443710Y-94688670D01*
X206443709Y-94688670D01*
X206338039Y-94674758D01*
X206300001Y-94669750D01*
X206299999Y-94669750D01*
X206156291Y-94688670D01*
X206156287Y-94688671D01*
X206022377Y-94744137D01*
X205907372Y-94832384D01*
X205901703Y-94838054D01*
X205840379Y-94871536D01*
X205770687Y-94866549D01*
X205738542Y-94848745D01*
X205683523Y-94806527D01*
X205626515Y-94762783D01*
X205626512Y-94762782D01*
X205492601Y-94707315D01*
X205492599Y-94707314D01*
X205492598Y-94707314D01*
X205420743Y-94697854D01*
X205348890Y-94688394D01*
X205348888Y-94688394D01*
X205205180Y-94707314D01*
X205205176Y-94707315D01*
X205071265Y-94762782D01*
X205071263Y-94762783D01*
X204994272Y-94821860D01*
X204929102Y-94847054D01*
X204860658Y-94833015D01*
X204843303Y-94821863D01*
X204787625Y-94779139D01*
X204787624Y-94779138D01*
X204787622Y-94779137D01*
X204653712Y-94723671D01*
X204653710Y-94723670D01*
X204653709Y-94723670D01*
X204529483Y-94707315D01*
X204510001Y-94704750D01*
X204509999Y-94704750D01*
X204366291Y-94723670D01*
X204366287Y-94723671D01*
X204232377Y-94779137D01*
X204117379Y-94867379D01*
X204029137Y-94982377D01*
X203973671Y-95116287D01*
X203973670Y-95116291D01*
X203954750Y-95260000D01*
X154791681Y-95260000D01*
X154918183Y-95147929D01*
X155014818Y-95007930D01*
X155075140Y-94848872D01*
X155095645Y-94680000D01*
X155075140Y-94511128D01*
X155014818Y-94352070D01*
X154991792Y-94318712D01*
X154940324Y-94244148D01*
X154918183Y-94212071D01*
X154876337Y-94174999D01*
X210554750Y-94174999D01*
X210554750Y-94175000D01*
X210573670Y-94318708D01*
X210573671Y-94318712D01*
X210629137Y-94452622D01*
X210629138Y-94452624D01*
X210629139Y-94452625D01*
X210717379Y-94567621D01*
X210832375Y-94655861D01*
X210832376Y-94655861D01*
X210832377Y-94655862D01*
X210866508Y-94669999D01*
X210966291Y-94711330D01*
X211093280Y-94728048D01*
X211109999Y-94730250D01*
X211110000Y-94730250D01*
X211110001Y-94730250D01*
X211124977Y-94728278D01*
X211253709Y-94711330D01*
X211387625Y-94655861D01*
X211502621Y-94567621D01*
X211590861Y-94452625D01*
X211646330Y-94318709D01*
X211665250Y-94175000D01*
X211646330Y-94031291D01*
X211590861Y-93897375D01*
X211502621Y-93782379D01*
X211387625Y-93694139D01*
X211387624Y-93694138D01*
X211387622Y-93694137D01*
X211253712Y-93638671D01*
X211253710Y-93638670D01*
X211253709Y-93638670D01*
X211181854Y-93629210D01*
X211110001Y-93619750D01*
X211109999Y-93619750D01*
X210966291Y-93638670D01*
X210966287Y-93638671D01*
X210832377Y-93694137D01*
X210717379Y-93782379D01*
X210629137Y-93897377D01*
X210573671Y-94031287D01*
X210573670Y-94031291D01*
X210554750Y-94174999D01*
X154876337Y-94174999D01*
X154823316Y-94128026D01*
X154790849Y-94099263D01*
X154640226Y-94020210D01*
X154475056Y-93979500D01*
X154304944Y-93979500D01*
X154139773Y-94020210D01*
X153989150Y-94099263D01*
X153861816Y-94212072D01*
X153765182Y-94352068D01*
X153704860Y-94511125D01*
X153704859Y-94511130D01*
X153684355Y-94680000D01*
X151681300Y-94680000D01*
X151685250Y-94650000D01*
X151666330Y-94506291D01*
X151610861Y-94372375D01*
X151522621Y-94257379D01*
X151407625Y-94169139D01*
X151407624Y-94169138D01*
X151407622Y-94169137D01*
X151273712Y-94113671D01*
X151273710Y-94113670D01*
X151273709Y-94113670D01*
X151164302Y-94099266D01*
X151130001Y-94094750D01*
X151129999Y-94094750D01*
X150986291Y-94113670D01*
X150986287Y-94113671D01*
X150852376Y-94169138D01*
X150852375Y-94169138D01*
X150787452Y-94218955D01*
X150722283Y-94244148D01*
X150653838Y-94230109D01*
X150636481Y-94218954D01*
X150597625Y-94189139D01*
X150597623Y-94189138D01*
X150463712Y-94133671D01*
X150463710Y-94133670D01*
X150463709Y-94133670D01*
X150391854Y-94124210D01*
X150320001Y-94114750D01*
X150319999Y-94114750D01*
X150176291Y-94133670D01*
X150176287Y-94133671D01*
X150042377Y-94189137D01*
X149927379Y-94277379D01*
X149839137Y-94392377D01*
X149783671Y-94526287D01*
X149783670Y-94526291D01*
X149764750Y-94670000D01*
X140370907Y-94670000D01*
X140389201Y-94531049D01*
X140370281Y-94387340D01*
X140314812Y-94253424D01*
X140226572Y-94138428D01*
X140111576Y-94050188D01*
X140111575Y-94050187D01*
X140111573Y-94050186D01*
X139977663Y-93994720D01*
X139977661Y-93994719D01*
X139977660Y-93994719D01*
X139905805Y-93985259D01*
X139833952Y-93975799D01*
X139833950Y-93975799D01*
X139690242Y-93994719D01*
X139690238Y-93994720D01*
X139556328Y-94050186D01*
X139441330Y-94138428D01*
X139353088Y-94253426D01*
X139297622Y-94387336D01*
X139297621Y-94387340D01*
X139281961Y-94506291D01*
X139278701Y-94531049D01*
X114475000Y-94531049D01*
X114475000Y-93531048D01*
X127413701Y-93531048D01*
X127413701Y-93531049D01*
X127432621Y-93674757D01*
X127432622Y-93674761D01*
X127488088Y-93808671D01*
X127488089Y-93808673D01*
X127488090Y-93808674D01*
X127576330Y-93923670D01*
X127691326Y-94011910D01*
X127825242Y-94067379D01*
X127952231Y-94084097D01*
X127968950Y-94086299D01*
X127968951Y-94086299D01*
X127968952Y-94086299D01*
X127983928Y-94084327D01*
X128112660Y-94067379D01*
X128246576Y-94011910D01*
X128361572Y-93923670D01*
X128449812Y-93808674D01*
X128505281Y-93674758D01*
X128524201Y-93531049D01*
X128505281Y-93387340D01*
X128449812Y-93253424D01*
X128361572Y-93138428D01*
X128246576Y-93050188D01*
X128246575Y-93050187D01*
X128246573Y-93050186D01*
X128112663Y-92994720D01*
X128112661Y-92994719D01*
X128112660Y-92994719D01*
X128004476Y-92980476D01*
X127968952Y-92975799D01*
X127968950Y-92975799D01*
X127825242Y-92994719D01*
X127825238Y-92994720D01*
X127691328Y-93050186D01*
X127576330Y-93138428D01*
X127488088Y-93253426D01*
X127432622Y-93387336D01*
X127432621Y-93387340D01*
X127413701Y-93531048D01*
X114475000Y-93531048D01*
X114475000Y-92889999D01*
X204484750Y-92889999D01*
X204484750Y-92890000D01*
X204503670Y-93033708D01*
X204503671Y-93033712D01*
X204559137Y-93167622D01*
X204559138Y-93167624D01*
X204559139Y-93167625D01*
X204647379Y-93282621D01*
X204762375Y-93370861D01*
X204896291Y-93426330D01*
X205023280Y-93443048D01*
X205039999Y-93445250D01*
X205040000Y-93445250D01*
X205040001Y-93445250D01*
X205054977Y-93443278D01*
X205183709Y-93426330D01*
X205317625Y-93370861D01*
X205370881Y-93329996D01*
X226124435Y-93329996D01*
X226124435Y-93330003D01*
X226144630Y-93509249D01*
X226144631Y-93509254D01*
X226204211Y-93679523D01*
X226213394Y-93694137D01*
X226300184Y-93832262D01*
X226427738Y-93959816D01*
X226506696Y-94009428D01*
X226531487Y-94025006D01*
X226577778Y-94077341D01*
X226588426Y-94146395D01*
X226560051Y-94210243D01*
X226531487Y-94234994D01*
X226427737Y-94300184D01*
X226300184Y-94427737D01*
X226204211Y-94580476D01*
X226144631Y-94750745D01*
X226144630Y-94750750D01*
X226124435Y-94929996D01*
X226124435Y-94930003D01*
X226144630Y-95109249D01*
X226144631Y-95109254D01*
X226204211Y-95279523D01*
X226263663Y-95374139D01*
X226300184Y-95432262D01*
X226427738Y-95559816D01*
X226495017Y-95602090D01*
X226575434Y-95652620D01*
X226580478Y-95655789D01*
X226739082Y-95711287D01*
X226750745Y-95715368D01*
X226750750Y-95715369D01*
X226929996Y-95735565D01*
X226930000Y-95735565D01*
X226930004Y-95735565D01*
X227109249Y-95715369D01*
X227109252Y-95715368D01*
X227109255Y-95715368D01*
X227279522Y-95655789D01*
X227432262Y-95559816D01*
X227559816Y-95432262D01*
X227655789Y-95279522D01*
X227715368Y-95109255D01*
X227717550Y-95089889D01*
X227735565Y-94930003D01*
X227735565Y-94929996D01*
X227715369Y-94750750D01*
X227715368Y-94750745D01*
X227687114Y-94669999D01*
X227655789Y-94580478D01*
X227647710Y-94567621D01*
X227592112Y-94479137D01*
X227559816Y-94427738D01*
X227432262Y-94300184D01*
X227328510Y-94234992D01*
X227282221Y-94182659D01*
X227271573Y-94113606D01*
X227299948Y-94049757D01*
X227328509Y-94025007D01*
X227432262Y-93959816D01*
X227559816Y-93832262D01*
X227655789Y-93679522D01*
X227715368Y-93509255D01*
X227722580Y-93445250D01*
X227735565Y-93330003D01*
X227735565Y-93329996D01*
X227715369Y-93150750D01*
X227715368Y-93150745D01*
X227711058Y-93138428D01*
X227655789Y-92980478D01*
X227559816Y-92827738D01*
X227432262Y-92700184D01*
X227279523Y-92604211D01*
X227109254Y-92544631D01*
X227109249Y-92544630D01*
X226930004Y-92524435D01*
X226929996Y-92524435D01*
X226750750Y-92544630D01*
X226750745Y-92544631D01*
X226580476Y-92604211D01*
X226427737Y-92700184D01*
X226300184Y-92827737D01*
X226204211Y-92980476D01*
X226144631Y-93150745D01*
X226144630Y-93150750D01*
X226124435Y-93329996D01*
X205370881Y-93329996D01*
X205432621Y-93282621D01*
X205520861Y-93167625D01*
X205576330Y-93033709D01*
X205595250Y-92890000D01*
X205576330Y-92746291D01*
X205520861Y-92612375D01*
X205432621Y-92497379D01*
X205317625Y-92409139D01*
X205317624Y-92409138D01*
X205317622Y-92409137D01*
X205183712Y-92353671D01*
X205183710Y-92353670D01*
X205183709Y-92353670D01*
X205111854Y-92344210D01*
X205040001Y-92334750D01*
X205039999Y-92334750D01*
X204896291Y-92353670D01*
X204896287Y-92353671D01*
X204762377Y-92409137D01*
X204647379Y-92497379D01*
X204559137Y-92612377D01*
X204503671Y-92746287D01*
X204503670Y-92746291D01*
X204484750Y-92889999D01*
X114475000Y-92889999D01*
X114475000Y-91819999D01*
X130004750Y-91819999D01*
X130004750Y-91820000D01*
X130023670Y-91963708D01*
X130023671Y-91963712D01*
X130079137Y-92097622D01*
X130079138Y-92097624D01*
X130079139Y-92097625D01*
X130167379Y-92212621D01*
X130282375Y-92300861D01*
X130416291Y-92356330D01*
X130543280Y-92373048D01*
X130559999Y-92375250D01*
X130560000Y-92375250D01*
X130560001Y-92375250D01*
X130574977Y-92373278D01*
X130703709Y-92356330D01*
X130837625Y-92300861D01*
X130952621Y-92212621D01*
X131040861Y-92097625D01*
X131096330Y-91963709D01*
X131115250Y-91820000D01*
X131096330Y-91676291D01*
X131089582Y-91659999D01*
X137684750Y-91659999D01*
X137684750Y-91660000D01*
X137703670Y-91803708D01*
X137703671Y-91803712D01*
X137759137Y-91937622D01*
X137759138Y-91937624D01*
X137759139Y-91937625D01*
X137847379Y-92052621D01*
X137962375Y-92140861D01*
X138096291Y-92196330D01*
X138220024Y-92212620D01*
X138239999Y-92215250D01*
X138240000Y-92215250D01*
X138240001Y-92215250D01*
X138259976Y-92212620D01*
X138383709Y-92196330D01*
X138517625Y-92140861D01*
X138632621Y-92052621D01*
X138720861Y-91937625D01*
X138776330Y-91803709D01*
X138795250Y-91660000D01*
X138780110Y-91544999D01*
X213159750Y-91544999D01*
X213159750Y-91545000D01*
X213178670Y-91688708D01*
X213178671Y-91688712D01*
X213234137Y-91822622D01*
X213234138Y-91822624D01*
X213234139Y-91822625D01*
X213322379Y-91937621D01*
X213437375Y-92025861D01*
X213437376Y-92025861D01*
X213437377Y-92025862D01*
X213482013Y-92044350D01*
X213571291Y-92081330D01*
X213695039Y-92097622D01*
X213714999Y-92100250D01*
X213715000Y-92100250D01*
X213715001Y-92100250D01*
X213734961Y-92097622D01*
X213858709Y-92081330D01*
X213992625Y-92025861D01*
X214107621Y-91937621D01*
X214195861Y-91822625D01*
X214251330Y-91688709D01*
X214269592Y-91549999D01*
X216064750Y-91549999D01*
X216064750Y-91550000D01*
X216083670Y-91693708D01*
X216083671Y-91693712D01*
X216139137Y-91827622D01*
X216139138Y-91827624D01*
X216139139Y-91827625D01*
X216227379Y-91942621D01*
X216342375Y-92030861D01*
X216476291Y-92086330D01*
X216603280Y-92103048D01*
X216619999Y-92105250D01*
X216620000Y-92105250D01*
X216620001Y-92105250D01*
X216634977Y-92103278D01*
X216763709Y-92086330D01*
X216897625Y-92030861D01*
X217012621Y-91942621D01*
X217100861Y-91827625D01*
X217156330Y-91693709D01*
X217175250Y-91550000D01*
X217156330Y-91406291D01*
X217105540Y-91283671D01*
X217100862Y-91272377D01*
X217100861Y-91272376D01*
X217100861Y-91272375D01*
X217012621Y-91157379D01*
X216897625Y-91069139D01*
X216897624Y-91069138D01*
X216897622Y-91069137D01*
X216763712Y-91013671D01*
X216763710Y-91013670D01*
X216763709Y-91013670D01*
X216691854Y-91004210D01*
X216620001Y-90994750D01*
X216619999Y-90994750D01*
X216476291Y-91013670D01*
X216476287Y-91013671D01*
X216342377Y-91069137D01*
X216227379Y-91157379D01*
X216139137Y-91272377D01*
X216083671Y-91406287D01*
X216083670Y-91406291D01*
X216064750Y-91549999D01*
X214269592Y-91549999D01*
X214270250Y-91545000D01*
X214269904Y-91542375D01*
X214266470Y-91516287D01*
X214251330Y-91401291D01*
X214195861Y-91267375D01*
X214107621Y-91152379D01*
X213992625Y-91064139D01*
X213992624Y-91064138D01*
X213992622Y-91064137D01*
X213858712Y-91008671D01*
X213858710Y-91008670D01*
X213858709Y-91008670D01*
X213786854Y-90999210D01*
X213715001Y-90989750D01*
X213714999Y-90989750D01*
X213571291Y-91008670D01*
X213571287Y-91008671D01*
X213437377Y-91064137D01*
X213322379Y-91152379D01*
X213234137Y-91267377D01*
X213178671Y-91401287D01*
X213178670Y-91401291D01*
X213159750Y-91544999D01*
X138780110Y-91544999D01*
X138776330Y-91516291D01*
X138728696Y-91401291D01*
X138720862Y-91382377D01*
X138720861Y-91382376D01*
X138720861Y-91382375D01*
X138632621Y-91267379D01*
X138517625Y-91179139D01*
X138517624Y-91179138D01*
X138517622Y-91179137D01*
X138383712Y-91123671D01*
X138383710Y-91123670D01*
X138383709Y-91123670D01*
X138311854Y-91114210D01*
X138240001Y-91104750D01*
X138239999Y-91104750D01*
X138096291Y-91123670D01*
X138096287Y-91123671D01*
X137962377Y-91179137D01*
X137847379Y-91267379D01*
X137759137Y-91382377D01*
X137703671Y-91516287D01*
X137703670Y-91516291D01*
X137684750Y-91659999D01*
X131089582Y-91659999D01*
X131040861Y-91542375D01*
X130952621Y-91427379D01*
X130837625Y-91339139D01*
X130837624Y-91339138D01*
X130837622Y-91339137D01*
X130703712Y-91283671D01*
X130703710Y-91283670D01*
X130703709Y-91283670D01*
X130617917Y-91272375D01*
X130560001Y-91264750D01*
X130559999Y-91264750D01*
X130416291Y-91283670D01*
X130416287Y-91283671D01*
X130282377Y-91339137D01*
X130167379Y-91427379D01*
X130079137Y-91542377D01*
X130023671Y-91676287D01*
X130023670Y-91676291D01*
X130004750Y-91819999D01*
X114475000Y-91819999D01*
X114475000Y-90529999D01*
X136814750Y-90529999D01*
X136814750Y-90530000D01*
X136833670Y-90673708D01*
X136833671Y-90673712D01*
X136889137Y-90807622D01*
X136889138Y-90807624D01*
X136889139Y-90807625D01*
X136977379Y-90922621D01*
X137092375Y-91010861D01*
X137092376Y-91010861D01*
X137092377Y-91010862D01*
X137099159Y-91013671D01*
X137226291Y-91066330D01*
X137353280Y-91083048D01*
X137369999Y-91085250D01*
X137370000Y-91085250D01*
X137370001Y-91085250D01*
X137384977Y-91083278D01*
X137513709Y-91066330D01*
X137647625Y-91010861D01*
X137762621Y-90922621D01*
X137850861Y-90807625D01*
X137906330Y-90673709D01*
X137925250Y-90530000D01*
X137906330Y-90386291D01*
X137850861Y-90252375D01*
X137762621Y-90137379D01*
X137647625Y-90049139D01*
X137647624Y-90049138D01*
X137647622Y-90049137D01*
X137513712Y-89993671D01*
X137513710Y-89993670D01*
X137513709Y-89993670D01*
X137433970Y-89983172D01*
X137370001Y-89974750D01*
X137369999Y-89974750D01*
X137226291Y-89993670D01*
X137226287Y-89993671D01*
X137092377Y-90049137D01*
X136977379Y-90137379D01*
X136889137Y-90252377D01*
X136833671Y-90386287D01*
X136833670Y-90386291D01*
X136814750Y-90529999D01*
X114475000Y-90529999D01*
X114475000Y-89160000D01*
X130374750Y-89160000D01*
X130390563Y-89280113D01*
X130393670Y-89303708D01*
X130393671Y-89303712D01*
X130449137Y-89437622D01*
X130449138Y-89437624D01*
X130449139Y-89437625D01*
X130537379Y-89552621D01*
X130652375Y-89640861D01*
X130786291Y-89696330D01*
X130913280Y-89713048D01*
X130929999Y-89715250D01*
X130930000Y-89715250D01*
X130930001Y-89715250D01*
X130944977Y-89713278D01*
X131073709Y-89696330D01*
X131207625Y-89640861D01*
X131322621Y-89552621D01*
X131410861Y-89437625D01*
X131466330Y-89303709D01*
X131485250Y-89160000D01*
X137524750Y-89160000D01*
X137540563Y-89280113D01*
X137543670Y-89303708D01*
X137543671Y-89303712D01*
X137599137Y-89437622D01*
X137599138Y-89437624D01*
X137599139Y-89437625D01*
X137687379Y-89552621D01*
X137802375Y-89640861D01*
X137936291Y-89696330D01*
X138063280Y-89713048D01*
X138079999Y-89715250D01*
X138080000Y-89715250D01*
X138080001Y-89715250D01*
X138094977Y-89713278D01*
X138223709Y-89696330D01*
X138357625Y-89640861D01*
X138472621Y-89552621D01*
X138560861Y-89437625D01*
X138616330Y-89303709D01*
X138635250Y-89160000D01*
X138616330Y-89016291D01*
X138560861Y-88882375D01*
X138505325Y-88810000D01*
X147284355Y-88810000D01*
X147304859Y-88978869D01*
X147304860Y-88978874D01*
X147365182Y-89137931D01*
X147427475Y-89228177D01*
X147461817Y-89277929D01*
X147567505Y-89371560D01*
X147589150Y-89390736D01*
X147678490Y-89437625D01*
X147739775Y-89469790D01*
X147904944Y-89510500D01*
X148075056Y-89510500D01*
X148240225Y-89469790D01*
X148319692Y-89428081D01*
X148390849Y-89390736D01*
X148390850Y-89390734D01*
X148390852Y-89390734D01*
X148518183Y-89277929D01*
X148614818Y-89137930D01*
X148675140Y-88978872D01*
X148695645Y-88810000D01*
X148675140Y-88641128D01*
X148659361Y-88599523D01*
X148647984Y-88569522D01*
X148614818Y-88482070D01*
X148596305Y-88455250D01*
X148568052Y-88414318D01*
X148518183Y-88342071D01*
X148423316Y-88258026D01*
X148414254Y-88249998D01*
X162390194Y-88249998D01*
X162390194Y-88250001D01*
X162409588Y-88521160D01*
X162409589Y-88521167D01*
X162467372Y-88786793D01*
X162467374Y-88786801D01*
X162526674Y-88945789D01*
X162562379Y-89041519D01*
X162692658Y-89280107D01*
X162692659Y-89280108D01*
X162692662Y-89280113D01*
X162855578Y-89497742D01*
X162855582Y-89497746D01*
X162855587Y-89497752D01*
X163047796Y-89689961D01*
X163047802Y-89689966D01*
X163047807Y-89689971D01*
X163265436Y-89852887D01*
X163265440Y-89852889D01*
X163265441Y-89852890D01*
X163504030Y-89983169D01*
X163504029Y-89983169D01*
X163504033Y-89983170D01*
X163504036Y-89983172D01*
X163758748Y-90078175D01*
X164024389Y-90135961D01*
X164276154Y-90153967D01*
X164295548Y-90155355D01*
X164295549Y-90155355D01*
X164295550Y-90155355D01*
X164313649Y-90154060D01*
X164566709Y-90135961D01*
X164832350Y-90078175D01*
X165087062Y-89983172D01*
X165087066Y-89983169D01*
X165087068Y-89983169D01*
X165206362Y-89918029D01*
X165325662Y-89852887D01*
X165543291Y-89689971D01*
X165735520Y-89497742D01*
X165898436Y-89280113D01*
X166028721Y-89041513D01*
X166123724Y-88786801D01*
X166181510Y-88521160D01*
X166200904Y-88250000D01*
X166200904Y-88249998D01*
X167390194Y-88249998D01*
X167390194Y-88250001D01*
X167409588Y-88521160D01*
X167409589Y-88521167D01*
X167467372Y-88786793D01*
X167467374Y-88786801D01*
X167526674Y-88945789D01*
X167562379Y-89041519D01*
X167692658Y-89280107D01*
X167692659Y-89280108D01*
X167692662Y-89280113D01*
X167855578Y-89497742D01*
X167855582Y-89497746D01*
X167855587Y-89497752D01*
X168047796Y-89689961D01*
X168047802Y-89689966D01*
X168047807Y-89689971D01*
X168265436Y-89852887D01*
X168265440Y-89852889D01*
X168265441Y-89852890D01*
X168504030Y-89983169D01*
X168504029Y-89983169D01*
X168504033Y-89983170D01*
X168504036Y-89983172D01*
X168758748Y-90078175D01*
X169024389Y-90135961D01*
X169276154Y-90153967D01*
X169295548Y-90155355D01*
X169295549Y-90155355D01*
X169295550Y-90155355D01*
X169313649Y-90154060D01*
X169566709Y-90135961D01*
X169832350Y-90078175D01*
X170087062Y-89983172D01*
X170087066Y-89983169D01*
X170087068Y-89983169D01*
X170206362Y-89918029D01*
X170325662Y-89852887D01*
X170543291Y-89689971D01*
X170735520Y-89497742D01*
X170898436Y-89280113D01*
X171028721Y-89041513D01*
X171123724Y-88786801D01*
X171181510Y-88521160D01*
X171200904Y-88250000D01*
X171200904Y-88249996D01*
X211744435Y-88249996D01*
X211744435Y-88250003D01*
X211764630Y-88429249D01*
X211764631Y-88429254D01*
X211824211Y-88599523D01*
X211901334Y-88722262D01*
X211920184Y-88752262D01*
X212047738Y-88879816D01*
X212200478Y-88975789D01*
X212285010Y-89005368D01*
X212370745Y-89035368D01*
X212370750Y-89035369D01*
X212549996Y-89055565D01*
X212550000Y-89055565D01*
X212550004Y-89055565D01*
X212729249Y-89035369D01*
X212729252Y-89035368D01*
X212729255Y-89035368D01*
X212899522Y-88975789D01*
X213052262Y-88879816D01*
X213179816Y-88752262D01*
X213275789Y-88599522D01*
X213335368Y-88429255D01*
X213338748Y-88399255D01*
X213355565Y-88250003D01*
X213355565Y-88249996D01*
X213352185Y-88219996D01*
X216514435Y-88219996D01*
X216514435Y-88220003D01*
X216534630Y-88399249D01*
X216534631Y-88399254D01*
X216594211Y-88569523D01*
X216639383Y-88641413D01*
X216690184Y-88722262D01*
X216817738Y-88849816D01*
X216970478Y-88945789D01*
X217140745Y-89005368D01*
X217140750Y-89005369D01*
X217319996Y-89025565D01*
X217320000Y-89025565D01*
X217320004Y-89025565D01*
X217499249Y-89005369D01*
X217499252Y-89005368D01*
X217499255Y-89005368D01*
X217669522Y-88945789D01*
X217822262Y-88849816D01*
X217949816Y-88722262D01*
X218045789Y-88569522D01*
X218105368Y-88399255D01*
X218106129Y-88392500D01*
X218125565Y-88220003D01*
X218125565Y-88219996D01*
X218105369Y-88040750D01*
X218105368Y-88040745D01*
X218092410Y-88003712D01*
X218045789Y-87870478D01*
X218036799Y-87856171D01*
X217968666Y-87747738D01*
X217949816Y-87717738D01*
X217822262Y-87590184D01*
X217787510Y-87568348D01*
X217669523Y-87494211D01*
X217499254Y-87434631D01*
X217499249Y-87434630D01*
X217320004Y-87414435D01*
X217319996Y-87414435D01*
X217140750Y-87434630D01*
X217140745Y-87434631D01*
X216970476Y-87494211D01*
X216817737Y-87590184D01*
X216690184Y-87717737D01*
X216594211Y-87870476D01*
X216534631Y-88040745D01*
X216534630Y-88040750D01*
X216514435Y-88219996D01*
X213352185Y-88219996D01*
X213335369Y-88070750D01*
X213335368Y-88070745D01*
X213324872Y-88040750D01*
X213275789Y-87900478D01*
X213256937Y-87870476D01*
X213185190Y-87756291D01*
X213179816Y-87747738D01*
X213052262Y-87620184D01*
X213020935Y-87600500D01*
X212899523Y-87524211D01*
X212729254Y-87464631D01*
X212729249Y-87464630D01*
X212550004Y-87444435D01*
X212549996Y-87444435D01*
X212370750Y-87464630D01*
X212370745Y-87464631D01*
X212200476Y-87524211D01*
X212047737Y-87620184D01*
X211920184Y-87747737D01*
X211824211Y-87900476D01*
X211764631Y-88070745D01*
X211764630Y-88070750D01*
X211744435Y-88249996D01*
X171200904Y-88249996D01*
X171181510Y-87978840D01*
X171123724Y-87713199D01*
X171028721Y-87458487D01*
X171028719Y-87458484D01*
X171028718Y-87458480D01*
X170898439Y-87219892D01*
X170898438Y-87219891D01*
X170898436Y-87219887D01*
X170735520Y-87002258D01*
X170735515Y-87002253D01*
X170735510Y-87002247D01*
X170543301Y-86810038D01*
X170543295Y-86810033D01*
X170543291Y-86810029D01*
X170325662Y-86647113D01*
X170325657Y-86647110D01*
X170325656Y-86647109D01*
X170087067Y-86516830D01*
X170087068Y-86516830D01*
X170037469Y-86498330D01*
X169832350Y-86421825D01*
X169832343Y-86421823D01*
X169832342Y-86421823D01*
X169566716Y-86364040D01*
X169566709Y-86364039D01*
X169295550Y-86344645D01*
X169295548Y-86344645D01*
X169024388Y-86364039D01*
X169024381Y-86364040D01*
X168758755Y-86421823D01*
X168758751Y-86421824D01*
X168758748Y-86421825D01*
X168633149Y-86468671D01*
X168504029Y-86516830D01*
X168265441Y-86647109D01*
X168265440Y-86647110D01*
X168047808Y-86810028D01*
X168047796Y-86810038D01*
X167855587Y-87002247D01*
X167855577Y-87002259D01*
X167692659Y-87219891D01*
X167692658Y-87219892D01*
X167562379Y-87458480D01*
X167520463Y-87570862D01*
X167467374Y-87713199D01*
X167467373Y-87713202D01*
X167467372Y-87713206D01*
X167409589Y-87978832D01*
X167409588Y-87978839D01*
X167390194Y-88249998D01*
X166200904Y-88249998D01*
X166181510Y-87978840D01*
X166123724Y-87713199D01*
X166028721Y-87458487D01*
X166028719Y-87458484D01*
X166028718Y-87458480D01*
X165898439Y-87219892D01*
X165898438Y-87219891D01*
X165898436Y-87219887D01*
X165735520Y-87002258D01*
X165735515Y-87002253D01*
X165735510Y-87002247D01*
X165543301Y-86810038D01*
X165543295Y-86810033D01*
X165543291Y-86810029D01*
X165325662Y-86647113D01*
X165325657Y-86647110D01*
X165325656Y-86647109D01*
X165087067Y-86516830D01*
X165087068Y-86516830D01*
X165037469Y-86498330D01*
X164832350Y-86421825D01*
X164832343Y-86421823D01*
X164832342Y-86421823D01*
X164566716Y-86364040D01*
X164566709Y-86364039D01*
X164295550Y-86344645D01*
X164295548Y-86344645D01*
X164024388Y-86364039D01*
X164024381Y-86364040D01*
X163758755Y-86421823D01*
X163758751Y-86421824D01*
X163758748Y-86421825D01*
X163633149Y-86468671D01*
X163504029Y-86516830D01*
X163265441Y-86647109D01*
X163265440Y-86647110D01*
X163047808Y-86810028D01*
X163047796Y-86810038D01*
X162855587Y-87002247D01*
X162855577Y-87002259D01*
X162692659Y-87219891D01*
X162692658Y-87219892D01*
X162562379Y-87458480D01*
X162520463Y-87570862D01*
X162467374Y-87713199D01*
X162467373Y-87713202D01*
X162467372Y-87713206D01*
X162409589Y-87978832D01*
X162409588Y-87978839D01*
X162390194Y-88249998D01*
X148414254Y-88249998D01*
X148390849Y-88229263D01*
X148240226Y-88150210D01*
X148075056Y-88109500D01*
X147904944Y-88109500D01*
X147739773Y-88150210D01*
X147589150Y-88229263D01*
X147461816Y-88342072D01*
X147365182Y-88482068D01*
X147304860Y-88641125D01*
X147304859Y-88641130D01*
X147284355Y-88810000D01*
X138505325Y-88810000D01*
X138472621Y-88767379D01*
X138357625Y-88679139D01*
X138357624Y-88679138D01*
X138357622Y-88679137D01*
X138223712Y-88623671D01*
X138223710Y-88623670D01*
X138223709Y-88623670D01*
X138151854Y-88614210D01*
X138080001Y-88604750D01*
X138079999Y-88604750D01*
X137936291Y-88623670D01*
X137936287Y-88623671D01*
X137802377Y-88679137D01*
X137687379Y-88767379D01*
X137599137Y-88882377D01*
X137543671Y-89016287D01*
X137543670Y-89016291D01*
X137524750Y-89160000D01*
X131485250Y-89160000D01*
X131466330Y-89016291D01*
X131410861Y-88882375D01*
X131322621Y-88767379D01*
X131207625Y-88679139D01*
X131207624Y-88679138D01*
X131207622Y-88679137D01*
X131073712Y-88623671D01*
X131073710Y-88623670D01*
X131073709Y-88623670D01*
X131001854Y-88614210D01*
X130930001Y-88604750D01*
X130929999Y-88604750D01*
X130786291Y-88623670D01*
X130786287Y-88623671D01*
X130652377Y-88679137D01*
X130537379Y-88767379D01*
X130449137Y-88882377D01*
X130393671Y-89016287D01*
X130393670Y-89016291D01*
X130374750Y-89160000D01*
X114475000Y-89160000D01*
X114475000Y-87859999D01*
X129844750Y-87859999D01*
X129844750Y-87860000D01*
X129863670Y-88003708D01*
X129863671Y-88003712D01*
X129919137Y-88137622D01*
X129919138Y-88137624D01*
X129919139Y-88137625D01*
X130007379Y-88252621D01*
X130122375Y-88340861D01*
X130122376Y-88340861D01*
X130122377Y-88340862D01*
X130167013Y-88359350D01*
X130256291Y-88396330D01*
X130383280Y-88413048D01*
X130399999Y-88415250D01*
X130400000Y-88415250D01*
X130400001Y-88415250D01*
X130414977Y-88413278D01*
X130543709Y-88396330D01*
X130677625Y-88340861D01*
X130792621Y-88252621D01*
X130795559Y-88248792D01*
X131764750Y-88248792D01*
X131776871Y-88340862D01*
X131783670Y-88392500D01*
X131783671Y-88392504D01*
X131839137Y-88526414D01*
X131839138Y-88526416D01*
X131839139Y-88526417D01*
X131927379Y-88641413D01*
X132042375Y-88729653D01*
X132176291Y-88785122D01*
X132303280Y-88801840D01*
X132319999Y-88804042D01*
X132320000Y-88804042D01*
X132320001Y-88804042D01*
X132334977Y-88802070D01*
X132463709Y-88785122D01*
X132597625Y-88729653D01*
X132712621Y-88641413D01*
X132800861Y-88526417D01*
X132807662Y-88509995D01*
X132851499Y-88455594D01*
X132917792Y-88433526D01*
X132938407Y-88434507D01*
X132980697Y-88440075D01*
X133019999Y-88445250D01*
X133020000Y-88445250D01*
X133020001Y-88445250D01*
X133034977Y-88443278D01*
X133163709Y-88426330D01*
X133297625Y-88370861D01*
X133412621Y-88282621D01*
X133427788Y-88262853D01*
X133484213Y-88221653D01*
X133553959Y-88217497D01*
X133614880Y-88251708D01*
X133624535Y-88262851D01*
X133647379Y-88292621D01*
X133762375Y-88380861D01*
X133896291Y-88436330D01*
X134023280Y-88453048D01*
X134039999Y-88455250D01*
X134040000Y-88455250D01*
X134040001Y-88455250D01*
X134054977Y-88453278D01*
X134183709Y-88436330D01*
X134317625Y-88380861D01*
X134432621Y-88292621D01*
X134520861Y-88177625D01*
X134576330Y-88043709D01*
X134595250Y-87900000D01*
X134576330Y-87756291D01*
X134522499Y-87626329D01*
X134520862Y-87622377D01*
X134520861Y-87622376D01*
X134520861Y-87622375D01*
X134432621Y-87507379D01*
X134317625Y-87419139D01*
X134317624Y-87419138D01*
X134317622Y-87419137D01*
X134183712Y-87363671D01*
X134183710Y-87363670D01*
X134183709Y-87363670D01*
X134111854Y-87354210D01*
X134040001Y-87344750D01*
X134039999Y-87344750D01*
X133896291Y-87363670D01*
X133896287Y-87363671D01*
X133762377Y-87419137D01*
X133647377Y-87507380D01*
X133632210Y-87527147D01*
X133575781Y-87568348D01*
X133506035Y-87572501D01*
X133445115Y-87538287D01*
X133435463Y-87527147D01*
X133412621Y-87497379D01*
X133297625Y-87409139D01*
X133297624Y-87409138D01*
X133297622Y-87409137D01*
X133163712Y-87353671D01*
X133163710Y-87353670D01*
X133163709Y-87353670D01*
X133091854Y-87344210D01*
X133020001Y-87334750D01*
X133019999Y-87334750D01*
X132876291Y-87353670D01*
X132876287Y-87353671D01*
X132742377Y-87409137D01*
X132649071Y-87480734D01*
X132627379Y-87497379D01*
X132539139Y-87612375D01*
X132539138Y-87612376D01*
X132539138Y-87612377D01*
X132532335Y-87628800D01*
X132488492Y-87683202D01*
X132422197Y-87705265D01*
X132401590Y-87704283D01*
X132320002Y-87693542D01*
X132319999Y-87693542D01*
X132176291Y-87712462D01*
X132176287Y-87712463D01*
X132042377Y-87767929D01*
X131927379Y-87856171D01*
X131839137Y-87971169D01*
X131783671Y-88105079D01*
X131783670Y-88105083D01*
X131764750Y-88248792D01*
X130795559Y-88248792D01*
X130880861Y-88137625D01*
X130936330Y-88003709D01*
X130955250Y-87860000D01*
X130936330Y-87716291D01*
X130880861Y-87582375D01*
X130792621Y-87467379D01*
X130677625Y-87379139D01*
X130677624Y-87379138D01*
X130677622Y-87379137D01*
X130543712Y-87323671D01*
X130543710Y-87323670D01*
X130543709Y-87323670D01*
X130471854Y-87314210D01*
X130400001Y-87304750D01*
X130399999Y-87304750D01*
X130256291Y-87323670D01*
X130256287Y-87323671D01*
X130122377Y-87379137D01*
X130007379Y-87467379D01*
X129919137Y-87582377D01*
X129863671Y-87716287D01*
X129863670Y-87716291D01*
X129844750Y-87859999D01*
X114475000Y-87859999D01*
X114475000Y-87089999D01*
X127224750Y-87089999D01*
X127224750Y-87090000D01*
X127243670Y-87233708D01*
X127243671Y-87233712D01*
X127299137Y-87367622D01*
X127299138Y-87367624D01*
X127299139Y-87367625D01*
X127387379Y-87482621D01*
X127502375Y-87570861D01*
X127636291Y-87626330D01*
X127763280Y-87643048D01*
X127779999Y-87645250D01*
X127780000Y-87645250D01*
X127780001Y-87645250D01*
X127794977Y-87643278D01*
X127923709Y-87626330D01*
X128057625Y-87570861D01*
X128172621Y-87482621D01*
X128260861Y-87367625D01*
X128316330Y-87233709D01*
X128335250Y-87090000D01*
X128316330Y-86946291D01*
X128297156Y-86900000D01*
X150194355Y-86900000D01*
X150214859Y-87068869D01*
X150214860Y-87068874D01*
X150275182Y-87227931D01*
X150328207Y-87304750D01*
X150371817Y-87367929D01*
X150458175Y-87444435D01*
X150499150Y-87480736D01*
X150649773Y-87559789D01*
X150649775Y-87559790D01*
X150814944Y-87600500D01*
X150985056Y-87600500D01*
X151150225Y-87559790D01*
X151269138Y-87497379D01*
X151300849Y-87480736D01*
X151300850Y-87480734D01*
X151300852Y-87480734D01*
X151428183Y-87367929D01*
X151524818Y-87227930D01*
X151585140Y-87068872D01*
X151605645Y-86900000D01*
X151585140Y-86731128D01*
X151524818Y-86572070D01*
X151512117Y-86553670D01*
X151453446Y-86468671D01*
X151428183Y-86432071D01*
X151300852Y-86319266D01*
X151300849Y-86319263D01*
X151150226Y-86240210D01*
X150985056Y-86199500D01*
X150814944Y-86199500D01*
X150649773Y-86240210D01*
X150499150Y-86319263D01*
X150371816Y-86432072D01*
X150275182Y-86572068D01*
X150214860Y-86731125D01*
X150214859Y-86731130D01*
X150194355Y-86900000D01*
X128297156Y-86900000D01*
X128260861Y-86812375D01*
X128172621Y-86697379D01*
X128057625Y-86609139D01*
X128057624Y-86609138D01*
X128057622Y-86609137D01*
X127923712Y-86553671D01*
X127923710Y-86553670D01*
X127923709Y-86553670D01*
X127851854Y-86544210D01*
X127780001Y-86534750D01*
X127779999Y-86534750D01*
X127636291Y-86553670D01*
X127636287Y-86553671D01*
X127502377Y-86609137D01*
X127387379Y-86697379D01*
X127299137Y-86812377D01*
X127243671Y-86946287D01*
X127243670Y-86946291D01*
X127224750Y-87089999D01*
X114475000Y-87089999D01*
X114475000Y-84796504D01*
X209660000Y-84796504D01*
X209660000Y-85195000D01*
X210360000Y-85195000D01*
X210360000Y-85695000D01*
X209660000Y-85695000D01*
X209660000Y-86093495D01*
X209698427Y-86286681D01*
X209698430Y-86286693D01*
X209773807Y-86468671D01*
X209773814Y-86468684D01*
X209883248Y-86632462D01*
X209883251Y-86632466D01*
X210022533Y-86771748D01*
X210022537Y-86771751D01*
X210186315Y-86881185D01*
X210186328Y-86881192D01*
X210368308Y-86956569D01*
X210410000Y-86964862D01*
X210410000Y-86161988D01*
X210419940Y-86179205D01*
X210475795Y-86235060D01*
X210544204Y-86274556D01*
X210620504Y-86295000D01*
X210699496Y-86295000D01*
X210775796Y-86274556D01*
X210844205Y-86235060D01*
X210900060Y-86179205D01*
X210910000Y-86161988D01*
X210910000Y-86964862D01*
X210951690Y-86956569D01*
X210951692Y-86956569D01*
X211133671Y-86881192D01*
X211133684Y-86881185D01*
X211297462Y-86771751D01*
X211297466Y-86771748D01*
X211436748Y-86632466D01*
X211436751Y-86632462D01*
X211546185Y-86468684D01*
X211546192Y-86468671D01*
X211621569Y-86286693D01*
X211621572Y-86286681D01*
X211659999Y-86093495D01*
X211660000Y-86093492D01*
X211660000Y-85695000D01*
X210960000Y-85695000D01*
X210960000Y-85195000D01*
X211555950Y-85195000D01*
X211622989Y-85214685D01*
X211663337Y-85256999D01*
X211669492Y-85267661D01*
X211669495Y-85267665D01*
X211767335Y-85365505D01*
X211887164Y-85434688D01*
X212020817Y-85470500D01*
X212020819Y-85470500D01*
X212159181Y-85470500D01*
X212159183Y-85470500D01*
X212292836Y-85434688D01*
X212412665Y-85365505D01*
X212510505Y-85267665D01*
X212579688Y-85147836D01*
X212615500Y-85014183D01*
X212615500Y-84875817D01*
X217344500Y-84875817D01*
X217344500Y-85014182D01*
X217380312Y-85147835D01*
X217380313Y-85147838D01*
X217449492Y-85267661D01*
X217449494Y-85267664D01*
X217449495Y-85267665D01*
X217547335Y-85365505D01*
X217667164Y-85434688D01*
X217800817Y-85470500D01*
X217800819Y-85470500D01*
X217939181Y-85470500D01*
X217939183Y-85470500D01*
X218072836Y-85434688D01*
X218192665Y-85365505D01*
X218290505Y-85267665D01*
X218296663Y-85256999D01*
X218347231Y-85208784D01*
X218404050Y-85195000D01*
X219000000Y-85195000D01*
X219000000Y-85695000D01*
X218300000Y-85695000D01*
X218300000Y-86093495D01*
X218338427Y-86286681D01*
X218338430Y-86286693D01*
X218413807Y-86468671D01*
X218413814Y-86468684D01*
X218523248Y-86632462D01*
X218523251Y-86632466D01*
X218662533Y-86771748D01*
X218662537Y-86771751D01*
X218826315Y-86881185D01*
X218826328Y-86881192D01*
X219008308Y-86956569D01*
X219050000Y-86964862D01*
X219050000Y-86161988D01*
X219059940Y-86179205D01*
X219115795Y-86235060D01*
X219184204Y-86274556D01*
X219260504Y-86295000D01*
X219339496Y-86295000D01*
X219415796Y-86274556D01*
X219484205Y-86235060D01*
X219540060Y-86179205D01*
X219550000Y-86161988D01*
X219550000Y-86964862D01*
X219591690Y-86956569D01*
X219591692Y-86956569D01*
X219773671Y-86881192D01*
X219773684Y-86881185D01*
X219937462Y-86771751D01*
X219937466Y-86771748D01*
X220076748Y-86632466D01*
X220076751Y-86632462D01*
X220186185Y-86468684D01*
X220186192Y-86468671D01*
X220261569Y-86286693D01*
X220261572Y-86286681D01*
X220299999Y-86093495D01*
X220300000Y-86093492D01*
X220300000Y-85695000D01*
X219600000Y-85695000D01*
X219600000Y-85195000D01*
X220300000Y-85195000D01*
X220300000Y-84796508D01*
X220299999Y-84796504D01*
X220261572Y-84603318D01*
X220261569Y-84603306D01*
X220186192Y-84421328D01*
X220186185Y-84421315D01*
X220076751Y-84257537D01*
X220076748Y-84257533D01*
X219937466Y-84118251D01*
X219937462Y-84118248D01*
X219773684Y-84008814D01*
X219773671Y-84008807D01*
X219591691Y-83933429D01*
X219591683Y-83933427D01*
X219550000Y-83925135D01*
X219550000Y-84728011D01*
X219540060Y-84710795D01*
X219484205Y-84654940D01*
X219415796Y-84615444D01*
X219339496Y-84595000D01*
X219260504Y-84595000D01*
X219184204Y-84615444D01*
X219115795Y-84654940D01*
X219059940Y-84710795D01*
X219050000Y-84728011D01*
X219050000Y-83925136D01*
X219049999Y-83925135D01*
X219008316Y-83933427D01*
X219008308Y-83933429D01*
X218826328Y-84008807D01*
X218826315Y-84008814D01*
X218662537Y-84118248D01*
X218662533Y-84118251D01*
X218523251Y-84257533D01*
X218523248Y-84257537D01*
X218413814Y-84421315D01*
X218413807Y-84421328D01*
X218389838Y-84479197D01*
X218345997Y-84533601D01*
X218279703Y-84555666D01*
X218212004Y-84538387D01*
X218199624Y-84528770D01*
X218199110Y-84529441D01*
X218192661Y-84524492D01*
X218072838Y-84455313D01*
X218072837Y-84455312D01*
X218072836Y-84455312D01*
X217939183Y-84419500D01*
X217800817Y-84419500D01*
X217667164Y-84455312D01*
X217667161Y-84455313D01*
X217547338Y-84524492D01*
X217547333Y-84524496D01*
X217449496Y-84622333D01*
X217449492Y-84622338D01*
X217380313Y-84742161D01*
X217380312Y-84742164D01*
X217344500Y-84875817D01*
X212615500Y-84875817D01*
X212579688Y-84742164D01*
X212545096Y-84682249D01*
X212510507Y-84622338D01*
X212510503Y-84622333D01*
X212412666Y-84524496D01*
X212412661Y-84524492D01*
X212292838Y-84455313D01*
X212292837Y-84455312D01*
X212292836Y-84455312D01*
X212159183Y-84419500D01*
X212020817Y-84419500D01*
X211887164Y-84455312D01*
X211887161Y-84455313D01*
X211767338Y-84524492D01*
X211760890Y-84529441D01*
X211758883Y-84526825D01*
X211710991Y-84552931D01*
X211641303Y-84547895D01*
X211585400Y-84505982D01*
X211570160Y-84479196D01*
X211546189Y-84421322D01*
X211546185Y-84421315D01*
X211436751Y-84257537D01*
X211436748Y-84257533D01*
X211297466Y-84118251D01*
X211297462Y-84118248D01*
X211133684Y-84008814D01*
X211133671Y-84008807D01*
X210951691Y-83933429D01*
X210951683Y-83933427D01*
X210910000Y-83925135D01*
X210910000Y-84728011D01*
X210900060Y-84710795D01*
X210844205Y-84654940D01*
X210775796Y-84615444D01*
X210699496Y-84595000D01*
X210620504Y-84595000D01*
X210544204Y-84615444D01*
X210475795Y-84654940D01*
X210419940Y-84710795D01*
X210410000Y-84728011D01*
X210410000Y-83925136D01*
X210409999Y-83925135D01*
X210368316Y-83933427D01*
X210368308Y-83933429D01*
X210186328Y-84008807D01*
X210186315Y-84008814D01*
X210022537Y-84118248D01*
X210022533Y-84118251D01*
X209883251Y-84257533D01*
X209883248Y-84257537D01*
X209773814Y-84421315D01*
X209773807Y-84421328D01*
X209698430Y-84603306D01*
X209698427Y-84603318D01*
X209660000Y-84796504D01*
X114475000Y-84796504D01*
X114475000Y-81249998D01*
X162390194Y-81249998D01*
X162390194Y-81250001D01*
X162409588Y-81521160D01*
X162409589Y-81521167D01*
X162467372Y-81786793D01*
X162467374Y-81786801D01*
X162526214Y-81944556D01*
X162562379Y-82041519D01*
X162692658Y-82280107D01*
X162692659Y-82280108D01*
X162692662Y-82280113D01*
X162855578Y-82497742D01*
X162855582Y-82497746D01*
X162855587Y-82497752D01*
X163047796Y-82689961D01*
X163047802Y-82689966D01*
X163047807Y-82689971D01*
X163265436Y-82852887D01*
X163265440Y-82852889D01*
X163265441Y-82852890D01*
X163504030Y-82983169D01*
X163504029Y-82983169D01*
X163504033Y-82983170D01*
X163504036Y-82983172D01*
X163758748Y-83078175D01*
X164024389Y-83135961D01*
X164276154Y-83153967D01*
X164295548Y-83155355D01*
X164295549Y-83155355D01*
X164295550Y-83155355D01*
X164313649Y-83154060D01*
X164566709Y-83135961D01*
X164832350Y-83078175D01*
X165087062Y-82983172D01*
X165087066Y-82983169D01*
X165087068Y-82983169D01*
X165206362Y-82918029D01*
X165325662Y-82852887D01*
X165543291Y-82689971D01*
X165735520Y-82497742D01*
X165898436Y-82280113D01*
X166028721Y-82041513D01*
X166123724Y-81786801D01*
X166181510Y-81521160D01*
X166200904Y-81250000D01*
X166200904Y-81249998D01*
X167390194Y-81249998D01*
X167390194Y-81250001D01*
X167409588Y-81521160D01*
X167409589Y-81521167D01*
X167467372Y-81786793D01*
X167467374Y-81786801D01*
X167526214Y-81944556D01*
X167562379Y-82041519D01*
X167692658Y-82280107D01*
X167692659Y-82280108D01*
X167692662Y-82280113D01*
X167855578Y-82497742D01*
X167855582Y-82497746D01*
X167855587Y-82497752D01*
X168047796Y-82689961D01*
X168047802Y-82689966D01*
X168047807Y-82689971D01*
X168265436Y-82852887D01*
X168265440Y-82852889D01*
X168265441Y-82852890D01*
X168504030Y-82983169D01*
X168504029Y-82983169D01*
X168504033Y-82983170D01*
X168504036Y-82983172D01*
X168758748Y-83078175D01*
X169024389Y-83135961D01*
X169276154Y-83153967D01*
X169295548Y-83155355D01*
X169295549Y-83155355D01*
X169295550Y-83155355D01*
X169313649Y-83154060D01*
X169566709Y-83135961D01*
X169832350Y-83078175D01*
X170087062Y-82983172D01*
X170087066Y-82983169D01*
X170087068Y-82983169D01*
X170206362Y-82918029D01*
X170325662Y-82852887D01*
X170543291Y-82689971D01*
X170735520Y-82497742D01*
X170898436Y-82280113D01*
X171028721Y-82041513D01*
X171123724Y-81786801D01*
X171181510Y-81521160D01*
X171200904Y-81250000D01*
X171181510Y-80978840D01*
X171135320Y-80766504D01*
X209660000Y-80766504D01*
X209660000Y-81015000D01*
X210360000Y-81015000D01*
X210360000Y-81515000D01*
X209660000Y-81515000D01*
X209660000Y-81763495D01*
X209698427Y-81956681D01*
X209698430Y-81956693D01*
X209773807Y-82138671D01*
X209773814Y-82138684D01*
X209883248Y-82302462D01*
X209883251Y-82302466D01*
X210022533Y-82441748D01*
X210022537Y-82441751D01*
X210186315Y-82551185D01*
X210186328Y-82551192D01*
X210368308Y-82626569D01*
X210410000Y-82634862D01*
X210410000Y-81831988D01*
X210419940Y-81849205D01*
X210475795Y-81905060D01*
X210544204Y-81944556D01*
X210620504Y-81965000D01*
X210699496Y-81965000D01*
X210775796Y-81944556D01*
X210844205Y-81905060D01*
X210900060Y-81849205D01*
X210910000Y-81831988D01*
X210910000Y-82634862D01*
X210951690Y-82626569D01*
X210951692Y-82626569D01*
X211133671Y-82551192D01*
X211133684Y-82551185D01*
X211297462Y-82441751D01*
X211297466Y-82441748D01*
X211436748Y-82302466D01*
X211436751Y-82302462D01*
X211546185Y-82138684D01*
X211546192Y-82138671D01*
X211621569Y-81956693D01*
X211621572Y-81956681D01*
X211659999Y-81763495D01*
X211660000Y-81763492D01*
X211660000Y-81515000D01*
X210960000Y-81515000D01*
X210960000Y-81015000D01*
X211660000Y-81015000D01*
X211660000Y-80766508D01*
X211659999Y-80766504D01*
X218300000Y-80766504D01*
X218300000Y-81015000D01*
X219000000Y-81015000D01*
X219000000Y-81515000D01*
X218300000Y-81515000D01*
X218300000Y-81763495D01*
X218338427Y-81956681D01*
X218338430Y-81956693D01*
X218413807Y-82138671D01*
X218413814Y-82138684D01*
X218523248Y-82302462D01*
X218523251Y-82302466D01*
X218662533Y-82441748D01*
X218662537Y-82441751D01*
X218826315Y-82551185D01*
X218826328Y-82551192D01*
X219008308Y-82626569D01*
X219050000Y-82634862D01*
X219050000Y-81831988D01*
X219059940Y-81849205D01*
X219115795Y-81905060D01*
X219184204Y-81944556D01*
X219260504Y-81965000D01*
X219339496Y-81965000D01*
X219415796Y-81944556D01*
X219484205Y-81905060D01*
X219540060Y-81849205D01*
X219550000Y-81831988D01*
X219550000Y-82634862D01*
X219591690Y-82626569D01*
X219591692Y-82626569D01*
X219773671Y-82551192D01*
X219773684Y-82551185D01*
X219937462Y-82441751D01*
X219937466Y-82441748D01*
X220076748Y-82302466D01*
X220076751Y-82302462D01*
X220186185Y-82138684D01*
X220186192Y-82138671D01*
X220261569Y-81956693D01*
X220261572Y-81956681D01*
X220299999Y-81763495D01*
X220300000Y-81763492D01*
X220300000Y-81515000D01*
X219600000Y-81515000D01*
X219600000Y-81079999D01*
X232254750Y-81079999D01*
X232254750Y-81080000D01*
X232273670Y-81223708D01*
X232273671Y-81223712D01*
X232329137Y-81357622D01*
X232329138Y-81357624D01*
X232329139Y-81357625D01*
X232417379Y-81472621D01*
X232532375Y-81560861D01*
X232666291Y-81616330D01*
X232793280Y-81633048D01*
X232809999Y-81635250D01*
X232810000Y-81635250D01*
X232810001Y-81635250D01*
X232824977Y-81633278D01*
X232953709Y-81616330D01*
X233087625Y-81560861D01*
X233202621Y-81472621D01*
X233290861Y-81357625D01*
X233346330Y-81223709D01*
X233365250Y-81080000D01*
X233364430Y-81073775D01*
X233356692Y-81015000D01*
X233346330Y-80936291D01*
X233290861Y-80802375D01*
X233202621Y-80687379D01*
X233087625Y-80599139D01*
X233087624Y-80599138D01*
X233087622Y-80599137D01*
X232953712Y-80543671D01*
X232953710Y-80543670D01*
X232953709Y-80543670D01*
X232881854Y-80534210D01*
X232810001Y-80524750D01*
X232809999Y-80524750D01*
X232666291Y-80543670D01*
X232666287Y-80543671D01*
X232532377Y-80599137D01*
X232417379Y-80687379D01*
X232329137Y-80802377D01*
X232273671Y-80936287D01*
X232273670Y-80936291D01*
X232254750Y-81079999D01*
X219600000Y-81079999D01*
X219600000Y-81015000D01*
X220300000Y-81015000D01*
X220300000Y-80766508D01*
X220299999Y-80766504D01*
X220261572Y-80573318D01*
X220261569Y-80573306D01*
X220186192Y-80391328D01*
X220186185Y-80391315D01*
X220076751Y-80227537D01*
X220076748Y-80227533D01*
X219937466Y-80088251D01*
X219937462Y-80088248D01*
X219773684Y-79978814D01*
X219773671Y-79978807D01*
X219591691Y-79903429D01*
X219591683Y-79903427D01*
X219550000Y-79895135D01*
X219550000Y-80698011D01*
X219540060Y-80680795D01*
X219484205Y-80624940D01*
X219415796Y-80585444D01*
X219339496Y-80565000D01*
X219260504Y-80565000D01*
X219184204Y-80585444D01*
X219115795Y-80624940D01*
X219059940Y-80680795D01*
X219050000Y-80698011D01*
X219050000Y-79895136D01*
X219049999Y-79895135D01*
X219008316Y-79903427D01*
X219008308Y-79903429D01*
X218826328Y-79978807D01*
X218826315Y-79978814D01*
X218662537Y-80088248D01*
X218662533Y-80088251D01*
X218523251Y-80227533D01*
X218523248Y-80227537D01*
X218413814Y-80391315D01*
X218413807Y-80391328D01*
X218338430Y-80573306D01*
X218338427Y-80573318D01*
X218300000Y-80766504D01*
X211659999Y-80766504D01*
X211621572Y-80573318D01*
X211621569Y-80573306D01*
X211546192Y-80391328D01*
X211546185Y-80391315D01*
X211436751Y-80227537D01*
X211436748Y-80227533D01*
X211297466Y-80088251D01*
X211297462Y-80088248D01*
X211133684Y-79978814D01*
X211133671Y-79978807D01*
X210951691Y-79903429D01*
X210951683Y-79903427D01*
X210910000Y-79895135D01*
X210910000Y-80698011D01*
X210900060Y-80680795D01*
X210844205Y-80624940D01*
X210775796Y-80585444D01*
X210699496Y-80565000D01*
X210620504Y-80565000D01*
X210544204Y-80585444D01*
X210475795Y-80624940D01*
X210419940Y-80680795D01*
X210410000Y-80698011D01*
X210410000Y-79895136D01*
X210409999Y-79895135D01*
X210368316Y-79903427D01*
X210368308Y-79903429D01*
X210186328Y-79978807D01*
X210186315Y-79978814D01*
X210022537Y-80088248D01*
X210022533Y-80088251D01*
X209883251Y-80227533D01*
X209883248Y-80227537D01*
X209773814Y-80391315D01*
X209773807Y-80391328D01*
X209698430Y-80573306D01*
X209698427Y-80573318D01*
X209660000Y-80766504D01*
X171135320Y-80766504D01*
X171123724Y-80713199D01*
X171028721Y-80458487D01*
X171028719Y-80458484D01*
X171028718Y-80458480D01*
X170898439Y-80219892D01*
X170898438Y-80219891D01*
X170898436Y-80219887D01*
X170735520Y-80002258D01*
X170735515Y-80002253D01*
X170735510Y-80002247D01*
X170543301Y-79810038D01*
X170543295Y-79810033D01*
X170543291Y-79810029D01*
X170325662Y-79647113D01*
X170325657Y-79647110D01*
X170325656Y-79647109D01*
X170087067Y-79516830D01*
X170087068Y-79516830D01*
X170037469Y-79498330D01*
X169832350Y-79421825D01*
X169832343Y-79421823D01*
X169832342Y-79421823D01*
X169566716Y-79364040D01*
X169566709Y-79364039D01*
X169295550Y-79344645D01*
X169295548Y-79344645D01*
X169024388Y-79364039D01*
X169024381Y-79364040D01*
X168758755Y-79421823D01*
X168758751Y-79421824D01*
X168758748Y-79421825D01*
X168631392Y-79469326D01*
X168504029Y-79516830D01*
X168265441Y-79647109D01*
X168265440Y-79647110D01*
X168047808Y-79810028D01*
X168047796Y-79810038D01*
X167855587Y-80002247D01*
X167855577Y-80002259D01*
X167692659Y-80219891D01*
X167692658Y-80219892D01*
X167562379Y-80458480D01*
X167519552Y-80573306D01*
X167467374Y-80713199D01*
X167467373Y-80713202D01*
X167467372Y-80713206D01*
X167409589Y-80978832D01*
X167409588Y-80978839D01*
X167390194Y-81249998D01*
X166200904Y-81249998D01*
X166181510Y-80978840D01*
X166123724Y-80713199D01*
X166028721Y-80458487D01*
X166028719Y-80458484D01*
X166028718Y-80458480D01*
X165898439Y-80219892D01*
X165898438Y-80219891D01*
X165898436Y-80219887D01*
X165735520Y-80002258D01*
X165735515Y-80002253D01*
X165735510Y-80002247D01*
X165543301Y-79810038D01*
X165543295Y-79810033D01*
X165543291Y-79810029D01*
X165325662Y-79647113D01*
X165325657Y-79647110D01*
X165325656Y-79647109D01*
X165087067Y-79516830D01*
X165087068Y-79516830D01*
X165037469Y-79498330D01*
X164832350Y-79421825D01*
X164832343Y-79421823D01*
X164832342Y-79421823D01*
X164566716Y-79364040D01*
X164566709Y-79364039D01*
X164295550Y-79344645D01*
X164295548Y-79344645D01*
X164024388Y-79364039D01*
X164024381Y-79364040D01*
X163758755Y-79421823D01*
X163758751Y-79421824D01*
X163758748Y-79421825D01*
X163631392Y-79469326D01*
X163504029Y-79516830D01*
X163265441Y-79647109D01*
X163265440Y-79647110D01*
X163047808Y-79810028D01*
X163047796Y-79810038D01*
X162855587Y-80002247D01*
X162855577Y-80002259D01*
X162692659Y-80219891D01*
X162692658Y-80219892D01*
X162562379Y-80458480D01*
X162519552Y-80573306D01*
X162467374Y-80713199D01*
X162467373Y-80713202D01*
X162467372Y-80713206D01*
X162409589Y-80978832D01*
X162409588Y-80978839D01*
X162390194Y-81249998D01*
X114475000Y-81249998D01*
X114475000Y-81235943D01*
X114475014Y-81234073D01*
X114475170Y-81223708D01*
X114477236Y-81086833D01*
X114478123Y-81073795D01*
X114513729Y-80780553D01*
X114516422Y-80765859D01*
X114586887Y-80479970D01*
X114591341Y-80465681D01*
X114594072Y-80458480D01*
X114695746Y-80190388D01*
X114701887Y-80176745D01*
X114838715Y-79916042D01*
X114846456Y-79903235D01*
X115013711Y-79660924D01*
X115022934Y-79649152D01*
X115218189Y-79428753D01*
X115228753Y-79418189D01*
X115449152Y-79222934D01*
X115460924Y-79213711D01*
X115703235Y-79046456D01*
X115716042Y-79038715D01*
X115976745Y-78901887D01*
X115990388Y-78895746D01*
X116265687Y-78791338D01*
X116279970Y-78786887D01*
X116565859Y-78716422D01*
X116580553Y-78713729D01*
X116873795Y-78678123D01*
X116886833Y-78677236D01*
X117032704Y-78675034D01*
X117034073Y-78675014D01*
X117035943Y-78675000D01*
X239914057Y-78675000D01*
X239915927Y-78675014D01*
G37*
%TD.AperFunction*%
%TD*%
M02*
