%TF.GenerationSoftware,KiCad,Pcbnew,8.0.5*%
%TF.CreationDate,2024-10-21T15:52:07-04:00*%
%TF.ProjectId,emberone,656d6265-726f-46e6-952e-6b696361645f,rev?*%
%TF.SameCoordinates,Original*%
%TF.FileFunction,Legend,Top*%
%TF.FilePolarity,Positive*%
%FSLAX46Y46*%
G04 Gerber Fmt 4.6, Leading zero omitted, Abs format (unit mm)*
G04 Created by KiCad (PCBNEW 8.0.5) date 2024-10-21 15:52:07*
%MOMM*%
%LPD*%
G01*
G04 APERTURE LIST*
%ADD10C,0.350000*%
%ADD11C,0.400000*%
%ADD12C,0.150000*%
%ADD13C,0.200000*%
%ADD14C,0.152400*%
%ADD15C,0.120000*%
%ADD16C,0.250000*%
%ADD17C,0.350689*%
%ADD18C,0.000000*%
G04 APERTURE END LIST*
D10*
X165648358Y-140751800D02*
X165457882Y-140847038D01*
X165457882Y-140847038D02*
X165076929Y-140847038D01*
X165076929Y-140847038D02*
X164886453Y-140751800D01*
X164886453Y-140751800D02*
X164791215Y-140561323D01*
X164791215Y-140561323D02*
X164791215Y-139799419D01*
X164791215Y-139799419D02*
X164886453Y-139608942D01*
X164886453Y-139608942D02*
X165076929Y-139513704D01*
X165076929Y-139513704D02*
X165457882Y-139513704D01*
X165457882Y-139513704D02*
X165648358Y-139608942D01*
X165648358Y-139608942D02*
X165743596Y-139799419D01*
X165743596Y-139799419D02*
X165743596Y-139989895D01*
X165743596Y-139989895D02*
X164791215Y-140180371D01*
X166600739Y-140847038D02*
X166600739Y-139513704D01*
X166600739Y-139704180D02*
X166695977Y-139608942D01*
X166695977Y-139608942D02*
X166886453Y-139513704D01*
X166886453Y-139513704D02*
X167172168Y-139513704D01*
X167172168Y-139513704D02*
X167362644Y-139608942D01*
X167362644Y-139608942D02*
X167457882Y-139799419D01*
X167457882Y-139799419D02*
X167457882Y-140847038D01*
X167457882Y-139799419D02*
X167553120Y-139608942D01*
X167553120Y-139608942D02*
X167743596Y-139513704D01*
X167743596Y-139513704D02*
X168029310Y-139513704D01*
X168029310Y-139513704D02*
X168219787Y-139608942D01*
X168219787Y-139608942D02*
X168315025Y-139799419D01*
X168315025Y-139799419D02*
X168315025Y-140847038D01*
X169267406Y-140847038D02*
X169267406Y-138847038D01*
X169267406Y-139608942D02*
X169457882Y-139513704D01*
X169457882Y-139513704D02*
X169838835Y-139513704D01*
X169838835Y-139513704D02*
X170029311Y-139608942D01*
X170029311Y-139608942D02*
X170124549Y-139704180D01*
X170124549Y-139704180D02*
X170219787Y-139894657D01*
X170219787Y-139894657D02*
X170219787Y-140466085D01*
X170219787Y-140466085D02*
X170124549Y-140656561D01*
X170124549Y-140656561D02*
X170029311Y-140751800D01*
X170029311Y-140751800D02*
X169838835Y-140847038D01*
X169838835Y-140847038D02*
X169457882Y-140847038D01*
X169457882Y-140847038D02*
X169267406Y-140751800D01*
X171838835Y-140751800D02*
X171648359Y-140847038D01*
X171648359Y-140847038D02*
X171267406Y-140847038D01*
X171267406Y-140847038D02*
X171076930Y-140751800D01*
X171076930Y-140751800D02*
X170981692Y-140561323D01*
X170981692Y-140561323D02*
X170981692Y-139799419D01*
X170981692Y-139799419D02*
X171076930Y-139608942D01*
X171076930Y-139608942D02*
X171267406Y-139513704D01*
X171267406Y-139513704D02*
X171648359Y-139513704D01*
X171648359Y-139513704D02*
X171838835Y-139608942D01*
X171838835Y-139608942D02*
X171934073Y-139799419D01*
X171934073Y-139799419D02*
X171934073Y-139989895D01*
X171934073Y-139989895D02*
X170981692Y-140180371D01*
X172791216Y-140847038D02*
X172791216Y-139513704D01*
X172791216Y-139894657D02*
X172886454Y-139704180D01*
X172886454Y-139704180D02*
X172981692Y-139608942D01*
X172981692Y-139608942D02*
X173172168Y-139513704D01*
X173172168Y-139513704D02*
X173362645Y-139513704D01*
X174410263Y-138847038D02*
X174791216Y-138847038D01*
X174791216Y-138847038D02*
X174981692Y-138942276D01*
X174981692Y-138942276D02*
X175172168Y-139132752D01*
X175172168Y-139132752D02*
X175267406Y-139513704D01*
X175267406Y-139513704D02*
X175267406Y-140180371D01*
X175267406Y-140180371D02*
X175172168Y-140561323D01*
X175172168Y-140561323D02*
X174981692Y-140751800D01*
X174981692Y-140751800D02*
X174791216Y-140847038D01*
X174791216Y-140847038D02*
X174410263Y-140847038D01*
X174410263Y-140847038D02*
X174219787Y-140751800D01*
X174219787Y-140751800D02*
X174029311Y-140561323D01*
X174029311Y-140561323D02*
X173934073Y-140180371D01*
X173934073Y-140180371D02*
X173934073Y-139513704D01*
X173934073Y-139513704D02*
X174029311Y-139132752D01*
X174029311Y-139132752D02*
X174219787Y-138942276D01*
X174219787Y-138942276D02*
X174410263Y-138847038D01*
X176124549Y-139513704D02*
X176124549Y-140847038D01*
X176124549Y-139704180D02*
X176219787Y-139608942D01*
X176219787Y-139608942D02*
X176410263Y-139513704D01*
X176410263Y-139513704D02*
X176695978Y-139513704D01*
X176695978Y-139513704D02*
X176886454Y-139608942D01*
X176886454Y-139608942D02*
X176981692Y-139799419D01*
X176981692Y-139799419D02*
X176981692Y-140847038D01*
X178695978Y-140751800D02*
X178505502Y-140847038D01*
X178505502Y-140847038D02*
X178124549Y-140847038D01*
X178124549Y-140847038D02*
X177934073Y-140751800D01*
X177934073Y-140751800D02*
X177838835Y-140561323D01*
X177838835Y-140561323D02*
X177838835Y-139799419D01*
X177838835Y-139799419D02*
X177934073Y-139608942D01*
X177934073Y-139608942D02*
X178124549Y-139513704D01*
X178124549Y-139513704D02*
X178505502Y-139513704D01*
X178505502Y-139513704D02*
X178695978Y-139608942D01*
X178695978Y-139608942D02*
X178791216Y-139799419D01*
X178791216Y-139799419D02*
X178791216Y-139989895D01*
X178791216Y-139989895D02*
X177838835Y-140180371D01*
X180981693Y-139513704D02*
X181457883Y-140847038D01*
X181457883Y-140847038D02*
X181934074Y-139513704D01*
X183743598Y-140847038D02*
X182600741Y-140847038D01*
X183172169Y-140847038D02*
X183172169Y-138847038D01*
X183172169Y-138847038D02*
X182981693Y-139132752D01*
X182981693Y-139132752D02*
X182791217Y-139323228D01*
X182791217Y-139323228D02*
X182600741Y-139418466D01*
D11*
X123113633Y-60534438D02*
X123780299Y-62534438D01*
X123780299Y-62534438D02*
X124446966Y-60534438D01*
X125113633Y-62534438D02*
X125113633Y-60534438D01*
X126066014Y-62534438D02*
X126066014Y-60534438D01*
X126066014Y-60534438D02*
X127208871Y-62534438D01*
X127208871Y-62534438D02*
X127208871Y-60534438D01*
X145986966Y-60679676D02*
X145796490Y-60584438D01*
X145796490Y-60584438D02*
X145510776Y-60584438D01*
X145510776Y-60584438D02*
X145225061Y-60679676D01*
X145225061Y-60679676D02*
X145034585Y-60870152D01*
X145034585Y-60870152D02*
X144939347Y-61060628D01*
X144939347Y-61060628D02*
X144844109Y-61441580D01*
X144844109Y-61441580D02*
X144844109Y-61727295D01*
X144844109Y-61727295D02*
X144939347Y-62108247D01*
X144939347Y-62108247D02*
X145034585Y-62298723D01*
X145034585Y-62298723D02*
X145225061Y-62489200D01*
X145225061Y-62489200D02*
X145510776Y-62584438D01*
X145510776Y-62584438D02*
X145701252Y-62584438D01*
X145701252Y-62584438D02*
X145986966Y-62489200D01*
X145986966Y-62489200D02*
X146082204Y-62393961D01*
X146082204Y-62393961D02*
X146082204Y-61727295D01*
X146082204Y-61727295D02*
X145701252Y-61727295D01*
X146939347Y-62584438D02*
X146939347Y-60584438D01*
X146939347Y-60584438D02*
X148082204Y-62584438D01*
X148082204Y-62584438D02*
X148082204Y-60584438D01*
X149034585Y-62584438D02*
X149034585Y-60584438D01*
X149034585Y-60584438D02*
X149510775Y-60584438D01*
X149510775Y-60584438D02*
X149796490Y-60679676D01*
X149796490Y-60679676D02*
X149986966Y-60870152D01*
X149986966Y-60870152D02*
X150082204Y-61060628D01*
X150082204Y-61060628D02*
X150177442Y-61441580D01*
X150177442Y-61441580D02*
X150177442Y-61727295D01*
X150177442Y-61727295D02*
X150082204Y-62108247D01*
X150082204Y-62108247D02*
X149986966Y-62298723D01*
X149986966Y-62298723D02*
X149796490Y-62489200D01*
X149796490Y-62489200D02*
X149510775Y-62584438D01*
X149510775Y-62584438D02*
X149034585Y-62584438D01*
X142376966Y-125609676D02*
X142186490Y-125514438D01*
X142186490Y-125514438D02*
X141900776Y-125514438D01*
X141900776Y-125514438D02*
X141615061Y-125609676D01*
X141615061Y-125609676D02*
X141424585Y-125800152D01*
X141424585Y-125800152D02*
X141329347Y-125990628D01*
X141329347Y-125990628D02*
X141234109Y-126371580D01*
X141234109Y-126371580D02*
X141234109Y-126657295D01*
X141234109Y-126657295D02*
X141329347Y-127038247D01*
X141329347Y-127038247D02*
X141424585Y-127228723D01*
X141424585Y-127228723D02*
X141615061Y-127419200D01*
X141615061Y-127419200D02*
X141900776Y-127514438D01*
X141900776Y-127514438D02*
X142091252Y-127514438D01*
X142091252Y-127514438D02*
X142376966Y-127419200D01*
X142376966Y-127419200D02*
X142472204Y-127323961D01*
X142472204Y-127323961D02*
X142472204Y-126657295D01*
X142472204Y-126657295D02*
X142091252Y-126657295D01*
X143329347Y-127514438D02*
X143329347Y-125514438D01*
X143329347Y-125514438D02*
X144472204Y-127514438D01*
X144472204Y-127514438D02*
X144472204Y-125514438D01*
X145424585Y-127514438D02*
X145424585Y-125514438D01*
X145424585Y-125514438D02*
X145900775Y-125514438D01*
X145900775Y-125514438D02*
X146186490Y-125609676D01*
X146186490Y-125609676D02*
X146376966Y-125800152D01*
X146376966Y-125800152D02*
X146472204Y-125990628D01*
X146472204Y-125990628D02*
X146567442Y-126371580D01*
X146567442Y-126371580D02*
X146567442Y-126657295D01*
X146567442Y-126657295D02*
X146472204Y-127038247D01*
X146472204Y-127038247D02*
X146376966Y-127228723D01*
X146376966Y-127228723D02*
X146186490Y-127419200D01*
X146186490Y-127419200D02*
X145900775Y-127514438D01*
X145900775Y-127514438D02*
X145424585Y-127514438D01*
X121833633Y-125534438D02*
X122500299Y-127534438D01*
X122500299Y-127534438D02*
X123166966Y-125534438D01*
X124214585Y-125534438D02*
X124595538Y-125534438D01*
X124595538Y-125534438D02*
X124786014Y-125629676D01*
X124786014Y-125629676D02*
X124976490Y-125820152D01*
X124976490Y-125820152D02*
X125071728Y-126201104D01*
X125071728Y-126201104D02*
X125071728Y-126867771D01*
X125071728Y-126867771D02*
X124976490Y-127248723D01*
X124976490Y-127248723D02*
X124786014Y-127439200D01*
X124786014Y-127439200D02*
X124595538Y-127534438D01*
X124595538Y-127534438D02*
X124214585Y-127534438D01*
X124214585Y-127534438D02*
X124024109Y-127439200D01*
X124024109Y-127439200D02*
X123833633Y-127248723D01*
X123833633Y-127248723D02*
X123738395Y-126867771D01*
X123738395Y-126867771D02*
X123738395Y-126201104D01*
X123738395Y-126201104D02*
X123833633Y-125820152D01*
X123833633Y-125820152D02*
X124024109Y-125629676D01*
X124024109Y-125629676D02*
X124214585Y-125534438D01*
X125928871Y-125534438D02*
X125928871Y-127153485D01*
X125928871Y-127153485D02*
X126024109Y-127343961D01*
X126024109Y-127343961D02*
X126119347Y-127439200D01*
X126119347Y-127439200D02*
X126309823Y-127534438D01*
X126309823Y-127534438D02*
X126690776Y-127534438D01*
X126690776Y-127534438D02*
X126881252Y-127439200D01*
X126881252Y-127439200D02*
X126976490Y-127343961D01*
X126976490Y-127343961D02*
X127071728Y-127153485D01*
X127071728Y-127153485D02*
X127071728Y-125534438D01*
X127738395Y-125534438D02*
X128881252Y-125534438D01*
X128309823Y-127534438D02*
X128309823Y-125534438D01*
D12*
X154465057Y-97945239D02*
X154417438Y-98040477D01*
X154417438Y-98040477D02*
X154322200Y-98135715D01*
X154322200Y-98135715D02*
X154179342Y-98278572D01*
X154179342Y-98278572D02*
X154131723Y-98373810D01*
X154131723Y-98373810D02*
X154131723Y-98469048D01*
X154369819Y-98421429D02*
X154322200Y-98516667D01*
X154322200Y-98516667D02*
X154226961Y-98611905D01*
X154226961Y-98611905D02*
X154036485Y-98659524D01*
X154036485Y-98659524D02*
X153703152Y-98659524D01*
X153703152Y-98659524D02*
X153512676Y-98611905D01*
X153512676Y-98611905D02*
X153417438Y-98516667D01*
X153417438Y-98516667D02*
X153369819Y-98421429D01*
X153369819Y-98421429D02*
X153369819Y-98230953D01*
X153369819Y-98230953D02*
X153417438Y-98135715D01*
X153417438Y-98135715D02*
X153512676Y-98040477D01*
X153512676Y-98040477D02*
X153703152Y-97992858D01*
X153703152Y-97992858D02*
X154036485Y-97992858D01*
X154036485Y-97992858D02*
X154226961Y-98040477D01*
X154226961Y-98040477D02*
X154322200Y-98135715D01*
X154322200Y-98135715D02*
X154369819Y-98230953D01*
X154369819Y-98230953D02*
X154369819Y-98421429D01*
X153703152Y-97135715D02*
X154369819Y-97135715D01*
X153322200Y-97373810D02*
X154036485Y-97611905D01*
X154036485Y-97611905D02*
X154036485Y-96992858D01*
X159054761Y-90340057D02*
X158959523Y-90292438D01*
X158959523Y-90292438D02*
X158864285Y-90197200D01*
X158864285Y-90197200D02*
X158721428Y-90054342D01*
X158721428Y-90054342D02*
X158626190Y-90006723D01*
X158626190Y-90006723D02*
X158530952Y-90006723D01*
X158578571Y-90244819D02*
X158483333Y-90197200D01*
X158483333Y-90197200D02*
X158388095Y-90101961D01*
X158388095Y-90101961D02*
X158340476Y-89911485D01*
X158340476Y-89911485D02*
X158340476Y-89578152D01*
X158340476Y-89578152D02*
X158388095Y-89387676D01*
X158388095Y-89387676D02*
X158483333Y-89292438D01*
X158483333Y-89292438D02*
X158578571Y-89244819D01*
X158578571Y-89244819D02*
X158769047Y-89244819D01*
X158769047Y-89244819D02*
X158864285Y-89292438D01*
X158864285Y-89292438D02*
X158959523Y-89387676D01*
X158959523Y-89387676D02*
X159007142Y-89578152D01*
X159007142Y-89578152D02*
X159007142Y-89911485D01*
X159007142Y-89911485D02*
X158959523Y-90101961D01*
X158959523Y-90101961D02*
X158864285Y-90197200D01*
X158864285Y-90197200D02*
X158769047Y-90244819D01*
X158769047Y-90244819D02*
X158578571Y-90244819D01*
X159340476Y-89244819D02*
X159959523Y-89244819D01*
X159959523Y-89244819D02*
X159626190Y-89625771D01*
X159626190Y-89625771D02*
X159769047Y-89625771D01*
X159769047Y-89625771D02*
X159864285Y-89673390D01*
X159864285Y-89673390D02*
X159911904Y-89721009D01*
X159911904Y-89721009D02*
X159959523Y-89816247D01*
X159959523Y-89816247D02*
X159959523Y-90054342D01*
X159959523Y-90054342D02*
X159911904Y-90149580D01*
X159911904Y-90149580D02*
X159864285Y-90197200D01*
X159864285Y-90197200D02*
X159769047Y-90244819D01*
X159769047Y-90244819D02*
X159483333Y-90244819D01*
X159483333Y-90244819D02*
X159388095Y-90197200D01*
X159388095Y-90197200D02*
X159340476Y-90149580D01*
X127608710Y-89994006D02*
X127513472Y-89946387D01*
X127513472Y-89946387D02*
X127418234Y-89851149D01*
X127418234Y-89851149D02*
X127275377Y-89708291D01*
X127275377Y-89708291D02*
X127180139Y-89660672D01*
X127180139Y-89660672D02*
X127084901Y-89660672D01*
X127132520Y-89898768D02*
X127037282Y-89851149D01*
X127037282Y-89851149D02*
X126942044Y-89755910D01*
X126942044Y-89755910D02*
X126894425Y-89565434D01*
X126894425Y-89565434D02*
X126894425Y-89232101D01*
X126894425Y-89232101D02*
X126942044Y-89041625D01*
X126942044Y-89041625D02*
X127037282Y-88946387D01*
X127037282Y-88946387D02*
X127132520Y-88898768D01*
X127132520Y-88898768D02*
X127322996Y-88898768D01*
X127322996Y-88898768D02*
X127418234Y-88946387D01*
X127418234Y-88946387D02*
X127513472Y-89041625D01*
X127513472Y-89041625D02*
X127561091Y-89232101D01*
X127561091Y-89232101D02*
X127561091Y-89565434D01*
X127561091Y-89565434D02*
X127513472Y-89755910D01*
X127513472Y-89755910D02*
X127418234Y-89851149D01*
X127418234Y-89851149D02*
X127322996Y-89898768D01*
X127322996Y-89898768D02*
X127132520Y-89898768D01*
X128513472Y-89898768D02*
X127942044Y-89898768D01*
X128227758Y-89898768D02*
X128227758Y-88898768D01*
X128227758Y-88898768D02*
X128132520Y-89041625D01*
X128132520Y-89041625D02*
X128037282Y-89136863D01*
X128037282Y-89136863D02*
X127942044Y-89184482D01*
X135005057Y-97765239D02*
X134957438Y-97860477D01*
X134957438Y-97860477D02*
X134862200Y-97955715D01*
X134862200Y-97955715D02*
X134719342Y-98098572D01*
X134719342Y-98098572D02*
X134671723Y-98193810D01*
X134671723Y-98193810D02*
X134671723Y-98289048D01*
X134909819Y-98241429D02*
X134862200Y-98336667D01*
X134862200Y-98336667D02*
X134766961Y-98431905D01*
X134766961Y-98431905D02*
X134576485Y-98479524D01*
X134576485Y-98479524D02*
X134243152Y-98479524D01*
X134243152Y-98479524D02*
X134052676Y-98431905D01*
X134052676Y-98431905D02*
X133957438Y-98336667D01*
X133957438Y-98336667D02*
X133909819Y-98241429D01*
X133909819Y-98241429D02*
X133909819Y-98050953D01*
X133909819Y-98050953D02*
X133957438Y-97955715D01*
X133957438Y-97955715D02*
X134052676Y-97860477D01*
X134052676Y-97860477D02*
X134243152Y-97812858D01*
X134243152Y-97812858D02*
X134576485Y-97812858D01*
X134576485Y-97812858D02*
X134766961Y-97860477D01*
X134766961Y-97860477D02*
X134862200Y-97955715D01*
X134862200Y-97955715D02*
X134909819Y-98050953D01*
X134909819Y-98050953D02*
X134909819Y-98241429D01*
X134005057Y-97431905D02*
X133957438Y-97384286D01*
X133957438Y-97384286D02*
X133909819Y-97289048D01*
X133909819Y-97289048D02*
X133909819Y-97050953D01*
X133909819Y-97050953D02*
X133957438Y-96955715D01*
X133957438Y-96955715D02*
X134005057Y-96908096D01*
X134005057Y-96908096D02*
X134100295Y-96860477D01*
X134100295Y-96860477D02*
X134195533Y-96860477D01*
X134195533Y-96860477D02*
X134338390Y-96908096D01*
X134338390Y-96908096D02*
X134909819Y-97479524D01*
X134909819Y-97479524D02*
X134909819Y-96860477D01*
X127367142Y-119209580D02*
X127319523Y-119257200D01*
X127319523Y-119257200D02*
X127176666Y-119304819D01*
X127176666Y-119304819D02*
X127081428Y-119304819D01*
X127081428Y-119304819D02*
X126938571Y-119257200D01*
X126938571Y-119257200D02*
X126843333Y-119161961D01*
X126843333Y-119161961D02*
X126795714Y-119066723D01*
X126795714Y-119066723D02*
X126748095Y-118876247D01*
X126748095Y-118876247D02*
X126748095Y-118733390D01*
X126748095Y-118733390D02*
X126795714Y-118542914D01*
X126795714Y-118542914D02*
X126843333Y-118447676D01*
X126843333Y-118447676D02*
X126938571Y-118352438D01*
X126938571Y-118352438D02*
X127081428Y-118304819D01*
X127081428Y-118304819D02*
X127176666Y-118304819D01*
X127176666Y-118304819D02*
X127319523Y-118352438D01*
X127319523Y-118352438D02*
X127367142Y-118400057D01*
X128319523Y-119304819D02*
X127748095Y-119304819D01*
X128033809Y-119304819D02*
X128033809Y-118304819D01*
X128033809Y-118304819D02*
X127938571Y-118447676D01*
X127938571Y-118447676D02*
X127843333Y-118542914D01*
X127843333Y-118542914D02*
X127748095Y-118590533D01*
X129176666Y-118304819D02*
X128986190Y-118304819D01*
X128986190Y-118304819D02*
X128890952Y-118352438D01*
X128890952Y-118352438D02*
X128843333Y-118400057D01*
X128843333Y-118400057D02*
X128748095Y-118542914D01*
X128748095Y-118542914D02*
X128700476Y-118733390D01*
X128700476Y-118733390D02*
X128700476Y-119114342D01*
X128700476Y-119114342D02*
X128748095Y-119209580D01*
X128748095Y-119209580D02*
X128795714Y-119257200D01*
X128795714Y-119257200D02*
X128890952Y-119304819D01*
X128890952Y-119304819D02*
X129081428Y-119304819D01*
X129081428Y-119304819D02*
X129176666Y-119257200D01*
X129176666Y-119257200D02*
X129224285Y-119209580D01*
X129224285Y-119209580D02*
X129271904Y-119114342D01*
X129271904Y-119114342D02*
X129271904Y-118876247D01*
X129271904Y-118876247D02*
X129224285Y-118781009D01*
X129224285Y-118781009D02*
X129176666Y-118733390D01*
X129176666Y-118733390D02*
X129081428Y-118685771D01*
X129081428Y-118685771D02*
X128890952Y-118685771D01*
X128890952Y-118685771D02*
X128795714Y-118733390D01*
X128795714Y-118733390D02*
X128748095Y-118781009D01*
X128748095Y-118781009D02*
X128700476Y-118876247D01*
X128316779Y-114738866D02*
X129078684Y-114738866D01*
X128697731Y-115119819D02*
X128697731Y-114357914D01*
X133914819Y-135566666D02*
X133438628Y-135899999D01*
X133914819Y-136138094D02*
X132914819Y-136138094D01*
X132914819Y-136138094D02*
X132914819Y-135757142D01*
X132914819Y-135757142D02*
X132962438Y-135661904D01*
X132962438Y-135661904D02*
X133010057Y-135614285D01*
X133010057Y-135614285D02*
X133105295Y-135566666D01*
X133105295Y-135566666D02*
X133248152Y-135566666D01*
X133248152Y-135566666D02*
X133343390Y-135614285D01*
X133343390Y-135614285D02*
X133391009Y-135661904D01*
X133391009Y-135661904D02*
X133438628Y-135757142D01*
X133438628Y-135757142D02*
X133438628Y-136138094D01*
X132914819Y-134709523D02*
X132914819Y-134899999D01*
X132914819Y-134899999D02*
X132962438Y-134995237D01*
X132962438Y-134995237D02*
X133010057Y-135042856D01*
X133010057Y-135042856D02*
X133152914Y-135138094D01*
X133152914Y-135138094D02*
X133343390Y-135185713D01*
X133343390Y-135185713D02*
X133724342Y-135185713D01*
X133724342Y-135185713D02*
X133819580Y-135138094D01*
X133819580Y-135138094D02*
X133867200Y-135090475D01*
X133867200Y-135090475D02*
X133914819Y-134995237D01*
X133914819Y-134995237D02*
X133914819Y-134804761D01*
X133914819Y-134804761D02*
X133867200Y-134709523D01*
X133867200Y-134709523D02*
X133819580Y-134661904D01*
X133819580Y-134661904D02*
X133724342Y-134614285D01*
X133724342Y-134614285D02*
X133486247Y-134614285D01*
X133486247Y-134614285D02*
X133391009Y-134661904D01*
X133391009Y-134661904D02*
X133343390Y-134709523D01*
X133343390Y-134709523D02*
X133295771Y-134804761D01*
X133295771Y-134804761D02*
X133295771Y-134995237D01*
X133295771Y-134995237D02*
X133343390Y-135090475D01*
X133343390Y-135090475D02*
X133391009Y-135138094D01*
X133391009Y-135138094D02*
X133486247Y-135185713D01*
X172559580Y-84972857D02*
X172607200Y-85020476D01*
X172607200Y-85020476D02*
X172654819Y-85163333D01*
X172654819Y-85163333D02*
X172654819Y-85258571D01*
X172654819Y-85258571D02*
X172607200Y-85401428D01*
X172607200Y-85401428D02*
X172511961Y-85496666D01*
X172511961Y-85496666D02*
X172416723Y-85544285D01*
X172416723Y-85544285D02*
X172226247Y-85591904D01*
X172226247Y-85591904D02*
X172083390Y-85591904D01*
X172083390Y-85591904D02*
X171892914Y-85544285D01*
X171892914Y-85544285D02*
X171797676Y-85496666D01*
X171797676Y-85496666D02*
X171702438Y-85401428D01*
X171702438Y-85401428D02*
X171654819Y-85258571D01*
X171654819Y-85258571D02*
X171654819Y-85163333D01*
X171654819Y-85163333D02*
X171702438Y-85020476D01*
X171702438Y-85020476D02*
X171750057Y-84972857D01*
X172654819Y-84020476D02*
X172654819Y-84591904D01*
X172654819Y-84306190D02*
X171654819Y-84306190D01*
X171654819Y-84306190D02*
X171797676Y-84401428D01*
X171797676Y-84401428D02*
X171892914Y-84496666D01*
X171892914Y-84496666D02*
X171940533Y-84591904D01*
X172654819Y-83068095D02*
X172654819Y-83639523D01*
X172654819Y-83353809D02*
X171654819Y-83353809D01*
X171654819Y-83353809D02*
X171797676Y-83449047D01*
X171797676Y-83449047D02*
X171892914Y-83544285D01*
X171892914Y-83544285D02*
X171940533Y-83639523D01*
X158261905Y-59664819D02*
X158261905Y-58664819D01*
X158261905Y-58664819D02*
X158500000Y-58664819D01*
X158500000Y-58664819D02*
X158642857Y-58712438D01*
X158642857Y-58712438D02*
X158738095Y-58807676D01*
X158738095Y-58807676D02*
X158785714Y-58902914D01*
X158785714Y-58902914D02*
X158833333Y-59093390D01*
X158833333Y-59093390D02*
X158833333Y-59236247D01*
X158833333Y-59236247D02*
X158785714Y-59426723D01*
X158785714Y-59426723D02*
X158738095Y-59521961D01*
X158738095Y-59521961D02*
X158642857Y-59617200D01*
X158642857Y-59617200D02*
X158500000Y-59664819D01*
X158500000Y-59664819D02*
X158261905Y-59664819D01*
X159785714Y-59664819D02*
X159214286Y-59664819D01*
X159500000Y-59664819D02*
X159500000Y-58664819D01*
X159500000Y-58664819D02*
X159404762Y-58807676D01*
X159404762Y-58807676D02*
X159309524Y-58902914D01*
X159309524Y-58902914D02*
X159214286Y-58950533D01*
X161474819Y-69676666D02*
X160998628Y-70009999D01*
X161474819Y-70248094D02*
X160474819Y-70248094D01*
X160474819Y-70248094D02*
X160474819Y-69867142D01*
X160474819Y-69867142D02*
X160522438Y-69771904D01*
X160522438Y-69771904D02*
X160570057Y-69724285D01*
X160570057Y-69724285D02*
X160665295Y-69676666D01*
X160665295Y-69676666D02*
X160808152Y-69676666D01*
X160808152Y-69676666D02*
X160903390Y-69724285D01*
X160903390Y-69724285D02*
X160951009Y-69771904D01*
X160951009Y-69771904D02*
X160998628Y-69867142D01*
X160998628Y-69867142D02*
X160998628Y-70248094D01*
X160474819Y-68771904D02*
X160474819Y-69248094D01*
X160474819Y-69248094D02*
X160951009Y-69295713D01*
X160951009Y-69295713D02*
X160903390Y-69248094D01*
X160903390Y-69248094D02*
X160855771Y-69152856D01*
X160855771Y-69152856D02*
X160855771Y-68914761D01*
X160855771Y-68914761D02*
X160903390Y-68819523D01*
X160903390Y-68819523D02*
X160951009Y-68771904D01*
X160951009Y-68771904D02*
X161046247Y-68724285D01*
X161046247Y-68724285D02*
X161284342Y-68724285D01*
X161284342Y-68724285D02*
X161379580Y-68771904D01*
X161379580Y-68771904D02*
X161427200Y-68819523D01*
X161427200Y-68819523D02*
X161474819Y-68914761D01*
X161474819Y-68914761D02*
X161474819Y-69152856D01*
X161474819Y-69152856D02*
X161427200Y-69248094D01*
X161427200Y-69248094D02*
X161379580Y-69295713D01*
X169127142Y-63799580D02*
X169079523Y-63847200D01*
X169079523Y-63847200D02*
X168936666Y-63894819D01*
X168936666Y-63894819D02*
X168841428Y-63894819D01*
X168841428Y-63894819D02*
X168698571Y-63847200D01*
X168698571Y-63847200D02*
X168603333Y-63751961D01*
X168603333Y-63751961D02*
X168555714Y-63656723D01*
X168555714Y-63656723D02*
X168508095Y-63466247D01*
X168508095Y-63466247D02*
X168508095Y-63323390D01*
X168508095Y-63323390D02*
X168555714Y-63132914D01*
X168555714Y-63132914D02*
X168603333Y-63037676D01*
X168603333Y-63037676D02*
X168698571Y-62942438D01*
X168698571Y-62942438D02*
X168841428Y-62894819D01*
X168841428Y-62894819D02*
X168936666Y-62894819D01*
X168936666Y-62894819D02*
X169079523Y-62942438D01*
X169079523Y-62942438D02*
X169127142Y-62990057D01*
X170079523Y-63894819D02*
X169508095Y-63894819D01*
X169793809Y-63894819D02*
X169793809Y-62894819D01*
X169793809Y-62894819D02*
X169698571Y-63037676D01*
X169698571Y-63037676D02*
X169603333Y-63132914D01*
X169603333Y-63132914D02*
X169508095Y-63180533D01*
X170984285Y-62894819D02*
X170508095Y-62894819D01*
X170508095Y-62894819D02*
X170460476Y-63371009D01*
X170460476Y-63371009D02*
X170508095Y-63323390D01*
X170508095Y-63323390D02*
X170603333Y-63275771D01*
X170603333Y-63275771D02*
X170841428Y-63275771D01*
X170841428Y-63275771D02*
X170936666Y-63323390D01*
X170936666Y-63323390D02*
X170984285Y-63371009D01*
X170984285Y-63371009D02*
X171031904Y-63466247D01*
X171031904Y-63466247D02*
X171031904Y-63704342D01*
X171031904Y-63704342D02*
X170984285Y-63799580D01*
X170984285Y-63799580D02*
X170936666Y-63847200D01*
X170936666Y-63847200D02*
X170841428Y-63894819D01*
X170841428Y-63894819D02*
X170603333Y-63894819D01*
X170603333Y-63894819D02*
X170508095Y-63847200D01*
X170508095Y-63847200D02*
X170460476Y-63799580D01*
X177203333Y-74769580D02*
X177155714Y-74817200D01*
X177155714Y-74817200D02*
X177012857Y-74864819D01*
X177012857Y-74864819D02*
X176917619Y-74864819D01*
X176917619Y-74864819D02*
X176774762Y-74817200D01*
X176774762Y-74817200D02*
X176679524Y-74721961D01*
X176679524Y-74721961D02*
X176631905Y-74626723D01*
X176631905Y-74626723D02*
X176584286Y-74436247D01*
X176584286Y-74436247D02*
X176584286Y-74293390D01*
X176584286Y-74293390D02*
X176631905Y-74102914D01*
X176631905Y-74102914D02*
X176679524Y-74007676D01*
X176679524Y-74007676D02*
X176774762Y-73912438D01*
X176774762Y-73912438D02*
X176917619Y-73864819D01*
X176917619Y-73864819D02*
X177012857Y-73864819D01*
X177012857Y-73864819D02*
X177155714Y-73912438D01*
X177155714Y-73912438D02*
X177203333Y-73960057D01*
X177536667Y-73864819D02*
X178203333Y-73864819D01*
X178203333Y-73864819D02*
X177774762Y-74864819D01*
X158783333Y-74589580D02*
X158735714Y-74637200D01*
X158735714Y-74637200D02*
X158592857Y-74684819D01*
X158592857Y-74684819D02*
X158497619Y-74684819D01*
X158497619Y-74684819D02*
X158354762Y-74637200D01*
X158354762Y-74637200D02*
X158259524Y-74541961D01*
X158259524Y-74541961D02*
X158211905Y-74446723D01*
X158211905Y-74446723D02*
X158164286Y-74256247D01*
X158164286Y-74256247D02*
X158164286Y-74113390D01*
X158164286Y-74113390D02*
X158211905Y-73922914D01*
X158211905Y-73922914D02*
X158259524Y-73827676D01*
X158259524Y-73827676D02*
X158354762Y-73732438D01*
X158354762Y-73732438D02*
X158497619Y-73684819D01*
X158497619Y-73684819D02*
X158592857Y-73684819D01*
X158592857Y-73684819D02*
X158735714Y-73732438D01*
X158735714Y-73732438D02*
X158783333Y-73780057D01*
X159259524Y-74684819D02*
X159450000Y-74684819D01*
X159450000Y-74684819D02*
X159545238Y-74637200D01*
X159545238Y-74637200D02*
X159592857Y-74589580D01*
X159592857Y-74589580D02*
X159688095Y-74446723D01*
X159688095Y-74446723D02*
X159735714Y-74256247D01*
X159735714Y-74256247D02*
X159735714Y-73875295D01*
X159735714Y-73875295D02*
X159688095Y-73780057D01*
X159688095Y-73780057D02*
X159640476Y-73732438D01*
X159640476Y-73732438D02*
X159545238Y-73684819D01*
X159545238Y-73684819D02*
X159354762Y-73684819D01*
X159354762Y-73684819D02*
X159259524Y-73732438D01*
X159259524Y-73732438D02*
X159211905Y-73780057D01*
X159211905Y-73780057D02*
X159164286Y-73875295D01*
X159164286Y-73875295D02*
X159164286Y-74113390D01*
X159164286Y-74113390D02*
X159211905Y-74208628D01*
X159211905Y-74208628D02*
X159259524Y-74256247D01*
X159259524Y-74256247D02*
X159354762Y-74303866D01*
X159354762Y-74303866D02*
X159545238Y-74303866D01*
X159545238Y-74303866D02*
X159640476Y-74256247D01*
X159640476Y-74256247D02*
X159688095Y-74208628D01*
X159688095Y-74208628D02*
X159735714Y-74113390D01*
X155633333Y-67169580D02*
X155585714Y-67217200D01*
X155585714Y-67217200D02*
X155442857Y-67264819D01*
X155442857Y-67264819D02*
X155347619Y-67264819D01*
X155347619Y-67264819D02*
X155204762Y-67217200D01*
X155204762Y-67217200D02*
X155109524Y-67121961D01*
X155109524Y-67121961D02*
X155061905Y-67026723D01*
X155061905Y-67026723D02*
X155014286Y-66836247D01*
X155014286Y-66836247D02*
X155014286Y-66693390D01*
X155014286Y-66693390D02*
X155061905Y-66502914D01*
X155061905Y-66502914D02*
X155109524Y-66407676D01*
X155109524Y-66407676D02*
X155204762Y-66312438D01*
X155204762Y-66312438D02*
X155347619Y-66264819D01*
X155347619Y-66264819D02*
X155442857Y-66264819D01*
X155442857Y-66264819D02*
X155585714Y-66312438D01*
X155585714Y-66312438D02*
X155633333Y-66360057D01*
X156538095Y-66264819D02*
X156061905Y-66264819D01*
X156061905Y-66264819D02*
X156014286Y-66741009D01*
X156014286Y-66741009D02*
X156061905Y-66693390D01*
X156061905Y-66693390D02*
X156157143Y-66645771D01*
X156157143Y-66645771D02*
X156395238Y-66645771D01*
X156395238Y-66645771D02*
X156490476Y-66693390D01*
X156490476Y-66693390D02*
X156538095Y-66741009D01*
X156538095Y-66741009D02*
X156585714Y-66836247D01*
X156585714Y-66836247D02*
X156585714Y-67074342D01*
X156585714Y-67074342D02*
X156538095Y-67169580D01*
X156538095Y-67169580D02*
X156490476Y-67217200D01*
X156490476Y-67217200D02*
X156395238Y-67264819D01*
X156395238Y-67264819D02*
X156157143Y-67264819D01*
X156157143Y-67264819D02*
X156061905Y-67217200D01*
X156061905Y-67217200D02*
X156014286Y-67169580D01*
X159866666Y-56234819D02*
X159866666Y-56949104D01*
X159866666Y-56949104D02*
X159819047Y-57091961D01*
X159819047Y-57091961D02*
X159723809Y-57187200D01*
X159723809Y-57187200D02*
X159580952Y-57234819D01*
X159580952Y-57234819D02*
X159485714Y-57234819D01*
X160247619Y-56234819D02*
X160866666Y-56234819D01*
X160866666Y-56234819D02*
X160533333Y-56615771D01*
X160533333Y-56615771D02*
X160676190Y-56615771D01*
X160676190Y-56615771D02*
X160771428Y-56663390D01*
X160771428Y-56663390D02*
X160819047Y-56711009D01*
X160819047Y-56711009D02*
X160866666Y-56806247D01*
X160866666Y-56806247D02*
X160866666Y-57044342D01*
X160866666Y-57044342D02*
X160819047Y-57139580D01*
X160819047Y-57139580D02*
X160771428Y-57187200D01*
X160771428Y-57187200D02*
X160676190Y-57234819D01*
X160676190Y-57234819D02*
X160390476Y-57234819D01*
X160390476Y-57234819D02*
X160295238Y-57187200D01*
X160295238Y-57187200D02*
X160247619Y-57139580D01*
X177067125Y-70864819D02*
X176733792Y-70388628D01*
X176495697Y-70864819D02*
X176495697Y-69864819D01*
X176495697Y-69864819D02*
X176876649Y-69864819D01*
X176876649Y-69864819D02*
X176971887Y-69912438D01*
X176971887Y-69912438D02*
X177019506Y-69960057D01*
X177019506Y-69960057D02*
X177067125Y-70055295D01*
X177067125Y-70055295D02*
X177067125Y-70198152D01*
X177067125Y-70198152D02*
X177019506Y-70293390D01*
X177019506Y-70293390D02*
X176971887Y-70341009D01*
X176971887Y-70341009D02*
X176876649Y-70388628D01*
X176876649Y-70388628D02*
X176495697Y-70388628D01*
X177543316Y-70864819D02*
X177733792Y-70864819D01*
X177733792Y-70864819D02*
X177829030Y-70817200D01*
X177829030Y-70817200D02*
X177876649Y-70769580D01*
X177876649Y-70769580D02*
X177971887Y-70626723D01*
X177971887Y-70626723D02*
X178019506Y-70436247D01*
X178019506Y-70436247D02*
X178019506Y-70055295D01*
X178019506Y-70055295D02*
X177971887Y-69960057D01*
X177971887Y-69960057D02*
X177924268Y-69912438D01*
X177924268Y-69912438D02*
X177829030Y-69864819D01*
X177829030Y-69864819D02*
X177638554Y-69864819D01*
X177638554Y-69864819D02*
X177543316Y-69912438D01*
X177543316Y-69912438D02*
X177495697Y-69960057D01*
X177495697Y-69960057D02*
X177448078Y-70055295D01*
X177448078Y-70055295D02*
X177448078Y-70293390D01*
X177448078Y-70293390D02*
X177495697Y-70388628D01*
X177495697Y-70388628D02*
X177543316Y-70436247D01*
X177543316Y-70436247D02*
X177638554Y-70483866D01*
X177638554Y-70483866D02*
X177829030Y-70483866D01*
X177829030Y-70483866D02*
X177924268Y-70436247D01*
X177924268Y-70436247D02*
X177971887Y-70388628D01*
X177971887Y-70388628D02*
X178019506Y-70293390D01*
X159837142Y-124319580D02*
X159789523Y-124367200D01*
X159789523Y-124367200D02*
X159646666Y-124414819D01*
X159646666Y-124414819D02*
X159551428Y-124414819D01*
X159551428Y-124414819D02*
X159408571Y-124367200D01*
X159408571Y-124367200D02*
X159313333Y-124271961D01*
X159313333Y-124271961D02*
X159265714Y-124176723D01*
X159265714Y-124176723D02*
X159218095Y-123986247D01*
X159218095Y-123986247D02*
X159218095Y-123843390D01*
X159218095Y-123843390D02*
X159265714Y-123652914D01*
X159265714Y-123652914D02*
X159313333Y-123557676D01*
X159313333Y-123557676D02*
X159408571Y-123462438D01*
X159408571Y-123462438D02*
X159551428Y-123414819D01*
X159551428Y-123414819D02*
X159646666Y-123414819D01*
X159646666Y-123414819D02*
X159789523Y-123462438D01*
X159789523Y-123462438D02*
X159837142Y-123510057D01*
X160789523Y-124414819D02*
X160218095Y-124414819D01*
X160503809Y-124414819D02*
X160503809Y-123414819D01*
X160503809Y-123414819D02*
X160408571Y-123557676D01*
X160408571Y-123557676D02*
X160313333Y-123652914D01*
X160313333Y-123652914D02*
X160218095Y-123700533D01*
X161122857Y-123414819D02*
X161789523Y-123414819D01*
X161789523Y-123414819D02*
X161360952Y-124414819D01*
X160133220Y-128251133D02*
X159371316Y-128251133D01*
X159752268Y-127870180D02*
X159752268Y-128632085D01*
X107347142Y-64329580D02*
X107299523Y-64377200D01*
X107299523Y-64377200D02*
X107156666Y-64424819D01*
X107156666Y-64424819D02*
X107061428Y-64424819D01*
X107061428Y-64424819D02*
X106918571Y-64377200D01*
X106918571Y-64377200D02*
X106823333Y-64281961D01*
X106823333Y-64281961D02*
X106775714Y-64186723D01*
X106775714Y-64186723D02*
X106728095Y-63996247D01*
X106728095Y-63996247D02*
X106728095Y-63853390D01*
X106728095Y-63853390D02*
X106775714Y-63662914D01*
X106775714Y-63662914D02*
X106823333Y-63567676D01*
X106823333Y-63567676D02*
X106918571Y-63472438D01*
X106918571Y-63472438D02*
X107061428Y-63424819D01*
X107061428Y-63424819D02*
X107156666Y-63424819D01*
X107156666Y-63424819D02*
X107299523Y-63472438D01*
X107299523Y-63472438D02*
X107347142Y-63520057D01*
X107728095Y-63520057D02*
X107775714Y-63472438D01*
X107775714Y-63472438D02*
X107870952Y-63424819D01*
X107870952Y-63424819D02*
X108109047Y-63424819D01*
X108109047Y-63424819D02*
X108204285Y-63472438D01*
X108204285Y-63472438D02*
X108251904Y-63520057D01*
X108251904Y-63520057D02*
X108299523Y-63615295D01*
X108299523Y-63615295D02*
X108299523Y-63710533D01*
X108299523Y-63710533D02*
X108251904Y-63853390D01*
X108251904Y-63853390D02*
X107680476Y-64424819D01*
X107680476Y-64424819D02*
X108299523Y-64424819D01*
X108918571Y-63424819D02*
X109013809Y-63424819D01*
X109013809Y-63424819D02*
X109109047Y-63472438D01*
X109109047Y-63472438D02*
X109156666Y-63520057D01*
X109156666Y-63520057D02*
X109204285Y-63615295D01*
X109204285Y-63615295D02*
X109251904Y-63805771D01*
X109251904Y-63805771D02*
X109251904Y-64043866D01*
X109251904Y-64043866D02*
X109204285Y-64234342D01*
X109204285Y-64234342D02*
X109156666Y-64329580D01*
X109156666Y-64329580D02*
X109109047Y-64377200D01*
X109109047Y-64377200D02*
X109013809Y-64424819D01*
X109013809Y-64424819D02*
X108918571Y-64424819D01*
X108918571Y-64424819D02*
X108823333Y-64377200D01*
X108823333Y-64377200D02*
X108775714Y-64329580D01*
X108775714Y-64329580D02*
X108728095Y-64234342D01*
X108728095Y-64234342D02*
X108680476Y-64043866D01*
X108680476Y-64043866D02*
X108680476Y-63805771D01*
X108680476Y-63805771D02*
X108728095Y-63615295D01*
X108728095Y-63615295D02*
X108775714Y-63520057D01*
X108775714Y-63520057D02*
X108823333Y-63472438D01*
X108823333Y-63472438D02*
X108918571Y-63424819D01*
X173714819Y-77206666D02*
X173238628Y-77539999D01*
X173714819Y-77778094D02*
X172714819Y-77778094D01*
X172714819Y-77778094D02*
X172714819Y-77397142D01*
X172714819Y-77397142D02*
X172762438Y-77301904D01*
X172762438Y-77301904D02*
X172810057Y-77254285D01*
X172810057Y-77254285D02*
X172905295Y-77206666D01*
X172905295Y-77206666D02*
X173048152Y-77206666D01*
X173048152Y-77206666D02*
X173143390Y-77254285D01*
X173143390Y-77254285D02*
X173191009Y-77301904D01*
X173191009Y-77301904D02*
X173238628Y-77397142D01*
X173238628Y-77397142D02*
X173238628Y-77778094D01*
X173048152Y-76349523D02*
X173714819Y-76349523D01*
X172667200Y-76587618D02*
X173381485Y-76825713D01*
X173381485Y-76825713D02*
X173381485Y-76206666D01*
X159677142Y-115149580D02*
X159629523Y-115197200D01*
X159629523Y-115197200D02*
X159486666Y-115244819D01*
X159486666Y-115244819D02*
X159391428Y-115244819D01*
X159391428Y-115244819D02*
X159248571Y-115197200D01*
X159248571Y-115197200D02*
X159153333Y-115101961D01*
X159153333Y-115101961D02*
X159105714Y-115006723D01*
X159105714Y-115006723D02*
X159058095Y-114816247D01*
X159058095Y-114816247D02*
X159058095Y-114673390D01*
X159058095Y-114673390D02*
X159105714Y-114482914D01*
X159105714Y-114482914D02*
X159153333Y-114387676D01*
X159153333Y-114387676D02*
X159248571Y-114292438D01*
X159248571Y-114292438D02*
X159391428Y-114244819D01*
X159391428Y-114244819D02*
X159486666Y-114244819D01*
X159486666Y-114244819D02*
X159629523Y-114292438D01*
X159629523Y-114292438D02*
X159677142Y-114340057D01*
X160629523Y-115244819D02*
X160058095Y-115244819D01*
X160343809Y-115244819D02*
X160343809Y-114244819D01*
X160343809Y-114244819D02*
X160248571Y-114387676D01*
X160248571Y-114387676D02*
X160153333Y-114482914D01*
X160153333Y-114482914D02*
X160058095Y-114530533D01*
X161200952Y-114673390D02*
X161105714Y-114625771D01*
X161105714Y-114625771D02*
X161058095Y-114578152D01*
X161058095Y-114578152D02*
X161010476Y-114482914D01*
X161010476Y-114482914D02*
X161010476Y-114435295D01*
X161010476Y-114435295D02*
X161058095Y-114340057D01*
X161058095Y-114340057D02*
X161105714Y-114292438D01*
X161105714Y-114292438D02*
X161200952Y-114244819D01*
X161200952Y-114244819D02*
X161391428Y-114244819D01*
X161391428Y-114244819D02*
X161486666Y-114292438D01*
X161486666Y-114292438D02*
X161534285Y-114340057D01*
X161534285Y-114340057D02*
X161581904Y-114435295D01*
X161581904Y-114435295D02*
X161581904Y-114482914D01*
X161581904Y-114482914D02*
X161534285Y-114578152D01*
X161534285Y-114578152D02*
X161486666Y-114625771D01*
X161486666Y-114625771D02*
X161391428Y-114673390D01*
X161391428Y-114673390D02*
X161200952Y-114673390D01*
X161200952Y-114673390D02*
X161105714Y-114721009D01*
X161105714Y-114721009D02*
X161058095Y-114768628D01*
X161058095Y-114768628D02*
X161010476Y-114863866D01*
X161010476Y-114863866D02*
X161010476Y-115054342D01*
X161010476Y-115054342D02*
X161058095Y-115149580D01*
X161058095Y-115149580D02*
X161105714Y-115197200D01*
X161105714Y-115197200D02*
X161200952Y-115244819D01*
X161200952Y-115244819D02*
X161391428Y-115244819D01*
X161391428Y-115244819D02*
X161486666Y-115197200D01*
X161486666Y-115197200D02*
X161534285Y-115149580D01*
X161534285Y-115149580D02*
X161581904Y-115054342D01*
X161581904Y-115054342D02*
X161581904Y-114863866D01*
X161581904Y-114863866D02*
X161534285Y-114768628D01*
X161534285Y-114768628D02*
X161486666Y-114721009D01*
X161486666Y-114721009D02*
X161391428Y-114673390D01*
X160053220Y-119041133D02*
X159291316Y-119041133D01*
X159672268Y-118660180D02*
X159672268Y-119422085D01*
X172191905Y-59944819D02*
X172191905Y-58944819D01*
X172191905Y-58944819D02*
X172430000Y-58944819D01*
X172430000Y-58944819D02*
X172572857Y-58992438D01*
X172572857Y-58992438D02*
X172668095Y-59087676D01*
X172668095Y-59087676D02*
X172715714Y-59182914D01*
X172715714Y-59182914D02*
X172763333Y-59373390D01*
X172763333Y-59373390D02*
X172763333Y-59516247D01*
X172763333Y-59516247D02*
X172715714Y-59706723D01*
X172715714Y-59706723D02*
X172668095Y-59801961D01*
X172668095Y-59801961D02*
X172572857Y-59897200D01*
X172572857Y-59897200D02*
X172430000Y-59944819D01*
X172430000Y-59944819D02*
X172191905Y-59944819D01*
X173144286Y-59040057D02*
X173191905Y-58992438D01*
X173191905Y-58992438D02*
X173287143Y-58944819D01*
X173287143Y-58944819D02*
X173525238Y-58944819D01*
X173525238Y-58944819D02*
X173620476Y-58992438D01*
X173620476Y-58992438D02*
X173668095Y-59040057D01*
X173668095Y-59040057D02*
X173715714Y-59135295D01*
X173715714Y-59135295D02*
X173715714Y-59230533D01*
X173715714Y-59230533D02*
X173668095Y-59373390D01*
X173668095Y-59373390D02*
X173096667Y-59944819D01*
X173096667Y-59944819D02*
X173715714Y-59944819D01*
X99263333Y-119264819D02*
X98787143Y-119264819D01*
X98787143Y-119264819D02*
X98787143Y-118264819D01*
X100120476Y-119264819D02*
X99549048Y-119264819D01*
X99834762Y-119264819D02*
X99834762Y-118264819D01*
X99834762Y-118264819D02*
X99739524Y-118407676D01*
X99739524Y-118407676D02*
X99644286Y-118502914D01*
X99644286Y-118502914D02*
X99549048Y-118550533D01*
X135724819Y-135581666D02*
X135248628Y-135914999D01*
X135724819Y-136153094D02*
X134724819Y-136153094D01*
X134724819Y-136153094D02*
X134724819Y-135772142D01*
X134724819Y-135772142D02*
X134772438Y-135676904D01*
X134772438Y-135676904D02*
X134820057Y-135629285D01*
X134820057Y-135629285D02*
X134915295Y-135581666D01*
X134915295Y-135581666D02*
X135058152Y-135581666D01*
X135058152Y-135581666D02*
X135153390Y-135629285D01*
X135153390Y-135629285D02*
X135201009Y-135676904D01*
X135201009Y-135676904D02*
X135248628Y-135772142D01*
X135248628Y-135772142D02*
X135248628Y-136153094D01*
X134724819Y-135248332D02*
X134724819Y-134581666D01*
X134724819Y-134581666D02*
X135724819Y-135010237D01*
X130223333Y-83129580D02*
X130175714Y-83177200D01*
X130175714Y-83177200D02*
X130032857Y-83224819D01*
X130032857Y-83224819D02*
X129937619Y-83224819D01*
X129937619Y-83224819D02*
X129794762Y-83177200D01*
X129794762Y-83177200D02*
X129699524Y-83081961D01*
X129699524Y-83081961D02*
X129651905Y-82986723D01*
X129651905Y-82986723D02*
X129604286Y-82796247D01*
X129604286Y-82796247D02*
X129604286Y-82653390D01*
X129604286Y-82653390D02*
X129651905Y-82462914D01*
X129651905Y-82462914D02*
X129699524Y-82367676D01*
X129699524Y-82367676D02*
X129794762Y-82272438D01*
X129794762Y-82272438D02*
X129937619Y-82224819D01*
X129937619Y-82224819D02*
X130032857Y-82224819D01*
X130032857Y-82224819D02*
X130175714Y-82272438D01*
X130175714Y-82272438D02*
X130223333Y-82320057D01*
X131080476Y-82558152D02*
X131080476Y-83224819D01*
X130842381Y-82177200D02*
X130604286Y-82891485D01*
X130604286Y-82891485D02*
X131223333Y-82891485D01*
X147127142Y-103594819D02*
X146793809Y-103118628D01*
X146555714Y-103594819D02*
X146555714Y-102594819D01*
X146555714Y-102594819D02*
X146936666Y-102594819D01*
X146936666Y-102594819D02*
X147031904Y-102642438D01*
X147031904Y-102642438D02*
X147079523Y-102690057D01*
X147079523Y-102690057D02*
X147127142Y-102785295D01*
X147127142Y-102785295D02*
X147127142Y-102928152D01*
X147127142Y-102928152D02*
X147079523Y-103023390D01*
X147079523Y-103023390D02*
X147031904Y-103071009D01*
X147031904Y-103071009D02*
X146936666Y-103118628D01*
X146936666Y-103118628D02*
X146555714Y-103118628D01*
X148079523Y-103594819D02*
X147508095Y-103594819D01*
X147793809Y-103594819D02*
X147793809Y-102594819D01*
X147793809Y-102594819D02*
X147698571Y-102737676D01*
X147698571Y-102737676D02*
X147603333Y-102832914D01*
X147603333Y-102832914D02*
X147508095Y-102880533D01*
X148698571Y-102594819D02*
X148793809Y-102594819D01*
X148793809Y-102594819D02*
X148889047Y-102642438D01*
X148889047Y-102642438D02*
X148936666Y-102690057D01*
X148936666Y-102690057D02*
X148984285Y-102785295D01*
X148984285Y-102785295D02*
X149031904Y-102975771D01*
X149031904Y-102975771D02*
X149031904Y-103213866D01*
X149031904Y-103213866D02*
X148984285Y-103404342D01*
X148984285Y-103404342D02*
X148936666Y-103499580D01*
X148936666Y-103499580D02*
X148889047Y-103547200D01*
X148889047Y-103547200D02*
X148793809Y-103594819D01*
X148793809Y-103594819D02*
X148698571Y-103594819D01*
X148698571Y-103594819D02*
X148603333Y-103547200D01*
X148603333Y-103547200D02*
X148555714Y-103499580D01*
X148555714Y-103499580D02*
X148508095Y-103404342D01*
X148508095Y-103404342D02*
X148460476Y-103213866D01*
X148460476Y-103213866D02*
X148460476Y-102975771D01*
X148460476Y-102975771D02*
X148508095Y-102785295D01*
X148508095Y-102785295D02*
X148555714Y-102690057D01*
X148555714Y-102690057D02*
X148603333Y-102642438D01*
X148603333Y-102642438D02*
X148698571Y-102594819D01*
X168704819Y-80526666D02*
X168228628Y-80859999D01*
X168704819Y-81098094D02*
X167704819Y-81098094D01*
X167704819Y-81098094D02*
X167704819Y-80717142D01*
X167704819Y-80717142D02*
X167752438Y-80621904D01*
X167752438Y-80621904D02*
X167800057Y-80574285D01*
X167800057Y-80574285D02*
X167895295Y-80526666D01*
X167895295Y-80526666D02*
X168038152Y-80526666D01*
X168038152Y-80526666D02*
X168133390Y-80574285D01*
X168133390Y-80574285D02*
X168181009Y-80621904D01*
X168181009Y-80621904D02*
X168228628Y-80717142D01*
X168228628Y-80717142D02*
X168228628Y-81098094D01*
X167704819Y-80193332D02*
X167704819Y-79574285D01*
X167704819Y-79574285D02*
X168085771Y-79907618D01*
X168085771Y-79907618D02*
X168085771Y-79764761D01*
X168085771Y-79764761D02*
X168133390Y-79669523D01*
X168133390Y-79669523D02*
X168181009Y-79621904D01*
X168181009Y-79621904D02*
X168276247Y-79574285D01*
X168276247Y-79574285D02*
X168514342Y-79574285D01*
X168514342Y-79574285D02*
X168609580Y-79621904D01*
X168609580Y-79621904D02*
X168657200Y-79669523D01*
X168657200Y-79669523D02*
X168704819Y-79764761D01*
X168704819Y-79764761D02*
X168704819Y-80050475D01*
X168704819Y-80050475D02*
X168657200Y-80145713D01*
X168657200Y-80145713D02*
X168609580Y-80193332D01*
X162749580Y-60676666D02*
X162797200Y-60724285D01*
X162797200Y-60724285D02*
X162844819Y-60867142D01*
X162844819Y-60867142D02*
X162844819Y-60962380D01*
X162844819Y-60962380D02*
X162797200Y-61105237D01*
X162797200Y-61105237D02*
X162701961Y-61200475D01*
X162701961Y-61200475D02*
X162606723Y-61248094D01*
X162606723Y-61248094D02*
X162416247Y-61295713D01*
X162416247Y-61295713D02*
X162273390Y-61295713D01*
X162273390Y-61295713D02*
X162082914Y-61248094D01*
X162082914Y-61248094D02*
X161987676Y-61200475D01*
X161987676Y-61200475D02*
X161892438Y-61105237D01*
X161892438Y-61105237D02*
X161844819Y-60962380D01*
X161844819Y-60962380D02*
X161844819Y-60867142D01*
X161844819Y-60867142D02*
X161892438Y-60724285D01*
X161892438Y-60724285D02*
X161940057Y-60676666D01*
X161940057Y-60295713D02*
X161892438Y-60248094D01*
X161892438Y-60248094D02*
X161844819Y-60152856D01*
X161844819Y-60152856D02*
X161844819Y-59914761D01*
X161844819Y-59914761D02*
X161892438Y-59819523D01*
X161892438Y-59819523D02*
X161940057Y-59771904D01*
X161940057Y-59771904D02*
X162035295Y-59724285D01*
X162035295Y-59724285D02*
X162130533Y-59724285D01*
X162130533Y-59724285D02*
X162273390Y-59771904D01*
X162273390Y-59771904D02*
X162844819Y-60343332D01*
X162844819Y-60343332D02*
X162844819Y-59724285D01*
X130083333Y-68259580D02*
X130035714Y-68307200D01*
X130035714Y-68307200D02*
X129892857Y-68354819D01*
X129892857Y-68354819D02*
X129797619Y-68354819D01*
X129797619Y-68354819D02*
X129654762Y-68307200D01*
X129654762Y-68307200D02*
X129559524Y-68211961D01*
X129559524Y-68211961D02*
X129511905Y-68116723D01*
X129511905Y-68116723D02*
X129464286Y-67926247D01*
X129464286Y-67926247D02*
X129464286Y-67783390D01*
X129464286Y-67783390D02*
X129511905Y-67592914D01*
X129511905Y-67592914D02*
X129559524Y-67497676D01*
X129559524Y-67497676D02*
X129654762Y-67402438D01*
X129654762Y-67402438D02*
X129797619Y-67354819D01*
X129797619Y-67354819D02*
X129892857Y-67354819D01*
X129892857Y-67354819D02*
X130035714Y-67402438D01*
X130035714Y-67402438D02*
X130083333Y-67450057D01*
X131035714Y-68354819D02*
X130464286Y-68354819D01*
X130750000Y-68354819D02*
X130750000Y-67354819D01*
X130750000Y-67354819D02*
X130654762Y-67497676D01*
X130654762Y-67497676D02*
X130559524Y-67592914D01*
X130559524Y-67592914D02*
X130464286Y-67640533D01*
X156109580Y-70172857D02*
X156157200Y-70220476D01*
X156157200Y-70220476D02*
X156204819Y-70363333D01*
X156204819Y-70363333D02*
X156204819Y-70458571D01*
X156204819Y-70458571D02*
X156157200Y-70601428D01*
X156157200Y-70601428D02*
X156061961Y-70696666D01*
X156061961Y-70696666D02*
X155966723Y-70744285D01*
X155966723Y-70744285D02*
X155776247Y-70791904D01*
X155776247Y-70791904D02*
X155633390Y-70791904D01*
X155633390Y-70791904D02*
X155442914Y-70744285D01*
X155442914Y-70744285D02*
X155347676Y-70696666D01*
X155347676Y-70696666D02*
X155252438Y-70601428D01*
X155252438Y-70601428D02*
X155204819Y-70458571D01*
X155204819Y-70458571D02*
X155204819Y-70363333D01*
X155204819Y-70363333D02*
X155252438Y-70220476D01*
X155252438Y-70220476D02*
X155300057Y-70172857D01*
X156204819Y-69220476D02*
X156204819Y-69791904D01*
X156204819Y-69506190D02*
X155204819Y-69506190D01*
X155204819Y-69506190D02*
X155347676Y-69601428D01*
X155347676Y-69601428D02*
X155442914Y-69696666D01*
X155442914Y-69696666D02*
X155490533Y-69791904D01*
X155204819Y-68601428D02*
X155204819Y-68506190D01*
X155204819Y-68506190D02*
X155252438Y-68410952D01*
X155252438Y-68410952D02*
X155300057Y-68363333D01*
X155300057Y-68363333D02*
X155395295Y-68315714D01*
X155395295Y-68315714D02*
X155585771Y-68268095D01*
X155585771Y-68268095D02*
X155823866Y-68268095D01*
X155823866Y-68268095D02*
X156014342Y-68315714D01*
X156014342Y-68315714D02*
X156109580Y-68363333D01*
X156109580Y-68363333D02*
X156157200Y-68410952D01*
X156157200Y-68410952D02*
X156204819Y-68506190D01*
X156204819Y-68506190D02*
X156204819Y-68601428D01*
X156204819Y-68601428D02*
X156157200Y-68696666D01*
X156157200Y-68696666D02*
X156109580Y-68744285D01*
X156109580Y-68744285D02*
X156014342Y-68791904D01*
X156014342Y-68791904D02*
X155823866Y-68839523D01*
X155823866Y-68839523D02*
X155585771Y-68839523D01*
X155585771Y-68839523D02*
X155395295Y-68791904D01*
X155395295Y-68791904D02*
X155300057Y-68744285D01*
X155300057Y-68744285D02*
X155252438Y-68696666D01*
X155252438Y-68696666D02*
X155204819Y-68601428D01*
X168264819Y-59136666D02*
X167788628Y-59469999D01*
X168264819Y-59708094D02*
X167264819Y-59708094D01*
X167264819Y-59708094D02*
X167264819Y-59327142D01*
X167264819Y-59327142D02*
X167312438Y-59231904D01*
X167312438Y-59231904D02*
X167360057Y-59184285D01*
X167360057Y-59184285D02*
X167455295Y-59136666D01*
X167455295Y-59136666D02*
X167598152Y-59136666D01*
X167598152Y-59136666D02*
X167693390Y-59184285D01*
X167693390Y-59184285D02*
X167741009Y-59231904D01*
X167741009Y-59231904D02*
X167788628Y-59327142D01*
X167788628Y-59327142D02*
X167788628Y-59708094D01*
X167360057Y-58755713D02*
X167312438Y-58708094D01*
X167312438Y-58708094D02*
X167264819Y-58612856D01*
X167264819Y-58612856D02*
X167264819Y-58374761D01*
X167264819Y-58374761D02*
X167312438Y-58279523D01*
X167312438Y-58279523D02*
X167360057Y-58231904D01*
X167360057Y-58231904D02*
X167455295Y-58184285D01*
X167455295Y-58184285D02*
X167550533Y-58184285D01*
X167550533Y-58184285D02*
X167693390Y-58231904D01*
X167693390Y-58231904D02*
X168264819Y-58803332D01*
X168264819Y-58803332D02*
X168264819Y-58184285D01*
X162481091Y-63583529D02*
X162433472Y-63631149D01*
X162433472Y-63631149D02*
X162290615Y-63678768D01*
X162290615Y-63678768D02*
X162195377Y-63678768D01*
X162195377Y-63678768D02*
X162052520Y-63631149D01*
X162052520Y-63631149D02*
X161957282Y-63535910D01*
X161957282Y-63535910D02*
X161909663Y-63440672D01*
X161909663Y-63440672D02*
X161862044Y-63250196D01*
X161862044Y-63250196D02*
X161862044Y-63107339D01*
X161862044Y-63107339D02*
X161909663Y-62916863D01*
X161909663Y-62916863D02*
X161957282Y-62821625D01*
X161957282Y-62821625D02*
X162052520Y-62726387D01*
X162052520Y-62726387D02*
X162195377Y-62678768D01*
X162195377Y-62678768D02*
X162290615Y-62678768D01*
X162290615Y-62678768D02*
X162433472Y-62726387D01*
X162433472Y-62726387D02*
X162481091Y-62774006D01*
X163433472Y-63678768D02*
X162862044Y-63678768D01*
X163147758Y-63678768D02*
X163147758Y-62678768D01*
X163147758Y-62678768D02*
X163052520Y-62821625D01*
X163052520Y-62821625D02*
X162957282Y-62916863D01*
X162957282Y-62916863D02*
X162862044Y-62964482D01*
X163766806Y-62678768D02*
X164385853Y-62678768D01*
X164385853Y-62678768D02*
X164052520Y-63059720D01*
X164052520Y-63059720D02*
X164195377Y-63059720D01*
X164195377Y-63059720D02*
X164290615Y-63107339D01*
X164290615Y-63107339D02*
X164338234Y-63154958D01*
X164338234Y-63154958D02*
X164385853Y-63250196D01*
X164385853Y-63250196D02*
X164385853Y-63488291D01*
X164385853Y-63488291D02*
X164338234Y-63583529D01*
X164338234Y-63583529D02*
X164290615Y-63631149D01*
X164290615Y-63631149D02*
X164195377Y-63678768D01*
X164195377Y-63678768D02*
X163909663Y-63678768D01*
X163909663Y-63678768D02*
X163814425Y-63631149D01*
X163814425Y-63631149D02*
X163766806Y-63583529D01*
X177248095Y-82704819D02*
X177248095Y-83514342D01*
X177248095Y-83514342D02*
X177295714Y-83609580D01*
X177295714Y-83609580D02*
X177343333Y-83657200D01*
X177343333Y-83657200D02*
X177438571Y-83704819D01*
X177438571Y-83704819D02*
X177629047Y-83704819D01*
X177629047Y-83704819D02*
X177724285Y-83657200D01*
X177724285Y-83657200D02*
X177771904Y-83609580D01*
X177771904Y-83609580D02*
X177819523Y-83514342D01*
X177819523Y-83514342D02*
X177819523Y-82704819D01*
X178248095Y-82800057D02*
X178295714Y-82752438D01*
X178295714Y-82752438D02*
X178390952Y-82704819D01*
X178390952Y-82704819D02*
X178629047Y-82704819D01*
X178629047Y-82704819D02*
X178724285Y-82752438D01*
X178724285Y-82752438D02*
X178771904Y-82800057D01*
X178771904Y-82800057D02*
X178819523Y-82895295D01*
X178819523Y-82895295D02*
X178819523Y-82990533D01*
X178819523Y-82990533D02*
X178771904Y-83133390D01*
X178771904Y-83133390D02*
X178200476Y-83704819D01*
X178200476Y-83704819D02*
X178819523Y-83704819D01*
X163928095Y-73214819D02*
X163928095Y-74024342D01*
X163928095Y-74024342D02*
X163975714Y-74119580D01*
X163975714Y-74119580D02*
X164023333Y-74167200D01*
X164023333Y-74167200D02*
X164118571Y-74214819D01*
X164118571Y-74214819D02*
X164309047Y-74214819D01*
X164309047Y-74214819D02*
X164404285Y-74167200D01*
X164404285Y-74167200D02*
X164451904Y-74119580D01*
X164451904Y-74119580D02*
X164499523Y-74024342D01*
X164499523Y-74024342D02*
X164499523Y-73214819D01*
X165499523Y-74214819D02*
X164928095Y-74214819D01*
X165213809Y-74214819D02*
X165213809Y-73214819D01*
X165213809Y-73214819D02*
X165118571Y-73357676D01*
X165118571Y-73357676D02*
X165023333Y-73452914D01*
X165023333Y-73452914D02*
X164928095Y-73500533D01*
X170459580Y-80676666D02*
X170507200Y-80724285D01*
X170507200Y-80724285D02*
X170554819Y-80867142D01*
X170554819Y-80867142D02*
X170554819Y-80962380D01*
X170554819Y-80962380D02*
X170507200Y-81105237D01*
X170507200Y-81105237D02*
X170411961Y-81200475D01*
X170411961Y-81200475D02*
X170316723Y-81248094D01*
X170316723Y-81248094D02*
X170126247Y-81295713D01*
X170126247Y-81295713D02*
X169983390Y-81295713D01*
X169983390Y-81295713D02*
X169792914Y-81248094D01*
X169792914Y-81248094D02*
X169697676Y-81200475D01*
X169697676Y-81200475D02*
X169602438Y-81105237D01*
X169602438Y-81105237D02*
X169554819Y-80962380D01*
X169554819Y-80962380D02*
X169554819Y-80867142D01*
X169554819Y-80867142D02*
X169602438Y-80724285D01*
X169602438Y-80724285D02*
X169650057Y-80676666D01*
X169983390Y-80105237D02*
X169935771Y-80200475D01*
X169935771Y-80200475D02*
X169888152Y-80248094D01*
X169888152Y-80248094D02*
X169792914Y-80295713D01*
X169792914Y-80295713D02*
X169745295Y-80295713D01*
X169745295Y-80295713D02*
X169650057Y-80248094D01*
X169650057Y-80248094D02*
X169602438Y-80200475D01*
X169602438Y-80200475D02*
X169554819Y-80105237D01*
X169554819Y-80105237D02*
X169554819Y-79914761D01*
X169554819Y-79914761D02*
X169602438Y-79819523D01*
X169602438Y-79819523D02*
X169650057Y-79771904D01*
X169650057Y-79771904D02*
X169745295Y-79724285D01*
X169745295Y-79724285D02*
X169792914Y-79724285D01*
X169792914Y-79724285D02*
X169888152Y-79771904D01*
X169888152Y-79771904D02*
X169935771Y-79819523D01*
X169935771Y-79819523D02*
X169983390Y-79914761D01*
X169983390Y-79914761D02*
X169983390Y-80105237D01*
X169983390Y-80105237D02*
X170031009Y-80200475D01*
X170031009Y-80200475D02*
X170078628Y-80248094D01*
X170078628Y-80248094D02*
X170173866Y-80295713D01*
X170173866Y-80295713D02*
X170364342Y-80295713D01*
X170364342Y-80295713D02*
X170459580Y-80248094D01*
X170459580Y-80248094D02*
X170507200Y-80200475D01*
X170507200Y-80200475D02*
X170554819Y-80105237D01*
X170554819Y-80105237D02*
X170554819Y-79914761D01*
X170554819Y-79914761D02*
X170507200Y-79819523D01*
X170507200Y-79819523D02*
X170459580Y-79771904D01*
X170459580Y-79771904D02*
X170364342Y-79724285D01*
X170364342Y-79724285D02*
X170173866Y-79724285D01*
X170173866Y-79724285D02*
X170078628Y-79771904D01*
X170078628Y-79771904D02*
X170031009Y-79819523D01*
X170031009Y-79819523D02*
X169983390Y-79914761D01*
X166699580Y-81552857D02*
X166747200Y-81600476D01*
X166747200Y-81600476D02*
X166794819Y-81743333D01*
X166794819Y-81743333D02*
X166794819Y-81838571D01*
X166794819Y-81838571D02*
X166747200Y-81981428D01*
X166747200Y-81981428D02*
X166651961Y-82076666D01*
X166651961Y-82076666D02*
X166556723Y-82124285D01*
X166556723Y-82124285D02*
X166366247Y-82171904D01*
X166366247Y-82171904D02*
X166223390Y-82171904D01*
X166223390Y-82171904D02*
X166032914Y-82124285D01*
X166032914Y-82124285D02*
X165937676Y-82076666D01*
X165937676Y-82076666D02*
X165842438Y-81981428D01*
X165842438Y-81981428D02*
X165794819Y-81838571D01*
X165794819Y-81838571D02*
X165794819Y-81743333D01*
X165794819Y-81743333D02*
X165842438Y-81600476D01*
X165842438Y-81600476D02*
X165890057Y-81552857D01*
X166794819Y-80600476D02*
X166794819Y-81171904D01*
X166794819Y-80886190D02*
X165794819Y-80886190D01*
X165794819Y-80886190D02*
X165937676Y-80981428D01*
X165937676Y-80981428D02*
X166032914Y-81076666D01*
X166032914Y-81076666D02*
X166080533Y-81171904D01*
X165890057Y-80219523D02*
X165842438Y-80171904D01*
X165842438Y-80171904D02*
X165794819Y-80076666D01*
X165794819Y-80076666D02*
X165794819Y-79838571D01*
X165794819Y-79838571D02*
X165842438Y-79743333D01*
X165842438Y-79743333D02*
X165890057Y-79695714D01*
X165890057Y-79695714D02*
X165985295Y-79648095D01*
X165985295Y-79648095D02*
X166080533Y-79648095D01*
X166080533Y-79648095D02*
X166223390Y-79695714D01*
X166223390Y-79695714D02*
X166794819Y-80267142D01*
X166794819Y-80267142D02*
X166794819Y-79648095D01*
X166634819Y-59196666D02*
X166158628Y-59529999D01*
X166634819Y-59768094D02*
X165634819Y-59768094D01*
X165634819Y-59768094D02*
X165634819Y-59387142D01*
X165634819Y-59387142D02*
X165682438Y-59291904D01*
X165682438Y-59291904D02*
X165730057Y-59244285D01*
X165730057Y-59244285D02*
X165825295Y-59196666D01*
X165825295Y-59196666D02*
X165968152Y-59196666D01*
X165968152Y-59196666D02*
X166063390Y-59244285D01*
X166063390Y-59244285D02*
X166111009Y-59291904D01*
X166111009Y-59291904D02*
X166158628Y-59387142D01*
X166158628Y-59387142D02*
X166158628Y-59768094D01*
X166634819Y-58244285D02*
X166634819Y-58815713D01*
X166634819Y-58529999D02*
X165634819Y-58529999D01*
X165634819Y-58529999D02*
X165777676Y-58625237D01*
X165777676Y-58625237D02*
X165872914Y-58720475D01*
X165872914Y-58720475D02*
X165920533Y-58815713D01*
X141663333Y-103704819D02*
X141330000Y-103228628D01*
X141091905Y-103704819D02*
X141091905Y-102704819D01*
X141091905Y-102704819D02*
X141472857Y-102704819D01*
X141472857Y-102704819D02*
X141568095Y-102752438D01*
X141568095Y-102752438D02*
X141615714Y-102800057D01*
X141615714Y-102800057D02*
X141663333Y-102895295D01*
X141663333Y-102895295D02*
X141663333Y-103038152D01*
X141663333Y-103038152D02*
X141615714Y-103133390D01*
X141615714Y-103133390D02*
X141568095Y-103181009D01*
X141568095Y-103181009D02*
X141472857Y-103228628D01*
X141472857Y-103228628D02*
X141091905Y-103228628D01*
X142234762Y-103133390D02*
X142139524Y-103085771D01*
X142139524Y-103085771D02*
X142091905Y-103038152D01*
X142091905Y-103038152D02*
X142044286Y-102942914D01*
X142044286Y-102942914D02*
X142044286Y-102895295D01*
X142044286Y-102895295D02*
X142091905Y-102800057D01*
X142091905Y-102800057D02*
X142139524Y-102752438D01*
X142139524Y-102752438D02*
X142234762Y-102704819D01*
X142234762Y-102704819D02*
X142425238Y-102704819D01*
X142425238Y-102704819D02*
X142520476Y-102752438D01*
X142520476Y-102752438D02*
X142568095Y-102800057D01*
X142568095Y-102800057D02*
X142615714Y-102895295D01*
X142615714Y-102895295D02*
X142615714Y-102942914D01*
X142615714Y-102942914D02*
X142568095Y-103038152D01*
X142568095Y-103038152D02*
X142520476Y-103085771D01*
X142520476Y-103085771D02*
X142425238Y-103133390D01*
X142425238Y-103133390D02*
X142234762Y-103133390D01*
X142234762Y-103133390D02*
X142139524Y-103181009D01*
X142139524Y-103181009D02*
X142091905Y-103228628D01*
X142091905Y-103228628D02*
X142044286Y-103323866D01*
X142044286Y-103323866D02*
X142044286Y-103514342D01*
X142044286Y-103514342D02*
X142091905Y-103609580D01*
X142091905Y-103609580D02*
X142139524Y-103657200D01*
X142139524Y-103657200D02*
X142234762Y-103704819D01*
X142234762Y-103704819D02*
X142425238Y-103704819D01*
X142425238Y-103704819D02*
X142520476Y-103657200D01*
X142520476Y-103657200D02*
X142568095Y-103609580D01*
X142568095Y-103609580D02*
X142615714Y-103514342D01*
X142615714Y-103514342D02*
X142615714Y-103323866D01*
X142615714Y-103323866D02*
X142568095Y-103228628D01*
X142568095Y-103228628D02*
X142520476Y-103181009D01*
X142520476Y-103181009D02*
X142425238Y-103133390D01*
X179567142Y-77759580D02*
X179519523Y-77807200D01*
X179519523Y-77807200D02*
X179376666Y-77854819D01*
X179376666Y-77854819D02*
X179281428Y-77854819D01*
X179281428Y-77854819D02*
X179138571Y-77807200D01*
X179138571Y-77807200D02*
X179043333Y-77711961D01*
X179043333Y-77711961D02*
X178995714Y-77616723D01*
X178995714Y-77616723D02*
X178948095Y-77426247D01*
X178948095Y-77426247D02*
X178948095Y-77283390D01*
X178948095Y-77283390D02*
X178995714Y-77092914D01*
X178995714Y-77092914D02*
X179043333Y-76997676D01*
X179043333Y-76997676D02*
X179138571Y-76902438D01*
X179138571Y-76902438D02*
X179281428Y-76854819D01*
X179281428Y-76854819D02*
X179376666Y-76854819D01*
X179376666Y-76854819D02*
X179519523Y-76902438D01*
X179519523Y-76902438D02*
X179567142Y-76950057D01*
X180519523Y-77854819D02*
X179948095Y-77854819D01*
X180233809Y-77854819D02*
X180233809Y-76854819D01*
X180233809Y-76854819D02*
X180138571Y-76997676D01*
X180138571Y-76997676D02*
X180043333Y-77092914D01*
X180043333Y-77092914D02*
X179948095Y-77140533D01*
X180995714Y-77854819D02*
X181186190Y-77854819D01*
X181186190Y-77854819D02*
X181281428Y-77807200D01*
X181281428Y-77807200D02*
X181329047Y-77759580D01*
X181329047Y-77759580D02*
X181424285Y-77616723D01*
X181424285Y-77616723D02*
X181471904Y-77426247D01*
X181471904Y-77426247D02*
X181471904Y-77045295D01*
X181471904Y-77045295D02*
X181424285Y-76950057D01*
X181424285Y-76950057D02*
X181376666Y-76902438D01*
X181376666Y-76902438D02*
X181281428Y-76854819D01*
X181281428Y-76854819D02*
X181090952Y-76854819D01*
X181090952Y-76854819D02*
X180995714Y-76902438D01*
X180995714Y-76902438D02*
X180948095Y-76950057D01*
X180948095Y-76950057D02*
X180900476Y-77045295D01*
X180900476Y-77045295D02*
X180900476Y-77283390D01*
X180900476Y-77283390D02*
X180948095Y-77378628D01*
X180948095Y-77378628D02*
X180995714Y-77426247D01*
X180995714Y-77426247D02*
X181090952Y-77473866D01*
X181090952Y-77473866D02*
X181281428Y-77473866D01*
X181281428Y-77473866D02*
X181376666Y-77426247D01*
X181376666Y-77426247D02*
X181424285Y-77378628D01*
X181424285Y-77378628D02*
X181471904Y-77283390D01*
X177313333Y-72619580D02*
X177265714Y-72667200D01*
X177265714Y-72667200D02*
X177122857Y-72714819D01*
X177122857Y-72714819D02*
X177027619Y-72714819D01*
X177027619Y-72714819D02*
X176884762Y-72667200D01*
X176884762Y-72667200D02*
X176789524Y-72571961D01*
X176789524Y-72571961D02*
X176741905Y-72476723D01*
X176741905Y-72476723D02*
X176694286Y-72286247D01*
X176694286Y-72286247D02*
X176694286Y-72143390D01*
X176694286Y-72143390D02*
X176741905Y-71952914D01*
X176741905Y-71952914D02*
X176789524Y-71857676D01*
X176789524Y-71857676D02*
X176884762Y-71762438D01*
X176884762Y-71762438D02*
X177027619Y-71714819D01*
X177027619Y-71714819D02*
X177122857Y-71714819D01*
X177122857Y-71714819D02*
X177265714Y-71762438D01*
X177265714Y-71762438D02*
X177313333Y-71810057D01*
X178170476Y-71714819D02*
X177980000Y-71714819D01*
X177980000Y-71714819D02*
X177884762Y-71762438D01*
X177884762Y-71762438D02*
X177837143Y-71810057D01*
X177837143Y-71810057D02*
X177741905Y-71952914D01*
X177741905Y-71952914D02*
X177694286Y-72143390D01*
X177694286Y-72143390D02*
X177694286Y-72524342D01*
X177694286Y-72524342D02*
X177741905Y-72619580D01*
X177741905Y-72619580D02*
X177789524Y-72667200D01*
X177789524Y-72667200D02*
X177884762Y-72714819D01*
X177884762Y-72714819D02*
X178075238Y-72714819D01*
X178075238Y-72714819D02*
X178170476Y-72667200D01*
X178170476Y-72667200D02*
X178218095Y-72619580D01*
X178218095Y-72619580D02*
X178265714Y-72524342D01*
X178265714Y-72524342D02*
X178265714Y-72286247D01*
X178265714Y-72286247D02*
X178218095Y-72191009D01*
X178218095Y-72191009D02*
X178170476Y-72143390D01*
X178170476Y-72143390D02*
X178075238Y-72095771D01*
X178075238Y-72095771D02*
X177884762Y-72095771D01*
X177884762Y-72095771D02*
X177789524Y-72143390D01*
X177789524Y-72143390D02*
X177741905Y-72191009D01*
X177741905Y-72191009D02*
X177694286Y-72286247D01*
X182474819Y-82912857D02*
X181998628Y-83246190D01*
X182474819Y-83484285D02*
X181474819Y-83484285D01*
X181474819Y-83484285D02*
X181474819Y-83103333D01*
X181474819Y-83103333D02*
X181522438Y-83008095D01*
X181522438Y-83008095D02*
X181570057Y-82960476D01*
X181570057Y-82960476D02*
X181665295Y-82912857D01*
X181665295Y-82912857D02*
X181808152Y-82912857D01*
X181808152Y-82912857D02*
X181903390Y-82960476D01*
X181903390Y-82960476D02*
X181951009Y-83008095D01*
X181951009Y-83008095D02*
X181998628Y-83103333D01*
X181998628Y-83103333D02*
X181998628Y-83484285D01*
X182474819Y-81960476D02*
X182474819Y-82531904D01*
X182474819Y-82246190D02*
X181474819Y-82246190D01*
X181474819Y-82246190D02*
X181617676Y-82341428D01*
X181617676Y-82341428D02*
X181712914Y-82436666D01*
X181712914Y-82436666D02*
X181760533Y-82531904D01*
X182474819Y-81008095D02*
X182474819Y-81579523D01*
X182474819Y-81293809D02*
X181474819Y-81293809D01*
X181474819Y-81293809D02*
X181617676Y-81389047D01*
X181617676Y-81389047D02*
X181712914Y-81484285D01*
X181712914Y-81484285D02*
X181760533Y-81579523D01*
X177215934Y-68619580D02*
X177168315Y-68667200D01*
X177168315Y-68667200D02*
X177025458Y-68714819D01*
X177025458Y-68714819D02*
X176930220Y-68714819D01*
X176930220Y-68714819D02*
X176787363Y-68667200D01*
X176787363Y-68667200D02*
X176692125Y-68571961D01*
X176692125Y-68571961D02*
X176644506Y-68476723D01*
X176644506Y-68476723D02*
X176596887Y-68286247D01*
X176596887Y-68286247D02*
X176596887Y-68143390D01*
X176596887Y-68143390D02*
X176644506Y-67952914D01*
X176644506Y-67952914D02*
X176692125Y-67857676D01*
X176692125Y-67857676D02*
X176787363Y-67762438D01*
X176787363Y-67762438D02*
X176930220Y-67714819D01*
X176930220Y-67714819D02*
X177025458Y-67714819D01*
X177025458Y-67714819D02*
X177168315Y-67762438D01*
X177168315Y-67762438D02*
X177215934Y-67810057D01*
X178168315Y-68714819D02*
X177596887Y-68714819D01*
X177882601Y-68714819D02*
X177882601Y-67714819D01*
X177882601Y-67714819D02*
X177787363Y-67857676D01*
X177787363Y-67857676D02*
X177692125Y-67952914D01*
X177692125Y-67952914D02*
X177596887Y-68000533D01*
X179025458Y-68048152D02*
X179025458Y-68714819D01*
X178787363Y-67667200D02*
X178549268Y-68381485D01*
X178549268Y-68381485D02*
X179168315Y-68381485D01*
X111798095Y-58664819D02*
X111798095Y-59474342D01*
X111798095Y-59474342D02*
X111845714Y-59569580D01*
X111845714Y-59569580D02*
X111893333Y-59617200D01*
X111893333Y-59617200D02*
X111988571Y-59664819D01*
X111988571Y-59664819D02*
X112179047Y-59664819D01*
X112179047Y-59664819D02*
X112274285Y-59617200D01*
X112274285Y-59617200D02*
X112321904Y-59569580D01*
X112321904Y-59569580D02*
X112369523Y-59474342D01*
X112369523Y-59474342D02*
X112369523Y-58664819D01*
X112750476Y-58664819D02*
X113369523Y-58664819D01*
X113369523Y-58664819D02*
X113036190Y-59045771D01*
X113036190Y-59045771D02*
X113179047Y-59045771D01*
X113179047Y-59045771D02*
X113274285Y-59093390D01*
X113274285Y-59093390D02*
X113321904Y-59141009D01*
X113321904Y-59141009D02*
X113369523Y-59236247D01*
X113369523Y-59236247D02*
X113369523Y-59474342D01*
X113369523Y-59474342D02*
X113321904Y-59569580D01*
X113321904Y-59569580D02*
X113274285Y-59617200D01*
X113274285Y-59617200D02*
X113179047Y-59664819D01*
X113179047Y-59664819D02*
X112893333Y-59664819D01*
X112893333Y-59664819D02*
X112798095Y-59617200D01*
X112798095Y-59617200D02*
X112750476Y-59569580D01*
X130183333Y-77559580D02*
X130135714Y-77607200D01*
X130135714Y-77607200D02*
X129992857Y-77654819D01*
X129992857Y-77654819D02*
X129897619Y-77654819D01*
X129897619Y-77654819D02*
X129754762Y-77607200D01*
X129754762Y-77607200D02*
X129659524Y-77511961D01*
X129659524Y-77511961D02*
X129611905Y-77416723D01*
X129611905Y-77416723D02*
X129564286Y-77226247D01*
X129564286Y-77226247D02*
X129564286Y-77083390D01*
X129564286Y-77083390D02*
X129611905Y-76892914D01*
X129611905Y-76892914D02*
X129659524Y-76797676D01*
X129659524Y-76797676D02*
X129754762Y-76702438D01*
X129754762Y-76702438D02*
X129897619Y-76654819D01*
X129897619Y-76654819D02*
X129992857Y-76654819D01*
X129992857Y-76654819D02*
X130135714Y-76702438D01*
X130135714Y-76702438D02*
X130183333Y-76750057D01*
X130516667Y-76654819D02*
X131135714Y-76654819D01*
X131135714Y-76654819D02*
X130802381Y-77035771D01*
X130802381Y-77035771D02*
X130945238Y-77035771D01*
X130945238Y-77035771D02*
X131040476Y-77083390D01*
X131040476Y-77083390D02*
X131088095Y-77131009D01*
X131088095Y-77131009D02*
X131135714Y-77226247D01*
X131135714Y-77226247D02*
X131135714Y-77464342D01*
X131135714Y-77464342D02*
X131088095Y-77559580D01*
X131088095Y-77559580D02*
X131040476Y-77607200D01*
X131040476Y-77607200D02*
X130945238Y-77654819D01*
X130945238Y-77654819D02*
X130659524Y-77654819D01*
X130659524Y-77654819D02*
X130564286Y-77607200D01*
X130564286Y-77607200D02*
X130516667Y-77559580D01*
X189883333Y-97104819D02*
X189407143Y-97104819D01*
X189407143Y-97104819D02*
X189407143Y-96104819D01*
X190169048Y-96200057D02*
X190216667Y-96152438D01*
X190216667Y-96152438D02*
X190311905Y-96104819D01*
X190311905Y-96104819D02*
X190550000Y-96104819D01*
X190550000Y-96104819D02*
X190645238Y-96152438D01*
X190645238Y-96152438D02*
X190692857Y-96200057D01*
X190692857Y-96200057D02*
X190740476Y-96295295D01*
X190740476Y-96295295D02*
X190740476Y-96390533D01*
X190740476Y-96390533D02*
X190692857Y-96533390D01*
X190692857Y-96533390D02*
X190121429Y-97104819D01*
X190121429Y-97104819D02*
X190740476Y-97104819D01*
D13*
%TO.C,Q4*%
X154790000Y-103005001D02*
X154790000Y-102005003D01*
X159990000Y-103005001D02*
X159990000Y-102805001D01*
X154790000Y-97205003D02*
X154790000Y-97005003D01*
X159990000Y-97205003D02*
X159990000Y-97005003D01*
%TO.C,Q3*%
X160558950Y-95743949D02*
X159558952Y-95743949D01*
X160558950Y-90543949D02*
X160358950Y-90543949D01*
X154758952Y-95743949D02*
X154558952Y-95743949D01*
X154758952Y-90543949D02*
X154558952Y-90543949D01*
%TO.C,Q1*%
X127828948Y-90543949D02*
X128828946Y-90543949D01*
X127828948Y-95743949D02*
X128028948Y-95743949D01*
X133628946Y-90543949D02*
X133828946Y-90543949D01*
X133628946Y-95743949D02*
X133828946Y-95743949D01*
%TO.C,Q2*%
X128325000Y-102950000D02*
X128325000Y-101950002D01*
X133525000Y-102950000D02*
X133525000Y-102750000D01*
X128325000Y-97150002D02*
X128325000Y-96950002D01*
X133525000Y-97150002D02*
X133525000Y-96950002D01*
D14*
%TO.C,C16*%
X129810100Y-112600100D02*
X129810100Y-115594760D01*
X129810100Y-118165240D02*
X129810100Y-121159900D01*
X129810100Y-121159900D02*
X138369900Y-121159900D01*
X138369900Y-112600100D02*
X129810100Y-112600100D01*
X138369900Y-115594760D02*
X138369900Y-112600100D01*
X138369900Y-121159900D02*
X138369900Y-118165240D01*
D15*
%TO.C,R6*%
X134002500Y-133032258D02*
X134002500Y-132557742D01*
X132957500Y-133032258D02*
X132957500Y-132557742D01*
%TO.C,C11*%
X171395000Y-81301252D02*
X171395000Y-80778748D01*
X172865000Y-81301252D02*
X172865000Y-80778748D01*
D14*
%TO.C,D1*%
X160046300Y-60344500D02*
X157988900Y-60344500D01*
D15*
X159397600Y-62230000D02*
X159397600Y-60020000D01*
D14*
X157988900Y-61995500D02*
X160046300Y-61995500D01*
D15*
%TO.C,R5*%
X158921449Y-69811207D02*
X158921449Y-69336691D01*
X159966449Y-69811207D02*
X159966449Y-69336691D01*
%TO.C,C15*%
X169508748Y-64385000D02*
X170031252Y-64385000D01*
X169508748Y-65855000D02*
X170031252Y-65855000D01*
%TO.C,C7*%
X174458748Y-73635000D02*
X174981252Y-73635000D01*
X174458748Y-75105000D02*
X174981252Y-75105000D01*
%TO.C,C9*%
X159211252Y-71815000D02*
X158688748Y-71815000D01*
X159211252Y-73285000D02*
X158688748Y-73285000D01*
%TO.C,C5*%
X158751252Y-66115000D02*
X158228748Y-66115000D01*
X158751252Y-67585000D02*
X158228748Y-67585000D01*
D16*
%TO.C,J3*%
X159480000Y-48380000D02*
X159480000Y-55680000D01*
X159520000Y-48380000D02*
X179520000Y-48380000D01*
X179520000Y-48380000D02*
X179520000Y-55680000D01*
X179520000Y-55680000D02*
X159520000Y-55680000D01*
D15*
%TO.C,R9*%
X174957258Y-69907500D02*
X174482742Y-69907500D01*
X174957258Y-70952500D02*
X174482742Y-70952500D01*
%TO.C,J4*%
X139583949Y-129493949D02*
X147583949Y-129493949D01*
X139583949Y-137493949D02*
X139583949Y-129493949D01*
X147583949Y-129493949D02*
X147583949Y-137493949D01*
X147583949Y-137493949D02*
X139583949Y-137493949D01*
D14*
%TO.C,C17*%
X150080100Y-121830100D02*
X150080100Y-124824760D01*
X150080100Y-127395240D02*
X150080100Y-130389900D01*
X150080100Y-130389900D02*
X158639900Y-130389900D01*
X158639900Y-121830100D02*
X150080100Y-121830100D01*
X158639900Y-124824760D02*
X158639900Y-121830100D01*
X158639900Y-130389900D02*
X158639900Y-127395240D01*
D15*
%TO.C,C20*%
X111551252Y-63155000D02*
X111028748Y-63155000D01*
X111551252Y-64625000D02*
X111028748Y-64625000D01*
%TO.C,R4*%
X171257500Y-77897258D02*
X171257500Y-77422742D01*
X172302500Y-77897258D02*
X172302500Y-77422742D01*
D14*
%TO.C,C18*%
X150000100Y-112620100D02*
X150000100Y-115614760D01*
X150000100Y-118185240D02*
X150000100Y-121179900D01*
X150000100Y-121179900D02*
X158559900Y-121179900D01*
X158559900Y-112620100D02*
X150000100Y-112620100D01*
X158559900Y-115614760D02*
X158559900Y-112620100D01*
X158559900Y-121179900D02*
X158559900Y-118185240D01*
D15*
%TO.C,J1*%
X121043949Y-50463949D02*
X129043949Y-50463949D01*
X121043949Y-58463949D02*
X121043949Y-50463949D01*
X129043949Y-50463949D02*
X129043949Y-58463949D01*
X129043949Y-58463949D02*
X121043949Y-58463949D01*
D14*
%TO.C,D2*%
X172121300Y-62025500D02*
X174178700Y-62025500D01*
D15*
X172770000Y-60140000D02*
X172770000Y-62350000D01*
D14*
X174178700Y-60374500D02*
X172121300Y-60374500D01*
%TO.C,L1*%
X98616949Y-97690949D02*
X98616949Y-117756949D01*
X98616949Y-117756949D02*
X109206209Y-117756949D01*
X116221689Y-117756949D02*
X126810949Y-117756949D01*
X126810949Y-97690949D02*
X98616949Y-97690949D01*
X126810949Y-117756949D02*
X126810949Y-97690949D01*
D15*
%TO.C,R7*%
X134667500Y-132557742D02*
X134667500Y-133032258D01*
X135712500Y-132557742D02*
X135712500Y-133032258D01*
D14*
%TO.C,C4*%
X129876549Y-84192949D02*
X129876549Y-84954949D01*
X130257549Y-84573949D02*
X129495549Y-84573949D01*
X131718049Y-80192449D02*
X131718049Y-83491909D01*
X131718049Y-85655989D02*
X131718049Y-88955449D01*
X131718049Y-88955449D02*
X140481049Y-88955449D01*
X140481049Y-80192449D02*
X131718049Y-80192449D01*
X140481049Y-83491909D02*
X140481049Y-80192449D01*
X140481049Y-88955449D02*
X140481049Y-85655989D01*
%TO.C,R10*%
X146431600Y-104267000D02*
X146431600Y-104823260D01*
X146431600Y-111076740D02*
X146431600Y-111633000D01*
X146431600Y-111633000D02*
X158928400Y-111633000D01*
X158928400Y-104267000D02*
X146431600Y-104267000D01*
X158928400Y-104823260D02*
X158928400Y-104267000D01*
X158928400Y-111633000D02*
X158928400Y-111076740D01*
D15*
%TO.C,R3*%
X167707500Y-77522742D02*
X167707500Y-77997258D01*
X168752500Y-77522742D02*
X168752500Y-77997258D01*
%TO.C,J5*%
X121020000Y-129400000D02*
X129020000Y-129400000D01*
X121020000Y-137400000D02*
X121020000Y-129400000D01*
X129020000Y-129400000D02*
X129020000Y-137400000D01*
X129020000Y-137400000D02*
X121020000Y-137400000D01*
%TO.C,C2*%
X163335000Y-60771252D02*
X163335000Y-60248748D01*
X164805000Y-60771252D02*
X164805000Y-60248748D01*
D14*
%TO.C,C1*%
X129745349Y-65422949D02*
X129745349Y-66184949D01*
X130126349Y-65803949D02*
X129364349Y-65803949D01*
X131586849Y-61422449D02*
X131586849Y-64721909D01*
X131586849Y-66885989D02*
X131586849Y-70185449D01*
X131586849Y-70185449D02*
X140349849Y-70185449D01*
X140349849Y-61422449D02*
X131586849Y-61422449D01*
X140349849Y-64721909D02*
X140349849Y-61422449D01*
X140349849Y-70185449D02*
X140349849Y-66885989D01*
D15*
%TO.C,C10*%
X156760157Y-69855201D02*
X156760157Y-69332697D01*
X158230157Y-69855201D02*
X158230157Y-69332697D01*
%TO.C,R2*%
X167237500Y-61747258D02*
X167237500Y-61272742D01*
X168282500Y-61747258D02*
X168282500Y-61272742D01*
%TO.C,C13*%
X164616409Y-64348949D02*
X164093905Y-64348949D01*
X164616409Y-65818949D02*
X164093905Y-65818949D01*
D12*
%TO.C,U2*%
X175408949Y-78988949D02*
X175408949Y-79163949D01*
X175408949Y-78988949D02*
X178658949Y-78988949D01*
X175408949Y-82063949D02*
X175408949Y-82238949D01*
X175408949Y-82238949D02*
X178658949Y-82238949D01*
X178658949Y-78988949D02*
X178658949Y-79163949D01*
X178658949Y-82063949D02*
X178658949Y-82238949D01*
D15*
X174933949Y-79163949D02*
X174693949Y-78833949D01*
X175173949Y-78833949D01*
X174933949Y-79163949D01*
G36*
X174933949Y-79163949D02*
G01*
X174693949Y-78833949D01*
X175173949Y-78833949D01*
X174933949Y-79163949D01*
G37*
D14*
%TO.C,U1*%
X163792251Y-66977249D02*
X163792251Y-67590101D01*
X163792251Y-71977797D02*
X163792251Y-72590649D01*
X163792251Y-72590649D02*
X164405103Y-72590649D01*
X164405103Y-66977249D02*
X163792251Y-66977249D01*
X168792799Y-72590649D02*
X169405651Y-72590649D01*
X169405651Y-66977249D02*
X168792799Y-66977249D01*
X169405651Y-67590101D02*
X169405651Y-66977249D01*
X169405651Y-72590649D02*
X169405651Y-71977797D01*
D17*
X163224295Y-66993949D02*
G75*
G02*
X162873607Y-66993949I-175344J0D01*
G01*
X162873607Y-66993949D02*
G75*
G02*
X163224295Y-66993949I175344J0D01*
G01*
D18*
G36*
X165539451Y-72997049D02*
G01*
X165158451Y-72997049D01*
X165158451Y-72743049D01*
X165539451Y-72743049D01*
X165539451Y-72997049D01*
G37*
G36*
X166039450Y-66824849D02*
G01*
X165658450Y-66824849D01*
X165658450Y-66570849D01*
X166039450Y-66570849D01*
X166039450Y-66824849D01*
G37*
G36*
X169812051Y-70224449D02*
G01*
X169558051Y-70224449D01*
X169558051Y-69843448D01*
X169812051Y-69843448D01*
X169812051Y-70224449D01*
G37*
D15*
%TO.C,C8*%
X169275000Y-77528748D02*
X169275000Y-78051252D01*
X170745000Y-77528748D02*
X170745000Y-78051252D01*
%TO.C,C12*%
X165695000Y-77896252D02*
X165695000Y-77373748D01*
X167165000Y-77896252D02*
X167165000Y-77373748D01*
%TO.C,R1*%
X165547500Y-61292742D02*
X165547500Y-61767258D01*
X166592500Y-61292742D02*
X166592500Y-61767258D01*
D14*
%TO.C,R8*%
X130371600Y-104327000D02*
X130371600Y-104883260D01*
X130371600Y-111136740D02*
X130371600Y-111693000D01*
X130371600Y-111693000D02*
X142868400Y-111693000D01*
X142868400Y-104327000D02*
X130371600Y-104327000D01*
X142868400Y-104883260D02*
X142868400Y-104327000D01*
X142868400Y-111693000D02*
X142868400Y-111136740D01*
D15*
%TO.C,C19*%
X177231252Y-78085000D02*
X176708748Y-78085000D01*
X177231252Y-76615000D02*
X176708748Y-76615000D01*
%TO.C,C6*%
X174458748Y-71495000D02*
X174981252Y-71495000D01*
X174458748Y-72965000D02*
X174981252Y-72965000D01*
%TO.C,R11*%
X181170000Y-82156359D02*
X181170000Y-82463641D01*
X180410000Y-82156359D02*
X180410000Y-82463641D01*
%TO.C,C14*%
X174971252Y-67475000D02*
X174448748Y-67475000D01*
X174971252Y-68945000D02*
X174448748Y-68945000D01*
%TO.C,J2*%
X142553949Y-50463949D02*
X150553949Y-50463949D01*
X142553949Y-58463949D02*
X142553949Y-50463949D01*
X150553949Y-50463949D02*
X150553949Y-58463949D01*
X150553949Y-58463949D02*
X142553949Y-58463949D01*
%TO.C,U3*%
X113788949Y-60833949D02*
X113788949Y-58633949D01*
X113788949Y-60833949D02*
X113788949Y-63033949D01*
X119258949Y-60833949D02*
X119258949Y-58633949D01*
X119258949Y-60833949D02*
X119258949Y-63033949D01*
X118798949Y-56973949D02*
X118558949Y-56643949D01*
X119038949Y-56643949D01*
X118798949Y-56973949D01*
G36*
X118798949Y-56973949D02*
G01*
X118558949Y-56643949D01*
X119038949Y-56643949D01*
X118798949Y-56973949D01*
G37*
D14*
%TO.C,C3*%
X129800949Y-74832949D02*
X129800949Y-75594949D01*
X130181949Y-75213949D02*
X129419949Y-75213949D01*
X131642449Y-70832449D02*
X131642449Y-74131909D01*
X131642449Y-76295989D02*
X131642449Y-79595449D01*
X131642449Y-79595449D02*
X140405449Y-79595449D01*
X140405449Y-70832449D02*
X131642449Y-70832449D01*
X140405449Y-74131909D02*
X140405449Y-70832449D01*
X140405449Y-79595449D02*
X140405449Y-76295989D01*
%TO.C,L2*%
X162623000Y-97727000D02*
X162623000Y-117793000D01*
X162623000Y-117793000D02*
X190817000Y-117793000D01*
X173212260Y-97727000D02*
X162623000Y-97727000D01*
X190817000Y-97727000D02*
X180227740Y-97727000D01*
X190817000Y-117793000D02*
X190817000Y-97727000D01*
%TD*%
M02*
