%TF.GenerationSoftware,KiCad,Pcbnew,8.0.5*%
%TF.CreationDate,2024-12-31T15:17:50-08:00*%
%TF.ProjectId,emberone,656d6265-726f-46e6-952e-6b696361645f,rev?*%
%TF.SameCoordinates,Original*%
%TF.FileFunction,Soldermask,Bot*%
%TF.FilePolarity,Negative*%
%FSLAX46Y46*%
G04 Gerber Fmt 4.6, Leading zero omitted, Abs format (unit mm)*
G04 Created by KiCad (PCBNEW 8.0.5) date 2024-12-31 15:17:50*
%MOMM*%
%LPD*%
G01*
G04 APERTURE LIST*
G04 Aperture macros list*
%AMRoundRect*
0 Rectangle with rounded corners*
0 $1 Rounding radius*
0 $2 $3 $4 $5 $6 $7 $8 $9 X,Y pos of 4 corners*
0 Add a 4 corners polygon primitive as box body*
4,1,4,$2,$3,$4,$5,$6,$7,$8,$9,$2,$3,0*
0 Add four circle primitives for the rounded corners*
1,1,$1+$1,$2,$3*
1,1,$1+$1,$4,$5*
1,1,$1+$1,$6,$7*
1,1,$1+$1,$8,$9*
0 Add four rect primitives between the rounded corners*
20,1,$1+$1,$2,$3,$4,$5,0*
20,1,$1+$1,$4,$5,$6,$7,0*
20,1,$1+$1,$6,$7,$8,$9,0*
20,1,$1+$1,$8,$9,$2,$3,0*%
G04 Aperture macros list end*
%ADD10C,0.540000*%
%ADD11R,9.000000X10.000000*%
%ADD12C,6.400000*%
%ADD13C,3.200000*%
%ADD14C,3.500000*%
%ADD15C,0.650000*%
%ADD16O,1.000000X2.100000*%
%ADD17O,1.000000X1.800000*%
%ADD18C,1.000000*%
%ADD19RoundRect,0.140000X-0.170000X0.140000X-0.170000X-0.140000X0.170000X-0.140000X0.170000X0.140000X0*%
%ADD20RoundRect,0.135000X0.135000X0.185000X-0.135000X0.185000X-0.135000X-0.185000X0.135000X-0.185000X0*%
%ADD21RoundRect,0.150000X-0.150000X0.512500X-0.150000X-0.512500X0.150000X-0.512500X0.150000X0.512500X0*%
%ADD22RoundRect,0.140000X0.170000X-0.140000X0.170000X0.140000X-0.170000X0.140000X-0.170000X-0.140000X0*%
%ADD23RoundRect,0.135000X-0.135000X-0.185000X0.135000X-0.185000X0.135000X0.185000X-0.135000X0.185000X0*%
%ADD24RoundRect,0.150000X0.150000X-0.512500X0.150000X0.512500X-0.150000X0.512500X-0.150000X-0.512500X0*%
%ADD25RoundRect,0.135000X-0.185000X0.135000X-0.185000X-0.135000X0.185000X-0.135000X0.185000X0.135000X0*%
%ADD26RoundRect,0.135000X0.185000X-0.135000X0.185000X0.135000X-0.185000X0.135000X-0.185000X-0.135000X0*%
%ADD27RoundRect,0.250000X-0.650000X0.325000X-0.650000X-0.325000X0.650000X-0.325000X0.650000X0.325000X0*%
%ADD28RoundRect,0.250000X0.650000X-0.325000X0.650000X0.325000X-0.650000X0.325000X-0.650000X-0.325000X0*%
%ADD29RoundRect,0.140000X-0.140000X-0.170000X0.140000X-0.170000X0.140000X0.170000X-0.140000X0.170000X0*%
%ADD30R,1.300000X1.100000*%
%ADD31RoundRect,0.140000X0.140000X0.170000X-0.140000X0.170000X-0.140000X-0.170000X0.140000X-0.170000X0*%
G04 APERTURE END LIST*
D10*
%TO.C,U55*%
X162910000Y-174685000D03*
X162908000Y-172815000D03*
X162328000Y-174685000D03*
X162326000Y-172815000D03*
X161746000Y-174685000D03*
X161744000Y-172815000D03*
X161164000Y-174685000D03*
X161162000Y-172815000D03*
X161110000Y-175915000D03*
X161110000Y-175295000D03*
X161110000Y-174061668D03*
X161110000Y-173445002D03*
X161110000Y-172211670D03*
X161110000Y-171595000D03*
X160582000Y-174685000D03*
X160580000Y-172815000D03*
D11*
X160010000Y-174835000D03*
D10*
X160000000Y-174685000D03*
X159998000Y-172815000D03*
X159418000Y-174685000D03*
X159416000Y-172815000D03*
X158890000Y-175305000D03*
X158890000Y-174071668D03*
X158890000Y-173455002D03*
X158890000Y-172221670D03*
X158890000Y-171605000D03*
X158880000Y-175925000D03*
X158836000Y-174685000D03*
X158834000Y-172815000D03*
X158254000Y-174685000D03*
X158252000Y-172815000D03*
X157672000Y-174685000D03*
X157670000Y-172815000D03*
X157090000Y-174685000D03*
X157088000Y-172815000D03*
%TD*%
%TO.C,U65*%
X178580000Y-188675000D03*
X178582000Y-190545000D03*
X179162000Y-188675000D03*
X179164000Y-190545000D03*
X179744000Y-188675000D03*
X179746000Y-190545000D03*
X180326000Y-188675000D03*
X180328000Y-190545000D03*
X180380000Y-187445000D03*
X180380000Y-188065000D03*
X180380000Y-189298332D03*
X180380000Y-189914998D03*
X180380000Y-191148330D03*
X180380000Y-191765000D03*
X180908000Y-188675000D03*
X180910000Y-190545000D03*
D11*
X181480000Y-188525000D03*
D10*
X181490000Y-188675000D03*
X181492000Y-190545000D03*
X182072000Y-188675000D03*
X182074000Y-190545000D03*
X182600000Y-188055000D03*
X182600000Y-189288332D03*
X182600000Y-189904998D03*
X182600000Y-191138330D03*
X182600000Y-191755000D03*
X182610000Y-187435000D03*
X182654000Y-188675000D03*
X182656000Y-190545000D03*
X183236000Y-188675000D03*
X183238000Y-190545000D03*
X183818000Y-188675000D03*
X183820000Y-190545000D03*
X184400000Y-188675000D03*
X184402000Y-190545000D03*
%TD*%
%TO.C,U47*%
X135540000Y-188645000D03*
X135542000Y-190515000D03*
X136122000Y-188645000D03*
X136124000Y-190515000D03*
X136704000Y-188645000D03*
X136706000Y-190515000D03*
X137286000Y-188645000D03*
X137288000Y-190515000D03*
X137340000Y-187415000D03*
X137340000Y-188035000D03*
X137340000Y-189268332D03*
X137340000Y-189884998D03*
X137340000Y-191118330D03*
X137340000Y-191735000D03*
X137868000Y-188645000D03*
X137870000Y-190515000D03*
D11*
X138440000Y-188495000D03*
D10*
X138450000Y-188645000D03*
X138452000Y-190515000D03*
X139032000Y-188645000D03*
X139034000Y-190515000D03*
X139560000Y-188025000D03*
X139560000Y-189258332D03*
X139560000Y-189874998D03*
X139560000Y-191108330D03*
X139560000Y-191725000D03*
X139570000Y-187405000D03*
X139614000Y-188645000D03*
X139616000Y-190515000D03*
X140196000Y-188645000D03*
X140198000Y-190515000D03*
X140778000Y-188645000D03*
X140780000Y-190515000D03*
X141360000Y-188645000D03*
X141362000Y-190515000D03*
%TD*%
%TO.C,U74*%
X205970000Y-161095000D03*
X205968000Y-159225000D03*
X205388000Y-161095000D03*
X205386000Y-159225000D03*
X204806000Y-161095000D03*
X204804000Y-159225000D03*
X204224000Y-161095000D03*
X204222000Y-159225000D03*
X204170000Y-162325000D03*
X204170000Y-161705000D03*
X204170000Y-160471668D03*
X204170000Y-159855002D03*
X204170000Y-158621670D03*
X204170000Y-158005000D03*
X203642000Y-161095000D03*
X203640000Y-159225000D03*
D11*
X203070000Y-161245000D03*
D10*
X203060000Y-161095000D03*
X203058000Y-159225000D03*
X202478000Y-161095000D03*
X202476000Y-159225000D03*
X201950000Y-161715000D03*
X201950000Y-160481668D03*
X201950000Y-159865002D03*
X201950000Y-158631670D03*
X201950000Y-158015000D03*
X201940000Y-162335000D03*
X201896000Y-161095000D03*
X201894000Y-159225000D03*
X201314000Y-161095000D03*
X201312000Y-159225000D03*
X200732000Y-161095000D03*
X200730000Y-159225000D03*
X200150000Y-161095000D03*
X200148000Y-159225000D03*
%TD*%
%TO.C,U54*%
X162910000Y-188355000D03*
X162908000Y-186485000D03*
X162328000Y-188355000D03*
X162326000Y-186485000D03*
X161746000Y-188355000D03*
X161744000Y-186485000D03*
X161164000Y-188355000D03*
X161162000Y-186485000D03*
X161110000Y-189585000D03*
X161110000Y-188965000D03*
X161110000Y-187731668D03*
X161110000Y-187115002D03*
X161110000Y-185881670D03*
X161110000Y-185265000D03*
X160582000Y-188355000D03*
X160580000Y-186485000D03*
D11*
X160010000Y-188505000D03*
D10*
X160000000Y-188355000D03*
X159998000Y-186485000D03*
X159418000Y-188355000D03*
X159416000Y-186485000D03*
X158890000Y-188975000D03*
X158890000Y-187741668D03*
X158890000Y-187125002D03*
X158890000Y-185891670D03*
X158890000Y-185275000D03*
X158880000Y-189595000D03*
X158836000Y-188355000D03*
X158834000Y-186485000D03*
X158254000Y-188355000D03*
X158252000Y-186485000D03*
X157672000Y-188355000D03*
X157670000Y-186485000D03*
X157090000Y-188355000D03*
X157088000Y-186485000D03*
%TD*%
%TO.C,U46*%
X135540000Y-174965000D03*
X135542000Y-176835000D03*
X136122000Y-174965000D03*
X136124000Y-176835000D03*
X136704000Y-174965000D03*
X136706000Y-176835000D03*
X137286000Y-174965000D03*
X137288000Y-176835000D03*
X137340000Y-173735000D03*
X137340000Y-174355000D03*
X137340000Y-175588332D03*
X137340000Y-176204998D03*
X137340000Y-177438330D03*
X137340000Y-178055000D03*
X137868000Y-174965000D03*
X137870000Y-176835000D03*
D11*
X138440000Y-174815000D03*
D10*
X138450000Y-174965000D03*
X138452000Y-176835000D03*
X139032000Y-174965000D03*
X139034000Y-176835000D03*
X139560000Y-174345000D03*
X139560000Y-175578332D03*
X139560000Y-176194998D03*
X139560000Y-177428330D03*
X139560000Y-178045000D03*
X139570000Y-173725000D03*
X139614000Y-174965000D03*
X139616000Y-176835000D03*
X140196000Y-174965000D03*
X140198000Y-176835000D03*
X140778000Y-174965000D03*
X140780000Y-176835000D03*
X141360000Y-174965000D03*
X141362000Y-176835000D03*
%TD*%
%TO.C,U45*%
X135540000Y-161275000D03*
X135542000Y-163145000D03*
X136122000Y-161275000D03*
X136124000Y-163145000D03*
X136704000Y-161275000D03*
X136706000Y-163145000D03*
X137286000Y-161275000D03*
X137288000Y-163145000D03*
X137340000Y-160045000D03*
X137340000Y-160665000D03*
X137340000Y-161898332D03*
X137340000Y-162514998D03*
X137340000Y-163748330D03*
X137340000Y-164365000D03*
X137868000Y-161275000D03*
X137870000Y-163145000D03*
D11*
X138440000Y-161125000D03*
D10*
X138450000Y-161275000D03*
X138452000Y-163145000D03*
X139032000Y-161275000D03*
X139034000Y-163145000D03*
X139560000Y-160655000D03*
X139560000Y-161888332D03*
X139560000Y-162504998D03*
X139560000Y-163738330D03*
X139560000Y-164355000D03*
X139570000Y-160035000D03*
X139614000Y-161275000D03*
X139616000Y-163145000D03*
X140196000Y-161275000D03*
X140198000Y-163145000D03*
X140778000Y-161275000D03*
X140780000Y-163145000D03*
X141360000Y-161275000D03*
X141362000Y-163145000D03*
%TD*%
%TO.C,U72*%
X205970000Y-188465000D03*
X205968000Y-186595000D03*
X205388000Y-188465000D03*
X205386000Y-186595000D03*
X204806000Y-188465000D03*
X204804000Y-186595000D03*
X204224000Y-188465000D03*
X204222000Y-186595000D03*
X204170000Y-189695000D03*
X204170000Y-189075000D03*
X204170000Y-187841668D03*
X204170000Y-187225002D03*
X204170000Y-185991670D03*
X204170000Y-185375000D03*
X203642000Y-188465000D03*
X203640000Y-186595000D03*
D11*
X203070000Y-188615000D03*
D10*
X203060000Y-188465000D03*
X203058000Y-186595000D03*
X202478000Y-188465000D03*
X202476000Y-186595000D03*
X201950000Y-189085000D03*
X201950000Y-187851668D03*
X201950000Y-187235002D03*
X201950000Y-186001670D03*
X201950000Y-185385000D03*
X201940000Y-189705000D03*
X201896000Y-188465000D03*
X201894000Y-186595000D03*
X201314000Y-188465000D03*
X201312000Y-186595000D03*
X200732000Y-188465000D03*
X200730000Y-186595000D03*
X200150000Y-188465000D03*
X200148000Y-186595000D03*
%TD*%
%TO.C,U63*%
X178580000Y-161305000D03*
X178582000Y-163175000D03*
X179162000Y-161305000D03*
X179164000Y-163175000D03*
X179744000Y-161305000D03*
X179746000Y-163175000D03*
X180326000Y-161305000D03*
X180328000Y-163175000D03*
X180380000Y-160075000D03*
X180380000Y-160695000D03*
X180380000Y-161928332D03*
X180380000Y-162544998D03*
X180380000Y-163778330D03*
X180380000Y-164395000D03*
X180908000Y-161305000D03*
X180910000Y-163175000D03*
D11*
X181480000Y-161155000D03*
D10*
X181490000Y-161305000D03*
X181492000Y-163175000D03*
X182072000Y-161305000D03*
X182074000Y-163175000D03*
X182600000Y-160685000D03*
X182600000Y-161918332D03*
X182600000Y-162534998D03*
X182600000Y-163768330D03*
X182600000Y-164385000D03*
X182610000Y-160065000D03*
X182654000Y-161305000D03*
X182656000Y-163175000D03*
X183236000Y-161305000D03*
X183238000Y-163175000D03*
X183818000Y-161305000D03*
X183820000Y-163175000D03*
X184400000Y-161305000D03*
X184402000Y-163175000D03*
%TD*%
%TO.C,U64*%
X178580000Y-174985000D03*
X178582000Y-176855000D03*
X179162000Y-174985000D03*
X179164000Y-176855000D03*
X179744000Y-174985000D03*
X179746000Y-176855000D03*
X180326000Y-174985000D03*
X180328000Y-176855000D03*
X180380000Y-173755000D03*
X180380000Y-174375000D03*
X180380000Y-175608332D03*
X180380000Y-176224998D03*
X180380000Y-177458330D03*
X180380000Y-178075000D03*
X180908000Y-174985000D03*
X180910000Y-176855000D03*
D11*
X181480000Y-174835000D03*
D10*
X181490000Y-174985000D03*
X181492000Y-176855000D03*
X182072000Y-174985000D03*
X182074000Y-176855000D03*
X182600000Y-174365000D03*
X182600000Y-175598332D03*
X182600000Y-176214998D03*
X182600000Y-177448330D03*
X182600000Y-178065000D03*
X182610000Y-173745000D03*
X182654000Y-174985000D03*
X182656000Y-176855000D03*
X183236000Y-174985000D03*
X183238000Y-176855000D03*
X183818000Y-174985000D03*
X183820000Y-176855000D03*
X184400000Y-174985000D03*
X184402000Y-176855000D03*
%TD*%
%TO.C,U73*%
X205970000Y-174775000D03*
X205968000Y-172905000D03*
X205388000Y-174775000D03*
X205386000Y-172905000D03*
X204806000Y-174775000D03*
X204804000Y-172905000D03*
X204224000Y-174775000D03*
X204222000Y-172905000D03*
X204170000Y-176005000D03*
X204170000Y-175385000D03*
X204170000Y-174151668D03*
X204170000Y-173535002D03*
X204170000Y-172301670D03*
X204170000Y-171685000D03*
X203642000Y-174775000D03*
X203640000Y-172905000D03*
D11*
X203070000Y-174925000D03*
D10*
X203060000Y-174775000D03*
X203058000Y-172905000D03*
X202478000Y-174775000D03*
X202476000Y-172905000D03*
X201950000Y-175395000D03*
X201950000Y-174161668D03*
X201950000Y-173545002D03*
X201950000Y-172311670D03*
X201950000Y-171695000D03*
X201940000Y-176015000D03*
X201896000Y-174775000D03*
X201894000Y-172905000D03*
X201314000Y-174775000D03*
X201312000Y-172905000D03*
X200732000Y-174775000D03*
X200730000Y-172905000D03*
X200150000Y-174775000D03*
X200148000Y-172905000D03*
%TD*%
%TO.C,U56*%
X162930000Y-161005000D03*
X162928000Y-159135000D03*
X162348000Y-161005000D03*
X162346000Y-159135000D03*
X161766000Y-161005000D03*
X161764000Y-159135000D03*
X161184000Y-161005000D03*
X161182000Y-159135000D03*
X161130000Y-162235000D03*
X161130000Y-161615000D03*
X161130000Y-160381668D03*
X161130000Y-159765002D03*
X161130000Y-158531670D03*
X161130000Y-157915000D03*
X160602000Y-161005000D03*
X160600000Y-159135000D03*
D11*
X160030000Y-161155000D03*
D10*
X160020000Y-161005000D03*
X160018000Y-159135000D03*
X159438000Y-161005000D03*
X159436000Y-159135000D03*
X158910000Y-161625000D03*
X158910000Y-160391668D03*
X158910000Y-159775002D03*
X158910000Y-158541670D03*
X158910000Y-157925000D03*
X158900000Y-162245000D03*
X158856000Y-161005000D03*
X158854000Y-159135000D03*
X158274000Y-161005000D03*
X158272000Y-159135000D03*
X157692000Y-161005000D03*
X157690000Y-159135000D03*
X157110000Y-161005000D03*
X157108000Y-159135000D03*
%TD*%
D12*
%TO.C,H6*%
X192930000Y-181770000D03*
%TD*%
%TO.C,H8*%
X170930000Y-181770000D03*
%TD*%
D13*
%TO.C,J1*%
X164295549Y-85250000D03*
X164295549Y-92250000D03*
X169295549Y-85250000D03*
X169295549Y-92250000D03*
%TD*%
D12*
%TO.C,H5*%
X192930000Y-167770000D03*
%TD*%
D14*
%TO.C,H2*%
X238000000Y-106000000D03*
%TD*%
D15*
%TO.C,J6*%
X217870000Y-89035000D03*
X212090000Y-89035000D03*
D16*
X219300000Y-89535000D03*
D17*
X219300000Y-85355000D03*
D16*
X210660000Y-89535000D03*
D17*
X210660000Y-85355000D03*
%TD*%
D12*
%TO.C,H10*%
X148930000Y-181770000D03*
%TD*%
%TO.C,H7*%
X170930000Y-167770000D03*
%TD*%
D14*
%TO.C,H1*%
X119000000Y-202000000D03*
%TD*%
%TO.C,H4*%
X119000000Y-106000000D03*
%TD*%
D13*
%TO.C,J2*%
X185805549Y-85250000D03*
X185805549Y-92250000D03*
X190805549Y-85250000D03*
X190805549Y-92250000D03*
%TD*%
D12*
%TO.C,H9*%
X148930000Y-167770000D03*
%TD*%
D14*
%TO.C,H3*%
X238000000Y-202000000D03*
%TD*%
D18*
%TO.C,TP95*%
X133260000Y-154710000D03*
%TD*%
D19*
%TO.C,C118*%
X127440000Y-156730000D03*
X127440000Y-157690000D03*
%TD*%
D20*
%TO.C,R129*%
X197060000Y-174630000D03*
X196040000Y-174630000D03*
%TD*%
D21*
%TO.C,U28*%
X127870000Y-162530000D03*
X128820000Y-162530000D03*
X129770000Y-162530000D03*
X129770000Y-164805000D03*
X127870000Y-164805000D03*
%TD*%
D22*
%TO.C,C159*%
X132130000Y-164550000D03*
X132130000Y-163590000D03*
%TD*%
D19*
%TO.C,C215*%
X169272500Y-186550000D03*
X169272500Y-187510000D03*
%TD*%
D22*
%TO.C,C275*%
X205900000Y-168470000D03*
X205900000Y-167510000D03*
%TD*%
D18*
%TO.C,TP124*%
X175360000Y-165050000D03*
%TD*%
%TO.C,TP104*%
X175460000Y-169690000D03*
%TD*%
D23*
%TO.C,R97*%
X152520000Y-160828000D03*
X153540000Y-160828000D03*
%TD*%
D20*
%TO.C,R12*%
X191500000Y-185640000D03*
X190480000Y-185640000D03*
%TD*%
D23*
%TO.C,R115*%
X188100000Y-159086000D03*
X189120000Y-159086000D03*
%TD*%
D20*
%TO.C,R15*%
X191500000Y-188520000D03*
X190480000Y-188520000D03*
%TD*%
D24*
%TO.C,U52*%
X167970000Y-174885000D03*
X167020000Y-174885000D03*
X166070000Y-174885000D03*
X166070000Y-172610000D03*
X167970000Y-172610000D03*
%TD*%
D19*
%TO.C,C242*%
X185360000Y-181220000D03*
X185360000Y-182180000D03*
%TD*%
%TO.C,C236*%
X184330000Y-181220000D03*
X184330000Y-182180000D03*
%TD*%
D22*
%TO.C,C191*%
X146392500Y-163440000D03*
X146392500Y-162480000D03*
%TD*%
D23*
%TO.C,R119*%
X188100000Y-157070000D03*
X189120000Y-157070000D03*
%TD*%
D19*
%TO.C,C257*%
X215897500Y-156822500D03*
X215897500Y-157782500D03*
%TD*%
D24*
%TO.C,U68*%
X214580000Y-164500000D03*
X213630000Y-164500000D03*
X212680000Y-164500000D03*
X212680000Y-162225000D03*
X214580000Y-162225000D03*
%TD*%
D23*
%TO.C,R117*%
X188100000Y-158078000D03*
X189120000Y-158078000D03*
%TD*%
D19*
%TO.C,C240*%
X185674000Y-154234000D03*
X185674000Y-155194000D03*
%TD*%
D22*
%TO.C,C183*%
X148490000Y-189290000D03*
X148490000Y-188330000D03*
%TD*%
D23*
%TO.C,R89*%
X166350000Y-190266000D03*
X167370000Y-190266000D03*
%TD*%
D22*
%TO.C,C196*%
X154480000Y-173170000D03*
X154480000Y-172210000D03*
%TD*%
%TO.C,C218*%
X169292500Y-189810000D03*
X169292500Y-188850000D03*
%TD*%
D19*
%TO.C,C228*%
X191242500Y-161605000D03*
X191242500Y-162565000D03*
%TD*%
D18*
%TO.C,TP100*%
X148475000Y-190800000D03*
%TD*%
D24*
%TO.C,U70*%
X214620000Y-173490000D03*
X213670000Y-173490000D03*
X212720000Y-173490000D03*
X212720000Y-171215000D03*
X214620000Y-171215000D03*
%TD*%
D19*
%TO.C,C120*%
X127390000Y-183740000D03*
X127390000Y-184700000D03*
%TD*%
%TO.C,C258*%
X210120000Y-186870000D03*
X210120000Y-187830000D03*
%TD*%
D21*
%TO.C,U42*%
X128540000Y-171155000D03*
X129490000Y-171155000D03*
X130440000Y-171155000D03*
X130440000Y-173430000D03*
X128540000Y-173430000D03*
%TD*%
%TO.C,U48*%
X149847500Y-186510000D03*
X150797500Y-186510000D03*
X151747500Y-186510000D03*
X151747500Y-188785000D03*
X149847500Y-188785000D03*
%TD*%
D18*
%TO.C,TP146*%
X217525000Y-170700000D03*
%TD*%
D20*
%TO.C,R133*%
X197060000Y-178662000D03*
X196040000Y-178662000D03*
%TD*%
D23*
%TO.C,R17*%
X194590000Y-189475000D03*
X195610000Y-189475000D03*
%TD*%
%TO.C,R88*%
X166350000Y-191284000D03*
X167370000Y-191284000D03*
%TD*%
D19*
%TO.C,C112*%
X127147500Y-175770000D03*
X127147500Y-176730000D03*
%TD*%
D18*
%TO.C,TP55*%
X125580000Y-173890000D03*
%TD*%
D19*
%TO.C,C263*%
X209520000Y-157920000D03*
X209520000Y-158880000D03*
%TD*%
%TO.C,C176*%
X142440000Y-181200000D03*
X142440000Y-182160000D03*
%TD*%
D25*
%TO.C,R58*%
X128488000Y-180870000D03*
X128488000Y-181890000D03*
%TD*%
D22*
%TO.C,C192*%
X154410000Y-185900000D03*
X154410000Y-184940000D03*
%TD*%
D19*
%TO.C,C174*%
X141630000Y-154340000D03*
X141630000Y-155300000D03*
%TD*%
%TO.C,C181*%
X148190000Y-172215000D03*
X148190000Y-173175000D03*
%TD*%
D22*
%TO.C,C248*%
X215937500Y-164982500D03*
X215937500Y-164022500D03*
%TD*%
D19*
%TO.C,C261*%
X209070000Y-186870000D03*
X209070000Y-187830000D03*
%TD*%
D22*
%TO.C,C246*%
X216017500Y-192602500D03*
X216017500Y-191642500D03*
%TD*%
D20*
%TO.C,R120*%
X166960000Y-160720000D03*
X165940000Y-160720000D03*
%TD*%
%TO.C,R63*%
X145810000Y-172760000D03*
X144790000Y-172760000D03*
%TD*%
%TO.C,R83*%
X145810000Y-176784000D03*
X144790000Y-176784000D03*
%TD*%
D18*
%TO.C,TP51*%
X124650000Y-165275000D03*
%TD*%
D22*
%TO.C,C227*%
X174600000Y-193470000D03*
X174600000Y-192510000D03*
%TD*%
D24*
%TO.C,U67*%
X214620000Y-178390000D03*
X213670000Y-178390000D03*
X212720000Y-178390000D03*
X212720000Y-176115000D03*
X214620000Y-176115000D03*
%TD*%
D21*
%TO.C,U50*%
X149970000Y-154835000D03*
X150920000Y-154835000D03*
X151870000Y-154835000D03*
X151870000Y-157110000D03*
X149970000Y-157110000D03*
%TD*%
D22*
%TO.C,C201*%
X164338000Y-194310000D03*
X164338000Y-195270000D03*
%TD*%
%TO.C,C224*%
X169272500Y-194620000D03*
X169272500Y-193660000D03*
%TD*%
D18*
%TO.C,TP54*%
X125476000Y-159820000D03*
%TD*%
D26*
%TO.C,R122*%
X168820000Y-163530000D03*
X168820000Y-162510000D03*
%TD*%
D27*
%TO.C,C177*%
X144440000Y-153345000D03*
X144440000Y-156295000D03*
%TD*%
D26*
%TO.C,R125*%
X213922000Y-182110000D03*
X213922000Y-181090000D03*
%TD*%
D21*
%TO.C,U58*%
X173350000Y-172500000D03*
X174300000Y-172500000D03*
X175250000Y-172500000D03*
X175250000Y-174775000D03*
X173350000Y-174775000D03*
%TD*%
D18*
%TO.C,TP7*%
X226220000Y-162260000D03*
%TD*%
D28*
%TO.C,C212*%
X165980000Y-169535000D03*
X165980000Y-166585000D03*
%TD*%
D20*
%TO.C,R131*%
X197060000Y-176646000D03*
X196040000Y-176646000D03*
%TD*%
D18*
%TO.C,TP53*%
X125300000Y-192775000D03*
%TD*%
D25*
%TO.C,R104*%
X145350000Y-191115000D03*
X145350000Y-192135000D03*
%TD*%
D21*
%TO.C,U32*%
X128960000Y-157230000D03*
X129910000Y-157230000D03*
X130860000Y-157230000D03*
X130860000Y-159505000D03*
X128960000Y-159505000D03*
%TD*%
D19*
%TO.C,C113*%
X127030000Y-189520000D03*
X127030000Y-190480000D03*
%TD*%
D18*
%TO.C,TP123*%
X176750000Y-195670000D03*
%TD*%
D22*
%TO.C,C189*%
X150970000Y-193650000D03*
X150970000Y-192690000D03*
%TD*%
D19*
%TO.C,C234*%
X184589000Y-154234000D03*
X184589000Y-155194000D03*
%TD*%
D18*
%TO.C,TP143*%
X217570000Y-175530000D03*
%TD*%
D19*
%TO.C,C223*%
X191598749Y-173023749D03*
X191598749Y-172063749D03*
%TD*%
D22*
%TO.C,C185*%
X148632500Y-157595000D03*
X148632500Y-156635000D03*
%TD*%
D19*
%TO.C,C251*%
X215917500Y-161752500D03*
X215917500Y-162712500D03*
%TD*%
D24*
%TO.C,U57*%
X194752500Y-162050000D03*
X193802500Y-162050000D03*
X192852500Y-162050000D03*
X192852500Y-159775000D03*
X194752500Y-159775000D03*
%TD*%
D20*
%TO.C,R123*%
X210110000Y-189950000D03*
X209090000Y-189950000D03*
%TD*%
D28*
%TO.C,C278*%
X208950000Y-169515000D03*
X208950000Y-166565000D03*
%TD*%
D26*
%TO.C,R126*%
X212918000Y-182110000D03*
X212918000Y-181090000D03*
%TD*%
D23*
%TO.C,R108*%
X174630000Y-187828000D03*
X175650000Y-187828000D03*
%TD*%
D22*
%TO.C,C229*%
X175510000Y-178050000D03*
X175510000Y-177090000D03*
%TD*%
D23*
%TO.C,R121*%
X188110000Y-162142000D03*
X189130000Y-162142000D03*
%TD*%
D22*
%TO.C,C157*%
X127400000Y-186955000D03*
X127400000Y-185995000D03*
%TD*%
D18*
%TO.C,TP52*%
X125550000Y-179040000D03*
%TD*%
%TO.C,TP103*%
X148375000Y-193050000D03*
%TD*%
D20*
%TO.C,R85*%
X145010000Y-165375000D03*
X143990000Y-165375000D03*
%TD*%
%TO.C,R79*%
X145810000Y-175778000D03*
X144790000Y-175778000D03*
%TD*%
D19*
%TO.C,C219*%
X169980000Y-159230000D03*
X169980000Y-160190000D03*
%TD*%
D22*
%TO.C,C116*%
X127167500Y-178970000D03*
X127167500Y-178010000D03*
%TD*%
D19*
%TO.C,C188*%
X146402500Y-160200000D03*
X146402500Y-161160000D03*
%TD*%
%TO.C,C170*%
X141395000Y-181200000D03*
X141395000Y-182160000D03*
%TD*%
D23*
%TO.C,R90*%
X166350000Y-189248000D03*
X167370000Y-189248000D03*
%TD*%
D21*
%TO.C,U51*%
X152337500Y-190925000D03*
X153287500Y-190925000D03*
X154237500Y-190925000D03*
X154237500Y-193200000D03*
X152337500Y-193200000D03*
%TD*%
D26*
%TO.C,R127*%
X211914000Y-182110000D03*
X211914000Y-181090000D03*
%TD*%
%TO.C,R18*%
X209680000Y-162480000D03*
X209680000Y-161460000D03*
%TD*%
D22*
%TO.C,C184*%
X148190000Y-175435000D03*
X148190000Y-174475000D03*
%TD*%
%TO.C,C187*%
X169290000Y-175370000D03*
X169290000Y-174410000D03*
%TD*%
%TO.C,C208*%
X162880000Y-182130000D03*
X162880000Y-181170000D03*
%TD*%
D18*
%TO.C,TP9*%
X226240000Y-159690000D03*
%TD*%
D25*
%TO.C,R59*%
X129492000Y-180870000D03*
X129492000Y-181890000D03*
%TD*%
D26*
%TO.C,R128*%
X210910000Y-182110000D03*
X210910000Y-181090000D03*
%TD*%
D24*
%TO.C,U66*%
X214620000Y-192100000D03*
X213670000Y-192100000D03*
X212720000Y-192100000D03*
X212720000Y-189825000D03*
X214620000Y-189825000D03*
%TD*%
D21*
%TO.C,U62*%
X170650000Y-191865000D03*
X171600000Y-191865000D03*
X172550000Y-191865000D03*
X172550000Y-194140000D03*
X170650000Y-194140000D03*
%TD*%
D22*
%TO.C,C207*%
X163268000Y-194310000D03*
X163268000Y-195270000D03*
%TD*%
%TO.C,C220*%
X191618749Y-174343749D03*
X191618749Y-175303749D03*
%TD*%
D23*
%TO.C,R113*%
X188100000Y-160094000D03*
X189120000Y-160094000D03*
%TD*%
D22*
%TO.C,C164*%
X132900000Y-192755000D03*
X132900000Y-191795000D03*
%TD*%
%TO.C,C195*%
X153300000Y-185900000D03*
X153300000Y-184940000D03*
%TD*%
D18*
%TO.C,TP101*%
X153470000Y-175880000D03*
%TD*%
D21*
%TO.C,U59*%
X170650000Y-187060000D03*
X171600000Y-187060000D03*
X172550000Y-187060000D03*
X172550000Y-189335000D03*
X170650000Y-189335000D03*
%TD*%
D22*
%TO.C,C197*%
X154600000Y-155220000D03*
X154600000Y-154260000D03*
%TD*%
%TO.C,C194*%
X153610000Y-155220000D03*
X153610000Y-154260000D03*
%TD*%
D18*
%TO.C,TP97*%
X132760000Y-159420000D03*
%TD*%
D22*
%TO.C,C268*%
X207020000Y-182310000D03*
X207020000Y-181350000D03*
%TD*%
D20*
%TO.C,R75*%
X145810000Y-174772000D03*
X144790000Y-174772000D03*
%TD*%
%TO.C,R130*%
X197060000Y-175638000D03*
X196040000Y-175638000D03*
%TD*%
D21*
%TO.C,U30*%
X128390000Y-190005000D03*
X129340000Y-190005000D03*
X130290000Y-190005000D03*
X130290000Y-192280000D03*
X128390000Y-192280000D03*
%TD*%
%TO.C,U60*%
X171347500Y-159715000D03*
X172297500Y-159715000D03*
X173247500Y-159715000D03*
X173247500Y-161990000D03*
X171347500Y-161990000D03*
%TD*%
D23*
%TO.C,R99*%
X152520000Y-159814000D03*
X153540000Y-159814000D03*
%TD*%
D19*
%TO.C,C221*%
X169292500Y-191360000D03*
X169292500Y-192320000D03*
%TD*%
D20*
%TO.C,R114*%
X166960000Y-163740000D03*
X165940000Y-163740000D03*
%TD*%
D18*
%TO.C,TP121*%
X196200000Y-157690000D03*
%TD*%
D20*
%TO.C,R16*%
X191500000Y-189480000D03*
X190480000Y-189480000D03*
%TD*%
%TO.C,R112*%
X166960000Y-164750000D03*
X165940000Y-164750000D03*
%TD*%
D23*
%TO.C,R91*%
X166350000Y-188230000D03*
X167370000Y-188230000D03*
%TD*%
D20*
%TO.C,R65*%
X145810000Y-173766000D03*
X144790000Y-173766000D03*
%TD*%
%TO.C,R118*%
X166960000Y-161720000D03*
X165940000Y-161720000D03*
%TD*%
D25*
%TO.C,R103*%
X153760000Y-166100000D03*
X153760000Y-167120000D03*
%TD*%
D22*
%TO.C,C202*%
X163970000Y-182130000D03*
X163970000Y-181170000D03*
%TD*%
D18*
%TO.C,TP122*%
X173010000Y-177130000D03*
%TD*%
D22*
%TO.C,C213*%
X196120000Y-162530000D03*
X196120000Y-161570000D03*
%TD*%
D27*
%TO.C,C244*%
X187580000Y-166575000D03*
X187580000Y-169525000D03*
%TD*%
D19*
%TO.C,C186*%
X150980000Y-190430000D03*
X150980000Y-191390000D03*
%TD*%
%TO.C,C190*%
X169290000Y-172140000D03*
X169290000Y-173100000D03*
%TD*%
D25*
%TO.C,R60*%
X130496000Y-180870000D03*
X130496000Y-181890000D03*
%TD*%
D19*
%TO.C,C241*%
X184700000Y-167540000D03*
X184700000Y-168500000D03*
%TD*%
D22*
%TO.C,C225*%
X175410000Y-162680000D03*
X175410000Y-161720000D03*
%TD*%
%TO.C,C209*%
X162880000Y-168410000D03*
X162880000Y-167450000D03*
%TD*%
D18*
%TO.C,TP102*%
X147040000Y-157590000D03*
%TD*%
D21*
%TO.C,U43*%
X128750000Y-184215000D03*
X129700000Y-184215000D03*
X130650000Y-184215000D03*
X130650000Y-186490000D03*
X128750000Y-186490000D03*
%TD*%
D29*
%TO.C,C23*%
X220338410Y-169666590D03*
X221298410Y-169666590D03*
%TD*%
D18*
%TO.C,TP142*%
X217630000Y-189330000D03*
%TD*%
D19*
%TO.C,C249*%
X215997500Y-189372500D03*
X215997500Y-190332500D03*
%TD*%
D22*
%TO.C,C161*%
X131820000Y-192755000D03*
X131820000Y-191795000D03*
%TD*%
D19*
%TO.C,C255*%
X216017500Y-184452500D03*
X216017500Y-185412500D03*
%TD*%
D30*
%TO.C,U5*%
X221980000Y-168210000D03*
X219680000Y-168210000D03*
X219680000Y-166310000D03*
X221980000Y-166310000D03*
%TD*%
D23*
%TO.C,R92*%
X166350000Y-187212000D03*
X167370000Y-187212000D03*
%TD*%
D19*
%TO.C,C235*%
X185730000Y-167550000D03*
X185730000Y-168510000D03*
%TD*%
D22*
%TO.C,C269*%
X207005000Y-168470000D03*
X207005000Y-167510000D03*
%TD*%
D18*
%TO.C,TP98*%
X132740000Y-161490000D03*
%TD*%
D23*
%TO.C,R101*%
X152520000Y-158800000D03*
X153540000Y-158800000D03*
%TD*%
D20*
%TO.C,R98*%
X145390000Y-186294000D03*
X144370000Y-186294000D03*
%TD*%
D19*
%TO.C,C180*%
X148490000Y-186030000D03*
X148490000Y-186990000D03*
%TD*%
%TO.C,C250*%
X216000000Y-175682500D03*
X216000000Y-176642500D03*
%TD*%
D18*
%TO.C,TP147*%
X217625000Y-156850000D03*
%TD*%
D24*
%TO.C,U61*%
X190258749Y-172553749D03*
X188358749Y-172553749D03*
X188358749Y-174828749D03*
X189308749Y-174828749D03*
X190258749Y-174828749D03*
%TD*%
D28*
%TO.C,C276*%
X209312000Y-196778000D03*
X209312000Y-193828000D03*
%TD*%
D22*
%TO.C,C253*%
X215980000Y-173952500D03*
X215980000Y-172992500D03*
%TD*%
D25*
%TO.C,R57*%
X127484000Y-180870000D03*
X127484000Y-181890000D03*
%TD*%
D23*
%TO.C,R106*%
X174630000Y-189832000D03*
X175650000Y-189832000D03*
%TD*%
D20*
%TO.C,R96*%
X145390000Y-185292000D03*
X144370000Y-185292000D03*
%TD*%
D19*
%TO.C,C111*%
X126440000Y-162095000D03*
X126440000Y-163055000D03*
%TD*%
D22*
%TO.C,C163*%
X132930000Y-178400000D03*
X132930000Y-177440000D03*
%TD*%
D19*
%TO.C,C175*%
X142140000Y-168450000D03*
X142140000Y-167490000D03*
%TD*%
%TO.C,C119*%
X127210000Y-170670000D03*
X127210000Y-171630000D03*
%TD*%
D28*
%TO.C,C211*%
X165990000Y-183410000D03*
X165990000Y-180460000D03*
%TD*%
D19*
%TO.C,C168*%
X142690000Y-154340000D03*
X142690000Y-155300000D03*
%TD*%
%TO.C,C259*%
X209525000Y-172845000D03*
X209525000Y-173805000D03*
%TD*%
D22*
%TO.C,C117*%
X127040000Y-192770000D03*
X127040000Y-191810000D03*
%TD*%
D18*
%TO.C,TP99*%
X125510000Y-157570000D03*
%TD*%
%TO.C,TP126*%
X174370000Y-195720000D03*
%TD*%
D22*
%TO.C,C273*%
X206502000Y-195778000D03*
X206502000Y-194818000D03*
%TD*%
D26*
%TO.C,R124*%
X214926000Y-182110000D03*
X214926000Y-181090000D03*
%TD*%
D23*
%TO.C,R110*%
X174630000Y-185824000D03*
X175650000Y-185824000D03*
%TD*%
D22*
%TO.C,C115*%
X126430000Y-165305000D03*
X126430000Y-164345000D03*
%TD*%
D19*
%TO.C,C262*%
X210580000Y-172845000D03*
X210580000Y-173805000D03*
%TD*%
D25*
%TO.C,R62*%
X131500000Y-180870000D03*
X131500000Y-181890000D03*
%TD*%
D20*
%TO.C,R13*%
X191500000Y-186600000D03*
X190480000Y-186600000D03*
%TD*%
D28*
%TO.C,C210*%
X166128000Y-194651000D03*
X166128000Y-197601000D03*
%TD*%
D24*
%TO.C,U69*%
X214620000Y-187200000D03*
X213670000Y-187200000D03*
X212720000Y-187200000D03*
X212720000Y-184925000D03*
X214620000Y-184925000D03*
%TD*%
D18*
%TO.C,TP8*%
X219750000Y-164500000D03*
%TD*%
%TO.C,TP6*%
X226210000Y-164860000D03*
%TD*%
D20*
%TO.C,R14*%
X191500000Y-187560000D03*
X190480000Y-187560000D03*
%TD*%
D27*
%TO.C,C179*%
X144320000Y-179845000D03*
X144320000Y-182795000D03*
%TD*%
D18*
%TO.C,TP56*%
X125500000Y-186970000D03*
%TD*%
D28*
%TO.C,C277*%
X208950000Y-183285000D03*
X208950000Y-180335000D03*
%TD*%
D22*
%TO.C,C162*%
X133130000Y-164550000D03*
X133130000Y-163590000D03*
%TD*%
%TO.C,C267*%
X207572000Y-195783000D03*
X207572000Y-194823000D03*
%TD*%
D19*
%TO.C,C214*%
X171990000Y-172010000D03*
X171990000Y-172970000D03*
%TD*%
D22*
%TO.C,C254*%
X215917500Y-160082500D03*
X215917500Y-159122500D03*
%TD*%
%TO.C,C247*%
X216000000Y-178862500D03*
X216000000Y-177902500D03*
%TD*%
%TO.C,C122*%
X127440000Y-159950000D03*
X127440000Y-158990000D03*
%TD*%
D24*
%TO.C,U71*%
X214580000Y-159600000D03*
X213630000Y-159600000D03*
X212680000Y-159600000D03*
X212680000Y-157325000D03*
X214580000Y-157325000D03*
%TD*%
D27*
%TO.C,C243*%
X187524000Y-152187000D03*
X187524000Y-155137000D03*
%TD*%
D18*
%TO.C,TP105*%
X144840000Y-163470000D03*
%TD*%
D20*
%TO.C,R100*%
X145390000Y-187296000D03*
X144370000Y-187296000D03*
%TD*%
D22*
%TO.C,C160*%
X131900000Y-177750000D03*
X131900000Y-176790000D03*
%TD*%
D19*
%TO.C,C216*%
X196120000Y-159290000D03*
X196120000Y-160250000D03*
%TD*%
D20*
%TO.C,R132*%
X197060000Y-177654000D03*
X196040000Y-177654000D03*
%TD*%
D31*
%TO.C,C226*%
X188430000Y-176700000D03*
X187470000Y-176700000D03*
%TD*%
D22*
%TO.C,C217*%
X171990000Y-175250000D03*
X171990000Y-174290000D03*
%TD*%
D23*
%TO.C,R109*%
X174630000Y-186826000D03*
X175650000Y-186826000D03*
%TD*%
D21*
%TO.C,U53*%
X147740000Y-160695000D03*
X148690000Y-160695000D03*
X149640000Y-160695000D03*
X149640000Y-162970000D03*
X147740000Y-162970000D03*
%TD*%
D22*
%TO.C,C252*%
X215997500Y-187682500D03*
X215997500Y-186722500D03*
%TD*%
D21*
%TO.C,U49*%
X149570000Y-172695000D03*
X150520000Y-172695000D03*
X151470000Y-172695000D03*
X151470000Y-174970000D03*
X149570000Y-174970000D03*
%TD*%
D18*
%TO.C,TP144*%
X217750000Y-161825000D03*
%TD*%
D20*
%TO.C,R102*%
X145390000Y-188298000D03*
X144370000Y-188298000D03*
%TD*%
D22*
%TO.C,C156*%
X127207500Y-173895000D03*
X127207500Y-172935000D03*
%TD*%
D18*
%TO.C,TP145*%
X217600000Y-184325000D03*
%TD*%
D26*
%TO.C,R105*%
X175500000Y-180760000D03*
X175500000Y-179740000D03*
%TD*%
D22*
%TO.C,C230*%
X175670000Y-193480000D03*
X175670000Y-192520000D03*
%TD*%
D18*
%TO.C,TP125*%
X193850000Y-172700000D03*
%TD*%
D27*
%TO.C,C245*%
X187290000Y-180435000D03*
X187290000Y-183385000D03*
%TD*%
D22*
%TO.C,C203*%
X163935000Y-168410000D03*
X163935000Y-167450000D03*
%TD*%
D20*
%TO.C,R134*%
X197060000Y-173610000D03*
X196040000Y-173610000D03*
%TD*%
D27*
%TO.C,C178*%
X132525000Y-166925000D03*
X132525000Y-169875000D03*
%TD*%
D19*
%TO.C,C256*%
X215980000Y-170702500D03*
X215980000Y-171662500D03*
%TD*%
D25*
%TO.C,R56*%
X132550000Y-180890000D03*
X132550000Y-181910000D03*
%TD*%
D23*
%TO.C,R111*%
X188110000Y-161082000D03*
X189130000Y-161082000D03*
%TD*%
%TO.C,R87*%
X166350000Y-192330000D03*
X167370000Y-192330000D03*
%TD*%
D20*
%TO.C,R94*%
X145390000Y-184290000D03*
X144370000Y-184290000D03*
%TD*%
D19*
%TO.C,C169*%
X141095000Y-168450000D03*
X141095000Y-167490000D03*
%TD*%
D20*
%TO.C,R116*%
X166960000Y-162730000D03*
X165940000Y-162730000D03*
%TD*%
D23*
%TO.C,R93*%
X152520000Y-162856000D03*
X153540000Y-162856000D03*
%TD*%
D19*
%TO.C,C260*%
X210520000Y-157920000D03*
X210520000Y-158880000D03*
%TD*%
D31*
%TO.C,C193*%
X166690000Y-171040000D03*
X165730000Y-171040000D03*
%TD*%
D23*
%TO.C,R95*%
X152520000Y-161842000D03*
X153540000Y-161842000D03*
%TD*%
D22*
%TO.C,C222*%
X169990000Y-162470000D03*
X169990000Y-161510000D03*
%TD*%
D21*
%TO.C,U29*%
X128520000Y-176245000D03*
X129470000Y-176245000D03*
X130420000Y-176245000D03*
X130420000Y-178520000D03*
X128520000Y-178520000D03*
%TD*%
D18*
%TO.C,TP96*%
X131190000Y-154650000D03*
%TD*%
D19*
%TO.C,C182*%
X148622500Y-154355000D03*
X148622500Y-155315000D03*
%TD*%
D22*
%TO.C,C274*%
X205920000Y-182310000D03*
X205920000Y-181350000D03*
%TD*%
D23*
%TO.C,R107*%
X174630000Y-188830000D03*
X175650000Y-188830000D03*
%TD*%
M02*
