%TF.GenerationSoftware,KiCad,Pcbnew,9.0.0*%
%TF.CreationDate,2025-03-15T22:01:34-04:00*%
%TF.ProjectId,emberone,656d6265-726f-46e6-952e-6b696361645f,rev?*%
%TF.SameCoordinates,Original*%
%TF.FileFunction,Copper,L2,Inr*%
%TF.FilePolarity,Positive*%
%FSLAX46Y46*%
G04 Gerber Fmt 4.6, Leading zero omitted, Abs format (unit mm)*
G04 Created by KiCad (PCBNEW 9.0.0) date 2025-03-15 22:01:34*
%MOMM*%
%LPD*%
G01*
G04 APERTURE LIST*
%TA.AperFunction,ComponentPad*%
%ADD10C,0.540000*%
%TD*%
%TA.AperFunction,HeatsinkPad*%
%ADD11C,0.540000*%
%TD*%
%TA.AperFunction,ComponentPad*%
%ADD12C,1.348000*%
%TD*%
%TA.AperFunction,ComponentPad*%
%ADD13C,6.400000*%
%TD*%
%TA.AperFunction,ComponentPad*%
%ADD14C,3.200000*%
%TD*%
%TA.AperFunction,ComponentPad*%
%ADD15O,1.000000X2.100000*%
%TD*%
%TA.AperFunction,ComponentPad*%
%ADD16O,1.000000X1.800000*%
%TD*%
%TA.AperFunction,ViaPad*%
%ADD17C,0.800000*%
%TD*%
%TA.AperFunction,ViaPad*%
%ADD18C,0.500000*%
%TD*%
%TA.AperFunction,ViaPad*%
%ADD19C,1.000000*%
%TD*%
G04 APERTURE END LIST*
D10*
%TO.N,/stack5/GND1*%
%TO.C,U55*%
X162235712Y-174725000D03*
X162230000Y-172755000D03*
X161130000Y-171735000D03*
X161122856Y-174725000D03*
X161117144Y-172755000D03*
X161100000Y-175765000D03*
X161100000Y-173805000D03*
X159945712Y-174725000D03*
X159940000Y-172755000D03*
X158900000Y-172775000D03*
X158890000Y-171745000D03*
D11*
X158880000Y-175765000D03*
D10*
X158880000Y-173825000D03*
X158878572Y-174725000D03*
X157685712Y-174725000D03*
X157680000Y-172755000D03*
%TD*%
%TO.N,/stack4/GND1*%
%TO.C,U46*%
X136214288Y-174925000D03*
X136220000Y-176895000D03*
X137320000Y-177915000D03*
X137327144Y-174925000D03*
X137332856Y-176895000D03*
X137350000Y-173885000D03*
X137350000Y-175845000D03*
X138504288Y-174925000D03*
X138510000Y-176895000D03*
X139550000Y-176875000D03*
X139560000Y-177905000D03*
D11*
X139570000Y-173885000D03*
D10*
X139570000Y-175825000D03*
X139571428Y-174925000D03*
X140764288Y-174925000D03*
X140770000Y-176895000D03*
%TD*%
%TO.N,/stack6/GND1*%
%TO.C,U64*%
X179254288Y-174945000D03*
X179260000Y-176915000D03*
X180360000Y-177935000D03*
X180367144Y-174945000D03*
X180372856Y-176915000D03*
X180390000Y-173905000D03*
X180390000Y-175865000D03*
X181544288Y-174945000D03*
X181550000Y-176915000D03*
X182590000Y-176895000D03*
X182600000Y-177925000D03*
D11*
X182610000Y-173905000D03*
D10*
X182610000Y-175845000D03*
X182611428Y-174945000D03*
X183804288Y-174945000D03*
X183810000Y-176915000D03*
%TD*%
%TO.N,/stack7/GND1*%
%TO.C,U73*%
X205295712Y-174815000D03*
X205290000Y-172845000D03*
X204190000Y-171825000D03*
X204182856Y-174815000D03*
X204177144Y-172845000D03*
X204160000Y-175855000D03*
X204160000Y-173895000D03*
X203005712Y-174815000D03*
X203000000Y-172845000D03*
X201960000Y-172865000D03*
X201950000Y-171835000D03*
D11*
X201940000Y-175855000D03*
D10*
X201940000Y-173915000D03*
X201938572Y-174815000D03*
X200745712Y-174815000D03*
X200740000Y-172845000D03*
%TD*%
%TO.N,/stack6/GND2*%
%TO.C,U65*%
X179254288Y-188635000D03*
X179260000Y-190605000D03*
X180360000Y-191625000D03*
X180367144Y-188635000D03*
X180372856Y-190605000D03*
X180390000Y-187595000D03*
X180390000Y-189555000D03*
X181544288Y-188635000D03*
X181550000Y-190605000D03*
X182590000Y-190585000D03*
X182600000Y-191615000D03*
D11*
X182610000Y-187595000D03*
D10*
X182610000Y-189535000D03*
X182611428Y-188635000D03*
X183804288Y-188635000D03*
X183810000Y-190605000D03*
%TD*%
%TO.N,/stack4/GND2*%
%TO.C,U47*%
X136214288Y-188605000D03*
X136220000Y-190575000D03*
X137320000Y-191595000D03*
X137327144Y-188605000D03*
X137332856Y-190575000D03*
X137350000Y-187565000D03*
X137350000Y-189525000D03*
X138504288Y-188605000D03*
X138510000Y-190575000D03*
X139550000Y-190555000D03*
X139560000Y-191585000D03*
D11*
X139570000Y-187565000D03*
D10*
X139570000Y-189505000D03*
X139571428Y-188605000D03*
X140764288Y-188605000D03*
X140770000Y-190575000D03*
%TD*%
%TO.N,GND*%
%TO.C,U74*%
X205295712Y-161135000D03*
X205290000Y-159165000D03*
X204190000Y-158145000D03*
X204182856Y-161135000D03*
X204177144Y-159165000D03*
X204160000Y-162175000D03*
X204160000Y-160215000D03*
X203005712Y-161135000D03*
X203000000Y-159165000D03*
X201960000Y-159185000D03*
X201950000Y-158155000D03*
D11*
X201940000Y-162175000D03*
D10*
X201940000Y-160235000D03*
X201938572Y-161135000D03*
X200745712Y-161135000D03*
X200740000Y-159165000D03*
%TD*%
%TO.N,/stack5/GND0*%
%TO.C,U54*%
X162235712Y-188395000D03*
X162230000Y-186425000D03*
X161130000Y-185405000D03*
X161122856Y-188395000D03*
X161117144Y-186425000D03*
X161100000Y-189435000D03*
X161100000Y-187475000D03*
X159945712Y-188395000D03*
X159940000Y-186425000D03*
X158900000Y-186445000D03*
X158890000Y-185415000D03*
D11*
X158880000Y-189435000D03*
D10*
X158880000Y-187495000D03*
X158878572Y-188395000D03*
X157685712Y-188395000D03*
X157680000Y-186425000D03*
%TD*%
%TO.N,/stack4/GND0*%
%TO.C,U45*%
X136214288Y-161235000D03*
X136220000Y-163205000D03*
X137320000Y-164225000D03*
X137327144Y-161235000D03*
X137332856Y-163205000D03*
X137350000Y-160195000D03*
X137350000Y-162155000D03*
X138504288Y-161235000D03*
X138510000Y-163205000D03*
X139550000Y-163185000D03*
X139560000Y-164215000D03*
D11*
X139570000Y-160195000D03*
D10*
X139570000Y-162135000D03*
X139571428Y-161235000D03*
X140764288Y-161235000D03*
X140770000Y-163205000D03*
%TD*%
%TO.N,/stack7/GND0*%
%TO.C,U72*%
X205295712Y-188505000D03*
X205290000Y-186535000D03*
X204190000Y-185515000D03*
X204182856Y-188505000D03*
X204177144Y-186535000D03*
X204160000Y-189545000D03*
X204160000Y-187585000D03*
X203005712Y-188505000D03*
X203000000Y-186535000D03*
X201960000Y-186555000D03*
X201950000Y-185525000D03*
D11*
X201940000Y-189545000D03*
D10*
X201940000Y-187605000D03*
X201938572Y-188505000D03*
X200745712Y-188505000D03*
X200740000Y-186535000D03*
%TD*%
%TO.N,/stack6/GND0*%
%TO.C,U63*%
X179254288Y-161265000D03*
X179260000Y-163235000D03*
X180360000Y-164255000D03*
X180367144Y-161265000D03*
X180372856Y-163235000D03*
X180390000Y-160225000D03*
X180390000Y-162185000D03*
X181544288Y-161265000D03*
X181550000Y-163235000D03*
X182590000Y-163215000D03*
X182600000Y-164245000D03*
D11*
X182610000Y-160225000D03*
D10*
X182610000Y-162165000D03*
X182611428Y-161265000D03*
X183804288Y-161265000D03*
X183810000Y-163235000D03*
%TD*%
%TO.N,/stack5/GND2*%
%TO.C,U56*%
X162255712Y-161045000D03*
X162250000Y-159075000D03*
X161150000Y-158055000D03*
X161142856Y-161045000D03*
X161137144Y-159075000D03*
X161120000Y-162085000D03*
X161120000Y-160125000D03*
X159965712Y-161045000D03*
X159960000Y-159075000D03*
X158920000Y-159095000D03*
X158910000Y-158065000D03*
D11*
X158900000Y-162085000D03*
D10*
X158900000Y-160145000D03*
X158898572Y-161045000D03*
X157705712Y-161045000D03*
X157700000Y-159075000D03*
%TD*%
D12*
%TO.N,/3V6*%
%TO.C,J19*%
X122620000Y-134240000D03*
%TO.N,GND*%
X121350000Y-135510000D03*
X123890000Y-135510000D03*
X121350000Y-132970000D03*
X123890000Y-132970000D03*
%TD*%
D13*
%TO.N,unconnected-(H6-Pad1)*%
%TO.C,H6*%
X192930000Y-181770000D03*
%TD*%
%TO.N,unconnected-(H8-Pad1)*%
%TO.C,H8*%
X170930000Y-181770000D03*
%TD*%
D14*
%TO.N,/Power/VIN*%
%TO.C,J1*%
X164295549Y-81250000D03*
X164295549Y-88250000D03*
X169295549Y-81250000D03*
X169295549Y-88250000D03*
%TD*%
D13*
%TO.N,unconnected-(H5-Pad1)*%
%TO.C,H5*%
X192930000Y-167770000D03*
%TD*%
D15*
%TO.N,GND*%
%TO.C,J6*%
X226268700Y-85495000D03*
D16*
X226268700Y-81315000D03*
D15*
X217628700Y-85495000D03*
D16*
X217628700Y-81315000D03*
%TD*%
D13*
%TO.N,unconnected-(H10-Pad1)*%
%TO.C,H10*%
X148930000Y-181770000D03*
%TD*%
%TO.N,unconnected-(H7-Pad1)*%
%TO.C,H7*%
X170930000Y-167770000D03*
%TD*%
D14*
%TO.N,GND*%
%TO.C,J2*%
X192774249Y-81300000D03*
X192774249Y-88300000D03*
X197774249Y-81300000D03*
X197774249Y-88300000D03*
%TD*%
D13*
%TO.N,unconnected-(H9-Pad1)*%
%TO.C,H9*%
X148930000Y-167770000D03*
%TD*%
D17*
%TO.N,GND*%
X125800000Y-88150000D03*
D18*
%TO.N,Net-(U27-GPIO1)*%
X238442649Y-84808600D03*
D19*
%TO.N,/3V6*%
X149440000Y-132190000D03*
X147890000Y-132180000D03*
X150960000Y-132170000D03*
X149440000Y-133560000D03*
X152580000Y-130760000D03*
X149440000Y-134920000D03*
X149470000Y-130780000D03*
X152550000Y-134900000D03*
X150990000Y-130760000D03*
X150960000Y-134900000D03*
X147920000Y-130770000D03*
X147890000Y-133550000D03*
X147890000Y-134910000D03*
X152550000Y-133540000D03*
X152550000Y-132170000D03*
X150960000Y-133540000D03*
D18*
%TO.N,GND*%
X231800000Y-145150000D03*
X230200000Y-146900000D03*
%TO.N,/3V3*%
X232000000Y-147400000D03*
%TO.N,/stack7/RST_N*%
X226800000Y-164400000D03*
%TO.N,Net-(U74-NRSTI)*%
X224750000Y-164400000D03*
%TO.N,/stack7/RO*%
X226850000Y-163100000D03*
%TO.N,Net-(U74-RO)*%
X224750000Y-163100000D03*
%TO.N,/stack7/CI*%
X226850000Y-161750000D03*
%TO.N,Net-(U74-CI)*%
X224750000Y-161750000D03*
D19*
%TO.N,/Power/VIN_M*%
X159200000Y-100800000D03*
X159220000Y-102290000D03*
D18*
%TO.N,GND*%
X154300000Y-101950000D03*
%TO.N,Net-(U1-CSG2)*%
X152650000Y-101950000D03*
%TO.N,/Power/LOOP2*%
X154250000Y-98600000D03*
%TO.N,Net-(U1-CS2)*%
X134400000Y-87140000D03*
X152550000Y-98600000D03*
%TO.N,Net-(U1-CSG2)*%
X133650000Y-89950000D03*
%TO.N,/Power/VIN_M*%
X146200000Y-102700000D03*
%TO.N,/Power/LOOP1*%
X149200000Y-101950000D03*
%TO.N,Net-(U1-CS1)*%
X145970000Y-99550835D03*
X135058909Y-97491091D03*
%TO.N,GND*%
X146430000Y-103700000D03*
%TO.N,Net-(U1-CSG1)*%
X143650000Y-102500000D03*
X134250000Y-97460000D03*
%TO.N,GND*%
X121700000Y-156000000D03*
X122750000Y-154750000D03*
X118800000Y-134200000D03*
D19*
%TO.N,/Power/VIN_M*%
X162170000Y-103740000D03*
X163720000Y-103740000D03*
X165270000Y-103730000D03*
X166820000Y-103730000D03*
X168370000Y-103730000D03*
X169920000Y-103730000D03*
X165227631Y-96550000D03*
X162086051Y-96550000D03*
X163656841Y-96550000D03*
X163660841Y-97920000D03*
X162096051Y-97920000D03*
X160660000Y-99320000D03*
X162140000Y-99280000D03*
X160670000Y-100810000D03*
X160690000Y-102300000D03*
D17*
%TO.N,GND*%
X151860000Y-97710000D03*
D18*
%TO.N,/Data/SCL*%
X155094000Y-92162183D03*
%TO.N,/Data/SDA*%
X155094000Y-92940000D03*
D17*
%TO.N,/3V3*%
X153730000Y-97700000D03*
D18*
%TO.N,GND*%
X118800000Y-145400000D03*
X120500000Y-145390000D03*
X118800000Y-118420000D03*
X120400000Y-118410000D03*
X123000000Y-106670000D03*
X124100000Y-107900000D03*
X133250000Y-102700000D03*
X133250000Y-104350000D03*
X144550000Y-98950000D03*
X142721041Y-98046399D03*
X124600000Y-156600000D03*
X124600000Y-158500000D03*
X119210000Y-153600000D03*
X120500000Y-152400000D03*
X118820000Y-124940000D03*
X120420000Y-124950000D03*
X118910000Y-110820000D03*
X120440000Y-111560000D03*
X126700000Y-102900000D03*
X127600000Y-104400000D03*
X138300000Y-104350000D03*
X138200000Y-102600000D03*
X140200000Y-100600000D03*
X141450000Y-101750000D03*
%TO.N,/stack7/GND1*%
X198993333Y-166800000D03*
X199990000Y-166780000D03*
X200986666Y-166780000D03*
X201983333Y-166780000D03*
X202980000Y-166780000D03*
X203976666Y-166780000D03*
X204973333Y-166780000D03*
%TO.N,/stack6/GND1*%
X177300000Y-182100000D03*
X178316667Y-182090000D03*
X179333333Y-182090000D03*
X180350000Y-182090000D03*
X181366667Y-182090000D03*
X182383333Y-182090000D03*
X183400000Y-182090000D03*
%TO.N,/stack5/GND2*%
X177323333Y-154760000D03*
X178451666Y-154760000D03*
X179580000Y-154760000D03*
X180708333Y-154760000D03*
X181836667Y-154760000D03*
X182965000Y-154760000D03*
D17*
%TO.N,GND*%
X163420000Y-122337500D03*
D19*
X200270000Y-145960000D03*
D17*
X162300000Y-119982500D03*
X198600000Y-120052500D03*
D19*
X205920000Y-147360000D03*
D17*
X163870000Y-128107500D03*
D18*
X230640000Y-97240000D03*
D17*
X163420000Y-118805000D03*
D18*
X132913949Y-93291049D03*
X135050000Y-92220000D03*
D17*
X173630000Y-114205000D03*
D18*
X221400807Y-96170000D03*
D17*
X163870000Y-126930000D03*
D19*
X201690000Y-144550000D03*
D17*
X154150000Y-88260000D03*
X176510000Y-114095000D03*
X164560000Y-115462500D03*
D19*
X201680000Y-147380000D03*
D17*
X168460000Y-123650000D03*
D18*
X215570807Y-93370000D03*
D19*
X194095000Y-144555000D03*
D17*
X157951600Y-89788400D03*
X169650000Y-126930000D03*
D18*
X222820807Y-96170000D03*
D17*
X162300000Y-121160000D03*
D18*
X132910000Y-94430000D03*
D17*
X167460000Y-115422500D03*
D18*
X140726200Y-96300000D03*
D19*
X204510000Y-147380000D03*
D18*
X164900000Y-118620000D03*
X198140000Y-164650000D03*
D17*
X168460000Y-121295000D03*
X162300000Y-123515000D03*
D18*
X132910000Y-92220000D03*
X122405000Y-179190000D03*
X235550000Y-147550000D03*
D17*
X157711600Y-99268400D03*
X192220000Y-123585000D03*
X229823700Y-94620000D03*
D18*
X135053949Y-93291049D03*
D17*
X131225000Y-100725000D03*
D19*
X195605000Y-147365000D03*
D17*
X192220000Y-120052500D03*
X163420000Y-123515000D03*
D18*
X214680807Y-94405000D03*
X143490000Y-89770000D03*
D17*
X172950000Y-129285000D03*
D18*
X234220000Y-172300000D03*
D17*
X192220000Y-122407500D03*
X163420000Y-119982500D03*
X193420000Y-120112500D03*
D18*
X226640000Y-91325000D03*
D17*
X132980000Y-101440000D03*
D19*
X205920000Y-145970000D03*
X203100000Y-147350000D03*
D18*
X223670807Y-104100000D03*
X220915382Y-99500000D03*
D17*
X123450000Y-92130000D03*
X164560000Y-114285000D03*
D18*
X226450807Y-103480000D03*
D19*
X203110000Y-144520000D03*
D17*
X123010000Y-95810000D03*
X172950000Y-126930000D03*
X198600000Y-118875000D03*
D18*
X222120807Y-96997500D03*
X231941360Y-155816335D03*
D19*
X198725000Y-144525000D03*
X200280000Y-144520000D03*
D18*
X225100807Y-106260000D03*
D19*
X194085000Y-145995000D03*
D18*
X221390807Y-97840000D03*
D17*
X192220000Y-118875000D03*
D19*
X204520000Y-144550000D03*
D17*
X162300000Y-122337500D03*
D18*
X134010000Y-92210000D03*
D17*
X193420000Y-122467500D03*
D19*
X192545000Y-144545000D03*
D18*
X219020807Y-105560000D03*
D17*
X169650000Y-129285000D03*
D18*
X135050000Y-94430000D03*
D17*
X173630000Y-116560000D03*
X169650000Y-128107500D03*
X198600000Y-121230000D03*
D18*
X134013949Y-93281049D03*
X218870000Y-89770000D03*
X234518700Y-82280000D03*
D17*
X168460000Y-122472500D03*
X168460000Y-118940000D03*
D19*
X201680000Y-145990000D03*
D17*
X192220000Y-121230000D03*
D18*
X222810807Y-97840000D03*
D17*
X193420000Y-123645000D03*
D19*
X200270000Y-147350000D03*
D18*
X228890000Y-99050000D03*
D17*
X176510000Y-116450000D03*
X167460000Y-114245000D03*
D19*
X204510000Y-145990000D03*
X205930000Y-144530000D03*
D17*
X197020000Y-115480000D03*
X163870000Y-129285000D03*
D18*
X227780000Y-92400000D03*
D17*
X197020000Y-114302500D03*
D19*
X198715000Y-145965000D03*
X192535000Y-147375000D03*
D17*
X168460000Y-120117500D03*
D18*
X234564000Y-179264000D03*
D17*
X147980000Y-92930000D03*
X198330000Y-116580000D03*
X176510000Y-115272500D03*
X193420000Y-121290000D03*
D18*
X121060000Y-171340000D03*
D19*
X197195000Y-147365000D03*
D18*
X225100807Y-103530000D03*
X150680000Y-97660000D03*
X134010000Y-94420000D03*
D19*
X192535000Y-145985000D03*
D18*
X234600000Y-155500000D03*
D19*
X197205000Y-144535000D03*
X194085000Y-147385000D03*
D18*
X196220000Y-117990000D03*
D17*
X198600000Y-123585000D03*
D19*
X197195000Y-145975000D03*
D17*
X198600000Y-122407500D03*
D19*
X203100000Y-145960000D03*
D18*
X209030000Y-164830000D03*
D17*
X164560000Y-116640000D03*
D19*
X195615000Y-144535000D03*
D17*
X163420000Y-121160000D03*
D19*
X237938700Y-91180000D03*
D17*
X139580000Y-84210000D03*
D18*
X139540000Y-98625000D03*
X214870000Y-97560000D03*
D19*
X198715000Y-147355000D03*
D17*
X162300000Y-118805000D03*
D19*
X239343700Y-91185000D03*
D17*
X131400000Y-84190000D03*
X172950000Y-128107500D03*
X193420000Y-118935000D03*
D18*
X215700000Y-89470000D03*
D17*
X167460000Y-116600000D03*
D19*
X195605000Y-145975000D03*
D17*
X173630000Y-115382500D03*
D19*
%TO.N,/Power/VIN_M*%
X168388000Y-99280000D03*
X202420000Y-103560000D03*
X208220000Y-102260000D03*
X199450000Y-99690000D03*
X169930000Y-102290000D03*
X202410000Y-100960000D03*
X205350000Y-103530000D03*
X205340000Y-100930000D03*
X169950000Y-99280000D03*
X202420000Y-104930000D03*
X198050000Y-100950000D03*
D18*
X161060000Y-95990000D03*
D19*
X165274000Y-102290000D03*
X200950000Y-102280000D03*
X206810000Y-103570000D03*
X169910000Y-100800000D03*
X206770000Y-99700000D03*
X199490000Y-102260000D03*
X166826000Y-102290000D03*
X166808000Y-105130000D03*
X162170000Y-102300000D03*
X198020000Y-99680000D03*
X162150000Y-100800000D03*
X203820000Y-100950000D03*
X165264000Y-99280000D03*
X198060000Y-103550000D03*
X168355210Y-97920000D03*
X199490000Y-103560000D03*
D18*
X127968951Y-93950000D03*
D19*
X200940000Y-100980000D03*
X203790000Y-99680000D03*
X169920000Y-97920000D03*
X169940000Y-96550000D03*
X165225631Y-97920000D03*
X205310000Y-99660000D03*
X168354000Y-105130000D03*
X163763949Y-106473949D03*
X166826000Y-99280000D03*
X162170000Y-105103949D03*
X208220000Y-103560000D03*
X165262000Y-105130000D03*
X168378000Y-102290000D03*
X206810000Y-102270000D03*
X208180000Y-98320000D03*
X199450000Y-98320000D03*
X208210000Y-100960000D03*
X208180000Y-99690000D03*
D18*
X159480000Y-95990000D03*
D19*
X203830000Y-102250000D03*
X199490000Y-104930000D03*
X206800000Y-100970000D03*
X198060000Y-102250000D03*
X166798420Y-96550000D03*
X166790420Y-97920000D03*
X205310000Y-98290000D03*
X168358000Y-100800000D03*
X206770000Y-98330000D03*
X200950000Y-104950000D03*
X163722000Y-102300000D03*
X163716000Y-105103949D03*
X166806000Y-100800000D03*
X200910000Y-98340000D03*
X202380000Y-98320000D03*
X199480000Y-100960000D03*
X169900000Y-105130000D03*
X200910000Y-99710000D03*
X203790000Y-98310000D03*
X163702000Y-99280000D03*
X200950000Y-103580000D03*
D18*
X160270000Y-95990000D03*
D19*
X168369210Y-96550000D03*
X203830000Y-103550000D03*
X160750000Y-103750000D03*
X205350000Y-102230000D03*
X198020000Y-98310000D03*
X163702000Y-100800000D03*
X202380000Y-99690000D03*
X165254000Y-100800000D03*
X198060000Y-104920000D03*
X202420000Y-102260000D03*
D18*
%TO.N,Net-(D1-A)*%
X137370000Y-90530000D03*
X131960000Y-96750000D03*
%TO.N,Net-(U1-COMP1)*%
X138240000Y-91660000D03*
X138280000Y-93630000D03*
%TO.N,Net-(D2-A)*%
X136880000Y-88310000D03*
X130400000Y-87860000D03*
X132320000Y-88248792D03*
D19*
%TO.N,/3V6*%
X131235000Y-141275000D03*
X215293700Y-135720000D03*
X132825000Y-139905000D03*
X132825000Y-141275000D03*
D18*
X138720000Y-155620000D03*
D19*
X138720000Y-145450000D03*
X218340000Y-138730000D03*
D17*
X176690000Y-135180000D03*
D19*
X128165000Y-142645000D03*
X134335000Y-145455000D03*
X212260000Y-135710000D03*
X128165000Y-141285000D03*
D18*
X137785000Y-154810000D03*
D17*
X176690000Y-133605000D03*
D19*
X135900000Y-139890000D03*
X140140000Y-141290000D03*
X168800000Y-133310000D03*
X213800000Y-142140000D03*
X215293700Y-137310000D03*
X210776300Y-138880000D03*
X132815000Y-145465000D03*
X216846558Y-134030000D03*
X215293700Y-134200000D03*
X128195000Y-138505000D03*
X212256300Y-140500000D03*
X209320000Y-134190000D03*
X164535000Y-133310000D03*
X140140000Y-142650000D03*
X216846558Y-137170000D03*
D17*
X176690000Y-132015000D03*
D19*
X167410000Y-133310000D03*
X140170000Y-138510000D03*
D18*
X136830000Y-155620000D03*
D19*
X213813700Y-134200000D03*
X218330000Y-141980000D03*
X213813700Y-131010000D03*
X137310000Y-142650000D03*
X164535000Y-134900000D03*
X213813700Y-135720000D03*
X141540000Y-145460000D03*
X215290000Y-138890000D03*
X216846558Y-135450000D03*
X134345000Y-139895000D03*
X137340000Y-138510000D03*
D18*
X139675000Y-154810000D03*
D19*
X134345000Y-141265000D03*
D18*
X140620000Y-154810000D03*
D19*
X135890000Y-146840000D03*
X210780000Y-135710000D03*
X134345000Y-142625000D03*
X209320000Y-131000000D03*
X131225000Y-145465000D03*
X165925000Y-133310000D03*
X138720000Y-146840000D03*
X216842858Y-138750000D03*
X218340000Y-140350000D03*
X140130000Y-145480000D03*
X216832858Y-142000000D03*
X137300000Y-145480000D03*
X138730000Y-141260000D03*
X212260000Y-131000000D03*
X213813700Y-137310000D03*
X128155000Y-146865000D03*
X210780000Y-132590000D03*
X213810000Y-138890000D03*
X134375000Y-138485000D03*
X131235000Y-142635000D03*
D18*
X134940000Y-155630000D03*
D19*
X131265000Y-138495000D03*
X135930000Y-138480000D03*
X141540000Y-146850000D03*
X167410000Y-136500000D03*
D18*
X137775000Y-155620000D03*
D19*
X218343700Y-137150000D03*
X135900000Y-142620000D03*
X132825000Y-142635000D03*
X209320000Y-135710000D03*
X140140000Y-139920000D03*
X140130000Y-146870000D03*
D18*
X135895000Y-154810000D03*
X135885000Y-155620000D03*
D19*
X216842858Y-140370000D03*
X215293700Y-132600000D03*
X164535000Y-136500000D03*
X215290000Y-140510000D03*
D18*
X138730000Y-154810000D03*
D19*
X216846558Y-132440000D03*
D18*
X136840000Y-154810000D03*
D19*
X132815000Y-146855000D03*
X137310000Y-139920000D03*
X141550000Y-142630000D03*
X128165000Y-144035000D03*
X210780000Y-134190000D03*
X141550000Y-144020000D03*
X141550000Y-141270000D03*
X137310000Y-144040000D03*
X129715000Y-144045000D03*
X135890000Y-145450000D03*
X131225000Y-146855000D03*
X209320000Y-137300000D03*
X168800000Y-134900000D03*
X129705000Y-146875000D03*
X218286558Y-130900000D03*
X210780000Y-137300000D03*
X138730000Y-142620000D03*
X167410000Y-134900000D03*
X134345000Y-144015000D03*
X138760000Y-138480000D03*
X128155000Y-145475000D03*
X129745000Y-138515000D03*
X216846558Y-130920000D03*
X137310000Y-141290000D03*
X134335000Y-146845000D03*
X138730000Y-139890000D03*
X218343700Y-135430000D03*
X140140000Y-144040000D03*
X209320000Y-132590000D03*
X129715000Y-142655000D03*
D18*
X142400000Y-153030000D03*
D19*
X212260000Y-137300000D03*
X141580000Y-138490000D03*
X218286558Y-132420000D03*
X212260000Y-134190000D03*
X215280000Y-142140000D03*
X129705000Y-145485000D03*
X132855000Y-138495000D03*
X212260000Y-132590000D03*
X165925000Y-136500000D03*
X210780000Y-131000000D03*
X135900000Y-144010000D03*
X215293700Y-131010000D03*
D18*
X134950000Y-154810000D03*
X140610000Y-155620000D03*
D19*
X213813700Y-132600000D03*
X129715000Y-141295000D03*
X165925000Y-134900000D03*
D18*
X139665000Y-155620000D03*
D19*
X168800000Y-136500000D03*
X213810000Y-140510000D03*
X131235000Y-144025000D03*
X218286558Y-134010000D03*
X137300000Y-146870000D03*
X138730000Y-144010000D03*
X131235000Y-139905000D03*
X132825000Y-144025000D03*
X212256300Y-138880000D03*
X135900000Y-141260000D03*
X128165000Y-139915000D03*
X141550000Y-139900000D03*
X129715000Y-139925000D03*
D18*
%TO.N,/Power/VIN*%
X162100000Y-92080000D03*
X159500000Y-89280000D03*
X163730000Y-91170000D03*
X162920000Y-92070000D03*
X161280000Y-92070000D03*
X160383333Y-89290000D03*
X162910000Y-91160000D03*
X161270000Y-91160000D03*
X162090000Y-91170000D03*
X163740000Y-92080000D03*
X162130000Y-90210000D03*
X160363333Y-90200000D03*
X162150000Y-89300000D03*
X159480000Y-90190000D03*
X161246667Y-90220000D03*
X161266667Y-89310000D03*
%TO.N,Net-(Q1-G)*%
X144102469Y-96254200D03*
X157040000Y-109910000D03*
%TO.N,Net-(Q2-G)*%
X159800000Y-117390000D03*
X148570000Y-100290000D03*
%TO.N,Net-(Q3-G)*%
X146210000Y-93290000D03*
X211140000Y-103930000D03*
%TO.N,Net-(Q4-G)*%
X207858700Y-117450000D03*
X144600000Y-93950000D03*
%TO.N,/3V3*%
X213100000Y-100560000D03*
X227650807Y-103350000D03*
X223640807Y-103330000D03*
X222560807Y-91580000D03*
D17*
X147980000Y-89450000D03*
D19*
X233898700Y-94980000D03*
D18*
X218030807Y-90795000D03*
X224920807Y-92475000D03*
X232200000Y-171100000D03*
D17*
X156461600Y-99268400D03*
D18*
X226790807Y-94405000D03*
D19*
X233898700Y-93380000D03*
D18*
X226880807Y-98005000D03*
X120100000Y-169750000D03*
D17*
X150928949Y-87930000D03*
D18*
X212200000Y-89510000D03*
X217350807Y-94390000D03*
X217020807Y-97560000D03*
%TO.N,/Data/1V1*%
X221910807Y-94615000D03*
X222270807Y-99385000D03*
X223850807Y-94615000D03*
%TO.N,/stack4/GND0*%
X137243333Y-168470000D03*
X139076667Y-169270000D03*
X139090000Y-168470000D03*
X138153333Y-169270000D03*
X140013333Y-168470000D03*
X136306667Y-169270000D03*
X133360000Y-157380000D03*
X136320000Y-168470000D03*
X138166666Y-168470000D03*
X135383333Y-169270000D03*
X134460000Y-169270000D03*
X134473333Y-168470000D03*
X143630000Y-157610000D03*
X135396666Y-168470000D03*
X140000000Y-169270000D03*
X137230000Y-169270000D03*
%TO.N,/stack4/GND1*%
X134300000Y-182980000D03*
X135340000Y-182980000D03*
X139513333Y-182170000D03*
X140540000Y-182980000D03*
X135353333Y-182170000D03*
X137433333Y-182170000D03*
X139500000Y-182980000D03*
X138473333Y-182170000D03*
X136380000Y-182980000D03*
X137420000Y-182980000D03*
X136393333Y-182170000D03*
X140553333Y-182170000D03*
X132890000Y-171260000D03*
X143440000Y-171040000D03*
X134313333Y-182170000D03*
X138460000Y-182980000D03*
%TO.N,/stack4/GND2*%
X156720000Y-194960000D03*
X159545000Y-194960000D03*
X157655000Y-194100000D03*
X160486667Y-194960000D03*
X164338000Y-196342000D03*
X158603333Y-194960000D03*
X160480000Y-194100000D03*
X161428333Y-194960000D03*
X159538333Y-194100000D03*
X158596666Y-194100000D03*
X162370000Y-194950000D03*
X143620000Y-183930000D03*
X133380000Y-184540000D03*
X156713333Y-194100000D03*
X161421666Y-194100000D03*
X162363333Y-194090000D03*
X157661667Y-194960000D03*
%TO.N,/stack4/1V2-0*%
X133120000Y-165470000D03*
D17*
%TO.N,/Power/SW1*%
X152550000Y-105080000D03*
X153620000Y-109825000D03*
X148967500Y-113450000D03*
X148962500Y-112380000D03*
X153680000Y-112120000D03*
X151337500Y-112380000D03*
X153680000Y-110932500D03*
X150150000Y-112380000D03*
X152525000Y-112380000D03*
X153620000Y-108637500D03*
X153620000Y-105075000D03*
X152550000Y-109830000D03*
X153680000Y-114495000D03*
X150155000Y-113450000D03*
X153680000Y-113307500D03*
D18*
X131940000Y-98140000D03*
D17*
X152550000Y-106267500D03*
X147775000Y-112380000D03*
X153620000Y-106262500D03*
X151342500Y-113450000D03*
X154750000Y-114490000D03*
D18*
X140913909Y-98486091D03*
D17*
X152550000Y-107455000D03*
X152550000Y-108642500D03*
D18*
X135730121Y-98950900D03*
D17*
X153620000Y-107450000D03*
X154750000Y-110927500D03*
X154750000Y-112115000D03*
X154750000Y-113302500D03*
X147780000Y-113450000D03*
X152530000Y-113450000D03*
%TO.N,/Power/SW2*%
X209000000Y-112090000D03*
X212870000Y-109800000D03*
D18*
X201698700Y-113100000D03*
D17*
X211650000Y-107435000D03*
X214222500Y-113470000D03*
X209000000Y-110902500D03*
X215410000Y-113470000D03*
X215405000Y-112400000D03*
X213035000Y-113470000D03*
X213030000Y-112400000D03*
X214217500Y-112400000D03*
X209000000Y-113277500D03*
X212870000Y-105050000D03*
X212870000Y-108612500D03*
X209000000Y-114465000D03*
D18*
X130930000Y-89160000D03*
D17*
X212870000Y-106237500D03*
X211650000Y-109810000D03*
X211650000Y-106247500D03*
X211650000Y-108622500D03*
X211847500Y-113470000D03*
X212870000Y-107425000D03*
X210660000Y-113470000D03*
X210655000Y-112400000D03*
X211842500Y-112400000D03*
%TO.N,/Power/LOOP1*%
X154260000Y-122252500D03*
X159120000Y-123460000D03*
X159120000Y-122282500D03*
X154260000Y-119897500D03*
X160050000Y-123450000D03*
X160050000Y-119917500D03*
X160050000Y-118740000D03*
X160050000Y-121095000D03*
X154260000Y-121075000D03*
X154260000Y-118720000D03*
X159120000Y-121105000D03*
D18*
X155150000Y-117110000D03*
D17*
X154260000Y-123430000D03*
X159120000Y-119927500D03*
X159120000Y-118750000D03*
X160050000Y-122272500D03*
%TO.N,/Power/LOOP2*%
X202770000Y-119962500D03*
D18*
X203028700Y-115973132D03*
D17*
X207810000Y-123360000D03*
X207810000Y-122217500D03*
X201710000Y-119952500D03*
X207810000Y-119932500D03*
X207810000Y-121075000D03*
X201710000Y-118810000D03*
X202770000Y-118820000D03*
X201710000Y-121095000D03*
X202770000Y-123390000D03*
X202770000Y-121105000D03*
X207810000Y-118790000D03*
X201710000Y-123380000D03*
X201710000Y-122237500D03*
X202770000Y-122247500D03*
D18*
%TO.N,/stack4/1V2-1*%
X132950000Y-179160000D03*
%TO.N,/stack4/1V2-2*%
X132790000Y-193870000D03*
%TO.N,/stack4/0V8-0*%
X132130000Y-165420000D03*
X128970000Y-160830000D03*
%TO.N,/stack4/0V8-1*%
X132850000Y-176370000D03*
X131580000Y-178390000D03*
%TO.N,/stack4/0V8-2*%
X128740000Y-187750000D03*
X131820000Y-193740000D03*
%TO.N,/stack5/GND0*%
X160835000Y-181180000D03*
X161810000Y-181180000D03*
X149930000Y-187660000D03*
X157923333Y-180320000D03*
X155070000Y-192060000D03*
X160848333Y-180320000D03*
X159860000Y-181180000D03*
X158885000Y-181180000D03*
X156948333Y-180320000D03*
X159873333Y-180320000D03*
X155973333Y-180330000D03*
X161823333Y-180320000D03*
X157910000Y-181180000D03*
X156935000Y-181180000D03*
X165540000Y-192030000D03*
X158898333Y-180320000D03*
X155960000Y-181190000D03*
%TO.N,/stack5/GND1*%
X155973333Y-166760000D03*
X160798333Y-166750000D03*
X157890000Y-167610000D03*
X161750000Y-167610000D03*
X159820000Y-167610000D03*
X158868333Y-166750000D03*
X159833333Y-166750000D03*
X158855000Y-167610000D03*
X161763333Y-166750000D03*
X155960000Y-167620000D03*
X156938333Y-166750000D03*
X160785000Y-167610000D03*
X164930000Y-178410000D03*
X156925000Y-167610000D03*
X157903333Y-166750000D03*
X154800000Y-178410000D03*
%TO.N,/stack5/GND2*%
X179483333Y-155620000D03*
X177310000Y-155620000D03*
X183830000Y-155620000D03*
X178396667Y-155620000D03*
X185674000Y-152908000D03*
X165002500Y-165607500D03*
X182743333Y-155620000D03*
X181656667Y-155620000D03*
X154770000Y-165410000D03*
X180570000Y-155620000D03*
X147722500Y-155955000D03*
X146362500Y-161820000D03*
%TO.N,/stack5/1V2-0*%
X152930000Y-186570000D03*
X154225000Y-184125000D03*
%TO.N,/stack5/1V2-1*%
X154880000Y-173920000D03*
%TO.N,/stack5/1V2-2*%
X150840000Y-157720000D03*
X154630000Y-156180000D03*
%TO.N,/stack5/0V8-0*%
X153800000Y-186900000D03*
%TO.N,/stack5/0V8-1*%
X165150000Y-171610000D03*
%TO.N,/stack5/0V8-2*%
X150691091Y-159021091D03*
X153560000Y-156200000D03*
%TO.N,/stack6/GND0*%
X181680000Y-169310000D03*
X182750000Y-169310000D03*
X178470000Y-168470000D03*
X180610000Y-168470000D03*
X179540000Y-169310000D03*
X181680000Y-168470000D03*
X180610000Y-169310000D03*
X186900000Y-156720000D03*
X178470000Y-169310000D03*
X183820000Y-168470000D03*
X177400000Y-169310000D03*
X182750000Y-168470000D03*
X179540000Y-168470000D03*
X183820000Y-169310000D03*
X177400000Y-168470000D03*
X176000000Y-157680000D03*
%TO.N,/stack6/GND1*%
X182373333Y-183030000D03*
X179323333Y-183030000D03*
X186710000Y-171070000D03*
X176020000Y-171340000D03*
X181356667Y-183030000D03*
X180340000Y-183030000D03*
X183390000Y-183030000D03*
X178306667Y-183030000D03*
X177290000Y-183040000D03*
%TO.N,/stack6/GND2*%
X204406666Y-194190000D03*
X203340000Y-194190000D03*
X186860000Y-184900000D03*
X207518000Y-197104000D03*
X199020000Y-195110000D03*
X203286667Y-195100000D03*
X202220000Y-195100000D03*
X205420000Y-195100000D03*
X205473333Y-194190000D03*
X176280000Y-184700000D03*
X200086667Y-195100000D03*
X202273333Y-194190000D03*
X201153333Y-195100000D03*
X199073333Y-194200000D03*
X201206666Y-194190000D03*
X204353333Y-195100000D03*
X200140000Y-194190000D03*
%TO.N,/stack6/1V2-0*%
X186660000Y-164720000D03*
%TO.N,/stack6/1V2-1*%
X176300000Y-178050000D03*
%TO.N,/stack6/1V2-2*%
X171480000Y-189320000D03*
X175650000Y-194370000D03*
%TO.N,/stack6/0V8-0*%
X175810000Y-163790000D03*
%TO.N,/stack6/0V8-1*%
X192528749Y-172053749D03*
X188425000Y-177750000D03*
%TO.N,/stack6/0V8-2*%
X174600000Y-194360000D03*
%TO.N,/stack7/GND0*%
X198900000Y-181340000D03*
X200930000Y-181320000D03*
X197820000Y-192140000D03*
X204990000Y-181320000D03*
X203975000Y-181320000D03*
X202960000Y-181320000D03*
X200953333Y-180440000D03*
X201945000Y-181320000D03*
X199915000Y-181320000D03*
X201968333Y-180440000D03*
X198923333Y-180460000D03*
X211600000Y-190930000D03*
X205013333Y-180440000D03*
X199938333Y-180440000D03*
X202983333Y-180440000D03*
X203998333Y-180440000D03*
%TO.N,/stack7/GND1*%
X197764455Y-178982768D03*
X204960000Y-167660000D03*
X198980000Y-167680000D03*
X200973333Y-167660000D03*
X199976667Y-167660000D03*
X202966667Y-167660000D03*
X201970000Y-167660000D03*
X208730000Y-178560000D03*
X203963333Y-167660000D03*
%TO.N,/stack7/1V2-0*%
X209080000Y-185050000D03*
X208200000Y-188330000D03*
%TO.N,/stack7/1V2-1*%
X213820000Y-175670000D03*
X210580000Y-172125000D03*
%TO.N,/stack7/1V2-2*%
X230195104Y-149850000D03*
X209520000Y-157460000D03*
X215026522Y-160913133D03*
X235600000Y-155510000D03*
%TO.N,/stack7/0V8-0*%
X209690000Y-185580000D03*
%TO.N,/stack7/0V8-1*%
X209560000Y-172150000D03*
%TO.N,/stack7/0V8-2*%
X210530000Y-157460000D03*
%TO.N,/Data/SWD*%
X223930807Y-99415000D03*
X224518291Y-90756321D03*
%TO.N,/Data/SWCLK*%
X223170807Y-99330000D03*
X221618700Y-89675000D03*
%TO.N,/Data/QSPI_SS*%
X211430807Y-91880000D03*
X217533835Y-93314305D03*
%TO.N,Net-(U46-NRSTO)*%
X143610000Y-171890000D03*
%TO.N,Net-(U46-CO)*%
X143526091Y-175413909D03*
%TO.N,Net-(U46-CLKO)*%
X143550000Y-174320000D03*
%TO.N,Net-(U46-RI)*%
X143549000Y-173531000D03*
%TO.N,Net-(U46-BO)*%
X143550000Y-172710000D03*
%TO.N,Net-(U45-BI)*%
X146620000Y-173760000D03*
%TO.N,Net-(U45-CO)*%
X132570000Y-157450000D03*
%TO.N,Net-(U46-CI)*%
X131620000Y-180330000D03*
%TO.N,Net-(U47-CO)*%
X131520000Y-182590000D03*
%TO.N,Net-(U46-CLKI)*%
X130490000Y-180200000D03*
%TO.N,Net-(U45-CLKO)*%
X131990000Y-157940000D03*
%TO.N,Net-(U47-CLKO)*%
X130540000Y-182580000D03*
%TO.N,Net-(U46-RO)*%
X129480000Y-180200000D03*
%TO.N,Net-(U45-RI)*%
X131920000Y-159470000D03*
X124639999Y-161557817D03*
%TO.N,Net-(U47-RI)*%
X129480000Y-182500000D03*
%TO.N,Net-(U46-BI)*%
X128490000Y-180200000D03*
%TO.N,Net-(U45-BO)*%
X131960000Y-160450000D03*
%TO.N,Net-(U47-BO)*%
X128530000Y-182610000D03*
%TO.N,Net-(U46-NRSTI)*%
X127630000Y-180180000D03*
%TO.N,Net-(U45-NRSTO)*%
X125520000Y-161250000D03*
%TO.N,Net-(U47-NRSTO)*%
X132770000Y-188170000D03*
X127670000Y-182610000D03*
%TO.N,Net-(U55-NRSTO)*%
X168190000Y-191270000D03*
X167275000Y-177375000D03*
%TO.N,Net-(U55-CO)*%
X168190000Y-187120000D03*
%TO.N,Net-(U55-CLKO)*%
X168190000Y-188140000D03*
%TO.N,Net-(U55-RI)*%
X168190000Y-189210000D03*
%TO.N,Net-(U55-BO)*%
X168190000Y-190200000D03*
%TO.N,Net-(U55-CI)*%
X151680000Y-158810000D03*
%TO.N,Net-(U54-CO)*%
X146462909Y-185587091D03*
%TO.N,Net-(U56-CO)*%
X154350000Y-158820000D03*
%TO.N,Net-(U54-CLKO)*%
X146350000Y-186390000D03*
%TO.N,Net-(U55-CLKI)*%
X151700000Y-159810000D03*
%TO.N,Net-(U56-CLKO)*%
X154853858Y-161636039D03*
%TO.N,Net-(U55-RO)*%
X151700000Y-160840000D03*
%TO.N,Net-(U54-RI)*%
X146310000Y-187330000D03*
X152400000Y-184150000D03*
%TO.N,Net-(U56-RI)*%
X154700000Y-163200000D03*
%TO.N,Net-(U55-BI)*%
X151660000Y-161870000D03*
%TO.N,Net-(U54-BO)*%
X146320000Y-188410000D03*
%TO.N,Net-(U56-BO)*%
X154040000Y-163980000D03*
%TO.N,Net-(U54-NRSTO)*%
X146310000Y-189360000D03*
%TO.N,Net-(U55-NRSTI)*%
X151940000Y-162856000D03*
%TO.N,Net-(U56-NRSTO)*%
X153370000Y-163610000D03*
%TO.N,Net-(U64-NRSTO)*%
X186625000Y-171910000D03*
X189920000Y-161070000D03*
%TO.N,Net-(U64-CO)*%
X190100000Y-157090000D03*
%TO.N,Net-(U64-CLKO)*%
X189890000Y-158110000D03*
%TO.N,Net-(U64-RI)*%
X189890000Y-159060000D03*
%TO.N,Net-(U64-BO)*%
X189890000Y-160050000D03*
%TO.N,Net-(U64-CI)*%
X173713954Y-186860313D03*
%TO.N,Net-(U63-CO)*%
X167780000Y-160730000D03*
%TO.N,Net-(U65-CO)*%
X176400000Y-185470000D03*
%TO.N,Net-(U63-CLKO)*%
X167780000Y-161720000D03*
%TO.N,Net-(U64-CLKI)*%
X173760000Y-187650000D03*
%TO.N,Net-(U65-CLKO)*%
X176430000Y-186240000D03*
%TO.N,Net-(U63-RI)*%
X167800000Y-159450000D03*
X167780000Y-162730000D03*
%TO.N,Net-(U64-RO)*%
X173800000Y-188400000D03*
%TO.N,Net-(U65-RI)*%
X176390000Y-187130000D03*
%TO.N,Net-(U64-BI)*%
X173800000Y-189325000D03*
%TO.N,Net-(U63-BO)*%
X167780000Y-163730000D03*
%TO.N,Net-(U65-BO)*%
X176370000Y-187940000D03*
%TO.N,Net-(U63-NRSTO)*%
X167775000Y-164750000D03*
%TO.N,Net-(U64-NRSTI)*%
X173800000Y-190250000D03*
%TO.N,Net-(U65-NRSTO)*%
X176196545Y-189791783D03*
%TO.N,Net-(U73-NRSTO)*%
X214940000Y-180240000D03*
X211450000Y-175450000D03*
%TO.N,Net-(U73-CO)*%
X210910000Y-180240000D03*
%TO.N,Net-(U73-CLKO)*%
X211920000Y-180240000D03*
%TO.N,Net-(U73-RI)*%
X212930000Y-180240000D03*
%TO.N,Net-(U73-BO)*%
X213920000Y-180230000D03*
%TO.N,Net-(U74-BI)*%
X209910000Y-163500000D03*
%TO.N,Net-(U72-CO)*%
X192260000Y-185660000D03*
%TO.N,Net-(U73-CI)*%
X197991091Y-177971091D03*
%TO.N,Net-(U72-CLKO)*%
X192260000Y-186610000D03*
%TO.N,Net-(U73-CLKI)*%
X197679096Y-177249096D03*
%TO.N,Net-(U72-RI)*%
X192280000Y-187570000D03*
%TO.N,Net-(U73-RO)*%
X197980000Y-176550000D03*
%TO.N,Net-(U73-BI)*%
X197690000Y-175850000D03*
%TO.N,Net-(U72-BO)*%
X192310000Y-188520000D03*
%TO.N,Net-(U73-NRSTI)*%
X197980000Y-175130000D03*
%TO.N,Net-(U72-NRSTO)*%
X192310000Y-189450000D03*
%TO.N,/stack4/RO*%
X143550000Y-186680000D03*
%TO.N,/stack4/CLKI*%
X143550000Y-185800000D03*
%TO.N,/stack4/CI*%
X143530000Y-184980000D03*
%TO.N,Net-(U74-NRSTO)*%
X195250000Y-174630000D03*
X197240686Y-164316752D03*
%TO.N,Net-(U74-BO)*%
X195230000Y-175567500D03*
%TO.N,Net-(U74-RI)*%
X195230000Y-176505000D03*
%TO.N,Net-(U74-CLKO)*%
X195230000Y-177442500D03*
%TO.N,Net-(U74-CO)*%
X195230000Y-178380000D03*
%TO.N,/Data/SCL*%
X230680000Y-104490000D03*
X218120807Y-102210000D03*
X215170000Y-100510000D03*
X151130000Y-94650000D03*
X122490000Y-104830000D03*
%TO.N,/Data/SDA*%
X122620000Y-105600000D03*
X231260000Y-105150000D03*
X212545000Y-98790000D03*
X150320000Y-94670000D03*
X217570807Y-102800000D03*
%TO.N,/Data/QSPI_SD1*%
X219850807Y-94590000D03*
X212269696Y-91863644D03*
%TO.N,/Data/QSPI_SD2*%
X220690807Y-94590000D03*
X213220807Y-91845000D03*
%TO.N,/RST*%
X236460000Y-140710000D03*
X217030807Y-99430000D03*
%TO.N,/RX*%
X235320000Y-141900000D03*
X215780807Y-99840000D03*
%TO.N,Net-(U27-GPIO1)*%
X217200807Y-96016526D03*
%TO.N,/TX*%
X235910000Y-141350000D03*
X215770807Y-99010000D03*
%TO.N,/stack6/1V2-0B*%
X166225000Y-158400000D03*
%TO.N,/stack7/1V2-0B*%
X196725000Y-185325000D03*
%TO.N,/stack6/CI*%
X189800000Y-185630000D03*
%TO.N,/stack6/CLKI*%
X189820000Y-186590000D03*
%TO.N,/stack6/RO*%
X189800000Y-187540000D03*
%TO.N,/stack6/BI*%
X189800000Y-188500000D03*
%TO.N,/stack6/NRSTI*%
X189770000Y-189480000D03*
%TO.N,Net-(U45-NRSTI)*%
X146410000Y-173030000D03*
%TO.N,Net-(U45-RO)*%
X146640000Y-174770000D03*
%TO.N,Net-(U45-CLKI)*%
X146650000Y-175780000D03*
%TO.N,Net-(U45-CI)*%
X146650000Y-176790000D03*
%TO.N,Net-(U54-NRSTI)*%
X165260000Y-191320000D03*
%TO.N,Net-(U54-BI)*%
X165260000Y-190500000D03*
%TO.N,Net-(U54-RO)*%
X165260000Y-189720000D03*
%TO.N,Net-(U54-CLKI)*%
X165260000Y-188950000D03*
%TO.N,Net-(U54-CI)*%
X165260000Y-188190000D03*
%TO.N,/stack4/BI*%
X143550000Y-187730000D03*
%TO.N,/stack4/NRSTI*%
X143570000Y-189020000D03*
%TO.N,Net-(U63-NRSTI)*%
X187370000Y-161170000D03*
%TO.N,/stack5/NRSTI*%
X165190000Y-164710000D03*
%TO.N,Net-(U63-BI)*%
X186880000Y-160260000D03*
%TO.N,/stack5/BI*%
X165190000Y-163710000D03*
%TO.N,Net-(U63-RO)*%
X187400000Y-159300000D03*
%TO.N,/stack5/RO*%
X165190000Y-162700000D03*
%TO.N,Net-(U63-CLKI)*%
X186860000Y-158530000D03*
%TO.N,/stack5/CLKI*%
X165190000Y-161750000D03*
%TO.N,Net-(U63-CI)*%
X187400000Y-157550000D03*
%TO.N,/stack5/CI*%
X165190000Y-160720000D03*
%TO.N,Net-(U72-NRSTI)*%
X214940000Y-183060000D03*
%TO.N,Net-(U72-BI)*%
X213930000Y-183060000D03*
%TO.N,Net-(U72-RO)*%
X212920000Y-183060000D03*
%TO.N,Net-(U72-CLKI)*%
X211930000Y-183040000D03*
%TO.N,Net-(U72-CI)*%
X210910000Y-183040000D03*
%TO.N,/stack7/RST_N*%
X232640000Y-155330000D03*
X232600000Y-159300000D03*
%TO.N,Net-(U74-CLKI)*%
X219680000Y-162210000D03*
%TO.N,/5V*%
X218010000Y-173960000D03*
X218010000Y-160100000D03*
X126570000Y-169880000D03*
X218010000Y-192610000D03*
X126570000Y-188380000D03*
X126570000Y-183670000D03*
X218010000Y-187650000D03*
D19*
X205010000Y-93760000D03*
D18*
X190338749Y-176083749D03*
X126570000Y-175090000D03*
X149830000Y-192140000D03*
X126700000Y-155760000D03*
D19*
X225170000Y-87770000D03*
D18*
X144584719Y-171505281D03*
X147310000Y-192140000D03*
X144680000Y-157700000D03*
X218010000Y-178850000D03*
X126570000Y-161220000D03*
X174860000Y-157460000D03*
X191670000Y-163360000D03*
X170610000Y-174190000D03*
X170690000Y-190600000D03*
X170910000Y-185720000D03*
D19*
X219548700Y-87520000D03*
D18*
X215950000Y-165800000D03*
X148720000Y-153100000D03*
%TO.N,/Data/PWR_EN*%
X127780000Y-87090000D03*
X211000000Y-96900000D03*
%TO.N,Net-(U1-HO1)*%
X141460000Y-95770000D03*
X128980000Y-97510000D03*
%TO.N,Net-(U1-LO1)*%
X147239012Y-98760988D03*
X132763949Y-96740000D03*
%TO.N,Net-(U1-LO2)*%
X138130000Y-88180000D03*
X132990000Y-87096874D03*
%TO.N,Net-(U1-HO2)*%
X130560000Y-91820000D03*
X145782864Y-93968227D03*
%TD*%
%TA.AperFunction,Conductor*%
%TO.N,/Power/VIN*%
G36*
X173243039Y-79019685D02*
G01*
X173288794Y-79072489D01*
X173300000Y-79124000D01*
X173300000Y-92976000D01*
X173280315Y-93043039D01*
X173227511Y-93088794D01*
X173176000Y-93100000D01*
X159224000Y-93100000D01*
X159156961Y-93080315D01*
X159111206Y-93027511D01*
X159100000Y-92976000D01*
X159100000Y-79124000D01*
X159119685Y-79056961D01*
X159172489Y-79011206D01*
X159224000Y-79000000D01*
X173176000Y-79000000D01*
X173243039Y-79019685D01*
G37*
%TD.AperFunction*%
%TD*%
%TA.AperFunction,Conductor*%
%TO.N,GND*%
G36*
X199543760Y-79019725D02*
G01*
X199589553Y-79072496D01*
X199600793Y-79123291D01*
X199715483Y-96954449D01*
X199696230Y-97021614D01*
X199643722Y-97067708D01*
X199591283Y-97079247D01*
X197634935Y-97076040D01*
X197603171Y-97075988D01*
X197603170Y-97075988D01*
X197603163Y-97075988D01*
X197495245Y-97087463D01*
X197495242Y-97087463D01*
X197495238Y-97087464D01*
X197450183Y-97097231D01*
X197443503Y-97098680D01*
X197340542Y-97132918D01*
X197219510Y-97210730D01*
X197166715Y-97256494D01*
X197072517Y-97365240D01*
X197012771Y-97496120D01*
X197012768Y-97496128D01*
X196993093Y-97563177D01*
X196972642Y-97705596D01*
X196972642Y-97705599D01*
X196974612Y-108976106D01*
X196974612Y-108976114D01*
X196986176Y-109083527D01*
X196997381Y-109135010D01*
X197031499Y-109237505D01*
X197109282Y-109358537D01*
X197109291Y-109358548D01*
X197155035Y-109411340D01*
X197155038Y-109411343D01*
X197155042Y-109411347D01*
X197263776Y-109505567D01*
X197394653Y-109565338D01*
X197461692Y-109585023D01*
X197461696Y-109585024D01*
X197604112Y-109605500D01*
X199673652Y-109605500D01*
X199740691Y-109625185D01*
X199786446Y-109677989D01*
X199797649Y-109728702D01*
X199927549Y-129924380D01*
X199927549Y-129924383D01*
X210044216Y-142771816D01*
X210070226Y-142836664D01*
X210070740Y-142852212D01*
X209911993Y-148195914D01*
X188280933Y-148211322D01*
X188290670Y-147078007D01*
X188180638Y-147077344D01*
X180225198Y-147029454D01*
X180158278Y-147009366D01*
X180112842Y-146956288D01*
X180101944Y-146905546D01*
X180090000Y-130080000D01*
X180090000Y-130079999D01*
X161504760Y-130092996D01*
X161437706Y-130073358D01*
X161391915Y-130020586D01*
X161380673Y-129969081D01*
X161380642Y-129924380D01*
X161368739Y-112550237D01*
X161388378Y-112483188D01*
X161441150Y-112437397D01*
X161492574Y-112426156D01*
X176389546Y-112406612D01*
X176366671Y-79140784D01*
X176386309Y-79073732D01*
X176439082Y-79027941D01*
X176490579Y-79016700D01*
X199476706Y-79000089D01*
X199543760Y-79019725D01*
G37*
%TD.AperFunction*%
%TD*%
%TA.AperFunction,Conductor*%
%TO.N,/stack6/GND1*%
G36*
X186012624Y-173219685D02*
G01*
X186058379Y-173272489D01*
X186069583Y-173324749D01*
X185991080Y-186326749D01*
X185970991Y-186393668D01*
X185917912Y-186439103D01*
X185867082Y-186450000D01*
X177303910Y-186450000D01*
X177236871Y-186430315D01*
X177191116Y-186377511D01*
X177181534Y-186320010D01*
X177180500Y-186320010D01*
X177180500Y-186166079D01*
X177151659Y-186021092D01*
X177151658Y-186021091D01*
X177151658Y-186021087D01*
X177151656Y-186021082D01*
X177095085Y-185884506D01*
X177092214Y-185879135D01*
X177094729Y-185877790D01*
X177077424Y-185822845D01*
X177086838Y-185772975D01*
X177121658Y-185688913D01*
X177150500Y-185543918D01*
X177150500Y-185396082D01*
X177150500Y-185396079D01*
X177121659Y-185251092D01*
X177121658Y-185251091D01*
X177121658Y-185251087D01*
X177091557Y-185178416D01*
X177065085Y-185114506D01*
X177065084Y-185114504D01*
X177040897Y-185078305D01*
X177035246Y-185060259D01*
X177025023Y-185044351D01*
X177020571Y-185013388D01*
X177020020Y-185011628D01*
X177020000Y-185009416D01*
X177020000Y-184838915D01*
X177022383Y-184814722D01*
X177030500Y-184773918D01*
X177030500Y-184626079D01*
X177022383Y-184585275D01*
X177020000Y-184561083D01*
X177020000Y-178289459D01*
X177022383Y-178265267D01*
X177050500Y-178123920D01*
X177050500Y-177976079D01*
X177022383Y-177834730D01*
X177020000Y-177810538D01*
X177020000Y-173324000D01*
X177039685Y-173256961D01*
X177092489Y-173211206D01*
X177144000Y-173200000D01*
X185945585Y-173200000D01*
X186012624Y-173219685D01*
G37*
%TD.AperFunction*%
%TD*%
%TA.AperFunction,Conductor*%
%TO.N,/stack6/GND0*%
G36*
X185993039Y-159605185D02*
G01*
X186038794Y-159657989D01*
X186050000Y-159709500D01*
X186050000Y-164244450D01*
X186030315Y-164311489D01*
X186029103Y-164313340D01*
X185994914Y-164364508D01*
X185938343Y-164501082D01*
X185938340Y-164501092D01*
X185909500Y-164646079D01*
X185909500Y-164646082D01*
X185909500Y-164793918D01*
X185909500Y-164793920D01*
X185909499Y-164793920D01*
X185938340Y-164938907D01*
X185938343Y-164938917D01*
X185994912Y-165075488D01*
X185994916Y-165075495D01*
X186029102Y-165126659D01*
X186049980Y-165193335D01*
X186050000Y-165195549D01*
X186050000Y-170677566D01*
X186040561Y-170725019D01*
X185988342Y-170851086D01*
X185988340Y-170851092D01*
X185959500Y-170996079D01*
X185959500Y-170996082D01*
X185959500Y-171143918D01*
X185959500Y-171143920D01*
X185959499Y-171143920D01*
X185988340Y-171288907D01*
X185988343Y-171288917D01*
X186020011Y-171365371D01*
X186027480Y-171434841D01*
X186008553Y-171481713D01*
X185959918Y-171554500D01*
X185959912Y-171554511D01*
X185903343Y-171691082D01*
X185903340Y-171691092D01*
X185874500Y-171836079D01*
X185874500Y-171836082D01*
X185874500Y-171983918D01*
X185874500Y-171983920D01*
X185874499Y-171983920D01*
X185903340Y-172128907D01*
X185903343Y-172128917D01*
X185959912Y-172265488D01*
X185959919Y-172265501D01*
X186029102Y-172369039D01*
X186034752Y-172387085D01*
X186044977Y-172402995D01*
X186049428Y-172433954D01*
X186049980Y-172435716D01*
X186050000Y-172437930D01*
X186050000Y-172570500D01*
X186030315Y-172637539D01*
X185977511Y-172683294D01*
X185926000Y-172694500D01*
X177164000Y-172694500D01*
X177096961Y-172674815D01*
X177051206Y-172622011D01*
X177040000Y-172570500D01*
X177040000Y-159709500D01*
X177059685Y-159642461D01*
X177112489Y-159596706D01*
X177164000Y-159585500D01*
X185926000Y-159585500D01*
X185993039Y-159605185D01*
G37*
%TD.AperFunction*%
%TD*%
%TA.AperFunction,Conductor*%
%TO.N,/stack5/GND1*%
G36*
X164311992Y-163354463D02*
G01*
X164311993Y-163354462D01*
X164312007Y-163354463D01*
X164332225Y-163352374D01*
X164400932Y-163365064D01*
X164451872Y-163412885D01*
X164468871Y-163480656D01*
X164466586Y-163499908D01*
X164439500Y-163636077D01*
X164439500Y-163636082D01*
X164439500Y-163783918D01*
X164439500Y-163783920D01*
X164439499Y-163783920D01*
X164468340Y-163928907D01*
X164468342Y-163928913D01*
X164510561Y-164030838D01*
X164520000Y-164078291D01*
X164520000Y-164341707D01*
X164510561Y-164389159D01*
X164468343Y-164491082D01*
X164468340Y-164491092D01*
X164439500Y-164636079D01*
X164439500Y-164636082D01*
X164439500Y-164783918D01*
X164439500Y-164783920D01*
X164439499Y-164783920D01*
X164468340Y-164928907D01*
X164468340Y-164928908D01*
X164468341Y-164928912D01*
X164468342Y-164928913D01*
X164480973Y-164959407D01*
X164488441Y-165028876D01*
X164457165Y-165091355D01*
X164454094Y-165094537D01*
X164419551Y-165129081D01*
X164419546Y-165129087D01*
X164337419Y-165251998D01*
X164337412Y-165252011D01*
X164280843Y-165388582D01*
X164280840Y-165388592D01*
X164252000Y-165533579D01*
X164252000Y-165533582D01*
X164252000Y-165681418D01*
X164252000Y-165681420D01*
X164251999Y-165681420D01*
X164280840Y-165826407D01*
X164280843Y-165826417D01*
X164337412Y-165962988D01*
X164337419Y-165963001D01*
X164419547Y-166085914D01*
X164419548Y-166085915D01*
X164419549Y-166085916D01*
X164483682Y-166150049D01*
X164517166Y-166211370D01*
X164520000Y-166237729D01*
X164520000Y-171164382D01*
X164500315Y-171231421D01*
X164499104Y-171233271D01*
X164484917Y-171254503D01*
X164484914Y-171254508D01*
X164428342Y-171391086D01*
X164428340Y-171391092D01*
X164399500Y-171536079D01*
X164399500Y-171536082D01*
X164399500Y-171683918D01*
X164399500Y-171683920D01*
X164399499Y-171683920D01*
X164428340Y-171828907D01*
X164428343Y-171828917D01*
X164484912Y-171965488D01*
X164484920Y-171965502D01*
X164499101Y-171986725D01*
X164519980Y-172053402D01*
X164520000Y-172055617D01*
X164520000Y-176288638D01*
X164511355Y-176318078D01*
X164504832Y-176348065D01*
X164501077Y-176353080D01*
X164500315Y-176355677D01*
X164483681Y-176376319D01*
X164406319Y-176453681D01*
X164344996Y-176487166D01*
X164318638Y-176490000D01*
X155634000Y-176490000D01*
X155566961Y-176470315D01*
X155521206Y-176417511D01*
X155510000Y-176366000D01*
X155510000Y-174365617D01*
X155529685Y-174298578D01*
X155530899Y-174296725D01*
X155545079Y-174275502D01*
X155545084Y-174275495D01*
X155601658Y-174138913D01*
X155630500Y-173993918D01*
X155630500Y-173846082D01*
X155630500Y-173846079D01*
X155601659Y-173701092D01*
X155601658Y-173701091D01*
X155601658Y-173701087D01*
X155545084Y-173564505D01*
X155530896Y-173543271D01*
X155510020Y-173476593D01*
X155510000Y-173474382D01*
X155510000Y-165548915D01*
X155512383Y-165524722D01*
X155520500Y-165483918D01*
X155520500Y-165336079D01*
X155512383Y-165295275D01*
X155510000Y-165271083D01*
X155510000Y-163430308D01*
X155529685Y-163363269D01*
X155582489Y-163317514D01*
X155634688Y-163306310D01*
X164311992Y-163354463D01*
G37*
%TD.AperFunction*%
%TD*%
%TA.AperFunction,Conductor*%
%TO.N,/stack7/GND0*%
G36*
X207563039Y-177039685D02*
G01*
X207608794Y-177092489D01*
X207620000Y-177144000D01*
X207620000Y-187809552D01*
X207600315Y-187876591D01*
X207599102Y-187878443D01*
X207534919Y-187974498D01*
X207534912Y-187974511D01*
X207478343Y-188111082D01*
X207478340Y-188111092D01*
X207449500Y-188256079D01*
X207449500Y-188256082D01*
X207449500Y-188403918D01*
X207449500Y-188403920D01*
X207449499Y-188403920D01*
X207478340Y-188548907D01*
X207478343Y-188548917D01*
X207534912Y-188685488D01*
X207534919Y-188685500D01*
X207599102Y-188781556D01*
X207619980Y-188848233D01*
X207620000Y-188850447D01*
X207620000Y-190068636D01*
X207611355Y-190098076D01*
X207604832Y-190128063D01*
X207601077Y-190133078D01*
X207600315Y-190135675D01*
X207583681Y-190156317D01*
X207581908Y-190158090D01*
X207520585Y-190191575D01*
X207476581Y-190193147D01*
X207416437Y-190184500D01*
X198734000Y-190184500D01*
X198666961Y-190164815D01*
X198621206Y-190112011D01*
X198610000Y-190060500D01*
X198610000Y-178433306D01*
X198629685Y-178366267D01*
X198630871Y-178364454D01*
X198656175Y-178326586D01*
X198712749Y-178190004D01*
X198741591Y-178045009D01*
X198741591Y-177897173D01*
X198741591Y-177897170D01*
X198712750Y-177752183D01*
X198712749Y-177752182D01*
X198712749Y-177752178D01*
X198712747Y-177752173D01*
X198656176Y-177615597D01*
X198656174Y-177615594D01*
X198630898Y-177577765D01*
X198610020Y-177511088D01*
X198610000Y-177508875D01*
X198610000Y-177144000D01*
X198629685Y-177076961D01*
X198682489Y-177031206D01*
X198734000Y-177020000D01*
X207496000Y-177020000D01*
X207563039Y-177039685D01*
G37*
%TD.AperFunction*%
%TD*%
%TA.AperFunction,Conductor*%
%TO.N,GND*%
G36*
X209920257Y-148251673D02*
G01*
X209920296Y-148254691D01*
X209925706Y-156630055D01*
X209906065Y-156697107D01*
X209853290Y-156742896D01*
X209784138Y-156752884D01*
X209754258Y-156744698D01*
X209738913Y-156738342D01*
X209738908Y-156738341D01*
X209738907Y-156738340D01*
X209593920Y-156709500D01*
X209593918Y-156709500D01*
X209446082Y-156709500D01*
X209446080Y-156709500D01*
X209301092Y-156738340D01*
X209301082Y-156738343D01*
X209164511Y-156794912D01*
X209164498Y-156794919D01*
X209041584Y-156877048D01*
X209041580Y-156877051D01*
X208937051Y-156981580D01*
X208937048Y-156981584D01*
X208854919Y-157104498D01*
X208854912Y-157104511D01*
X208798343Y-157241082D01*
X208798340Y-157241092D01*
X208769500Y-157386079D01*
X208769500Y-157386082D01*
X208769500Y-157533918D01*
X208769500Y-157533920D01*
X208769499Y-157533920D01*
X208798340Y-157678907D01*
X208798343Y-157678917D01*
X208854912Y-157815488D01*
X208854919Y-157815501D01*
X208937048Y-157938415D01*
X208937051Y-157938419D01*
X209041580Y-158042948D01*
X209041584Y-158042951D01*
X209164498Y-158125080D01*
X209164511Y-158125087D01*
X209284675Y-158174860D01*
X209301087Y-158181658D01*
X209301091Y-158181658D01*
X209301092Y-158181659D01*
X209446079Y-158210500D01*
X209446082Y-158210500D01*
X209593920Y-158210500D01*
X209727551Y-158183918D01*
X209738913Y-158181658D01*
X209755325Y-158174859D01*
X209824791Y-158167390D01*
X209887271Y-158198663D01*
X209922925Y-158258751D01*
X209926778Y-158289340D01*
X209929582Y-162629057D01*
X209909941Y-162696109D01*
X209857166Y-162741898D01*
X209829774Y-162750754D01*
X209691092Y-162778340D01*
X209691082Y-162778343D01*
X209554511Y-162834912D01*
X209554504Y-162834916D01*
X209541387Y-162843681D01*
X209518307Y-162859102D01*
X209451632Y-162879980D01*
X209449417Y-162880000D01*
X192302729Y-162880000D01*
X192235690Y-162860315D01*
X192215052Y-162843685D01*
X192148416Y-162777049D01*
X192148415Y-162777048D01*
X192148414Y-162777047D01*
X192025501Y-162694919D01*
X192025488Y-162694912D01*
X191888917Y-162638343D01*
X191888907Y-162638340D01*
X191743920Y-162609500D01*
X191743918Y-162609500D01*
X191596082Y-162609500D01*
X191596080Y-162609500D01*
X191451092Y-162638340D01*
X191451082Y-162638343D01*
X191314511Y-162694912D01*
X191314498Y-162694919D01*
X191191585Y-162777047D01*
X191161122Y-162807511D01*
X191124950Y-162843682D01*
X191063630Y-162877166D01*
X191037271Y-162880000D01*
X190698751Y-162880000D01*
X190631712Y-162860315D01*
X190585957Y-162807511D01*
X190574752Y-162755575D01*
X190575253Y-162609500D01*
X190579182Y-161463977D01*
X190588617Y-161416963D01*
X190641658Y-161288913D01*
X190670500Y-161143918D01*
X190670500Y-160996082D01*
X190670500Y-160996079D01*
X190641659Y-160851092D01*
X190641658Y-160851091D01*
X190641658Y-160851087D01*
X190591302Y-160729518D01*
X190581866Y-160681648D01*
X190582961Y-160362431D01*
X190592398Y-160315409D01*
X190611658Y-160268913D01*
X190640500Y-160123918D01*
X190640500Y-159976082D01*
X190640500Y-159976079D01*
X190611659Y-159831091D01*
X190611658Y-159831089D01*
X190611658Y-159831087D01*
X190594526Y-159789727D01*
X190585090Y-159741858D01*
X190586385Y-159364162D01*
X190595822Y-159317143D01*
X190611658Y-159278913D01*
X190640500Y-159133918D01*
X190640500Y-158986082D01*
X190640500Y-158986079D01*
X190611659Y-158841092D01*
X190611658Y-158841091D01*
X190611658Y-158841087D01*
X190597895Y-158807862D01*
X190588458Y-158759988D01*
X190589672Y-158406228D01*
X190599110Y-158359206D01*
X190611658Y-158328913D01*
X190619530Y-158289340D01*
X190640500Y-158183920D01*
X190640500Y-158036079D01*
X190611659Y-157891092D01*
X190611658Y-157891091D01*
X190611658Y-157891087D01*
X190601127Y-157865664D01*
X190599468Y-157857247D01*
X190596593Y-157852739D01*
X190591690Y-157817793D01*
X190592059Y-157710242D01*
X190611973Y-157643273D01*
X190628373Y-157622993D01*
X190682951Y-157568416D01*
X190765084Y-157445495D01*
X190821658Y-157308913D01*
X190850500Y-157163918D01*
X190850500Y-157016082D01*
X190850500Y-157016079D01*
X190821659Y-156871092D01*
X190821658Y-156871091D01*
X190821658Y-156871087D01*
X190821656Y-156871082D01*
X190765087Y-156734511D01*
X190765080Y-156734498D01*
X190682951Y-156611584D01*
X190682948Y-156611580D01*
X190634193Y-156562825D01*
X190634178Y-156562811D01*
X190596126Y-156524759D01*
X190596131Y-156523446D01*
X190594797Y-156523430D01*
X190578416Y-156507049D01*
X190564140Y-156497510D01*
X190564138Y-156497508D01*
X190455501Y-156424919D01*
X190455488Y-156424912D01*
X190318917Y-156368343D01*
X190318907Y-156368340D01*
X190173920Y-156339500D01*
X190173918Y-156339500D01*
X190026082Y-156339500D01*
X190026080Y-156339500D01*
X189881092Y-156368340D01*
X189881082Y-156368343D01*
X189744511Y-156424912D01*
X189744500Y-156424918D01*
X189645914Y-156490791D01*
X189579236Y-156511668D01*
X189575595Y-156511680D01*
X188402571Y-156498158D01*
X188335763Y-156477702D01*
X188290619Y-156424374D01*
X188280000Y-156374166D01*
X188280000Y-148263883D01*
X188280496Y-148262193D01*
X188280932Y-148211322D01*
X209918863Y-148195909D01*
X209920257Y-148251673D01*
G37*
%TD.AperFunction*%
%TD*%
%TA.AperFunction,Conductor*%
%TO.N,/stack4/GND1*%
G36*
X142788367Y-173139685D02*
G01*
X142834122Y-173192489D01*
X142844066Y-173261647D01*
X142835889Y-173291452D01*
X142827343Y-173312082D01*
X142827340Y-173312092D01*
X142798500Y-173457079D01*
X142798500Y-173457082D01*
X142798500Y-173604918D01*
X142798500Y-173604920D01*
X142798499Y-173604920D01*
X142827340Y-173749907D01*
X142827343Y-173749917D01*
X142880916Y-173879255D01*
X142888385Y-173948724D01*
X142880916Y-173974159D01*
X142828343Y-174101082D01*
X142828340Y-174101092D01*
X142799500Y-174246079D01*
X142799500Y-174246082D01*
X142799500Y-174393918D01*
X142799500Y-174393920D01*
X142799499Y-174393920D01*
X142828340Y-174538907D01*
X142828343Y-174538917D01*
X142884912Y-174675488D01*
X142884916Y-174675495D01*
X142909102Y-174711692D01*
X142914753Y-174729739D01*
X142924977Y-174745648D01*
X142929428Y-174776605D01*
X142929980Y-174778368D01*
X142930000Y-174780583D01*
X142930000Y-174917543D01*
X142910315Y-174984582D01*
X142909103Y-174986433D01*
X142861004Y-175058417D01*
X142804434Y-175194991D01*
X142804431Y-175195001D01*
X142775591Y-175339988D01*
X142775591Y-175339991D01*
X142775591Y-175487827D01*
X142775591Y-175487829D01*
X142775590Y-175487829D01*
X142804431Y-175632816D01*
X142804434Y-175632826D01*
X142861003Y-175769397D01*
X142861010Y-175769409D01*
X142909102Y-175841383D01*
X142929980Y-175908060D01*
X142930000Y-175910274D01*
X142930000Y-183609992D01*
X142920561Y-183657444D01*
X142898343Y-183711082D01*
X142898340Y-183711092D01*
X142869500Y-183856079D01*
X142869500Y-183856082D01*
X142869500Y-184003918D01*
X142869500Y-184003920D01*
X142869499Y-184003920D01*
X142898340Y-184148907D01*
X142898342Y-184148913D01*
X142920561Y-184202554D01*
X142922187Y-184210731D01*
X142924977Y-184215072D01*
X142930000Y-184250007D01*
X142930000Y-184489483D01*
X142910315Y-184556522D01*
X142909103Y-184558372D01*
X142864915Y-184624504D01*
X142864914Y-184624506D01*
X142808343Y-184761082D01*
X142808340Y-184761092D01*
X142779500Y-184906079D01*
X142779500Y-184906082D01*
X142779500Y-185053918D01*
X142779500Y-185053920D01*
X142779499Y-185053920D01*
X142808340Y-185198907D01*
X142808342Y-185198913D01*
X142864914Y-185335491D01*
X142864919Y-185335500D01*
X142868313Y-185340579D01*
X142889191Y-185407257D01*
X142879772Y-185456922D01*
X142828343Y-185581082D01*
X142828340Y-185581092D01*
X142799500Y-185726079D01*
X142799500Y-185726082D01*
X142799500Y-185873918D01*
X142799500Y-185873920D01*
X142799499Y-185873920D01*
X142828340Y-186018907D01*
X142828343Y-186018917D01*
X142885306Y-186156439D01*
X142887442Y-186176314D01*
X142894429Y-186195045D01*
X142891101Y-186210341D01*
X142892775Y-186225908D01*
X142883826Y-186243784D01*
X142879577Y-186263318D01*
X142862889Y-186285610D01*
X142861499Y-186288387D01*
X142858426Y-186291572D01*
X142839298Y-186310700D01*
X142777975Y-186344185D01*
X142733973Y-186345757D01*
X142725232Y-186344500D01*
X142725227Y-186344500D01*
X134064000Y-186344500D01*
X134057250Y-186345225D01*
X133988494Y-186332819D01*
X133937357Y-186285208D01*
X133920000Y-186221936D01*
X133920000Y-185112729D01*
X133939685Y-185045690D01*
X133956323Y-185025044D01*
X133962950Y-185018417D01*
X133962951Y-185018416D01*
X134045084Y-184895495D01*
X134101658Y-184758913D01*
X134128394Y-184624505D01*
X134130500Y-184613920D01*
X134130500Y-184466079D01*
X134101659Y-184321092D01*
X134101658Y-184321091D01*
X134101658Y-184321087D01*
X134101656Y-184321082D01*
X134045087Y-184184511D01*
X134045080Y-184184498D01*
X133962951Y-184061584D01*
X133962948Y-184061580D01*
X133956319Y-184054951D01*
X133922834Y-183993628D01*
X133920000Y-183967270D01*
X133920000Y-173244000D01*
X133939685Y-173176961D01*
X133992489Y-173131206D01*
X134044000Y-173120000D01*
X142721328Y-173120000D01*
X142788367Y-173139685D01*
G37*
%TD.AperFunction*%
%TD*%
%TA.AperFunction,Conductor*%
%TO.N,/3V6*%
G36*
X141737998Y-156682161D02*
G01*
X141737998Y-156842161D01*
X141737998Y-158870500D01*
X141718313Y-158937539D01*
X141665509Y-158983294D01*
X141613998Y-158994500D01*
X135374000Y-158994500D01*
X135306961Y-158974815D01*
X135261206Y-158922011D01*
X135250000Y-158870500D01*
X135250000Y-156804219D01*
X135250000Y-156680000D01*
X141737998Y-156682161D01*
G37*
%TD.AperFunction*%
%TD*%
%TA.AperFunction,Conductor*%
%TO.N,/stack7/GND1*%
G36*
X207563039Y-163405185D02*
G01*
X207608794Y-163457989D01*
X207620000Y-163509500D01*
X207620000Y-176378636D01*
X207611355Y-176408076D01*
X207604832Y-176438063D01*
X207601077Y-176443078D01*
X207600315Y-176445675D01*
X207583681Y-176466317D01*
X207571817Y-176478181D01*
X207510494Y-176511666D01*
X207484136Y-176514500D01*
X198839906Y-176514500D01*
X198772867Y-176494815D01*
X198727112Y-176442011D01*
X198718289Y-176414692D01*
X198701659Y-176331092D01*
X198701658Y-176331091D01*
X198701658Y-176331087D01*
X198645084Y-176194505D01*
X198630896Y-176173271D01*
X198610020Y-176106593D01*
X198610000Y-176104382D01*
X198610000Y-175575617D01*
X198629685Y-175508578D01*
X198630899Y-175506725D01*
X198645079Y-175485502D01*
X198645084Y-175485495D01*
X198701658Y-175348913D01*
X198730500Y-175203918D01*
X198730500Y-175056082D01*
X198730500Y-175056079D01*
X198701659Y-174911092D01*
X198701658Y-174911091D01*
X198701658Y-174911087D01*
X198645084Y-174774505D01*
X198630896Y-174753271D01*
X198610020Y-174686593D01*
X198610000Y-174684382D01*
X198610000Y-165292729D01*
X198629685Y-165225690D01*
X198646314Y-165205052D01*
X198722951Y-165128416D01*
X198805084Y-165005495D01*
X198861658Y-164868913D01*
X198890500Y-164723918D01*
X198890500Y-164576082D01*
X198890500Y-164576079D01*
X198861659Y-164431092D01*
X198861658Y-164431091D01*
X198861658Y-164431087D01*
X198861656Y-164431082D01*
X198805087Y-164294511D01*
X198805080Y-164294498D01*
X198722951Y-164171584D01*
X198722948Y-164171580D01*
X198646319Y-164094951D01*
X198612834Y-164033628D01*
X198610000Y-164007270D01*
X198610000Y-163509500D01*
X198629685Y-163442461D01*
X198682489Y-163396706D01*
X198734000Y-163385500D01*
X207496000Y-163385500D01*
X207563039Y-163405185D01*
G37*
%TD.AperFunction*%
%TD*%
%TA.AperFunction,Conductor*%
%TO.N,/stack5/GND0*%
G36*
X164437357Y-177008846D02*
G01*
X164485874Y-177059124D01*
X164500000Y-177116602D01*
X164500000Y-177728667D01*
X164480315Y-177795706D01*
X164454664Y-177824521D01*
X164451580Y-177827051D01*
X164347051Y-177931580D01*
X164347048Y-177931584D01*
X164264919Y-178054498D01*
X164264912Y-178054511D01*
X164208343Y-178191082D01*
X164208340Y-178191092D01*
X164179500Y-178336079D01*
X164179500Y-178336082D01*
X164179500Y-178483918D01*
X164179500Y-178483920D01*
X164179499Y-178483920D01*
X164208340Y-178628907D01*
X164208343Y-178628917D01*
X164264912Y-178765488D01*
X164264919Y-178765501D01*
X164347048Y-178888415D01*
X164347051Y-178888419D01*
X164451575Y-178992943D01*
X164451580Y-178992947D01*
X164451584Y-178992951D01*
X164451588Y-178992953D01*
X164454657Y-178995472D01*
X164455839Y-178997207D01*
X164455891Y-178997259D01*
X164455881Y-178997268D01*
X164493996Y-179053215D01*
X164500000Y-179091332D01*
X164500000Y-189918638D01*
X164491355Y-189948078D01*
X164484832Y-189978065D01*
X164481077Y-189983080D01*
X164480315Y-189985677D01*
X164463681Y-190006319D01*
X164431819Y-190038181D01*
X164370496Y-190071666D01*
X164344138Y-190074500D01*
X155654000Y-190074500D01*
X155627251Y-190077375D01*
X155558494Y-190064969D01*
X155507357Y-190017358D01*
X155490000Y-189954086D01*
X155490000Y-178730007D01*
X155499439Y-178682554D01*
X155521658Y-178628913D01*
X155550500Y-178483918D01*
X155550500Y-178336082D01*
X155550500Y-178336079D01*
X155521659Y-178191092D01*
X155521658Y-178191091D01*
X155521658Y-178191087D01*
X155521656Y-178191082D01*
X155499439Y-178137444D01*
X155490000Y-178089992D01*
X155490000Y-177117899D01*
X155509685Y-177050860D01*
X155562489Y-177005105D01*
X155629566Y-176995460D01*
X155629586Y-176995184D01*
X155630855Y-176995274D01*
X155631644Y-176995161D01*
X155634000Y-176995500D01*
X155634004Y-176995500D01*
X164318638Y-176995500D01*
X164369363Y-176992780D01*
X164437357Y-177008846D01*
G37*
%TD.AperFunction*%
%TD*%
%TA.AperFunction,Conductor*%
%TO.N,/stack4/GND2*%
G36*
X142792266Y-186869685D02*
G01*
X142838021Y-186922489D01*
X142839788Y-186926547D01*
X142884914Y-187035491D01*
X142884919Y-187035500D01*
X142929102Y-187101624D01*
X142934752Y-187119670D01*
X142944977Y-187135580D01*
X142949428Y-187166539D01*
X142949980Y-187168301D01*
X142950000Y-187170515D01*
X142950000Y-187239483D01*
X142930315Y-187306522D01*
X142929103Y-187308372D01*
X142884915Y-187374504D01*
X142884914Y-187374506D01*
X142828343Y-187511082D01*
X142828340Y-187511092D01*
X142799500Y-187656079D01*
X142799500Y-187656082D01*
X142799500Y-187803918D01*
X142799500Y-187803920D01*
X142799499Y-187803920D01*
X142828340Y-187948907D01*
X142828343Y-187948917D01*
X142884912Y-188085488D01*
X142884919Y-188085500D01*
X142929102Y-188151624D01*
X142949980Y-188218301D01*
X142950000Y-188220515D01*
X142950000Y-188559416D01*
X142930315Y-188626455D01*
X142929103Y-188628305D01*
X142904915Y-188664504D01*
X142904914Y-188664506D01*
X142848343Y-188801082D01*
X142848340Y-188801092D01*
X142819500Y-188946079D01*
X142819500Y-188946082D01*
X142819500Y-189093918D01*
X142819500Y-189093920D01*
X142819499Y-189093920D01*
X142848340Y-189238907D01*
X142848343Y-189238917D01*
X142904912Y-189375488D01*
X142904916Y-189375495D01*
X142929102Y-189411692D01*
X142949980Y-189478368D01*
X142950000Y-189480583D01*
X142950000Y-192830000D01*
X142960000Y-192840000D01*
X147014135Y-192840000D01*
X147061587Y-192849438D01*
X147091087Y-192861658D01*
X147091091Y-192861658D01*
X147091092Y-192861659D01*
X147236079Y-192890500D01*
X147236082Y-192890500D01*
X147383920Y-192890500D01*
X147481462Y-192871096D01*
X147528913Y-192861658D01*
X147558412Y-192849438D01*
X147605865Y-192840000D01*
X149534135Y-192840000D01*
X149581587Y-192849438D01*
X149611087Y-192861658D01*
X149611091Y-192861658D01*
X149611092Y-192861659D01*
X149756079Y-192890500D01*
X149756082Y-192890500D01*
X149903920Y-192890500D01*
X150001462Y-192871096D01*
X150048913Y-192861658D01*
X150078412Y-192849438D01*
X150125865Y-192840000D01*
X155500000Y-192840000D01*
X155530000Y-192810000D01*
X155530000Y-192712730D01*
X155549685Y-192645691D01*
X155566319Y-192625049D01*
X155652948Y-192538419D01*
X155652951Y-192538416D01*
X155735084Y-192415495D01*
X155791658Y-192278913D01*
X155820500Y-192133918D01*
X155820500Y-191986082D01*
X155820500Y-191986079D01*
X155791659Y-191841092D01*
X155791658Y-191841091D01*
X155791658Y-191841087D01*
X155768221Y-191784505D01*
X155735087Y-191704511D01*
X155735080Y-191704498D01*
X155652951Y-191581584D01*
X155652948Y-191581580D01*
X155566319Y-191494951D01*
X155532834Y-191433628D01*
X155530000Y-191407270D01*
X155530000Y-190704000D01*
X155549685Y-190636961D01*
X155602489Y-190591206D01*
X155654000Y-190580000D01*
X164405781Y-190580000D01*
X164472820Y-190599685D01*
X164518575Y-190652489D01*
X164529781Y-190704260D01*
X164528873Y-191136733D01*
X164526490Y-191160664D01*
X164509500Y-191246077D01*
X164509500Y-191393919D01*
X164525728Y-191475502D01*
X164528111Y-191499954D01*
X164500259Y-204776502D01*
X164480434Y-204843500D01*
X164427534Y-204889144D01*
X164376502Y-204900242D01*
X134064243Y-204959756D01*
X133997165Y-204940203D01*
X133951307Y-204887489D01*
X133940000Y-204835756D01*
X133940000Y-186974000D01*
X133959685Y-186906961D01*
X134012489Y-186861206D01*
X134064000Y-186850000D01*
X142725227Y-186850000D01*
X142792266Y-186869685D01*
G37*
%TD.AperFunction*%
%TD*%
%TA.AperFunction,Conductor*%
%TO.N,/stack6/GND2*%
G36*
X185902737Y-186979685D02*
G01*
X185948492Y-187032489D01*
X185959697Y-187084325D01*
X185950000Y-190750000D01*
X198549790Y-190690001D01*
X198550380Y-190690000D01*
X207416437Y-190690000D01*
X207483476Y-190709685D01*
X207529231Y-190762489D01*
X207540436Y-190813478D01*
X207599475Y-204825559D01*
X207580073Y-204892680D01*
X207527462Y-204938657D01*
X207475557Y-204950081D01*
X177074081Y-204969919D01*
X177007029Y-204950278D01*
X176961239Y-204897504D01*
X176950000Y-204845919D01*
X176950000Y-192213920D01*
X197069499Y-192213920D01*
X197098340Y-192358907D01*
X197098343Y-192358917D01*
X197154912Y-192495488D01*
X197154919Y-192495501D01*
X197237048Y-192618415D01*
X197237051Y-192618419D01*
X197341580Y-192722948D01*
X197341584Y-192722951D01*
X197464498Y-192805080D01*
X197464511Y-192805087D01*
X197601082Y-192861656D01*
X197601087Y-192861658D01*
X197601091Y-192861658D01*
X197601092Y-192861659D01*
X197746079Y-192890500D01*
X197746082Y-192890500D01*
X197893920Y-192890500D01*
X197991462Y-192871096D01*
X198038913Y-192861658D01*
X198175495Y-192805084D01*
X198298416Y-192722951D01*
X198402951Y-192618416D01*
X198485084Y-192495495D01*
X198541658Y-192358913D01*
X198570500Y-192213918D01*
X198570500Y-192066082D01*
X198570500Y-192066079D01*
X198541659Y-191921092D01*
X198541658Y-191921091D01*
X198541658Y-191921087D01*
X198541656Y-191921082D01*
X198485087Y-191784511D01*
X198485080Y-191784498D01*
X198402951Y-191661584D01*
X198402948Y-191661580D01*
X198298419Y-191557051D01*
X198298415Y-191557048D01*
X198175501Y-191474919D01*
X198175488Y-191474912D01*
X198038917Y-191418343D01*
X198038907Y-191418340D01*
X197893920Y-191389500D01*
X197893918Y-191389500D01*
X197746082Y-191389500D01*
X197746080Y-191389500D01*
X197601092Y-191418340D01*
X197601082Y-191418343D01*
X197464511Y-191474912D01*
X197464498Y-191474919D01*
X197341584Y-191557048D01*
X197341580Y-191557051D01*
X197237051Y-191661580D01*
X197237048Y-191661584D01*
X197154919Y-191784498D01*
X197154912Y-191784511D01*
X197098343Y-191921082D01*
X197098340Y-191921092D01*
X197069500Y-192066079D01*
X197069500Y-192066082D01*
X197069500Y-192213918D01*
X197069500Y-192213920D01*
X197069499Y-192213920D01*
X176950000Y-192213920D01*
X176950000Y-188460447D01*
X176969685Y-188393408D01*
X176970898Y-188391556D01*
X177035084Y-188295495D01*
X177091658Y-188158913D01*
X177118975Y-188021584D01*
X177120500Y-188013920D01*
X177120500Y-187866079D01*
X177091659Y-187721092D01*
X177091658Y-187721091D01*
X177091658Y-187721087D01*
X177042783Y-187603093D01*
X177035315Y-187533627D01*
X177052520Y-187491025D01*
X177052215Y-187490862D01*
X177053731Y-187488024D01*
X177054249Y-187486744D01*
X177055084Y-187485495D01*
X177111658Y-187348913D01*
X177140500Y-187203918D01*
X177140500Y-187084000D01*
X177160185Y-187016961D01*
X177212989Y-186971206D01*
X177264500Y-186960000D01*
X185835698Y-186960000D01*
X185902737Y-186979685D01*
G37*
%TD.AperFunction*%
%TD*%
%TA.AperFunction,Conductor*%
%TO.N,/stack4/GND0*%
G36*
X142903039Y-159519685D02*
G01*
X142948794Y-159572489D01*
X142960000Y-159624000D01*
X142960000Y-170407270D01*
X142940315Y-170474309D01*
X142923681Y-170494951D01*
X142857051Y-170561580D01*
X142857048Y-170561584D01*
X142774919Y-170684498D01*
X142774912Y-170684511D01*
X142718343Y-170821082D01*
X142718340Y-170821092D01*
X142689500Y-170966079D01*
X142689500Y-170966082D01*
X142689500Y-171113918D01*
X142689500Y-171113920D01*
X142689499Y-171113920D01*
X142718340Y-171258907D01*
X142718343Y-171258917D01*
X142774912Y-171395488D01*
X142774919Y-171395501D01*
X142857048Y-171518415D01*
X142857051Y-171518419D01*
X142865305Y-171526673D01*
X142898790Y-171587996D01*
X142893806Y-171657688D01*
X142892186Y-171661803D01*
X142888344Y-171671077D01*
X142888341Y-171671088D01*
X142859500Y-171816079D01*
X142859500Y-171816082D01*
X142859500Y-171963918D01*
X142859500Y-171963920D01*
X142859499Y-171963920D01*
X142888340Y-172108907D01*
X142888343Y-172108917D01*
X142924464Y-172196121D01*
X142931933Y-172265590D01*
X142913007Y-172312461D01*
X142884920Y-172354498D01*
X142884914Y-172354508D01*
X142828342Y-172491086D01*
X142828340Y-172491091D01*
X142823646Y-172514693D01*
X142791260Y-172576603D01*
X142730544Y-172611177D01*
X142702029Y-172614500D01*
X134074000Y-172614500D01*
X134006961Y-172594815D01*
X133961206Y-172542011D01*
X133950000Y-172490500D01*
X133950000Y-159624000D01*
X133969685Y-159556961D01*
X134022489Y-159511206D01*
X134074000Y-159500000D01*
X142836000Y-159500000D01*
X142903039Y-159519685D01*
G37*
%TD.AperFunction*%
%TD*%
%TA.AperFunction,Conductor*%
%TO.N,/3V6*%
G36*
X153077209Y-124524100D02*
G01*
X153144102Y-124544275D01*
X153189469Y-124597413D01*
X153200300Y-124647793D01*
X153216175Y-131124838D01*
X153216174Y-131124838D01*
X153232950Y-131124840D01*
X178042888Y-131128385D01*
X178109924Y-131148079D01*
X178155672Y-131200890D01*
X178166869Y-131252904D01*
X178101136Y-146962971D01*
X178081171Y-147029927D01*
X178028176Y-147075461D01*
X177977178Y-147086452D01*
X153023581Y-147094736D01*
X153014978Y-148307857D01*
X152994818Y-148374756D01*
X152941691Y-148420135D01*
X152890970Y-148430978D01*
X147294651Y-148430460D01*
X147277834Y-155287239D01*
X147257985Y-155354230D01*
X147241516Y-155374616D01*
X147139548Y-155476584D01*
X147057419Y-155599498D01*
X147057412Y-155599511D01*
X147000843Y-155736082D01*
X147000840Y-155736092D01*
X146972000Y-155881079D01*
X146972000Y-155881082D01*
X146972000Y-156028918D01*
X146972000Y-156028920D01*
X146971999Y-156028920D01*
X147000840Y-156173907D01*
X147000843Y-156173917D01*
X147057412Y-156310488D01*
X147057419Y-156310501D01*
X147139548Y-156433415D01*
X147139551Y-156433419D01*
X147238246Y-156532114D01*
X147253019Y-156559169D01*
X147269627Y-156585151D01*
X147270472Y-156591131D01*
X147271731Y-156593437D01*
X147274565Y-156620098D01*
X147274247Y-156750112D01*
X147254398Y-156817103D01*
X147201482Y-156862729D01*
X147149522Y-156873807D01*
X141737998Y-156842161D01*
X141737998Y-156682161D01*
X135250000Y-156680000D01*
X135250000Y-156804219D01*
X135249999Y-156804218D01*
X133873996Y-156796171D01*
X133807073Y-156776095D01*
X133805831Y-156775276D01*
X133715491Y-156714913D01*
X133578917Y-156658343D01*
X133578907Y-156658340D01*
X133433920Y-156629500D01*
X133433918Y-156629500D01*
X133286082Y-156629500D01*
X133286080Y-156629500D01*
X133141092Y-156658340D01*
X133141082Y-156658343D01*
X133004506Y-156714914D01*
X133004503Y-156714916D01*
X132964706Y-156741508D01*
X132898029Y-156762386D01*
X132848364Y-156752967D01*
X132788917Y-156728343D01*
X132788907Y-156728340D01*
X132643920Y-156699500D01*
X132643918Y-156699500D01*
X132496082Y-156699500D01*
X132496080Y-156699500D01*
X132351092Y-156728340D01*
X132351082Y-156728343D01*
X132233946Y-156776862D01*
X132185769Y-156786299D01*
X126874111Y-156755237D01*
X126865631Y-156752693D01*
X126856865Y-156753930D01*
X126832683Y-156742809D01*
X126807188Y-156735161D01*
X126801429Y-156728435D01*
X126793386Y-156724737D01*
X126779055Y-156702307D01*
X126761742Y-156682090D01*
X126759542Y-156671769D01*
X126755767Y-156665860D01*
X126750836Y-156630915D01*
X126750874Y-156616519D01*
X126770736Y-156549532D01*
X126823661Y-156503917D01*
X126850682Y-156495230D01*
X126918913Y-156481658D01*
X127024547Y-156437902D01*
X127055488Y-156425087D01*
X127055488Y-156425086D01*
X127055495Y-156425084D01*
X127178416Y-156342951D01*
X127282951Y-156238416D01*
X127365084Y-156115495D01*
X127421658Y-155978913D01*
X127448394Y-155844505D01*
X127450500Y-155833920D01*
X127450500Y-155686079D01*
X127421659Y-155541092D01*
X127421658Y-155541091D01*
X127421658Y-155541087D01*
X127383722Y-155449500D01*
X127365087Y-155404511D01*
X127365080Y-155404498D01*
X127282951Y-155281584D01*
X127282948Y-155281580D01*
X127178419Y-155177051D01*
X127178415Y-155177048D01*
X127055501Y-155094919D01*
X127055488Y-155094912D01*
X126918917Y-155038343D01*
X126918907Y-155038340D01*
X126855165Y-155025661D01*
X126793254Y-154993276D01*
X126758680Y-154932560D01*
X126755358Y-154903727D01*
X126772305Y-148430006D01*
X126795933Y-129886142D01*
X126815703Y-129819131D01*
X126868565Y-129773443D01*
X126920198Y-129762303D01*
X135677973Y-129781252D01*
X146348534Y-124488128D01*
X146404540Y-124475216D01*
X153077209Y-124524100D01*
G37*
%TD.AperFunction*%
%TD*%
%TA.AperFunction,Conductor*%
%TO.N,/Power/SW1*%
G36*
X155382962Y-104280161D02*
G01*
X155429156Y-104332581D01*
X155440793Y-104384240D01*
X155479999Y-110519999D01*
X155479999Y-110520000D01*
X155490704Y-110520091D01*
X156579634Y-110529438D01*
X156646500Y-110549697D01*
X156647459Y-110550331D01*
X156684505Y-110575084D01*
X156684507Y-110575085D01*
X156684511Y-110575087D01*
X156821082Y-110631656D01*
X156821087Y-110631658D01*
X156821091Y-110631658D01*
X156821092Y-110631659D01*
X156966079Y-110660500D01*
X156966082Y-110660500D01*
X157113920Y-110660500D01*
X157211462Y-110641096D01*
X157258913Y-110631658D01*
X157395495Y-110575084D01*
X157420834Y-110558152D01*
X157487507Y-110537274D01*
X157490717Y-110537259D01*
X160377066Y-110562034D01*
X160443932Y-110582293D01*
X160489232Y-110635488D01*
X160500000Y-110686029D01*
X160500000Y-114975215D01*
X160480315Y-115042254D01*
X160427511Y-115088009D01*
X160375141Y-115099212D01*
X152965000Y-115047850D01*
X152965000Y-119801000D01*
X152945315Y-119868039D01*
X152892511Y-119913794D01*
X152841000Y-119925000D01*
X147223337Y-119925000D01*
X147156298Y-119905315D01*
X147110543Y-119852511D01*
X147099339Y-119801665D01*
X147073819Y-115042254D01*
X147050227Y-110642513D01*
X147069552Y-110575373D01*
X147075896Y-110566305D01*
X151863165Y-104337473D01*
X151919623Y-104296316D01*
X151960442Y-104289042D01*
X155315764Y-104261036D01*
X155382962Y-104280161D01*
G37*
%TD.AperFunction*%
%TD*%
%TA.AperFunction,Conductor*%
%TO.N,/Power/SW2*%
G36*
X216591441Y-104639825D02*
G01*
X216637325Y-104692516D01*
X216648657Y-104744346D01*
X216643463Y-119914891D01*
X216623755Y-119981924D01*
X216570936Y-120027661D01*
X216518541Y-120038846D01*
X210046215Y-119990724D01*
X209979324Y-119970541D01*
X209933963Y-119917398D01*
X209923140Y-119867522D01*
X209893700Y-115275000D01*
X203520668Y-115263158D01*
X203453665Y-115243349D01*
X203408008Y-115190460D01*
X203396900Y-115139819D01*
X203370664Y-110214661D01*
X203389991Y-110147517D01*
X203442550Y-110101482D01*
X203494662Y-110090000D01*
X209939661Y-110090000D01*
X209939661Y-110089999D01*
X209939541Y-110057563D01*
X209920103Y-104760640D01*
X209939541Y-104693532D01*
X209992177Y-104647583D01*
X210043794Y-104636188D01*
X210853982Y-104634202D01*
X210901732Y-104643641D01*
X210921087Y-104651658D01*
X210956594Y-104658721D01*
X211066079Y-104680500D01*
X211066082Y-104680500D01*
X211213920Y-104680500D01*
X211311462Y-104661096D01*
X211358913Y-104651658D01*
X211381667Y-104642232D01*
X211428809Y-104632794D01*
X216524355Y-104620304D01*
X216591441Y-104639825D01*
G37*
%TD.AperFunction*%
%TD*%
%TA.AperFunction,Conductor*%
%TO.N,/Power/LOOP1*%
G36*
X160480518Y-115950312D02*
G01*
X160526689Y-116002753D01*
X160538301Y-116056150D01*
X160532624Y-116762894D01*
X160512402Y-116829773D01*
X160459232Y-116875102D01*
X160389996Y-116884490D01*
X160326675Y-116854956D01*
X160320947Y-116849579D01*
X160278419Y-116807051D01*
X160278415Y-116807048D01*
X160155501Y-116724919D01*
X160155488Y-116724912D01*
X160018917Y-116668343D01*
X160018907Y-116668340D01*
X159873920Y-116639500D01*
X159873918Y-116639500D01*
X159726082Y-116639500D01*
X159726080Y-116639500D01*
X159581092Y-116668340D01*
X159581082Y-116668343D01*
X159444511Y-116724912D01*
X159444498Y-116724919D01*
X159321584Y-116807048D01*
X159321580Y-116807051D01*
X159217051Y-116911580D01*
X159217048Y-116911584D01*
X159134919Y-117034498D01*
X159134912Y-117034511D01*
X159078343Y-117171082D01*
X159078340Y-117171092D01*
X159049500Y-117316079D01*
X159049500Y-117316082D01*
X159049500Y-117463918D01*
X159049500Y-117463920D01*
X159049499Y-117463920D01*
X159078340Y-117608907D01*
X159078343Y-117608917D01*
X159134912Y-117745488D01*
X159134919Y-117745501D01*
X159217048Y-117868415D01*
X159217051Y-117868419D01*
X159321580Y-117972948D01*
X159321584Y-117972951D01*
X159444498Y-118055080D01*
X159444511Y-118055087D01*
X159581082Y-118111656D01*
X159581087Y-118111658D01*
X159581091Y-118111658D01*
X159581092Y-118111659D01*
X159726079Y-118140500D01*
X159726082Y-118140500D01*
X159873920Y-118140500D01*
X159971462Y-118121096D01*
X160018913Y-118111658D01*
X160155495Y-118055084D01*
X160278416Y-117972951D01*
X160310773Y-117940594D01*
X160372095Y-117907108D01*
X160441787Y-117912092D01*
X160497721Y-117953962D01*
X160522139Y-118019426D01*
X160522451Y-118029270D01*
X160475122Y-123921592D01*
X160454900Y-123988471D01*
X160401730Y-124033800D01*
X160351321Y-124044596D01*
X153593880Y-124055238D01*
X153526810Y-124035659D01*
X153480972Y-123982927D01*
X153469692Y-123929967D01*
X153469778Y-123921592D01*
X153549873Y-116107120D01*
X153570242Y-116040290D01*
X153623512Y-115995079D01*
X153672884Y-115984399D01*
X160413326Y-115931158D01*
X160480518Y-115950312D01*
G37*
%TD.AperFunction*%
%TD*%
%TA.AperFunction,Conductor*%
%TO.N,/3V6*%
G36*
X219272715Y-126564815D02*
G01*
X219318651Y-126617462D01*
X219330035Y-126669484D01*
X219313447Y-143331704D01*
X219293696Y-143398724D01*
X219240846Y-143444427D01*
X219190162Y-143455579D01*
X212328443Y-143495164D01*
X212261291Y-143475866D01*
X212229884Y-143447340D01*
X203271006Y-131939814D01*
X203245355Y-131874823D01*
X203244850Y-131863344D01*
X203257117Y-126723538D01*
X203276962Y-126656549D01*
X203329875Y-126610920D01*
X203380687Y-126599838D01*
X219205610Y-126545362D01*
X219272715Y-126564815D01*
G37*
%TD.AperFunction*%
%TD*%
%TA.AperFunction,Conductor*%
%TO.N,/Power/LOOP2*%
G36*
X208644304Y-115955227D02*
G01*
X208690611Y-116007547D01*
X208702364Y-116060298D01*
X208701957Y-116952442D01*
X208682242Y-117019472D01*
X208629417Y-117065203D01*
X208560254Y-117075115D01*
X208496712Y-117046061D01*
X208474855Y-117021276D01*
X208441651Y-116971584D01*
X208441648Y-116971580D01*
X208337119Y-116867051D01*
X208337115Y-116867048D01*
X208214201Y-116784919D01*
X208214188Y-116784912D01*
X208077617Y-116728343D01*
X208077607Y-116728340D01*
X207932620Y-116699500D01*
X207932618Y-116699500D01*
X207784782Y-116699500D01*
X207784780Y-116699500D01*
X207639792Y-116728340D01*
X207639782Y-116728343D01*
X207503211Y-116784912D01*
X207503198Y-116784919D01*
X207380284Y-116867048D01*
X207380280Y-116867051D01*
X207275751Y-116971580D01*
X207275748Y-116971584D01*
X207193619Y-117094498D01*
X207193612Y-117094511D01*
X207137043Y-117231082D01*
X207137040Y-117231092D01*
X207108200Y-117376079D01*
X207108200Y-117376082D01*
X207108200Y-117523918D01*
X207108200Y-117523920D01*
X207108199Y-117523920D01*
X207137040Y-117668907D01*
X207137043Y-117668917D01*
X207193612Y-117805488D01*
X207193619Y-117805501D01*
X207275748Y-117928415D01*
X207275751Y-117928419D01*
X207380280Y-118032948D01*
X207380284Y-118032951D01*
X207503198Y-118115080D01*
X207503211Y-118115087D01*
X207639782Y-118171656D01*
X207639787Y-118171658D01*
X207639791Y-118171658D01*
X207639792Y-118171659D01*
X207784779Y-118200500D01*
X207784782Y-118200500D01*
X207932620Y-118200500D01*
X208030162Y-118181096D01*
X208077613Y-118171658D01*
X208214195Y-118115084D01*
X208337116Y-118032951D01*
X208441651Y-117928416D01*
X208474400Y-117879404D01*
X208528012Y-117834599D01*
X208597337Y-117825892D01*
X208660364Y-117856046D01*
X208697084Y-117915489D01*
X208701502Y-117948352D01*
X208698751Y-123967909D01*
X208679036Y-124034939D01*
X208626211Y-124080670D01*
X208574835Y-124091852D01*
X201198237Y-124096849D01*
X201131184Y-124077210D01*
X201085394Y-124024437D01*
X201074153Y-123973140D01*
X201074141Y-123967909D01*
X201055761Y-116138277D01*
X201075288Y-116071195D01*
X201127985Y-116025316D01*
X201178455Y-116013996D01*
X208577062Y-115936248D01*
X208644304Y-115955227D01*
G37*
%TD.AperFunction*%
%TD*%
%TA.AperFunction,Conductor*%
%TO.N,/Power/VIN_M*%
G36*
X208768750Y-97599796D02*
G01*
X208835756Y-97619591D01*
X208881425Y-97672470D01*
X208892545Y-97724228D01*
X208853347Y-108976432D01*
X208833429Y-109043402D01*
X208780466Y-109088973D01*
X208729348Y-109100000D01*
X197604112Y-109100000D01*
X197537073Y-109080315D01*
X197491318Y-109027511D01*
X197480112Y-108976022D01*
X197478143Y-97705506D01*
X197497816Y-97638466D01*
X197550612Y-97592702D01*
X197602342Y-97581487D01*
X208768750Y-97599796D01*
G37*
%TD.AperFunction*%
%TD*%
%TA.AperFunction,Conductor*%
%TO.N,/Power/VIN_M*%
G36*
X175000120Y-95662186D02*
G01*
X175045899Y-95714969D01*
X175057129Y-95766710D01*
X175036882Y-109933753D01*
X175017102Y-110000764D01*
X174964232Y-110046444D01*
X174913570Y-110057574D01*
X161242028Y-110133407D01*
X161174880Y-110114095D01*
X161128833Y-110061545D01*
X161125199Y-110052848D01*
X160840000Y-109290000D01*
X157488954Y-109282417D01*
X157421960Y-109262580D01*
X157420346Y-109261520D01*
X157395495Y-109244915D01*
X157395493Y-109244914D01*
X157258917Y-109188343D01*
X157258907Y-109188340D01*
X157113920Y-109159500D01*
X157113918Y-109159500D01*
X156966082Y-109159500D01*
X156966080Y-109159500D01*
X156821092Y-109188340D01*
X156821082Y-109188343D01*
X156684506Y-109244914D01*
X156662683Y-109259496D01*
X156644506Y-109265186D01*
X156628460Y-109275448D01*
X156597942Y-109279765D01*
X156596005Y-109280372D01*
X156593514Y-109280392D01*
X156543192Y-109280278D01*
X156476197Y-109260441D01*
X156430562Y-109207534D01*
X156419474Y-109156810D01*
X156400119Y-104617943D01*
X156411878Y-104564706D01*
X159057973Y-98930000D01*
X159065996Y-95773599D01*
X159085851Y-95706613D01*
X159138771Y-95660992D01*
X159189937Y-95649917D01*
X174933071Y-95642533D01*
X175000120Y-95662186D01*
G37*
%TD.AperFunction*%
%TD*%
%TA.AperFunction,Conductor*%
%TO.N,/stack5/GND2*%
G36*
X186032665Y-148267076D02*
G01*
X186078609Y-148319715D01*
X186090000Y-148371631D01*
X186090000Y-158956000D01*
X186070315Y-159023039D01*
X186017511Y-159068794D01*
X185966000Y-159080000D01*
X177164000Y-159080000D01*
X177096961Y-159060315D01*
X177051206Y-159007511D01*
X177040000Y-158956000D01*
X177040000Y-157110000D01*
X176535414Y-157110000D01*
X176468375Y-157090315D01*
X176466523Y-157089102D01*
X176355501Y-157014919D01*
X176355488Y-157014912D01*
X176218917Y-156958343D01*
X176218907Y-156958340D01*
X176073920Y-156929500D01*
X176073918Y-156929500D01*
X175926082Y-156929500D01*
X175926080Y-156929500D01*
X175781092Y-156958340D01*
X175781082Y-156958343D01*
X175644511Y-157014912D01*
X175644497Y-157014920D01*
X175623658Y-157028844D01*
X175556980Y-157049720D01*
X175489601Y-157031234D01*
X175451667Y-156994629D01*
X175442951Y-156981584D01*
X175442950Y-156981583D01*
X175442948Y-156981580D01*
X175338419Y-156877051D01*
X175338415Y-156877048D01*
X175215501Y-156794919D01*
X175215488Y-156794912D01*
X175078917Y-156738343D01*
X175078907Y-156738340D01*
X174933920Y-156709500D01*
X174933918Y-156709500D01*
X174786082Y-156709500D01*
X174786080Y-156709500D01*
X174641092Y-156738340D01*
X174641082Y-156738343D01*
X174504511Y-156794912D01*
X174504498Y-156794919D01*
X174381584Y-156877048D01*
X174381580Y-156877051D01*
X174277050Y-156981581D01*
X174228068Y-157054890D01*
X174174455Y-157099696D01*
X174124965Y-157110000D01*
X164500000Y-157110000D01*
X164500000Y-160399992D01*
X164490561Y-160447444D01*
X164468343Y-160501082D01*
X164468340Y-160501092D01*
X164439500Y-160646079D01*
X164439500Y-160646082D01*
X164439500Y-160793918D01*
X164439500Y-160793920D01*
X164439499Y-160793920D01*
X164468340Y-160938907D01*
X164468342Y-160938913D01*
X164490561Y-160992554D01*
X164500000Y-161040007D01*
X164500000Y-161429992D01*
X164490561Y-161477444D01*
X164468343Y-161531082D01*
X164468340Y-161531092D01*
X164439500Y-161676079D01*
X164439500Y-161676082D01*
X164439500Y-161823918D01*
X164439500Y-161823920D01*
X164439499Y-161823920D01*
X164468340Y-161968907D01*
X164468342Y-161968913D01*
X164484575Y-162008104D01*
X164490561Y-162022554D01*
X164500000Y-162070007D01*
X164500000Y-162379992D01*
X164490561Y-162427444D01*
X164468343Y-162481082D01*
X164468340Y-162481092D01*
X164439500Y-162626079D01*
X164439500Y-162724973D01*
X164419815Y-162792012D01*
X164367011Y-162837767D01*
X164314812Y-162848971D01*
X155613034Y-162800682D01*
X155546105Y-162780626D01*
X155500644Y-162727569D01*
X155489722Y-162676966D01*
X155488366Y-162075184D01*
X155507900Y-162008104D01*
X155509201Y-162006111D01*
X155518942Y-161991534D01*
X155575516Y-161854952D01*
X155587657Y-161793918D01*
X155604358Y-161709959D01*
X155604358Y-161562118D01*
X155575517Y-161417131D01*
X155575516Y-161417130D01*
X155575516Y-161417126D01*
X155518942Y-161280544D01*
X155507279Y-161263089D01*
X155486401Y-161196415D01*
X155486382Y-161194595D01*
X155457732Y-148480991D01*
X155477266Y-148413909D01*
X155529966Y-148368035D01*
X155581285Y-148356714D01*
X185965557Y-148247632D01*
X186032665Y-148267076D01*
G37*
%TD.AperFunction*%
%TD*%
M02*
